<svg viewBox="0 0 74 74" width="74mm" height="74mm" xmlns="http://www.w3.org/2000/svg">
  <g transform="scale(0.074000)" fill-rule="evenodd">
    <g id="forma" fill="#CB3747">
      <path d="M 93.637 76.465 C 79.877 81.370, 77.022 93.787, 80.393 134.068 C 81.287 144.756, 82.681 163.850, 83.491 176.500 C 84.300 189.150, 85.890 206.250, 87.023 214.500 C 88.155 222.750, 89.489 237.600, 89.986 247.500 C 92.191 291.423, 99.258 361.024, 105.520 400.500 C 116.014 466.657, 134.926 544.478, 149.869 583 C 165.694 623.793, 169.042 631.227, 176.445 642 C 184.987 654.433, 188.551 660.355, 197.374 676.786 C 206.070 692.978, 222.100 715.749, 233.664 728.335 C 244.304 739.916, 248.171 746.459, 250.547 756.905 C 251.800 762.418, 253.044 765.169, 255.488 767.835 L 258.754 771.399 270.127 772.031 C 278.025 772.470, 282.569 773.207, 285 774.444 C 289.078 776.518, 305.814 785.986, 325.001 797.074 C 353.791 813.712, 394.410 826.961, 436.866 833.563 C 442.568 834.450, 450.893 836.314, 455.366 837.706 C 461.649 839.662, 466.913 840.420, 478.500 841.038 C 513.328 842.897, 518.357 843.949, 529.008 851.601 C 536.154 856.735, 543.233 857.097, 549.921 852.671 C 556.094 848.586, 561.350 847.004, 568.876 846.968 C 572.519 846.951, 580.225 846.302, 586 845.525 C 592.700 844.625, 600.481 844.317, 607.500 844.676 C 617.315 845.178, 619.146 844.995, 624.500 842.976 C 639.518 837.312, 647.492 834.879, 660.026 832.133 C 667.437 830.510, 679.915 826.877, 687.755 824.060 C 695.595 821.243, 706.008 817.631, 710.894 816.035 C 715.781 814.438, 723.766 811.133, 728.639 808.692 C 733.513 806.250, 742 802.583, 747.500 800.543 C 764.532 794.225, 779.080 781.896, 800.383 755.724 C 811.573 741.977, 818.192 736.814, 825.396 736.217 C 830.824 735.767, 832.203 736.276, 842.500 742.536 C 849.443 746.756, 854.397 745.246, 854.218 738.964 C 854.129 735.830, 852.522 733.209, 844.754 723.526 C 834.559 710.819, 834.745 705.656, 846.364 678.821 C 855.717 657.217, 864.510 633.655, 869.902 615.747 C 872.179 608.183, 876.302 595.583, 879.065 587.747 C 889.026 559.489, 890.588 551.838, 900.453 483 C 907.083 436.734, 911.048 401.102, 912.971 370.500 C 913.559 361.150, 914.694 344.725, 915.494 334 C 916.293 323.275, 917.219 302.575, 917.552 288 C 917.884 273.425, 918.814 254.528, 919.619 246.008 C 921.999 220.792, 920.086 135.509, 916.872 123.536 C 912.898 108.733, 897.272 108.208, 885.639 122.488 C 880.019 129.388, 864.662 152.166, 859.002 162 C 856.628 166.125, 848.974 177.825, 841.995 188 C 835.015 198.175, 826.228 212.462, 822.468 219.749 C 813.387 237.349, 803.463 252.953, 768.094 305.250 C 764.467 310.613, 758.698 319.593, 755.273 325.206 C 717.522 387.076, 688.273 398.084, 590.668 387.155 C 549.506 382.546, 543.873 381.323, 532 374.408 C 523.439 369.423, 519.420 368.677, 510.803 370.475 C 497.252 373.302, 491.190 372.825, 428 363.965 C 362.542 354.786, 339.564 343.750, 302.992 303.925 C 291.125 291.003, 285.342 285.150, 275.851 276.453 C 271.589 272.547, 266.614 266.348, 261.809 258.953 C 257.716 252.654, 248.077 239.850, 240.390 230.500 C 232.702 221.150, 217.685 202.475, 207.018 189 C 177.136 151.253, 127.572 93.293, 116.599 83.265 C 108.467 75.832, 101.336 73.720, 93.637 76.465"/>
    </g>
    <g id="detalles" fill="#1A1A1A">
      <path d="M 87.732 115.536 C 85.679 116.931, 84 118.774, 84 119.632 C 84 120.490, 83.233 122.490, 82.296 124.077 C 80.277 127.495, 81.461 131.776, 88.133 145.186 C 94.310 157.598, 98.198 161, 106.210 161 C 120.411 161, 124.180 149.713, 114.643 135.746 C 112.297 132.311, 109.070 127.090, 107.472 124.144 C 101.743 113.583, 94.960 110.625, 87.732 115.536 M 894.344 127.250 C 886.485 135.631, 882.704 154.707, 887.959 159.463 C 898.428 168.937, 914.438 153.251, 912.526 135.395 C 911.764 128.280, 911.174 127.563, 904.391 125.505 C 897.852 123.522, 897.839 123.524, 894.344 127.250 M 146.321 138.528 C 135.919 146.728, 136.364 167.713, 147.184 179.250 C 156.535 189.219, 170.533 183.443, 170.221 169.746 C 169.639 144.162, 158.173 129.186, 146.321 138.528 M 855.142 152.613 C 852.885 154.194, 852.852 154.467, 853.540 165.991 C 854.123 175.756, 853.952 178.630, 852.531 182.906 C 845.809 203.146, 867.321 214.922, 875.455 195.454 C 884.318 174.242, 879.475 156.619, 863.651 152.497 C 856.747 150.699, 857.897 150.683, 855.142 152.613 M 906 177.403 C 903.375 178.910, 897.653 185.412, 894.474 190.500 C 893.443 192.150, 890.665 195.618, 888.300 198.207 C 878.592 208.834, 885.605 224.826, 898.548 221.577 C 902.675 220.541, 913.846 208.348, 921.259 196.785 C 924.374 191.927, 923.692 181.629, 920.085 179.061 C 916.269 176.343, 909.279 175.521, 906 177.403 M 94.311 186.089 C 93.683 186.717, 92.118 187.754, 90.834 188.393 C 89.550 189.032, 87.702 191.245, 86.726 193.312 L 84.952 197.069 88.929 203.784 C 104.437 229.974, 126.001 235.311, 127.761 213.395 L 128.270 207.048 120.385 198.930 C 109.552 187.776, 98.210 182.190, 94.311 186.089 M 822.250 202.488 C 817.935 204.367, 817.610 214.003, 821.430 226.767 C 822.767 231.232, 824.140 237.049, 824.482 239.693 C 826.624 256.262, 827.085 257.924, 830.136 260.097 C 841.136 267.929, 851.841 258.875, 850.003 243.294 C 847.367 220.936, 839.645 204.462, 831 202.752 C 829.625 202.480, 827.825 201.991, 827 201.665 C 826.175 201.339, 824.038 201.710, 822.250 202.488 M 186.347 203.470 C 183.742 205.294, 180.401 212.275, 178.407 220.057 C 176.553 227.294, 178.710 233.792, 183.954 236.769 C 185.631 237.721, 186.819 238.991, 186.594 239.591 C 185.821 241.652, 187.509 242.706, 192.649 243.374 C 202.702 244.679, 208.916 229.275, 205.054 212.628 C 203.038 203.940, 192.818 198.937, 186.347 203.470 M 145.284 229.701 C 134.453 231.798, 136.703 250.534, 148.315 254.933 C 157.088 258.257, 161.001 255.856, 161.736 246.696 C 162.703 234.656, 155.914 227.644, 145.284 229.701 M 897.517 248.461 C 885.171 255.209, 884.846 255.633, 885.211 264.484 C 885.720 276.810, 893.286 277.957, 910.364 268.298 C 930.341 256.999, 930.400 246.261, 910.500 243.431 C 908.246 243.110, 905.016 244.362, 897.517 248.461 M 96.794 251.588 C 87.653 256.583, 88.861 267.180, 99.875 278.623 C 117.491 296.924, 135 294.962, 135 274.687 C 135 267.714, 134.350 266.674, 128 263.482 C 126.075 262.514, 123.055 260.465, 121.290 258.927 C 112.868 251.592, 102.481 248.480, 96.794 251.588 M 233.605 251.908 C 227.318 256.082, 222.778 274.998, 226.069 283.306 C 231.582 297.224, 244.161 299.674, 250.169 288 C 252.753 282.978, 254.042 264.761, 252.289 258.022 C 250.658 251.752, 239.393 248.065, 233.605 251.908 M 788.453 274.431 C 786.588 277.277, 786.863 293.034, 788.891 299.584 C 789.388 301.188, 790.371 305.803, 791.075 309.841 C 792.609 318.638, 794.496 321.319, 800.295 322.943 C 805.331 324.353, 811.520 322.528, 812.663 319.295 C 813.012 318.308, 814.186 316.513, 815.271 315.306 C 819.376 310.740, 811.832 281.803, 804.847 275.322 C 800.798 271.564, 790.691 271.015, 788.453 274.431 M 836.087 285.652 C 832.785 287.964, 833.046 298.329, 836.462 300.567 C 843.243 305.010, 851 302.056, 851 295.030 C 851 288.705, 840.845 282.319, 836.087 285.652 M 179.235 288.426 C 175.551 291.804, 175.501 291.952, 175.586 299.176 C 175.727 311.119, 177.242 313.957, 184.943 316.710 C 192.758 319.503, 194.628 319.031, 197.070 313.653 C 204.949 296.302, 191.457 277.217, 179.235 288.426 M 896.779 292.465 C 891.144 294.403, 873.493 306.623, 872.186 309.492 C 864.557 326.234, 881.346 333.324, 897.638 320.240 C 901.412 317.209, 906.368 313.888, 908.650 312.862 C 924.282 305.830, 913.214 286.815, 896.779 292.465 M 276.305 305.499 C 271.032 309.192, 269.825 313.111, 270.070 325.746 C 270.334 339.405, 271.411 346.692, 273.508 349.009 C 274.329 349.916, 275 351.340, 275 352.174 C 275 355.632, 285.198 360.048, 288.744 358.124 C 297.874 353.173, 300.922 332.820, 295.274 314.515 C 292.433 305.307, 282.988 300.818, 276.305 305.499 M 752.762 311.070 C 748.239 313.714, 748.677 325.079, 753.723 336 C 757.168 343.455, 757.899 346.054, 759.018 354.824 C 759.921 361.906, 761.301 363.930, 766.968 366.485 C 774.965 370.092, 784.507 363.155, 784.346 353.850 C 784.249 348.256, 779.732 329.629, 777.378 325.117 C 776.627 323.678, 776.010 322.026, 776.006 321.446 C 775.987 318.231, 767.545 312.586, 761.337 311.639 C 759.048 311.290, 756.573 310.790, 755.837 310.529 C 755.102 310.268, 753.718 310.511, 752.762 311.070 M 100.770 317.893 C 98.025 319.288, 95.708 322.079, 93.396 326.770 C 92.780 328.020, 95.920 336.489, 98.527 340.610 C 100.866 344.306, 119.812 352.919, 126.190 353.186 C 135.550 353.578, 139.474 349.638, 140.589 338.729 L 141.281 331.957 137.332 328.229 C 129.215 320.563, 107.561 314.442, 100.770 317.893 M 817.549 335.949 C 814.192 339.452, 814.091 352.131, 817.400 354.550 C 825.594 360.542, 837 354.097, 837 343.475 C 837 335.055, 823.434 329.806, 817.549 335.949 M 226.791 337.681 C 222.407 338.834, 220.679 344.492, 221.421 355.263 C 222.255 367.372, 222.689 368.302, 229.003 371.501 C 237.141 375.625, 238.596 375.036, 241.346 366.500 C 247.312 347.987, 240.311 334.126, 226.791 337.681 M 883.500 339.661 C 880.200 340.465, 876.540 341.316, 875.367 341.552 C 865.345 343.562, 863.721 361.702, 873.128 366.566 C 877.094 368.617, 886.304 368.391, 890.790 366.131 C 892.830 365.104, 896.525 363.962, 899 363.594 C 906.200 362.525, 911.029 357.153, 910.964 350.285 C 910.870 340.386, 899.141 335.848, 883.500 339.661 M 320 341.978 C 310.515 347.099, 307.601 364.840, 314.193 377.335 C 316.704 382.093, 327.660 383.433, 332.396 379.560 C 339.360 373.865, 340.651 350.481, 334.315 344.776 C 332.874 343.479, 324.450 339.750, 323.624 340.044 C 323.556 340.069, 321.925 340.939, 320 341.978 M 167.368 346.368 C 160.746 352.991, 162.284 362.794, 170.908 368.935 C 182.918 377.486, 196.009 357.565, 184.948 347.572 C 177.291 340.655, 173.352 340.385, 167.368 346.368 M 378.223 350.660 C 373.034 352.792, 370.854 371.448, 374.772 380.186 C 378.934 389.465, 387.272 391.618, 394.160 385.190 L 398.500 381.141 398.462 373.321 C 398.387 357.849, 388.276 346.528, 378.223 350.660 M 512.750 359.015 C 510.545 360.381, 510.395 368.421, 512.384 378.500 C 518.442 409.189, 518.577 409.684, 521.326 411.449 C 530.434 417.294, 539.996 412.207, 540.800 401.087 C 541.576 390.362, 535.545 369.854, 529.457 362.515 C 526.220 358.613, 516.637 356.605, 512.750 359.015 M 716.096 362.385 C 714.048 364.852, 713.506 376.457, 715.318 379.044 C 716.428 380.628, 716.623 381.836, 715.966 383.063 C 715.012 384.846, 717.303 398.035, 720.712 410.378 C 723.926 422.014, 736.066 425.658, 742.767 417 C 747.174 411.306, 747.186 411.007, 743.533 397.851 C 737.603 376.494, 733.062 366.740, 728.175 364.860 C 726.704 364.294, 724.226 363.194, 722.669 362.416 C 719.113 360.638, 717.552 360.630, 716.096 362.385 M 428.768 367.750 C 423.365 373.880, 426.350 400.346, 432.941 404.756 C 450.255 416.340, 460.791 385.665, 444.964 369.750 C 440.585 365.346, 431.839 364.266, 428.768 367.750 M 469.377 368.547 C 467.389 371.581, 467.365 372.484, 468.798 390.500 C 470.408 410.743, 471.462 412.649, 481.193 412.924 C 499.294 413.435, 495.065 372.135, 476.500 367.097 C 471.177 365.652, 471.289 365.629, 469.377 368.547 M 794.500 367.892 C 788.908 370.330, 787.034 376.517, 789.543 384.252 C 795.340 402.118, 808.072 404.223, 813.256 388.172 C 817.059 376.395, 804.972 363.326, 794.500 367.892 M 280.893 380.497 C 272.457 385.082, 273.387 400.809, 282.563 408.741 C 286.853 412.449, 287.428 412.555, 292.285 410.525 C 301.604 406.632, 303.934 393.550, 296.763 385.383 C 291.392 379.265, 286.136 377.647, 280.893 380.497 M 885.500 380.918 C 882.750 381.871, 879.825 382.948, 879 383.311 C 878.175 383.673, 874.181 384.657, 870.124 385.498 C 856.367 388.347, 853 391.131, 853 399.657 C 853 416.526, 867.110 418.059, 897.797 404.525 C 904.322 401.648, 905.582 400.693, 906.248 398.121 C 906.679 396.459, 907.476 394.824, 908.018 394.489 C 909.791 393.393, 907.843 385.651, 905.097 382.877 C 901.574 379.319, 892.678 378.429, 885.500 380.918 M 559.247 382.750 C 557.613 386.895, 558.884 417.935, 560.906 423.253 C 564.261 432.078, 577.794 431.523, 581.605 422.403 C 584.657 415.099, 580.802 394.325, 575.045 387.057 C 570.676 381.540, 560.787 378.844, 559.247 382.750 M 654.423 381.967 C 650.956 383.370, 648.442 391.464, 649.844 396.706 C 650.480 399.084, 651 402.470, 651 404.231 C 651 405.992, 651.630 409.248, 652.400 411.467 C 653.170 413.685, 654.315 417.420, 654.945 419.766 C 657.071 427.690, 666.354 431.278, 673.012 426.750 C 682.217 420.489, 680.430 402.974, 668.987 387.304 C 665.623 382.696, 658.800 380.196, 654.423 381.967 M 109.729 387.263 C 98.756 396.552, 102.773 409.279, 118.500 415.051 C 140.359 423.072, 147.950 420.570, 148.827 405.053 C 149.203 398.402, 149.195 398.378, 145.382 395.031 C 135.505 386.359, 115.854 382.077, 109.729 387.263 M 174.395 388.858 C 159.439 398.183, 169.206 418.500, 188.645 418.500 C 198.025 418.500, 202.325 411.576, 199.070 401.713 C 196.056 392.578, 181.004 384.737, 174.395 388.858 M 612.617 394.292 C 607.203 399.706, 605.704 404.551, 606.245 414.890 L 606.741 424.368 611.120 428.154 C 624.886 440.055, 637.405 422.972, 630.012 402.373 C 627.352 394.959, 616.835 390.074, 612.617 394.292 M 776.046 402.800 C 772.240 406.606, 772.141 409.687, 775.421 422.237 C 778.609 434.439, 778.628 434.479, 782.611 437.517 L 786.047 440.138 789.274 437.444 C 795.251 432.455, 796.305 429.822, 795.802 421.135 C 794.834 404.414, 784.252 394.594, 776.046 402.800 M 366.413 404.417 C 360.678 408.417, 334.803 421.413, 328.191 423.615 C 323.961 425.023, 320.073 426.586, 319.550 427.088 C 319.028 427.589, 317.903 428.012, 317.050 428.026 C 316.198 428.040, 313.092 429.586, 310.149 431.461 C 307.205 433.337, 301.355 436.075, 297.149 437.546 C 292.942 439.018, 285 442.392, 279.500 445.045 C 274 447.698, 266.800 450.964, 263.500 452.301 C 260.200 453.639, 255.250 455.667, 252.500 456.808 C 249.750 457.949, 242.775 460.282, 237 461.993 C 231.225 463.704, 225.378 465.571, 224.006 466.142 C 222.635 466.712, 217.910 467.812, 213.506 468.584 C 197.395 471.413, 192.223 481.842, 201.892 492.007 C 207.415 497.813, 215.247 497.777, 230.700 491.874 C 236.640 489.605, 243.975 486.867, 247 485.789 C 253.008 483.649, 259.745 480.901, 267.500 477.425 C 270.250 476.193, 275.650 473.965, 279.500 472.474 C 291.066 467.995, 310.430 459.817, 311.518 458.951 C 312.927 457.829, 336.186 448.262, 343.500 445.796 C 346.800 444.684, 352.200 442.745, 355.500 441.489 C 365.394 437.721, 365.693 438.265, 372.518 472.500 C 373.286 476.350, 375.047 484.735, 376.432 491.134 C 377.816 497.533, 379.659 506.758, 380.526 511.634 C 382.987 525.470, 385.938 542.687, 387.446 552 C 388.202 556.675, 389.077 561.175, 389.390 562 C 389.703 562.825, 390.867 569.350, 391.978 576.500 C 393.089 583.650, 394.938 594.450, 396.086 600.500 C 397.234 606.550, 398.623 614.200, 399.174 617.500 C 399.725 620.800, 400.586 623.927, 401.088 624.450 C 401.589 624.972, 402 626.353, 402 627.518 C 402 647.131, 424.728 652.987, 429.045 634.487 C 431.941 622.073, 437.591 608.430, 449.952 584 C 453.152 577.675, 457.687 567.867, 460.028 562.204 C 466.567 546.391, 466.582 546.407, 477.603 582.500 C 479.114 587.450, 480.704 592.175, 481.136 593 C 481.568 593.825, 483.337 597.836, 485.069 601.914 C 488.209 609.311, 500.660 634.023, 506.021 643.500 C 507.577 646.250, 509.801 651.047, 510.963 654.161 C 518.112 673.308, 539.546 666.488, 537.470 645.727 C 536.778 638.806, 538.137 630.439, 543.191 610.500 C 544.306 606.100, 545.621 599.514, 546.112 595.865 C 548.240 580.067, 552.440 577.751, 555.838 590.500 C 558.390 600.070, 560.322 606.679, 566.073 625.500 C 569.434 636.500, 573.229 648.425, 574.507 652 C 575.784 655.575, 577.371 660.300, 578.033 662.500 C 578.696 664.700, 580.705 670.100, 582.499 674.500 C 584.293 678.900, 586.371 684.519, 587.118 686.986 C 592.146 703.596, 612.469 701.258, 613.076 684 C 613.182 680.975, 614.147 667.250, 615.219 653.500 C 617.253 627.419, 617.207 613.583, 614.948 571.500 C 613.156 538.102, 609.113 496.443, 607.010 489.702 C 604.766 482.508, 608.912 479.244, 618.816 480.408 C 626.140 481.269, 626.895 482.147, 623.640 486.016 C 616.755 494.198, 628.341 514.864, 636.921 509.705 C 643.954 505.475, 646.303 492.145, 641.007 486.508 C 637.355 482.620, 638.910 482.223, 660 481.661 C 670.725 481.374, 688.023 480.495, 698.439 479.706 C 726.726 477.564, 742.765 479.222, 759.500 486.019 C 766.850 489.005, 777.412 491.049, 788.563 491.645 L 800.627 492.290 802.898 489.402 C 808.770 481.937, 802.253 468.590, 792.220 467.534 C 781.838 466.441, 774.649 464.853, 762.202 460.903 C 749.797 456.966, 744.634 456.165, 743.500 458 C 742.562 459.518, 740 459.195, 740 457.559 C 740 455.035, 738.108 454.731, 720.140 454.366 C 701.652 453.990, 683.421 455.225, 673.755 457.507 C 669.681 458.469, 667.064 458.580, 664.755 457.888 C 662.965 457.351, 656.095 457.025, 649.490 457.163 C 642.884 457.301, 637.034 457.156, 636.490 456.840 C 635.229 456.108, 624.237 454.273, 616.709 453.538 C 613.524 453.227, 607.027 451.625, 602.271 449.977 C 582.367 443.080, 573.351 450.910, 578.591 470.540 C 582.762 486.162, 585.962 509.297, 587.924 538 C 588.506 546.525, 589.415 558.450, 589.944 564.500 C 593.642 606.805, 591.650 621.470, 585.257 599 C 584.709 597.075, 583.092 591.675, 581.663 587 C 578.517 576.711, 575.723 565.399, 573.513 554 C 567.365 522.305, 564.385 514.989, 556.787 512.943 C 545.523 509.909, 539.301 515.662, 534.014 534 C 532.824 538.125, 531.478 542.625, 531.021 544 C 530.565 545.375, 529.667 548.750, 529.026 551.500 C 528.386 554.250, 527.272 558.975, 526.551 562 C 525.830 565.025, 524.705 570.200, 524.052 573.500 C 522.184 582.936, 518.963 596.282, 517.958 598.750 C 515.933 603.728, 513.120 600.109, 505.578 582.820 C 502.719 576.266, 493.999 546.980, 488.958 527 C 481.436 497.191, 478.578 491.680, 470.033 490.505 C 458.876 488.970, 455.319 492.996, 449.470 513.781 C 446.967 522.677, 443.629 533.229, 442.054 537.228 C 440.478 541.228, 438.899 546.201, 438.543 548.281 C 437.918 551.945, 436.383 554.687, 430.862 562.004 C 429.411 563.927, 427.057 567.831, 425.631 570.679 C 421.168 579.593, 418.757 578.754, 417.055 567.695 C 415.700 558.896, 412.354 539.969, 410.478 530.500 C 409.715 526.650, 407.712 516.075, 406.026 507 C 404.340 497.925, 402.092 486.675, 401.031 482 C 399.969 477.325, 398.131 468.325, 396.945 462 C 395.760 455.675, 393.306 444.200, 391.493 436.500 C 389.680 428.800, 387.673 420.202, 387.033 417.394 C 384.825 407.701, 372.671 400.053, 366.413 404.417 M 820.388 405.980 C 815.039 408.141, 812.727 415.238, 814.873 422.910 C 817.125 430.960, 830.689 431.218, 834.201 423.277 C 838.843 412.784, 830.233 402.002, 820.388 405.980 M 234.284 412.658 C 226.972 414.216, 224.457 425.739, 230.250 431.146 C 237.387 437.809, 240.565 438.107, 245.888 432.616 C 254.823 423.397, 247.004 409.948, 234.284 412.658 M 407.790 419.314 C 403.543 423.257, 403.474 432.689, 407.582 447.722 C 408.155 449.821, 417.346 455.026, 420 454.755 C 425.081 454.236, 430.189 432.699, 427.036 425.086 C 423.864 417.428, 413.251 414.245, 407.790 419.314 M 451.259 421.448 C 445.418 424.057, 444.404 428.076, 446.935 438.584 C 448.116 443.488, 449.276 448.427, 449.512 449.561 C 451.220 457.730, 461.946 464.495, 466.299 460.148 C 469.566 456.886, 470.155 432.236, 467.085 427.304 C 463.331 421.275, 456.941 418.910, 451.259 421.448 M 864.059 431.564 C 846.479 436.541, 841.932 441.606, 844.958 452.843 C 847.288 461.498, 854.646 462.883, 870.253 457.607 C 876.357 455.543, 882.878 454, 885.499 454 C 895.558 454, 901.546 443.645, 896.139 435.598 C 891.312 428.414, 880.144 427.010, 864.059 431.564 M 187.785 433.885 C 184.030 437.183, 181.411 444.500, 182.465 448.746 C 183.338 452.266, 193.300 462, 196.028 462 C 206.208 462, 212.319 445.431, 204.750 438.353 C 196.635 430.765, 192.559 429.691, 187.785 433.885 M 508.430 432.965 C 502.263 435.460, 501.504 443.473, 505.530 463.561 C 506.057 466.187, 514.328 475, 516.267 475 C 518.657 475, 524.795 466.198, 526.634 460.133 C 532.286 441.499, 522.698 427.190, 508.430 432.965 M 809.162 439.521 C 804.541 445.396, 808.758 457, 815.514 457 C 820.912 457, 826.042 450.053, 824.598 444.697 C 822.679 437.577, 813.193 434.396, 809.162 439.521 M 542.923 444.923 C 539.492 448.354, 539.445 449.074, 541.543 466.030 C 543.008 477.873, 543.254 478.676, 546.425 482 C 548.261 483.925, 550.283 486.512, 550.917 487.750 C 552.525 490.887, 555.080 490.558, 558.681 486.750 C 563.850 481.284, 566.426 454.488, 562.396 448.107 C 557.955 441.074, 548.343 439.503, 542.923 444.923 M 122.409 450.954 C 112.844 457.271, 115.600 474.266, 126.684 477.324 C 127.683 477.600, 133.710 479.064, 140.079 480.577 L 151.657 483.328 155.565 481.414 C 164.618 476.980, 167.464 463.248, 160.582 457.206 C 152.358 449.985, 129.535 446.247, 122.409 450.954 M 335.640 476.304 C 330.965 480.712, 330.253 484.021, 332.535 490.734 C 337.799 506.222, 353.311 503.926, 355.487 487.337 C 357.011 475.709, 343.962 468.455, 335.640 476.304 M 842.742 477.657 C 834.483 483.534, 836.348 495.996, 846.265 501.195 C 851.606 503.995, 878.508 505.519, 883.198 503.286 C 897.868 496.304, 891.576 480.660, 873.406 478.941 C 861.368 477.802, 857.144 477.042, 856.430 475.887 C 855.169 473.846, 846.527 474.964, 842.742 477.657 M 509.500 485.903 C 503.044 488.739, 501.649 493.524, 503.972 504.866 C 507.058 519.928, 510.642 525, 518.199 525 C 524.094 525, 524.580 524.107, 526.010 510.631 C 527.981 492.074, 520.604 481.026, 509.500 485.903 M 716.500 487.383 C 705.827 492.044, 710.334 512, 722.059 512 C 727.182 512, 732 504.979, 732 497.513 C 732 493.887, 726.464 487, 723.548 487 C 722.787 487, 721.564 486.791, 720.832 486.536 C 720.099 486.282, 718.150 486.663, 716.500 487.383 M 674.923 489.923 C 668.028 496.818, 672.935 511.016, 682.202 510.986 C 690.810 510.959, 693.008 509.049, 694.454 500.341 C 696.247 489.548, 682.585 482.261, 674.923 489.923 M 416.945 495.566 C 414.402 498.630, 422.736 513, 427.057 513 C 433.275 513, 433.284 498.363, 427.067 495.036 C 424.168 493.485, 418.423 493.785, 416.945 495.566 M 150.913 504.609 C 133.088 511.368, 127.710 528.006, 141.175 534.730 C 149.472 538.874, 170.225 534.599, 174.730 527.817 C 185.737 511.249, 171.076 496.963, 150.913 504.609 M 293.669 507.322 C 279.384 510.055, 270.557 532.268, 274.999 554.305 C 279.883 578.541, 307.495 589.596, 322.129 573.174 C 327.563 567.076, 333.996 553.441, 334.712 546.503 C 335.645 537.461, 322.285 512, 316.607 512 C 315.989 512, 313.301 510.838, 310.633 509.417 C 305.181 506.515, 300.747 505.968, 293.669 507.322 M 764.849 512.520 C 754.828 517.963, 756.963 534.464, 768.333 539.449 C 784.144 546.382, 792.919 543.946, 795.862 531.807 C 798.218 522.093, 795.570 516.770, 787.733 515.465 C 785.405 515.077, 781.830 513.914, 779.790 512.880 C 775.412 510.662, 768.573 510.497, 764.849 512.520 M 841.001 519.123 C 835.526 521.306, 830.457 528.857, 832.856 531.256 C 833.485 531.885, 834 534.110, 834 536.200 C 834 544.036, 841.517 547.763, 859.959 549.071 C 875.649 550.183, 878.351 549.459, 883.995 542.629 C 892.131 532.783, 886.259 526.358, 866 522.941 C 861.875 522.245, 856.830 520.848, 854.790 519.838 C 850.764 517.843, 844.964 517.543, 841.001 519.123 M 681 521.881 C 680.175 522.376, 677.773 523.617, 675.662 524.640 C 656.317 534.016, 651.061 562.869, 665.890 578.284 C 673.058 585.735, 691.416 590.454, 700.217 587.108 C 702.396 586.279, 714.859 572.442, 719.743 565.429 C 727.892 553.727, 722.661 536.701, 708 527.209 C 704.975 525.251, 700.475 523.278, 698 522.825 C 690.075 521.375, 682.544 520.957, 681 521.881 M 214.500 531.678 C 196.586 540.838, 191.714 551.281, 201.163 560.270 L 205.326 564.230 213.354 563.530 C 231.647 561.934, 240.666 553.819, 238.486 540.917 C 236.553 529.473, 226.434 525.576, 214.500 531.678 M 632.888 532.500 C 626.398 536.027, 626.646 546.054, 633.377 552.273 C 639.493 557.924, 645.066 556.712, 649.073 548.857 C 654.843 537.547, 643.918 526.505, 632.888 532.500 M 350.371 541.959 C 339.830 549.711, 345.055 567, 357.939 567 C 368.252 567, 374.970 550.516, 367.365 543.871 C 361.155 538.445, 355.946 537.859, 350.371 541.959 M 824.217 557.547 C 817.782 563.055, 818.285 573.739, 825.310 580.764 C 829.251 584.705, 861.122 600.005, 863.141 598.925 C 864.091 598.416, 865.767 598, 866.866 598 C 870.268 598, 873.054 592.774, 873.656 585.266 L 874.198 578.500 870.349 574.908 C 866.664 571.468, 856.788 565, 855.222 565 C 854.810 565, 852.229 563.489, 849.487 561.643 C 836.557 552.939, 830.707 551.991, 824.217 557.547 M 768.500 556.238 C 760.661 558.931, 758.552 564.731, 761.738 574.837 C 763.632 580.847, 771.393 585.780, 781.581 587.450 C 788.452 588.576, 796.694 575.603, 793.860 568.121 C 790.925 560.374, 776.347 553.543, 768.500 556.238 M 170.500 559.229 C 152.485 565.660, 145.266 579.784, 155.586 588.410 L 160.158 592.232 169.567 591.820 C 182.427 591.258, 188.665 585.742, 190.578 573.243 C 191.989 564.021, 180.175 555.775, 170.500 559.229 M 248 569.442 C 241.701 572.873, 228.971 588.706, 227.915 594.423 C 226.592 601.585, 234.720 611.241, 240.454 609.320 C 241.579 608.943, 244.341 608.151, 246.592 607.560 C 260.741 603.846, 272.258 582.949, 264.750 574.613 C 259.641 568.940, 252.799 566.828, 248 569.442 M 749.500 585.403 C 740.120 589.543, 739.764 604.564, 748.901 610.715 C 756.427 615.781, 773.867 616.224, 778.622 611.469 C 786.257 603.834, 781.249 589.919, 770 587.509 C 768.075 587.097, 765.285 586.138, 763.800 585.380 C 760.417 583.651, 753.442 583.663, 749.500 585.403 M 343.733 590.664 C 335.007 596.872, 336.434 608.535, 347.287 619.729 C 355.813 628.521, 359.361 629.339, 364.729 623.750 C 378.779 609.119, 359.809 579.225, 343.733 590.664 M 815.500 600.201 C 805.507 603.813, 801.948 614.116, 807.450 623.506 C 814.165 634.964, 843.925 648.297, 849.242 642.230 C 858.856 631.262, 854.074 617.126, 838 608.998 C 835.525 607.746, 831.145 605.220, 828.267 603.384 C 822.006 599.391, 819.482 598.761, 815.500 600.201 M 178.382 607.868 C 174.569 610.546, 168.874 615.091, 165.725 617.968 L 160 623.201 160 629.216 C 160 642.918, 174.046 647.632, 187.662 638.500 C 191.353 636.025, 194.885 634, 195.512 634 C 202.320 634, 206.903 613.082, 201.250 607.809 C 194.061 601.105, 187.990 601.120, 178.382 607.868 M 643.500 606.489 C 635.627 609.968, 630.554 628.845, 634.019 641.767 C 639.221 661.171, 652.018 661.023, 657.122 641.500 C 658.272 637.100, 659.847 631.025, 660.621 628 C 664.538 612.696, 655.409 601.226, 643.500 606.489 M 700.655 612.467 C 690.691 615.998, 688.993 624.811, 695.572 638.858 C 697.536 643.053, 699.555 648.655, 700.058 651.307 C 701.135 656.983, 707.269 664.915, 710.621 664.967 C 711.788 664.985, 714.599 663.313, 716.868 661.250 L 720.993 657.500 721.613 647 C 722.923 624.806, 712.819 608.156, 700.655 612.467 M 308.517 618.250 C 303.999 622.830, 302.929 624.751, 300.127 633.305 C 298.361 638.698, 294.272 648.598, 291.042 655.305 C 284.569 668.743, 279.597 680.148, 278.532 684 C 277.788 686.691, 275.691 691.683, 273.281 696.500 C 272.455 698.150, 270.313 703.550, 268.521 708.500 C 261.527 727.810, 251.717 748.528, 247.859 752.132 C 242.571 757.071, 241.769 767.481, 246.125 774.649 C 249.801 780.700, 262.506 784.135, 267.715 780.487 C 270.634 778.443, 281.688 755.599, 286.339 742 C 287.186 739.525, 289.060 734.575, 290.504 731 C 291.948 727.425, 294.891 719.550, 297.043 713.500 C 299.196 707.450, 302.060 700.250, 303.408 697.500 C 304.756 694.750, 307.913 688.079, 310.423 682.675 C 317.184 668.117, 318.479 669.462, 328.546 701.500 C 331.139 709.750, 335.288 721.900, 337.767 728.500 C 342.472 741.028, 346.904 753.038, 349.022 759 C 350.093 762.015, 360.335 785.415, 368.280 803 C 369.647 806.025, 371.074 809.515, 371.452 810.755 C 373.461 817.358, 382.495 822.444, 391.087 821.810 C 395.101 821.514, 395.433 821.234, 398.330 815.690 L 401.367 809.880 400.981 791.190 C 399.996 743.394, 402.891 734.884, 412.443 757.500 C 423.396 783.431, 443.055 824.006, 448.156 831.206 C 449.211 832.694, 450.984 835.970, 452.097 838.486 C 454.714 844.402, 463.387 850.524, 468.883 850.334 C 478.987 849.985, 481.999 844.855, 482.584 827 C 482.791 820.675, 483.405 811.900, 483.948 807.500 C 484.491 803.100, 485.429 795.472, 486.033 790.548 C 487.233 780.772, 487.482 780, 489.438 780 C 490.918 780, 491.099 780.411, 497.569 798.500 C 507.285 825.665, 516.302 844.693, 526.241 859.009 C 533.345 869.243, 550.041 871.152, 552.287 861.987 C 552.758 860.069, 553.544 856.925, 554.035 855 C 558.138 838.903, 558.211 838.042, 558.086 807.519 C 558.019 791.009, 557.860 775.250, 557.732 772.500 C 557.363 764.547, 559.773 766.011, 565.139 777 C 598.915 846.166, 603.341 852.688, 617.717 854.484 C 625.741 855.486, 627.678 854.051, 631.190 844.500 C 637.934 826.160, 640 816.249, 640 802.250 C 640 793.304, 641.579 789.576, 644.382 791.902 C 646.242 793.446, 653.022 803.209, 655.319 807.651 C 656.188 809.331, 659.852 813.761, 663.460 817.497 L 670.022 824.288 677.181 823.688 C 686.325 822.921, 686.063 823.291, 690.445 805 C 694.884 786.471, 696.718 768.238, 697.434 735.486 C 697.936 712.560, 698.285 710.405, 701.304 711.563 C 703.602 712.445, 715.485 734.646, 727.350 760.226 C 729.832 765.576, 732.948 771.426, 734.275 773.226 C 735.602 775.027, 738.298 779.425, 740.266 783 C 748.379 797.735, 755.175 802.660, 765.174 801.049 C 775.320 799.415, 775.026 801.579, 773.403 740.426 C 772.471 705.305, 772.394 690.230, 773.141 689.330 C 774.369 687.851, 778.579 689.581, 781.073 692.590 C 781.858 693.537, 785.650 696.811, 789.500 699.867 C 799.212 707.575, 815.811 723.850, 831.316 740.866 C 847.673 758.816, 850.041 760.460, 856.982 758.684 C 864.384 756.790, 866.838 752.140, 866.980 739.740 C 867.010 737.136, 834.463 703.372, 812.043 682.748 C 782.620 655.682, 770.835 644.737, 768.457 642.270 C 762.227 635.807, 753.033 634.505, 746.305 639.134 L 741.750 642.268 742.345 652.384 C 742.673 657.948, 743.382 666.550, 743.920 671.500 C 745.215 683.394, 745.469 724.931, 744.255 726.145 C 742.957 727.443, 742.217 726.350, 735.027 712.500 C 715.085 674.085, 708.964 665.804, 695.666 659.250 C 685.036 654.010, 684.488 654.009, 678.103 659.203 C 671.758 664.364, 672.241 661.581, 671.541 697 C 671.221 713.225, 670.295 733.025, 669.483 741 C 668.672 748.975, 667.893 757.300, 667.754 759.500 C 667.467 764.025, 664.623 765.132, 662.609 761.502 C 653.043 744.264, 637.699 731.210, 628.255 732.275 C 619.081 733.309, 616.418 738.509, 614.989 758.183 C 613.370 780.459, 612.146 791.489, 610.944 794.622 L 609.839 797.500 607.670 794.772 C 604.768 791.124, 599.621 780.820, 591.084 761.570 C 587.199 752.809, 582.440 742.989, 580.510 739.749 C 578.579 736.508, 577 733.417, 577 732.880 C 577 730.678, 562.923 718.191, 557.054 715.187 C 543.355 708.176, 534.629 712.444, 530.858 728 C 528.948 735.882, 528.839 738.515, 529.364 764.212 C 530.053 797.903, 529.202 799.730, 522.477 779 C 520.961 774.325, 519.333 770.072, 518.860 769.550 C 518.387 769.027, 518 767.224, 518 765.542 C 518 763.861, 516.408 757.538, 514.463 751.492 C 512.518 745.447, 509.559 735.105, 507.888 728.511 C 501.773 704.382, 495.991 697, 483.204 697 C 471.828 697, 467.287 704.222, 464.559 726.655 C 460.788 757.668, 459.749 764.883, 458.342 769.806 C 456.468 776.362, 454.360 776.427, 452.064 770 C 451.180 767.525, 447.911 760.325, 444.800 754 C 437.698 739.563, 436 735.382, 436 732.327 C 436 729.698, 426.330 705.177, 419.406 690.249 C 409.759 669.451, 397.415 663.941, 386.111 675.387 C 380.348 681.223, 380.169 681.943, 378.010 708 C 377.102 718.950, 375.439 726.391, 373.548 727.960 C 372.029 729.221, 368 723.369, 368 719.902 C 368 718.812, 367.142 716.700, 366.094 715.210 C 365.045 713.719, 363.643 710.025, 362.979 707 C 361.155 698.698, 358.140 689.648, 355.063 683.245 C 351.710 676.265, 344.775 657.712, 342.449 649.500 C 333.126 616.586, 321.091 605.502, 308.517 618.250 M 452.003 616.616 C 447.174 620.979, 446.416 627.976, 450.010 635.019 C 455.238 645.268, 470.175 643.875, 472.363 632.935 C 475.584 616.829, 462.964 606.713, 452.003 616.616 M 263.500 622.710 C 257.979 624.028, 248.191 638.811, 246.545 648.317 C 245.758 652.864, 248.329 661.590, 250.834 662.872 C 255.668 665.345, 267 664.780, 267 662.066 C 267 661.592, 269.008 656.992, 271.463 651.845 C 279.129 635.770, 278.483 627.318, 269.295 623.479 C 267.348 622.665, 265.698 622.052, 265.628 622.116 C 265.558 622.180, 264.600 622.447, 263.500 622.710 M 209.751 636.272 C 203.570 639.034, 189.217 657.412, 188.451 663.545 C 187.194 673.605, 201.215 682.909, 208.727 677 C 210.126 675.900, 211.788 675, 212.422 675 C 214.095 675, 222.300 666.168, 224.935 661.532 C 232.830 647.638, 222.558 630.548, 209.751 636.272 M 812.459 642.880 C 800.926 648.118, 799.587 666.190, 810.264 672.497 C 812.041 673.547, 815.625 676.017, 818.227 677.987 C 838.456 693.298, 852.507 692.551, 854.720 676.048 C 855.515 670.125, 847.492 660.015, 838.012 654.993 C 836.643 654.268, 832.818 651.600, 829.512 649.066 C 817.888 640.154, 818.205 640.269, 812.459 642.880 M 482.256 658.029 C 475.124 660.896, 474.420 671.956, 480.926 678.921 C 486.576 684.969, 494.462 682.148, 497.503 672.992 C 501.095 662.176, 492.623 653.861, 482.256 658.029 M 443.500 667.954 C 437.234 670.546, 434.624 678.109, 437.446 685.497 C 440.775 694.214, 448.829 696.412, 455.172 690.335 C 465.276 680.655, 455.963 662.799, 443.500 667.954 M 547.923 670.923 C 542.895 675.951, 544.438 688.254, 550.573 692.045 C 556.250 695.554, 562.147 693.505, 565.906 686.720 C 573.052 673.820, 558.132 660.714, 547.923 670.923 M 229.801 686.750 C 214.057 702.922, 211.539 724.072, 224.759 729.099 C 235.180 733.060, 251 714.735, 251 698.703 C 251 692.044, 250.964 691.956, 246.184 686.997 C 239.580 680.145, 236.279 680.095, 229.801 686.750 M 636.329 686.458 C 631.146 688.712, 629.721 693.857, 632.004 702.074 C 634.743 711.936, 647.873 713.947, 652.397 705.199 C 659.076 692.283, 649.259 680.833, 636.329 686.458 M 513.901 692.106 C 506.250 700.296, 516.111 715.324, 525.758 710.178 C 528.966 708.467, 533 702.493, 533 699.454 C 533 690.770, 519.869 685.718, 513.901 692.106 M 787.256 724.029 C 775.999 728.555, 780.929 748.010, 795.210 755.419 C 803.913 759.935, 807.639 758.781, 810.986 750.534 L 813.232 745 810.977 739.444 C 805.866 726.852, 796.070 720.485, 787.256 724.029 M 299.045 743.750 C 296.092 747.321, 290.629 762.349, 289.295 770.570 C 288.596 774.877, 296.905 784, 301.525 784 C 310.501 784, 321.149 761.612, 317.629 750.143 C 314.526 740.033, 304.866 736.710, 299.045 743.750 M 328.607 770.868 C 327.016 771.216, 325.216 772.395, 324.607 773.489 C 323.998 774.582, 322.712 776.555, 321.750 777.873 C 317.751 783.349, 321.239 797.683, 328.898 807.246 C 334.940 814.790, 338.279 815.120, 344.145 808.750 L 348.060 804.500 347.699 794.876 C 347.281 783.741, 345.119 778.839, 338.162 773.250 C 334.004 769.909, 333.536 769.792, 328.607 770.868 M 711.995 784.750 C 705.922 791.977, 714.556 821, 722.779 821 C 724.743 821, 732.001 816.852, 732.006 815.727 C 732.010 815.052, 732.764 813.150, 733.684 811.500 C 742.491 795.693, 722.999 771.653, 711.995 784.750 M 413.750 809.080 C 406.311 813.413, 409.714 829.384, 418.549 831.602 C 424.898 833.195, 432.789 821.283, 429.695 814.776 C 427.005 809.120, 418.747 806.170, 413.750 809.080 M 490.607 833.888 C 485.672 839.039, 485.915 843.745, 491.376 848.779 C 498.168 855.039, 505.239 852.627, 507.966 843.118 C 510.781 833.304, 497.786 826.395, 490.607 833.888 M 566.687 834.805 C 559.830 841.962, 565.693 856.400, 575.457 856.400 C 581.168 856.400, 586.925 848.882, 586.978 841.356 C 587.038 832.717, 573.022 828.192, 566.687 834.805"/>
    </g>
  </g>
</svg>
