<svg viewBox="0 0 74 74" width="74mm" height="74mm" xmlns="http://www.w3.org/2000/svg">
  <g transform="scale(0.074000)" fill-rule="evenodd">
    <g id="forma" fill="#CB3747">
      <path d="M 122.748 94.427 C 112.731 98.001, 107.642 105.349, 100.986 125.846 C 98.325 134.037, 94.366 144.285, 92.188 148.620 C 86.911 159.118, 86.488 162.161, 88.897 172.302 C 91.305 182.442, 91.444 185.602, 90.494 208.500 C 89.980 220.873, 90.125 229.470, 90.956 236 C 93.314 254.535, 93.254 300.420, 90.860 308.464 C 88.160 317.538, 88.732 322.517, 93.259 329.335 C 100.900 340.843, 103.353 349.126, 104.560 367.500 C 104.943 373.329, 106.217 380.837, 107.614 385.500 C 112.152 400.653, 115.893 417.524, 116.925 427.500 C 118.146 439.297, 118.527 440.665, 123.945 452.738 C 129.443 464.989, 129.875 469.338, 126.602 479.500 C 122.420 492.484, 123.292 495.281, 133.933 503.020 C 143.345 509.866, 145.754 514.065, 165.576 558.168 C 175.632 580.545, 207.697 640.255, 217.274 654.439 C 273.605 737.870, 313.966 777.562, 376 810.536 C 383.975 814.776, 394.597 820.652, 399.604 823.594 C 408.686 828.932, 446.559 847.660, 463.367 855.125 C 478.155 861.693, 512.057 872.714, 528.752 876.380 C 564.499 884.230, 577.484 885.091, 594.500 880.735 C 606.485 877.668, 610.162 877.170, 629 876.067 C 639.371 875.460, 645.066 874.642, 649 873.195 C 661.970 868.424, 672.171 864.927, 682 861.883 C 702.682 855.479, 723.249 843.457, 737 829.735 C 741.125 825.619, 748.775 818.561, 754 814.051 C 765.334 804.268, 766.689 802.803, 782.259 783.500 C 801.068 760.180, 818.796 730.511, 827.670 707.500 C 830.215 700.900, 834.660 689.875, 837.547 683 C 858.726 632.572, 864.348 611.725, 871.934 555.500 C 876.826 519.238, 878.825 465.601, 876.779 425.500 C 875.297 396.445, 875.238 388.803, 876.401 376.484 C 877.169 368.345, 876.994 366.469, 874.600 357.201 C 868.903 335.138, 869.219 317.003, 875.515 304.839 C 880.669 294.879, 880.383 291.492, 873.515 281.112 C 865.482 268.973, 864.362 261.135, 865.926 228 C 866.187 222.484, 865.684 218.271, 864.028 212.075 C 861.985 204.431, 861.841 202.345, 862.479 189.574 C 863.326 172.641, 862.397 169.340, 854.883 162.584 C 840.847 149.966, 829.122 152.694, 820.136 170.670 C 818.074 174.796, 815.191 178.440, 811.435 181.670 C 804.679 187.479, 801.882 192.054, 799.007 202 C 796.324 211.283, 793.577 215.587, 784.696 224.430 C 778.985 230.115, 776.886 233.167, 773.003 241.430 C 767.415 253.319, 759.283 264.945, 747.980 277.200 C 743.323 282.250, 737.622 289.845, 734.776 294.793 C 725.784 310.420, 690.127 358.813, 679.160 370.273 C 668.379 381.539, 654.715 381.354, 647.678 369.847 C 644.506 364.661, 642.100 355.835, 632.454 314 C 622.189 269.485, 618.421 255.388, 609.466 228 C 604.880 213.975, 598.360 193.275, 594.976 182 C 582.842 141.566, 566.757 107.908, 555.763 99.943 C 541.899 89.901, 529.679 104.250, 515.543 147.171 C 509.300 166.128, 500.101 191.723, 497.062 198.592 C 495.903 201.213, 492.285 211.975, 489.023 222.507 C 485.761 233.039, 480.785 247.246, 477.967 254.078 C 467.406 279.675, 454.413 314.619, 442.486 349.500 C 424.552 401.953, 424.517 402.044, 420.334 407.015 C 413.982 414.564, 407.434 414.017, 399.731 405.296 C 397.404 402.661, 392.082 396.905, 387.904 392.503 C 375.098 379.010, 371.352 372.297, 369.832 360.113 C 368.467 349.179, 366.424 346.140, 356.710 340.601 C 343.474 333.052, 330.294 314.941, 327.533 300.506 C 325.424 289.486, 324.123 287.848, 312.712 281.849 C 304.568 277.567, 301.721 275.407, 296.535 269.576 C 274.896 245.246, 269.549 239.041, 258.978 226 C 252.513 218.025, 242.851 206.775, 237.506 201 C 224.801 187.273, 206.615 162.479, 202.299 153 C 200.421 148.875, 198.361 144.444, 197.721 143.152 C 195.856 139.389, 191.244 135.409, 184.719 131.931 C 180.841 129.864, 173.740 124.036, 165.073 115.808 C 143.048 94.899, 134.096 90.377, 122.748 94.427"/>
    </g>
    <g id="detalles" fill="#1A1A1A">
      <path d="M 134.500 91.659 C 129.558 94.260, 118.663 105.965, 104.032 124.392 C 102.675 126.101, 99.426 129.769, 96.812 132.542 C 94.198 135.315, 90.334 140.040, 88.225 143.042 C 86.117 146.044, 82.728 150.672, 80.696 153.327 C 77.076 158.054, 75.901 162, 78.113 162 C 78.808 162, 79.034 163.222, 78.713 165.250 C 76.785 177.451, 92.757 183.108, 100.817 173.079 C 102.557 170.913, 104.773 168.877, 105.741 168.554 C 106.708 168.231, 108.850 166.092, 110.500 163.801 C 115.536 156.808, 130.177 140.117, 141.744 128.183 C 156.482 112.977, 159.373 106.614, 155.621 97.636 C 152.613 90.436, 142.345 87.530, 134.500 91.659 M 534.446 101.068 C 531.306 101.980, 528 107.062, 528 110.975 C 528 112.024, 527.576 113.144, 527.058 113.464 C 526.540 113.785, 525.832 115.949, 525.484 118.273 C 523.806 129.512, 530.474 131.680, 535.409 121.500 C 543.769 104.254, 543.495 98.438, 534.446 101.068 M 567.923 115.923 C 565.433 118.413, 565.086 119.291, 565.950 120.907 C 566.528 121.986, 567 123.923, 567 125.212 C 567 130.621, 574.682 134.878, 576.393 130.418 C 579.972 121.091, 573.622 110.224, 567.923 115.923 M 186.500 128.324 C 179.937 130.081, 160.551 150.614, 125 193.458 C 118.500 201.291, 100.567 222.146, 92.356 231.419 C 89.960 234.125, 88 237.072, 88 237.969 C 88 238.866, 87.608 240.028, 87.129 240.550 C 85.836 241.960, 84.946 251.849, 86.050 252.531 C 86.573 252.854, 87 254.595, 87 256.401 C 87 259.345, 87.398 259.803, 90.866 260.842 C 100.158 263.626, 102.592 261.993, 123.048 239.250 C 132.571 228.662, 140.662 220, 141.028 220 C 142.300 220, 146.001 216.253, 151.008 209.895 C 153.778 206.378, 158.235 201.025, 160.913 198 C 163.591 194.975, 168.419 189.176, 171.641 185.112 C 174.863 181.049, 183.300 171.733, 190.388 164.411 C 207.127 147.121, 210.016 140.771, 204.720 132.912 C 200.833 127.145, 195.716 125.856, 186.500 128.324 M 549.763 136.565 C 548.257 137.382, 546.798 139.052, 546.521 140.275 C 544.233 150.361, 544.160 151.408, 545.550 154.096 C 548.777 160.336, 554.132 155.326, 555.847 144.462 C 557.242 135.620, 555.551 133.425, 549.763 136.565 M 513.231 147.252 C 510.965 147.979, 509.773 149.097, 509.344 150.900 C 509.003 152.330, 508.400 153.950, 508.003 154.500 C 504.896 158.807, 508.099 168.014, 512.278 166.790 C 514.164 166.237, 519.950 153.886, 519.976 150.357 C 519.995 147.841, 518.010 145.288, 516.668 146.102 C 516.576 146.158, 515.029 146.676, 513.231 147.252 M 825.500 148.386 C 823.850 149.123, 821.333 150.196, 819.906 150.771 C 811.007 154.353, 815.035 171.679, 826 176.988 C 828.475 178.186, 836.421 182.731, 843.658 187.087 L 856.817 195.008 861.158 193.143 C 865.562 191.252, 874.013 183.102, 873.985 180.772 C 873.966 179.130, 871.747 172.940, 870.480 170.994 C 867.666 166.669, 850.211 153.582, 843.500 150.765 C 834.507 146.990, 829.967 146.390, 825.500 148.386 M 576.913 165.087 C 574.497 167.503, 574.709 169.132, 578.726 179 C 583.605 190.987, 590 191.440, 590 179.797 C 590 167.325, 582.785 159.215, 576.913 165.087 M 532.844 178.255 C 525.529 184.438, 526.138 196.554, 533.605 193.417 C 536.612 192.154, 537.473 190.749, 539.897 183.151 C 541.954 176.700, 537.962 173.929, 532.844 178.255 M 799.500 178.891 C 796.126 180.092, 794.410 181.294, 794.225 182.586 C 794.073 183.639, 793.452 186.147, 792.844 188.161 C 790.734 195.151, 795.951 202.416, 808 209.264 C 814.284 212.836, 823.872 219.348, 832.257 225.739 C 841.638 232.890, 854.553 239.336, 857.784 238.481 C 859.278 238.086, 862.269 237.597, 864.432 237.394 C 873.670 236.528, 880.600 222.793, 874.690 217.062 C 869.977 212.491, 865.267 209.212, 859.981 206.820 C 853.487 203.881, 847.137 199.484, 838.996 192.287 C 826.170 180.950, 809.548 175.312, 799.500 178.891 M 558.174 184.314 C 555.810 186.831, 555.514 188.659, 556.896 192.203 C 557.389 193.466, 558.358 196.406, 559.051 198.736 C 561.775 207.897, 569.524 209.209, 569.468 200.500 C 569.382 186.834, 563.596 178.543, 558.174 184.314 M 215.994 183.934 C 206.890 186.704, 197.034 194.812, 174 218.484 C 163.825 228.941, 146.302 246.497, 135.060 257.498 C 123.818 268.499, 106.426 285.732, 96.412 295.793 L 78.205 314.087 78.446 319.542 C 78.596 322.929, 79.316 325.692, 80.344 326.828 C 81.255 327.834, 82 329.175, 82 329.808 C 82 331.635, 89.557 335, 93.659 335 C 97.180 335, 98.593 333.818, 117.949 314.685 C 129.252 303.511, 146.600 286.389, 156.500 276.635 C 166.400 266.881, 177.425 255.507, 181 251.360 C 184.575 247.213, 188.746 243.169, 190.270 242.374 C 191.793 241.579, 194.268 239.233, 195.770 237.160 C 199.865 231.509, 214.657 218.556, 221.788 214.377 C 243.638 201.572, 238.951 176.951, 215.994 183.934 M 491.803 196.077 C 487.536 199.262, 483.682 208.563, 485.261 211.867 C 487.949 217.493, 492.398 214.252, 498.394 202.300 C 501.767 195.577, 497.663 191.702, 491.803 196.077 M 591.203 207.188 C 586.132 208.562, 586.129 212.185, 591.185 225.263 C 593.951 232.415, 600 229.384, 600 220.845 C 600 210.561, 596.843 205.659, 591.203 207.188 M 519.735 213.903 C 514.057 220.651, 513.008 235.044, 518.311 233.430 C 525.107 231.361, 531.130 214.745, 526.066 212.035 C 523.185 210.494, 522.412 210.722, 519.735 213.903 M 776.723 221.171 C 762.810 226.020, 764.546 247.058, 779.062 249.511 C 788.856 251.165, 808.573 262.447, 826.436 276.616 C 840.009 287.383, 864.286 306.141, 866.661 307.698 C 872.499 311.523, 885.911 307.058, 889.395 300.131 C 893.804 291.362, 892.062 288.031, 877.099 276.619 C 874.128 274.354, 869.345 270.700, 866.471 268.500 C 863.596 266.300, 858.602 262.478, 855.372 260.007 C 852.142 257.536, 846.125 252.793, 842 249.467 C 810.536 224.097, 791.725 215.943, 776.723 221.171 M 545.237 222.546 C 540.568 225.817, 537.860 240.717, 541.203 244.744 C 544.317 248.497, 546.928 245.808, 549.926 235.762 C 553.845 222.631, 552.108 217.734, 545.237 222.546 M 257.500 236.237 C 249.210 239.838, 231.778 251.746, 219.056 262.500 C 214.502 266.350, 209.139 270.826, 207.138 272.446 C 205.137 274.066, 200.125 278.369, 196 282.008 C 191.875 285.647, 186.955 289.946, 185.067 291.562 C 183.179 293.178, 178.454 297.389, 174.567 300.920 C 170.680 304.451, 162.325 311.627, 156 316.866 C 149.675 322.105, 141.350 329.387, 137.500 333.047 C 121.930 347.851, 109.510 359.098, 101.279 365.845 C 94.255 371.602, 94.659 380.910, 102.274 388.778 C 106.820 393.475, 111.959 392.632, 121.500 385.621 C 125.350 382.792, 130.307 379.257, 132.516 377.765 C 134.725 376.273, 138.550 372.982, 141.016 370.453 C 143.482 367.923, 146.934 365.246, 148.686 364.504 C 150.535 363.721, 152.634 361.684, 153.686 359.649 C 154.684 357.721, 159.100 352.889, 163.500 348.913 C 167.900 344.937, 174.200 339.214, 177.500 336.195 C 180.800 333.177, 185.975 329.132, 189 327.207 C 195.248 323.231, 202.339 317.445, 212.527 308.009 C 234.131 287.999, 251.999 273.707, 266.921 264.500 C 290.081 250.210, 281.891 225.643, 257.500 236.237 M 571.649 241.413 C 569.838 244.176, 569.523 246.587, 570.865 247.417 C 571.341 247.711, 571.964 249.698, 572.251 251.834 C 574.094 265.574, 584.772 267.671, 583.335 254.010 C 582.072 242.012, 575.734 235.179, 571.649 241.413 M 478.280 243.020 C 475.903 243.977, 475.436 245.369, 474.574 254.087 C 473.675 263.172, 479.844 265.146, 483.955 257.089 C 488.880 247.435, 485.867 239.967, 478.280 243.020 M 603.430 258.466 C 601.929 260.757, 601.962 261.555, 603.887 269.716 C 605.026 274.547, 606.173 279.625, 606.436 281 C 607.585 287.019, 613.330 288.990, 615.872 284.238 C 617.330 281.514, 615.319 265.290, 612.905 260.304 C 610.375 255.078, 606.183 254.265, 603.430 258.466 M 509.315 258.617 C 502.385 262.032, 500.052 279, 506.512 279 C 509.461 279, 510.954 276.792, 514.120 267.746 C 517.322 258.601, 515.680 255.481, 509.315 258.617 M 558.512 268.988 C 555.976 271.635, 555.732 272.342, 556.781 274.020 C 557.451 275.094, 558.002 277.216, 558.004 278.736 C 558.008 282.177, 561.454 288, 563.485 288 C 568.218 288, 570.295 279.723, 568.127 269.500 C 567.185 265.055, 562.518 264.806, 558.512 268.988 M 532.165 269.515 C 527.525 273.419, 525.258 281.289, 527.339 286.269 C 529.973 292.572, 533.435 290.798, 536.977 281.332 C 541.078 270.371, 538.544 264.147, 532.165 269.515 M 743.500 274.300 C 726.599 278.092, 724.375 302.189, 740.707 304.561 C 754.588 306.576, 786.538 324.214, 815 345.575 C 818.025 347.845, 825.675 353.580, 832 358.320 C 838.325 363.060, 848 370.556, 853.500 374.979 C 865.085 384.294, 865.392 384.429, 872.858 383.505 C 877.812 382.893, 879.019 382.268, 882.750 378.386 C 890.772 370.040, 888.338 362.210, 874.633 352.279 C 871.810 350.233, 864.719 344.721, 858.875 340.030 C 843.744 327.883, 824.900 314.103, 815 307.944 C 810.325 305.036, 805.375 301.672, 804 300.469 C 792.217 290.155, 772.095 280.332, 750 274.107 C 748.625 273.720, 745.700 273.807, 743.500 274.300 M 313.500 277.720 C 311.300 278.609, 307.925 280.550, 306 282.034 C 304.075 283.518, 299.800 286.215, 296.500 288.028 C 293.200 289.840, 289.375 292.295, 288 293.483 C 285.231 295.876, 277.021 301.687, 257.500 315.072 C 250.350 319.974, 237.975 328.565, 230 334.163 C 195.887 358.108, 188.704 363.336, 172.860 375.754 C 151.433 392.546, 150.960 392.903, 139.339 401 C 128.607 408.478, 113 422.571, 113 424.785 C 113 425.427, 112.102 427.425, 111.004 429.226 C 108.326 433.618, 109.208 448, 112.156 448 C 112.563 448, 114.111 449.125, 115.595 450.500 C 119.028 453.682, 122.946 453.700, 128.322 450.559 C 130.620 449.217, 133.784 447.888, 135.354 447.606 C 137.872 447.155, 148.817 436.876, 148.955 434.833 C 148.980 434.467, 153.388 430.663, 158.750 426.380 C 164.113 422.097, 171.209 415.872, 174.520 412.547 C 177.831 409.221, 182.671 404.925, 185.276 403 C 187.882 401.075, 191.023 398.654, 192.257 397.619 C 203.795 387.944, 220.025 375.776, 235.500 365.199 C 239.900 362.191, 247.614 356.866, 252.643 353.365 C 257.672 349.864, 262.117 347, 262.522 347 C 262.926 347, 272.087 340.785, 282.879 333.189 C 301.822 319.855, 305.962 317.067, 320 308.196 C 330.097 301.815, 333.698 298.218, 335.497 292.720 C 339.473 280.562, 327.191 272.186, 313.500 277.720 M 462.635 290.073 C 461.186 291.212, 460 292.751, 460 293.490 C 460 294.230, 458.875 297.076, 457.500 299.813 C 452.493 309.781, 458.094 316.809, 464.427 308.506 C 474.029 295.918, 472.691 282.162, 462.635 290.073 M 583.467 291.036 C 580.694 294.101, 585.859 307, 589.859 307 C 595.835 307, 597.226 302.175, 593.536 294.250 C 590.770 288.308, 587.019 287.111, 583.467 291.036 M 546.580 304.912 C 545.240 306.392, 544.927 307.787, 545.392 310.211 C 545.739 312.020, 546.442 316.650, 546.955 320.500 C 548.835 334.612, 550.536 338.310, 554.914 337.801 L 557.500 337.500 557.475 323.500 C 557.446 307.182, 556.407 303.688, 551.442 303.201 C 549.386 303, 547.807 303.555, 546.580 304.912 M 491.324 307.747 C 488.683 309.874, 485.663 319.811, 486.565 323.404 C 488.613 331.561, 499.721 318.979, 498.798 309.549 C 498.437 305.858, 494.767 304.973, 491.324 307.747 M 615.021 311.979 C 611.534 315.466, 615.844 329, 620.441 329 C 624.650 329, 626.264 325.349, 624.908 318.894 C 623.117 310.367, 619.301 307.699, 615.021 311.979 M 519.686 314.393 C 514.320 320.184, 514.215 329, 519.512 329 C 523.075 329, 525.251 325.018, 525.386 318.249 C 525.520 311.544, 523.558 310.216, 519.686 314.393 M 567.462 314.448 C 564.484 316.823, 564.485 316.731, 567.286 326.870 C 569.261 334.021, 570.916 335.174, 574.854 332.145 C 578.270 329.518, 578.874 322.633, 576.155 317.305 C 573.626 312.346, 571.128 311.525, 567.462 314.448 M 710.988 323.868 C 695.506 327.761, 698.302 349.319, 715.033 355.064 C 722.855 357.749, 725.833 359.388, 743 370.451 C 772.741 389.619, 775.780 391.894, 800 413.134 C 802.475 415.304, 804.950 417.413, 805.500 417.820 C 806.050 418.227, 811.184 422.821, 816.908 428.030 C 840.472 449.470, 852.454 459, 855.847 459 C 862.875 459, 870.110 454.661, 873.210 448.587 C 877.363 440.450, 875.521 435.975, 865.023 428.696 C 860.471 425.539, 857.133 422.644, 844.552 410.939 C 838.453 405.265, 825.905 394.306, 804.151 375.656 C 794.940 367.759, 772.447 351.111, 756.500 340.388 C 736.724 327.089, 720.949 321.364, 710.988 323.868 M 593.189 333.039 C 590.538 335.508, 590.544 335.617, 593.854 345 L 596.500 352.500 600.500 352.500 C 605.428 352.500, 606.050 349.847, 603.466 339.858 C 601.046 330.505, 598.046 328.514, 593.189 333.039 M 355.648 336.726 C 354.080 336.961, 349.130 338.740, 344.648 340.679 C 340.167 342.619, 334.250 345.099, 331.500 346.190 C 328.750 347.281, 314.350 354.168, 299.500 361.495 C 267.652 377.207, 252.141 386.294, 227.622 403.605 C 217.132 411.011, 205.300 418.817, 198.980 422.500 C 185.314 430.464, 180.004 434.160, 136 466.324 C 130.225 470.545, 122.830 476.417, 119.567 479.372 L 113.635 484.745 113.601 490.623 C 113.524 504.274, 123.558 512.977, 132.500 507.014 C 134.150 505.913, 136.123 505.010, 136.884 505.007 C 137.645 505.003, 141.514 501.916, 145.482 498.147 C 149.450 494.378, 155.353 489.342, 158.598 486.956 C 168.256 479.857, 175.426 474.552, 176.496 473.713 C 187.238 465.289, 209.239 449.823, 218.500 444.185 C 230.326 436.985, 239.755 430.727, 253.500 420.953 C 263.676 413.717, 274.315 407.046, 275.718 407.021 C 276.388 407.010, 283.138 403.227, 290.718 398.617 C 302.678 391.342, 324.444 380, 326.447 380 C 326.819 380, 329.458 378.950, 332.312 377.667 C 344.039 372.394, 347.761 370.938, 353 369.573 C 366.904 365.953, 369.102 364.949, 373.523 360.203 C 387.095 345.631, 377.794 333.415, 355.648 336.726 M 446.166 339.366 C 441.386 342.017, 437.550 354.741, 440.536 358.040 C 444.101 361.979, 446.934 360.042, 451.869 350.290 C 456.368 341.399, 453.254 335.434, 446.166 339.366 M 534.055 351.250 C 529.054 356.586, 530.280 373, 535.680 373 C 539.834 373, 543.215 357.843, 540.506 351.361 C 538.760 347.182, 537.882 347.167, 534.055 351.250 M 551.250 349.674 C 547.814 352.072, 547.946 363.037, 551.455 366.545 C 557.103 372.194, 559.962 369.414, 559.986 358.250 C 560.006 349.373, 556.548 345.979, 551.250 349.674 M 618.250 351.674 C 615.414 353.653, 615.434 355.141, 618.420 364.545 C 621.453 374.094, 623.208 376.251, 626.828 374.875 C 631.533 373.087, 632.346 367.544, 629.326 357.865 C 626.735 349.562, 623.705 347.869, 618.250 351.674 M 507.559 355.494 C 501.701 362.642, 502.655 373.966, 509.116 373.993 C 512.392 374.007, 515.786 361.182, 514.375 354.125 C 513.524 349.869, 511.901 350.195, 507.559 355.494 M 476.763 353.545 C 473.542 355.316, 472.561 358.315, 472.526 366.500 L 472.500 372.500 475.855 372.500 C 479.066 372.500, 479.314 372.222, 481.651 366.006 C 485.846 354.845, 483.815 349.667, 476.763 353.545 M 577.725 356.752 C 574.120 360.734, 573.518 372.918, 576.765 376.165 C 578.203 377.603, 582.616 376.443, 583.391 374.424 C 587.183 364.542, 582.864 351.073, 577.725 356.752 M 661 374.120 C 653.843 376.084, 651.873 377.329, 649.947 381.103 C 644.315 392.144, 650.308 404.143, 662.142 405.516 C 665.584 405.916, 670.223 407.029, 672.450 407.989 C 682.279 412.228, 695.827 419.217, 699.500 421.944 C 701.700 423.577, 705.822 426.071, 708.659 427.486 C 711.497 428.902, 720.146 434.209, 727.880 439.280 C 735.614 444.351, 746.793 451.334, 752.721 454.798 C 758.649 458.262, 767.550 464.507, 772.500 468.677 C 784.355 478.662, 796.295 487.573, 802.575 491.124 C 805.366 492.702, 811.704 497.511, 816.659 501.811 C 821.614 506.111, 829.456 512.270, 834.084 515.498 C 838.713 518.726, 844.176 522.848, 846.225 524.658 C 854.440 531.916, 866.452 530.264, 872.750 521.010 C 877.876 513.478, 874.475 507.531, 857.882 495.017 C 850.942 489.783, 841.526 482.181, 836.956 478.125 C 829.281 471.311, 819.187 464.043, 817.298 463.969 C 816.423 463.935, 810.190 459.099, 789.879 442.696 C 782.520 436.754, 774.250 430.646, 771.500 429.124 C 761.133 423.385, 758.326 421.659, 752.008 417.142 C 742.019 410, 738.336 407.778, 724.409 400.492 C 717.309 396.778, 707.900 391.651, 703.500 389.099 C 695.610 384.524, 692.784 383.204, 678 377.189 C 668.862 373.472, 665.546 372.873, 661 374.120 M 604.645 384.257 C 602.282 387.390, 602.243 387.704, 603.493 393.500 C 605.487 402.754, 605.825 403.285, 609.269 402.596 C 610.909 402.268, 612.591 402, 613.008 402 C 616.373 402, 613.301 385.082, 609.482 382.580 C 607.190 381.079, 606.990 381.148, 604.645 384.257 M 432.894 383.496 C 430.806 384.631, 430.175 385.879, 429.713 389.780 C 429.395 392.457, 428.336 396.326, 427.357 398.377 C 425.484 402.306, 425.958 404.309, 429.252 406.387 C 435.044 410.041, 443.597 393.362, 440.604 384.250 C 439.747 381.642, 436.831 381.356, 432.894 383.496 M 459.669 390.813 C 458.718 391.864, 457.459 395.373, 456.871 398.612 C 456.283 401.850, 455.576 405.693, 455.302 407.151 C 454.464 411.596, 460.248 415.964, 462.715 412.750 C 465.208 409.502, 468.107 399.071, 467.811 394.412 C 467.451 388.727, 463.241 386.866, 459.669 390.813 M 381 392.608 C 364.997 397.152, 358.592 399.575, 331 411.527 C 326.325 413.552, 320.475 416.042, 318 417.060 C 312.573 419.293, 273.053 439.087, 267.701 442.253 C 260.560 446.476, 241.506 458.858, 237.500 461.877 C 226.392 470.249, 218.897 475.701, 210.776 481.316 C 193.709 493.118, 195.314 491.917, 169.638 512.115 C 165.712 515.203, 161.018 518.487, 159.206 519.413 C 149.811 524.216, 148.997 539.133, 157.755 546.022 C 163.086 550.215, 173.138 547.882, 182.521 540.274 C 184.710 538.500, 191.076 533.325, 196.669 528.774 C 205.846 521.307, 224.174 507.871, 236 499.940 C 238.475 498.281, 242.803 495.252, 245.619 493.211 C 257.411 484.661, 267.785 477.311, 272.029 474.500 C 274.519 472.850, 278.119 470.304, 280.029 468.841 C 284.663 465.291, 313.203 450.447, 330 442.851 C 337.425 439.492, 347.550 434.844, 352.500 432.521 C 361.491 428.302, 376.191 422.981, 389.610 419.090 C 400.690 415.876, 408.836 405.846, 405.975 398.939 C 402.706 391.049, 394.140 388.877, 381 392.608 M 498.512 395.213 C 493.142 398.327, 491.117 403.392, 493.444 407.892 C 497.817 416.348, 506.759 405.150, 502.718 396.280 C 501.538 393.691, 501.260 393.620, 498.512 395.213 M 581.683 399.035 C 576.789 402.885, 578.544 417.768, 584.101 419.532 C 587.397 420.578, 588.704 418.218, 589.377 410 C 590.303 398.699, 587.389 394.546, 581.683 399.035 M 551.623 401.249 C 546.491 407.979, 549.314 427, 555.446 427 C 559.006 427, 560.517 422.828, 560.374 413.397 C 560.179 400.492, 556.304 395.113, 551.623 401.249 M 525.750 404.447 C 521.373 409.932, 522.708 420, 527.813 420 C 531.328 420, 533.926 406.025, 531.053 402.564 C 529.255 400.397, 528.872 400.533, 525.750 404.447 M 633.443 410.296 L 630.655 412.693 632.368 420.097 C 633.311 424.169, 634.280 428.446, 634.523 429.603 C 634.882 431.315, 635.665 431.687, 638.732 431.603 L 642.500 431.500 642.769 423.500 C 643.199 410.693, 639.337 405.225, 633.443 410.296 M 490.634 422.334 C 482.277 429.585, 482.314 442.926, 490.691 442.985 C 494.064 443.008, 496.886 434.386, 496.965 423.809 C 497.012 417.578, 496.306 417.414, 490.634 422.334 M 672.793 425.250 C 671.858 425.986, 670.961 428.762, 670.611 432 C 670.285 435.025, 669.748 439.115, 669.418 441.089 C 668.542 446.334, 672.591 451.092, 676.260 449.128 C 678.877 447.728, 682 437.052, 682 429.507 C 682 424.617, 676.708 422.170, 672.793 425.250 M 612.655 428.829 C 610.088 431.665, 610.299 444.554, 612.935 445.965 C 618.033 448.694, 621 444.888, 621 435.618 C 621 427.302, 616.990 424.039, 612.655 428.829 M 420.106 432.377 C 414.878 435.319, 412.473 444.347, 416.436 446.153 C 419.975 447.765, 421.601 446.721, 424.518 440.964 C 428.590 432.928, 426.468 428.798, 420.106 432.377 M 519.851 437.750 C 514.744 445.682, 514.010 449.185, 516.463 453.928 C 521.351 463.381, 527.083 454.938, 525.543 440.553 C 524.723 432.896, 523.397 432.243, 519.851 437.750 M 378.825 439.038 C 374.846 441.360, 373.022 457.077, 376.441 459.580 C 381.326 463.154, 385.285 457.622, 386.713 445.226 C 387.441 438.902, 383.866 436.097, 378.825 439.038 M 443.250 440.522 C 441.393 441.836, 441 443.052, 441 447.492 C 441 450.450, 440.539 454.084, 439.975 455.567 C 436.855 463.771, 444.811 464.571, 449.250 456.500 C 455.194 445.691, 451.154 434.933, 443.250 440.522 M 586.030 445.182 C 583.819 448.808, 583.687 449.310, 583.971 453 C 584.668 462.087, 594.091 463.628, 593.923 454.628 C 593.723 443.898, 589.728 439.116, 586.030 445.182 M 703.078 445.412 C 698.857 447.751, 696.328 462.185, 699.571 465.429 C 703.437 469.294, 706.956 465.347, 709.348 454.462 C 711.551 444.437, 709.690 441.750, 703.078 445.412 M 345.345 448.564 C 341.143 452.766, 343.632 468, 348.520 468 C 352.380 468, 355 463.907, 355 457.878 C 355 447.168, 350.796 443.113, 345.345 448.564 M 639.534 455.247 C 636.514 457.879, 636.721 469.572, 639.809 470.757 C 644.555 472.578, 648.736 465.250, 646.849 458.417 C 645.510 453.564, 642.808 452.393, 639.534 455.247 M 548.184 457.099 C 534.851 458.776, 531.541 463.902, 534.462 478.351 C 535.461 483.297, 536.649 492.779, 537.100 499.422 C 538.558 520.884, 539.844 532.012, 541.419 536.807 C 542.267 539.388, 543.845 546, 544.925 551.500 C 546.006 557, 547.583 564.425, 548.430 568 C 549.277 571.575, 549.977 576.159, 549.985 578.187 C 550 581.775, 552.239 591.853, 555.498 603 C 561.058 622.015, 560.968 623.773, 554.659 619.284 C 551.299 616.894, 549.984 616.600, 542.635 616.600 C 530.889 616.600, 528.264 618.369, 524.654 628.718 C 520.305 641.188, 518.790 641.878, 517.446 632 C 515.649 618.790, 511.655 615.280, 499.681 616.393 C 491.633 617.141, 489.448 618.254, 485.955 623.382 C 481.302 630.213, 480.134 624.862, 483.019 609.930 C 483.504 607.416, 484.383 587.616, 484.971 565.930 C 486.147 522.548, 487.164 508.220, 490.067 494.091 C 494.386 473.069, 488.648 464.008, 473.648 468.165 C 459.745 472.018, 459.992 471.363, 458.802 507.438 C 456.304 583.106, 454.229 621.902, 452.408 626.997 C 452.114 627.821, 451.471 632.771, 450.979 637.997 C 447.926 670.472, 446.899 680.318, 445.864 687.054 C 444.315 697.134, 445.295 699.058, 454.835 704.679 C 462.881 709.419, 466.750 710.039, 469.477 707.026 C 470.460 705.940, 472.103 704.785, 473.130 704.459 C 474.156 704.133, 475.297 702.664, 475.666 701.193 C 476.035 699.723, 478.849 695.297, 481.919 691.357 C 484.988 687.418, 488.267 682.801, 489.203 681.098 C 492.020 675.977, 496.868 678.859, 498.291 686.500 C 503.067 712.154, 503.991 714.265, 512.480 718.925 C 524.178 725.345, 527.824 724.153, 533.622 712.018 C 539.478 699.760, 547.880 670.736, 546.565 667.309 C 545.702 665.061, 547.862 659, 549.527 659 C 550.836 659, 552.600 661.109, 559.443 670.855 C 562.603 675.356, 573.758 688.199, 583.237 698.250 C 587.891 703.184, 589.172 704, 592.265 704 C 594.248 704, 596.912 704.396, 598.186 704.881 C 610.267 709.474, 614.885 692.792, 607.982 669.500 C 603.348 653.865, 602.499 650.894, 598.982 638 C 597.256 631.675, 593.865 619.853, 591.445 611.728 C 589.024 603.603, 585.187 589.878, 582.918 581.228 C 572.113 540.046, 570.468 529.061, 567.481 478.119 C 567.036 470.542, 566.454 467.945, 564.455 464.619 C 559.450 456.291, 558.413 455.812, 548.184 457.099 M 737.021 463.149 C 733.647 464.450, 731.001 466.977, 730.994 468.905 C 730.990 469.782, 730.315 471.789, 729.494 473.364 C 726.325 479.440, 728.924 486.937, 734.215 486.985 C 736.196 487.002, 738.029 484.005, 739.097 479 C 739.508 477.075, 740.661 473.369, 741.659 470.765 C 743.903 464.909, 741.726 461.334, 737.021 463.149 M 670.923 466.923 C 664.379 473.467, 669.329 485.462, 676.308 479.972 C 679.742 477.272, 680.955 470.107, 678.591 466.498 C 676.454 463.236, 674.502 463.345, 670.923 466.923 M 409.749 468.983 C 404.721 472.938, 407.761 488.030, 413.305 486.638 C 416.193 485.913, 416.794 484.656, 417.592 477.665 C 418.664 468.262, 415.341 464.584, 409.749 468.983 M 313.750 469.365 C 309.810 472.417, 315.730 486, 321 486 C 326.490 486, 327.467 478.469, 323.075 470 C 322.060 468.043, 315.990 467.629, 313.750 469.365 M 619.252 477.407 C 616.101 481.413, 615.444 489.086, 618.068 491.235 C 621.183 493.788, 623.556 492.019, 624.980 486.084 C 626.914 478.023, 623.196 472.392, 619.252 477.407 M 375 479.778 C 369.544 481.535, 367.755 491.831, 372.189 495.961 C 374.888 498.476, 375.124 498.477, 378.278 495.996 C 384.283 491.272, 381.535 477.673, 375 479.778 M 344.719 482.424 C 340.241 486.902, 342.498 501.074, 347.808 501.827 C 354.837 502.824, 356.786 496.268, 352.212 487.009 C 349.349 481.211, 347.229 479.914, 344.719 482.424 M 589.196 485.298 C 582.151 492.567, 586.889 506.189, 594.522 500.608 C 596.898 498.870, 597.254 488.724, 595.081 484.656 C 593.284 481.292, 593.054 481.317, 589.196 485.298 M 762.537 484.959 C 758.582 489.330, 759.613 499, 764.034 499 C 768.584 499, 774.765 486.764, 771.441 484.333 C 768.799 482.401, 764.584 482.698, 762.537 484.959 M 277.162 486.816 C 272.651 490.338, 279.226 499.218, 285.173 497.637 C 290.317 496.268, 290.598 495.527, 287.950 490.318 C 285.137 484.786, 281.340 483.553, 277.162 486.816 M 505.683 487.035 C 500.590 491.041, 502.871 507, 508.537 507 C 512.991 507, 514.295 486.066, 509.893 485.218 C 509.054 485.056, 507.159 485.874, 505.683 487.035 M 698.557 488.223 C 694.464 494.066, 699.687 502.521, 704.561 497.942 C 707.385 495.290, 707.881 493.361, 706.799 489.250 C 705.728 485.183, 701.091 484.605, 698.557 488.223 M 433.500 487.778 C 430.408 488.440, 428.172 490.899, 427.518 494.354 C 427.191 496.084, 426.412 499.481, 425.789 501.903 C 424.706 506.105, 424.779 506.413, 427.383 508.653 C 432.153 512.756, 434.438 510.938, 437.022 500.985 C 439.986 489.570, 439.184 486.561, 433.500 487.778 M 525.083 498.800 C 523.746 502.027, 524.454 506.302, 526.622 508.101 C 528.767 509.881, 529.453 508.466, 529.478 502.214 C 529.504 495.592, 527.164 493.775, 525.083 498.800 M 402.017 500.975 C 398.457 505.976, 399.431 515.395, 403.551 515.799 C 407.622 516.197, 410.094 513.342, 410.755 507.480 C 411.743 498.717, 406.438 494.767, 402.017 500.975 M 318.203 500.256 C 315.408 503.623, 315.188 509.390, 317.745 512.250 C 321.438 516.380, 329.880 512.444, 327.990 507.474 C 325.430 500.739, 320.698 497.249, 318.203 500.256 M 636.174 501.314 C 631.225 506.582, 635.910 522, 642.459 522 C 645.214 522, 646.258 517.199, 645.145 509.653 C 643.684 499.748, 640.461 496.752, 636.174 501.314 M 729.862 501.832 C 723.622 507.407, 725.235 522.119, 731.910 520.514 C 736.946 519.302, 739.228 511.410, 736.859 503.390 C 735.342 498.252, 734.163 497.989, 729.862 501.832 M 793.093 500.750 C 790.217 503.115, 787.296 514.446, 789.025 516.530 C 791.820 519.898, 795.096 517.825, 798.883 510.290 C 803.197 501.709, 799.445 495.527, 793.093 500.750 M 246.571 508.571 C 243.773 511.370, 244.662 514.995, 249.166 519.154 C 256.492 525.917, 263.432 522.813, 259.056 514.730 C 255.054 507.339, 250.199 504.944, 246.571 508.571 M 284.073 510.635 C 281.576 513.808, 281.565 514.019, 283.640 518.372 C 285.715 522.722, 288.797 524.423, 292.949 523.511 C 298.297 522.337, 298.088 518.764, 292.243 511.438 C 288.954 507.316, 286.846 507.108, 284.073 510.635 M 758.628 514.250 C 755.481 517.101, 754.158 524.056, 756.407 525.923 C 759.116 528.171, 763.298 525.927, 764.905 521.363 C 767.684 513.470, 764.043 509.344, 758.628 514.250 M 667.568 515.522 C 663.785 519.603, 664.703 531.032, 668.809 530.978 C 672.724 530.926, 674.949 527.746, 675.190 521.856 C 675.540 513.287, 672.206 510.517, 667.568 515.522 M 817.308 515.082 C 811.190 517.345, 808.302 530, 813.904 530 C 817.339 530, 824 521.551, 824 517.193 C 824 515.634, 819.582 514.241, 817.308 515.082 M 699.789 521.226 C 695.325 526.004, 696.831 537, 701.948 537 C 707.119 537, 709.260 529.865, 706.364 522.283 C 704.403 517.148, 703.703 517.036, 699.789 521.226 M 614.967 526.250 C 613.369 528.841, 613.017 530.920, 613.231 536.500 L 613.500 543.500 616.585 543.801 C 620.855 544.218, 622.024 542.367, 623.133 533.437 C 624.465 522.706, 619.725 518.533, 614.967 526.250 M 444.956 525.553 C 441.813 529.340, 445.366 537.948, 449.428 536.389 C 450.836 535.849, 452.495 526.611, 451.480 524.967 C 450.547 523.458, 446.385 523.831, 444.956 525.553 M 357 526.302 C 356.725 526.576, 351.325 527.326, 345 527.967 C 317.750 530.731, 280.822 542.791, 262.500 554.909 C 260.300 556.365, 256.788 558.335, 254.695 559.288 C 247.118 562.738, 245.589 573.326, 251.693 580.082 C 261.786 591.254, 266.680 591.660, 280.397 582.460 C 294.412 573.061, 322.009 561.766, 336.500 559.499 C 340.886 558.813, 340.554 559.357, 333.579 564.272 C 330.230 566.633, 328.638 572.901, 329.312 581.074 C 330.160 591.362, 339.396 610, 343.645 610 C 344.358 610, 347.400 611.125, 350.406 612.500 C 362.886 618.208, 371.137 613.616, 379.146 596.502 C 385.866 582.141, 383.620 570.694, 372.676 563.523 C 369.594 561.504, 360.134 558, 357.764 558 C 356.794 558, 356 557.586, 356 557.080 C 356 555.636, 368.534 554.659, 376.908 555.450 C 381.084 555.845, 389 556.518, 394.500 556.947 C 402.042 557.535, 406.589 558.527, 413 560.983 C 429.616 567.350, 435.745 565.117, 436.807 552.309 C 438.171 535.864, 420.926 529.451, 367 526.349 C 361.775 526.049, 357.275 526.027, 357 526.302 M 589 529.290 C 584.107 531.757, 585.262 547.537, 590.283 546.811 C 596.016 545.981, 599.101 534.323, 594.686 530.174 C 591.983 527.635, 592.212 527.671, 589 529.290 M 502.554 533.538 C 500.886 535.083, 500.047 536.680, 500.408 537.620 C 500.733 538.469, 501 540.411, 501 541.936 C 501 543.524, 502.093 545.888, 503.561 547.471 L 506.122 550.234 508.561 547.943 C 510.632 545.998, 511 544.726, 511 539.526 C 511 530.728, 507.932 528.553, 502.554 533.538 M 221.741 535.750 C 218.907 538.912, 220.563 546.494, 224.862 550.038 C 229.172 553.591, 229.018 553.577, 232.344 550.718 C 235.517 547.992, 235.692 547, 233 547 C 231.617 547, 231 546.333, 231 544.838 C 231 542.002, 226.284 534, 224.613 534 C 223.896 534, 222.604 534.788, 221.741 535.750 M 254.428 536.328 C 253.704 538.215, 255.686 542.942, 257.493 543.636 C 259.358 544.351, 264 541.466, 264 539.592 C 264 536.366, 255.523 533.475, 254.428 536.328 M 524.020 538.480 C 520.370 542.245, 520.422 547.085, 524.133 549.071 C 529.604 551.999, 533.307 547.305, 531.165 540.157 C 529.588 534.891, 527.885 534.492, 524.020 538.480 M 836.523 538.500 C 835.685 539.875, 834.325 542.109, 833.500 543.465 C 830.733 548.011, 833.193 552.853, 837.057 550.465 C 839.552 548.923, 844 541.482, 844 538.850 C 844 534.932, 838.844 534.691, 836.523 538.500 M 724.718 542.615 C 724.387 542.946, 721.278 543.387, 717.808 543.595 C 700.365 544.639, 681.845 547.882, 667 552.491 C 662.325 553.943, 655.575 555.963, 652 556.980 C 644.896 559.001, 638.728 561.469, 629.500 565.985 C 626.200 567.600, 620.993 570.002, 617.929 571.323 C 607.228 575.937, 605.761 586.997, 614.682 595.799 C 625.125 606.103, 626.445 606.184, 643.658 597.583 C 650.721 594.054, 660.550 589.804, 665.500 588.139 C 710.789 572.906, 718.190 571.821, 769.500 572.884 C 785.437 573.215, 786.879 573.423, 799.740 577.245 C 809.671 580.197, 811.264 579.706, 815.227 572.475 C 824.464 555.620, 808.288 545.739, 769.500 544.544 C 765.100 544.408, 757 543.997, 751.500 543.630 C 730.492 542.229, 725.301 542.032, 724.718 542.615 M 195.695 560.024 C 190.779 567.044, 201.690 578.420, 207.345 572.171 C 209.626 569.651, 209.592 569.552, 204.309 563.433 C 199.188 557.501, 197.837 556.967, 195.695 560.024 M 585.962 566.546 C 583.112 569.979, 585.401 579.315, 589.558 581.208 C 596.313 584.286, 600.060 573.378, 594.696 566.250 C 593.374 564.493, 587.501 564.692, 585.962 566.546 M 859.843 566.394 C 855.237 568.039, 844 577.719, 844 580.042 C 844 585.754, 854.343 582.645, 861.445 574.798 C 867.430 568.184, 868.429 563.802, 863.668 565.044 C 863.576 565.068, 861.855 565.676, 859.843 566.394 M 504.962 570.541 C 502.241 573.437, 501.733 584.227, 504.207 586.564 C 512.291 594.200, 517.728 578.821, 510.152 569.750 C 508.238 567.459, 507.793 567.527, 504.962 570.541 M 181 573 C 178.125 575.875, 178.525 578.725, 182.341 582.541 C 189.460 589.660, 195.599 587.897, 192.102 579.737 C 188.571 571.501, 184.792 569.208, 181 573 M 407.655 572.829 C 405.266 575.468, 405.372 586.003, 407.817 589.022 C 412.440 594.731, 420.831 580.158, 417.020 573.038 C 415.604 570.392, 409.974 570.266, 407.655 572.829 M 529.500 579.765 C 525.372 582.798, 524.899 589.989, 528.635 592.927 C 535.568 598.381, 539.588 593.647, 535.628 584.693 C 533.238 579.290, 531.762 578.103, 529.500 579.765 M 703 579.900 C 702.175 580.332, 699.256 581.769, 696.514 583.093 C 685.670 588.328, 681.170 596.156, 682.275 607.863 C 683.748 623.459, 692.910 633, 706.413 633 L 713.024 633 719.762 626.578 C 737.540 609.635, 733.381 585.387, 711.966 581.133 C 709.510 580.645, 706.825 579.992, 706 579.681 C 705.175 579.369, 703.825 579.468, 703 579.900 M 434.777 584.750 C 431.247 588.781, 432.167 602, 435.979 602 C 440.931 602, 443 598.163, 443 588.982 C 443 582.933, 438.429 580.581, 434.777 584.750 M 233.750 586.080 C 230.481 587.984, 231.588 592.366, 236.478 596.873 C 242.018 601.980, 243.457 602.111, 246.817 597.817 C 250.435 593.193, 239.068 582.983, 233.750 586.080 M 301.073 587.635 C 298.158 591.340, 299.777 597.740, 304.232 600.124 C 307.372 601.805, 312.284 596.626, 311.434 592.533 C 309.864 584.977, 304.979 582.668, 301.073 587.635 M 762.831 586.014 C 761.913 586.561, 760.365 589.144, 759.390 591.754 C 758.415 594.364, 756.965 597.531, 756.167 598.791 C 752.980 603.824, 759.301 608.707, 763.235 604.250 C 770.569 595.943, 770.251 581.594, 762.831 586.014 M 821.165 588.824 C 816.598 593.713, 813.929 608.207, 817.205 610.329 C 821.408 613.051, 825.675 605.106, 826.191 593.600 C 826.555 585.467, 825.361 584.332, 821.165 588.824 M 217.655 595.829 C 214.356 599.475, 216.734 604.803, 223.113 608.058 C 231.944 612.563, 235.689 608.119, 229.464 600.521 C 223.868 593.693, 220.720 592.442, 217.655 595.829 M 791.776 597.750 C 787.639 602.468, 784.333 612.491, 786.179 614.716 C 790.162 619.515, 797.974 608.959, 797.994 598.750 C 798.001 595.458, 794.307 594.863, 791.776 597.750 M 857.188 602.029 C 850.835 608.847, 847.711 622, 852.443 622 C 855.345 622, 858 618.631, 858 614.947 C 858 613.513, 859.123 610.125, 860.496 607.419 C 864.206 600.106, 862.130 596.723, 857.188 602.029 M 274.096 604.398 C 271.074 607.614, 271.797 610.737, 276.526 614.889 C 280.747 618.595, 282.060 618.722, 285.472 615.750 L 288.055 613.500 285.203 608 C 281.760 601.360, 278.073 600.164, 274.096 604.398 M 404.272 603.211 C 399.431 605.547, 401.774 618, 407.055 618 C 412.743 618, 415.189 604.959, 409.851 603.098 C 408.119 602.494, 406.656 602.030, 406.601 602.068 C 406.545 602.105, 405.497 602.619, 404.272 603.211 M 597.499 603.644 C 595.668 605.475, 596.170 609.406, 598.578 612.079 C 599.360 612.947, 600 614.159, 600 614.772 C 600 616.250, 604.001 619, 606.151 619 C 610.890 619, 612.254 613.378, 609.043 607.083 C 606.332 601.769, 600.971 600.172, 597.499 603.644 M 649.655 609.829 C 644.393 615.643, 652.459 623.541, 658 618 C 660.639 615.361, 660.523 613.432, 657.545 610.455 C 654.627 607.537, 651.923 607.322, 649.655 609.829 M 313.404 614.765 C 312.801 615.169, 312.003 616.747, 311.630 618.271 C 309.691 626.193, 322.949 633.194, 327.523 626.663 C 329.891 623.283, 329.376 622.456, 322.190 618.115 C 314.754 613.622, 314.981 613.708, 313.404 614.765 M 201.086 617.618 L 199.027 620.235 201.434 624.368 C 203.753 628.348, 212.375 635.985, 214.561 635.995 C 215.145 635.998, 216.589 635.100, 217.770 634 L 219.917 631.999 217.332 626.750 C 211.904 615.726, 205.435 612.089, 201.086 617.618 M 626.051 616.949 C 623.349 619.651, 623.452 623.137, 626.314 625.826 C 631.209 630.424, 637.937 626.986, 635.836 620.959 C 634.011 615.725, 629.233 613.767, 626.051 616.949 M 382 617.164 C 375.506 619.031, 372.791 623.748, 376.934 625.965 C 380.319 627.776, 382.707 627.098, 385.951 623.403 C 390.957 617.702, 389.290 615.069, 382 617.164 M 741.077 620.589 C 735.729 625.088, 737.683 632.995, 743.358 629.820 C 744.991 628.906, 747.176 625.296, 748.997 620.507 C 750.352 616.943, 745.348 616.995, 741.077 620.589 M 349.165 623.597 C 342.979 627.930, 352.152 636.812, 359.014 633.132 C 364.977 629.934, 365.343 625.060, 359.628 624.965 C 358.457 624.945, 356.375 624.286, 355 623.500 C 351.837 621.692, 351.886 621.691, 349.165 623.597 M 230.807 624.750 C 225.101 631.394, 237.568 643.274, 244.513 637.811 C 247.692 635.311, 247.704 635.346, 241.146 628.549 C 235.504 622.701, 233.271 621.881, 230.807 624.750 M 771.374 625.985 C 765.951 628.175, 763.099 636.912, 767.107 639.057 C 771.440 641.376, 780.411 629.236, 776.486 626.366 C 774.369 624.818, 774.281 624.811, 771.374 625.985 M 803.706 630.016 C 797.635 634.792, 794.955 643.232, 799.162 644.332 C 802.437 645.188, 804.746 643.434, 807.501 637.997 C 811.926 629.265, 809.949 625.106, 803.706 630.016 M 669.960 630.831 C 666.860 633.342, 667.963 637.323, 673.118 642.227 C 677.765 646.647, 680.728 646.983, 684.034 643.464 C 689.504 637.641, 676.246 625.741, 669.960 630.831 M 387.931 634.006 C 383.089 636.476, 377.326 638.434, 371.931 639.442 C 367.294 640.310, 361.357 641.508, 358.738 642.105 C 356.118 642.702, 346.625 643.717, 337.642 644.360 C 317.808 645.778, 310.236 649.283, 315.910 654.419 C 316.961 655.369, 318.094 657.239, 318.429 658.574 C 318.764 659.908, 319.418 661, 319.882 661 C 320.345 661, 322.341 662.284, 324.316 663.853 C 333.663 671.282, 361.442 668.802, 378.533 659.012 C 381.265 657.447, 386.613 654.459, 390.419 652.371 C 397.715 648.368, 406 640.666, 406 637.886 C 406 635.534, 400.008 629.986, 397.560 630.073 C 396.427 630.113, 392.094 631.883, 387.931 634.006 M 431.223 632.557 C 428.478 634.479, 428.098 643.356, 430.557 648.111 C 434.022 654.810, 441 648.669, 441 638.921 C 441 631.861, 436.447 628.897, 431.223 632.557 M 290.219 636.559 C 285.550 639.829, 288.023 644.551, 295.662 646.953 C 299.499 648.160, 300.064 648.090, 302.912 646.063 C 306.903 643.221, 306.862 643.078, 300.956 639.310 C 294.344 635.093, 292.857 634.712, 290.219 636.559 M 715 637.678 C 706.209 639.103, 705.796 647, 714.512 647 C 718.641 647, 724.638 638.843, 721.418 637.607 C 719.789 636.982, 719.256 636.988, 715 637.678 M 850.700 640.649 C 847.511 642.320, 846.546 644.401, 843.896 655.315 C 841.790 663.991, 842.412 667, 846.313 667 C 851.323 667, 854.244 660.538, 854.565 648.748 C 854.831 638.972, 854.645 638.582, 850.700 640.649 M 263.073 642.635 C 260.346 646.102, 260.368 646.196, 264.889 650.281 C 269.907 654.814, 272.444 655.594, 275.549 653.560 C 279.492 650.976, 278.333 647.703, 271.798 642.969 C 266.772 639.328, 265.706 639.287, 263.073 642.635 M 653.200 641.200 C 651.101 643.299, 651.735 647.950, 654.250 648.897 C 661.744 651.721, 668 649.790, 668 644.654 C 668 641.507, 655.751 638.649, 653.200 641.200 M 831.059 641.751 C 826.016 645.834, 822.721 658.245, 826.186 660.100 C 830.153 662.222, 835 653.441, 835 644.134 C 835 639.575, 834.282 639.141, 831.059 641.751 M 742.495 646.864 C 738.615 648.626, 732.348 650.262, 724.881 651.460 C 722.831 651.790, 717.847 651.266, 713.381 650.253 C 703.996 648.124, 688.857 648.973, 685.686 651.806 C 679.729 657.127, 688.881 671.119, 699.147 672.387 C 702.091 672.751, 706.658 673.321, 709.295 673.656 C 712.657 674.082, 715.197 673.778, 717.795 672.640 C 719.833 671.747, 725.512 670.099, 730.415 668.978 C 750.345 664.424, 759.600 655.246, 751.465 648.104 C 747.337 644.479, 747.649 644.522, 742.495 646.864 M 625.338 649.999 C 619.187 652.479, 623.582 661, 631.012 661 C 635.336 661, 636.271 654.145, 632.365 651.073 C 629.498 648.818, 628.605 648.681, 625.338 649.999 M 784.661 659.584 C 780.771 662.228, 779 665.350, 779 669.565 C 779 675.695, 788.100 669.611, 789.415 662.601 C 790.400 657.350, 789.133 656.546, 784.661 659.584 M 234.080 664.415 C 230.691 668.022, 235.314 675.767, 243.881 680.837 C 250.405 684.697, 254.710 680.182, 250.529 673.864 C 249.138 671.763, 248 669.630, 248 669.125 C 248 667.385, 240.925 662, 238.640 662 C 237.380 662, 235.328 663.087, 234.080 664.415 M 396.212 668.940 C 394.403 669.393, 390.285 671.391, 387.061 673.382 C 383.837 675.372, 380.852 677, 380.428 677 C 380.004 677, 378.945 677.645, 378.074 678.433 C 375.871 680.427, 359.630 685, 354.754 685 C 346.716 685, 339.864 688.583, 344.500 690.362 C 345.343 690.685, 346 692.173, 346 693.757 C 346 703.650, 368.480 710.219, 384.875 705.116 C 401.130 700.057, 415.379 684.638, 412.310 675.429 C 410.480 669.941, 403.481 667.120, 396.212 668.940 M 654.557 674.223 C 650.040 680.671, 664.789 687.121, 671.065 681.442 C 674.255 678.554, 671.773 675, 666.567 675 C 665.831 675, 663.940 674.328, 662.364 673.506 C 658.402 671.439, 656.376 671.625, 654.557 674.223 M 297.607 680.536 C 293.794 684.349, 294.379 686.814, 300.588 693.089 C 306.902 699.470, 310.285 700.552, 313.345 697.171 C 315.943 694.300, 315.394 692.838, 309.250 686.272 C 302.889 679.474, 300.061 678.082, 297.607 680.536 M 804.500 683.545 C 799.783 685.535, 792.559 696.893, 793.191 701.327 C 794.285 709.013, 802.662 700.713, 807.420 687.228 C 809.122 682.404, 808.641 681.798, 804.500 683.545 M 827.553 685.916 C 821.537 695.447, 819.902 707, 824.570 707 C 827.130 707, 831 703.869, 831 701.797 C 831 700.713, 832.575 697.009, 834.500 693.566 C 839.377 684.845, 839.258 682, 834.013 682 C 830.462 682, 829.754 682.429, 827.553 685.916 M 426.250 685.031 C 423.646 686.078, 422.800 700.400, 425.200 702.800 C 428.911 706.511, 435.509 700.852, 435.863 693.652 C 436.262 685.570, 432.749 682.419, 426.250 685.031 M 628.535 688.351 C 625.405 690.640, 629.651 703, 633.567 703 C 635.541 703, 638.125 699.295, 638.209 696.346 C 638.436 688.378, 633.770 684.523, 628.535 688.351 M 737.500 692.613 C 721.181 698.906, 720.040 699.185, 710.874 699.142 C 706.024 699.119, 701.792 699.527, 701.469 700.050 C 701.146 700.572, 697.196 701.016, 692.691 701.036 C 682.189 701.082, 677.548 703.854, 680.480 708.329 C 681.411 709.749, 681.858 711.420, 681.475 712.041 C 680.172 714.149, 684.235 719.802, 688.407 721.685 C 691.719 723.180, 695.083 723.500, 707.470 723.500 L 722.511 723.500 733.006 718.241 C 749.555 709.948, 760.568 698.589, 757.200 693.289 C 754.226 688.610, 748.398 688.410, 737.500 692.613 M 556.940 692.060 L 554.880 694.120 557.440 698.488 C 558.848 700.890, 560 703.762, 560 704.869 C 560 705.976, 560.450 707.160, 561 707.500 C 561.550 707.840, 562 708.922, 562 709.904 C 562 714.192, 565.950 715.759, 568.700 712.563 C 576.341 703.679, 565.035 683.965, 556.940 692.060 M 658.200 705.200 C 655.824 707.576, 656.674 720.345, 659.376 722.884 L 661.753 725.117 664.552 722.709 C 668.215 719.558, 669.400 709.204, 666.468 705.964 C 664.484 703.772, 660.039 703.361, 658.200 705.200 M 269 708 C 266.176 710.824, 266.506 713.132, 270.250 716.735 C 274.917 721.225, 277.969 721.726, 281.001 718.498 C 286.194 712.971, 274.371 702.629, 269 708 M 612.059 711.941 C 610.927 713.073, 610 714.569, 610 715.265 C 610 715.960, 609.064 718.276, 607.919 720.412 L 605.839 724.293 608.249 726.703 C 610.400 728.855, 610.949 728.980, 613.377 727.874 C 617.052 726.200, 622.920 714.687, 621.365 712.203 C 619.752 709.628, 614.520 709.480, 612.059 711.941 M 484.124 712.626 C 481.747 714.291, 481.725 714.702, 483.600 722.500 C 485.431 730.117, 489.986 732.773, 493.960 728.542 C 500.157 721.946, 491.293 707.604, 484.124 712.626 M 332.223 715.557 C 327.857 718.614, 332.860 732.279, 338.823 733.584 C 340.295 733.907, 343.197 734.807, 345.270 735.585 C 353.695 738.747, 357.775 735.648, 351.653 730.737 C 349.573 729.068, 346.345 725.316, 344.479 722.399 C 342.613 719.482, 339.739 716.399, 338.093 715.548 C 334.460 713.670, 334.918 713.669, 332.223 715.557 M 765.952 722.250 C 759.965 728.590, 759.041 730.641, 761.200 732.800 C 764.497 736.097, 773.052 730.738, 777.072 722.858 C 782.015 713.170, 774.895 712.780, 765.952 722.250 M 434.250 718.031 C 431.347 719.198, 431.206 723.971, 434 726.500 C 435.100 727.495, 436 728.813, 436 729.428 C 436 732.037, 442.985 734.519, 445.839 732.924 C 450.211 730.481, 449.829 727.037, 444.590 721.646 C 440.038 716.962, 438.365 716.377, 434.250 718.031 M 388.655 719.829 C 384.031 724.938, 393.875 739.274, 401.536 738.587 C 407.068 738.091, 408.745 735.408, 405.619 732.057 C 404.307 730.650, 402.324 727.401, 401.211 724.836 C 398.303 718.131, 392.343 715.754, 388.655 719.829 M 560.108 722.084 C 554.901 724.167, 559.010 742.810, 564.711 742.967 C 568.482 743.070, 571.792 735.036, 570.599 728.675 C 569.421 722.398, 565.493 719.930, 560.108 722.084 M 645.770 729.714 C 644.269 729.942, 641.569 731.700, 639.770 733.621 C 637.972 735.542, 635.038 738.025, 633.250 739.138 C 628.165 742.306, 629.399 747, 635.316 747 C 640.702 747, 652 737.162, 652 732.472 C 652 730.720, 649.596 728.323, 648.668 729.150 C 648.576 729.232, 647.272 729.486, 645.770 729.714 M 806.809 729.678 C 803.979 730.424, 799.596 738.808, 801.092 740.611 C 804.908 745.209, 808.981 744.164, 812.467 737.691 C 815.631 731.816, 812.973 728.052, 806.809 729.678 M 535.323 732.759 C 531.612 733.375, 530.748 735.372, 531.670 741.203 C 532.666 747.496, 536.293 748.917, 541.303 744.976 C 547.051 740.455, 542.685 731.536, 535.323 732.759 M 592.725 732.842 C 590.785 733.609, 588 738.300, 588 740.800 C 588 741.664, 587.081 743.349, 585.957 744.545 C 580.698 750.143, 585.703 757.840, 591.704 753.382 C 594.327 751.434, 599.110 743.222, 600.487 738.301 C 601.594 734.345, 597.035 731.139, 592.725 732.842 M 722.571 736.571 C 721.707 737.436, 721 738.923, 721 739.876 C 721 740.829, 719.626 743.775, 717.946 746.424 C 714.228 752.287, 714.349 755.368, 718.315 755.823 C 725.362 756.631, 735.868 741.011, 731.329 736.472 C 729.394 734.537, 724.551 734.591, 722.571 736.571 M 302.223 739.557 C 298.139 742.417, 299.244 746.231, 305.236 749.956 C 312.419 754.421, 320 754.172, 320 749.471 C 320 747.829, 311.150 740.388, 307.584 739.032 C 304.260 737.768, 304.859 737.710, 302.223 739.557 M 691.329 741.708 C 685.256 744.734, 687.315 751, 694.384 751 C 698.312 751, 705.419 744.255, 704.370 741.522 C 703.587 739.483, 695.566 739.597, 691.329 741.708 M 480.664 746.706 C 478.021 747.388, 479.195 751.020, 484.202 757.651 C 489.606 764.808, 491.467 765.785, 494.875 763.253 C 499.306 759.960, 498.844 756.748, 493.112 751.017 C 488.102 746.006, 486.083 745.307, 480.664 746.706 M 426.200 751.200 C 421.971 755.429, 432.163 770.142, 438 768.236 C 443.047 766.587, 444.772 762.961, 442.020 759.785 C 433.268 749.686, 429.668 747.732, 426.200 751.200 M 379 759 C 375.391 762.609, 377.016 765.961, 384.122 769.562 C 390.059 772.570, 393.916 772.193, 396.974 768.306 C 399.488 765.109, 399.362 764.932, 391.462 760.590 C 383.981 756.478, 381.801 756.199, 379 759 M 653.872 760.556 C 653.016 761.413, 649.432 763.100, 645.908 764.306 C 639.072 766.646, 637.233 769.288, 640.532 772.027 C 646.072 776.625, 666.985 765.638, 663.482 759.971 C 662.526 758.424, 655.581 758.847, 653.872 760.556 M 523.750 767.247 C 516.569 769.649, 522.888 777.895, 530.383 775.903 C 532.097 775.447, 535.096 774.829, 537.046 774.530 C 540.606 773.984, 548.030 768.738, 546.892 767.573 C 545.876 766.533, 526.692 766.263, 523.750 767.247 M 599.500 768.175 C 589.245 771.640, 588.160 772.140, 587.575 773.664 C 584.731 781.076, 601.263 780.344, 609.750 772.683 C 612.175 770.493, 612.787 767.009, 610.750 766.986 C 610.063 766.979, 608.600 766.787, 607.500 766.560 C 606.400 766.333, 602.800 767.059, 599.500 768.175 M 745.500 767.725 C 743.850 767.959, 741.150 769.383, 739.500 770.888 C 737.850 772.394, 733.913 775.360, 730.750 777.479 C 724.364 781.759, 724.230 781.993, 726.829 784.345 C 733.082 790.004, 756.318 774.461, 750.421 768.564 C 749.561 767.704, 748.777 767.067, 748.679 767.150 C 748.580 767.232, 747.150 767.491, 745.500 767.725 M 343.727 769.749 C 337.908 776.179, 353.820 787.180, 360 781 C 362.834 778.166, 362.639 777.723, 356.513 773.098 C 349.820 768.044, 346.142 767.081, 343.727 769.749 M 468.655 774.829 C 465.863 777.914, 466.717 780.267, 472.252 784.744 C 478.294 789.629, 481.072 790.019, 484.614 786.476 L 487.138 783.953 484.604 780.941 C 478.065 773.171, 472.193 770.920, 468.655 774.829 M 772.344 774.996 C 771.016 775.532, 769.921 777.139, 769.491 779.183 C 769.107 781.007, 767.448 783.915, 765.803 785.644 C 759.256 792.528, 765.317 797.201, 772.636 790.913 C 783.799 781.322, 783.600 770.456, 772.344 774.996 M 686.845 778.631 C 684.455 780.629, 679.688 783.650, 676.250 785.346 C 669.493 788.679, 669.387 788.806, 671.250 791.273 C 674.692 795.830, 686.790 791.974, 695.091 783.674 C 703.135 775.630, 695.801 771.145, 686.845 778.631 M 373.984 788.812 C 367.242 794.271, 389.106 808.639, 397.250 804.101 C 401.028 801.996, 400.729 801.165, 394.335 796 C 382.968 786.817, 378.428 785.213, 373.984 788.812 M 509.362 788.500 C 506.880 794.966, 522.391 801.250, 529.437 796.633 C 533.801 793.774, 532.086 790, 526.422 790 C 524.674 790, 521.629 789.325, 519.654 788.500 C 517.680 787.675, 514.686 787, 513.001 787 C 511.200 787, 509.700 787.618, 509.362 788.500 M 576 791 C 575.175 791.533, 571.673 791.976, 568.218 791.985 C 551.434 792.026, 551.889 799.648, 568.837 802.358 C 574.916 803.330, 586 797.698, 586 793.637 C 586 790.788, 579.131 788.976, 576 791 M 435.223 792.557 C 431.312 795.296, 432.372 798.299, 438.750 802.545 C 445.075 806.756, 446.745 807.009, 450.446 804.314 C 453.754 801.906, 453.627 800.404, 449.844 797.185 C 442.200 790.681, 439.239 789.743, 435.223 792.557 M 632.529 799.102 C 620.361 802.090, 617.156 804.901, 623.078 807.391 C 631.482 810.925, 652.500 802.763, 646.428 798.323 C 644.097 796.619, 642.211 796.725, 632.529 799.102 M 702.500 808.014 C 690.942 811.214, 688.488 812.084, 687.099 813.473 C 682.368 818.204, 693.905 820.113, 703.186 816.134 C 712.544 812.123, 711.975 805.391, 702.500 808.014 M 736.293 815.188 C 735.307 816.459, 732.362 819.589, 729.750 822.143 C 724.420 827.354, 724.208 827.973, 726.920 830.427 C 730.827 833.964, 745.574 821.814, 744.103 816.270 C 743.108 812.520, 738.824 811.926, 736.293 815.188 M 486.655 816.673 C 483.444 818.355, 483.235 821.235, 486.113 824.113 C 490.317 828.317, 501.598 823.529, 497.683 819.202 C 494.977 816.213, 489.799 815.025, 486.655 816.673 M 654.504 823.655 C 642.848 826.497, 641.547 827.363, 644.861 830.071 C 648.919 833.387, 663.118 831.333, 668.077 826.713 L 670.289 824.653 668.034 822.826 C 666.793 821.822, 665.491 821.049, 665.139 821.109 C 664.788 821.169, 660.002 822.315, 654.504 823.655 M 429.193 824.574 C 426.138 826.718, 426.562 830.973, 430 832.674 C 442.427 838.826, 445.602 839.195, 448.354 834.809 C 451.381 829.985, 434.404 820.918, 429.193 824.574 M 524.070 825.330 C 521.171 828.229, 524.698 832.755, 531.644 835.048 C 538.412 837.281, 550.569 830.141, 546.658 826.229 C 544.617 824.188, 525.955 823.445, 524.070 825.330 M 589.350 827.179 C 577.650 829.318, 579.148 835.214, 591.734 836.562 C 597.333 837.162, 599.009 836.968, 601.886 835.390 C 612.905 829.347, 605.178 824.285, 589.350 827.179 M 473.750 840.597 C 468.533 843.380, 472.930 851, 479.752 851 C 481.615 851, 487 846.192, 487 844.529 C 487 841.363, 477.564 838.563, 473.750 840.597 M 697.500 843.590 C 695.850 844.458, 691.369 846.189, 687.543 847.438 C 679.433 850.085, 677.705 851.912, 680.447 854.941 C 683.955 858.818, 699.211 855.250, 705.343 849.119 C 710.522 843.939, 704.675 839.817, 697.500 843.590 M 508.250 855.989 C 503.941 858.616, 505.250 862.198, 511.302 864.340 C 516.491 866.176, 519.487 860.213, 515.250 856.484 C 511.906 853.540, 512.229 853.563, 508.250 855.989 M 568.750 856.641 C 564.595 857.842, 567.549 864.211, 573.697 867.304 C 583.743 872.358, 600.526 866.126, 596.028 859.011 C 595.326 857.901, 592.977 857.500, 586.793 857.434 C 582.232 857.385, 576.700 857.073, 574.500 856.740 C 572.300 856.407, 569.712 856.363, 568.750 856.641 M 635.945 859.450 C 627.752 862.469, 620 867.176, 620 869.132 C 620 873.859, 638.872 871.045, 645.127 865.385 C 650.770 860.278, 644.572 856.272, 635.945 859.450"/>
    </g>
  </g>
</svg>
