<svg viewBox="0 0 74 74" width="74mm" height="74mm" xmlns="http://www.w3.org/2000/svg">
  <g transform="scale(0.074000)" fill-rule="evenodd">
    <g id="forma" fill="#CB3747">
      <path d="M 873.357 31.091 C 863.813 33.856, 836.495 70.547, 803.066 125.500 C 797.378 134.850, 788.490 148.546, 783.314 155.935 C 778.139 163.324, 771.383 173.899, 768.300 179.435 C 765.218 184.971, 757.890 196.925, 752.015 206 C 746.141 215.075, 736.785 230.150, 731.224 239.500 C 725.663 248.850, 717.678 260.775, 713.480 266 C 704.165 277.593, 702.105 281.004, 697.473 292.507 C 691.512 307.309, 684.382 318.869, 672.495 333 C 668.563 337.675, 663.272 344.240, 660.738 347.589 C 650.036 361.732, 641.898 366.015, 610.500 374.022 C 580.550 381.660, 565.251 382.146, 531.500 376.534 C 503.387 371.860, 487 370.816, 436.500 370.484 C 389.700 370.176, 387.836 369.985, 358.196 362.460 C 324.790 353.978, 322.155 352.133, 300.330 321.949 C 294.186 313.452, 285.053 301.325, 280.034 295 C 275.014 288.675, 262.749 271.350, 252.778 256.500 C 229.160 221.327, 219.936 209.368, 196.472 183.500 C 186.926 172.976, 160.661 142.972, 140.595 119.668 C 110.661 84.904, 75.573 55, 64.717 55 C 43.472 55, 38.102 74.582, 41.033 141.371 C 42.721 179.857, 42.712 224.353, 41.012 240.500 C 40.069 249.464, 39.590 269.646, 39.470 305.500 C 39.375 334.100, 38.717 377.300, 38.009 401.500 C 36.649 448.011, 36.884 462.246, 39.412 486.500 C 40.272 494.750, 41.648 508.980, 42.471 518.123 C 44.942 545.605, 52.326 576.804, 61.966 600.500 C 77.837 639.510, 79.461 643.094, 85.686 652.846 C 87.563 655.787, 93.406 665.687, 98.671 674.846 C 108.120 691.284, 129.679 723.936, 141.359 739.500 C 153.929 756.250, 203.990 803.550, 228.022 821.384 C 309.048 881.514, 344.875 898.157, 408 904.990 C 433.808 907.784, 441.369 909.036, 474.682 916.032 C 503.611 922.107, 505.437 922.335, 550.500 925.485 C 569.338 926.802, 573.610 926.788, 592 925.357 C 604.037 924.419, 626.331 923.687, 646 923.583 C 696.180 923.317, 718.583 914.059, 759.756 876.573 C 781.167 857.080, 814.894 798.375, 842.528 732.500 C 845.989 724.250, 851.784 710.883, 855.406 702.796 C 867.526 675.738, 869.852 667.410, 893.050 568 C 897.478 549.025, 902.902 524.500, 905.103 513.500 C 907.305 502.500, 909.763 490.936, 910.567 487.802 C 912.911 478.661, 918.710 439.852, 920.484 421.441 C 921.382 412.123, 923.193 397.525, 924.509 389 C 928.723 361.698, 929.219 353.981, 928.880 321 C 928.701 303.675, 929.162 269.925, 929.904 246 L 931.252 202.500 928.560 178.539 C 916.914 74.859, 897.868 23.989, 873.357 31.091"/>
    </g>
    <g id="detalles" fill="#1A1A1A">
      <path d="M 871.500 21.560 C 860.457 27.258, 825.893 74.494, 795.800 125.013 C 787.959 138.175, 779.535 150.555, 768.844 164.625 C 766.702 167.444, 763.864 172.521, 762.537 175.906 C 761.210 179.291, 754.381 190.710, 747.362 201.281 C 740.342 211.851, 731.813 225.477, 728.407 231.560 C 716.848 252.205, 709.564 262.564, 703.049 267.624 C 696.448 272.750, 693 278.426, 693 284.167 C 693 293.489, 676.036 322.345, 665.675 330.647 C 661.932 333.646, 659.255 337.082, 656 343.064 C 649.444 355.114, 640.408 360.185, 615.073 366.030 C 610.908 366.991, 603.055 368.952, 597.622 370.389 C 592.189 371.825, 584.989 373.015, 581.622 373.033 C 578.255 373.051, 572.350 373.479, 568.500 373.984 C 562.856 374.724, 559.659 374.530, 552 372.986 C 546.775 371.932, 538.450 370.602, 533.500 370.029 C 528.550 369.456, 521.800 368.300, 518.500 367.460 C 515.060 366.585, 503.753 365.516, 492 364.956 C 480.725 364.419, 463.850 363.580, 454.500 363.092 C 443.869 362.537, 433.566 362.573, 427 363.186 C 409.964 364.777, 387.839 363.375, 374.612 359.867 C 368.500 358.246, 356.975 355.316, 349 353.357 C 325.852 347.670, 326.516 348.254, 299.771 310 C 296.119 304.775, 289.719 296.450, 285.551 291.500 C 281.382 286.550, 269.251 269.450, 258.592 253.500 C 233.969 216.656, 223.132 202.781, 195.358 172.542 C 183.449 159.577, 172.526 147.062, 152.034 122.906 C 131.609 98.829, 86.893 55.659, 74.348 47.906 C 63.906 41.453, 40.008 52.165, 36.213 65 C 33.519 74.109, 33.037 111.139, 34.871 168 C 35.948 201.392, 35.993 214.143, 35.081 227.500 C 32.283 268.435, 31.957 278.790, 32.216 318.500 C 32.367 341.600, 31.872 380.075, 31.116 404 C 29.711 448.515, 29.996 465.864, 32.443 484.760 C 33.208 490.667, 34.358 503.150, 34.998 512.500 C 37.330 546.538, 46.419 583.455, 59.496 612 C 62.393 618.325, 66.199 627.775, 67.953 633 C 70.395 640.272, 73.238 645.697, 80.073 656.127 C 84.985 663.622, 89.972 671.947, 91.155 674.627 C 93.662 680.306, 101.336 692.894, 110.728 706.730 C 114.375 712.104, 121.018 721.948, 125.491 728.606 C 137.158 745.974, 143.643 753.414, 164.226 773.047 C 174.277 782.634, 186.325 794.348, 191 799.077 C 199.201 807.374, 220.164 825, 221.830 825 C 222.278 825, 226.150 827.915, 230.436 831.478 C 234.721 835.041, 241.678 839.947, 245.896 842.379 C 250.113 844.812, 255.801 848.814, 258.536 851.273 C 261.271 853.732, 266.882 857.756, 271.004 860.216 C 275.127 862.675, 282.100 866.944, 286.500 869.703 C 303.988 880.666, 316.493 887.407, 326.260 891.136 C 331.892 893.286, 339.875 896.458, 344 898.186 C 357.336 903.770, 388.871 910.997, 399.926 911.002 C 402.442 911.003, 413.213 912.141, 423.861 913.531 C 442.400 915.951, 453.334 918.044, 486.500 925.523 C 502.143 929.050, 519.075 930.972, 534.658 930.990 C 539.695 930.995, 549.292 931.710, 555.985 932.579 C 566.223 933.907, 570.402 933.976, 582.327 933.014 C 612.397 930.589, 627.387 930.085, 652 930.670 C 680.280 931.343, 681.685 931.162, 699.061 924.636 C 710.259 920.430, 736.954 904.457, 745.248 897 C 748.612 893.975, 754.621 889.250, 758.600 886.500 C 775.081 875.111, 798.648 839.542, 825.186 786 C 839.323 757.477, 842.987 749.389, 851.058 728.881 C 853.140 723.590, 856.399 716.165, 858.301 712.381 C 867.365 694.342, 878.493 662.868, 881.479 646.822 C 882.367 642.049, 884.204 634.174, 885.562 629.322 C 886.919 624.470, 889.117 615.550, 890.447 609.500 C 898.866 571.207, 901.207 561.009, 902.500 557 C 904.229 551.640, 909.176 528.620, 912.493 510.500 C 913.802 503.350, 916.001 493.225, 917.380 488 C 918.758 482.775, 920.405 474, 921.040 468.500 C 921.674 463, 922.328 458.275, 922.493 458 C 923.248 456.745, 927.010 427.096, 928.013 414.500 C 928.626 406.800, 929.999 396.153, 931.065 390.840 C 935.127 370.576, 936.135 355.465, 935.823 319.500 C 935.661 300.800, 936.134 265.942, 936.876 242.039 C 937.924 208.218, 937.961 197.016, 937.042 191.539 C 936.392 187.667, 935.248 178.200, 934.500 170.500 C 930.809 132.516, 917.425 69.841, 909.681 54.279 C 907.826 50.550, 905.451 45.041, 904.404 42.036 C 899.254 27.255, 881.670 16.313, 871.500 21.560 M 871.455 62.455 C 867.475 66.434, 868.929 71.361, 875.011 74.506 C 882.591 78.425, 886.703 75.011, 883.535 67.429 C 880.284 59.649, 876.017 57.892, 871.455 62.455 M 67.405 93.107 C 65.749 94.939, 65.500 96.823, 65.500 107.535 C 65.500 128.436, 71.683 131.219, 87.125 117.268 C 93.620 111.400, 91.125 105.469, 77.698 94.856 C 72.142 90.464, 70.107 90.118, 67.405 93.107 M 849 97 C 844.890 101.110, 847.402 105.239, 857.504 110.978 C 860.802 112.852, 869.685 118.574, 877.245 123.693 C 896.404 136.665, 899.817 136.237, 897.239 121.187 C 895.919 113.479, 894.298 111.520, 887.627 109.575 C 884.807 108.753, 880.331 106.702, 877.680 105.018 C 865.458 97.252, 852.399 93.601, 849 97 M 826.267 131.966 C 821.170 136.714, 822.936 141.715, 830.708 144.551 C 841.650 148.543, 887.219 180.399, 898.462 191.917 C 906.635 200.288, 908.717 198.192, 906.823 183.500 C 905.011 169.449, 906.136 170.566, 873.700 150.616 C 847.073 134.240, 830.725 127.812, 826.267 131.966 M 101.971 142.654 C 93.733 147.572, 83.276 152.815, 73.698 156.830 C 69.769 158.477, 67.469 164.115, 69.225 167.796 C 71.265 172.073, 75.133 171.894, 81.848 167.210 C 84.957 165.042, 93.505 159.993, 100.844 155.990 C 116.084 147.678, 120 144.739, 120 141.611 C 120 135.133, 113.986 135.481, 101.971 142.654 M 809.332 167.578 C 807.805 171.556, 816.920 179, 835.532 188.974 C 858.897 201.495, 868.243 203.474, 857.928 193.717 C 843.684 180.242, 811.181 162.759, 809.332 167.578 M 136.951 169.835 C 129.120 172.966, 106.876 185.593, 98 191.945 C 93.325 195.291, 85.210 200.893, 79.966 204.393 C 69.628 211.294, 68 213.501, 68 220.613 C 68 230.306, 71.440 231.234, 82.912 224.636 C 99.176 215.282, 125.054 202.575, 140.412 196.402 C 161.692 187.849, 163.101 186.103, 155.990 177.106 C 149.214 168.534, 144.607 166.775, 136.951 169.835 M 783.406 200.772 C 773.507 208.938, 773.469 216.264, 783.289 223.158 C 786.155 225.170, 791.365 229.310, 794.867 232.357 C 802.301 238.827, 822.825 251.955, 835 258.028 C 854.217 267.614, 868.723 276.541, 888.881 291.185 C 898.870 298.442, 903.017 299.705, 904.957 296.080 C 906.827 292.587, 907.984 280.508, 907.129 273.408 L 906.303 266.548 898.402 259.177 C 884.139 245.873, 875.051 239.810, 847.351 225.121 C 839.078 220.734, 828.094 215.721, 822.944 213.981 C 817.794 212.242, 808.973 208.159, 803.343 204.909 C 792.252 198.507, 787.377 197.496, 783.406 200.772 M 897.250 214.674 C 891.536 218.660, 899.765 228.337, 906.021 224.989 C 908.236 223.803, 908.755 218.279, 906.965 214.934 C 905.687 212.547, 900.499 212.408, 897.250 214.674 M 173.744 217.072 C 159.868 218.963, 120.160 236.444, 98 250.419 C 65.349 271.009, 65.546 270.826, 65.518 280.441 C 65.480 293.572, 68.132 293.737, 91.696 282.069 C 119.604 268.250, 123.658 266.758, 153 259.501 C 177.130 253.533, 201.681 245.410, 204.693 242.398 C 208.828 238.263, 207.263 234.518, 196.770 223.443 C 189.580 215.854, 187.304 215.224, 173.744 217.072 M 752.313 249.494 C 750.023 251.097, 742.355 263.736, 741.426 267.439 C 740.208 272.292, 744.585 275.198, 764.720 282.905 C 777.116 287.650, 785.169 291.352, 788.411 293.797 C 801.969 304.019, 844.242 332.991, 856.863 340.710 C 859.813 342.515, 866.338 347.316, 871.363 351.381 C 899.610 374.230, 904.691 375.044, 907.105 357.107 C 908.859 344.073, 904.844 337.272, 889.658 327.558 C 886.618 325.613, 881.513 321.859, 878.315 319.215 C 860.182 304.228, 847.518 295.973, 821.702 282.313 C 813.013 277.716, 799.254 269.959, 791.127 265.076 C 764.236 248.920, 757.177 246.086, 752.313 249.494 M 218.500 271.493 C 204.659 276.113, 175.999 284.629, 161.500 288.431 C 129.827 296.734, 115.739 302.579, 84.040 320.565 C 67.301 330.063, 62.315 337.104, 66.011 346.027 C 68.480 351.988, 69.957 351.691, 94.028 340.389 C 102.568 336.378, 118.768 329.750, 130.028 325.659 C 141.287 321.568, 153.346 317.064, 156.825 315.650 C 163.236 313.044, 194.361 303.424, 205.675 300.552 C 209.070 299.690, 217.543 298.126, 224.503 297.076 C 242.911 294.301, 244.723 291.575, 236.443 279.122 C 230.341 269.946, 227.172 268.599, 218.500 271.493 M 720.389 305.905 C 716.855 308.059, 714.846 310.715, 709.652 320.096 C 703.709 330.829, 704.958 334.507, 715.749 338.058 C 719.462 339.280, 726.325 341.985, 731 344.070 C 735.675 346.155, 746.816 350.587, 755.757 353.919 C 764.699 357.252, 774.599 361.270, 777.757 362.848 C 780.916 364.426, 786.553 366.692, 790.285 367.883 C 801.340 371.412, 813.030 377.327, 820.500 383.172 C 824.350 386.185, 833.800 392.407, 841.500 396.999 C 861.216 408.757, 864.291 410.919, 875 420.544 C 894.811 438.352, 899 438.214, 899 419.752 C 899 408.020, 897.340 406.110, 870.500 386.962 C 863.350 381.861, 854.300 375.080, 850.389 371.894 C 846.479 368.707, 835.679 361.150, 826.389 355.100 C 817.100 349.050, 806.203 341.779, 802.174 338.942 C 789.373 329.929, 774.033 321.218, 764.620 317.617 C 759.604 315.698, 749.552 311.849, 742.281 309.064 C 727.740 303.493, 724.993 303.097, 720.389 305.905 M 228.500 326.553 C 208.584 329.646, 180.813 337.753, 158.500 346.986 C 153 349.263, 143.197 353.096, 136.716 355.506 C 85.175 374.666, 63.737 389.233, 63.562 405.212 C 63.449 415.626, 68.208 416.866, 80.241 409.561 C 108.295 392.529, 151.746 376.061, 190 367.963 C 197.975 366.274, 213.950 362.640, 225.500 359.887 C 237.050 357.133, 253.700 353.339, 262.500 351.455 C 279.002 347.922, 282 346.468, 282 341.999 C 282 339.171, 273.566 328.467, 270.381 327.254 C 265.567 325.419, 238.693 324.970, 228.500 326.553 M 683.742 365.429 C 678.425 367.326, 667 377.563, 667 380.430 C 667 384.600, 678.836 390.310, 702.333 397.478 C 728.758 405.537, 749.655 415.825, 781.500 436.448 C 795.250 445.353, 810.360 454.983, 815.078 457.849 C 825.992 464.478, 848.019 482.750, 863.589 498.090 C 880.388 514.640, 881.698 514.444, 886.416 494.670 C 890.382 478.048, 890.322 477.726, 881.858 470.010 C 877.930 466.430, 869.942 458.771, 864.108 452.992 C 846.298 435.350, 831.330 424.711, 803.561 409.957 C 790.556 403.048, 754.036 387.208, 735.709 380.527 C 730.644 378.681, 721.325 375.069, 715 372.501 C 705.418 368.611, 690.351 363.876, 688.090 364.044 C 687.766 364.068, 685.809 364.691, 683.742 365.429 M 278.500 379.492 C 274.100 380.186, 259.025 383.320, 245 386.456 C 230.975 389.591, 213.200 393.442, 205.500 395.013 C 151.334 406.061, 112.524 422.143, 76.999 448.262 C 64.721 457.289, 63.532 459.236, 64.277 469.091 C 65.682 487.679, 68.086 514.263, 69.063 522 C 71.626 542.318, 82.856 580.300, 92.307 600.616 C 95.347 607.152, 99.249 616.100, 100.977 620.500 C 102.705 624.900, 105.979 631.875, 108.252 636 C 110.526 640.125, 114.686 648, 117.496 653.500 C 122.478 663.247, 137.036 686.396, 148.310 702.500 C 151.391 706.900, 156.069 713.620, 158.706 717.433 C 164.420 725.698, 177.543 739.107, 195.968 755.510 C 203.375 762.105, 213.277 771.100, 217.972 775.500 C 232.512 789.126, 255.516 807.395, 271.500 818.010 C 274.250 819.836, 279.270 823.481, 282.657 826.109 C 297.763 837.833, 336.530 861.026, 348.679 865.609 C 367.465 872.695, 390.702 877.736, 410.500 879.020 C 419.548 879.606, 426.799 880.652, 431 881.975 C 434.575 883.101, 445.062 884.917, 454.305 886.011 C 468.333 887.671, 473.303 888.739, 484.372 892.475 C 505.153 899.488, 512.002 900.815, 551.500 905.476 C 564.742 907.038, 574.519 906.702, 592.500 904.066 C 601.706 902.716, 631.813 902.716, 641.516 904.066 C 673.917 908.572, 711.695 894.292, 722.932 873.289 C 726.142 867.289, 727.491 865.890, 734.532 861.255 C 758.236 845.653, 789.985 795.540, 817.687 730 C 821.291 721.475, 825.706 711.575, 827.499 708 C 836.473 690.108, 846.811 661.925, 850.455 645.421 C 851.902 638.865, 854.236 629.450, 855.640 624.500 C 857.044 619.550, 858.992 611, 859.968 605.500 C 860.945 600, 862.653 591.900, 863.764 587.500 C 870.102 562.401, 871.308 555.972, 870.154 553.439 C 868.707 550.264, 829.606 511.900, 817 501.288 C 806.294 492.275, 771.381 469.025, 763 465.327 C 759.975 463.992, 755.925 461.392, 754 459.549 C 742.871 448.895, 720.195 438.003, 679.789 423.902 C 628.617 406.045, 622.807 404.872, 584 404.568 C 560.592 404.385, 554.517 404.044, 550 402.662 C 546.975 401.736, 538.650 400.093, 531.500 399.011 C 524.350 397.930, 515.096 396.383, 510.936 395.575 C 500.109 393.471, 454.185 393.118, 427.201 394.932 C 400.992 396.693, 386.484 395.714, 368.500 390.969 C 361.900 389.228, 352.450 386.796, 347.500 385.564 C 342.550 384.332, 335.049 382.126, 330.832 380.662 C 322.008 377.599, 294.409 376.981, 278.500 379.492 M 187.053 411.947 C 185.982 413.018, 184.633 415.831, 184.056 418.197 C 183.479 420.564, 181.881 426.573, 180.504 431.551 C 176.266 446.869, 179.442 455.766, 190.061 458.326 C 201.917 461.184, 206.178 451.274, 202.454 429.500 C 199.440 411.874, 193.685 405.315, 187.053 411.947 M 498.500 416.526 C 488.536 419.989, 486.155 426.708, 488.259 445.432 C 490.219 462.874, 493.603 467.987, 503.194 467.996 C 511.441 468.005, 514.782 460.726, 515.586 441 C 516.407 420.851, 510.480 412.361, 498.500 416.526 M 601.316 416.943 C 590.493 421.857, 591.919 437.647, 603.164 437.408 C 616.461 437.125, 623.602 421.983, 613.020 416.510 C 609.190 414.530, 606.406 414.633, 601.316 416.943 M 392 422.643 C 386.956 423.732, 380.123 423.917, 361.500 423.468 C 342.598 423.011, 334.845 423.230, 325 424.497 C 318.125 425.382, 308.675 426.498, 304 426.978 C 299.325 427.458, 292.125 428.389, 288 429.047 C 282.941 429.854, 275.411 430.018, 264.865 429.549 L 249.230 428.855 243.217 431.891 C 228.367 439.387, 229.491 450.643, 245.742 457.159 C 255.010 460.875, 288.767 460.605, 304.855 456.685 C 322.796 452.314, 333.732 451.467, 357.140 452.638 C 386.709 454.117, 384.910 452.473, 389.066 481.798 C 390.678 493.169, 392.665 504.505, 393.481 506.987 C 394.298 509.469, 395.214 514.875, 395.517 519 C 396.079 526.644, 397.300 533.343, 401.529 552 C 402.838 557.775, 404.360 566.550, 404.911 571.500 C 406.519 585.942, 416.508 648.989, 418.025 654.277 C 420.129 661.610, 427.911 668.005, 434.718 667.996 C 441.910 667.987, 448.291 659.702, 451.992 645.567 C 457.101 626.056, 460.399 626.049, 466.053 645.536 C 471.554 664.493, 477.072 671.577, 487.225 672.722 C 494.195 673.507, 497.350 670.054, 505.002 653.266 C 515.953 629.238, 518.388 629.193, 527.457 652.847 C 536.398 676.169, 548.587 701.430, 553.549 706.922 C 563.920 718.402, 576.356 715.823, 580.246 701.387 C 583.496 689.327, 582.816 646.608, 579.047 626 C 572.923 592.518, 567.574 498.624, 571.289 489.816 C 574.851 481.371, 597.187 476.733, 635 476.587 C 663.128 476.478, 667.586 474.593, 668.729 462.324 C 669.674 452.178, 663.796 448.179, 651.417 450.547 C 645.968 451.590, 639.958 451.805, 628.751 451.358 C 615.064 450.811, 612.064 451.013, 599.500 453.321 C 591.800 454.735, 581.225 456.417, 576 457.057 C 565.484 458.347, 551.262 462.127, 547.398 464.659 C 541.940 468.235, 541.976 467.855, 542.091 521.215 C 542.219 580.520, 541.861 582.583, 533.892 568.463 C 528.301 558.556, 523.652 556.506, 513.484 559.462 C 503.713 562.302, 501.350 565.993, 496.926 585.320 C 492.388 605.145, 486.038 605.207, 483.999 585.445 C 481.299 559.270, 475.165 548.427, 463.500 549.209 C 451.592 550.007, 448.349 553.273, 446.046 566.790 C 444.337 576.820, 439.438 582.643, 436.097 578.617 C 434.123 576.239, 429.071 543.290, 427.952 525.500 C 427.364 516.150, 426.237 506.475, 425.448 504 C 422.405 494.455, 416.722 458.058, 415.423 439.795 C 414.195 422.533, 409.254 418.915, 392 422.643 M 541.367 427.918 C 534.671 432.001, 533.216 437.726, 537.560 442.889 C 544.054 450.607, 558.980 446.016, 558.996 436.297 C 559.011 427.844, 549.163 423.164, 541.367 427.918 M 447.001 429.123 C 437.847 432.773, 435.342 441.266, 438.099 459.308 C 440.783 476.883, 451.941 482.278, 460.475 470.130 C 464.572 464.298, 465.051 443.906, 461.283 435.716 C 458.308 429.249, 452.921 426.763, 447.001 429.123 M 157.170 429.729 C 155.888 429.966, 153.095 431.905, 150.961 434.039 C 137.007 447.993, 141.546 469.992, 158.432 470.248 C 169.954 470.422, 173.105 461.164, 169.023 439.129 C 167.791 432.481, 162.967 428.655, 157.170 429.729 M 695.458 455.880 C 685.313 460.488, 684.179 474.010, 693.563 478.463 C 703.383 483.123, 715.172 475.073, 714.011 464.500 C 713.079 456.016, 704.220 451.900, 695.458 455.880 M 745 467.172 C 734.726 470.082, 731.118 482.015, 738.707 487.984 C 745.853 493.605, 760 486.682, 760 477.564 C 760 468.532, 754.254 464.551, 745 467.172 M 106.625 477.250 C 100.065 483.187, 96.061 502.475, 99.109 513.453 C 101.516 522.124, 111.427 527.789, 118.400 524.480 C 125.828 520.956, 126.504 515.446, 122.003 495.105 C 118.831 480.769, 117.342 477.461, 113.383 475.955 C 109.879 474.623, 109.433 474.709, 106.625 477.250 M 343.898 484.270 C 328.621 494.475, 343.835 534, 363.040 534 C 369.942 534, 372.534 531.597, 372.384 525.337 C 372.243 519.486, 366.572 494.007, 364.532 490.062 C 360.439 482.146, 351.030 479.505, 343.898 484.270 M 227.325 485.463 C 208.164 489.144, 166.392 504.662, 158.022 511.208 C 150.282 517.262, 150.045 524.068, 157.306 531.740 C 162.808 537.552, 174.441 536.071, 197.738 526.592 C 203.657 524.184, 214.350 520.260, 221.500 517.872 L 234.500 513.530 250.500 513.515 L 266.500 513.500 275 517.620 C 279.675 519.887, 286.650 524.106, 290.500 526.998 C 304.216 537.297, 312.414 538.631, 319.752 531.758 C 332.540 519.778, 310.079 495.630, 278.500 487.407 C 266.082 484.174, 239.329 483.157, 227.325 485.463 M 441 493.446 C 436.932 495.668, 431 504.831, 431 508.893 C 431 511.496, 441.265 522.558, 444.775 523.738 C 451.147 525.880, 457 520.453, 457 512.401 C 457 497.009, 449.892 488.588, 441 493.446 M 499.153 496.067 C 489.301 500.014, 486.050 508.070, 489.551 519.860 C 492.559 529.988, 500.260 534.502, 507.842 530.582 C 523.817 522.321, 515.554 489.496, 499.153 496.067 M 775.352 496.082 C 766.947 498.544, 763.379 508.533, 768.923 514.077 C 778.128 523.282, 796.111 508.573, 787.250 499.088 C 784.149 495.769, 780 494.721, 775.352 496.082 M 682.500 502.173 C 670.792 503.608, 652.807 509.476, 628.744 519.711 C 617.943 524.306, 614.971 532.859, 621.289 541.172 C 628.243 550.323, 636.750 549.995, 662.321 539.593 C 697.656 525.218, 715.872 527.764, 759.164 553.132 C 774.838 562.316, 779.257 563.518, 784.723 560.086 C 791.266 555.978, 790.274 551.402, 780.186 539.167 C 760.488 515.275, 715.280 498.155, 682.500 502.173 M 229.123 537.092 C 204.551 544.594, 208.406 592, 233.588 592 C 242.093 592, 255.874 581.928, 261.104 571.889 C 270.833 553.217, 250.121 530.681, 229.123 537.092 M 690.799 553.271 C 678.543 557.341, 674.085 572.036, 680.771 586.325 C 692.036 610.398, 717.941 614.347, 728.698 593.630 C 737.960 575.791, 710.629 546.685, 690.799 553.271 M 822 555.704 C 819.890 556.472, 815.003 561.161, 814.984 562.437 C 814.975 563.022, 812.914 568.225, 810.403 574 C 804.835 586.811, 804.838 590.631, 810.424 595.749 C 824.097 608.281, 841.735 584.834, 836.514 561.065 C 835.467 556.298, 827.974 553.530, 822 555.704 M 144.502 564.521 C 135.269 569.503, 133.332 575.941, 136.516 591.074 C 140.689 610.916, 154.672 624.737, 161.401 615.673 C 163.974 612.208, 164.063 576.479, 161.514 570.378 C 158.968 564.286, 150.403 561.337, 144.502 564.521 M 341.578 587.474 C 331.115 591.232, 328.649 599.690, 333.438 615.391 C 338.550 632.150, 350.112 638.667, 359.990 630.355 C 364.234 626.784, 364.642 622.723, 362.017 610.175 C 357.513 588.647, 352.820 583.435, 341.578 587.474 M 620.367 593.918 C 614.020 597.788, 605.818 618.890, 608.042 625.627 C 611.006 634.608, 624.913 634.558, 632.833 625.538 C 640.511 616.793, 642.651 599.544, 636.694 594.416 C 633.083 591.306, 625.051 591.062, 620.367 593.918 M 278.450 597.373 C 268.436 601.845, 266.630 611.580, 272.851 627.543 C 278.969 643.239, 285.254 649.838, 294.979 650.772 C 306.676 651.896, 309.327 640.097, 301.780 620.500 C 299.873 615.550, 297.528 609.355, 296.567 606.733 C 293.619 598.682, 285.227 594.347, 278.450 597.373 M 752.352 617.092 C 745.078 619.200, 734.633 641.899, 736.459 651.631 C 738.909 664.692, 752.569 666.791, 758.526 655.022 C 759.495 653.110, 762.216 648.610, 764.574 645.022 C 775.844 627.878, 769.012 612.266, 752.352 617.092 M 209.013 623.275 C 199.044 628.546, 198.767 638.479, 208.051 657.704 C 219.477 681.365, 237.068 686.288, 236.976 665.800 C 236.951 660.030, 230.245 632.308, 227.671 627.331 C 224.610 621.412, 216.053 619.552, 209.013 623.275 M 677.388 635.433 C 673.191 637.260, 670.172 640.597, 667.831 646 C 666.758 648.475, 664.067 653.293, 661.851 656.707 C 648.455 677.341, 670.481 688.718, 687.398 669.902 C 703.857 651.596, 696.720 627.018, 677.388 635.433 M 797.218 639.663 C 792.500 641.989, 790.247 645.734, 787.904 655.147 C 786.768 659.709, 784.751 666.029, 783.420 669.191 C 777.394 683.506, 786.553 694.267, 799.450 688.024 C 809.208 683.300, 818.523 652.320, 813.184 642.345 C 810.972 638.211, 802.911 636.857, 797.218 639.663 M 150.267 650.213 C 144.710 652.894, 141.937 663.061, 144.951 669.700 C 159.115 700.900, 184.177 703.822, 174.485 673.142 C 169.386 657.001, 158.183 646.393, 150.267 650.213 M 361.990 676.250 C 353.297 682.166, 352.576 687.581, 358.497 702.474 C 369.598 730.397, 391.663 726.692, 387.029 697.683 C 383.875 677.937, 373.083 668.700, 361.990 676.250 M 300.411 680.891 C 291.769 686.161, 290.957 692.190, 297.011 706.147 C 303.572 721.275, 310.332 725.983, 319.033 721.483 C 325.056 718.368, 326.765 705.068, 322.964 690.884 C 320.459 681.537, 308.234 676.121, 300.411 680.891 M 722.841 688.524 C 719.559 690.307, 716.783 694.798, 714.511 702 C 713.557 705.025, 711.034 710.220, 708.904 713.545 C 696.598 732.756, 713.939 743.548, 731.600 727.670 C 750.656 710.537, 743.250 677.439, 722.841 688.524 M 636.226 694.604 C 626.109 699.762, 619.925 716.192, 625.573 722.904 C 635.916 735.197, 657.056 721.363, 654.705 703.839 C 653.562 695.314, 644.103 690.587, 636.226 694.604 M 432.655 698.437 C 414.349 705.068, 418.792 740.076, 437.494 736.567 C 445.080 735.144, 449.356 727.424, 449.438 715 C 449.528 701.548, 442.691 694.801, 432.655 698.437 M 483.984 706.852 C 476.239 710.968, 474.282 718.140, 478.003 728.775 C 486.033 751.720, 508.650 747.388, 504.876 723.628 C 502.429 708.218, 494.060 701.498, 483.984 706.852 M 233.190 710.353 C 227.510 713.504, 225.501 721.038, 228.598 727.566 C 232.063 734.868, 255.099 757.047, 259.193 757.022 C 266.358 756.979, 267.300 753.010, 263.509 738.822 C 257.373 715.854, 244.707 703.962, 233.190 710.353 M 762.838 726.526 C 761.146 727.445, 759.539 729.707, 758.426 732.736 C 754.792 742.629, 753.778 744.697, 748.954 752.058 C 742.834 761.395, 742.569 764.468, 747.423 769.765 C 758.373 781.713, 776.557 764.141, 780.508 737.795 C 782.005 727.812, 772.101 721.495, 762.838 726.526 M 539.741 733.453 C 532.392 736.029, 528.446 742.554, 529.620 750.192 C 531.721 763.875, 542.201 770.152, 550.614 762.766 C 563.696 751.280, 555.087 728.074, 539.741 733.453 M 601.942 748.948 C 593.299 751.571, 589.716 758.683, 593.425 765.855 C 597.413 773.567, 611.652 772.367, 616.173 763.938 C 621.197 754.571, 612.746 745.670, 601.942 748.948 M 385.990 754.250 C 377.324 760.148, 376.681 765.617, 382.903 780.500 C 390.464 798.588, 396.463 805, 405.824 805 C 416.761 805, 419.542 792.117, 412.731 773 C 406.241 754.784, 395.880 747.519, 385.990 754.250 M 678.328 754.406 C 676.584 755.193, 673.209 758.313, 670.828 761.338 C 668.448 764.363, 663.021 769.577, 658.770 772.924 C 644.926 783.824, 642.855 794.381, 653.563 799.463 C 668.698 806.645, 702.024 775.960, 695.652 760.709 C 693.012 754.391, 684.899 751.439, 678.328 754.406 M 322.641 759.898 C 314.034 765.573, 314.022 770.941, 322.582 787.651 C 329.988 802.109, 331.809 804.483, 337.500 807.110 C 356.923 816.074, 361.487 788.100, 344.330 765.241 C 339.312 758.554, 328.660 755.930, 322.641 759.898 M 494.450 771.407 C 483.027 776.382, 483.451 796.128, 495.221 807.263 C 505.350 816.847, 511.881 814.607, 514.175 800.762 C 517.432 781.110, 507.185 765.860, 494.450 771.407 M 450.684 780.437 C 439.748 784.370, 437.627 792.147, 443.903 805.296 C 454.336 827.156, 474.263 819.557, 470.043 795.328 C 467.802 782.454, 460.561 776.885, 450.684 780.437 M 286.388 782.980 C 280.954 785.176, 278.448 792.340, 281.561 796.783 C 287.956 805.914, 302.916 802.344, 302.978 791.673 C 303.022 784.138, 294.533 779.689, 286.388 782.980 M 620.411 798.891 C 607.915 806.511, 609.082 821.516, 622.338 823.667 C 637.940 826.199, 650.112 806.527, 637.647 798.926 C 633.419 796.349, 624.610 796.330, 620.411 798.891 M 715.441 804.833 C 713.208 805.877, 708.933 809.539, 705.941 812.971 C 702.948 816.402, 698.138 821.859, 695.250 825.096 C 687.111 834.221, 689.508 843.504, 700.538 845.573 C 710.917 847.520, 737.167 819.771, 734.605 809.561 C 733.282 804.291, 722.361 801.596, 715.441 804.833 M 551.641 807.898 C 542.924 813.645, 542.724 823.619, 551.165 831.689 C 563.572 843.551, 575.835 831.867, 569.694 814.035 C 567.289 807.052, 557.811 803.830, 551.641 807.898 M 340.299 824.503 C 331.734 830.502, 339.606 852, 350.367 852 C 359.529 852, 363.538 840.801, 358.146 830.271 C 354.739 823.616, 345.724 820.703, 340.299 824.503 M 392.001 832.077 C 381.967 836.265, 381.771 845.925, 391.536 854.926 C 399.082 861.882, 405.650 861.306, 409.156 853.381 C 414.395 841.536, 403.061 827.460, 392.001 832.077 M 506.462 837.088 C 491.348 841.361, 496.074 865.283, 513.468 872.551 C 524.040 876.969, 529.190 869.055, 525.511 854.044 C 522.293 840.912, 515.217 834.614, 506.462 837.088 M 454.020 840.752 C 444.057 845.757, 443.877 858.486, 453.608 869.856 C 467.401 885.969, 481.265 872.859, 473.519 851.028 C 470.001 841.114, 461.849 836.818, 454.020 840.752 M 642.296 850.399 C 626.345 855.570, 615.137 871.531, 621.983 879.327 C 630.116 888.591, 638.873 886.714, 648.427 873.662 C 649.972 871.551, 653.607 868.308, 656.505 866.454 C 663.652 861.882, 665 860.362, 665 856.872 C 665 851.480, 651.146 847.530, 642.296 850.399 M 563.337 861.572 C 556.304 868.606, 565.169 884.658, 574.054 880.978 C 579.312 878.800, 580.043 874.487, 576.397 867.169 C 572.469 859.287, 567.676 857.233, 563.337 861.572"/>
    </g>
  </g>
</svg>
