<svg viewBox="0 0 74 74" width="74mm" height="74mm" xmlns="http://www.w3.org/2000/svg">
  <g transform="scale(0.074000)" fill-rule="evenodd">
    <g id="forma" fill="#CB3747">
      <path d="M 292.481 59.394 C 285.352 62.500, 282.459 67.872, 278.960 84.500 C 277.648 90.733, 275.136 98.212, 272.292 104.355 C 267.752 114.156, 267.732 114.248, 268.559 121.355 C 270.253 135.925, 269.667 141.741, 265.653 150.184 C 261.685 158.531, 260.940 165.689, 263.075 174.954 C 264.893 182.842, 262.914 187.911, 254.897 195.896 C 246.034 204.724, 245.690 207.366, 252.021 218 C 258.986 229.700, 259.594 234.791, 255.565 247.698 C 251.893 259.461, 251.702 261.713, 253.634 270.500 C 257.528 288.210, 253.248 339.986, 247.307 347.048 C 232.357 364.814, 213.922 349.592, 190.326 300 C 188.102 295.325, 183.044 287.128, 179.088 281.784 C 175.131 276.441, 168.606 266.316, 164.588 259.284 C 160.569 252.253, 155.225 242.900, 152.712 238.500 C 150.198 234.100, 146.579 226, 144.668 220.500 C 139.853 206.641, 138.066 202.727, 128.382 184.843 C 123.720 176.231, 117.739 164.245, 115.091 158.207 C 103.397 131.542, 86.455 127.582, 82.817 150.664 C 79.698 170.452, 84.290 257.776, 90.434 295.500 C 91.240 300.450, 92.177 308.100, 92.517 312.500 C 95.360 349.346, 106.840 427.626, 112.974 452 C 114.012 456.125, 115.813 464.900, 116.976 471.500 C 126.124 523.414, 151.867 593.032, 177.803 636 C 181.953 642.875, 189.761 656.080, 195.155 665.344 C 219.144 706.548, 258.999 749.959, 294.487 773.539 C 342.161 805.216, 418.977 836.831, 464.460 843.493 C 480.438 845.834, 550.496 846.556, 567.352 844.553 C 574.033 843.760, 587.825 842.606, 598 841.990 C 636.094 839.682, 641.377 838.104, 680.500 817.348 C 739.869 785.849, 787.695 733.269, 811.123 673.738 C 813.339 668.107, 817.739 658.550, 820.901 652.500 C 829.380 636.275, 832.875 626.292, 842.541 590.685 C 844.455 583.637, 848.097 572.837, 850.635 566.685 C 860.052 543.859, 870.736 510.314, 872.988 496.500 C 874.154 489.350, 876.218 479.225, 877.576 474 C 878.933 468.775, 881.169 457.525, 882.545 449 C 883.920 440.475, 886.365 426.750, 887.977 418.500 C 895.303 381.017, 894.219 165.927, 886.631 151.253 C 878.010 134.581, 860.800 140.671, 848 164.922 C 843.792 172.895, 840.826 177.005, 835.371 182.421 C 827.206 190.529, 825.589 193.282, 823.448 202.710 C 820.562 215.423, 801.478 250.796, 791.643 261.663 C 786.003 267.896, 784.368 271.558, 783.439 280.043 C 782.194 291.410, 777.937 300.567, 767.576 314.167 C 763.773 319.159, 760.760 324.714, 757.924 331.962 C 753.585 343.055, 746.352 356.804, 733.342 378.695 C 729.029 385.952, 722.125 398.260, 718 406.045 C 706.485 427.780, 701.809 433, 693.855 433 C 685.050 433, 680.770 425.898, 674.448 400.793 C 672.483 392.990, 668.032 377.807, 664.557 367.053 C 661.082 356.299, 657.903 345.925, 657.492 344 C 657.082 342.075, 654.818 335.325, 652.463 329 C 650.107 322.675, 647.196 312.775, 645.993 307 C 644.790 301.225, 642.520 292, 640.947 286.500 C 639.374 281, 636.739 270.875, 635.090 264 C 633.441 257.125, 630.261 246.100, 628.024 239.500 C 625.787 232.900, 622.611 220.975, 620.966 213 C 617.339 195.410, 610.708 170.892, 603.903 149.913 C 600.701 140.038, 598.155 129.777, 596.958 121.913 C 592.225 90.835, 588.562 80.410, 580.998 76.499 C 568.864 70.224, 557.712 82.518, 541.992 119.500 C 533.213 140.154, 515.071 187.960, 512.001 198.528 C 510.248 204.563, 506.221 216.250, 503.051 224.500 C 499.882 232.750, 496.967 240.850, 496.574 242.500 C 496.181 244.150, 493.655 251.125, 490.961 258 C 487.931 265.734, 483.202 281.749, 478.562 300 C 461.259 368.047, 456.933 380.398, 448.953 384.524 C 438.095 390.139, 427.613 379.039, 418.560 352.338 C 411.521 331.574, 404.437 314.408, 400.028 307.427 C 397.764 303.841, 394.626 296.975, 393.055 292.168 C 391.484 287.361, 388.821 280.069, 387.138 275.964 C 376.200 249.293, 370.846 231.797, 367.955 213.271 C 367.057 207.519, 365.975 204.784, 362.663 199.888 C 355.057 188.646, 353.101 184.575, 351.057 175.742 C 349.943 170.924, 346.145 159.899, 342.619 151.242 C 336.070 135.164, 334.897 131.430, 330.584 112.913 C 328.294 103.085, 320.661 82.224, 315.843 72.626 C 309.758 60.504, 301.138 55.622, 292.481 59.394"/>
    </g>
    <g id="detalles" fill="#1A1A1A">
      <path d="M 294.500 68.996 C 284.889 70.321, 281 73.923, 281 81.500 C 281 96.635, 299.846 99.885, 307.377 86.048 C 313.349 75.075, 307.414 67.216, 294.500 68.996 M 558.888 76.500 C 555.439 78.374, 553.954 82.245, 553.741 89.916 C 553.266 107.050, 576.165 108.946, 583.935 92.416 C 589.486 80.606, 571.897 69.429, 558.888 76.500 M 264.584 103.933 C 258.660 108.641, 257 111.334, 257 116.233 C 257 123.145, 260.244 125.473, 277 130.581 C 282.775 132.342, 289.975 134.764, 293 135.964 C 296.025 137.164, 300.902 139.002, 303.837 140.049 C 306.773 141.096, 312.710 143.754, 317.031 145.955 C 332.493 153.834, 343.577 151.282, 345.355 139.436 C 346.450 132.135, 330.129 121.202, 302.871 110.978 C 298.267 109.252, 292.748 107.178, 290.606 106.370 C 286.627 104.869, 271.397 101.020, 269.388 101.007 C 268.776 101.003, 266.614 102.320, 264.584 103.933 M 539.959 117.764 C 522.020 124.623, 526.989 136.711, 548.500 138.540 C 559.276 139.457, 565.148 141.066, 575.849 146.038 C 593.931 154.440, 608.655 148.804, 604.737 134.982 C 601.504 123.579, 556.226 111.543, 539.959 117.764 M 88.812 142.036 C 83.412 144.888, 82 147.479, 82 154.535 C 82 170.512, 102.512 172.405, 109.174 157.043 C 114.685 144.333, 102.069 135.034, 88.812 142.036 M 866 146.819 C 852.360 148.763, 854.266 171.418, 868.245 173.514 C 876.178 174.704, 887 169.070, 887 163.751 C 887 162.853, 887.450 161.840, 888 161.500 C 890.830 159.751, 887.228 151.588, 882.426 148.868 C 879.522 147.224, 870.797 146.135, 866 146.819 M 258.278 149.734 C 253.665 153.401, 251 158.203, 251 162.848 C 251 171.286, 261.461 177.839, 297 191.665 C 318.450 200.010, 322.909 201.936, 338.581 209.625 C 361.068 220.659, 375.208 219.208, 376.729 205.709 C 377.516 198.733, 372.582 194.450, 357.500 189.013 C 354.200 187.823, 349.025 185.546, 346 183.952 C 342.975 182.358, 338.250 180.089, 335.500 178.909 C 332.750 177.729, 327.800 175.517, 324.500 173.993 C 321.200 172.470, 316.475 170.532, 314 169.688 C 306.301 167.062, 289.985 160.094, 278.483 154.518 C 265.396 148.175, 261.423 147.234, 258.278 149.734 M 529.250 159.884 C 524.656 164.083, 524.095 166.350, 526.499 170.998 C 530.202 178.158, 540.201 182.148, 566.655 187.021 C 575.920 188.728, 584.882 190.546, 586.571 191.062 C 599.393 194.978, 613 188.766, 613 178.995 C 613 171.193, 606.626 167.956, 588.500 166.554 C 577.638 165.714, 561.952 162.040, 554.335 158.553 C 544.953 154.258, 534.817 154.796, 529.250 159.884 M 102.500 181.180 C 101.400 181.795, 98.164 184.482, 95.310 187.149 C 92.455 189.817, 89.723 192, 89.237 192 C 87.137 192, 83.063 200.035, 83.963 202.402 C 88.931 215.470, 121.739 207.824, 123.708 193.138 C 125.060 183.062, 112.148 175.782, 102.500 181.180 M 822 180.997 C 822 181.586, 820.409 183.006, 818.463 184.154 C 810.665 188.755, 811.390 194.864, 820.297 199.605 C 827.185 203.272, 846.925 212.880, 855 216.496 C 864.026 220.539, 871.275 224.551, 877 228.672 C 883.904 233.641, 896.226 230.050, 898.944 222.276 C 900.458 217.947, 900.530 218.277, 896.444 210.850 C 894.884 208.014, 886.964 202.485, 881.704 200.561 C 879.942 199.916, 875.575 197.988, 872 196.276 C 857.903 189.527, 842.540 183, 840.752 183 C 839.716 183, 837.972 182.520, 836.876 181.934 C 834.028 180.410, 822 179.652, 822 180.997 M 244 191.704 C 241.098 192.760, 237 197.399, 237 199.628 C 237 200.868, 236.550 202.160, 236 202.500 C 232.976 204.369, 236.916 214.350, 242.241 218.306 C 251.438 225.139, 288.428 243.503, 301 247.478 C 306.867 249.333, 313.743 251.825, 317.500 253.457 C 319.150 254.174, 322.975 255.765, 326 256.993 C 329.025 258.220, 333.525 260.099, 336 261.167 C 338.475 262.235, 341.400 263.472, 342.500 263.916 C 343.600 264.360, 346.203 265.460, 348.284 266.361 C 350.365 267.263, 352.863 268, 353.834 268 C 354.805 268, 356.027 268.374, 356.550 268.831 C 360.715 272.476, 380.295 273.217, 385.612 269.931 C 396.269 263.344, 386.581 246.067, 372.196 246.006 C 369.169 245.993, 337.623 234.925, 326.500 229.974 C 323.750 228.749, 317.225 226.187, 312 224.280 C 306.775 222.373, 300.355 220.027, 297.734 219.065 C 295.112 218.104, 291.904 216.319, 290.604 215.098 C 287.988 212.640, 284.881 210.767, 274.500 205.388 C 270.650 203.393, 264.666 199.789, 261.202 197.380 C 257.738 194.971, 254.277 193, 253.511 193 C 252.745 193, 251.840 192.550, 251.500 192 C 250.850 190.948, 246.545 190.778, 244 191.704 M 511.550 203.920 C 511.155 204.558, 509.128 206.157, 507.046 207.471 C 494.248 215.550, 510.002 229.542, 537.500 234.518 C 542.450 235.413, 548.750 236.555, 551.500 237.054 C 554.250 237.554, 565.275 238.188, 576 238.465 C 586.725 238.741, 600 239.592, 605.500 240.356 C 624.563 243.005, 631.871 239.651, 631.959 228.214 L 632 222.929 627.250 220.831 C 618.441 216.940, 603.435 215.061, 580.909 215.029 C 565.606 215.008, 559.057 214.618, 555.409 213.511 C 552.709 212.692, 548.917 212.017, 546.981 212.011 C 544.841 212.004, 540.335 210.392, 535.481 207.896 C 526.927 203.497, 513.218 201.220, 511.550 203.920 M 132 221.727 C 131.175 222.040, 127.350 223.754, 123.500 225.536 C 119.650 227.319, 112.675 230.373, 108 232.323 C 93.857 238.223, 87.641 241.949, 82.791 247.435 C 79.027 251.693, 79.310 253.195, 84.664 257.366 C 92.542 263.504, 103.122 262.393, 122.823 253.358 C 126.851 251.511, 130.479 250, 130.886 250 C 131.293 250, 133.958 248.875, 136.808 247.500 C 139.658 246.125, 142.465 245, 143.045 245 C 147.521 245, 155 236.844, 155 231.964 C 155 225.175, 140.235 218.603, 132 221.727 M 816.152 231.750 C 814.808 232.988, 812.964 234, 812.054 234 C 807.614 234, 806.685 239.957, 810.250 245.571 C 812.666 249.375, 822.115 255.498, 830.938 258.976 C 846.553 265.130, 872 284.078, 872 289.550 C 872 294.442, 890.373 297.255, 895.349 293.126 C 899.822 289.413, 896.775 273.721, 890.876 270.090 C 889.433 269.202, 885.608 265.891, 882.376 262.733 C 868.919 249.582, 864.182 246.093, 851.530 240.014 C 844.644 236.706, 838.774 234, 838.486 234 C 838.197 234, 836.165 232.867, 833.972 231.482 C 828.704 228.157, 819.913 228.289, 816.152 231.750 M 249.772 247.714 C 245.898 248.303, 243.215 252.626, 242.653 259.187 C 241.950 267.386, 246.950 274.258, 257.224 279.214 C 261.226 281.144, 268.678 285.260, 273.785 288.362 C 278.892 291.463, 283.511 294, 284.049 294 C 284.587 294, 285.809 294.418, 286.764 294.928 C 293.386 298.468, 308.656 305.131, 314.500 307.032 C 318.350 308.284, 323.698 310.139, 326.383 311.154 C 329.069 312.169, 331.888 313, 332.647 313 C 333.406 313, 334.809 313.452, 335.764 314.005 C 338.630 315.663, 360.767 321.999, 363.739 322.012 C 365.257 322.018, 368.975 322.717, 372 323.565 C 397.618 330.744, 414 327.645, 414 315.619 C 414 307.444, 407.612 302.175, 396.180 300.921 C 379.243 299.064, 359.148 294.919, 345.500 290.468 C 343.300 289.751, 336.328 287.506, 330.006 285.479 C 323.684 283.453, 313.440 279.366, 307.241 276.397 C 301.043 273.429, 295.683 271, 295.330 271 C 294.977 271, 293.214 269.875, 291.411 268.500 C 289.608 267.125, 287.930 266, 287.681 266 C 287.432 266, 284.532 264.200, 281.238 262 C 277.943 259.800, 274.810 258, 274.274 258 C 273.738 258, 271.480 256.682, 269.256 255.071 C 264.209 251.414, 255.489 246.951, 253.783 247.150 C 253.077 247.232, 251.273 247.486, 249.772 247.714 M 482.132 261.784 C 458.403 284.062, 532.037 300.152, 610.740 289.888 C 638.955 286.208, 645.529 282.802, 644.244 272.528 L 643.500 266.582 637.500 264.722 C 629.612 262.276, 622.386 262.339, 612 264.944 C 583.524 272.086, 536.399 270.384, 506.910 261.148 C 490.526 256.016, 488.212 256.075, 482.132 261.784 M 780.526 259.320 C 779.633 260.683, 777.618 262.330, 776.047 262.980 C 766.419 266.969, 776.148 278.485, 801.816 293.484 C 826.287 307.783, 848.867 326.056, 857.702 338.708 C 865.496 349.870, 869 355.184, 869 355.843 C 869 357.340, 875.324 364.116, 878.024 365.512 C 882.836 368.001, 892.786 366.431, 896.351 362.620 C 907.226 350.995, 875.815 309.652, 837.501 285.163 C 833.650 282.701, 826.675 278.242, 822 275.252 C 817.325 272.263, 811.025 268.135, 808 266.081 C 797.725 259.100, 792.411 256.672, 789.314 257.540 C 786.191 258.415, 786.184 258.415, 783.824 257.496 C 782.689 257.053, 781.626 257.642, 780.526 259.320 M 154.636 276.441 C 153.060 277.298, 151.409 278, 150.967 278 C 150.524 278, 143.713 281.081, 135.831 284.847 C 127.949 288.613, 119.250 292.513, 116.500 293.513 C 101.596 298.934, 86.138 312.086, 84.409 320.816 C 82.407 330.925, 99.379 333.933, 110.520 325.443 C 116.409 320.954, 139.498 309, 142.277 309 C 143.061 309, 145.682 307.962, 148.101 306.694 C 150.520 305.426, 156.325 302.863, 161 300.999 C 175.350 295.278, 180.742 289.619, 178.045 283.108 C 175.403 276.729, 161.422 272.747, 154.636 276.441 M 631 302.545 C 614.067 309.813, 606.135 311.774, 585 313.919 C 573.725 315.064, 558.875 316.950, 552 318.110 C 532.598 321.385, 503.528 319.783, 494.764 314.956 C 493.809 314.430, 491.923 314, 490.573 314 C 489.223 314, 487.880 313.614, 487.588 313.143 C 486.577 311.506, 476.176 311.066, 473.231 312.535 C 457.704 320.281, 465.079 333.890, 488.500 340.711 C 495.951 342.881, 546.785 343.308, 558.500 341.300 C 570.290 339.278, 588.030 336.841, 597.500 335.942 C 618.074 333.988, 646.393 325.555, 651.650 319.815 C 661.933 308.589, 646.666 295.820, 631 302.545 M 764.590 308.732 C 760.627 309.320, 757.427 311.574, 755.018 315.472 C 749.455 324.472, 755.195 330.857, 780.136 343.407 C 796.086 351.434, 816.020 369.097, 829.895 387.500 C 831.554 389.700, 837.769 397.680, 843.706 405.233 C 849.643 412.787, 855.625 420.580, 857 422.552 C 864.037 432.644, 866.386 433.767, 876.974 432.093 C 883.572 431.050, 887 427.734, 887 422.396 C 887 419.270, 885.779 416.731, 879.500 406.802 C 878.055 404.517, 858.268 379.374, 846.897 365.373 C 832.243 347.332, 811.309 330.192, 792.230 320.613 C 787.131 318.054, 781.980 314.956, 780.784 313.730 C 775.501 308.317, 772.865 307.503, 764.590 308.732 M 251.500 310.945 C 247.399 312.624, 245.603 315.868, 245.208 322.307 C 244.702 330.563, 248.109 334.756, 260.142 340.684 C 268.414 344.759, 274.749 347.894, 282.500 351.748 C 290.139 355.546, 293.541 356.805, 301 358.593 C 305.125 359.583, 311.306 361.646, 314.736 363.178 C 324.961 367.747, 340.735 371.827, 353 373.077 C 359.325 373.721, 373.500 375.942, 384.500 378.012 C 417.629 384.248, 423.026 384.765, 427.309 382.118 C 431.238 379.690, 433.590 374.505, 432.460 370.766 C 430.948 365.763, 419.797 357.771, 416.860 359.586 C 416.269 359.952, 413.245 359.553, 410.142 358.699 C 407.039 357.846, 400.675 356.633, 396 356.004 C 391.325 355.376, 384.486 354.218, 380.803 353.431 C 377.119 352.644, 372.597 352, 370.753 352 C 368.909 352, 366.951 351.551, 366.402 351.002 C 365.853 350.453, 360.281 349.328, 354.019 348.502 C 347.550 347.649, 340.848 346.137, 338.501 345 C 336.228 343.900, 333.476 343, 332.384 343 C 331.293 343, 329.972 342.624, 329.450 342.163 C 327.672 340.598, 317.524 336.707, 309.244 334.415 C 300.733 332.060, 288.266 326.243, 279.500 320.537 C 266.239 311.905, 256.939 308.719, 251.500 310.945 M 179.369 323.441 C 175.473 325.136, 152.906 340.556, 147.500 345.217 C 145.300 347.114, 141.260 350.183, 138.522 352.038 C 129.143 358.391, 99.910 389.191, 96.121 396.710 C 92.810 403.282, 95.221 409.868, 101.067 410.220 C 113.679 410.979, 125.112 405.378, 128.794 396.634 C 130.661 392.201, 152.301 371.495, 162.124 364.743 C 179.416 352.858, 183.724 350.169, 190.521 347.016 C 201.479 341.934, 204.540 337.197, 201.946 329.337 C 199.883 323.086, 187.572 319.871, 179.369 323.441 M 221.740 346.594 C 219.673 347.342, 213.911 350.777, 208.937 354.227 C 203.964 357.677, 197.554 362.075, 194.694 364 C 182.473 372.225, 163 390.025, 163 392.971 C 163 394.606, 150.800 409.332, 140.193 420.500 C 134.446 426.550, 129.033 432.625, 128.162 434 C 127.292 435.375, 124.537 439.194, 122.040 442.487 C 110.338 457.919, 110.394 457.803, 109.660 468.614 C 108.861 480.384, 109.843 481.596, 119.815 481.148 C 127.928 480.784, 133.164 477.111, 138.907 467.757 C 148.238 452.560, 155.443 442.624, 168.003 427.638 C 175.495 418.698, 183.728 408.436, 186.298 404.835 C 193.371 394.924, 213.564 378.946, 229.692 370.500 C 242.620 363.730, 245.217 356.954, 237.746 349.483 C 232.774 344.511, 229.251 343.875, 221.740 346.594 M 638.500 354.468 C 630.094 356.772, 624.384 357.868, 609.500 360.033 C 606.200 360.513, 600.350 361.611, 596.500 362.474 C 581.518 365.832, 575.216 366.797, 567.844 366.863 C 563.634 366.901, 557.109 367.426, 553.344 368.030 C 540.193 370.141, 498.587 368.783, 488 365.898 C 468.206 360.503, 457.076 361.033, 450.837 367.668 C 446.479 372.302, 447.698 380.053, 453.205 382.729 C 466.223 389.056, 500.548 393.310, 533.332 392.661 C 554.390 392.243, 556.477 393.042, 552.500 400 C 550.230 403.972, 550.600 410.277, 553.250 412.759 C 565.376 424.118, 585.640 409.975, 576.481 396.547 L 573.784 392.593 576.003 390.797 C 577.223 389.808, 579.409 388.989, 580.861 388.976 C 582.312 388.963, 587.325 388.042, 592 386.928 C 600.220 384.971, 604.641 384.174, 619.500 381.969 C 633.008 379.965, 639.509 378.730, 640.500 377.980 C 641.050 377.563, 644.425 376.911, 648 376.530 C 665.290 374.685, 671.248 371.345, 670.799 363.750 C 670.155 352.879, 657.531 349.251, 638.500 354.468 M 742 359.728 C 739.688 359.998, 737.227 361.370, 734.750 363.771 C 724.893 373.325, 733.431 382.076, 766.500 396.310 C 769.250 397.493, 773.075 399.626, 775 401.048 C 785.820 409.044, 789.282 411.761, 796.976 418.298 C 810.112 429.459, 819.688 438.878, 824.075 444.952 C 839.549 466.377, 843.506 472.322, 846.486 478.618 C 851.237 488.653, 855.496 492.004, 863.478 491.986 C 873.435 491.964, 877.028 489.520, 876.985 482.800 C 876.953 477.602, 869.608 460.913, 865.058 455.699 C 863.523 453.939, 860.548 449.803, 858.447 446.506 C 848.902 431.530, 835.941 416.789, 822.832 406 C 819.157 402.975, 812.403 397.344, 807.825 393.487 C 794.282 382.078, 789.050 378.558, 776.852 372.649 C 770.489 369.567, 764.714 366.360, 764.019 365.522 C 763.324 364.685, 762.374 364, 761.907 364 C 761.441 364, 758.600 362.875, 755.594 361.500 C 750.237 359.050, 749.095 358.901, 742 359.728 M 618 390.690 C 609.098 394.224, 604.339 405.454, 608.980 411.972 C 614.588 419.848, 626.397 419.259, 633.560 410.746 C 640.853 402.079, 628.717 386.435, 618 390.690 M 270.308 392.010 C 266.162 393.680, 262.069 403.492, 263.560 408.190 C 265.319 413.731, 278.401 415.226, 285.177 410.660 C 295.949 403.401, 282.842 386.961, 270.308 392.010 M 219.016 396.983 C 215.558 400.684, 214.569 405.526, 216.232 410.603 C 220.405 423.342, 243.453 418.026, 241.700 404.729 C 240.394 394.826, 225.713 389.813, 219.016 396.983 M 336.986 398.294 C 330.083 401.662, 328.385 413.929, 334.086 419.250 C 339.512 424.316, 353.029 422.622, 355.805 416.528 C 359.256 408.955, 354.831 399.700, 347.174 398.473 C 345.153 398.150, 342.594 397.704, 341.486 397.483 C 340.378 397.261, 338.353 397.626, 336.986 398.294 M 402.374 398.985 C 396.586 401.323, 393.165 412.270, 396.590 417.497 C 401.559 425.081, 417.349 424.027, 421.589 415.828 C 426.965 405.432, 414.174 394.220, 402.374 398.985 M 491.186 401.138 C 485.316 404.042, 480.181 413.609, 482.059 418.142 C 485.753 427.061, 499.838 428.362, 507.690 420.510 C 513.607 414.593, 509.715 402.971, 501 400.539 C 499.625 400.155, 497.819 399.656, 496.987 399.429 C 496.156 399.202, 493.545 399.971, 491.186 401.138 M 712.615 401.088 C 706.192 406.141, 705.098 414.221, 710.250 418.558 C 713.018 420.888, 724.690 427, 726.372 427 C 726.674 427, 732.226 429.956, 738.711 433.569 C 752.371 441.180, 758.743 446.920, 772.497 464 C 777.590 470.325, 785.974 479.571, 791.128 484.548 C 801.787 494.838, 810.811 505.560, 814.785 512.656 C 829.536 538.998, 841.294 548.021, 854.387 543.043 C 860.668 540.655, 860.609 530.993, 854.269 523.561 C 850.913 519.628, 845.944 512.553, 837.920 500.285 C 834.605 495.217, 827.979 486.746, 823.196 481.462 C 804.418 460.714, 798.663 454.146, 791.323 445.083 C 780.968 432.296, 763.186 416, 759.588 416 C 759.284 416, 756.215 414.299, 752.768 412.220 C 746.572 408.483, 742.818 406.566, 731.900 401.565 C 724.657 398.247, 716.484 398.045, 712.615 401.088 M 652.235 418.037 C 647.109 420.096, 646.346 430.430, 651.029 434.371 C 658.048 440.277, 672.669 436.856, 669.080 430.149 C 668.486 429.039, 668 426.560, 668 424.638 C 668 418.371, 659.874 414.968, 652.235 418.037 M 691.763 431.996 C 684.857 434.075, 679.822 444.062, 682.839 449.699 C 683.959 451.792, 690.128 456.135, 701 462.484 C 715.416 470.903, 740.252 492.484, 746.474 502 C 747.733 503.925, 752.753 509.824, 757.631 515.110 C 762.509 520.395, 768.224 526.920, 770.332 529.610 C 772.439 532.299, 779.064 539.776, 785.054 546.224 C 791.044 552.672, 797.461 560.322, 799.315 563.224 C 801.168 566.126, 805.103 572.275, 808.059 576.889 C 811.015 581.502, 816.824 588.766, 820.967 593.029 L 828.500 600.782 835.411 601.368 C 843.447 602.050, 846.576 600.939, 849.115 596.500 C 851.664 592.041, 849.906 582.556, 846.146 580.489 C 841.113 577.721, 838.295 574.445, 829.750 561.421 C 819.742 546.168, 814.302 539.207, 801.678 525.500 C 796.613 520, 790.458 513.025, 788.001 510 C 757.256 472.151, 734.485 451.134, 708.163 436.311 C 697.991 430.583, 697.172 430.367, 691.763 431.996 M 630.912 436.421 C 629.998 437.335, 606.191 439.034, 586.878 439.563 C 565.890 440.137, 554.326 441.731, 546.167 445.172 C 543.784 446.178, 539.724 447, 537.145 447 C 533.324 447, 531.731 447.602, 528.543 450.250 C 526.391 452.038, 522.600 454.850, 520.118 456.500 C 514.107 460.496, 511.854 467.793, 514.405 475 C 515.840 479.050, 518.687 496.510, 522.478 524.500 C 523.223 530, 524.792 540.575, 525.965 548 C 530.994 579.845, 531.465 584.061, 531.482 597.415 C 531.502 612.867, 530.509 615.204, 527.102 607.724 C 519.626 591.313, 504.525 593.338, 498.613 611.545 C 494.193 625.159, 490.453 624.447, 486.028 609.150 C 482.727 597.740, 481.437 595.013, 477.916 592.002 C 470.406 585.581, 464.238 589.290, 454.249 606.236 C 441.847 627.274, 440.464 625.170, 436.023 578.500 C 435.552 573.550, 434.422 563.875, 433.512 557 C 432.602 550.125, 432.081 542.475, 432.354 540 C 432.627 537.525, 432.869 526.122, 432.891 514.661 C 432.920 500.042, 433.409 491.232, 434.527 485.145 L 436.122 476.469 433.522 471.819 C 431.886 468.891, 429.892 466.809, 428.139 466.198 C 426.492 465.624, 424.065 463.219, 422.198 460.309 C 416.976 452.171, 415.274 451.732, 389.500 451.882 C 377.400 451.953, 363.684 452.450, 359.021 452.988 C 351.008 453.911, 317.958 452.710, 315.870 451.420 C 314.572 450.617, 280.114 446.192, 275.500 446.235 C 274.400 446.245, 269.143 445.678, 263.819 444.975 C 248.507 442.953, 240.982 445.089, 235.487 453.019 C 228.628 462.917, 234.599 468.365, 254 469.913 C 270.197 471.204, 288.868 473.369, 302.500 475.535 C 317.023 477.843, 344.688 478.478, 368.191 477.044 C 389.443 475.747, 394.397 476.192, 402.565 480.128 C 405.837 481.705, 405.667 479.804, 404.435 501 C 404.099 506.775, 404.292 515.550, 404.863 520.500 C 408.983 556.206, 410.042 567.900, 410.069 578 C 410.090 585.823, 410.524 590.148, 411.426 591.526 C 412.238 592.765, 412.768 596.650, 412.792 601.526 C 412.816 606.278, 413.674 612.708, 414.916 617.438 C 416.062 621.804, 417 627.031, 417 629.052 C 417 631.073, 417.460 635.151, 418.022 638.114 C 418.584 641.076, 419.275 649.350, 419.556 656.500 C 420.150 671.576, 420.365 672.582, 423.788 676.238 C 427.120 679.797, 431.980 680.712, 436.405 678.612 C 438.274 677.725, 440.266 677, 440.833 677 C 442.253 677, 446 671.568, 446 669.509 C 446 667.025, 459.819 637.866, 462.218 635.289 C 463.770 633.621, 464.711 633.310, 466.045 634.024 C 467.702 634.911, 476 650.656, 476 652.912 C 476 656.568, 481.193 665.100, 484.920 667.566 L 489.013 670.274 496.069 668.048 C 501.735 666.259, 503.337 665.297, 504.203 663.160 C 504.796 661.697, 505.831 659.150, 506.504 657.500 C 507.176 655.850, 508.780 651.800, 510.068 648.500 C 514.719 636.580, 513.466 636.033, 528.387 656.500 C 544.390 678.452, 544.703 678.815, 549.574 681.034 C 554.985 683.499, 557.580 683.133, 564.250 678.965 L 569 675.996 568.996 668.248 C 568.994 663.987, 568.351 656.450, 567.568 651.500 C 566.784 646.550, 565.859 639.350, 565.512 635.500 C 565.165 631.650, 564.465 626.475, 563.956 624 C 563.448 621.525, 562.322 614.775, 561.453 609 C 560.584 603.225, 558.777 592.464, 557.437 585.087 C 556.097 577.710, 555 569.348, 555 566.504 C 555 563.660, 554.663 560.998, 554.250 560.588 C 553.837 560.178, 552.932 555.491, 552.239 550.172 C 551.545 544.852, 550.568 538.025, 550.066 535 C 549.565 531.975, 548.658 525.704, 548.050 521.064 C 547.443 516.425, 546.269 508.325, 545.441 503.064 C 542.703 485.669, 541.673 475.440, 542.376 472.636 C 544.021 466.086, 553.380 464.825, 616.124 462.700 C 632.241 462.155, 640 460.056, 640 456.243 C 640 455.215, 641.350 453.081, 643 451.500 C 646.473 448.173, 646.686 446.560, 644.158 442.726 C 641.545 438.764, 632.754 434.579, 630.912 436.421 M 470.893 442.497 C 463.857 446.321, 462.348 455.274, 467.894 460.285 C 477.843 469.274, 491.938 464.380, 490.699 452.368 C 489.706 442.752, 479.648 437.739, 470.893 442.497 M 167.366 447.493 C 157.776 455.053, 160.762 466.679, 172.884 468.978 C 184.572 471.195, 192.388 461.941, 187.509 451.661 C 184.275 444.845, 173.542 442.624, 167.366 447.493 M 654.160 469.323 C 646.392 472.225, 645.320 483.703, 652.384 488.332 C 662.168 494.743, 672 490.342, 672 479.551 C 672 470.979, 663.212 465.940, 654.160 469.323 M 613.042 478.228 C 600.846 484.443, 609.492 502.194, 623.440 499.577 C 629.869 498.371, 632.988 490.358, 630.043 482.613 C 627.995 477.227, 619.371 475.003, 613.042 478.228 M 572.225 480.946 C 568.421 483.333, 567 486.442, 567 492.378 C 567 504.053, 586.095 507.441, 591.353 496.699 C 596.528 486.127, 582.448 474.531, 572.225 480.946 M 693.457 480.820 C 684.818 486.211, 684.427 496.540, 692.727 500.097 C 704.162 504.999, 712.656 499.567, 710.593 488.672 C 709.103 480.806, 700.094 476.677, 693.457 480.820 M 201.500 483.945 C 196.338 486.058, 193.543 494.179, 195.888 500.250 C 199.953 510.774, 221 508.006, 221 496.948 C 221 486.415, 211.289 479.939, 201.500 483.945 M 306.750 485.517 C 303.540 487.704, 303 488.611, 303 491.814 C 303 504.957, 321.016 506.176, 321.360 493.056 C 321.568 485.098, 313.485 480.927, 306.750 485.517 M 248.612 485.392 C 245.039 487.026, 243.077 490.415, 243.050 495 C 242.976 507.615, 260.262 510.615, 265.543 498.904 C 269.561 489.994, 258.263 480.978, 248.612 485.392 M 461.193 487.703 C 456.404 489.657, 454.311 493.733, 454.964 499.833 C 456.556 514.711, 480 514.926, 480 500.063 C 480 490.614, 470.063 484.083, 461.193 487.703 M 365.241 491.325 C 359.846 494.321, 357.119 504.236, 360.612 508.156 C 371.147 519.982, 391.072 508.472, 382.996 495.225 C 379.931 490.198, 370.859 488.205, 365.241 491.325 M 149.357 505.312 C 141.324 512.673, 145.081 524.601, 156.122 526.787 C 163.652 528.279, 171.368 523.734, 172.466 517.161 C 174.506 504.946, 158.635 496.809, 149.357 505.312 M 655 511.022 C 645.419 512.118, 639.780 513.229, 628 516.343 C 612.538 520.431, 608.790 521.763, 603 525.229 L 597.500 528.520 597.500 534.981 C 597.500 540.849, 597.729 541.563, 600 542.777 C 602.858 544.304, 616.687 543.773, 619.983 542.009 C 622.028 540.914, 642.169 535.423, 650 533.826 C 655.683 532.666, 687.748 532.729, 699 533.922 C 714.624 535.578, 726.594 539.928, 734.041 546.656 C 745.762 557.245, 761.196 544.286, 751.702 531.828 C 746.167 524.564, 735.054 519.967, 708.500 513.954 C 703.728 512.874, 687.325 511.250, 681 511.232 C 678.525 511.225, 673.350 510.981, 669.500 510.691 C 665.650 510.401, 659.125 510.550, 655 511.022 M 308.065 514.099 C 306.726 514.634, 305.151 514.893, 304.565 514.674 C 302.410 513.869, 273.222 515.945, 264.500 517.524 C 259.550 518.421, 252.800 519.512, 249.500 519.950 C 238.008 521.474, 230.559 525.199, 211.253 539.075 C 208.733 540.887, 206.758 543.220, 206.396 544.814 C 206.061 546.291, 204.935 549.330, 203.893 551.566 C 202.852 553.802, 202 556.620, 202 557.829 C 202 559.038, 201.441 560.923, 200.757 562.017 C 196.100 569.475, 208.451 569.620, 215.993 562.196 C 218.896 559.338, 221.804 557, 222.456 557 C 223.107 557, 225.487 555.419, 227.745 553.486 C 231.838 549.983, 241.256 544.862, 246 543.560 C 247.375 543.183, 249.400 542.480, 250.500 541.997 C 251.600 541.515, 255.875 540.462, 260 539.658 C 269.763 537.754, 271.722 538.969, 267.201 544.120 C 263.974 547.797, 261.207 553.495, 259.976 559 C 259.545 560.925, 258.509 564.978, 257.673 568.007 C 254.757 578.565, 257.853 591.791, 263.794 594.164 C 265.282 594.758, 268.196 596.123, 270.270 597.197 C 274.552 599.416, 279.192 598.958, 282.500 595.990 C 283.600 595.003, 286.300 593.197, 288.500 591.977 C 312.249 578.810, 313.413 553.314, 290.787 541.892 C 279.807 536.350, 284.353 535.227, 322 534.181 C 347.283 533.478, 349.838 533.040, 351.977 529.043 C 354.688 523.977, 352.601 519.370, 346.498 516.950 C 337.697 513.460, 314.055 511.706, 308.065 514.099 M 564.250 527.584 C 557.284 533.074, 561.245 544, 570.203 544 C 578.932 544, 582.229 534.042, 575.465 528.104 C 571.177 524.338, 568.524 524.215, 564.250 527.584 M 485.658 535.250 C 479.944 542.850, 481.876 550.825, 490.435 554.969 C 501.971 560.553, 512.500 549.603, 506.587 538.169 C 503.084 531.394, 489.936 529.560, 485.658 535.250 M 664.838 543.119 C 648.696 551.871, 646.671 572.727, 660.654 586.207 C 670.737 595.927, 680.046 595.290, 691.007 584.132 C 702.314 572.622, 703.345 558.993, 693.365 552.974 C 691.239 551.692, 688.222 549.139, 686.660 547.301 C 681.116 540.775, 672.283 539.083, 664.838 543.119 M 450.741 548.691 C 448.722 549.218, 445 556.731, 445 560.279 C 445 570.973, 463.707 574.891, 468.853 565.274 C 474.340 555.022, 463.724 545.303, 450.741 548.691 M 377.500 552.208 C 372.750 554.932, 371.028 564.961, 374.750 568.224 C 381.172 573.855, 386.924 574.276, 391.732 569.468 C 400.735 560.465, 388.653 545.812, 377.500 552.208 M 344.787 558.023 C 333.998 563.796, 340.676 580.540, 353 578.616 C 364.084 576.886, 365.159 557.076, 354.173 556.986 C 353.253 556.979, 351.600 556.762, 350.500 556.504 C 349.400 556.247, 346.829 556.930, 344.787 558.023 M 163.819 558.536 C 159.004 561.150, 158.926 568.414, 163.646 574.603 C 169.651 582.475, 182 578.587, 182 568.825 C 182 559.069, 172.617 553.759, 163.819 558.536 M 576.781 563.052 C 571.981 565.587, 570.993 567.586, 571.032 574.684 C 571.122 591.117, 591.488 590.425, 593.506 573.921 C 594.768 563.593, 586.245 558.055, 576.781 563.052 M 768.426 569.417 C 761.260 572.537, 758.821 587.644, 764.807 591.827 C 770.721 595.959, 775.448 595.406, 781.908 589.828 C 794.763 578.728, 784.103 562.590, 768.426 569.417 M 599.311 592.952 C 594.387 595.954, 592.455 605.111, 595.502 611.005 C 598.252 616.322, 607.388 616.233, 613.543 610.828 C 624.326 601.361, 611.644 585.432, 599.311 592.952 M 210.837 595.023 C 203.771 598.756, 203.566 610.577, 210.509 613.923 C 217.558 617.320, 223.663 616.679, 228.034 612.085 C 238.510 601.072, 224.916 587.586, 210.837 595.023 M 304 596.629 C 294.533 600.825, 283.564 605, 282.008 605 C 279.896 605, 270.085 608.879, 268 610.538 C 267.175 611.194, 265.297 612.017, 263.827 612.365 C 255.500 614.341, 252.399 621.931, 258.750 624.790 C 263.427 626.895, 286.167 627.233, 288.174 625.226 C 288.848 624.552, 290.331 624, 291.469 624 C 294.819 624, 311.282 615.409, 316.064 611.165 C 326.672 601.751, 317.467 590.661, 304 596.629 M 357.781 600.996 C 353.039 603.572, 352 605.596, 352 612.260 C 352 620.334, 354.679 622.500, 364.667 622.500 C 374.306 622.500, 376 620.867, 376 611.576 C 376 601.061, 367.137 595.914, 357.781 600.996 M 710.990 605.038 C 698.821 611.360, 673.011 614.527, 657 611.663 L 648.500 610.142 642 613.450 C 633.996 617.524, 633.344 619.545, 638.697 623.700 C 646.439 629.708, 653.055 631.500, 667.500 631.500 L 680.500 631.500 690 626.859 C 695.225 624.307, 700.175 621.999, 701 621.732 C 703.868 620.802, 717.055 611.199, 719.189 608.487 C 723.720 602.727, 719.143 600.802, 710.990 605.038 M 761.311 610.946 C 753.180 614.637, 749.141 625.973, 754.250 630.759 C 765.521 641.317, 784.524 626.257, 775.466 613.944 C 771.684 608.803, 767.829 607.986, 761.311 610.946 M 808.072 613.012 C 797.923 615.404, 795.256 629.912, 803.898 635.717 C 814.510 642.847, 829.519 629.901, 823.958 618.414 C 820.970 612.241, 817.031 610.901, 808.072 613.012 M 385 633.170 C 377.879 635.225, 376.143 638.867, 378.583 646.626 C 381.788 656.814, 390.810 659.425, 397.991 652.244 C 407.317 642.919, 398.101 629.389, 385 633.170 M 719.261 635.648 C 710.071 638.925, 706.564 650.526, 712.752 657.183 C 719.865 664.835, 736.673 658.207, 736.262 647.912 C 735.861 637.852, 728.325 632.416, 719.261 635.648 M 297 637.526 C 289.908 641.321, 282.031 645, 280.999 645 C 275.764 645, 261.558 655.396, 262.181 658.772 C 263.296 664.812, 284.409 666.715, 295.237 661.752 C 303.658 657.891, 309.640 652.505, 311.469 647.136 C 314.937 636.959, 307.406 631.958, 297 637.526 M 591.500 635.719 C 583.055 637.777, 580.192 651.208, 586.917 657.218 C 590.864 660.744, 595.620 660.856, 602.641 657.587 C 617.409 650.711, 607.754 631.759, 591.500 635.719 M 201.255 640.133 C 193.700 642.279, 192.865 653.270, 199.822 659.005 C 210.176 667.540, 222.842 658.235, 218.045 645.617 C 216.233 640.852, 208.090 638.192, 201.255 640.133 M 687 640.700 C 686.175 640.997, 682.350 642.716, 678.500 644.518 C 667.853 649.501, 664.300 651, 663.134 651 C 660.847 651, 654.900 657.295, 655.200 659.398 C 655.886 664.201, 678.447 662.721, 689 657.181 C 696.846 653.061, 703.416 644.411, 700.953 641.443 C 699.762 640.008, 690.311 639.504, 687 640.700 M 807.609 645.716 C 791.721 649.787, 791.028 671.023, 806.785 670.990 C 820.551 670.962, 827.240 662.050, 821.374 651.553 C 818.082 645.663, 814.216 644.024, 807.609 645.716 M 761.290 648.941 C 751.240 655.142, 751.998 669.644, 762.495 672.002 C 776.316 675.108, 786.317 663.195, 779.706 651.500 C 776.891 646.520, 767.361 645.196, 761.290 648.941 M 340.298 655.471 C 335.479 657.566, 332.841 666.827, 335.613 671.916 C 341.656 683.012, 359.549 679.745, 360.742 667.329 C 361.764 656.695, 351.360 650.660, 340.298 655.471 M 616 676.354 C 611.573 678.001, 607.727 684.492, 607.727 690.316 C 607.727 703.405, 630.565 703.756, 634.075 690.720 C 636.763 680.739, 626.384 672.489, 616 676.354 M 731.500 682.943 C 728.731 684.072, 724.319 688.655, 722.510 692.280 C 716.731 703.866, 730.646 713.326, 742.601 705.938 C 756.075 697.610, 746.116 676.980, 731.500 682.943 M 243.313 685.104 C 235.091 687.479, 232.798 700.456, 239.672 705.699 C 245.128 709.861, 254.518 709.794, 258.934 705.563 C 265.315 699.450, 261.892 688.394, 252.864 685.964 C 250.670 685.373, 248.341 684.730, 247.687 684.536 C 247.034 684.342, 245.066 684.597, 243.313 685.104 M 292.659 686.054 C 289.222 688.757, 287.513 694.995, 288.986 699.458 C 292.833 711.116, 312.937 710.489, 312.985 698.710 C 313.030 687.490, 300.641 679.775, 292.659 686.054 M 689.355 684.992 C 685.477 686.557, 681.915 692.423, 681.315 698.233 C 680.088 710.121, 694.532 715.155, 704.881 706.446 C 708.138 703.706, 709.869 698.469, 708.101 696.701 C 707.496 696.096, 707 694.375, 707 692.877 C 707 686.241, 697.159 681.843, 689.355 684.992 M 372.619 689.181 C 368.327 693.473, 366.689 701.894, 369.534 705.038 C 377.945 714.331, 394 710.079, 394 698.558 C 394 688.055, 379.920 681.880, 372.619 689.181 M 455.687 695.605 C 449.976 698.701, 447.219 709.983, 451.250 713.759 C 459.987 721.943, 474 718.189, 474 707.664 C 474 696.608, 464.895 690.613, 455.687 695.605 M 500.289 696.250 C 499.157 697.487, 497.898 699.625, 497.493 701 C 497.087 702.375, 496.370 703.984, 495.900 704.576 C 493.446 707.661, 496.430 714.415, 501.024 716.176 C 516.247 722.009, 527.992 709.033, 517.896 697.535 C 513.893 692.975, 503.951 692.250, 500.289 696.250 M 772.500 696.353 C 763.731 700.422, 760.029 711.853, 765.750 717.192 C 775.784 726.557, 793.114 717.997, 790.635 704.901 C 789.119 696.888, 780.303 692.733, 772.500 696.353 M 575 707.704 C 567.612 710.392, 563.633 728, 570.413 728 C 571.151 728, 572.315 728.675, 573 729.500 C 574.632 731.467, 582.209 731.461, 586.020 729.490 C 597.916 723.338, 587.675 703.092, 575 707.704 M 641.419 713.075 C 631.900 715.839, 628.540 731.376, 636.354 736.496 C 642.133 740.283, 655.868 737.106, 658.004 731.489 C 662.381 719.978, 653.106 709.681, 641.419 713.075 M 326.198 719.673 C 318.115 723.656, 317.517 736.910, 325.264 740.361 C 334.933 744.668, 342.170 743.440, 345.541 736.920 C 351.092 726.187, 337.525 714.091, 326.198 719.673 M 520.829 720.764 C 514.940 721.321, 510.426 731.527, 513.652 736.989 C 520.265 748.182, 537 745.254, 537 732.903 C 537 723.803, 531.594 719.745, 520.829 720.764 M 436 730.790 C 427.913 735.208, 427.198 752, 435.096 752 C 436.078 752, 437.160 752.450, 437.500 753 C 438.987 755.406, 449.028 754.126, 452.003 751.150 C 462.550 740.604, 449.178 723.592, 436 730.790 M 280.400 736.373 C 276.934 737.943, 276.429 738.853, 275.541 745.122 C 273.713 758.026, 295.020 765.023, 299.943 753.137 C 304.818 741.369, 292.566 730.861, 280.400 736.373 M 669.396 741.429 C 663.942 743.804, 659.555 751.963, 661.009 757.032 C 663.684 766.360, 675.916 768.816, 683.866 761.621 C 694.481 752.015, 682.735 735.623, 669.396 741.429 M 738.500 740.996 C 737.400 741.470, 735.300 742.114, 733.833 742.427 C 726.683 743.954, 724.035 757.961, 729.903 763.205 C 733.891 766.768, 742.810 767.158, 748.929 764.036 C 761.884 757.427, 751.845 735.251, 738.500 740.996 M 473.337 744.947 C 469.118 746.869, 466.113 754.108, 467.188 759.756 C 468.319 765.700, 481.639 769.737, 487.775 765.996 C 501.456 757.655, 488.118 738.210, 473.337 744.947 M 383.587 748.172 C 381.073 750.334, 380.739 751.365, 380.355 758.135 L 379.927 765.686 383.942 768.343 C 397.278 777.168, 411.176 759.314, 399.241 748.688 C 395.727 745.560, 386.959 745.271, 383.587 748.172 M 603.045 754.952 C 593.899 764.742, 597.887 775.089, 611.093 775.835 C 619.124 776.289, 620.648 775.426, 624.130 768.453 C 630.008 756.685, 612.123 745.234, 603.045 754.952 M 543.662 759.277 C 535.368 761.358, 533.330 771.355, 539.975 777.358 C 550.538 786.901, 563.538 779.775, 559.860 766.457 C 558.112 760.124, 551.669 757.268, 543.662 759.277 M 341.225 777.945 C 334.711 782.034, 333.823 792.060, 339.556 796.786 C 347.050 802.962, 355.170 802.310, 360.718 795.086 C 363.170 791.894, 362.291 783.357, 359.149 779.840 C 355.365 775.605, 346.454 774.663, 341.225 777.945 M 699.309 777.052 C 693.546 778.812, 689.066 787.639, 690.984 793.452 C 695.484 807.088, 717.930 803.969, 717.985 789.700 C 718.024 779.814, 709.397 773.972, 699.309 777.052 M 399.971 779.250 C 387.656 785.474, 391.991 803.467, 405.805 803.467 C 422.973 803.467, 427.068 784.169, 411.096 778.534 C 405.509 776.563, 405.257 776.579, 399.971 779.250 M 594.190 789.353 C 586.314 793.723, 585.059 809.506, 592.363 812.309 C 606.880 817.880, 617.957 808.951, 613.572 795.212 C 611.786 789.618, 600.087 786.081, 594.190 789.353 M 651.500 791.480 C 639.023 798.052, 641.571 814.183, 655.330 815.734 C 668.557 817.225, 675.247 801.773, 665.279 792.753 C 662.475 790.215, 655.180 789.541, 651.500 791.480 M 434.333 794.430 C 422.251 803.168, 434.698 822.379, 447.989 815.506 C 454.738 812.016, 456.326 802.634, 451.149 796.840 C 447.680 792.959, 438.239 791.605, 434.333 794.430 M 487.768 798.059 C 481.056 801.603, 478.939 810.957, 483.665 816.184 C 492.618 826.083, 507.009 821.777, 506.996 809.203 C 506.986 799.220, 496.776 793.303, 487.768 798.059 M 550.228 811.427 C 542.542 814.218, 539.380 832, 546.570 832 C 547.395 832, 549.187 832.732, 550.551 833.626 C 561.483 840.788, 574.001 826.823, 566.435 815.906 C 562.863 810.752, 556.744 809.061, 550.228 811.427"/>
    </g>
  </g>
</svg>
