<svg viewBox="0 0 74 74" width="74mm" height="74mm" xmlns="http://www.w3.org/2000/svg">
  <g transform="scale(0.074000)" fill-rule="evenodd">
    <g id="forma" fill="#CB3747">
      <path d="M 331.290 65.905 C 325.834 69.333, 324.354 73.562, 313.413 117 C 312.097 122.225, 309.873 134.143, 308.470 143.485 C 305.244 164.973, 304.063 170.689, 297.481 196.653 C 294.532 208.287, 290.944 224.937, 289.508 233.653 C 288.072 242.369, 285.111 258.910, 282.927 270.410 C 278.187 295.371, 269.537 354.408, 267.492 375.744 C 265.421 397.361, 262.249 403.004, 252.173 402.996 C 241.994 402.988, 233.091 394.067, 222.738 373.500 C 220.246 368.550, 214.856 359.926, 210.760 354.336 C 201.890 342.231, 196.384 331.954, 191.606 318.584 C 189.649 313.111, 185.218 304.005, 181.644 298.113 C 178.103 292.276, 171.353 279.779, 166.644 270.343 C 161.935 260.906, 155.182 248.494, 151.638 242.761 C 143.742 229.986, 139.254 221.157, 133.431 206.940 C 130.973 200.937, 127.348 192.532, 125.378 188.262 C 120.656 178.035, 109.741 152.689, 107.606 147 C 106.678 144.525, 102.719 138.225, 98.808 133 C 94.434 127.156, 89.301 118.497, 85.470 110.500 C 78.499 95.948, 75.549 92.502, 66.547 88.388 C 50.303 80.965, 43.060 84.701, 39.143 102.524 C 38.058 107.461, 36.682 112.767, 36.085 114.315 C 33.450 121.151, 34.680 126.121, 41.094 134.551 C 47.584 143.083, 48.962 147.392, 49.938 162.216 C 50.608 172.394, 51.431 177.254, 53.457 183 C 57.251 193.761, 58.502 200.695, 63.023 236 C 65.242 253.325, 67.718 271.325, 68.525 276 C 70.384 286.761, 70.370 293.059, 68.472 300 C 65.547 310.698, 66.214 315.862, 71.875 326.363 C 78.008 337.740, 80.207 345.399, 83.518 366.921 C 84.921 376.039, 87.149 387.325, 88.468 392 C 92.203 405.232, 96.906 426.388, 98.556 437.373 C 99.381 442.866, 101.208 450.541, 102.615 454.430 C 111.857 479.961, 112.978 485.638, 111.089 497.346 C 109.472 507.374, 110.919 510.859, 120.083 519.003 C 128.525 526.507, 129.154 527.563, 142.880 557.324 C 183.857 646.175, 222.296 692.380, 310 758.210 C 330.958 773.941, 392.401 806.690, 419 816.307 C 450.718 827.775, 472.766 833.607, 489.784 835.031 C 496.539 835.597, 506.214 836.911, 511.284 837.952 C 539.715 843.792, 568.716 844.985, 587 841.067 C 593.225 839.733, 600.292 839.024, 607.500 839.009 C 626.295 838.970, 669.567 826.504, 690 815.242 C 746.598 784.047, 804.764 723.751, 844.944 654.622 C 875.518 602.022, 884.817 578.140, 894.447 527.500 C 895.283 523.100, 897.751 513.576, 899.932 506.337 C 902.112 499.097, 905.064 485.822, 906.492 476.837 C 907.920 467.851, 910.651 453.075, 912.561 444 C 914.471 434.925, 916.720 423.225, 917.560 418 C 918.400 412.775, 919.935 405.125, 920.970 401 C 922.006 396.875, 923.148 387.875, 923.508 381 C 923.868 374.125, 924.576 365.800, 925.081 362.500 C 929.567 333.190, 935.211 250.480, 934.805 220 C 934.626 206.559, 934.903 203.371, 936.892 196 C 939.430 186.594, 939.709 180.443, 938.140 168.500 C 937.562 164.100, 936.835 150.540, 936.525 138.366 C 935.750 107.934, 933.582 102.119, 921.834 98.955 C 909.359 95.596, 900.557 102.093, 895.548 118.356 C 893.113 126.263, 890.771 130.643, 882.556 142.656 C 880.387 145.827, 876.913 153.106, 874.835 158.830 C 870.292 171.344, 866.839 177.692, 858.310 189.209 C 854.309 194.611, 850.024 202.104, 847.025 208.943 C 840.344 224.179, 836.212 231.202, 828.509 240.418 C 820.459 250.049, 820.592 249.804, 816.493 262.451 C 813.029 273.137, 803.566 292.987, 796.909 303.526 C 794.766 306.919, 791.197 313.702, 788.978 318.598 C 782.146 333.672, 780.961 335.692, 774.830 342.705 C 766.743 351.957, 764.476 356.138, 762.472 365.500 C 759.654 378.664, 754.422 389.151, 745.757 399 C 739.633 405.961, 737.276 410.786, 735.575 419.841 C 732.924 433.947, 729.024 438.988, 720.753 438.996 C 712.404 439.005, 708.761 433.502, 692.951 397 C 680.598 368.479, 653.435 310.465, 648.583 302.238 C 646.552 298.793, 643.281 292.493, 641.316 288.238 C 639.350 283.982, 633.331 271.275, 627.940 260 C 622.548 248.725, 616.474 235, 614.440 229.500 C 612.407 224, 605.903 209.150, 599.987 196.500 C 594.071 183.850, 587.864 169.675, 586.194 165 C 574.208 131.455, 570.119 122.204, 559.233 104 C 548.174 85.507, 542.904 80.943, 534.236 82.349 C 526.328 83.632, 523.299 89.550, 520.079 110 C 515.847 136.886, 514.861 146.325, 513.972 168.500 C 513.464 181.150, 512.372 198.025, 511.544 206 C 510.717 213.975, 510.024 226.125, 510.005 233 C 509.949 253.049, 508.253 272.653, 505.029 290.502 C 501.994 307.303, 501.278 313.691, 498.463 349 C 496.292 376.240, 494.274 381.995, 486.340 383.582 C 477.846 385.281, 470.049 374.135, 457.092 341.775 C 454.389 335.024, 450.745 326.350, 448.994 322.500 C 447.243 318.650, 443.871 309.650, 441.500 302.500 C 439.129 295.350, 435.563 285.601, 433.576 280.836 C 431.547 275.969, 428.878 266.717, 427.487 259.726 C 424.549 244.963, 423.790 242.700, 417.183 229 C 414.398 223.225, 410.466 212.875, 408.444 206 C 406.423 199.125, 402.522 188.550, 399.777 182.500 C 392.816 167.161, 391.361 162.688, 387.504 144.779 C 383.612 126.702, 382.330 123.433, 374.426 111.432 C 371.250 106.609, 366.196 97.226, 363.195 90.581 C 352.448 66.784, 342.337 58.965, 331.290 65.905"/>
    </g>
    <g id="detalles" fill="#1A1A1A">
      <path d="M 336.500 65.747 C 328.598 67.693, 323.908 73.897, 320.462 86.961 C 316.202 103.111, 317.908 112.392, 325.739 115.664 C 338.991 121.201, 350.044 105.398, 349.986 81 C 349.961 70.415, 344.166 63.860, 336.500 65.747 M 68.163 85.072 C 55.597 87.544, 31.138 106.760, 25.539 118.558 C 22.759 124.418, 23.486 130.686, 27.400 134.600 C 32.973 140.173, 37.078 139.035, 53.225 127.444 C 59.270 123.104, 64.382 120.371, 69.870 118.543 C 90.578 111.647, 96.348 89.598, 78.613 85.133 C 76.139 84.510, 73.751 84.049, 73.307 84.110 C 72.863 84.170, 70.548 84.603, 68.163 85.072 M 894.857 96.857 C 885.462 106.253, 889.267 116.300, 904.333 121.876 C 907.541 123.063, 913.138 125.826, 916.770 128.017 C 938.821 141.316, 951.577 120.359, 931.223 104.271 C 914.816 91.302, 902.852 88.863, 894.857 96.857 M 555.256 107.029 C 545.384 110.998, 547.364 129.492, 560.536 156.346 C 569.721 175.071, 574.423 179.750, 585.089 180.780 C 596.642 181.896, 596.933 171.745, 586.109 145.269 C 582.234 135.791, 578.343 125.216, 577.461 121.769 C 574.087 108.579, 565.530 102.898, 555.256 107.029 M 367.013 110.275 C 356.300 115.940, 357.007 128.659, 369.544 155.805 C 373.890 165.216, 377.835 169.452, 384.229 171.576 C 394.192 174.885, 400.356 167.336, 396.952 155.993 C 396.375 154.072, 394.399 144.983, 392.561 135.796 C 387.371 109.852, 380.601 103.089, 367.013 110.275 M 85.906 132.860 C 50.555 146.290, 31.361 169.059, 45.003 181.384 C 51.737 187.467, 57.064 186.572, 66.848 177.715 C 72.031 173.022, 84.883 166.800, 94.243 164.452 C 107.495 161.128, 117.373 150.130, 115.599 140.676 C 113.845 131.328, 99.723 127.610, 85.906 132.860 M 525.090 132.916 C 520.618 137.093, 519.332 140.978, 518.024 154.252 C 515.217 182.759, 516.379 195.593, 522.034 198.517 C 531.321 203.320, 540.217 195.457, 542.131 180.753 C 543.219 172.396, 541.412 137.730, 539.721 134.500 C 536.888 129.092, 529.984 128.344, 525.090 132.916 M 877.500 138.346 C 864.012 144.534, 865.320 156.868, 880.297 164.714 C 884.259 166.789, 894.535 173.519, 903.132 179.670 C 927.506 197.105, 933.751 199.516, 942.217 194.758 C 954.640 187.776, 952.357 177.567, 936.217 167.926 C 931.423 165.062, 924.575 160.678, 921 158.182 C 892.343 138.179, 885.082 134.868, 877.500 138.346 M 313.586 142.117 C 307.229 143.857, 300.942 151.871, 299.948 159.500 C 299.590 162.250, 298.282 169.430, 297.041 175.455 C 293.752 191.425, 295.313 199.023, 302.595 202.478 C 317.682 209.637, 328.068 191.993, 326.749 161.445 C 326.300 151.057, 324.539 143, 322.718 143 C 322.591 143, 321.140 142.622, 319.493 142.160 C 317.847 141.698, 315.189 141.679, 313.586 142.117 M 111.908 184.905 C 81.024 194.879, 52.863 228.554, 65.766 240.082 C 71.868 245.534, 79.024 243.845, 89.066 234.581 C 96.125 228.069, 107.325 221.388, 113.625 219.933 C 124.319 217.461, 126.018 216.855, 128.788 214.525 C 132.452 211.442, 138.001 201.098, 137.996 197.360 C 137.984 188.223, 123.318 181.221, 111.908 184.905 M 850.500 188.480 C 845.349 191.107, 840.622 199.143, 841.291 204.133 C 842.164 210.643, 844.630 213.016, 854.688 217.031 C 859.652 219.012, 865.240 221.548, 867.106 222.667 C 868.973 223.786, 874.550 227.175, 879.500 230.198 C 907.116 247.066, 912.461 248.744, 921.571 243.405 C 934.239 235.982, 931.578 225.171, 915.155 217.337 C 909.845 214.804, 901.900 210.375, 897.500 207.496 C 873.064 191.505, 857.175 185.076, 850.500 188.480 M 406.355 222.597 C 395.786 227.810, 395.906 236.831, 406.836 258.927 C 412.126 269.620, 414.172 271.520, 422.200 273.200 C 434.560 275.785, 437.324 270.493, 433.127 252.275 C 426.734 224.532, 419.251 216.236, 406.355 222.597 M 347.315 229.007 C 342.547 230.928, 340.305 241.610, 339.835 264.648 C 339.462 282.902, 339.822 283.968, 347.096 286.147 C 350.413 287.141, 351.438 286.989, 355.615 284.888 C 363.553 280.896, 364.242 278.638, 363.671 258.500 C 362.902 231.418, 358.963 224.314, 347.315 229.007 M 292.209 233.566 C 287.129 237.124, 284 248.110, 284 262.388 C 284 266.799, 283.456 275.303, 282.790 281.285 C 281.394 293.842, 282.087 296.229, 288.020 299.302 C 295.152 302.996, 303.528 299.422, 306.602 291.371 C 308.892 285.375, 309.333 245.852, 307.178 239.766 C 304.735 232.867, 297.491 229.867, 292.209 233.566 M 510.791 234.767 C 504.872 238.174, 504.240 239.452, 503.015 250.500 C 499.868 278.867, 502.907 288.500, 515 288.500 C 526.919 288.500, 529 283.886, 529 257.455 L 529 237.846 526.077 234.923 C 522.249 231.095, 517.261 231.044, 510.791 234.767 M 610.500 235.929 C 599.485 238.587, 596.986 247.486, 603.618 260.435 C 619.556 291.555, 626.240 300.874, 632.827 301.158 C 641.013 301.512, 643.997 299.438, 645.999 292.005 C 647.618 285.993, 645.315 278.936, 635.394 259.500 C 625.982 241.064, 624.161 238.450, 619.282 236.371 C 615.785 234.881, 615.005 234.842, 610.500 235.929 M 141.760 240.083 C 135.623 241.530, 124.262 247.743, 111.296 256.743 C 68.638 286.353, 48.783 311.270, 58.574 322.905 C 65.843 331.544, 76.173 327.797, 88.872 311.914 C 97.560 301.048, 131.895 276.337, 144.177 272.111 C 156.492 267.874, 162.814 262.623, 165.222 254.631 C 168.306 244.396, 155.953 236.736, 141.760 240.083 M 817.411 240.891 C 802.967 249.699, 807.721 259.238, 832.913 271.998 C 864.914 288.205, 892.342 306.534, 906.748 321.337 C 916.620 331.481, 918.925 332.695, 926.035 331.494 C 933.309 330.265, 938.842 321.454, 937.282 313.584 C 934.967 301.914, 894.622 272.219, 851 250.077 C 829.361 239.094, 823.146 237.394, 817.411 240.891 M 557.401 265.428 C 547.912 269.558, 545.053 293.035, 553.603 296.608 C 564.533 301.174, 573 294.186, 573 280.600 C 573 266.280, 567.571 261, 557.401 265.428 M 176.500 297.402 C 163.203 301.619, 125.329 328.092, 122.832 334.916 C 122.649 335.415, 118.840 338.675, 114.366 342.161 C 82.697 366.841, 74.616 377, 78.644 387.069 C 83.349 398.826, 94.511 398.256, 108 385.569 C 115.736 378.293, 124.279 370.924, 140.500 357.533 C 147.100 352.085, 154.530 345.768, 157.011 343.497 C 162.726 338.264, 170.933 333.008, 180.403 328.514 C 199.152 319.617, 203.123 304.595, 188.500 297.881 C 183.849 295.745, 181.963 295.670, 176.500 297.402 M 788.367 303.918 C 777.246 310.699, 780.055 320.742, 795.458 329.269 C 800.385 331.997, 808.260 336.805, 812.958 339.954 C 817.656 343.103, 827.800 348.972, 835.500 352.996 C 862.046 366.871, 885.240 382.063, 901.163 396.006 C 914.477 407.664, 924.610 407.986, 930.248 396.929 C 934.709 388.181, 932.922 384.413, 919.249 373.733 C 890.474 351.257, 868.926 337.393, 850.600 329.566 C 838.820 324.534, 835.009 322.474, 822 314.105 C 806.320 304.018, 794.216 300.351, 788.367 303.918 M 436.994 309.008 C 423.656 312.672, 422.435 322.682, 432.886 342.680 C 434.558 345.881, 437.582 352.008, 439.605 356.295 C 444.177 365.984, 448.109 371.486, 452.280 374.029 C 462.676 380.368, 473.733 370.166, 470.029 357.654 C 468.659 353.023, 459.811 329.442, 457.403 324 C 452.704 313.383, 444.093 307.058, 436.994 309.008 M 590.500 321.412 C 578.754 326.632, 579.790 336.165, 595.344 366 C 604.885 384.301, 624.263 374.156, 618.610 353.820 C 612.077 330.324, 600.494 316.970, 590.500 321.412 M 390.500 328.403 C 379.643 333.195, 380.981 346.490, 394.734 370.480 C 399.596 378.962, 402.323 381.132, 408.909 381.765 C 420.164 382.847, 422.838 376.423, 417.642 360.784 C 415.762 355.128, 413.893 348.925, 413.489 347 C 410.577 333.139, 399.701 324.341, 390.500 328.403 M 641.278 334.522 C 635.903 339.897, 636.679 345.091, 645.062 359.864 C 657.834 382.371, 669.399 390.755, 677.077 383.077 C 680.296 379.858, 680.803 375.884, 678.694 370.392 C 665.581 336.250, 661.712 331, 649.666 331 C 645.432 331, 644.342 331.458, 641.278 334.522 M 499.610 338.371 C 492.104 343.708, 491.783 344.525, 490.667 361.141 C 489.538 377.963, 490.192 381.893, 494.866 386.372 C 500.836 392.091, 512.108 389.787, 516.176 382.016 C 518.352 377.858, 518.920 344.667, 516.883 340.684 C 513.533 334.134, 506.832 333.237, 499.610 338.371 M 557.176 339.505 C 551.874 343.967, 546.509 363.949, 548.915 370.277 C 550.641 374.817, 560.345 376.786, 565.228 373.586 C 569.994 370.464, 572.658 358.118, 571.078 346.478 C 569.827 337.255, 563.576 334.120, 557.176 339.505 M 282 340.706 C 274.266 343.533, 271.497 351.780, 269.525 377.863 C 267.986 398.207, 268.244 399.959, 273.225 402.996 C 280.342 407.335, 289.552 404.377, 293.490 396.487 C 295.995 391.467, 296.564 350.366, 294.186 346.196 C 291.743 341.913, 285.900 339.280, 282 340.706 M 341.819 342.927 C 336.436 347.162, 329.589 377.686, 332.473 384.590 C 334.371 389.132, 339.059 391.390, 345.102 390.674 C 354.089 389.610, 356.488 386.347, 357.982 373.155 C 360.553 350.467, 352.169 334.787, 341.819 342.927 M 763.020 343.752 C 750.333 350.126, 752.692 363.360, 768 371.696 C 781.714 379.165, 797.936 388.578, 802.981 391.995 C 808.601 395.802, 823.271 404.432, 832.743 409.503 C 835.646 411.058, 838.801 413.691, 839.813 415.405 C 841.139 417.651, 842.857 418.824, 846.071 419.680 C 850.574 420.880, 857.016 426.954, 887.011 458.284 C 897.940 469.698, 902.735 470.561, 911.666 462.721 C 919.700 455.666, 919.569 449.864, 911.179 441.247 C 908.056 438.038, 901.853 431.374, 897.396 426.438 C 879.159 406.242, 852.616 386.395, 825.829 372.926 C 822.348 371.176, 811.625 364.533, 802 358.163 C 777.875 342.198, 771.099 339.693, 763.020 343.752 M 205.500 351.680 C 198.488 353.251, 192.902 355.927, 185.230 361.390 C 180.428 364.808, 172.113 370.641, 166.752 374.350 C 161.390 378.060, 153.965 383.692, 150.252 386.866 C 146.538 390.040, 137.650 397.014, 130.500 402.365 C 92.957 430.463, 82.062 448.517, 97.239 457.482 C 103.240 461.027, 117.709 455.735, 124.723 447.429 C 128.620 442.816, 145.823 428.107, 168.447 410.044 C 183.018 398.410, 199.093 387.518, 208.315 383.030 C 226.463 374.197, 230.869 365.382, 221.780 356.086 C 217.121 351.321, 212.584 350.093, 205.500 351.680 M 228.956 397.328 C 220.514 400.801, 204.378 412.543, 189.039 426.375 C 185.455 429.606, 179.893 434.035, 176.679 436.218 C 160.792 447.006, 120.778 480.351, 108.334 493.170 C 97.069 504.777, 95.916 513.683, 104.898 519.717 C 114.337 526.058, 122.961 522.246, 141.500 503.539 C 155.614 489.298, 168.458 478.182, 190.500 461.135 C 197.100 456.030, 209.513 446.300, 218.085 439.511 C 227.550 432.016, 236.226 426.011, 240.178 424.219 C 250.513 419.533, 256.444 413.218, 255.607 407.792 C 253.841 396.353, 242.321 391.830, 228.956 397.328 M 735.984 397.824 C 728.576 401.702, 725.469 414.945, 730.288 422.102 C 732.079 424.762, 734.521 426.289, 741.538 429.133 C 746.467 431.132, 754.100 434.857, 758.500 437.412 C 762.900 439.966, 773.925 445.700, 783 450.152 C 792.075 454.605, 803.775 461.226, 809 464.867 C 814.225 468.507, 820.986 473.101, 824.024 475.075 C 827.063 477.049, 833.363 482.889, 838.024 488.052 C 878.982 533.412, 880.403 534.515, 893.302 530.933 C 899.494 529.214, 903.847 519.265, 900.824 513.742 C 899.438 511.209, 870.613 479.881, 856 465.025 C 843.665 452.485, 812.913 431.436, 797.560 425.025 C 785.608 420.034, 778.233 415.913, 765.921 407.346 C 749.898 396.198, 743.176 394.060, 735.984 397.824 M 590.500 401.861 C 578.050 409.551, 582.874 436.283, 598.115 444.059 C 608.667 449.442, 613.108 443.952, 612.620 426.128 C 612.051 405.354, 602.251 394.602, 590.500 401.861 M 376.500 412.412 C 367.277 416.511, 365.803 424.375, 371.545 438.861 C 375.981 450.055, 377.671 452.285, 382.902 453.852 C 392.650 456.773, 398.144 454.220, 399.919 445.942 C 404.052 426.672, 389.924 406.445, 376.500 412.412 M 660.780 419.351 C 643.552 423.864, 644.311 431.708, 662.500 437.128 C 666.350 438.275, 673.165 440.354, 677.645 441.749 C 697.044 447.786, 713.779 434.933, 701.937 423.091 C 696.264 417.418, 675.399 415.522, 660.780 419.351 M 311 441.096 C 283.266 442.753, 274.646 444.558, 271.495 449.368 C 269.028 453.132, 270.355 455.371, 277.278 459.126 L 283.500 462.500 300 462.787 C 309.075 462.945, 320.325 463.170, 325 463.287 C 344.874 463.785, 352.817 448.348, 336.282 441.360 C 332.809 439.892, 331.394 439.877, 311 441.096 M 600.270 472.430 C 598.493 473.231, 596.125 475.375, 595.007 477.193 C 592.888 480.643, 592.715 481.229, 589.012 497.500 C 587.760 503, 585.262 511.775, 583.461 517 C 574.166 543.970, 571.186 556.360, 569.592 574.682 C 567.577 597.849, 567.089 597.862, 537.524 575.561 C 528.222 568.544, 515.411 557.558, 506.855 549.261 C 498.774 541.424, 490.892 534.529, 489.341 533.940 C 483.027 531.539, 474.495 535.185, 469.734 542.318 C 467.832 545.168, 462.702 551.550, 458.334 556.500 C 453.966 561.450, 447.843 568.964, 444.728 573.198 C 435.146 586.219, 432.757 585.523, 426.724 567.952 C 424.750 562.203, 420.822 551.650, 417.995 544.500 C 415.167 537.350, 410.597 524.975, 407.837 517 C 402.223 500.774, 400.881 498.208, 395.041 492.526 L 390.957 488.552 378.228 487.863 C 355.675 486.642, 334.828 486.901, 325.550 488.519 C 320.758 489.355, 313.387 490.088, 309.169 490.149 C 288.010 490.454, 267.437 489.887, 263.474 488.889 C 255.993 487.005, 250 490.084, 250 495.811 C 250 501.538, 255.603 505.008, 264.815 504.987 C 267.942 504.980, 273.650 505.631, 277.500 506.434 C 294.565 509.994, 332.231 510.376, 347.777 507.147 C 352.734 506.118, 370.237 507.938, 373.751 509.848 C 376.742 511.474, 380.101 518.316, 387.081 537 C 390.265 545.525, 395.414 559.025, 398.521 567 C 401.629 574.975, 406.157 589.340, 408.583 598.921 C 414.069 620.587, 415.815 623.533, 424.649 626.030 C 431.923 628.087, 439.734 624.282, 443.605 616.796 C 444.432 615.198, 448.125 610.427, 451.813 606.195 C 458.660 598.336, 463.469 592.001, 470.416 581.686 C 479.366 568.398, 483.575 567.383, 494.321 575.922 C 513.720 591.338, 543.621 613.285, 548.771 615.888 C 551.922 617.481, 557.388 620.912, 560.917 623.513 C 569.630 629.934, 573.323 631.350, 579.654 630.696 C 589.594 629.670, 591.141 627.520, 592.022 613.500 C 592.368 608, 593.373 597.875, 594.255 591 C 595.137 584.125, 596.370 573.568, 596.994 567.540 C 598.351 554.450, 603.040 535.804, 609.946 516.035 C 612.726 508.080, 615 501.497, 615 501.407 C 615 499.755, 625.817 499.025, 656.500 498.606 C 676.300 498.336, 698.800 497.623, 706.500 497.020 C 714.200 496.418, 727.322 495.747, 735.660 495.529 C 758.464 494.933, 767.491 488.310, 760.352 477.414 C 756.630 471.734, 736.651 470.498, 697.405 473.518 C 678.628 474.963, 645.335 474.697, 635 473.019 C 623.798 471.201, 603.749 470.861, 600.270 472.430 M 668.230 513.550 C 665.332 514.331, 661.673 515.635, 660.099 516.449 C 658.525 517.263, 652.796 519.578, 647.368 521.593 C 618.748 532.219, 604.363 549.537, 615.481 559.982 L 617.965 562.316 625.548 560.650 C 635.231 558.522, 637.565 557.270, 645.770 549.802 C 659.342 537.447, 677.561 532.883, 695.012 537.467 C 698.581 538.404, 704.618 539.580, 708.428 540.080 C 713.509 540.747, 718.574 542.507, 727.428 546.682 C 745.211 555.066, 754.192 554.907, 759.353 546.117 C 763.453 539.135, 758.898 534.144, 739.691 524.577 C 729.002 519.252, 724.723 517.659, 718.970 516.862 C 714.982 516.309, 708.970 514.995, 705.609 513.941 C 698.008 511.558, 676.468 511.333, 668.230 513.550 M 315.299 519.533 C 277.917 529.604, 246.605 550.821, 249.523 564.103 C 252.304 576.765, 266.842 577.147, 284.735 565.027 C 298.169 555.928, 300.638 555.764, 300.222 564 C 299.369 580.909, 303.045 587, 314.105 587 C 324.983 587, 328.461 585.422, 331.090 579.294 C 335.243 569.614, 334.536 564.507, 327.944 556.545 C 317.677 544.145, 336.370 549.424, 355.301 564.270 C 359.066 567.223, 371.174 567.996, 375.843 565.581 C 389.086 558.733, 381.510 542.578, 357.978 527.486 C 343.066 517.922, 330.187 515.522, 315.299 519.533 M 692.872 545.461 C 692.544 545.789, 689.006 546.225, 685.009 546.430 C 670.024 547.197, 664.078 559.085, 670.931 574.577 C 675.437 584.763, 680.068 586.487, 692.386 582.565 C 709.912 576.984, 716.956 566.171, 710.391 554.929 C 707.093 549.282, 695.381 542.953, 692.872 545.461 M 726.332 604.769 C 725.139 604.961, 721.176 607.755, 717.524 610.979 L 710.884 616.840 696.192 620.420 C 688.111 622.389, 679.250 624.009, 676.500 624.020 C 654.603 624.105, 645.501 631.711, 660.106 637.719 C 681.836 646.659, 732.246 630.807, 736.544 613.682 C 737.801 608.673, 732.239 603.819, 726.332 604.769 M 356.561 608.545 C 354.945 609.388, 350.445 612.502, 346.561 615.465 C 326.741 630.587, 311.805 635.937, 299 632.500 C 286.245 629.076, 278.335 632.782, 284.250 639.409 C 286.870 642.344, 305.446 648.981, 311.075 648.993 C 331.884 649.036, 374.685 616.197, 363.777 608.557 C 361.022 606.627, 360.242 606.626, 356.561 608.545 M 479.500 616.008 C 463.586 620.959, 458.149 649.185, 473.591 646.679 C 477.872 645.984, 490.568 637.442, 494.390 632.685 C 502.632 622.427, 493.119 611.772, 479.500 616.008 M 531.420 631.885 C 520.395 638.609, 527.776 652.947, 548.609 665.276 C 561.906 673.146, 566.141 673.766, 569.682 668.362 C 573.779 662.111, 571.316 657.116, 557.520 643.700 C 543.704 630.264, 538.180 627.764, 531.420 631.885 M 370.500 639.877 C 368.850 640.905, 366.150 643.195, 364.500 644.966 C 354.353 655.855, 336.563 665.490, 324.029 666.885 C 312.119 668.210, 308.819 672.506, 314.750 678.962 C 325.655 690.830, 355.019 678.845, 377.250 653.453 C 386.784 642.563, 381.912 632.765, 370.500 639.877 M 719.500 649.529 C 702.240 655.946, 693.100 657.523, 680.978 656.175 C 662.403 654.110, 657 655.058, 657 660.382 C 657 672.879, 698.585 677.196, 720.360 666.961 C 726.031 664.295, 736.820 654.566, 737.614 651.401 C 739.176 645.180, 732.934 644.535, 719.500 649.529 M 488.223 671.118 C 479.137 675.616, 466.619 692.758, 466.606 700.723 C 466.593 707.926, 474.486 711.711, 482.148 708.176 C 489.043 704.995, 505.730 688.347, 506.534 683.847 C 508.420 673.289, 498.196 666.182, 488.223 671.118 M 433.655 671.437 C 426.852 673.901, 413.984 691.875, 413.775 699.203 C 413.662 703.186, 417.792 707, 422.218 707 C 428.379 707, 444.185 693.656, 447.512 685.646 C 451.362 676.380, 443.177 667.987, 433.655 671.437 M 607.415 689.421 C 600.501 692.432, 597.764 700.887, 601.971 706.236 C 606.052 711.424, 627.168 724.645, 632.085 725.092 C 649.066 726.633, 646.525 711.520, 627.322 696.749 C 615.634 687.759, 613.249 686.881, 607.415 689.421 M 541.763 701.508 C 533.826 705.981, 534.172 712.752, 542.750 720.809 C 556.829 734.035, 568.772 738.703, 576 733.807 C 582.374 729.489, 581.620 726.612, 571.311 715.910 C 557.123 701.180, 549.198 697.318, 541.763 701.508 M 432.252 738.551 C 413.215 748.075, 406.878 776, 423.755 776 C 430.663 776, 446.721 764.322, 450.361 756.651 C 456.054 744.655, 444.045 732.652, 432.252 738.551 M 367.502 739.575 C 362.617 742.123, 361.235 743.849, 356.504 753.313 C 351.140 764.045, 350.838 767.544, 354.901 771.894 C 360.512 777.901, 368.943 774.749, 379.323 762.763 C 391.488 748.714, 382.771 731.614, 367.502 739.575 M 666.367 740.860 C 658.012 746.110, 657.640 753.064, 665.250 761.716 C 668.138 764.999, 673.991 771.970, 678.258 777.208 C 690.323 792.017, 701.776 796.886, 708.935 790.250 C 714.031 785.526, 713.549 782.978, 705.719 773.280 C 702.265 769.001, 697.256 762.412, 694.588 758.637 C 682.023 740.859, 674.205 735.934, 666.367 740.860 M 488.439 756.874 C 478.774 762.768, 469.148 781.114, 472.047 788.113 C 477.963 802.397, 507 785.099, 507 767.291 C 507 757.509, 496.792 751.780, 488.439 756.874 M 624.500 762.403 C 610.402 768.626, 616.241 783.441, 637.146 794.488 C 649.056 800.782, 658.787 797.653, 658.118 787.745 C 657.962 785.430, 638.845 764.994, 634.736 762.750 C 630.953 760.684, 628.576 760.603, 624.500 762.403 M 563.873 776.684 C 552.143 783.963, 556.461 793.115, 576.324 803.072 C 590.705 810.282, 594.910 810.774, 600.465 805.896 C 607.228 799.959, 604.338 794.076, 590 784.592 C 574.474 774.321, 569.907 772.939, 563.873 776.684"/>
    </g>
  </g>
</svg>
