<svg viewBox="0 0 74 74" width="74mm" height="74mm" xmlns="http://www.w3.org/2000/svg">
  <g transform="scale(0.074000)" fill-rule="evenodd">
    <g id="forma" fill="#CB3747">
      <path d="M 870.502 78.575 C 865.788 81.033, 864.709 82.260, 847.697 104.500 C 822.697 137.183, 819.183 141.674, 813.865 147.752 C 811.131 150.876, 800.067 165.147, 789.277 179.466 C 778.488 193.785, 762.161 214.725, 752.994 226 C 731.739 252.143, 728.849 256.208, 713.917 280.972 C 703.973 297.464, 697.775 306.213, 682.037 325.977 C 671.292 339.470, 659.260 355.008, 655.301 360.505 C 621.568 407.337, 615.431 410.796, 600.105 391.622 C 597.022 387.764, 590.449 380.309, 585.497 375.054 C 572.710 361.485, 551.229 336.776, 538.603 321.113 C 523.735 302.671, 479.894 241.593, 470.621 226.403 C 457.870 205.515, 402.662 121.994, 391.696 107 C 368.109 74.749, 357.974 79.497, 343.577 129.545 C 341.169 137.915, 337.443 153.500, 328.405 193 C 326.455 201.525, 322.907 215.250, 320.522 223.500 C 318.136 231.750, 313.415 248.625, 310.031 261 C 293.650 320.896, 291.861 325.006, 282.173 324.996 C 274.792 324.989, 270 319.996, 262.023 304 C 255.240 290.401, 217.911 227.249, 205.276 208 C 198.750 198.059, 178.700 171.333, 150.883 135.500 C 125.544 102.859, 107.651 93.014, 96.114 105.364 C 90.878 110.969, 88.530 140.100, 90.864 170.500 C 93.185 200.733, 97.320 259.789, 98.987 286.500 C 100.819 315.860, 102.890 351.363, 103.508 364 C 103.844 370.875, 105.011 384.890, 106.101 395.145 C 107.762 410.778, 107.903 415.220, 106.974 422.645 C 105.740 432.500, 106.191 437.363, 109.120 445.788 C 112.157 454.524, 113.693 462.049, 115.966 479.323 C 119.427 505.630, 127.983 544.641, 138.437 581.778 C 140.871 590.425, 145.799 609.223, 149.388 623.551 C 163.826 681.183, 178.790 718.762, 198.944 748 C 203.304 754.325, 212.925 768.500, 220.323 779.500 C 242.507 812.482, 265.834 832.099, 316 859.961 C 369.898 889.896, 393.793 898.241, 433.500 900.997 C 454.875 902.481, 483.259 906.583, 495.500 909.957 C 505.021 912.581, 508.180 912.989, 519 912.995 C 534.505 913.003, 569.497 916.285, 585.500 919.233 C 602.046 922.280, 615.410 922.120, 628 918.724 C 633.225 917.315, 645.375 914.127, 655 911.641 C 700.967 899.767, 768.268 860.038, 796.557 828.076 C 815.277 806.926, 831.251 778.142, 849.041 733.500 C 860.973 703.560, 870.514 663.438, 876.505 618 C 880.516 587.581, 883.550 571.038, 889.928 544.793 C 901.760 496.111, 906.572 451.626, 906.889 388 C 906.956 374.525, 907.679 355.400, 908.495 345.500 C 909.312 335.600, 910.435 315.125, 910.991 300 C 911.547 284.875, 912.660 263.725, 913.465 253 C 915.343 227.990, 915.372 209.195, 913.556 195.422 C 912.761 189.399, 911.398 177.277, 910.527 168.485 C 907.825 141.210, 897.633 98.229, 891.087 86.500 C 886.206 77.755, 878.077 74.626, 870.502 78.575"/>
    </g>
    <g id="detalles" fill="#1A1A1A">
      <path d="M 866.442 69.185 C 864.366 71.008, 860.650 75.650, 858.186 79.500 C 855.721 83.350, 851.160 89.650, 848.048 93.500 C 844.937 97.350, 841.322 102.075, 840.014 104 C 838.706 105.925, 835.958 109.359, 833.908 111.630 C 831.857 113.902, 828.464 118.402, 826.367 121.630 C 822.153 128.119, 811.491 141.379, 807.979 144.500 C 805.650 146.569, 793.716 162.215, 790.435 167.500 C 788.069 171.311, 782.605 178.330, 777.927 183.568 C 775.929 185.805, 772.607 190.305, 770.544 193.568 C 768.482 196.831, 765.291 201.075, 763.454 203 C 761.617 204.925, 759.076 207.928, 757.807 209.674 C 756.538 211.420, 752.032 217.045, 747.792 222.174 C 731.614 241.750, 718 259.662, 718 261.375 C 718 261.664, 716.716 263.835, 715.146 266.200 C 713.577 268.565, 710.943 272.975, 709.293 276 C 700.861 291.460, 693.716 302.256, 687.100 309.530 C 679.967 317.373, 672.984 326.371, 670.786 330.552 C 669.844 332.345, 667.749 334.755, 666.130 335.907 C 662.678 338.365, 654.213 349.580, 650.997 355.955 C 649.761 358.406, 646.374 362.906, 643.470 365.955 C 640.566 369.005, 635.167 376, 631.471 381.500 C 627.776 387, 623.768 392.625, 622.565 394 C 621.362 395.375, 619.852 397.738, 619.210 399.250 C 617.506 403.265, 614.467 402.836, 612.127 398.250 C 611.074 396.188, 609.265 393.643, 608.106 392.595 C 606.948 391.547, 606 390.311, 606 389.847 C 606 387.647, 597.726 377.533, 588.537 368.500 C 582.941 363, 575.132 354.675, 571.183 350 C 567.233 345.325, 561.414 338.525, 558.251 334.888 C 555.088 331.252, 549.370 324.277, 545.545 319.388 C 541.720 314.500, 536.631 308.250, 534.236 305.500 C 531.841 302.750, 526.930 296, 523.321 290.500 C 519.712 285, 515.060 278.449, 512.982 275.942 C 510.904 273.435, 505.999 266.685, 502.082 260.942 C 495.645 251.505, 490.492 244.234, 480.864 231 C 479.063 228.525, 475.584 224.093, 473.133 221.151 C 466.596 213.305, 464.502 209.975, 457.693 196.591 C 454.310 189.941, 450.039 182.512, 448.202 180.082 C 446.364 177.653, 440.983 169.103, 436.242 161.082 C 431.502 153.062, 425.734 144.250, 423.425 141.500 C 421.117 138.750, 417.194 133.048, 414.709 128.828 C 410.699 122.021, 401.539 109.068, 394.676 100.500 C 393.354 98.850, 391.337 95.656, 390.194 93.403 C 388.287 89.644, 379.489 80.669, 374.554 77.449 C 370.809 75.005, 357.352 76.696, 355.073 79.898 C 352.994 82.817, 348 94.641, 348 96.643 C 348 97.763, 346.963 100.329, 341.997 111.500 C 341.508 112.600, 340.336 116.200, 339.394 119.500 C 338.451 122.800, 336.858 128.143, 335.854 131.373 C 334.849 134.604, 333.539 140.004, 332.942 143.373 C 332.345 146.743, 331.389 150.850, 330.819 152.500 C 330.249 154.150, 329.168 159.380, 328.416 164.123 C 327.664 168.865, 325.936 175.840, 324.576 179.623 C 323.216 183.405, 321.426 191.051, 320.599 196.613 C 319.771 202.175, 318.403 208.475, 317.558 210.613 C 315.519 215.772, 308.430 240.440, 307.531 245.500 C 307.140 247.700, 305.097 254.900, 302.990 261.500 C 300.883 268.100, 298.372 277.325, 297.411 282 C 296.449 286.675, 295.374 290.950, 295.022 291.500 C 294.029 293.049, 289.396 308.655, 287.452 317 C 283.967 331.954, 282.981 331.208, 268.933 302.985 C 264.685 294.451, 259.094 284.326, 256.508 280.485 C 253.922 276.643, 248.857 268.100, 245.253 261.500 C 241.648 254.900, 236.896 246.575, 234.691 243 C 232.487 239.425, 228.242 232.450, 225.258 227.500 C 222.274 222.550, 218.818 216.925, 217.577 215 C 216.337 213.075, 213.356 208.350, 210.953 204.500 C 208.549 200.650, 202.964 192.808, 198.541 187.073 C 182.046 165.683, 171.432 151.797, 169.208 148.696 C 167.947 146.938, 162.097 139.921, 156.208 133.101 C 150.318 126.282, 143.189 117.708, 140.365 114.048 C 129.971 100.576, 115.706 89.409, 110.238 90.463 C 108.182 90.860, 104.599 91.299, 102.275 91.438 C 96.705 91.774, 86.977 98.254, 85.879 102.361 C 82.521 114.916, 82.632 159.181, 86.118 197.500 C 86.668 203.550, 87.531 216.150, 88.035 225.500 C 88.539 234.850, 89.409 247.450, 89.968 253.500 C 90.527 259.550, 91.465 272.825, 92.051 283 C 92.638 293.175, 93.741 311.625, 94.502 324 C 95.263 336.375, 96.162 353.025, 96.499 361 C 97.142 376.231, 99.167 397.096, 101.533 412.874 C 103.104 423.355, 102.685 425.077, 97.970 427.515 C 95.038 429.032, 93.978 432.250, 96 433.500 C 96.550 433.840, 97 435.426, 97 437.024 C 97 438.906, 97.704 440.307, 99 441 C 100.100 441.589, 101 442.817, 101 443.730 C 101 444.644, 102.059 446.540, 103.352 447.945 C 105.461 450.236, 105.978 452.789, 108.347 472.618 C 110.905 494.035, 116.371 524.257, 119.538 534.500 C 120.388 537.250, 122.192 544.675, 123.547 551 C 124.901 557.325, 127.160 566.550, 128.566 571.500 C 129.972 576.450, 131.763 582.750, 132.547 585.500 C 137.247 602.001, 138.292 605.947, 139.036 610 C 139.491 612.475, 141.072 619, 142.551 624.500 C 144.029 630, 145.635 636.525, 146.118 639 C 146.601 641.475, 147.865 646.200, 148.927 649.500 C 149.989 652.800, 151.975 659.325, 153.340 664 C 156.095 673.430, 161.412 688.309, 165.313 697.500 C 166.714 700.800, 169.643 707.775, 171.823 713 C 174.003 718.225, 176.933 724.525, 178.333 727 C 179.734 729.475, 182.309 734.200, 184.056 737.500 C 185.803 740.800, 189.559 746.650, 192.403 750.500 C 202.225 763.799, 208.317 772.685, 222.371 794.218 C 226.578 800.663, 232.153 807.946, 234.760 810.401 C 246.798 821.740, 261.911 834.433, 266 836.639 C 273.205 840.525, 280.938 845.572, 283.826 848.272 C 285.297 849.647, 287.850 851.504, 289.500 852.399 C 291.150 853.293, 293.175 854.452, 294 854.974 C 299.279 858.312, 310.972 865, 311.529 865 C 311.897 865, 315.866 867.144, 320.349 869.765 C 324.832 872.385, 330.525 875.385, 333 876.432 C 335.475 877.478, 339.194 879.635, 341.265 881.226 C 343.335 882.816, 347.519 884.974, 350.561 886.021 C 353.604 887.068, 357.759 888.806, 359.796 889.885 C 361.833 890.963, 366.650 892.942, 370.500 894.282 C 374.350 895.623, 381.325 898.174, 386 899.952 C 390.675 901.729, 397.200 903.595, 400.500 904.097 C 403.800 904.600, 409.875 905.536, 414 906.179 C 418.125 906.822, 426.900 907.432, 433.500 907.534 C 441.851 907.663, 448.224 908.380, 454.457 909.890 C 460.603 911.380, 464.777 911.856, 467.759 911.409 C 472.871 910.642, 488.393 913.925, 497.125 917.620 C 500.219 918.929, 503.767 920, 505.009 920 C 506.251 920, 509.024 920.526, 511.170 921.169 C 514.580 922.191, 515.753 922.056, 520.472 920.100 C 524.663 918.363, 526.320 918.101, 527.871 918.931 C 528.969 919.519, 531.586 919.997, 533.684 919.993 C 535.783 919.990, 540.875 920.423, 545 920.957 C 551.213 921.761, 562.783 922.939, 580.280 924.549 C 581.809 924.690, 583.609 925.253, 584.280 925.800 C 584.951 926.347, 587.750 927.022, 590.500 927.300 C 593.250 927.577, 599.100 928.290, 603.500 928.884 C 611.254 929.930, 622.070 928.525, 625.500 926.026 C 626.050 925.626, 629.801 924.770, 633.836 924.125 C 637.871 923.480, 643.036 922.002, 645.313 920.841 C 647.589 919.679, 652.614 918.374, 656.477 917.941 C 664.658 917.023, 676.571 913.293, 686.500 908.539 C 722.323 891.388, 744.264 879.048, 756.392 869.231 C 757.983 867.943, 762.879 864.816, 767.273 862.282 C 784.023 852.620, 812.434 822.704, 822.621 804 C 823.969 801.525, 826.128 797.700, 827.418 795.500 C 831.797 788.037, 849 752.894, 849 751.412 C 849 751.119, 851.407 745.169, 854.348 738.190 C 857.289 731.210, 860.697 722.125, 861.920 718 C 863.143 713.875, 865.441 706.225, 867.027 701 C 868.613 695.775, 870.601 687.900, 871.446 683.500 C 872.290 679.100, 873.634 673.025, 874.432 670 C 877.262 659.272, 878.946 650.310, 881.010 635 C 882.159 626.475, 884.022 613.200, 885.149 605.500 C 886.276 597.800, 888.049 585.691, 889.087 578.591 C 890.126 571.491, 891.862 563.313, 892.945 560.417 C 894.028 557.522, 895.417 552.081, 896.030 548.326 C 896.644 544.572, 898.033 538.645, 899.117 535.155 C 900.201 531.665, 901.514 526.715, 902.035 524.155 C 902.557 521.595, 903.912 515, 905.048 509.500 C 906.183 504, 907.516 493.875, 908.009 487 C 908.501 480.125, 909.365 470.450, 909.928 465.500 C 911.971 447.543, 913.112 423.799, 913.581 389.500 C 913.845 370.250, 914.258 353.825, 914.500 353 C 915.433 349.817, 916.961 325.567, 917.494 305.496 C 917.800 293.948, 918.485 278.650, 919.016 271.500 C 920.540 250.962, 922.203 226.047, 922.486 219.500 C 922.752 213.365, 922.176 207.483, 919.499 189 C 918.662 183.225, 917.738 174, 917.445 168.500 C 916.873 157.764, 915.942 151.388, 912.993 138 C 911.964 133.325, 910.589 126.802, 909.939 123.504 C 909.288 120.206, 907.686 114.230, 906.378 110.223 C 905.070 106.216, 904 102.289, 904 101.496 C 904 100.703, 903.145 98.129, 902.100 95.777 C 901.055 93.425, 899.648 89.025, 898.975 86 C 896.064 72.935, 891.903 68.846, 880.580 67.923 C 876.686 67.606, 872.762 67.014, 871.859 66.608 C 870.734 66.102, 869.031 66.912, 866.442 69.185 M 871.097 111.400 C 866.696 115.941, 867.463 118.329, 874.024 120.508 C 881.455 122.976, 882.850 120.673, 879.027 112.250 C 876.694 107.111, 875.389 106.972, 871.097 111.400 M 369.136 119.750 C 368.246 121.417, 363.898 136.629, 360.632 149.500 C 359.794 152.800, 358.383 160, 357.495 165.500 C 356.607 171, 354.726 179.045, 353.315 183.378 C 351.905 187.711, 350.379 194.566, 349.926 198.613 C 349.472 202.659, 347.728 209.968, 346.050 214.854 C 344.373 219.740, 343 224.413, 343 225.238 C 343 226.064, 342.075 229.611, 340.943 233.120 C 339.812 236.629, 338.205 242.875, 337.371 247 C 336.115 253.212, 330.999 268.797, 326.934 278.797 C 326.420 280.060, 326 282.162, 326 283.466 C 326 287.046, 323.111 297.635, 319.976 305.544 C 318.441 309.418, 316.868 314.818, 316.482 317.544 C 315.043 327.705, 312.015 338.725, 308.664 346 C 305.360 353.174, 302 364.215, 302 367.901 C 302 371.179, 295.150 378, 291.857 378 C 284.612 378, 277.583 373.031, 271.698 363.750 C 269.138 359.713, 261.645 361.308, 247.876 368.821 C 244.919 370.435, 240.925 372.561, 239 373.546 C 237.075 374.531, 234.825 375.689, 234 376.120 C 211.532 387.845, 175.608 410.545, 155.142 425.950 C 148.895 430.653, 142.265 435.514, 140.410 436.753 C 136.865 439.120, 135.277 442.799, 136.527 445.748 C 136.935 446.711, 137.615 450.875, 138.037 455 C 139.222 466.589, 142.910 491.719, 144.568 499.500 C 148.662 518.720, 152.004 532.946, 153.378 537 C 154.216 539.475, 155.211 543.525, 155.588 546 C 156.426 551.499, 158.530 559.887, 163.993 579.500 C 170.122 601.509, 172.464 610.431, 177.507 631 C 184.204 658.309, 189.156 674.832, 193.627 684.780 C 194.932 687.683, 196 690.315, 196 690.629 C 196 690.942, 196.641 692.616, 197.425 694.349 C 198.208 696.082, 200.148 700.650, 201.735 704.500 C 205.571 713.809, 216.208 730.850, 229.508 749 C 232.934 753.675, 236.308 758.625, 237.005 760 C 246.137 778.015, 270.944 805.636, 286.815 815.460 C 289.517 817.132, 294.910 820.750, 298.801 823.500 C 317.476 836.701, 322.331 839.850, 336.389 847.889 C 350.796 856.128, 362.596 862, 364.745 862 C 366.858 862, 378.466 866.108, 379.944 867.379 C 380.800 868.116, 383.750 869.265, 386.500 869.935 C 389.250 870.604, 392.894 872.011, 394.598 873.063 C 399.160 875.879, 411.756 878.034, 426.500 878.522 C 434.012 878.771, 442.033 879.640, 445.500 880.581 C 448.800 881.476, 454.961 882.186, 459.192 882.157 C 463.422 882.129, 468.372 882.553, 470.192 883.098 C 472.011 883.644, 479.035 885.191, 485.799 886.536 C 492.564 887.882, 498.919 889.422, 499.923 889.959 C 505.591 892.992, 511.081 893.143, 515.773 890.393 C 520.568 887.583, 534.607 887.379, 541.550 890.019 C 542.969 890.559, 546.043 891, 548.381 891 C 554.163 891, 583.475 895.649, 585.910 896.952 C 589.427 898.834, 608.265 898.242, 614.212 896.062 C 617.121 894.997, 621.750 893.813, 624.500 893.431 C 627.250 893.050, 632.200 891.939, 635.500 890.963 C 638.800 889.986, 644.200 888.887, 647.500 888.519 C 653.230 887.881, 677.747 880.222, 683 877.429 C 684.375 876.698, 691.115 873.347, 697.979 869.982 C 704.842 866.618, 710.917 863.493, 711.479 863.039 C 712.040 862.585, 715.172 860.775, 718.438 859.017 C 724.572 855.716, 729.145 852.795, 742 843.968 C 746.125 841.136, 751.323 837.744, 753.551 836.431 C 760.208 832.507, 780.375 812.616, 788.768 801.695 C 797.487 790.351, 816 757.973, 816 754.069 C 816 753.529, 817.262 750.931, 818.804 748.294 C 820.346 745.657, 822.674 740.575, 823.978 737 C 826.635 729.714, 832.569 715.427, 834.052 712.746 C 834.585 711.782, 835.897 707.507, 836.966 703.246 C 838.036 698.986, 840.002 691.450, 841.334 686.500 C 849.227 657.186, 854.907 626.608, 854.985 613 C 854.999 610.525, 855.458 606.893, 856.003 604.929 C 856.549 602.965, 857.676 597.115, 858.509 591.929 C 859.341 586.743, 860.448 580.250, 860.968 577.500 C 861.488 574.750, 862.796 567.550, 863.875 561.500 C 864.954 555.450, 866.969 545.775, 868.352 540 C 872.761 521.595, 872.105 518.845, 864.159 522.428 L 860.146 524.238 850.823 515.837 C 845.695 511.217, 837.728 504.526, 833.117 500.968 C 828.507 497.411, 822.207 492.545, 819.117 490.156 C 808.886 482.244, 784.875 468, 781.768 468 C 780.893 468, 768.859 460.936, 766.819 459.225 C 764.186 457.016, 757.608 453.546, 744 447.185 C 741.525 446.029, 735.982 443.947, 731.682 442.561 C 727.382 441.174, 721.757 438.924, 719.182 437.562 C 714.349 435.005, 710.774 433.907, 693.190 429.580 C 687.519 428.185, 682.532 426.829, 682.107 426.566 C 681.683 426.304, 676.197 425.606, 669.918 425.015 C 663.638 424.424, 654.982 423.024, 650.683 421.903 C 641.268 419.449, 641.619 419.237, 636.071 430.755 C 633.755 435.565, 631.520 440.175, 631.105 441 C 629.253 444.682, 618.131 447.638, 616.438 444.899 C 616.058 444.285, 614.524 444.045, 612.966 444.357 C 611.166 444.717, 609.745 444.397, 608.965 443.458 C 608.299 442.656, 606.955 442, 605.976 442 C 604.998 442, 603.266 440.538, 602.128 438.750 C 600.990 436.962, 597.822 432.350, 595.088 428.500 C 592.353 424.650, 588.993 418.464, 587.620 414.754 C 584.565 406.498, 575.224 393.191, 564.978 382.500 C 560.761 378.100, 554.164 370.900, 550.317 366.500 C 546.471 362.100, 540.061 355.250, 536.074 351.279 C 532.086 347.307, 526.726 341.377, 524.162 338.101 C 521.598 334.825, 515.867 327.725, 511.427 322.323 C 506.987 316.920, 499.809 307.325, 495.477 301 C 491.144 294.675, 486.227 287.548, 484.549 285.162 C 482.872 282.776, 481.036 280.076, 480.469 279.162 C 474.321 269.250, 461.364 251.043, 450.824 237.500 C 441.733 225.820, 435.519 216.334, 430.532 206.519 C 427.609 200.766, 423.217 193.233, 420.772 189.780 C 418.327 186.326, 413.669 179, 410.421 173.500 C 407.173 168, 402.418 160.877, 399.855 157.671 C 397.292 154.465, 393.573 148.473, 391.591 144.354 C 389.608 140.236, 386.719 135.208, 385.169 133.183 C 383.620 131.157, 380.418 126.912, 378.055 123.750 C 373.627 117.826, 370.832 116.573, 369.136 119.750 M 113.085 131.397 C 112.210 132.451, 112.199 136.560, 113.038 148.147 C 113.649 156.591, 114.503 168.475, 114.935 174.556 C 115.659 184.737, 116.995 190.077, 118.785 189.949 C 120.281 189.842, 148.006 170.118, 147.985 169.175 C 147.944 167.303, 116.435 130.034, 114.872 130.010 C 114.527 130.004, 113.723 130.629, 113.085 131.397 M 847.854 143.283 C 839.447 147.149, 838.606 152.917, 845.769 157.579 C 848.371 159.272, 853.094 162.422, 856.264 164.579 C 859.434 166.736, 864.495 170.075, 867.511 172 C 870.528 173.925, 876.810 178.121, 881.471 181.325 C 889.513 186.853, 892.915 187.811, 891.498 184.149 C 891.147 183.242, 890.465 176.261, 889.982 168.636 C 889.039 153.769, 888.014 151, 883.450 151 C 882.218 151, 878.125 149.693, 874.355 148.095 C 862.681 143.148, 852.262 141.256, 847.854 143.283 M 816.481 180.463 C 811.832 187.467, 809.228 184.497, 836.601 203.415 C 843.695 208.318, 853.550 215.545, 858.500 219.476 C 863.450 223.406, 871.325 229.662, 876 233.377 C 893.351 247.165, 894.305 246.643, 894.419 223.296 C 894.499 206.808, 894.460 206.494, 892.336 206.192 C 890.865 205.982, 889.962 206.544, 889.518 207.943 C 887.609 213.957, 889.488 214.849, 848 188.207 C 824.084 172.848, 821.893 172.310, 816.481 180.463 M 382.986 185.517 C 382.234 186.423, 380.018 187.923, 378.060 188.852 C 371.282 192.067, 373.327 206, 380.575 206 C 382.407 206, 385.050 206.521, 386.449 207.159 C 388.538 208.110, 389.321 208.020, 390.833 206.651 C 392.108 205.497, 393.607 205.171, 395.711 205.592 C 399.640 206.378, 402 203.271, 402 197.312 C 402 191.742, 397.676 186.526, 392.243 185.542 C 390.184 185.169, 387.567 184.640, 386.426 184.367 C 385.211 184.077, 383.785 184.554, 382.986 185.517 M 156.861 200.461 C 152.262 203.465, 145.722 208.062, 142.327 210.677 C 138.933 213.292, 133.308 217.101, 129.827 219.142 C 126.347 221.184, 122.446 223.682, 121.158 224.695 L 118.816 226.536 120.456 245.518 C 122.578 270.090, 121.602 269.313, 137.173 258.845 C 143.999 254.255, 153.840 247.884, 159.042 244.687 C 180.667 231.396, 188.508 225.159, 187.689 221.898 C 186.412 216.809, 169.157 195, 166.408 195 C 165.756 195, 161.460 197.457, 156.861 200.461 M 793.804 209.750 C 792.976 210.713, 790.158 214.875, 787.543 219 C 784.927 223.125, 781.887 227.479, 780.788 228.676 C 779.690 229.873, 779.105 231.361, 779.489 231.983 C 780.215 233.156, 790.148 238, 791.829 238 C 792.762 238, 807.953 245.693, 817 250.747 C 819.475 252.129, 828.025 256.866, 836 261.273 C 843.975 265.680, 852.750 270.740, 855.500 272.517 C 858.250 274.294, 864.471 278.168, 869.324 281.124 C 874.177 284.081, 880.241 287.784, 882.799 289.353 C 889.509 293.469, 890.251 292.600, 890.388 280.464 L 890.500 270.505 881.898 265.946 C 872.477 260.953, 863.700 254.938, 851.661 245.223 C 847.350 241.744, 838.800 235.473, 832.661 231.288 C 826.523 227.103, 819.700 222.266, 817.500 220.539 C 804.935 210.675, 796.365 206.773, 793.804 209.750 M 365.726 230.037 C 358.733 234.700, 357.156 240.818, 361.067 248.125 C 364.237 254.048, 383.933 254.730, 386.988 249.022 C 393.984 235.951, 378.112 221.779, 365.726 230.037 M 410.923 233.958 L 406.762 237.917 407.180 244.479 C 407.803 254.278, 409.392 255.500, 421.499 255.500 C 433.522 255.500, 435.201 254.241, 435.798 244.771 C 436.653 231.211, 420.975 224.396, 410.923 233.958 M 198.767 254.041 C 195.214 256.969, 170.872 273.303, 152.241 285.261 C 147.304 288.429, 139.093 295.064, 133.995 300.005 L 124.725 308.988 125.441 318.736 C 126.136 328.203, 127.040 331.020, 129.372 330.981 C 130.841 330.957, 141.244 324.087, 158 312.077 C 185.422 292.422, 201.338 283.200, 213.205 280.092 C 219.850 278.352, 222.183 276.135, 220.401 273.253 C 219.805 272.289, 217.831 268.800, 216.014 265.500 C 207.673 250.353, 205.219 248.723, 198.767 254.041 M 755.997 257.250 C 744.446 273.261, 743.614 275.822, 749.250 278.031 C 755.480 280.473, 812.511 308.187, 814 309.496 C 815.423 310.748, 818.609 312.490, 841 324.256 C 862.150 335.370, 870.580 340.094, 881.498 346.952 C 885.246 349.306, 886.737 347.123, 887.480 338.194 C 887.832 333.962, 888.354 329.261, 888.640 327.746 C 889.044 325.609, 888.558 324.489, 886.472 322.746 C 884.993 321.511, 882.089 319.038, 880.020 317.250 C 877.951 315.462, 875.779 314, 875.195 314 C 874.610 314, 868.966 310.738, 862.652 306.750 C 839.983 292.434, 830.223 286.793, 809.500 276.028 C 801.800 272.028, 795.050 268.429, 794.500 268.030 C 792.663 266.698, 771.254 258, 769.811 258 C 769.029 258, 766.864 256.875, 765 255.500 C 760.439 252.135, 759.565 252.305, 755.997 257.250 M 351.411 272.832 C 343.967 277.513, 341.929 285.020, 345.957 292.917 C 348.400 297.704, 349.402 298.105, 360.500 298.731 C 371.969 299.378, 373.814 298.227, 374.673 289.894 C 376.130 275.742, 362.584 265.806, 351.411 272.832 M 444.778 276.901 C 437.932 280.099, 437 281.552, 437 289.020 C 437 298.533, 438.736 300.532, 447.719 301.362 C 460.999 302.589, 465.288 300.007, 466.408 290.112 C 467.711 278.590, 456.206 271.562, 444.778 276.901 M 234.539 301.937 C 233.846 303.058, 223.610 308, 221.982 308 C 218.878 308, 202.823 317.469, 186.503 328.927 C 179.901 333.561, 165.725 343.247, 155 350.451 C 127.399 368.989, 129 367.633, 129 372.476 C 129 388.762, 132.991 404.941, 136.402 402.483 C 147.484 394.497, 176.478 375.539, 180 373.976 C 181.375 373.366, 183.400 372.035, 184.500 371.017 C 185.600 370, 191.450 366.578, 197.500 363.412 C 203.550 360.246, 214.641 354.433, 222.147 350.495 C 229.653 346.557, 238.181 342.308, 241.098 341.053 C 246.617 338.679, 254 334.342, 254 333.474 C 254 332.316, 239.653 304.350, 238.238 302.750 C 236.505 300.791, 235.398 300.548, 234.539 301.937 M 728.801 302.750 C 727.970 303.712, 726.009 306.900, 724.442 309.833 C 722.874 312.766, 718.973 318.132, 715.772 321.759 C 709.564 328.791, 709.289 329.809, 713.080 331.720 C 718.951 334.679, 733.259 340.356, 744 343.988 C 754.417 347.510, 764.566 351.316, 770 353.737 C 777.043 356.876, 820.646 378.682, 825.500 381.493 C 831.002 384.680, 832.180 385.494, 846 395.651 C 851.225 399.491, 860.810 406.112, 867.300 410.364 C 873.790 414.617, 879.350 418.749, 879.657 419.548 C 880.372 421.412, 883.619 421.434, 884.331 419.580 C 885.181 417.364, 885.449 374.536, 884.621 373.195 C 883.605 371.552, 880.484 371.698, 876.887 373.559 C 873.944 375.080, 873.783 375.037, 870.147 371.752 C 860.368 362.917, 843.970 354.163, 769.500 318.020 C 754.037 310.515, 732.476 301, 730.932 301 C 730.590 301, 729.631 301.788, 728.801 302.750 M 476.274 321.636 C 464.799 327.293, 465.029 344.194, 476.608 346.161 C 492.180 348.807, 500.513 342.704, 498.343 330.244 C 497.003 322.554, 484.391 317.634, 476.274 321.636 M 395.178 338.430 C 387.807 345.325, 386.235 362.042, 392.526 366.642 C 396.586 369.611, 412.860 371.156, 414.722 368.750 C 417.833 364.731, 418.128 358.650, 415.616 350.324 C 410.594 333.675, 404.225 329.968, 395.178 338.430 M 334 339.001 C 326.656 342.742, 324.061 350.316, 327.418 358.214 C 330.883 366.366, 350.736 367.911, 355.650 360.411 C 363.908 347.808, 347.862 331.939, 334 339.001 M 440.500 347.967 C 431.701 351.665, 428.744 360.643, 433.408 369.500 C 434.277 371.150, 434.990 372.985, 434.994 373.578 C 434.997 374.170, 436.800 378.805, 439 383.878 C 441.200 388.950, 443 393.664, 443 394.354 C 443 399.214, 448.324 406.162, 451.580 405.551 C 453.631 405.166, 456.295 405.514, 458.569 406.465 C 466.604 409.822, 469.620 407.480, 468.687 398.607 C 464.953 363.102, 453.491 342.508, 440.500 347.967 M 689.457 354.863 C 685.540 357.252, 681.918 361.594, 677.402 369.315 C 675.413 372.717, 671.445 378.200, 668.584 381.500 C 653.933 398.401, 654.192 399.188, 675 400.977 C 681.325 401.521, 690.086 402.906, 694.469 404.054 C 698.852 405.203, 704.252 406.528, 706.469 407 C 720.178 409.919, 725.886 411.477, 737.983 415.602 C 754.940 421.384, 766.102 426.595, 782 436.151 C 788.875 440.284, 799 445.866, 804.500 448.555 C 810 451.243, 816.871 454.919, 819.769 456.722 C 822.668 458.525, 825.233 460, 825.469 460 C 826.446 460, 834.956 466.202, 841.500 471.683 C 845.350 474.908, 852.325 480.577, 857 484.282 C 861.675 487.986, 867.650 492.897, 870.277 495.196 C 876.820 500.918, 877.618 499.937, 878.984 484.500 C 879.567 477.900, 880.512 468.079, 881.083 462.675 C 882.229 451.818, 881.672 449.958, 877.516 450.752 C 875.635 451.112, 873.877 450.181, 870.165 446.862 C 867.481 444.463, 857.909 437.569, 848.893 431.543 C 839.877 425.517, 828.450 417.615, 823.500 413.982 C 811.587 405.241, 811.051 404.934, 785 391.953 C 772.625 385.786, 761.228 379.674, 759.673 378.371 C 758.119 377.067, 755.543 376, 753.950 376 C 752.357 376, 749.129 375.124, 746.777 374.054 C 744.425 372.984, 739.918 371.349, 736.762 370.421 C 733.606 369.493, 730.513 368.119, 729.890 367.367 C 729.266 366.615, 727.653 366, 726.306 366 C 724.958 366, 721.976 364.907, 719.678 363.572 C 704.774 354.911, 694.319 351.898, 689.457 354.863 M 511.235 357.251 C 503.886 359.607, 501.317 364.378, 502.462 373.544 C 503.331 380.498, 505.007 381.687, 515.551 382.833 C 528.421 384.230, 532 381.565, 532 370.584 C 532 360.028, 522.200 353.735, 511.235 357.251 M 246.939 386.214 C 239.659 391.764, 239.299 403.460, 246.306 406.818 C 258.317 412.575, 269 408.550, 269 398.268 C 269 385.746, 256.508 378.920, 246.939 386.214 M 313.605 389.568 C 304.616 392.862, 302.006 406.389, 309.364 411.543 C 313.416 414.380, 329.426 413.545, 331.927 410.365 C 340.663 399.260, 327.605 384.438, 313.605 389.568 M 363.216 407.073 C 357.728 411.108, 356.344 415.804, 357.887 425.148 C 359.794 436.696, 361.001 439.232, 365.663 441.487 C 367.953 442.594, 370.653 444.464, 371.663 445.643 C 374.687 449.170, 380.505 449.430, 384.019 446.195 L 386.946 443.500 386.134 430 C 385.205 414.564, 384.114 411.544, 377.814 406.980 C 372.448 403.093, 368.594 403.118, 363.216 407.073 M 547.071 408.961 C 534.157 414.075, 534.109 430.173, 547 432.810 C 556.233 434.699, 563.120 433.261, 565.248 429 C 571.861 415.763, 560.770 403.536, 547.071 408.961 M 419.743 414.750 C 417.800 416.262, 415.376 417.999, 414.355 418.609 C 410.814 420.727, 412.347 432.354, 420.179 462.790 C 421.350 467.344, 422.882 468.647, 429.500 470.718 C 450.350 477.243, 452.552 460.725, 435.739 423.933 C 430.402 412.256, 426.111 409.792, 419.743 414.750 M 500.795 423.524 C 495.352 426.528, 494.128 443.541, 498.900 449.867 C 501.859 453.790, 518.322 454.550, 521.082 450.891 C 530.007 439.059, 513.352 416.592, 500.795 423.524 M 282.500 428.493 C 278.100 429.260, 270.132 431.235, 264.794 432.882 C 259.456 434.528, 250.456 436.406, 244.794 437.054 C 239.132 437.702, 234.050 438.568, 233.500 438.978 C 232.950 439.388, 231.150 440.042, 229.500 440.430 C 222.174 442.153, 220.370 445.895, 223.397 453.093 C 226.554 460.600, 247.181 461.719, 268 455.512 C 286.595 449.967, 292.728 449.014, 310.500 448.901 C 329.756 448.780, 330.986 448.503, 333.227 443.776 C 335.347 439.301, 333.793 434.405, 329.321 431.474 C 324.499 428.315, 294.487 426.404, 282.500 428.493 M 172.695 432.449 C 161.570 438.614, 159.779 446.310, 168.229 451.645 C 174.722 455.744, 189.643 453.589, 194.467 447.857 C 204.433 436.013, 187.671 424.151, 172.695 432.449 M 687 450 C 685.625 450.440, 682.823 450.845, 680.773 450.900 C 674.183 451.077, 671.003 464.432, 676.292 469.720 C 678.292 471.720, 697.103 472.277, 699 470.392 C 703.141 466.279, 701.202 453.654, 696.024 451.012 C 691.802 448.858, 690.885 448.756, 687 450 M 568.169 452.464 C 558.326 455.584, 554.057 469.715, 561.487 474.583 C 568.181 478.970, 583.136 478.571, 585.530 473.942 C 592.171 461.100, 581.719 448.170, 568.169 452.464 M 632.247 455.732 C 625.104 456.375, 620.879 465.292, 623.923 473.299 C 625.287 476.884, 636.087 479.144, 644.405 477.584 C 650.683 476.406, 652.906 468.549, 649.015 461.290 C 645.844 455.373, 643.792 454.693, 632.247 455.732 M 717.016 457.024 C 709.489 458.793, 705.893 471.321, 711.346 476.774 C 714.662 480.090, 728.078 479.813, 731.845 476.350 C 742.491 466.564, 732.397 453.409, 717.016 457.024 M 475.771 462.501 C 467.327 466.993, 466.505 471.272, 471.930 482.500 C 473.525 485.800, 475.341 490.750, 475.966 493.500 C 477.951 502.237, 479.999 505.351, 484.333 506.228 C 486.442 506.654, 489.129 507.678, 490.306 508.502 C 498.410 514.178, 503 509.181, 503 494.682 C 503 469.114, 490.690 454.565, 475.771 462.501 M 184.913 469.765 C 183.491 470.719, 178.451 474.114, 173.714 477.309 L 165.101 483.117 165.301 487.758 C 165.708 497.241, 181.440 503.095, 190.047 496.966 C 191.618 495.848, 195.343 493.854, 198.325 492.535 C 207.623 488.423, 210.296 481.691, 205.524 474.399 C 202.201 469.320, 189.751 466.521, 184.913 469.765 M 328.500 478.052 C 323.550 478.466, 312.750 479.776, 304.500 480.965 C 293.755 482.513, 284.355 483.145, 271.361 483.192 C 253.728 483.256, 253.088 483.331, 248.451 485.879 C 240.983 489.982, 239.112 499.846, 244.516 506.622 L 246.811 509.500 265.541 509.249 C 275.842 509.111, 288.597 508.326, 293.885 507.504 C 324.030 502.819, 341.432 502.424, 377.688 505.603 C 386.232 506.352, 386.747 507.613, 391.547 539.500 C 394.825 561.273, 398.209 577.787, 402.102 591 C 403.804 596.775, 405.853 603.975, 406.656 607 C 407.460 610.025, 409.716 618.125, 411.670 625 C 413.624 631.875, 416.300 641.636, 417.618 646.690 C 425.353 676.365, 435.871 703.712, 441.629 709.121 C 443.619 710.991, 444.225 711.081, 447.516 709.995 C 450.200 709.109, 451.481 709.081, 452.292 709.892 C 458.232 715.832, 474.482 690.818, 486.897 656.624 C 494.885 634.621, 495.363 634.365, 501.506 648.787 C 507.425 662.682, 514.057 675.350, 525.204 694.056 C 530.921 703.650, 536.462 713.479, 537.518 715.898 C 540.530 722.800, 545.960 725.386, 551.669 722.637 C 553.226 721.887, 555.813 720.649, 557.418 719.887 C 563.355 717.066, 563.249 717.611, 566.934 671 C 567.304 666.325, 568.199 661.416, 568.924 660.090 C 569.648 658.765, 570.450 653.815, 570.705 649.090 C 571.729 630.129, 574.427 629.453, 581.033 646.503 C 586.108 659.602, 601.842 691.592, 610.013 705.426 C 612.845 710.220, 615.777 715.616, 616.529 717.416 C 618.603 722.378, 626.160 725.138, 629.384 722.109 C 630.619 720.949, 632.500 719.990, 633.564 719.978 C 637.666 719.931, 640.280 716.623, 640.353 711.388 C 640.478 702.357, 634.908 644.763, 629.967 604 C 625.445 566.693, 623.771 554.583, 620.317 534.181 C 619.175 527.440, 619.041 524.559, 619.832 523.768 C 624.077 519.523, 703.942 518.946, 723.858 523.016 C 726.411 523.538, 733.224 524.429, 738.999 524.997 L 749.497 526.029 753.499 523.205 C 756.588 521.025, 757.509 519.711, 757.541 517.441 C 757.563 515.823, 757.931 513.759, 758.358 512.853 C 758.935 511.631, 757.800 509.956, 753.953 506.353 L 748.772 501.500 734.136 500.328 C 726.086 499.683, 711.400 498.630, 701.500 497.987 C 691.600 497.344, 682.600 496.296, 681.500 495.659 C 680.181 494.895, 672.180 494.441, 658 494.326 C 621.255 494.028, 618.607 494.077, 614.610 495.129 C 612.471 495.692, 607.577 496.258, 603.735 496.387 C 590.559 496.828, 589.819 501.479, 596.638 541 C 600.063 560.847, 601.653 571.644, 602.974 584 C 603.591 589.775, 604.982 601.506, 606.066 610.069 C 608.313 627.836, 608.960 641.866, 607.539 642.075 C 606.345 642.250, 601.602 633.187, 599.387 626.500 C 597.406 620.517, 590.063 602.914, 588.958 601.500 C 588.529 600.950, 588.025 599.150, 587.838 597.500 C 587.555 594.986, 587.014 594.455, 584.500 594.221 C 582.850 594.067, 579.573 593.237, 577.217 592.376 C 572.001 590.468, 571.687 590.674, 564.876 600.471 C 562.188 604.337, 558.461 609.621, 556.594 612.214 C 551.380 619.456, 543.001 649.304, 543 660.639 C 543 662.366, 542.181 664.790, 541.180 666.026 L 539.360 668.273 537.180 665.502 C 535.981 663.977, 535 662.155, 535 661.452 C 535 660.359, 531.594 653.200, 521.700 633.500 C 520.595 631.300, 517.792 624.596, 515.470 618.602 C 509.618 603.496, 504.925 598, 497.879 598 C 487.182 598, 480.562 607.582, 466.440 643.500 C 461.025 657.273, 453.956 670.500, 452.010 670.500 C 450.307 670.500, 443.199 651.765, 439.489 637.500 C 438.202 632.550, 436.221 625.575, 435.087 622 C 433.953 618.425, 433.020 614.352, 433.013 612.950 C 433.006 611.548, 432.596 609.972, 432.101 609.450 C 431.179 608.476, 426.598 592.748, 423.086 578.500 C 422.001 574.100, 420.460 568.446, 419.660 565.935 C 418.861 563.424, 418.430 560.204, 418.702 558.779 C 418.974 557.355, 418.517 553.784, 417.686 550.845 C 416.855 547.905, 415.437 541.450, 414.534 536.500 C 413.632 531.550, 412.243 524.407, 411.447 520.627 C 410.651 516.847, 410 512.591, 410 511.168 C 410 503.956, 404.796 490.153, 400.129 484.988 C 394.834 479.127, 399.511 479.981, 362 478.032 C 340.994 476.941, 341.825 476.940, 328.500 478.052 M 795.703 508.524 C 794.164 509.878, 791.689 511.252, 790.203 511.576 C 785.392 512.628, 785 512.903, 785.019 515.219 C 785.084 523.010, 804.222 538.304, 807.424 533.123 C 807.722 532.641, 810.011 531.731, 812.511 531.102 C 826.251 527.642, 822.899 513.908, 806.994 508.498 C 798.199 505.507, 799.135 505.504, 795.703 508.524 M 541.500 507.676 C 531.784 510.175, 530.949 519.282, 537.984 546 C 538.491 547.925, 539.396 552.603, 539.995 556.395 C 541.774 567.649, 543.888 569.363, 557.516 570.598 L 564.975 571.274 566.966 566.887 C 569.255 561.841, 569.421 559.237, 567.924 551.826 C 566.033 542.463, 564.872 538.639, 562.054 532.500 C 560.539 529.200, 558.220 523.672, 556.900 520.215 C 552.928 509.813, 548.191 505.955, 541.500 507.676 M 445 522.034 C 438.317 526.856, 437.541 530.165, 439.611 545 C 440.340 550.225, 440.958 558.325, 440.983 563 C 441.063 577.455, 443.481 582.495, 451.152 584.198 C 462.242 586.659, 466 586.155, 466 582.206 C 466 581.354, 466.754 579.824, 467.676 578.806 C 469.644 576.631, 469.646 574.219, 467.693 559.500 C 464.837 537.986, 461.637 526.754, 456.963 521.841 C 452.452 517.098, 451.825 517.109, 445 522.034 M 215.509 537.749 L 203.519 538.068 199.259 542.707 C 187.382 555.644, 204.478 565.708, 233.817 563.051 C 255.970 561.044, 262.758 556.238, 256.353 547.093 C 253.387 542.859, 234.165 536.047, 228.500 537.223 C 227.950 537.337, 222.104 537.574, 215.509 537.749 M 501.650 542.472 C 492.925 547.647, 491.487 552.994, 496.238 562.600 C 497.570 565.295, 499.212 570.614, 499.887 574.421 C 501.309 582.452, 502.454 585, 504.641 585 C 505.505 585, 507.932 586.362, 510.034 588.027 C 520.399 596.236, 524.736 593.918, 526.389 579.283 C 529.135 554.979, 515.292 534.381, 501.650 542.472 M 307.500 548.879 C 295.589 550.539, 290.365 557.931, 289.286 574.648 C 288.569 585.749, 291.138 591.456, 301.031 600.737 C 312.678 611.664, 317.389 613.408, 322 608.500 C 323.292 607.125, 325.409 606, 326.706 606 C 328.032 606, 329.352 605.235, 329.723 604.250 C 330.087 603.288, 332.322 599.659, 334.692 596.187 C 337.061 592.715, 339 589.063, 339 588.072 C 339 587.081, 339.955 585.056, 341.122 583.572 C 344.327 579.498, 343.106 570.350, 338.403 563.203 C 331.374 552.521, 319.812 547.162, 307.500 548.879 M 776 562.629 C 767.584 564.795, 765.500 566.748, 765.500 572.469 L 765.500 577.222 772 579.675 C 784.727 584.477, 792.866 586.083, 802.947 585.782 L 812.393 585.500 814.353 582.139 C 818.630 574.807, 816.258 566.400, 808.912 562.852 C 804.481 560.712, 783.988 560.574, 776 562.629 M 239.368 582.032 C 238.800 582.600, 234.239 583.569, 229.232 584.185 L 220.129 585.306 214.905 590.596 C 210.352 595.206, 209.669 596.422, 209.591 600.062 C 209.493 604.563, 209.648 604.721, 216.750 607.398 C 219.088 608.279, 222.779 609.734, 224.954 610.631 C 229.918 612.679, 242.479 612.043, 248.825 609.423 C 257.373 605.894, 260.800 593.259, 255.001 586.654 C 251.159 582.278, 241.869 579.531, 239.368 582.032 M 687.009 598.269 C 676.825 603.366, 673.039 616.197, 678.384 627.500 C 681.599 634.299, 690.983 644.376, 695.949 646.363 C 701.798 648.703, 712.186 646.140, 713.489 642.035 C 713.838 640.935, 716.121 638.601, 718.562 636.848 C 721.003 635.095, 723 633.123, 723 632.465 C 723 631.808, 723.945 630.068, 725.100 628.600 C 729.648 622.818, 727.340 609.916, 720.608 603.500 C 712.985 596.233, 696.273 593.632, 687.009 598.269 M 364.433 609.300 C 363.466 609.839, 363 611.846, 363 615.467 C 363 625.839, 360.574 629.214, 349.307 634.516 C 330.427 643.400, 326.706 644.187, 304.738 643.950 C 284.563 643.732, 280.779 644.153, 277.500 646.978 C 276.400 647.926, 274.712 648.980, 273.750 649.320 C 271.323 650.176, 271.563 651.483, 274.500 653.408 C 275.875 654.309, 277 655.913, 277 656.972 C 277 669.770, 333.231 669.654, 353.500 656.815 C 360.860 652.153, 370.382 640.322, 372.012 633.813 C 372.468 631.991, 373.993 627.350, 375.400 623.500 C 378.926 613.851, 378.814 611.468, 374.750 609.599 C 371.377 608.047, 366.910 607.917, 364.433 609.300 M 776.500 612.274 L 770.500 615.500 770.500 620.440 L 770.500 625.380 776.500 627.709 C 793.610 634.350, 794.057 634.454, 805.643 634.478 C 818.086 634.503, 818.957 634.125, 823.718 626.629 C 826.950 621.543, 826.233 617.290, 821.434 613.076 L 817.930 610 801.547 610 C 792.536 610, 784.564 609.786, 783.832 609.524 C 783.099 609.263, 779.800 610.500, 776.500 612.274 M 751.885 658.814 C 740.520 667.460, 720.052 669.405, 698.169 663.917 C 680.528 659.493, 661.898 660.214, 666.750 665.133 C 667.438 665.830, 668 667.582, 668 669.026 C 668 673.060, 671.641 675.504, 680.500 677.416 C 684.900 678.365, 692.100 680.199, 696.500 681.490 C 723.913 689.535, 756.639 681.760, 760.969 666.173 C 762.351 661.195, 762.428 661.428, 758.632 659.082 C 754.560 656.565, 754.828 656.575, 751.885 658.814 M 793.196 660.903 C 792.686 661.232, 791.961 662.490, 791.583 663.700 C 791.206 664.911, 789.345 666.860, 787.448 668.032 C 779.148 673.162, 788.154 688.602, 798.263 686.574 C 800.043 686.217, 803.525 685.578, 806 685.155 C 820.200 682.727, 823.089 670.539, 810.500 666.171 C 808.850 665.598, 804.490 664.045, 800.811 662.718 C 797.132 661.392, 793.705 660.575, 793.196 660.903 M 220.927 665.320 C 208.379 670.229, 206.330 677.695, 216.151 682.726 C 228.958 689.286, 243 685.252, 243 675.013 C 243 664.988, 233.002 660.598, 220.927 665.320 M 378 671.453 C 369.880 676.306, 364.817 677.365, 327.032 682.109 C 310.611 684.171, 310.551 684.188, 305.652 688.088 C 302.950 690.240, 300.192 692, 299.524 692 C 295.301 692, 294.008 697.739, 297.244 702.117 C 299.458 705.110, 299.614 705.152, 308.494 705.131 C 313.447 705.119, 322 705.223, 327.500 705.362 C 353.200 706.012, 381.384 698.632, 385.615 690.145 C 386.238 688.895, 387.901 686.664, 389.310 685.186 C 396.207 677.956, 394.299 671.596, 384.899 670.480 C 381.963 670.132, 379.668 670.455, 378 671.453 M 761 700.825 C 759.625 701.004, 756.572 701.791, 754.215 702.575 C 751.086 703.616, 744.208 704.023, 728.715 704.086 C 699.185 704.206, 687.400 705.620, 687.784 709 C 689.249 721.912, 687.208 721.146, 720.616 721.327 C 750.755 721.491, 756.189 720.820, 758.119 716.699 C 758.685 715.490, 761.478 713.150, 764.324 711.500 C 773.841 705.984, 771.798 699.421, 761 700.825 M 258.500 708 C 256.300 709.605, 254.016 710.937, 253.424 710.959 C 252.056 711.011, 248 715.289, 248 716.680 C 248 717.257, 247.077 718.903, 245.949 720.337 C 242.456 724.778, 244.075 729.428, 250.370 733.039 C 259.214 738.111, 267.582 735.934, 275.972 726.379 C 286.095 714.850, 270.949 698.918, 258.500 708 M 786.801 718.628 C 785.905 719.523, 783.911 720.395, 782.370 720.564 C 778.576 720.980, 777 723.475, 777 729.064 C 777 734.882, 790.136 748.839, 794.349 747.496 C 795.532 747.119, 798.583 746.491, 801.128 746.100 C 819.013 743.355, 815.188 728.440, 794.167 718.955 C 788.927 716.590, 788.842 716.587, 786.801 718.628 M 304.500 737.945 C 302.392 738.804, 295.145 746.954, 293.144 750.716 C 289.242 758.054, 296.952 769.986, 305.602 769.996 C 318.012 770.011, 325.001 744.849, 314.291 738.715 C 312.469 737.672, 306.353 737.191, 304.500 737.945 M 355.500 737.857 C 343.166 741.910, 340.367 749.779, 345.752 765.271 C 348.788 774.007, 360.404 777.217, 367.260 771.213 C 372.778 766.381, 373.753 748.089, 368.750 743.247 C 366.110 740.692, 358.959 736.684, 357.782 737.100 C 357.627 737.155, 356.600 737.495, 355.500 737.857 M 416.708 749.164 C 412.632 752.493, 409.537 757.442, 410.529 759.046 C 410.864 759.590, 411.506 763.675, 411.955 768.125 C 413.082 779.307, 415.287 782.039, 425.597 785.030 C 441.393 789.613, 446.752 757.385, 431.664 748.543 C 425.784 745.097, 421.468 745.276, 416.708 749.164 M 722.225 751.655 C 719.905 756.520, 721.805 761.902, 727.534 766.690 C 729.990 768.743, 732 771.158, 732 772.057 C 732 776.611, 744.147 779.702, 749.500 776.509 C 750.600 775.853, 752.850 774.985, 754.500 774.580 C 763.419 772.392, 762.990 768.414, 752.750 758.339 C 742.470 748.224, 741.995 747.992, 731.988 748.205 L 723.787 748.380 722.225 751.655 M 675.517 751.973 C 675.186 752.508, 673.206 753.406, 671.117 753.969 C 657.974 757.507, 664.666 773.649, 684.416 786.049 C 687.133 787.755, 687.542 787.770, 690.416 786.273 C 692.112 785.389, 694.850 784.388, 696.500 784.049 C 700.421 783.243, 703.636 777.672, 702.589 773.499 C 701.788 770.306, 687.095 754.646, 682.800 752.408 C 679.665 750.774, 676.379 750.578, 675.517 751.973 M 493 755.695 C 488.528 756.452, 482.095 759.925, 480.415 762.490 C 478.647 765.187, 478.736 766.426, 481.488 777.500 C 482.444 781.350, 483.662 786.300, 484.193 788.500 C 486.537 798.214, 489.745 800.971, 499.067 801.283 C 503.985 801.447, 506.263 801.047, 508.412 799.644 L 511.254 797.788 510.767 784.644 C 510.421 775.324, 509.769 770.259, 508.525 767.234 C 506.793 763.023, 498.764 754.872, 496.609 755.136 C 495.999 755.211, 494.375 755.463, 493 755.695 M 606.284 762.440 C 596.217 767.567, 595.195 771.205, 600.928 781.500 C 602.459 784.250, 604.731 789.425, 605.976 793 C 610.420 805.759, 616.082 808.710, 626 803.434 C 627.375 802.702, 629.482 801.653, 630.683 801.102 C 633.377 799.866, 633.062 792.686, 629.823 781.512 C 626.088 768.625, 624.448 766.401, 615.924 762.668 L 610.500 760.293 606.284 762.440 M 547.384 763.085 C 545.798 764.131, 543.782 764.990, 542.905 764.993 C 540.996 765.001, 538.489 767.672, 537.577 770.667 C 536.266 774.976, 545.642 795.536, 550.840 799.750 C 554.640 802.831, 569.928 800.872, 571.978 797.042 C 573.080 794.982, 572.945 794.107, 569.736 782.500 C 565.484 767.123, 555.032 758.044, 547.384 763.085 M 309.656 800.143 C 303.807 806.829, 304.195 811.822, 311.256 820.750 C 315.254 825.805, 327.728 820.245, 329.894 812.442 C 332.311 803.740, 327.747 796.686, 318.906 795.458 C 314.338 794.823, 314.287 794.849, 309.656 800.143 M 356.899 807.753 C 347.511 816.510, 351.754 833.634, 364.153 837.025 C 377.115 840.571, 384.748 820.275, 374.633 809.155 C 368.924 802.879, 362.656 802.383, 356.899 807.753 M 706.211 810.538 C 705.501 811.342, 703.667 812, 702.135 812 C 691.032 812, 694.915 830.456, 707.816 839.001 C 713.068 842.481, 713.146 842.493, 717.100 840.448 C 718.750 839.595, 721 839.182, 722.099 839.531 C 730.879 842.318, 731.632 828.616, 723.162 820.174 C 713.172 810.216, 708.724 807.688, 706.211 810.538 M 412.400 815.831 C 406.160 820.361, 405.486 822.441, 406.799 833.105 C 407.931 842.303, 409.693 846.589, 412.808 847.724 C 413.739 848.063, 415.772 849.389, 417.327 850.670 C 422.062 854.573, 429.551 852.702, 432.572 846.862 C 441.930 828.765, 426.750 805.414, 412.400 815.831 M 667.232 823 C 666.385 824.357, 664.900 825, 662.614 825 C 655.081 825, 654.924 833.607, 662.256 844.627 C 669.666 855.765, 670.648 856.413, 678.942 855.642 C 693.257 854.312, 696.441 849.196, 688.795 839.808 C 686.417 836.889, 683.425 832.806, 682.145 830.736 C 677.721 823.576, 669.527 819.326, 667.232 823 M 536.500 827.218 C 534.300 828.389, 531.825 829.661, 531 830.044 C 527.196 831.811, 530.844 855.619, 535.604 860.096 C 537.853 862.211, 546.451 864.019, 550.542 863.237 C 562.370 860.976, 560.215 834.898, 547.588 827.499 C 542.470 824.499, 541.646 824.478, 536.500 827.218 M 474.279 830.498 C 459.264 840.610, 475.119 869.340, 491.441 861.595 C 501.176 856.976, 498.508 836.211, 487.365 829.869 C 481.822 826.714, 479.750 826.814, 474.279 830.498 M 607.500 830 C 606.505 831.100, 604.930 832, 604 832 C 602.204 832, 599.944 834.167, 598.186 837.576 C 596.177 841.472, 601.818 852.740, 610.239 861.654 L 615.109 866.808 622.304 866.780 C 635.178 866.729, 638.185 862.180, 632.595 851.217 C 624.252 834.854, 612.273 824.726, 607.500 830"/>
    </g>
  </g>
</svg>
