<svg viewBox="0 0 74 74" width="74mm" height="74mm" xmlns="http://www.w3.org/2000/svg">
  <g transform="scale(0.074000)" fill-rule="evenodd">
    <g id="forma" fill="#CB3747">
      <path d="M 74.024 53.185 C 69.974 55.937, 66.496 60.765, 64.876 65.882 C 62.538 73.264, 61.852 152.587, 63.901 178.500 C 65.650 200.630, 66.857 224.064, 67.970 257.500 C 68.538 274.550, 69.451 296.825, 70 307 C 70.549 317.175, 71.461 343.275, 72.028 365 C 72.594 386.725, 73.481 408.775, 73.999 414 C 74.517 419.225, 76.080 436.809, 77.473 453.075 C 89.997 599.377, 113.460 660.351, 186.500 736.409 C 212.693 763.684, 224.446 774.465, 240.341 785.799 C 266.781 804.651, 276.982 810.495, 298.220 818.955 C 304.974 821.645, 314.873 825.903, 320.219 828.416 C 349.757 842.305, 398.371 857.782, 432 864.001 C 438.325 865.171, 446.875 866.976, 451 868.013 C 510.104 882.867, 602.164 883.070, 650.649 868.453 C 720.683 847.340, 798.011 786.125, 845.693 714.048 C 870.853 676.016, 873.293 671.218, 902.662 602 C 911.167 581.956, 927.595 521.906, 930.537 500.106 C 931.398 493.723, 932.746 484.675, 933.531 480 C 936.605 461.692, 939.153 434.135, 940.512 404.500 C 941.596 380.849, 942.408 371.485, 943.941 365 C 946.370 354.718, 946.502 346.544, 944.453 333.413 C 943.602 327.961, 942.514 312.475, 942.035 299 C 941.437 282.160, 940.537 271.061, 939.157 263.500 C 938.053 257.450, 936.410 245.975, 935.505 238 C 934.601 230.025, 932.764 217.083, 931.423 209.240 C 930.081 201.396, 927.430 184.071, 925.531 170.740 C 921.624 143.316, 920.353 138.700, 915.267 133.463 C 897.744 115.420, 883.333 129.122, 851.069 194.500 C 844.555 207.700, 832.676 231.775, 824.671 248 C 816.666 264.225, 806.223 284.475, 801.464 293 C 787.215 318.524, 765.113 362.791, 752.533 391 C 732.267 436.445, 721.821 456.221, 697.187 495.778 C 671.548 536.947, 663.578 544.387, 652.053 537.910 C 642.105 532.318, 640.790 528.382, 618.022 436 C 612.533 413.725, 605.099 384.925, 601.503 372 C 597.907 359.075, 592.248 338.150, 588.927 325.500 C 585.606 312.850, 580.461 295.075, 577.494 286 C 574.527 276.925, 568.972 259.150, 565.149 246.500 C 559.011 226.187, 551.959 205.480, 535.523 159.500 C 528.510 139.884, 525.108 135.116, 515.507 131.449 C 501.124 125.957, 493.300 137.767, 479.610 185.635 C 475.013 201.709, 473.699 207.275, 460.993 264.500 C 457.085 282.100, 450.571 310.225, 446.517 327 C 442.464 343.775, 436.827 369.200, 433.992 383.500 C 431.157 397.800, 427.284 416.685, 425.384 425.466 C 423.485 434.248, 420.576 449.098, 418.919 458.466 C 412.982 492.047, 409.687 500.815, 402.159 503.070 C 396.628 504.728, 391.857 502.247, 386.765 495.068 C 377.479 481.977, 342.015 426.975, 328.899 405.322 C 325.175 399.174, 317.590 387.358, 312.042 379.063 C 306.495 370.769, 298.972 359.149, 295.325 353.241 C 291.677 347.334, 283.886 335.075, 278.010 326 C 272.134 316.925, 261.171 298.819, 253.646 285.764 C 233.918 251.535, 204.001 203.382, 188.560 181 C 185.714 176.875, 179.841 167.875, 175.509 161 C 157.847 132.969, 106.998 66.914, 96.280 58.079 C 87.929 51.196, 79.635 49.372, 74.024 53.185"/>
    </g>
    <g id="detalles" fill="#1A1A1A">
      <path d="M 236.587 600.032 C 228.987 603.824, 226.311 608.730, 223.996 623.108 C 220.602 644.193, 247.151 652.952, 264.148 636.356 C 273.134 627.581, 270.604 605.949, 259.846 599.573 C 255.848 597.204, 241.695 597.483, 236.587 600.032 M 753.776 646.031 C 737.009 648.856, 731.511 671.153, 744.084 685.340 C 755.200 697.882, 784.214 684.207, 781.462 667.723 C 780.774 663.609, 776.509 654.348, 773.607 650.671 C 772.371 649.104, 761.101 644.772, 759.161 645.118 C 758.797 645.182, 756.374 645.593, 753.776 646.031"/>
    </g>
  </g>
</svg>
