<svg viewBox="0 0 74 74" width="74mm" height="74mm" xmlns="http://www.w3.org/2000/svg">
  <g transform="scale(0.074000)" fill-rule="evenodd">
    <g id="forma" fill="#CB3747">
      <path d="M 903.770 69.357 C 900.338 73.083, 898.368 74.287, 893.733 75.488 C 879.800 79.101, 874.312 83.924, 875.456 91.552 C 876.050 95.514, 875.758 96.721, 873.218 100.804 C 871.611 103.387, 869.718 106.980, 869.011 108.788 C 868.185 110.901, 866.154 112.997, 863.329 114.653 C 858.269 117.618, 855.665 121.816, 856.592 125.511 C 857.721 130.011, 852.723 138.988, 849.076 139.009 C 844.342 139.038, 831 149.830, 831 153.631 C 831 155.501, 834.120 161, 835.180 161 C 840.239 161, 830.877 183.238, 823.934 187.713 C 817.041 192.157, 815.850 193.246, 814.270 196.561 C 812.868 199.500, 812.834 200.467, 814.006 204.017 C 815.704 209.163, 810.508 220.941, 806 222.162 C 793.222 225.624, 792.005 226.171, 789.008 229.788 C 784.220 235.567, 784.979 244.243, 790.457 246.345 C 792.614 247.173, 792.382 251.344, 790.062 253.444 C 788.996 254.409, 787.350 257.741, 786.404 260.849 C 783.921 269.002, 781.800 270.995, 775.576 271.022 C 759.542 271.091, 751.918 283.652, 761.616 294.020 C 768.056 300.906, 765.136 311.894, 756.827 312.041 C 745.472 312.242, 738.363 323.675, 744.155 332.420 L 747.310 337.183 745.155 341.618 C 743.970 344.058, 743 346.667, 743 347.416 C 743 348.165, 742.187 349.782, 741.194 351.009 L 739.388 353.239 735.234 351.119 C 732.949 349.954, 730.027 349, 728.740 349 C 725.545 349, 724 347.196, 724 343.467 C 724 341.744, 723.580 337.896, 723.068 334.917 C 722.555 331.938, 721.589 325.675, 720.921 321 C 720.253 316.325, 719.141 310.879, 718.450 308.898 C 717.759 306.917, 716.670 301.742, 716.031 297.398 C 713.108 277.524, 712.061 270.144, 711.506 265.500 C 711.177 262.750, 710.055 255.100, 709.014 248.500 C 707.972 241.900, 705.934 228.850, 704.484 219.500 C 702.255 205.118, 696.097 172.797, 694.665 167.957 C 694.428 167.156, 693.288 163.350, 692.131 159.500 C 690.975 155.650, 688.913 148.675, 687.549 144 C 681.311 122.614, 677.649 110.930, 675.008 103.990 C 673.436 99.859, 671.600 94.234, 670.927 91.490 C 667.623 78.001, 660.505 69.519, 651.773 68.663 C 648.323 68.324, 644.254 67.758, 642.731 67.404 C 640.433 66.869, 639.400 67.356, 636.648 70.275 C 634.824 72.208, 631.570 74.692, 629.416 75.795 C 622.925 79.119, 609.870 103.186, 604.439 121.844 C 603.103 126.434, 601.058 132.284, 599.893 134.844 C 598.729 137.405, 596.706 143.305, 595.398 147.956 C 594.090 152.607, 592.121 158.682, 591.021 161.456 C 589.922 164.230, 586.029 174.375, 582.369 184 C 578.710 193.625, 570.989 213.875, 565.213 229 C 554.105 258.081, 552.196 263.290, 541.566 293.500 C 529.051 329.070, 514.075 378.317, 513.956 384.295 C 513.932 385.508, 513.228 388.300, 512.392 390.500 C 510.754 394.807, 508.601 401.797, 506.692 409 C 504.102 418.775, 500.190 415.634, 495.958 400.384 C 491.864 385.634, 488.087 373.197, 480.503 349.500 C 476.982 338.500, 471.562 320.500, 468.457 309.500 C 465.353 298.500, 461.310 284.775, 459.472 279 C 457.635 273.225, 455.008 263.550, 453.636 257.500 C 451.477 247.983, 443.645 217.265, 437.191 193 C 436.094 188.875, 433.602 180.550, 431.654 174.500 C 429.705 168.450, 426.874 159.450, 425.362 154.500 C 419.887 136.579, 406.689 112.397, 399.717 107.514 C 395.796 104.768, 383.414 105.442, 380.714 108.548 C 379.496 109.949, 376.411 113.211, 373.857 115.798 C 371.304 118.384, 368.675 122.207, 368.015 124.294 C 367.355 126.381, 365.251 130.138, 363.339 132.643 C 359.999 137.018, 358.327 141.292, 356.155 151 C 355.601 153.475, 354.003 159.325, 352.604 164 C 351.204 168.675, 349.155 178.370, 348.049 185.544 C 346.944 192.719, 345.590 199.919, 345.040 201.544 C 344.491 203.170, 342.872 210.099, 341.443 216.942 C 340.014 223.785, 337.982 231.074, 336.928 233.141 C 335.874 235.208, 334.525 240.184, 333.930 244.199 C 331.873 258.096, 325.061 284.024, 321.817 290.309 C 319.403 294.986, 316.970 303.071, 313.937 316.500 C 312.073 324.752, 310.994 329.045, 306.022 348 C 305.084 351.575, 303.358 356.667, 302.186 359.316 C 301.013 361.964, 298.170 371.342, 295.867 380.154 C 290.253 401.640, 285.425 404.253, 278.942 389.314 C 277.943 387.011, 275.748 383.900, 274.065 382.400 C 272.381 380.900, 270.600 378.211, 270.107 376.424 C 269.613 374.638, 266.175 368.573, 262.466 362.948 L 255.721 352.719 256.799 348.052 C 259.139 337.913, 253.746 330.117, 244.326 330.022 C 241.733 329.996, 239.149 326.910, 233.842 317.500 C 231.670 313.650, 229.149 309.301, 228.240 307.836 C 226.657 305.287, 226.703 304.941, 229.293 299.822 C 235.105 288.334, 229.630 279, 217.079 279 C 211.011 279, 208.124 277.178, 205.273 271.551 C 202.948 266.961, 198.669 260.396, 187.068 243.615 C 184.365 239.704, 183 236.646, 183 234.500 C 183 230.475, 179.989 226.545, 174.926 223.962 C 172.740 222.847, 170.318 220.564, 169.387 218.740 C 168.478 216.958, 165.271 211.989, 162.261 207.698 C 157.531 200.954, 156.875 199.461, 157.429 196.698 C 160.756 180.104, 157.942 175, 145.466 175 C 139.422 175, 137.713 173.961, 133.497 167.722 C 127.487 158.828, 124.984 155.599, 121.938 152.806 C 119.728 150.781, 119 149.219, 119 146.507 C 119 141.045, 116.546 137.310, 111.164 134.583 C 105.556 131.741, 104.652 130.757, 100 122.424 C 98.075 118.976, 92.675 111.882, 88 106.659 C 83.325 101.437, 78.599 95.677, 77.498 93.860 C 72.311 85.302, 60.667 86.169, 36.132 96.941 C 14.604 106.393, 7.058 117.472, 14.913 128.096 C 16.871 130.744, 16.975 131.428, 15.880 134.454 C 14.910 137.137, 14.916 140.418, 15.908 150.172 C 16.597 156.953, 17.292 166.177, 17.452 170.672 C 17.612 175.166, 18.454 181.016, 19.322 183.672 C 20.191 186.327, 22.113 195.700, 23.593 204.500 C 25.073 213.300, 26.714 221.340, 27.239 222.366 C 27.871 223.601, 27.783 225.703, 26.978 228.578 C 25.314 234.522, 26.453 241.037, 29.919 245.397 C 32.292 248.384, 32.848 250.252, 33.443 257.222 C 34.257 266.770, 38.235 284.619, 40.544 289.085 C 42.067 292.030, 42.016 292.300, 39.061 296.905 C 33.905 304.941, 35.522 313.070, 43.225 317.830 C 46.977 320.149, 48.986 323.602, 49.025 327.797 C 49.039 329.284, 50.870 336.350, 53.095 343.500 C 58.536 360.985, 58.445 360.430, 56.614 365.007 C 52.874 374.354, 54.837 382.672, 62.300 389.091 C 64.637 391.102, 65.583 393.526, 68.028 403.765 C 69.639 410.511, 71.907 418.238, 73.068 420.936 L 75.178 425.841 72.589 430.258 C 68.052 438, 68.816 442.320, 75.915 449.076 C 80.904 453.822, 82.490 456.256, 86.035 464.602 C 88.347 470.046, 91.310 476.623, 92.619 479.217 C 95.630 485.183, 95.643 485.041, 91.647 489.824 C 83.668 499.374, 87.501 511.937, 98.896 513.588 C 105.584 514.558, 106.794 515.485, 109.621 521.805 C 113.272 529.970, 123.535 555.779, 125.007 560.500 C 131.472 581.224, 147.099 613.735, 159.226 631.690 C 163.012 637.294, 167.334 644.044, 168.831 646.690 C 170.329 649.335, 172.792 653.525, 174.305 656 C 181.398 667.601, 184.867 673.657, 193.038 688.698 C 206.108 712.758, 216.428 727.471, 229.954 741.330 C 253.469 765.424, 276.664 788.374, 282.495 793.316 C 285.798 796.115, 291.425 801.155, 295 804.517 C 303.783 812.776, 329.064 830, 332.403 830 C 332.710 830, 340.282 833.630, 349.230 838.066 C 358.179 842.502, 370.225 847.856, 376 849.963 C 381.775 852.070, 391 855.799, 396.500 858.250 C 402 860.701, 408.530 862.974, 411.011 863.301 C 413.493 863.628, 419.118 865.543, 423.511 867.555 C 431.131 871.045, 434.068 872.147, 452.500 878.430 C 460.367 881.112, 485.245 888.537, 498 892.009 C 542.586 904.149, 550.616 905.434, 589.464 906.654 C 628.060 907.866, 679.133 892.580, 718.500 868.033 C 722.900 865.290, 728.525 861.810, 731 860.300 C 742.469 853.305, 772.329 829.618, 783.064 819 C 815.351 787.065, 862.062 717.065, 881.581 671.364 C 884.133 665.389, 887.971 656.850, 890.110 652.389 C 892.250 647.927, 894 643.836, 894 643.296 C 894 642.756, 895.828 636.731, 898.062 629.907 C 900.297 623.083, 903.192 613.675, 904.495 609 C 905.799 604.325, 907.851 597.350, 909.057 593.500 C 912.604 582.170, 914.541 574.587, 918.892 555 C 921.152 544.825, 923.914 532.675, 925.030 528 C 929.018 511.284, 930.066 505.736, 932.054 490.841 C 934.148 475.140, 934.778 472.970, 937.871 470.801 C 944.175 466.382, 945.052 460.790, 941.003 450.854 C 937.849 443.112, 937.365 439.178, 938.980 434.399 C 940.149 430.939, 943.996 394.754, 943.998 387.194 C 944 382.642, 944.409 381.504, 946.875 379.194 C 953.114 373.347, 953.839 366.571, 948.886 360.388 C 945.830 356.572, 945.784 356.352, 946.380 348.500 C 946.714 344.100, 946.991 334.287, 946.994 326.694 L 947 312.887 949.936 310.194 C 955.863 304.757, 956.333 299.726, 951.634 292.020 L 948.268 286.500 948.767 270.221 C 949.257 254.217, 949.313 253.881, 952.078 250.402 C 957.898 243.078, 957.927 238.901, 952.199 232.759 C 949.684 230.062, 949.638 229.729, 949.312 212.055 L 948.980 194.092 951.843 190.796 C 959.399 182.098, 958.831 177.062, 949.538 170.354 C 946.270 167.995, 945.613 163.764, 945.863 146.679 C 945.934 141.871, 945.456 137.826, 944.624 136.179 C 943.866 134.677, 943.003 128.447, 942.661 122 C 942.302 115.244, 941.191 107.406, 939.966 103 C 938.820 98.875, 937.678 91.529, 937.428 86.676 C 936.631 71.164, 931.753 66.200, 916.360 65.240 L 908.040 64.721 903.770 69.357"/>
    </g>
    <g id="detalles" fill="#1A1A1A">
      <path d="M 894.500 73.548 C 882.344 76.298, 872.997 82.777, 873.004 88.446 C 873.014 96.955, 880.294 101.695, 891.500 100.489 C 905.751 98.954, 909.721 100.150, 921.470 109.512 C 929.024 115.532, 929.237 115.624, 930.910 113.609 C 931.545 112.844, 933.962 111.930, 936.282 111.580 C 943.358 110.509, 943.539 110.187, 941.455 102.355 C 936.110 82.263, 914.521 69.018, 894.500 73.548 M 59.500 86.632 C 50.612 88.929, 30.480 97.117, 25.011 100.659 C 12.530 108.742, 9.620 112.940, 10.541 121.535 C 11.050 126.296, 11.707 128.323, 12.875 128.742 C 13.769 129.063, 15.823 130.244, 17.440 131.366 C 22.349 134.774, 30.764 133.902, 35.429 129.502 C 40.410 124.804, 51.840 119.573, 61.435 117.600 C 77.439 114.308, 84.402 105.079, 79.584 93.546 C 77.257 87.979, 67.409 84.588, 59.500 86.632 M 657 93.770 C 649.988 94.926, 649.372 102.919, 654.671 124 C 658.572 139.519, 661.764 142.960, 668.940 139.380 C 672.529 137.589, 672.516 138.498, 669.139 126.102 C 668.030 122.032, 666.614 114.607, 665.993 109.602 C 664.221 95.332, 662.792 92.816, 657 93.770 M 629 104.078 C 627.075 106.296, 625.321 108.648, 625.102 109.305 C 624.883 109.962, 623.685 112.750, 622.440 115.500 C 614.657 132.693, 611.780 142.315, 613.404 145.720 C 617.366 154.030, 629.465 141.896, 633.392 125.672 C 633.769 124.117, 636.155 118.368, 638.694 112.897 C 643.157 103.283, 643.248 102.900, 641.406 101.506 C 637.638 98.655, 632.844 99.649, 629 104.078 M 884.500 104.422 C 859.505 110.167, 848.875 121.375, 859.056 131.250 C 861.183 133.313, 862.827 135.001, 862.711 135.001 C 845.743 135.111, 827.010 147.442, 830.009 156.528 C 832.267 163.369, 837.599 166.001, 847.830 165.327 C 852.598 165.012, 860.100 164.749, 864.500 164.743 C 881.634 164.718, 916.053 177.298, 928.392 188.095 C 937.962 196.470, 948.262 197.022, 954.854 189.513 C 962.069 181.296, 960.456 175.718, 948.637 168.015 C 936.279 159.961, 932 156.860, 932 155.959 C 932 154.641, 936.570 153.675, 939.421 154.391 C 942.443 155.149, 945 154.228, 945 152.379 C 945 151.606, 945.390 150.191, 945.866 149.236 C 951.275 138.390, 942.282 124.656, 922 112.790 C 905.999 103.429, 897.282 101.484, 884.500 104.422 M 369.073 117.635 C 367.933 119.084, 367 120.902, 367 121.675 C 367 122.447, 366.054 124.933, 364.898 127.199 C 360.402 136.013, 355.561 172.679, 358.319 177.035 C 360.028 179.733, 360.437 179.920, 361.875 178.660 C 362.769 177.877, 364.444 176.950, 365.598 176.599 C 368.262 175.790, 369.762 172.491, 370.515 165.790 C 371.274 159.031, 376.593 135.307, 379.087 127.556 C 381.460 120.181, 381.472 118.737, 379.171 116.655 C 376.320 114.075, 371.506 114.542, 369.073 117.635 M 60.853 129.960 C 52.035 133.319, 44.458 138.930, 31.500 151.694 C 15.251 167.700, 15.219 167.750, 15.772 176.056 L 16.208 182.611 21.088 185.354 C 32.697 191.880, 38.380 189.383, 59.138 168.633 L 70.777 157 77.728 157 C 81.552 157, 88.199 157.900, 92.500 159 C 112.157 164.027, 125.377 154.010, 119.180 138.783 C 115.617 130.026, 76.296 124.078, 60.853 129.960 M 391.653 129.263 C 387.112 132.587, 380.396 174.368, 383.691 178.798 C 387.149 183.447, 393.283 181.684, 394.387 175.722 C 394.614 174.500, 395.988 166.975, 397.442 159 C 398.895 151.025, 400.604 142.141, 401.238 139.258 C 403.259 130.073, 398.016 124.605, 391.653 129.263 M 880.127 132.581 C 875.521 133.943, 870.947 134.800, 869.961 134.488 C 868.975 134.175, 867.902 134.350, 867.575 134.878 C 867.249 135.406, 868.449 136.136, 870.241 136.501 C 872.034 136.866, 875.750 137.796, 878.500 138.569 C 881.250 139.341, 887.550 140.910, 892.500 142.056 C 901.903 144.233, 908.889 146.403, 917.787 149.914 C 926.306 153.275, 926.656 152.862, 921.061 146.046 C 914.822 138.445, 899.479 130.014, 892 130.077 C 890.075 130.093, 884.732 131.220, 880.127 132.581 M 639.127 165.822 C 637.268 168.432, 637.187 169.389, 638.048 178.572 C 640.759 207.494, 640.923 208.540, 643.119 210.897 C 645.776 213.750, 648.618 213.540, 651.883 210.250 L 654.612 207.500 653.844 196.500 C 652.304 174.456, 651.003 167.148, 648.232 164.968 C 644.686 162.179, 641.509 162.477, 639.127 165.822 M 414.341 168.383 L 411.571 170.766 413.353 180.133 C 414.333 185.285, 415.734 191.750, 416.465 194.500 C 417.196 197.250, 418.331 202.126, 418.988 205.336 C 419.795 209.279, 421.131 212.199, 423.108 214.336 L 426.033 217.500 429.017 214.038 C 432.741 209.716, 432.753 210.260, 428.412 188 C 424.042 165.588, 421.580 162.156, 414.341 168.383 M 99.914 174.702 C 92.879 176.502, 75.510 184.305, 69.013 188.584 C 66.160 190.463, 63.596 192, 63.315 192 C 59.417 192, 41.046 208.689, 30.063 222.208 L 23.801 229.916 24.650 237.098 L 25.500 244.280 31.077 248.218 L 36.654 252.156 42.179 250.550 C 45.218 249.667, 48.715 247.868, 49.951 246.553 C 51.186 245.237, 53.524 243.611, 55.146 242.940 C 56.768 242.268, 58.747 240.456, 59.545 238.913 C 62.043 234.082, 77.950 218.175, 83.856 214.601 C 102.077 203.574, 104.672 202.914, 128.538 203.241 C 147.019 203.493, 147.627 203.437, 152.500 201 C 162.491 196.005, 164.290 181.992, 155.755 175.655 C 152.234 173.041, 109.267 172.308, 99.914 174.702 M 666.241 177.986 C 664.085 181.439, 665.410 196.262, 669.395 213.270 C 672.021 224.481, 674.652 227.087, 680.518 224.290 C 684.627 222.331, 684.667 221.941, 682.089 209 C 681.048 203.775, 679.885 195.225, 679.504 190 C 678.639 178.128, 677.455 176, 671.717 176 C 668.574 176, 667.161 176.512, 666.241 177.986 M 598.244 179.250 C 594.509 183.913, 585.426 210.616, 586.463 213.883 C 589.282 222.765, 598.823 216.789, 602.900 203.587 C 603.935 200.239, 605.955 194.610, 607.390 191.078 C 610.262 184.010, 610.617 181.017, 608.800 179.200 C 607.219 177.619, 599.521 177.655, 598.244 179.250 M 834.500 183.933 C 817.964 185.163, 807.339 195.681, 812.978 205.239 C 817.389 212.715, 823.184 214.536, 836.749 212.710 C 845.770 211.496, 849.700 212.011, 866.500 216.611 C 887.854 222.457, 896.148 226.714, 918.488 243.297 C 937.041 257.067, 945.143 259.131, 952.533 251.968 C 959.383 245.329, 959.763 233.620, 953.205 231.299 C 952.267 230.967, 950.709 230.017, 949.743 229.187 C 948.777 228.357, 947.106 227.188, 946.029 226.589 C 942.549 224.652, 925.590 213.202, 922.500 210.702 C 911.300 201.641, 896.878 195.577, 867 187.368 C 860.359 185.543, 846.082 182.938, 844 183.171 C 843.175 183.263, 838.900 183.606, 834.500 183.933 M 347.598 189.545 C 346.748 190.395, 345.569 192.982, 344.977 195.295 C 344.385 197.608, 343.667 200.175, 343.381 201 C 340.419 209.533, 337.201 231, 338.883 231 C 339.369 231, 340.013 231.940, 340.313 233.090 C 340.745 234.740, 341.348 235.033, 343.180 234.486 C 348.252 232.969, 349.635 231.258, 351.380 224.340 C 352.329 220.578, 353.500 215.925, 353.982 214 C 354.464 212.075, 355.790 207.337, 356.929 203.472 C 359.409 195.057, 359.530 191.673, 357.429 189.571 C 355.415 187.557, 349.601 187.542, 347.598 189.545 M 376.076 203.265 C 372.131 205.275, 363.526 234.964, 364.997 241.488 C 366.449 247.924, 369.878 249.974, 372.128 245.750 C 372.787 244.512, 373.930 243.050, 374.667 242.500 C 375.404 241.950, 377.063 237.675, 378.353 233 C 379.644 228.325, 381.892 221.211, 383.350 217.190 C 387.901 204.639, 384.848 198.794, 376.076 203.265 M 622.334 206.536 C 619.075 207.946, 618.060 209.451, 614.486 218.174 C 603.463 245.077, 603.006 258.949, 613.284 254.655 C 615.984 253.527, 616.855 252.274, 618.676 246.905 C 622.160 236.631, 628.611 218.823, 630.336 214.716 C 633.166 207.981, 628.952 203.673, 622.334 206.536 M 401.045 212.173 C 396.455 216.449, 400.685 249.752, 406.447 254.708 C 410.137 257.882, 415.599 254.884, 415.166 249.924 C 414.821 245.970, 413.796 238.484, 413.054 234.500 C 412.542 231.750, 411.829 225.556, 411.471 220.737 C 410.657 209.804, 406.900 206.718, 401.045 212.173 M 796.806 222.756 C 788.554 225.822, 781.576 234.758, 783.833 239.371 C 784.406 240.542, 785.141 242.400, 785.467 243.500 C 787.136 249.126, 797.705 252.340, 807.212 250.113 C 813.206 248.708, 827.040 250.047, 837.156 253.011 C 852.947 257.638, 857.260 259.508, 869.711 267.129 C 873.338 269.349, 877.309 271.547, 878.534 272.013 C 879.759 272.479, 885.428 276.416, 891.131 280.763 C 896.834 285.109, 902.569 289.237, 903.875 289.935 C 907.501 291.873, 914.700 297.536, 923 304.978 C 932.436 313.439, 933.546 314, 940.845 314 C 947.753 314, 955 310.238, 955 306.651 C 955 305.555, 955.733 303.848, 956.628 302.858 C 959.978 299.156, 951.472 286.488, 941.282 280.005 C 937.552 277.632, 933.563 274.852, 932.418 273.828 C 930.149 271.800, 915.223 261.260, 902.443 252.662 C 898.011 249.681, 891.036 245.443, 886.943 243.245 C 882.849 241.047, 877.463 238.085, 874.974 236.664 C 855.362 225.465, 810.838 217.544, 796.806 222.756 M 159.318 223.006 C 158.118 223.490, 154.293 224.197, 150.818 224.579 C 138.215 225.962, 117.843 232.905, 104.500 240.366 C 78.452 254.931, 65.479 263.986, 60.710 270.930 C 57.754 275.234, 45.480 287.553, 42.407 289.300 C 41.633 289.740, 41 290.523, 41 291.041 C 41 291.559, 39.375 294.112, 37.388 296.714 C 26.215 311.352, 47.686 330.697, 61.291 318.251 C 62.506 317.139, 64.400 315.958, 65.500 315.625 C 66.600 315.292, 69.075 312.914, 71 310.339 C 72.925 307.765, 77.134 303.148, 80.353 300.079 C 83.573 297.011, 88.411 291.696, 91.105 288.269 C 94.769 283.609, 98.851 280.166, 107.292 274.615 C 131.695 258.569, 133.567 257.953, 171.657 253.402 C 186.427 251.637, 190.099 225.470, 175.974 222.645 C 171.477 221.745, 161.933 221.952, 159.318 223.006 M 652.354 240.692 C 647.345 241.672, 646.647 243.982, 647.867 255.546 C 650.005 275.822, 653.893 285.851, 658.803 283.761 C 665.410 280.949, 666.150 278.509, 663.489 268.299 C 662.658 265.109, 661.685 258, 661.327 252.500 C 660.539 240.409, 659.667 239.262, 652.354 240.692 M 428.750 244.572 C 425.465 246.354, 425.329 248.264, 427.896 256.500 C 428.925 259.800, 430.100 265.857, 430.506 269.960 C 430.913 274.063, 431.592 278.113, 432.015 278.960 C 432.438 279.807, 433.274 281.738, 433.871 283.250 C 436.809 290.688, 443.198 282.836, 442.945 272.099 C 442.423 249.889, 437.291 239.938, 428.750 244.572 M 335.447 250.408 C 332.193 251.825, 329.014 259.897, 324.023 279.412 C 321.196 290.464, 321.965 298.840, 326.004 301.002 C 328.203 302.179, 333.914 298.733, 333.797 296.300 C 333.684 293.931, 336.291 284.096, 340.637 270.500 C 344.960 256.975, 345.225 253.410, 342.091 250.873 C 339.384 248.681, 339.408 248.683, 335.447 250.408 M 568.771 255.250 C 566.108 259.357, 556 286.507, 556 289.553 C 556 293.106, 559.938 295.832, 563.495 294.740 C 568.252 293.280, 569.129 292.025, 573.442 280.500 C 575.500 275, 577.850 269.015, 578.663 267.199 C 580.818 262.390, 581.380 257.579, 580.073 255.137 C 578.395 252.001, 570.829 252.077, 568.771 255.250 M 678 255.928 C 676.775 256.745, 676.560 259.091, 676.827 268.714 C 677.276 284.899, 679.150 287.726, 685.783 282.222 L 689.065 279.498 689.283 269.290 C 689.456 261.143, 689.183 258.765, 687.931 257.508 C 685.973 255.543, 680.002 254.593, 678 255.928 M 360.287 269.923 C 357.187 273.249, 351.700 298.359, 351.897 308.312 C 352.123 319.669, 359.213 325.013, 361.434 315.500 C 361.948 313.300, 364.455 303.076, 367.007 292.780 C 371.142 276.089, 371.507 273.733, 370.371 271.030 C 368.811 267.320, 363.278 266.712, 360.287 269.923 M 765.500 271.415 C 755.882 275.840, 752.020 286.326, 757.687 292.628 C 762.232 297.682, 764.217 298.224, 779.417 298.565 C 787.163 298.739, 795.300 299.288, 797.500 299.785 C 809.450 302.485, 823.142 307.333, 838.100 314.161 C 843.931 316.823, 849.421 319, 850.301 319 C 851.181 319, 852.260 319.589, 852.700 320.308 C 853.140 321.028, 856.632 323.321, 860.460 325.405 C 866.473 328.678, 876.245 334.978, 894.903 347.613 C 899.731 350.883, 907.265 358.662, 920.340 373.877 C 926.980 381.603, 928.664 383.021, 931.340 383.136 C 933.078 383.210, 936.525 383.354, 939 383.454 C 953.334 384.038, 958.491 368.695, 947.890 357 C 945.148 353.975, 941.393 349.237, 939.546 346.471 C 937.698 343.705, 934.708 340.330, 932.900 338.971 C 931.093 337.612, 925.313 333.061, 920.057 328.858 C 897.887 311.131, 850.506 285.086, 830.500 279.629 C 791.639 269.028, 775.203 266.951, 765.500 271.415 M 386.662 276.785 C 383.451 278.726, 383.431 280.387, 386.438 295 C 391.499 319.589, 395.816 330, 400.949 330 C 404.567 330, 407.353 324.671, 406.008 320.323 C 405.213 317.753, 402.916 307.498, 398.509 286.849 C 396.331 276.643, 392.409 273.311, 386.662 276.785 M 183 277.097 C 179.975 277.563, 173.225 278.434, 168 279.032 C 149.039 281.200, 130.776 288.087, 119 297.508 C 115.975 299.928, 110.350 304.356, 106.500 307.348 C 89.690 320.413, 58.676 355.256, 54.452 365.823 C 49.272 378.783, 58.551 394.407, 70.078 392.131 C 76.128 390.936, 85.405 385.853, 85.861 383.482 C 86.064 382.427, 87.290 380.176, 88.584 378.478 C 89.879 376.781, 91.634 373.842, 92.484 371.946 C 94.655 367.106, 95.994 365.075, 100.025 360.500 C 101.964 358.300, 104.558 354.861, 105.791 352.857 C 107.023 350.853, 109.487 348.092, 111.266 346.720 C 113.044 345.349, 119.225 339.862, 125 334.527 C 147.027 314.179, 153.651 310.845, 177.608 308.046 C 187.016 306.947, 195.410 305.780, 196.262 305.453 C 197.113 305.126, 200.665 305.531, 204.155 306.353 C 219.626 309.995, 223.930 309.314, 229.344 302.364 C 235.945 293.891, 234.515 283.371, 226.228 279.438 C 219.783 276.379, 196.009 275.092, 183 277.097 M 594.771 277.750 C 589.169 284.123, 580.087 311.700, 582.998 313.499 C 583.574 313.855, 584 312.959, 584 311.392 C 584 309.893, 584.299 308.965, 584.664 309.331 C 585.029 309.696, 585.259 311.745, 585.176 313.885 C 584.780 323.983, 592.868 321.819, 595.321 311.170 C 596.292 306.951, 598.677 299.675, 600.619 295 C 602.561 290.325, 604.653 285.294, 605.268 283.820 C 607.895 277.521, 599.329 272.566, 594.771 277.750 M 624.854 278.752 C 621.023 279.274, 619.730 281.325, 616.184 292.500 C 610.792 309.494, 610.011 316.528, 613.190 319.476 C 614.624 320.805, 615.969 322.407, 616.179 323.036 C 617.171 326.014, 624 320.785, 624 317.047 C 624 315.077, 625.653 308.073, 627.672 301.483 C 633.230 283.347, 632.531 277.704, 624.854 278.752 M 412.223 288.557 C 409.582 290.406, 409.277 295.342, 411.422 301.500 C 412.189 303.700, 413.994 310, 415.435 315.500 C 420.052 333.130, 424.173 337.368, 428.521 328.959 C 432.236 321.775, 424.462 290.267, 418.407 287.965 C 415.088 286.703, 414.835 286.727, 412.223 288.557 M 639.465 306.952 C 635.832 308.424, 635.034 310.405, 635.183 317.579 C 635.263 321.386, 634.967 329.915, 634.527 336.534 C 633.433 352.959, 636.937 359.409, 645.011 355.835 C 647.727 354.632, 647.759 354.512, 647.788 345.059 C 647.805 339.802, 648.123 330.100, 648.495 323.500 C 649.332 308.664, 646.780 303.987, 639.465 306.952 M 659.355 308.716 C 653.178 309.492, 652.962 310.435, 654.480 330.010 C 656.445 355.357, 658.805 361.793, 665.395 359.771 C 670.576 358.181, 671.408 356.164, 670.065 348.453 C 669.456 344.958, 668.545 335.576, 668.040 327.606 C 667.175 313.958, 665.558 307.549, 663.135 308.160 C 662.786 308.248, 661.085 308.498, 659.355 308.716 M 684.136 310.750 C 681.368 313.073, 683.559 350.839, 686.784 356.382 C 690.796 363.279, 699.902 358.878, 698.069 350.927 C 697.508 348.492, 697 341.550, 696.940 335.500 C 696.704 311.688, 692.562 303.680, 684.136 310.750 M 757.500 310.034 C 733.187 314.987, 733.695 336.487, 758.206 339.896 C 762.387 340.477, 769.564 342.071, 774.154 343.437 C 795.488 349.787, 798.653 351.134, 816.479 361.449 C 821.968 364.625, 827.450 367.601, 828.661 368.061 C 836.554 371.062, 857.820 388.964, 871.552 404.168 C 874.698 407.651, 878.699 412.075, 880.444 414 C 883.167 417.004, 890.133 426.239, 896.286 435 C 901.989 443.120, 906.941 451.248, 909.386 456.500 C 917.205 473.298, 928.992 479.685, 938.621 472.340 C 945.403 467.167, 947.144 460.957, 943.935 453.377 C 942.800 450.695, 941.498 447.600, 941.042 446.500 C 938.370 440.049, 934.465 432.929, 931.444 429 C 929.540 426.525, 926.455 422.250, 924.588 419.500 C 908.791 396.239, 876.508 362.517, 859.612 351.629 C 851.906 346.664, 844.956 342.529, 840.500 340.259 C 838.300 339.138, 831.477 335.320, 825.338 331.775 C 819.198 328.230, 811.773 324.625, 808.838 323.765 C 805.902 322.905, 800.800 321.432, 797.500 320.492 C 789.962 318.344, 784.986 316.679, 778 313.968 C 772.494 311.832, 762.941 308.938, 762 309.121 C 761.725 309.175, 759.700 309.586, 757.500 310.034 M 318.267 315.003 C 314.345 316.619, 304.993 340.353, 303.421 352.678 C 301.878 364.784, 314.607 367.748, 316.419 355.705 C 316.767 353.392, 318.420 347.675, 320.093 343 C 329.019 318.049, 328.506 319.994, 326.907 317.131 C 325.318 314.288, 321.991 313.468, 318.267 315.003 M 445.308 320.194 C 441.134 322.212, 442.056 327.939, 451.173 356.606 C 455.223 369.339, 455.843 370.049, 460.694 367.500 C 465.525 364.961, 466.044 361.098, 462.945 350.757 C 461.749 346.766, 460.220 340.575, 459.548 337 C 456.658 321.630, 452.498 316.720, 445.308 320.194 M 235 328.630 C 218.365 330.603, 210.304 332.509, 201.223 336.614 C 198.320 337.926, 195.498 339, 194.951 339 C 192.950 339, 175.418 346.274, 165.866 351.067 C 151.981 358.035, 145.288 362.510, 118.508 382.731 C 113.248 386.703, 91.354 407.425, 84.521 414.899 C 82.310 417.318, 78.129 421.795, 75.231 424.848 C 66.484 434.060, 65.842 441.311, 73.105 448.870 C 81.647 457.759, 94.638 455.425, 104.218 443.278 C 110.590 435.199, 141.459 404.634, 147.500 400.423 C 150.250 398.505, 154.150 395.844, 156.166 394.509 C 158.182 393.174, 160.127 391.603, 160.489 391.018 C 162.895 387.126, 189.749 370.935, 197 369.006 C 199.475 368.348, 207.125 365.771, 214 363.282 C 225.349 359.171, 227.421 358.735, 236.500 358.547 C 250.100 358.265, 256.245 355.383, 258.304 348.321 C 262.292 334.643, 252.692 326.531, 235 328.630 M 375.203 330.951 C 373.580 332.574, 372.016 334.937, 371.728 336.201 C 371.440 337.465, 369.848 343.675, 368.191 350 C 363.057 369.594, 362.426 376.100, 365.190 380.939 C 368.935 387.496, 373.229 385.155, 374.578 375.820 C 374.922 373.444, 377.182 363.316, 379.601 353.314 C 384.787 331.874, 384.875 330.720, 381.453 329.161 C 378.174 327.667, 378.613 327.541, 375.203 330.951 M 342.798 337.750 C 341.119 339.694, 337.086 354.897, 336.312 362.202 C 335.329 371.475, 339.200 376.619, 344.249 372.750 C 347.818 370.015, 354.224 342.353, 352.393 337.582 C 351.537 335.351, 344.768 335.470, 342.798 337.750 M 542.225 337.709 C 538.554 338.414, 533 351.321, 533 359.147 C 533 360.128, 532.310 362.963, 531.466 365.449 C 529.359 371.655, 531.353 376.017, 536.276 375.968 C 541.895 375.913, 545.010 371.785, 546.831 361.980 C 547.391 358.966, 548.290 355.346, 548.829 353.935 C 549.369 352.524, 550.130 348.808, 550.521 345.677 C 551.524 337.649, 550.028 336.211, 542.225 337.709 M 609.101 341.798 C 605.827 343.437, 605.580 343.978, 602.395 356.500 L 599.088 369.500 601.044 372.210 C 602.120 373.700, 603 375.362, 603 375.903 C 603 378.210, 607.123 379.853, 610.212 378.776 C 613.014 377.800, 613.190 377.451, 612.705 373.838 C 612.353 371.217, 613.130 366.662, 615.092 359.846 C 620.001 342.788, 618.166 337.259, 609.101 341.798 M 572.554 342.072 C 570.313 348.228, 565 365.664, 565 366.863 C 565 367.685, 564.445 369.894, 563.766 371.771 C 562.724 374.652, 562.769 375.365, 564.053 376.342 C 564.889 376.979, 566.563 378.910, 567.772 380.634 C 571.794 386.366, 576.471 384.956, 576.606 377.970 C 576.664 374.961, 577.506 370.025, 578.477 367 C 579.448 363.975, 580.858 359.587, 581.610 357.250 C 585.170 346.178, 583.990 340.913, 578.423 343.029 C 576.926 343.598, 575.789 343.360, 574.674 342.245 C 573.325 340.897, 572.992 340.869, 572.554 342.072 M 724.969 348.536 C 715.880 351.338, 708.685 360.624, 710.378 367.369 C 711.747 372.825, 726.403 379.090, 745.500 382.383 C 756.019 384.197, 778.304 393.753, 790 401.467 C 793.575 403.824, 798.525 406.904, 801 408.310 C 803.475 409.716, 808.875 413.865, 813 417.529 C 817.125 421.193, 823.200 426.284, 826.500 428.842 C 836.466 436.567, 851.185 452.157, 858.397 462.625 C 862.138 468.056, 866.493 474.300, 868.075 476.500 C 870.880 480.403, 884.329 507.025, 887.019 514 C 891.765 526.306, 902.233 531.082, 912.223 525.499 C 922.876 519.545, 922.640 510.181, 911.291 488.500 C 910.140 486.300, 908.409 482.700, 907.445 480.500 C 904.425 473.605, 896.794 461.048, 892.972 456.686 C 890.956 454.384, 886.840 448.675, 883.826 444 C 878.041 435.027, 861.104 416.559, 854.020 411.500 C 847.356 406.740, 838.988 399.772, 832.619 393.678 C 827.559 388.836, 808.807 376.745, 797 370.711 C 779.836 361.940, 767.560 357.602, 755.421 356.017 C 746.808 354.892, 740.138 352.712, 735.332 349.451 C 731.216 346.657, 731.098 346.647, 724.969 348.536 M 400.228 355.211 C 393.693 358.416, 398.922 394.043, 407.643 405.723 C 411.675 411.124, 419.526 405.367, 416.474 399.248 C 414.696 395.683, 412.393 383.518, 410.998 370.311 C 409.562 356.712, 406.350 352.209, 400.228 355.211 M 424.473 359.670 C 418.998 365.145, 430.307 405.058, 438.028 407.509 C 441.666 408.663, 446.501 402.520, 444.172 399.702 C 442.833 398.081, 440.474 388.545, 438.558 377 C 436.200 362.794, 435.995 362.073, 433.722 359.956 C 431.151 357.560, 426.720 357.423, 424.473 359.670 M 257.297 378.049 C 254.985 378.506, 252.285 379.305, 251.297 379.826 C 250.308 380.346, 245.639 381.733, 240.921 382.908 C 232.755 384.941, 186.482 407.084, 175.791 414.075 C 173.751 415.409, 168.464 418.750, 164.042 421.500 C 141.412 435.573, 127.414 446.255, 121.042 454.314 C 118.352 457.716, 115.330 461.213, 114.326 462.085 C 111.774 464.300, 105.371 471.410, 99.543 478.500 C 96.831 481.800, 92.728 486.525, 90.427 489 C 86.771 492.932, 86.172 494.235, 85.686 499.315 C 85.102 505.438, 85.028 505.262, 90.886 511.752 C 94.302 515.536, 103.545 517.132, 107.204 514.570 C 108.437 513.706, 110.706 513, 112.247 513 C 114.244 513, 115.299 512.345, 115.916 510.721 C 117.064 507.701, 129.703 492.817, 132.375 491.338 C 135.085 489.838, 136.269 490.596, 134.826 492.908 C 133.603 494.865, 134.098 495.890, 139.021 501.584 C 146.766 510.542, 152.674 513.018, 157.777 509.443 C 160.743 507.366, 160.728 503.233, 157.750 502.076 C 154.641 500.867, 147.100 493.420, 143.333 487.839 L 140.201 483.198 142.182 479.849 C 144.918 475.224, 155.659 465, 157.782 465 C 158.775 465, 161.548 467.792, 164.237 471.500 C 169.457 478.697, 174.537 480.379, 178.345 476.171 C 180.763 473.499, 180.542 472.809, 174.445 464.007 C 171.389 459.597, 169.169 455.536, 169.511 454.982 C 170.185 453.892, 179.394 447.541, 184.270 444.805 C 185.931 443.873, 187.764 442.636, 188.345 442.055 C 190.005 440.395, 190.835 440.781, 192.493 443.986 C 193.944 446.793, 194.348 446.954, 199.209 446.664 C 205.066 446.316, 205.779 445.407, 203.561 441.117 C 200.371 434.949, 201.168 433.538, 210.363 429.067 C 220.476 424.149, 219.533 424.165, 221.937 428.877 C 224.313 433.535, 225.718 434.193, 230.481 432.878 C 235.060 431.613, 235.495 430.407, 233.635 424.141 L 232.132 419.082 235.316 417.124 C 240.160 414.146, 245.735 412.331, 254 411.040 C 265.414 409.257, 268.209 408.329, 272.811 404.792 C 284.213 396.029, 283.085 383.795, 270.440 379.063 C 264.511 376.845, 263.707 376.783, 257.297 378.049 M 660.170 379.527 C 657.729 382.064, 657.116 393.026, 658.956 401.236 C 659.482 403.581, 660.864 410, 662.027 415.500 C 664.736 428.303, 666.525 430.309, 673.550 428.422 C 678.015 427.223, 678.181 424.985, 674.861 410.789 C 672.730 401.676, 671.714 394.672, 671.626 388.500 C 671.556 383.550, 671.173 378.999, 670.775 378.386 C 669.441 376.336, 662.525 377.080, 660.170 379.527 M 630.270 385.250 C 627.803 391.425, 626.370 413.524, 628.180 417.495 C 629.746 420.932, 634.893 423.395, 638.008 422.198 L 640.517 421.233 640.832 402.689 C 641.189 381.761, 640.787 380, 635.649 380 C 632.624 380, 632.204 380.410, 630.270 385.250 M 690.231 387.725 C 685.016 388.370, 683.938 391.024, 685.044 400.500 C 688.425 429.482, 689.840 432.988, 697.317 430.923 C 702.427 429.512, 703.538 427.739, 702.171 423.177 C 701.552 421.109, 700.577 414.085, 700.006 407.567 C 698.657 392.183, 696.978 386.385, 694.095 387.160 C 693.768 387.248, 692.029 387.502, 690.231 387.725 M 310.354 391.692 C 303.008 393.129, 299.516 422.548, 305.248 434.702 C 307.844 440.206, 314.350 438.598, 313.502 432.661 C 313.175 430.373, 313.385 426.250, 313.968 423.500 C 316.876 409.801, 318.155 394.678, 316.617 392.189 C 315.886 391.006, 314.446 390.892, 310.354 391.692 M 334.389 391.980 C 327.838 394.627, 328.839 423.789, 335.464 423.300 C 339.023 423.037, 341 421.301, 341 418.440 C 341 417.166, 341.691 413.144, 342.536 409.503 C 345.904 394.980, 342.909 388.537, 334.389 391.980 M 723.231 392.959 C 721.418 394.471, 720.754 396.515, 719.923 403.143 C 719.351 407.704, 718.234 414.825, 717.442 418.967 C 714.538 434.144, 716.367 440, 724.012 440 C 728.588 440, 729.920 435.548, 732.983 410.026 C 734.430 397.967, 734.356 397.435, 730.750 394.055 C 726.971 390.514, 726.283 390.413, 723.231 392.959 M 466.635 396.073 C 463.337 398.666, 463.315 400.955, 466.539 406.061 C 468.872 409.758, 476.971 434.400, 477.022 437.961 C 477.034 438.807, 477.897 440.609, 478.938 441.964 C 482.776 446.958, 489.739 439.474, 488.479 431.709 C 487.629 426.463, 482.215 407.107, 480.943 404.764 C 480.424 403.809, 480 402.381, 480 401.590 C 480 396.226, 471.107 392.555, 466.635 396.073 M 366.452 401.646 C 364.954 403.263, 363.995 405.500, 363.988 407.396 C 363.982 409.103, 363.312 412.975, 362.500 416 C 360.033 425.190, 361.640 432, 366.275 432 C 368.862 432, 373 427.968, 373 425.448 C 373 424.124, 373.637 421.344, 374.415 419.270 C 377.813 410.217, 377.353 401.937, 373.351 400.114 C 369.874 398.530, 369.202 398.679, 366.452 401.646 M 385.223 401.557 C 382.881 403.196, 382.045 409.614, 383.920 411.550 C 384.426 412.072, 386.531 416.775, 388.598 422 C 395.412 439.226, 399.604 443.842, 404.966 440.024 C 408.065 437.818, 408.706 436.140, 407.094 434.450 C 406.595 433.928, 404.806 429.343, 403.117 424.263 C 396.820 405.319, 390.785 397.661, 385.223 401.557 M 601.250 401.965 L 598 403.971 598 417.798 C 598 431.610, 598.003 431.629, 600.777 434.286 C 605.510 438.821, 614.676 435.981, 612.285 430.720 C 611.714 429.464, 611.472 424.156, 611.728 418.500 C 612.478 401.934, 609.335 396.975, 601.250 401.965 M 562.676 406.452 C 557.869 408.166, 558.383 407.075, 557.641 417.144 C 557.133 424.047, 557.285 425.896, 558.398 426.323 C 559.165 426.617, 560.822 428.691, 562.082 430.932 C 564.922 435.985, 571.773 436.759, 571.212 431.962 C 571.053 430.608, 570.818 424.550, 570.688 418.500 C 570.380 404.153, 570.139 403.790, 562.676 406.452 M 522.458 407.068 C 522.095 407.656, 521.143 407.885, 520.343 407.578 C 513.342 404.892, 513.090 425.231, 519.885 444.500 C 520.467 446.150, 521.175 448.681, 521.459 450.124 C 521.743 451.567, 522.790 453.754, 523.786 454.984 L 525.597 457.220 529.505 455.125 C 534.050 452.690, 535.915 449.821, 535.965 445.193 C 536.019 440.150, 533.938 433, 532.416 433 C 530.081 433, 529.238 429.806, 528.743 419.083 C 528.230 407.954, 525.333 402.417, 522.458 407.068 M 753.749 414.255 C 751.669 415.953, 750.612 418.206, 749.412 423.500 C 748.539 427.350, 747.414 431.534, 746.912 432.797 C 744.838 438.018, 745.773 443.831, 748.950 445.474 C 756.798 449.532, 759.533 445.614, 763.529 424.588 L 765.222 415.676 762.861 413.860 C 759.706 411.434, 757.066 411.548, 753.749 414.255 M 437.987 422.516 C 434.269 426.996, 439.587 444.782, 445.174 446.555 C 446.690 447.036, 448.060 446.401, 450.268 444.194 L 453.287 441.175 451.640 434.617 C 448.603 422.527, 442.481 417.101, 437.987 422.516 M 263.978 428.022 C 257.413 434.587, 268.270 475, 276.599 475 C 280.853 475, 281.698 473.251, 279.500 469 C 278.430 466.932, 277.541 461.397, 276.954 453.160 C 275.429 431.736, 275.157 430.269, 272.295 428.018 C 269.042 425.459, 266.540 425.460, 263.978 428.022 M 786.989 439.344 C 777.143 449.149, 771.058 466.338, 776.547 468.839 C 783.609 472.057, 785.635 470.476, 792.908 456.067 C 794.694 452.529, 797.470 447.723, 799.078 445.387 C 802.563 440.321, 802.539 440.539, 799.902 437.902 C 795.370 433.370, 792.687 433.670, 786.989 439.344 M 232.515 445.628 C 229.498 448.645, 234.074 467.252, 239.861 475.500 C 241.405 477.700, 242.973 480.175, 243.345 481 C 245.929 486.724, 247.754 488.509, 251.332 488.811 C 256.086 489.212, 257.107 486.988, 254.060 482.867 C 251.134 478.910, 248.537 471.153, 246.373 459.905 C 243.720 446.113, 237.962 440.181, 232.515 445.628 M 348.072 449.474 C 337.527 452.265, 331.313 455.771, 330.824 459.205 C 330.636 460.527, 329.666 461.639, 328.510 461.859 C 327.416 462.068, 325.928 463.085, 325.204 464.119 C 324.479 465.154, 323.012 466, 321.943 466 C 319.658 466, 319.325 468.527, 321.500 469.362 C 322.325 469.678, 323 470.433, 323 471.040 C 323 471.647, 322.325 472.818, 321.500 473.643 C 316.655 478.488, 328.289 480.649, 344.338 477.885 C 357.941 475.543, 385.815 478.052, 400 482.897 C 401.375 483.366, 406.325 484.964, 411 486.446 C 415.675 487.929, 423.066 491.022, 427.425 493.321 L 435.350 497.500 435.148 506.500 C 435.036 511.450, 436.135 526.525, 437.588 540 C 439.989 562.245, 440.257 568.734, 440.499 610.500 C 440.778 658.546, 442.526 682.856, 446.358 692 C 452.546 706.763, 476.831 703.796, 479.509 687.949 C 479.876 685.777, 480.575 684, 481.064 684 C 481.553 684, 482.750 682.534, 483.726 680.741 C 486.759 675.170, 491.453 669.070, 492.500 669.340 C 493.050 669.482, 498.116 676.489, 503.758 684.911 C 515.220 702.022, 516.702 703.511, 524.222 705.470 C 535.871 708.504, 541.340 703.665, 543.610 688.313 C 544.963 679.160, 547.518 671.978, 549.402 672.031 C 550.834 672.071, 555.306 678.117, 563.066 690.500 C 578.020 714.367, 580.918 717.280, 590.819 718.400 C 598.393 719.257, 601.292 718.080, 604.637 712.789 L 607.348 708.500 607.333 679 C 607.320 653.295, 606.975 646.670, 604.656 627.500 C 602.872 612.748, 601.805 597.924, 601.418 582.500 C 600.789 557.412, 599.598 540.289, 597.940 532.500 C 597.355 529.750, 596.678 520.975, 596.436 513 C 596.194 505.025, 595.494 495.565, 594.881 491.978 C 593.045 481.242, 592.657 481.616, 606.510 480.754 C 613.105 480.343, 622.100 479.555, 626.500 479.001 C 630.900 478.448, 638.775 477.504, 644 476.903 C 649.225 476.301, 656.425 475.122, 660 474.281 C 669.105 472.140, 684.626 472.037, 688.500 474.091 C 702.342 481.434, 709.375 484.247, 711.138 483.146 C 712.147 482.516, 713.661 482, 714.501 482 C 716.259 482, 719.991 476.368, 719.996 473.707 C 720.007 468.575, 709.287 457.744, 699.359 452.856 C 692.083 449.274, 670.575 447.990, 665.316 450.823 C 664.114 451.470, 659.930 452, 656.018 452 C 652.105 452, 642.738 452.728, 635.202 453.617 C 618.846 455.547, 596.590 454.985, 588.025 452.425 C 577.779 449.363, 569.981 451.743, 563.670 459.860 C 560.622 463.781, 560.455 471.661, 563.091 487.153 C 563.620 490.262, 564.252 494.987, 564.495 497.653 C 564.738 500.319, 565.387 505.650, 565.936 509.500 C 566.485 513.350, 566.949 519.247, 566.967 522.604 C 566.985 525.961, 567.939 534.736, 569.088 542.104 C 570.690 552.391, 571.376 563.391, 572.042 589.500 C 572.518 608.200, 573.255 627.100, 573.678 631.500 C 574.756 642.700, 574.679 650.261, 573.483 650.666 C 572.330 651.057, 565.254 639.866, 562.208 632.834 C 554.795 615.720, 532.389 625.806, 523.008 650.480 C 522.380 652.130, 521.377 653.023, 520.375 652.823 C 518.268 652.403, 508.063 635.318, 505.027 627.129 C 500.725 615.523, 487.514 614.261, 476.794 624.432 C 471.942 629.035, 471.945 629.052, 472.168 595.750 C 472.363 566.513, 470.523 533.584, 468.298 526.500 C 467.952 525.400, 467.600 517.975, 467.514 510 C 467.378 497.411, 467.071 494.881, 465.179 490.805 C 463.980 488.223, 463 485.171, 463 484.023 C 463 476.501, 458.054 471.558, 443 464.034 C 429.943 457.508, 420.622 454.301, 400.500 449.412 C 387.959 446.364, 359.693 446.398, 348.072 449.474 M 205.750 461.080 C 202.845 462.772, 204.287 470.783, 208.386 475.719 C 209.657 477.249, 210.975 479.625, 211.315 481 C 212.429 485.494, 224.073 496, 227.940 496 C 234.018 496, 234.430 492.275, 229.004 486.388 C 226.806 484.004, 223.187 478.113, 220.962 473.297 C 215.148 460.712, 211.463 457.752, 205.750 461.080 M 814.954 464.750 C 809.667 469.745, 801 483.679, 801 487.183 C 801 490.231, 804.933 493, 809.262 493 C 812.242 493, 821.044 482.655, 825.916 473.426 L 829.332 466.956 826.479 463.978 C 822.672 460.005, 819.770 460.199, 814.954 464.750 M 297.904 464.179 C 296.282 467.210, 297.379 480.404, 299.526 483.680 C 301.083 486.057, 306.702 486.632, 308.713 484.620 C 309.690 483.644, 309.250 467.370, 308.177 464.750 C 306.669 461.072, 299.773 460.688, 297.904 464.179 M 746.424 463.857 C 743.585 465.613, 740.796 470.305, 736.288 480.912 C 733.903 486.523, 733.751 493.796, 735.993 494.996 C 739.163 496.693, 744.802 496.242, 745.326 494.250 C 745.579 493.288, 746.351 490.250, 747.042 487.500 C 747.733 484.750, 749.131 481.571, 750.149 480.436 C 751.167 479.300, 752 477.812, 752 477.128 C 752 476.444, 753.149 473.827, 754.553 471.313 C 759.088 463.188, 754.424 458.910, 746.424 463.857 M 486.225 475.791 C 481.153 476.582, 480.681 479.274, 482.473 497.194 C 485.374 526.199, 489.580 534.661, 496.553 525.519 C 498.946 522.382, 499.094 521.714, 498.049 518.769 C 497.410 516.971, 496.486 509.425, 495.994 502 C 494.427 478.333, 493.081 474.723, 486.225 475.791 M 323.944 486.844 C 321.050 489.188, 321.890 491.597, 325.910 492.480 C 332.068 493.833, 336.139 489.612, 331.686 486.493 C 328.859 484.512, 326.703 484.610, 323.944 486.844 M 842.937 487.397 C 839.556 489.695, 834.204 495.711, 830.836 501 C 829.961 502.375, 827.839 504.958, 826.122 506.741 C 820.973 512.086, 821.567 517.339, 827.509 519.003 L 832.019 520.265 836.810 515.883 C 839.445 513.472, 842.336 510.375, 843.234 509 C 844.131 507.625, 846.696 503.867, 848.933 500.649 C 853.735 493.740, 853.973 491.306, 850.195 487.687 C 846.807 484.441, 847.260 484.459, 842.937 487.397 M 766.382 488.772 C 759.684 494.237, 754.315 514, 759.528 514 C 766.447 514, 779.037 494.391, 775.815 488.634 C 774.603 486.469, 769.107 486.549, 766.382 488.772 M 190 489.729 C 185.507 491.439, 186.104 495.754, 192.010 504.273 C 202.138 518.883, 209.424 524.799, 214.792 522.772 C 218.786 521.265, 218.782 520.559, 214.750 514.541 C 212.963 511.873, 210.631 508.297, 209.568 506.595 C 201.210 493.202, 194.981 487.833, 190 489.729 M 350.472 491.403 C 346.720 497.129, 349.744 500.710, 357.917 500.222 C 361.786 499.991, 363.845 493.922, 360.491 492.635 C 359.661 492.316, 359.098 491.481, 359.241 490.778 C 359.784 488.100, 352.286 488.634, 350.472 491.403 M 380.302 491.012 C 378.083 491.905, 375 496.722, 375 499.295 C 375 503.789, 383.707 505.684, 386.438 501.784 C 391.649 494.345, 387.987 487.917, 380.302 491.012 M 525.961 493.891 C 522.163 497.062, 522.412 494.814, 523.232 518.500 C 523.827 535.684, 525.234 538.810, 531.446 536.743 C 535.379 535.434, 536.452 534.406, 536.707 531.700 C 536.821 530.490, 537.199 527.250, 537.548 524.500 C 537.896 521.750, 537.637 515.450, 536.973 510.500 C 536.308 505.550, 535.705 499.626, 535.632 497.335 C 535.482 492.595, 535.420 492.501, 531.931 491.667 C 530.001 491.206, 528.515 491.759, 525.961 493.891 M 618.750 502.572 C 616.025 504.050, 616.001 504.153, 616.131 513.782 C 616.468 538.874, 617.843 542.379, 626.021 538.991 L 629.229 537.662 628.804 520.706 C 628.297 500.520, 626.965 498.115, 618.750 502.572 M 294.500 504.739 C 275.310 506.265, 262.436 509.714, 258 514.516 C 255.234 517.511, 246.603 523.490, 240.654 526.533 C 233.746 530.066, 222.816 544.565, 222.768 550.261 C 222.675 561.235, 225.525 565.487, 232.464 564.723 C 239.894 563.906, 249.437 559.510, 254.267 554.680 C 256.752 552.195, 260.296 549.401, 262.142 548.469 C 263.989 547.538, 267.525 545.117, 270 543.090 C 280.790 534.251, 279.340 534.694, 300.429 533.803 C 322.121 532.887, 340.649 534.114, 348.484 536.986 C 351.243 537.997, 355.975 539.728, 359 540.832 C 380.924 548.835, 392.591 546.601, 393.717 534.183 C 394.745 522.850, 389.804 516.347, 378.359 513.971 C 375.337 513.343, 370.516 511.792, 367.646 510.522 C 356.713 505.687, 319.532 502.747, 294.500 504.739 M 407.423 508.476 C 405.964 510.704, 405.794 513.058, 406.209 525.285 C 406.863 544.557, 409.795 550.477, 415.741 544.532 L 418.439 541.834 418.203 527.667 C 417.882 508.364, 417.432 506.584, 412.775 506.193 C 409.765 505.941, 408.821 506.343, 407.423 508.476 M 795.333 508.788 C 792.749 509.054, 791.782 509.886, 790.078 513.307 C 788.929 515.613, 787.436 518.279, 786.761 519.231 C 783.364 524.023, 791.851 525.240, 797 520.700 C 804.004 514.523, 803.090 507.988, 795.333 508.788 M 167.751 519.689 C 166.789 519.941, 165.725 521.247, 165.387 522.593 C 164.212 527.277, 166.629 530.279, 176.807 536.777 C 182.169 540.201, 188.034 544.351, 189.840 546.001 C 191.646 547.650, 194.010 549, 195.094 549 C 198.256 549, 204 546.227, 204 544.701 C 204 542.481, 198.340 535.258, 194.651 532.770 C 192.800 531.521, 187.513 527.913, 182.902 524.750 C 174.902 519.263, 172.478 518.454, 167.751 519.689 M 705 520.485 C 699.775 521.241, 693.475 522.379, 691 523.016 C 688.525 523.652, 682 524.968, 676.500 525.940 C 658.666 529.093, 656.281 530.163, 646.904 539.228 C 637.910 547.923, 639.131 560.659, 649.004 561.129 C 656.487 561.485, 664.555 559.742, 670.667 556.451 C 675.431 553.885, 678.843 552.895, 685.667 552.101 C 690.525 551.536, 697.650 549.942, 701.500 548.558 C 713.593 544.212, 730.636 546.646, 750.261 555.521 C 755.708 557.985, 760.590 560, 761.110 560 C 762.143 560, 781.586 568.649, 789.342 572.559 C 804.451 580.175, 817.109 567.739, 807.888 554.338 C 804.332 549.169, 793.711 541.841, 785.732 539.050 C 782.854 538.044, 776.900 535.361, 772.500 533.087 C 752.297 522.649, 725.126 517.576, 705 520.485 M 134 520.930 C 134 521.519, 133.314 522, 132.475 522 C 128.604 522, 128.060 530.239, 131.497 536.813 C 136.057 545.533, 145.153 551.819, 151 550.290 C 154.570 549.356, 151.375 539.636, 146.235 535.796 C 143.283 533.591, 141.760 531.127, 140 525.714 C 138.443 520.922, 134 517.380, 134 520.930 M 856.455 530.455 C 855.105 531.805, 854 533.733, 854 534.739 C 854 537.042, 850.470 547.158, 847.927 552.144 C 844.027 559.789, 846.217 564.566, 853.920 565.215 C 862.383 565.929, 871.780 536.358, 864.923 530.589 C 861.097 527.369, 859.564 527.345, 856.455 530.455 M 309.751 547.591 C 293.490 553.478, 283.594 568.099, 287.626 580.281 C 289.951 587.306, 290.121 587.733, 292.857 593.392 C 300.146 608.472, 325.099 613.643, 335.048 602.135 C 351.817 582.739, 350.177 552.032, 332.103 547.012 C 327.106 545.624, 314.265 545.956, 309.751 547.591 M 488.093 553.557 L 484.686 555.036 485.344 573.204 C 486.233 597.755, 489.124 604.248, 496.233 597.659 C 500.058 594.115, 501.265 591.363, 500.017 589.031 C 499.437 587.949, 498.615 580.100, 498.190 571.590 C 497.219 552.165, 496.062 550.099, 488.093 553.557 M 618.716 558.761 C 617.449 560.162, 616.982 564.106, 616.436 578.011 L 615.750 595.500 618.644 597.609 C 627.394 603.986, 627.959 602.922, 628.440 579.176 C 628.823 560.290, 628.730 558.926, 626.990 557.995 C 624.141 556.470, 620.483 556.808, 618.716 558.761 M 708.500 560.776 C 692.152 568.710, 686.571 582.570, 692.418 600.715 C 698.229 618.748, 703.038 621.754, 724.500 620.772 C 726.150 620.696, 728.699 620.981, 730.163 621.404 C 732.268 622.012, 733.212 621.711, 734.663 619.969 C 735.674 618.756, 739.209 615.005, 742.519 611.632 C 750.229 603.778, 751.282 600.603, 750.688 587 C 749.999 571.197, 749.261 569.187, 742.743 565.361 C 729.216 557.422, 718.396 555.973, 708.500 560.776 M 883.894 564.279 C 875.695 571.601, 867.579 598.916, 872.411 602.926 C 873.187 603.570, 875.392 604.352, 877.312 604.663 C 881.834 605.397, 882.380 604.522, 888.964 586.007 C 891.799 578.035, 894.766 571.151, 895.559 570.707 C 898.963 568.802, 895.153 562.127, 890.272 561.445 C 888.225 561.160, 886.557 561.901, 883.894 564.279 M 150.248 568.706 C 143.872 569.934, 145.402 575.250, 156.264 589.605 C 166.477 603.102, 166.565 603.169, 173.628 602.803 C 180.251 602.460, 181.299 601.102, 178.107 596.999 C 163.422 578.128, 160.003 573.464, 159.994 572.290 C 159.987 571.419, 154.236 567.919, 153.169 568.136 C 152.801 568.211, 151.487 568.468, 150.248 568.706 M 412.736 570.674 C 405.245 572.703, 408.804 607, 416.506 607 C 419.962 607, 422.906 600.706, 422.439 594.315 C 421.453 580.822, 421.054 577.770, 420.130 576.644 C 419.614 576.015, 419.036 574.375, 418.846 573 C 418.495 570.462, 416.427 569.675, 412.736 570.674 M 525.340 573.066 C 522.258 575.033, 522.163 575.316, 521.461 584.677 C 519.497 610.875, 523.297 623.170, 531.846 618.279 L 534.956 616.500 534.388 595 C 534.075 583.175, 533.523 573.213, 533.160 572.862 C 531.369 571.132, 528.243 571.213, 525.340 573.066 M 194.223 573.557 C 190.758 575.983, 191.325 580.451, 195.931 587.017 C 198.093 590.099, 201.253 595.534, 202.954 599.095 C 209.510 612.818, 217.483 617.518, 221.695 610.140 L 223.890 606.295 221.061 604.204 C 219.506 603.053, 217.225 599.949, 215.992 597.306 C 208.378 580.971, 206.525 577.792, 202.979 574.983 C 198.690 571.586, 197.348 571.368, 194.223 573.557 M 833 583.284 C 830.480 584.548, 823.672 596.857, 822.663 601.973 C 822.389 603.363, 821.625 606.300, 820.965 608.500 C 815.745 625.906, 826.961 625.832, 833.614 608.417 C 834.227 606.813, 836.139 602.125, 837.863 598 C 842.266 587.464, 842.731 584.462, 840.172 583.092 C 837.559 581.694, 836.091 581.733, 833 583.284 M 367.234 607.975 C 365.987 608.510, 362.230 610.807, 358.884 613.079 C 338.516 626.911, 319.395 632.681, 302.665 630.045 C 287.207 627.610, 280.704 627.600, 275.992 630.004 C 273.283 631.386, 270.885 631.937, 269.303 631.540 C 265.706 630.637, 266.617 634.046, 270.503 636.030 C 272.151 636.871, 274.701 638.362, 276.170 639.342 C 277.638 640.323, 283.027 642.187, 288.144 643.484 C 293.261 644.782, 297.610 646.329, 297.807 646.922 C 298.550 649.150, 319.159 648.212, 329.712 645.470 C 342.405 642.172, 376.508 625.464, 381.008 620.338 C 383.753 617.211, 384.514 610.621, 382.417 608.139 C 381.656 607.240, 369.261 607.106, 367.234 607.975 M 763 626.549 C 755.846 631.409, 754.999 632.120, 754.969 633.297 C 754.908 635.613, 750.199 637.892, 734.911 643.001 C 710.210 651.257, 697.085 649.867, 676.054 636.769 C 673.609 635.246, 670.857 634, 669.939 634 C 669.021 634, 667.197 633.171, 665.885 632.159 C 660.090 627.685, 649.331 626.919, 642.596 630.500 C 640.010 631.875, 637.018 633, 635.947 633 C 626.436 633, 629.728 644.982, 639.647 646.470 C 646.268 647.463, 661.515 653.519, 671.236 659.018 C 672.191 659.558, 673.991 660.009, 675.236 660.021 C 676.481 660.032, 682.900 661.152, 689.500 662.510 C 709.537 666.632, 730.026 664.088, 750.754 654.903 C 779.359 642.229, 785.830 636.645, 782.267 627.713 L 780.786 624 773.643 624.086 C 767.860 624.155, 765.834 624.624, 763 626.549 M 184.833 630.820 C 182.478 631.780, 178.997 636.468, 179.014 638.658 C 179.050 643.366, 195.616 669.660, 203.349 677.283 L 208.202 682.066 211.245 680.283 C 216.375 677.278, 216.598 676.001, 213.010 670.170 C 210.386 665.905, 209.412 665.052, 207.769 665.573 C 205.184 666.394, 203.881 664.354, 205.176 661.514 C 205.972 659.766, 205.585 658.483, 203.185 654.922 C 199.142 648.922, 192 635.236, 192 633.488 C 192 630.966, 188.067 629.502, 184.833 630.820 M 855.291 631.509 C 854.106 632.339, 851.670 635.601, 849.877 638.759 C 848.085 641.916, 844.925 646.998, 842.856 650.052 C 832.815 664.872, 830.244 676, 836.861 676 C 838.781 676, 843 672.076, 843 670.289 C 843 669.694, 844.462 667.894, 846.250 666.290 C 849.869 663.041, 851.730 660.569, 860.270 647.673 C 865.810 639.306, 866.083 638.616, 864.939 635.854 C 862.776 630.630, 858.983 628.923, 855.291 631.509 M 413.481 639.692 C 411.891 643.491, 411.258 651.990, 412.424 653.877 C 412.763 654.425, 413.259 658.156, 413.526 662.169 C 414.128 671.191, 414.602 672.739, 417.001 673.500 C 419.589 674.322, 424.683 671.528, 425.642 668.761 C 426.805 665.403, 426.202 650.236, 424.804 647.700 C 424.137 646.490, 423.346 643.475, 423.046 641 C 422.251 634.444, 416.034 633.594, 413.481 639.692 M 230.360 643.681 C 226.080 653.924, 241.756 673.564, 254.534 673.967 C 255.103 673.985, 256.350 672.678, 257.304 671.062 L 259.040 668.124 254.627 665.087 C 252.199 663.417, 249.705 660.802, 249.083 659.275 C 248.461 657.749, 246.399 654.025, 244.500 651 C 242.601 647.975, 240.543 644.263, 239.926 642.750 C 238.083 638.232, 232.406 638.784, 230.360 643.681 M 382 645.977 C 376.232 646.728, 370.831 649.101, 365.053 653.424 C 355.815 660.338, 341.438 662.105, 332.621 657.411 C 321.472 651.476, 310.282 659.240, 317.545 667.871 C 327.463 679.658, 342.703 683.322, 357.223 677.411 C 371.519 671.591, 390.454 659.566, 392.088 655.269 C 393.777 650.827, 391.635 644.783, 388.500 645.146 C 387.950 645.210, 385.025 645.584, 382 645.977 M 807.367 648.456 C 806.129 649.323, 804.582 652.430, 803.541 656.139 C 802.580 659.564, 800.781 663.972, 799.543 665.933 C 798.305 667.895, 796.936 670.625, 796.500 672 C 796.064 673.375, 794.649 676.179, 793.354 678.230 C 790.288 683.088, 790.375 683.834, 794.198 685.441 C 798.561 687.276, 799.328 686.803, 805.475 678.491 C 812.704 668.716, 817.949 657.743, 817.985 652.321 C 818.017 647.587, 811.825 645.333, 807.367 648.456 M 619.500 651.878 C 615.890 652.649, 615.191 655.759, 615.074 671.554 L 615 681.608 618.271 684.778 C 621.073 687.494, 621.970 687.835, 624.521 687.151 L 627.500 686.353 627.593 675.926 C 627.709 663.076, 625.516 650.720, 623.191 651.118 C 622.811 651.183, 621.150 651.525, 619.500 651.878 M 677.630 671.560 C 675.502 672.340, 672.694 672.710, 671.390 672.383 C 665.674 670.948, 668.543 681.378, 674.910 685.176 C 676.884 686.354, 679.625 688.348, 681 689.606 C 690.932 698.695, 733.991 704.915, 751.092 699.731 C 762.116 696.389, 768.743 686.791, 766.419 677.532 C 765.168 672.550, 753.534 671.190, 745.956 675.140 C 738.693 678.926, 721.277 679.489, 706.631 676.413 C 702.709 675.589, 697.202 674.488, 694.392 673.966 C 691.583 673.444, 687.660 672.338, 685.674 671.508 C 683.689 670.679, 681.937 670.032, 681.782 670.070 C 681.627 670.109, 679.759 670.779, 677.630 671.560 M 829.384 693.765 C 828.771 694.169, 827.294 696.300, 826.103 698.500 C 824.911 700.700, 822.541 704.750, 820.835 707.500 C 819.130 710.250, 816.399 714.975, 814.767 718 C 813.135 721.025, 810.045 725.792, 807.900 728.592 C 803.230 734.690, 803.168 735.272, 806.904 737.932 C 813.097 742.342, 821.023 736.892, 827.649 723.668 C 829.625 719.725, 832.667 714.475, 834.411 712 C 839.883 704.232, 840.464 702.557, 838.988 698.800 C 836.968 693.659, 832.836 691.493, 829.384 693.765 M 272.170 697.511 C 269.041 701.489, 270.710 707.597, 276.127 712 C 278.495 713.925, 284.048 718.991, 288.467 723.258 C 298.246 732.702, 302.671 734.598, 306.513 730.988 C 309.703 727.991, 309.653 727.515, 305.750 723.638 C 303.962 721.862, 300.254 717.536, 297.508 714.024 C 294.762 710.513, 289.812 705.650, 286.508 703.219 C 283.204 700.788, 280.275 698.497, 280 698.129 C 278.014 695.469, 274.024 695.154, 272.170 697.511 M 225.635 702.073 C 220.963 705.748, 221.905 710.004, 229.127 717.847 C 232.497 721.506, 236.423 726.300, 237.851 728.500 C 239.280 730.700, 242.007 734.525, 243.912 737 C 246.939 740.932, 248.876 742.918, 256 749.398 C 259.031 752.154, 263.947 752.398, 266.582 749.923 C 269.824 746.877, 269.638 745.588, 265.496 742.429 C 263.569 740.960, 261.432 738.749, 260.746 737.518 C 259.299 734.917, 255.348 729.201, 251.059 723.500 C 249.403 721.300, 246.960 717.925, 245.629 716 C 241.687 710.300, 231.003 700, 229.032 700 C 228.613 700, 227.084 700.933, 225.635 702.073 M 374.308 704.010 C 369.328 706.016, 368.514 709.229, 370.824 717.775 C 371.971 722.024, 373.192 727.696, 373.536 730.380 C 373.880 733.064, 374.544 736.214, 375.012 737.380 C 375.479 738.546, 376.115 740.691, 376.424 742.147 C 377.493 747.177, 388.015 751.096, 390.952 747.558 C 391.888 746.430, 391.832 745.395, 390.697 742.808 C 389.898 740.989, 388.691 735.675, 388.015 731 C 384.398 706.001, 381.845 700.974, 374.308 704.010 M 666.867 717.202 C 665.523 719.016, 662.935 723.001, 661.116 726.059 C 659.298 729.116, 656.456 733.166, 654.803 735.059 C 647.754 743.126, 647.986 746.562, 655.569 746.402 C 659.338 746.322, 660.715 745.758, 662.894 743.402 C 680.002 724.901, 683.795 714.844, 673.906 714.202 C 669.716 713.929, 669.096 714.193, 666.867 717.202 M 430.750 719.115 L 428 721.167 428 736.034 C 428 761.218, 431.075 768.423, 440.229 764.688 L 443.389 763.399 443.156 753.449 C 443.027 747.977, 442.812 738.611, 442.678 732.635 C 442.355 718.318, 438.173 713.577, 430.750 719.115 M 771.220 722.414 C 769.449 724.291, 767.990 726.429, 767.977 727.164 C 767.964 727.899, 765.039 731.839, 761.477 735.920 C 752.959 745.677, 753.081 750.007, 761.833 748.528 C 767.505 747.570, 780.733 732.905, 782.975 725.088 C 784.816 718.669, 776.531 716.783, 771.220 722.414 M 625.068 721.778 C 622.257 723.188, 620.576 725.565, 615.774 734.913 C 609.528 747.073, 609.312 748.444, 613.517 749.248 C 617.910 750.088, 619.628 749.099, 624.463 742.943 C 635.128 729.368, 635.495 716.548, 625.068 721.778 M 711.761 724.384 C 710.804 725.111, 709.348 727.234, 708.525 729.102 C 707.702 730.971, 705.673 734.300, 704.018 736.500 C 695.685 747.572, 696.535 751.443, 706.845 749.381 C 711.461 748.458, 723 732.782, 723 727.433 C 723 723.397, 715.677 721.411, 711.761 724.384 M 481.763 725.565 C 478.260 727.466, 477.884 729.163, 477.765 743.590 C 477.596 764.084, 478.642 767, 486.155 767 C 490.428 767, 490.460 766.936, 491.456 756.500 C 494.117 728.606, 491.508 720.278, 481.763 725.565 M 525.465 724.952 C 521.565 726.533, 520.654 729.063, 518.858 743.316 C 515.813 767.465, 516.284 769.898, 524.009 769.968 C 528.678 770.011, 529.694 768.178, 531.637 756.216 C 535.966 729.565, 534.344 721.352, 525.465 724.952 M 328.349 726.772 C 323.520 730.651, 324.260 733.912, 331.937 742.577 C 335.798 746.934, 341.789 754.095, 345.250 758.488 C 352.200 767.310, 359.250 771.819, 366.281 771.937 C 371.949 772.032, 371.667 770.191, 364.914 763 C 361.556 759.425, 358.124 755.183, 357.287 753.573 C 352.381 744.135, 335.799 725.053, 332.500 725.048 C 331.400 725.046, 329.532 725.822, 328.349 726.772 M 565.292 729.700 C 562.378 730.265, 558.759 736.271, 557.910 741.950 C 557.061 747.633, 555.261 757.133, 553.947 762.865 C 551.618 773.023, 563.032 775.218, 565.978 765.179 C 566.734 762.606, 568.219 758.530, 569.279 756.123 C 571.494 751.093, 573.261 732.281, 571.710 730.250 C 570.757 729.003, 569.464 728.892, 565.292 729.700 M 286.655 758.829 C 281.909 764.073, 285.576 769.673, 300.025 779.250 C 312.950 787.817, 315.400 788.441, 320.009 784.335 C 324.170 780.627, 323.851 779.368, 317.770 775.500 C 316.905 774.950, 314.241 772.857, 311.849 770.849 C 306.875 766.673, 291.258 757, 289.490 757 C 288.841 757, 287.565 757.823, 286.655 758.829 M 783.250 764.662 C 782.563 764.940, 782 766.370, 782 767.841 C 782 769.895, 779.683 772.835, 772.014 780.508 C 762.154 790.374, 760.400 793.433, 763.250 795.788 C 765.227 797.422, 771.675 798.335, 772.444 797.090 C 772.815 796.490, 773.835 796, 774.711 796 C 775.587 796, 778.148 794.255, 780.402 792.123 C 782.656 789.990, 786.369 786.486, 788.654 784.336 C 798.510 775.062, 794.416 760.157, 783.250 764.662 M 399 775.793 C 392.621 777.782, 392.552 782.635, 398.805 789.477 C 401.448 792.369, 405.531 797.914, 407.879 801.799 C 414.913 813.442, 417.933 816.635, 423.262 818.071 C 433.683 820.877, 434.983 816.543, 426.805 806.256 C 423.337 801.894, 419.632 796.789, 418.570 794.912 C 417.509 793.036, 415.782 789.965, 414.732 788.090 C 410.949 781.328, 402.480 774.708, 399 775.793 M 664.750 783.373 C 655.498 792.249, 655.085 792.942, 657.571 795.429 C 661.388 799.245, 666.706 797.305, 676.408 788.556 C 685.397 780.451, 685.685 776.687, 677.405 775.526 C 673.619 774.995, 673.233 775.234, 664.750 783.373 M 728.905 777.731 C 717.483 785.518, 705.795 798.843, 708.027 801.533 C 712.075 806.410, 726.339 798.036, 737.250 784.375 C 741.556 778.985, 734.871 773.663, 728.905 777.731 M 622 782.709 C 619.628 783.581, 616.926 786.210, 614.504 790 C 613.274 791.925, 609.133 797.203, 605.302 801.729 C 601.471 806.256, 597.474 811.656, 596.419 813.729 C 595.363 815.803, 593.825 818.063, 593 818.751 C 591.001 820.417, 594.991 823.996, 598.861 824.009 C 601.878 824.019, 615.947 809.990, 623.439 799.500 C 630.934 789.005, 630.138 779.717, 622 782.709 M 444.969 786.694 C 440.248 789.925, 439.679 795.773, 442.942 807.547 C 446.626 820.842, 450.320 827.669, 454.151 828.265 C 458.557 828.950, 464.364 826.358, 463.456 824.111 C 463.099 823.225, 461.871 820.097, 460.729 817.159 C 459.350 813.612, 457.872 811.522, 456.327 810.934 C 454.032 810.062, 453.140 807.482, 454.908 806.833 C 456.285 806.328, 456.423 804.154, 455.553 796.712 C 454.424 787.062, 450.231 783.093, 444.969 786.694 M 490.381 789.172 C 485.112 791.700, 481.009 808.244, 482.385 821.411 C 483.127 828.510, 483.508 829.005, 488.374 829.188 C 493.689 829.388, 494.685 827.758, 495.823 817 C 496.375 811.775, 497.620 804.216, 498.589 800.203 C 500.807 791.015, 497.053 785.970, 490.381 789.172 M 576.487 791.608 C 575.082 793.125, 573.061 796.196, 571.997 798.433 C 570.933 800.670, 568.024 805.363, 565.531 808.862 C 559.347 817.545, 560.102 821.456, 567.835 820.803 C 576.122 820.103, 592.029 794.078, 586.250 790.677 C 582.745 788.614, 578.925 788.978, 576.487 791.608 M 530.587 795.903 C 529.640 796.950, 527.481 800.663, 525.791 804.153 C 524.100 807.644, 521.205 812.189, 519.358 814.253 C 517.314 816.537, 516 819.056, 516 820.688 C 516 822.164, 515.186 824.300, 514.191 825.436 C 510.721 829.396, 502 843.629, 502 845.333 C 502 849.575, 510.045 849.188, 516.238 844.648 C 521.028 841.137, 528.979 827.107, 528.995 822.134 C 528.998 821.383, 531.025 817.723, 533.500 814.001 C 538.290 806.795, 541.652 798.141, 540.663 795.564 C 539.775 793.249, 532.776 793.485, 530.587 795.903 M 353.308 808.010 C 346.199 810.873, 347.162 815.914, 355.327 818.578 C 358.172 819.507, 363.450 822.434, 367.056 825.084 C 377.935 833.079, 390.814 835.126, 387.149 828.278 C 381.432 817.596, 360.554 805.091, 353.308 808.010 M 739 817.820 C 738.175 818.194, 733.039 821.875, 727.587 826 C 714.894 835.603, 707.120 841.095, 703.431 843.065 C 701.058 844.332, 700.558 845.189, 700.802 847.565 C 701.633 855.647, 712.019 855.020, 724.500 846.133 C 748.222 829.243, 751.317 825.030, 744.248 819.255 C 741.275 816.826, 741.225 816.812, 739 817.820 M 681 820.706 C 680.175 821.008, 678.600 822.047, 677.500 823.016 C 676.400 823.985, 671.382 827.538, 666.348 830.912 C 656.538 837.488, 655.222 839.079, 657.614 841.471 C 660.853 844.710, 674.307 841.047, 680.526 835.234 C 681.640 834.192, 683.800 832.522, 685.327 831.522 C 688.484 829.453, 691.187 824.894, 690.177 823.341 C 688.509 820.775, 684.197 819.537, 681 820.706 M 625.430 824.729 C 624.842 825.153, 622.538 827.975, 620.312 831 C 615.815 837.109, 604.758 848, 603.053 848 C 601.068 848, 599.544 852.746, 600.975 854.470 C 602.719 856.571, 610.852 856.478, 614.027 854.321 C 627.158 845.403, 638.299 829.786, 634.291 825.919 C 633.061 824.732, 626.624 823.868, 625.430 824.729 M 557.500 838.642 C 556.400 838.932, 553.572 839.806, 551.215 840.585 C 548.858 841.363, 545.246 842, 543.188 842 C 536.416 842, 533.102 845.930, 537.033 849.297 C 544.644 855.813, 579.052 846.652, 572.306 839.906 C 571.231 838.831, 560.317 837.900, 557.500 838.642 M 422.992 844.336 C 419.617 846.047, 418.266 848.611, 419.611 850.750 C 421.703 854.077, 439.493 864.472, 447.006 866.757 C 448.928 867.341, 452.157 868.328, 454.182 868.950 C 457.258 869.894, 458.473 869.786, 461.570 868.290 C 466.711 865.808, 466.324 865.100, 457.320 860.522 C 452.969 858.310, 448.755 855.925, 447.955 855.221 C 438.494 846.905, 427.436 842.083, 422.992 844.336 M 664.500 868.457 C 662.300 869.192, 657.125 870.786, 653 871.998 C 648.875 873.211, 643.700 874.885, 641.500 875.719 C 639.300 876.553, 633.604 877.467, 628.843 877.751 C 618.127 878.389, 617.742 878.608, 618.752 883.467 C 620.725 892.964, 637.571 891.660, 671.750 879.364 C 681.373 875.902, 674.257 865.197, 664.500 868.457 M 470.250 868.591 C 469.563 868.907, 469 870.244, 469 871.560 C 469 875.029, 473.042 877.237, 482.942 879.177 C 487.649 880.100, 492.741 881.166, 494.258 881.546 C 500.739 883.168, 505.609 877.671, 501.213 873.693 C 496.948 869.833, 475.297 866.265, 470.250 868.591 M 525.750 871.572 C 524.237 872.393, 523 873.297, 523 873.582 C 523 874.099, 525.983 880.189, 526.558 880.848 C 527.414 881.827, 547.109 885.974, 550.962 885.986 C 553.417 885.994, 561.344 886.971, 568.578 888.158 C 584.294 890.737, 585.465 890.501, 584.714 884.904 C 584.066 880.071, 582.078 878.384, 576 877.505 C 573.525 877.148, 569.250 876.234, 566.500 875.475 C 563.750 874.716, 557.675 873.813, 553 873.467 C 548.325 873.121, 540.963 872.200, 536.640 871.419 C 532.316 870.639, 528.716 870.018, 528.640 870.040 C 528.563 870.062, 527.263 870.751, 525.750 871.572"/>
    </g>
  </g>
</svg>
