<svg viewBox="0 0 74 74" width="74mm" height="74mm" xmlns="http://www.w3.org/2000/svg">
  <g transform="scale(0.074000)" fill-rule="evenodd">
    <g id="forma" fill="#CB3747">
      <path d="M 905.316 72.965 C 900.508 74.106, 897.237 76.636, 887.758 86.548 C 878.298 96.439, 877.531 97.800, 876.475 106.565 C 876.082 109.829, 873.816 117.509, 871.440 123.630 C 869.063 129.752, 865.666 138.977, 863.890 144.130 C 859.977 155.490, 858.184 158.222, 852.431 161.594 C 844.152 166.445, 842.157 171.747, 845.587 179.782 C 849.051 187.898, 846.833 198.736, 839.522 209.414 C 832.941 219.027, 832.660 219.823, 831.901 231 C 830.986 244.494, 826.822 257.845, 820.562 267.361 C 815.372 275.251, 814.461 278.708, 815.913 285 C 818.632 296.783, 816.650 306.003, 809.420 315.206 C 803.135 323.205, 802.473 325.576, 804.013 334.576 C 806.462 348.893, 803.582 358.004, 793.583 367.571 C 785.739 375.076, 785.019 377.544, 788.033 386.599 C 792.299 399.418, 790.494 405.591, 779.979 414.146 C 771.247 421.249, 771.048 424.294, 778.519 436.500 C 783.004 443.828, 781.745 450.322, 773.919 460.222 C 769.574 465.718, 768.472 469.855, 769.355 477.360 C 770.276 485.204, 768.730 489.181, 762.613 494.699 C 755.178 501.407, 754.129 503.444, 753.153 513.081 C 751.873 525.707, 747.711 531.735, 738.705 534.009 C 726.082 537.196, 723.454 539.379, 720.664 549 C 716.956 561.785, 689.707 580.519, 654 594.833 C 647.125 597.589, 636.325 602.295, 630 605.291 C 596.182 621.311, 560.087 629.052, 518.145 629.281 L 492.500 629.421 478 625.679 C 446.846 617.638, 442.471 615.856, 423.800 603.610 C 417.585 599.533, 407.325 593.404, 401 589.988 C 342.985 558.663, 254.159 461.237, 253.976 428.730 C 253.926 419.816, 252.552 416.915, 245.036 409.846 C 239.155 404.316, 237.271 401.699, 233.874 394.346 C 221.976 368.595, 216.293 356.864, 212.874 351 C 207.242 341.343, 188.722 301.836, 184.981 291.500 C 183.189 286.550, 179.376 277.775, 176.507 272 C 173.637 266.225, 169.132 255.650, 166.494 248.500 C 163.857 241.350, 159.476 230.325, 156.760 224 C 154.043 217.675, 149.887 208, 147.524 202.500 C 140.422 185.972, 133.408 170.910, 129.059 162.847 C 126.800 158.659, 123.673 151.450, 122.111 146.827 C 118.226 135.334, 116.592 132.457, 110.007 125.504 C 106.879 122.202, 102.946 117.475, 101.266 115 C 95.005 105.773, 89.564 103.435, 83.538 107.383 C 77.216 111.526, 75.344 130.360, 77.066 172.500 C 79.234 225.531, 79.708 241.988, 79.213 247.132 C 78.932 250.063, 79.273 261.470, 79.972 272.481 C 81.365 294.425, 81.139 296.018, 75.620 303.254 C 69.697 311.020, 69.925 315.348, 76.640 322.591 C 86.256 332.962, 91.225 360.875, 86.472 377.815 C 84.404 385.184, 85.003 389.323, 88.918 394.728 C 93.789 401.453, 94.862 404.363, 96.988 416.634 C 98.118 423.160, 99.765 432.100, 100.646 436.500 C 101.773 442.125, 102.091 447.407, 101.716 454.292 C 101.104 465.567, 101.879 469.196, 106.425 476.345 C 109.794 481.643, 111.915 487.379, 114.060 497 C 114.735 500.025, 117.423 509.250, 120.034 517.500 C 122.645 525.750, 125.334 535.200, 126.009 538.500 C 126.684 541.800, 128.130 546.750, 129.223 549.500 C 130.316 552.250, 134.129 563.725, 137.697 575 C 177.936 702.159, 236.936 775.110, 333.987 817.703 C 345.819 822.896, 362.700 830.893, 371.500 835.475 C 406.871 853.890, 438.453 866.261, 454.729 868.076 C 463.450 869.049, 482.860 873.988, 514.587 883.309 C 533.320 888.813, 578.574 892.381, 600 890.044 C 604.675 889.534, 617.050 888.838, 627.500 888.498 C 685.193 886.620, 743.316 871.567, 771.893 851.104 C 777.177 847.321, 785.550 841.959, 790.500 839.190 C 814.844 825.572, 831.818 810.976, 844.215 793 C 847.060 788.875, 853.045 781, 857.515 775.500 C 885.731 740.783, 906.269 700.474, 922.988 647 C 925.825 637.925, 929.688 625.742, 931.573 619.927 C 933.571 613.763, 935.002 607.299, 935.006 604.427 C 935.009 601.717, 935.692 595, 936.524 589.500 C 937.356 584, 938.504 575.225, 939.075 570 C 940.481 557.135, 941.492 553.756, 946.132 546.408 C 951.586 537.773, 951.829 535.162, 948.057 525.773 L 944.952 518.046 946.082 480.773 C 947.505 433.877, 948.363 418.991, 950.060 411.766 C 951.290 406.526, 951.216 405.269, 949.203 397.162 C 946.720 387.163, 946.288 373.596, 948.133 363.579 C 949.114 358.260, 948.989 356.215, 947.209 348.464 C 944.834 338.113, 944.257 312.032, 945.496 270.915 C 946.437 239.656, 942.567 203.057, 935.035 172 C 929.477 149.083, 929.562 124.712, 935.224 117.724 C 941.365 110.146, 941.066 108.072, 932.595 99.465 C 928.301 95.102, 926.662 92.485, 924.915 87.209 C 922.494 79.897, 916.807 73, 913.199 73 C 912.080 73, 910.564 72.822, 909.832 72.604 C 909.099 72.387, 907.067 72.549, 905.316 72.965"/>
    </g>
    <g id="detalles" fill="#1A1A1A">
      <path d="M 882.271 87.029 C 865.571 95.554, 869.842 110.514, 888.228 107.897 C 903.186 105.767, 910.611 106.970, 926.048 114.022 C 941.408 121.039, 947 120.412, 947 111.674 C 947 96.728, 899.042 78.468, 882.271 87.029 M 872.500 133.871 C 864.227 136.061, 858 141.919, 858 147.512 C 858 153.155, 856.480 155.692, 852.312 157.007 C 839.521 161.042, 833.516 172.439, 840.649 179.140 C 842.960 181.311, 844.233 181.517, 859.315 182.159 C 884.233 183.218, 902.563 189.431, 915.912 201.343 C 930.319 214.198, 942.766 203.035, 933.500 185.569 C 929.391 177.823, 929.371 177.643, 932.100 172.552 C 936.512 164.321, 935.023 160.788, 923.350 151.789 C 905.665 138.153, 884.499 130.695, 872.500 133.871 M 87.336 139.152 C 71.543 140.966, 66.092 151.443, 76.155 160.644 C 79.260 163.483, 107.909 172, 114.355 172 C 125.941 172, 131.981 163.070, 127.557 152.482 C 124.143 144.312, 103.108 137.341, 87.336 139.152 M 97.500 182.640 C 80.785 185.178, 71.932 191.492, 73.484 199.768 C 75.192 208.869, 77.535 209.770, 101 210.349 C 115.960 210.718, 120.835 211.206, 126.478 212.903 C 141.599 217.447, 150.883 212.824, 150.978 200.700 C 151.083 187.299, 124.948 178.472, 97.500 182.640 M 843.326 207.044 C 829.929 209.693, 822.548 221.702, 829.837 228.991 C 833.508 232.661, 839.913 233.663, 849.946 232.136 C 868.090 229.375, 883.622 232.954, 910.580 246.106 C 929.229 255.205, 936 253.334, 936 239.083 C 936 231.385, 932.890 228.908, 912.428 220.306 C 882.643 207.786, 860.788 203.592, 843.326 207.044 M 113.776 233.980 C 97.258 237.463, 77.316 245.672, 75.040 249.925 C 72.306 255.033, 75.139 265.233, 80 267.785 C 84.338 270.062, 96.281 268.755, 105.500 264.994 C 118.065 259.868, 128.861 260.122, 142.759 265.872 C 161.791 273.745, 172.866 270.017, 172.978 255.700 C 173.096 240.649, 139.903 228.471, 113.776 233.980 M 832.805 258.335 C 813.836 265.230, 805.843 273.995, 810.432 282.869 C 814.183 290.121, 819.767 291.202, 831 286.848 C 853.057 278.298, 882.279 283.589, 911.923 301.498 C 930.647 312.810, 937.145 314.182, 942.401 307.935 C 950.669 298.109, 947.235 291.165, 929.383 281.613 C 923.947 278.704, 915.675 274.269, 911 271.758 C 886.181 258.425, 849.758 252.172, 832.805 258.335 M 130.546 281.615 C 118.387 283.810, 111.509 285.780, 99.500 290.509 C 93.450 292.891, 85.597 295.812, 82.049 296.999 C 69.073 301.339, 66.010 304.556, 66.004 313.850 C 65.993 329.071, 78.185 329.758, 112.091 316.449 C 135.832 307.129, 143.792 306.866, 159.748 314.873 C 173.412 321.731, 177.769 322.774, 182.636 320.356 C 193.231 315.091, 193.759 302.257, 183.696 294.582 C 166.843 281.727, 151.144 277.897, 130.546 281.615 M 823.133 308.551 C 808.192 311.164, 803.882 313.228, 799.879 319.683 C 792.631 331.370, 801.937 341.393, 816.989 338.111 C 860.259 328.675, 888.069 333.880, 917.500 356.921 C 933.832 369.707, 939.049 371.612, 946.783 367.612 C 964.012 358.703, 951.044 342.153, 911.540 322.636 C 875.892 305.025, 858.830 302.306, 823.133 308.551 M 171.991 341.314 C 171.711 341.610, 165.919 342.363, 159.120 342.989 C 134.733 345.233, 118.738 351.241, 96.017 366.691 C 80.470 377.263, 75.960 385.788, 81.631 393.883 C 87.730 402.591, 98.557 400.980, 116.730 388.661 C 145.122 369.415, 173.992 364.302, 199.502 374.001 C 217.771 380.947, 230.393 357.368, 213 348.786 C 205.067 344.872, 173.986 339.209, 171.991 341.314 M 810 359.634 C 789.317 363.146, 780.727 368.821, 780.727 378.973 C 780.727 389.857, 788.839 392.924, 807.047 388.923 C 820.975 385.862, 867.507 386.505, 878.997 389.917 C 890.014 393.189, 910.136 402.679, 921.023 409.738 C 938.145 420.838, 943.344 421.986, 950.814 416.316 C 961.795 407.981, 957.426 397.352, 938.958 387.478 C 919.399 377.021, 899.273 367.680, 887.779 363.725 L 875.500 359.500 844 359.355 C 826.675 359.275, 811.375 359.401, 810 359.634 M 203.500 405.971 C 199.100 407.026, 188.480 409.244, 179.899 410.901 C 144.486 417.737, 114.517 433.034, 100.476 451.442 C 91.308 463.462, 97.324 479.500, 111 479.500 C 118.081 479.500, 120.043 478.224, 128.500 468.119 C 142.930 450.876, 155.669 445.066, 197.777 436.521 C 223.432 431.314, 222.689 431.364, 235.481 433.996 C 251.544 437.301, 260.924 431.071, 258.593 418.645 C 256.189 405.832, 229.594 399.714, 203.500 405.971 M 785.708 408.515 C 774.739 410.359, 768.640 415.283, 767.330 423.353 C 765.482 434.739, 773.093 438.037, 793 434.477 C 815.538 430.447, 842.474 434.635, 883.950 448.615 C 905.310 455.815, 912.794 459.306, 919.471 465.183 C 935.123 478.961, 956.120 469.826, 946.507 453.421 C 938.981 440.580, 916.837 429.130, 880.683 419.387 C 873.432 417.433, 863.341 414.525, 858.259 412.924 C 839.469 407.006, 806.576 405.007, 785.708 408.515 M 772.500 456.871 C 764.067 460.723, 760.997 472.459, 766.884 478.344 L 770.041 481.500 783.270 481.591 C 810.307 481.776, 843 485.062, 854 488.700 C 876.201 496.044, 895.504 508.518, 916.500 529.092 C 934.786 547.009, 937.561 549, 944.254 549 C 953.309 549, 959.507 536.212, 954.371 528.126 C 952.468 525.130, 937.087 510.381, 920.502 495.647 C 906.897 483.562, 886.471 472.647, 861.154 463.934 C 841.204 457.068, 782.336 452.378, 772.500 456.871 M 231.500 467.047 C 204.593 469.326, 188.272 475.799, 156.500 496.791 C 125.912 517, 112.319 545.386, 129.742 552.666 C 139.160 556.601, 146.987 553.051, 153.257 542 C 158.201 533.285, 168.004 524.351, 182.500 515.348 C 210.837 497.748, 220.485 494.844, 251.327 494.626 L 269.154 494.500 272.516 490.831 C 280.548 482.067, 277.392 470.147, 266.219 467.044 C 262.058 465.888, 245.165 465.890, 231.500 467.047 M 758.095 493.315 C 749.837 496.188, 745.628 507.027, 750.514 512.835 C 754.618 517.712, 758.300 519.118, 769.511 520.092 C 779.300 520.942, 797.690 525.575, 819.195 532.610 C 841.181 539.803, 875.376 566.733, 889.471 587.956 C 910.448 619.542, 925.700 628.807, 936.832 616.727 C 942.711 610.347, 940.760 603.919, 929.022 591 C 924.774 586.325, 917.786 577.325, 913.493 571 C 904.020 557.044, 901.069 553.797, 889.500 544.607 C 861.852 522.644, 842.926 511.370, 825 506.184 C 795.151 497.550, 788.496 495.927, 777 494.478 C 770.125 493.611, 763.825 492.728, 763 492.516 C 762.175 492.304, 759.968 492.664, 758.095 493.315 M 271.500 516.439 C 252.760 520.153, 233.795 530.250, 205 551.844 C 187.709 564.811, 161.174 590.235, 156.529 598.286 C 145.435 617.515, 166.398 629.721, 181.442 612.792 C 193.047 599.733, 222.662 573.905, 241.197 560.679 C 254.469 551.208, 275.879 543, 287.309 543 C 301.490 543, 310.619 531.296, 303.851 521.791 C 299.719 515.987, 285.580 513.648, 271.500 516.439 M 728.383 531.084 C 723.254 532.572, 717 540.163, 717 544.901 C 717 553.286, 724.034 558.026, 738 559.051 C 766.131 561.115, 789.911 570.590, 819 591.325 C 836.413 603.736, 854.299 622.562, 870.775 645.819 C 883.715 664.084, 886.787 667.900, 890.262 670.018 C 900.535 676.282, 912.417 664.348, 908.585 651.615 C 906.914 646.063, 894.397 626.935, 885.677 616.607 C 854.740 579.966, 847.839 574.120, 812.099 554.284 C 793.122 543.752, 791.872 543.298, 770 539.024 C 759.275 536.928, 746.469 534.041, 741.543 532.607 C 736.617 531.173, 732.342 530.041, 732.043 530.090 C 731.744 530.140, 730.097 530.587, 728.383 531.084 M 322.720 545.567 C 297.508 551.675, 224.106 605.107, 197.350 636.827 C 182.227 654.758, 179.960 661.075, 185.282 670.470 C 192.683 683.538, 203.253 681.691, 213.730 665.500 C 222.462 652.004, 253.336 622.947, 278.163 604.860 C 318.388 575.553, 320.476 574.289, 333.997 571.060 C 345.994 568.194, 351.200 563.474, 351.200 555.463 C 351.200 545.467, 339.670 541.461, 322.720 545.567 M 724.411 601.891 C 710.786 610.199, 716.513 627.117, 732.501 625.791 C 742.541 624.959, 747.369 615.415, 742.506 606.011 C 739.355 599.917, 730.831 597.977, 724.411 601.891 M 673.500 607.029 C 660.791 611.002, 659.018 626.686, 670.718 631.638 C 682.662 636.694, 693.694 625.662, 688.638 613.718 C 685.996 607.475, 680.226 604.926, 673.500 607.029 M 372.994 610.934 C 364.712 613.453, 360.667 617.932, 360.667 624.581 C 360.667 634.753, 371.867 641.004, 381.717 636.330 C 395.692 629.698, 387.709 606.458, 372.994 610.934 M 309.500 625.103 C 293.902 629.899, 296.754 651, 313 651 C 323.923 651, 330.281 640.586, 325.173 631.062 C 322.078 625.291, 316.181 623.049, 309.500 625.103 M 595.741 639.418 C 584.987 643.288, 582.449 655.656, 587 682 C 590.133 700.134, 589.467 702.796, 582.297 700.816 C 570.824 697.649, 562.254 701.814, 559.343 711.972 C 555.802 724.329, 551.178 722.378, 545.069 705.949 C 539.100 689.894, 522.061 687.601, 515.732 702 C 512.129 710.196, 508.501 712.221, 505.533 707.691 C 503.558 704.677, 496.004 675.034, 495.985 670.222 C 495.925 655.078, 489.052 644.013, 479.700 644.004 C 461.354 643.986, 462.272 665.166, 483.493 731.500 C 487.603 744.345, 490.848 756.866, 492.565 766.500 C 496.161 786.681, 499.033 791.846, 507.547 793.443 C 515.764 794.984, 522.300 788.396, 523.313 777.551 C 523.943 770.808, 528.235 755.627, 530.171 753.294 C 533.980 748.704, 536.747 751.639, 545.917 770 C 556.512 791.213, 559.994 793.911, 570.576 789.105 C 575.987 786.647, 577.608 782.848, 578.338 770.914 C 579.567 750.841, 583.195 750.148, 595.538 767.629 C 607.432 784.475, 611.413 788, 618.546 788 C 628.442 788, 632.692 780.327, 630.013 767.299 C 629.470 764.660, 628.160 754.850, 627.102 745.500 C 626.043 736.150, 623.077 716.350, 620.510 701.500 C 617.628 684.826, 615.570 669.439, 615.130 661.267 C 614.536 650.266, 614.075 647.578, 612.396 645.329 C 607.857 639.249, 601.992 637.168, 595.741 639.418 M 716.500 648.656 C 683.324 652.601, 658 664.181, 658 675.407 C 658 689.051, 667.344 690.900, 686.838 681.112 C 691.369 678.837, 717.221 671.542, 726.444 669.936 C 735.065 668.435, 742.332 669.548, 759.510 675.003 C 779.359 681.306, 786.918 679.476, 786.978 668.354 C 787.043 656.212, 747.023 645.027, 716.500 648.656 M 356 658.621 C 310.215 667.010, 279.739 681.580, 282.600 693.712 C 285.607 706.464, 293.084 709.237, 304.886 701.975 C 317.411 694.268, 328.040 690.949, 330.119 694.095 C 331.235 695.783, 330.891 697.632, 328.003 705.500 C 322.730 719.863, 330.892 736.201, 345.276 740.074 C 357.694 743.418, 377.715 730.753, 379.570 718.381 C 380.643 711.226, 374.393 700.576, 363.164 690.422 C 351.542 679.915, 369.194 678.940, 390.751 688.899 C 406.168 696.022, 413.427 696.511, 417.497 690.701 C 422.412 683.683, 417.710 677.685, 400.275 668.733 C 383.302 660.018, 367.754 656.468, 356 658.621 M 717.500 681.476 C 698.793 686.492, 700.155 713.216, 719.701 724.671 C 737.965 735.374, 766.173 706.173, 751.168 692.095 C 741.161 682.706, 728.180 678.612, 717.500 681.476"/>
    </g>
  </g>
</svg>
