<svg viewBox="0 0 74 74" width="74mm" height="74mm" xmlns="http://www.w3.org/2000/svg">
  <g transform="scale(0.074000)" fill-rule="evenodd">
    <g id="forma" fill="#CB3747">
      <path d="M 849.153 97.154 C 839.744 101.810, 822.527 134.394, 803.396 183.747 C 796.728 200.950, 794.803 204.157, 786.943 211.161 C 777.367 219.695, 776.622 221.296, 777.472 231.509 C 779.018 250.063, 764.126 278.816, 750.289 283.993 C 735.078 289.684, 733.652 292.957, 739.456 308.853 C 743.721 320.533, 744.068 319.568, 713.319 381.500 C 687.127 434.251, 682.057 446.374, 661.137 506.268 C 652.545 530.869, 649.186 536, 641.672 536 C 634.721 536, 631.350 529.472, 627.474 508.500 C 623.975 489.572, 614.140 444.810, 607.404 417.150 C 604.370 404.692, 600.093 386.175, 597.899 376 C 588.951 334.498, 566.184 243.657, 555.168 205.500 C 549.471 185.767, 544.614 166.100, 538.929 139.742 C 532.512 109.990, 530.398 105.398, 521.959 102.870 C 510.389 99.403, 503.015 108.081, 496.033 133.379 C 490.633 152.946, 489.043 156.841, 483.224 164.746 C 474.901 176.053, 474.686 176.719, 473.904 193.656 C 473.225 208.389, 473.073 209.186, 468.457 222.156 C 458.664 249.675, 443.266 296.043, 439.606 309.036 C 437.520 316.441, 433.412 329.925, 430.477 339 C 424.712 356.824, 415.230 387.232, 405.998 417.500 C 402.811 427.950, 396.790 447.345, 392.617 460.600 C 388.445 473.855, 382.366 493.929, 379.108 505.210 C 371.089 532.972, 369.403 536, 361.967 536 C 354.155 536, 324.858 482.050, 319.610 458 C 317.580 448.695, 316.635 446.867, 309.523 438.484 C 303.044 430.846, 280.940 386.914, 263.494 347 C 259.528 337.925, 252.070 321.275, 246.922 310 C 236.173 286.457, 235.277 281.624, 239.750 271.315 C 244.314 260.795, 242.087 256.164, 231.249 253.635 C 218.706 250.709, 216.443 247.995, 201.534 218 C 195.601 206.064, 189.615 195.591, 186.102 191 C 172.551 173.291, 157.332 149.890, 147.047 130.946 C 131.858 102.967, 115.659 98.521, 101.525 118.450 C 86.640 139.437, 83.478 154.965, 81.969 214.500 C 81.440 235.400, 80.565 257.675, 80.026 264 C 79.486 270.325, 78.570 283.600, 77.989 293.500 C 77.409 303.400, 76.501 317.857, 75.971 325.627 C 72.045 383.264, 83.980 482.136, 101.668 538.500 C 103.567 544.550, 106.682 556.025, 108.590 564 C 110.499 571.975, 115.157 588.175, 118.942 600 C 122.726 611.825, 126.787 625.100, 127.966 629.500 C 129.365 634.722, 132.145 640.973, 135.972 647.500 C 139.197 653, 146.734 666.950, 152.722 678.500 C 198.739 767.267, 221.658 792.630, 311.500 854.210 C 327.876 865.435, 334.676 868.859, 376.616 887.001 C 445.436 916.770, 518.733 920.723, 596.500 898.857 C 683.665 874.349, 759.602 835.158, 796.404 795.687 C 828.727 761.019, 849.244 725.271, 868.477 670.109 C 871.044 662.744, 875.160 652.783, 877.621 647.974 C 881.493 640.411, 882.228 637.963, 883.060 629.864 C 883.589 624.714, 885.563 612.850, 887.448 603.500 C 889.332 594.150, 891.601 582.214, 892.489 576.975 C 894.599 564.528, 896.881 560.571, 905.010 555.261 C 920.061 545.430, 920.968 539.057, 908.963 527.500 C 900.643 519.490, 898.344 511.704, 900.994 500.500 C 904.456 485.858, 904.986 471.256, 903.810 423 C 901.835 342.025, 901.131 348.132, 913.616 337.976 C 925.196 328.555, 924.928 324.914, 911.679 311.728 C 900.176 300.280, 900.299 300.657, 898.492 271.500 C 895.245 219.117, 889.129 164.546, 884.370 145.500 C 873.683 102.730, 864.196 89.707, 849.153 97.154"/>
    </g>
    <g id="detalles" fill="#1A1A1A">
      <path d="M 505.693 114.849 C 502.499 115.793, 499.469 117.226, 498.958 118.033 C 497.696 120.029, 497.749 128, 499.025 128 C 499.588 128, 500.440 129.012, 500.918 130.250 C 502.428 134.160, 512.299 139.354, 516.665 138.535 C 523.988 137.161, 529.116 128.659, 527.840 120.007 C 526.962 114.051, 516.571 111.631, 505.693 114.849 M 126.596 127.503 C 122.594 129.874, 121.505 131.968, 119.055 142 C 118.450 144.475, 116.873 150.100, 115.548 154.500 C 114.224 158.900, 112.189 166.100, 111.026 170.500 C 106.124 189.045, 98.731 211.529, 96.904 213.450 C 96.407 213.973, 96 214.994, 96 215.720 C 96 216.446, 94.828 218.896, 93.397 221.164 C 91.965 223.432, 90.003 227.585, 89.036 230.394 C 86.291 238.369, 83.163 244.767, 79.529 249.839 C 73.224 258.637, 75.387 271.046, 84.002 275.501 C 90.755 278.993, 97.037 277.673, 114.453 269.103 C 131.709 260.611, 135 259.293, 135 260.874 C 135 261.816, 124.045 283.592, 117.330 296 C 115.693 299.025, 111.999 305.955, 109.121 311.400 C 106.243 316.845, 101.404 325.522, 98.367 330.683 C 95.330 335.843, 91.476 343.088, 89.803 346.782 C 88.130 350.477, 85.361 355.271, 83.650 357.435 C 77.587 365.104, 78.655 378.770, 85.711 383.794 C 93.355 389.237, 101.033 387.234, 113.550 376.529 C 125.626 366.202, 127.664 364.668, 137.507 358.500 C 142.773 355.200, 152.089 349.238, 158.211 345.250 C 173.324 335.405, 173.545 335.480, 166 347.902 C 163.250 352.430, 161 356.324, 161 356.557 C 161 356.789, 159.065 360.022, 156.701 363.740 C 154.336 367.458, 150.934 373.346, 149.141 376.825 C 147.347 380.303, 144.332 385.569, 142.440 388.527 C 140.548 391.484, 139 394.203, 139 394.568 C 139 394.933, 137.538 397.317, 135.750 399.866 C 133.963 402.415, 132.050 405.267, 131.500 406.203 C 128.335 411.594, 119.785 424.021, 115.262 429.803 C 112.380 433.487, 109.324 437.958, 108.469 439.740 C 107.615 441.522, 104.505 446.185, 101.559 450.101 C 89.429 466.225, 94.106 480.536, 111.485 480.469 C 120.619 480.434, 122.263 479.814, 140.341 469.598 C 159.225 458.926, 175.080 450.747, 175.694 451.361 C 176.871 452.538, 141.394 495.356, 132.494 503.500 C 130.288 505.518, 116.311 521.261, 108 531.087 C 95.414 545.968, 97.568 561.003, 112.714 563.991 C 118.071 565.048, 113.151 567.077, 157 545.729 C 167.725 540.508, 180.325 534.433, 185 532.230 C 189.675 530.028, 199.575 525.302, 207 521.729 C 220.904 515.038, 224 513.727, 224 514.526 C 224 515.211, 197.873 541.793, 179.500 559.801 C 143.720 594.871, 135.234 604.411, 126.733 619.127 C 122.840 625.866, 120.585 632.985, 121.920 634.320 C 122.514 634.914, 123 636.838, 123 638.596 C 123 646.128, 138.153 651.318, 144.331 645.903 C 147.445 643.173, 176.636 626.498, 201.500 613.245 C 209.200 609.141, 219.775 603.415, 225 600.520 C 230.225 597.625, 239 592.884, 244.500 589.984 C 250 587.085, 257.425 582.848, 261 580.569 C 271.008 574.189, 276.727 571.001, 278.178 570.994 C 278.905 570.990, 280.850 570.270, 282.500 569.392 C 296.444 561.974, 307.995 556.541, 315.084 554.064 C 319.713 552.447, 326.648 549.971, 330.496 548.562 C 334.343 547.153, 338.393 545.970, 339.496 545.934 C 365.037 545.091, 368.025 517.266, 342.535 517.629 C 333.876 517.752, 298.332 528.103, 288 533.510 C 286.625 534.229, 283.025 535.815, 280 537.033 C 276.975 538.251, 273.306 540.092, 271.846 541.124 C 270.386 542.156, 268.879 543, 268.496 543 C 268.114 543, 265.259 544.525, 262.151 546.390 C 235.839 562.173, 234.622 562.871, 216.670 572.457 C 202.844 579.840, 203.283 578.778, 222.500 558.369 C 240.218 539.552, 246.276 533.500, 252.399 528.500 C 273.672 511.129, 286.878 498.473, 301.575 481.369 C 307.782 474.147, 315.111 466.339, 317.864 464.018 C 330.137 453.669, 329.862 442.026, 317.250 438.067 C 306.656 434.742, 299.202 436.980, 279.608 449.369 C 251.913 466.879, 236.810 475.398, 220.700 482.597 C 212.387 486.312, 202.208 491.086, 185 499.339 C 179.775 501.845, 175.350 503.468, 175.166 502.946 C 174.859 502.073, 186.313 487.576, 192.900 480.500 C 194.436 478.850, 198.100 474.125, 201.044 470 C 203.987 465.875, 209.818 458.450, 214.001 453.500 C 218.184 448.550, 222.706 442.925, 224.051 441 C 226.882 436.946, 238.583 423.207, 241.084 421 C 242.019 420.175, 243.505 418.065, 244.386 416.311 C 245.268 414.557, 246.806 412.532, 247.806 411.811 C 251.592 409.080, 263.518 389.434, 273.997 368.667 C 276.986 362.744, 268.244 354.152, 259.116 354.041 C 251.286 353.946, 248.135 355.916, 233.043 370.345 C 225.044 377.993, 214.675 387.111, 210 390.607 C 205.325 394.103, 201.050 397.316, 200.500 397.747 C 188.321 407.287, 158.836 424.911, 158.189 423.036 C 158.018 422.541, 158.581 420.777, 159.439 419.117 C 160.298 417.457, 161 415.377, 161 414.495 C 161 413.612, 162.687 410.036, 164.750 406.548 C 168.428 400.328, 169.767 398.056, 175.095 389 C 180.596 379.651, 185.882 370.249, 189.713 363 C 191.894 358.875, 195.100 353.118, 196.839 350.206 C 198.577 347.294, 200 344.621, 200 344.266 C 200 343.602, 206.567 332.231, 210.549 326 C 211.779 324.075, 214.233 319.800, 216.003 316.500 C 217.773 313.200, 219.846 310, 220.610 309.390 C 221.375 308.779, 222 307.790, 222 307.191 C 222 305.359, 238.652 280.684, 241.926 277.665 C 243.617 276.106, 245 274.263, 245 273.570 C 245 272.877, 245.900 271.495, 247 270.500 C 248.100 269.505, 249 267.950, 249 267.045 C 249 266.140, 249.486 264.914, 250.079 264.321 C 252.231 262.169, 253.122 255.136, 251.613 252.222 C 249.726 248.581, 235.907 244.925, 231.927 247.014 C 228.245 248.947, 217.652 257.434, 206.382 267.481 C 200.817 272.441, 190.467 281.334, 183.382 287.242 C 176.297 293.150, 169.069 299.225, 167.319 300.742 C 165.570 302.259, 160.015 306.650, 154.975 310.500 C 149.935 314.350, 144.885 318.288, 143.753 319.250 C 136.681 325.260, 137.794 319.199, 147.157 300.699 C 157.448 280.366, 158 279.212, 158 278.033 C 158 275.372, 175.593 242.794, 180.271 236.792 C 195.258 217.566, 196.853 215.205, 198.876 209.246 C 203.573 195.415, 200.431 190.556, 186.903 190.727 C 178.383 190.835, 173.253 193.458, 162.017 203.454 C 157.352 207.604, 153.106 211, 152.582 211 C 152.058 211, 150.604 211.963, 149.352 213.139 C 148.100 214.316, 146.230 215.778, 145.198 216.389 C 144.165 217, 140.094 219.637, 136.150 222.250 C 132.206 224.863, 128.534 227, 127.990 227 C 126.111 227, 127.563 216.438, 130.946 205.500 C 132.137 201.650, 134.410 193.550, 135.997 187.500 C 141.163 167.812, 144.110 157.572, 145.494 154.508 C 146.240 152.853, 147.164 149.925, 147.546 148 C 147.928 146.075, 148.862 143.285, 149.620 141.800 C 152.408 136.343, 149.124 127.191, 144.864 128.543 C 143.901 128.849, 141.306 128.176, 139.097 127.049 C 134.070 124.485, 131.532 124.577, 126.596 127.503 M 834.511 144.554 C 823.357 154.771, 821.811 187.613, 831.420 210.218 C 834.555 217.594, 832.946 219.435, 825.399 217.105 C 823.805 216.613, 818.225 215.216, 813 214.001 C 802.831 211.636, 795.892 209.547, 792.919 207.956 C 790.193 206.498, 777.163 208.762, 773.500 211.331 C 768.562 214.793, 768 215.675, 768 219.961 C 768 229.148, 773.413 236.211, 787.824 245.827 C 796.932 251.904, 811.407 263.152, 819.361 270.334 C 821.087 271.893, 824.525 274.818, 827 276.834 C 829.475 278.850, 831.725 280.729, 832 281.009 C 832.275 281.289, 835.987 284.606, 840.250 288.381 C 848.674 295.842, 849.740 298, 845 298 C 837.612 298, 815.116 293.529, 787.709 286.615 C 756.100 278.639, 754.898 278.457, 743.921 279.957 C 727.440 282.209, 723.096 289.292, 729.778 303.014 C 734.937 313.610, 780.286 355.086, 809.579 376 C 813.816 379.025, 818.929 382.850, 820.942 384.500 C 822.954 386.150, 825.703 388.238, 827.050 389.141 C 828.398 390.043, 829.275 391.017, 829 391.304 C 828.301 392.035, 808.577 388.589, 796 385.538 C 790.225 384.137, 780.550 381.919, 774.500 380.608 C 768.450 379.298, 761.538 377.694, 759.139 377.045 C 733.255 370.033, 715.193 370.910, 712.355 379.318 C 711.018 383.280, 712.002 392.187, 714.067 394.812 C 715.130 396.164, 716 397.884, 716 398.635 C 716 399.386, 716.383 400, 716.852 400 C 717.320 400, 719.059 401.238, 720.716 402.750 C 722.373 404.262, 726.356 407.075, 729.568 409 C 732.780 410.925, 738.861 415.286, 743.081 418.691 C 757.979 430.710, 832.993 503.336, 831.773 504.559 C 831.080 505.253, 827.376 504.428, 811.500 500.043 C 792.861 494.895, 786.354 492.921, 783.405 491.522 C 781.641 490.685, 779.758 490, 779.221 490 C 777.704 490, 738.716 477.169, 736.784 476.034 C 735.840 475.479, 733.140 474.540, 730.784 473.947 C 728.428 473.354, 724.700 472.410, 722.500 471.851 C 720.300 471.291, 717.375 470.813, 716 470.789 C 714.625 470.765, 711.025 470.372, 708 469.917 C 699.535 468.644, 694.570 470.030, 689.326 475.133 L 684.837 479.500 685.456 485.139 C 685.796 488.240, 686.940 492.571, 687.999 494.762 C 691.489 501.985, 735.910 542.415, 762 562.114 C 786.870 580.891, 793.183 586.962, 786.250 585.431 C 774.098 582.748, 755.252 577.697, 753.116 576.551 C 751.677 575.779, 746.900 573.709, 742.500 571.950 C 735.497 569.150, 721.672 562.548, 712.500 557.623 C 710.850 556.737, 709.182 556.010, 708.794 556.006 C 708.406 556.003, 706.381 554.832, 704.294 553.404 C 689.888 543.546, 653.936 531.246, 645.736 533.369 C 630.096 537.420, 633.636 561.255, 650.280 563.964 C 657.593 565.154, 666.699 567.853, 671.500 570.253 C 676.378 572.692, 693.925 582.925, 696 584.542 C 698.152 586.218, 705.680 590.090, 720 596.885 C 735.560 604.269, 744.490 607.270, 777 616.046 C 788.984 619.282, 804.811 624.718, 806.450 626.163 C 806.972 626.623, 808.151 627, 809.068 627 C 809.985 627, 814.508 628.962, 819.118 631.359 C 823.728 633.757, 832.450 638.295, 838.500 641.445 C 851.146 648.029, 869.319 655, 873.837 655 C 877.549 655, 889.079 645.323, 890.199 641.268 C 891.922 635.026, 888.241 627.201, 880.323 620.271 C 874.757 615.401, 868.653 609.625, 847.696 589.399 C 839.265 581.261, 832.973 575.800, 819.855 565.233 C 817.625 563.436, 811.907 558.680, 807.150 554.665 C 802.392 550.650, 796.025 545.501, 793 543.224 C 781.817 534.807, 770.457 525.871, 769 524.347 C 766.921 522.171, 767.293 522.249, 809 532.719 C 828.525 537.621, 846.750 542.105, 849.500 542.684 C 852.250 543.263, 859.675 545.569, 866 547.809 C 876.622 551.571, 888.522 555.008, 903.497 558.638 C 913.397 561.038, 921 558.693, 921 553.239 C 921 551.891, 922.350 549.083, 924 547 C 927.471 542.618, 927.753 539.519, 925 536 C 923.924 534.625, 923.022 532.825, 922.995 532 C 922.967 531.175, 921.364 529.375, 919.431 528 C 917.499 526.625, 914.299 524.263, 912.321 522.750 C 910.343 521.237, 908.016 520, 907.150 520 C 906.284 520, 904.433 518.845, 903.038 517.433 C 899.186 513.537, 890.676 507, 889.455 507 C 888.861 507, 887.052 505.607, 885.437 503.905 C 883.822 502.203, 878 497.254, 872.500 492.907 C 861.227 483.998, 853.070 476.853, 835.032 460.088 C 828.175 453.715, 820.582 446.700, 818.160 444.500 C 811.980 438.888, 794.572 421.029, 794.152 419.872 C 793.959 419.340, 794.849 419.160, 796.152 419.468 C 797.443 419.773, 801.875 420.422, 806 420.909 C 810.125 421.396, 818 422.738, 823.500 423.891 C 829 425.044, 840.250 427.322, 848.500 428.953 C 856.750 430.585, 870.120 433.374, 878.210 435.150 C 889.679 437.669, 893.425 438.146, 895.210 437.315 C 896.470 436.729, 898.767 435.739, 900.315 435.116 C 902.419 434.270, 902.979 433.511, 902.535 432.110 C 902.165 430.945, 902.503 430.021, 903.430 429.665 C 906.175 428.612, 911 420.850, 911 417.487 C 911 414.216, 906.540 407.439, 903.166 405.584 C 902.250 405.081, 897.450 401.009, 892.500 396.537 C 882.197 387.228, 873.921 380.734, 862.500 372.992 C 858.100 370.010, 852.988 366.287, 851.139 364.718 C 849.290 363.149, 846.815 361.444, 845.639 360.929 C 844.463 360.414, 841.475 358.426, 839 356.511 C 836.525 354.596, 831.843 351.159, 828.595 348.872 C 825.347 346.586, 821.972 344.136, 821.095 343.428 C 820.218 342.720, 815.900 339.450, 811.500 336.161 C 794.139 323.181, 793.716 322.032, 807.193 324.452 C 828.448 328.268, 841.035 329.970, 851.462 330.438 C 869.625 331.253, 891.382 335.684, 904 341.136 C 913.495 345.240, 928 342.712, 928 336.954 C 928 336, 928.890 333.257, 929.978 330.859 C 934.128 321.714, 930.866 317.422, 909.837 304.362 C 906.173 302.087, 899.919 297.587, 895.940 294.362 C 891.961 291.138, 887.309 287.389, 885.602 286.032 C 877.919 279.919, 853 257.387, 853 256.553 C 853 256.249, 858.764 256, 865.809 256 C 875.668 256, 879.065 255.654, 880.559 254.499 C 881.626 253.674, 884.383 252.138, 886.683 251.085 C 892.578 248.389, 896 242.700, 896 235.597 C 896 228.833, 893.916 226.088, 883.721 219.420 C 859.303 203.450, 851.883 188.217, 857.212 165 C 861.799 145.013, 860.213 141.538, 846.461 141.440 C 838.288 141.381, 837.850 141.496, 834.511 144.554 M 489.795 170.587 C 484.336 172.266, 482 175.050, 482 179.878 C 482 183.557, 486.092 190, 488.428 190 C 489.158 190, 490.254 190.601, 490.863 191.335 C 497.660 199.524, 509.899 192.662, 511.511 179.758 L 512.204 174.211 508.370 171.605 C 503.912 168.576, 497.477 168.223, 489.795 170.587 M 527 172.391 C 512.747 175.508, 512.162 186.886, 525.916 193.460 C 535.031 197.816, 540.578 195.127, 543.428 184.972 C 545.373 178.038, 544.720 176.024, 539.785 173.742 C 534.501 171.298, 532.812 171.119, 527 172.391 M 532.500 226.326 C 525.606 229.024, 525 229.730, 525 235.070 C 525 247.345, 540.619 255.782, 549.286 248.189 C 551.806 245.982, 555 238.345, 555 234.528 C 555 227.268, 542.106 222.567, 532.500 226.326 M 468.500 230.653 C 457.980 236.170, 460.012 247.173, 472.654 253.146 C 483.722 258.376, 492.965 251.459, 492.994 237.924 C 493.010 230.813, 477.165 226.109, 468.500 230.653 M 537 279.655 C 525.728 283.562, 527.327 293.319, 540.332 299.989 L 546.739 303.276 551.268 300.160 C 555.708 297.105, 559 291.009, 559 285.842 C 559 280.529, 545.462 276.722, 537 279.655 M 462.266 293.155 C 448.122 297.066, 447.898 309.069, 461.840 315.944 L 468.276 319.117 472.888 316.269 C 479.754 312.028, 483.359 304.076, 480.881 298.637 C 479.060 294.642, 468.322 291.480, 462.266 293.155 M 550.734 337.099 C 533.888 341.020, 531.702 350.592, 545.136 361.612 C 550.793 366.252, 552.236 366.618, 558.278 364.940 C 563.058 363.612, 570.998 354.049, 570.999 349.618 C 571 345.012, 567.473 340.334, 562.710 338.623 C 556.351 336.338, 554.833 336.145, 550.734 337.099 M 442.834 343.575 C 430.383 347.408, 430.084 358.460, 442.181 367.724 C 448.638 372.669, 454.273 372.544, 460.775 367.312 C 477.882 353.546, 465.154 336.706, 442.834 343.575 M 563.647 391.512 C 550.510 395.121, 549.635 407.207, 561.813 416.852 C 567.260 421.166, 572.111 421.137, 578.530 416.750 C 596.288 404.613, 585.089 385.621, 563.647 391.512 M 429.639 402.992 C 423.182 405.514, 421.292 407.393, 420.763 411.813 C 420.293 415.745, 421.584 422, 422.866 422 C 423.291 422, 426.083 423.830, 429.069 426.066 C 436.996 432.002, 442.884 431.033, 451.250 422.420 C 462.962 410.360, 447.155 396.150, 429.639 402.992 M 584.500 456.612 C 568.299 460.476, 565.490 469.871, 577.293 480.716 C 585.175 487.958, 591.631 487.465, 600.125 478.970 C 610.537 468.559, 599.660 452.996, 584.500 456.612 M 416 461.827 C 408.474 464.318, 406.170 465.950, 405.431 469.314 C 402.643 482.009, 415.961 492.675, 428.210 487.557 C 448.812 478.949, 437.335 454.766, 416 461.827 M 404.881 515.894 C 390.798 517.933, 387.562 530.523, 398.622 540.250 C 408.356 548.810, 421.560 545.134, 426.837 532.394 C 430.830 522.754, 418.986 513.853, 404.881 515.894 M 600.500 521.710 C 583.888 523.985, 580.533 534.566, 592.712 546.277 C 605.342 558.422, 628.490 540.515, 616.432 527.929 C 613.860 525.244, 605.922 520.823, 604.261 521.150 C 603.842 521.232, 602.150 521.485, 600.500 521.710 M 524.742 534.735 C 523.226 535.691, 521.733 537.266, 521.425 538.236 C 521.057 539.395, 519.856 540, 517.921 540 C 513.615 540, 514.559 546.263, 521.008 560.500 C 522.503 563.800, 526.789 576.175, 530.531 588 C 538.307 612.569, 539.069 614.351, 543.315 617.903 C 545.023 619.331, 547.101 621.288, 547.933 622.250 C 550.242 624.923, 558.901 624.641, 562.615 621.771 C 571.426 614.964, 572.325 611.900, 568.615 601.310 C 567.303 597.564, 565.703 592.291, 565.060 589.592 C 564.417 586.892, 563.241 583.754, 562.446 582.619 C 561.651 581.484, 561 579.170, 561 577.477 C 561 575.785, 560.627 573.972, 560.170 573.450 C 559.714 572.928, 557.869 568.675, 556.069 564 C 547.808 542.538, 542.346 534.968, 534.735 534.431 C 532.956 534.305, 530.600 533.931, 529.500 533.600 C 528.363 533.258, 526.310 533.748, 524.742 534.735 M 380.960 553.817 C 379.563 554.916, 376.397 556.118, 373.924 556.489 C 369.531 557.148, 369.379 557.294, 367.375 562.832 C 360.322 582.320, 359.538 594.484, 365.035 599.128 C 375.228 607.740, 384.343 606.338, 391.461 595.062 C 396.177 587.592, 399.379 565.237, 396.664 558.739 C 394.269 553.007, 385.488 550.255, 380.960 553.817 M 477.500 561.672 C 471.949 562.894, 469.768 564.489, 467.620 568.900 C 464.099 576.131, 442.043 618.897, 438.688 625 C 437.025 628.025, 432.890 635.900, 429.498 642.500 C 426.106 649.100, 421.006 658.502, 418.165 663.393 C 415.324 668.285, 413 672.682, 413 673.166 C 413 673.649, 411.280 675.947, 409.178 678.272 C 405.698 682.121, 400.036 691.284, 392.971 704.500 C 391.500 707.250, 388.494 712.875, 386.289 717 C 373.421 741.073, 364.691 763.053, 364.903 770.841 C 365.310 785.792, 377.031 790.814, 387.824 780.662 C 393.947 774.903, 400.151 770.453, 406.500 767.265 C 412.342 764.332, 446.056 752.723, 446.741 753.408 C 447.267 753.934, 436.860 775.651, 433.768 780.479 C 433.070 781.568, 429.565 786.968, 425.979 792.479 C 417.435 805.608, 416.831 807.105, 417.553 813.345 C 419.091 826.633, 428.814 831.311, 439.734 824.019 C 443.044 821.808, 446.223 820, 446.799 820 C 447.376 820, 449.902 818.431, 452.414 816.514 C 457.682 812.492, 466.367 807.533, 470 806.471 C 471.375 806.069, 475.650 803.847, 479.500 801.534 C 496.740 791.177, 519.950 780.967, 544 773.160 C 562.800 767.058, 565.849 765.925, 576.500 761.074 C 590.278 754.800, 596.641 752.121, 599 751.601 C 602.412 750.850, 605.516 745.697, 606.887 738.509 C 608.331 730.940, 606.894 728.655, 599 725.970 L 593.500 724.100 582 729.479 C 564.080 737.862, 561.846 738.755, 539.384 746.515 C 516.560 754.400, 509.200 757.363, 488.759 766.897 C 478.470 771.696, 472.337 773.042, 471.438 770.699 C 470.918 769.345, 492.324 724.389, 494.150 723 C 495.607 721.892, 498.791 710.908, 498.273 708.779 C 496.122 699.946, 485.976 699.118, 475 706.879 C 464.793 714.096, 456.059 720, 455.590 720 C 455.314 720, 453.381 721.171, 451.294 722.601 C 445.840 726.341, 438.301 729.602, 423.542 734.606 C 405.687 740.660, 405.863 740.727, 411.382 730 C 424.570 704.371, 432.289 689.463, 435.716 683 C 437.903 678.875, 442.747 669.650, 446.479 662.500 C 450.212 655.350, 455.333 645.675, 457.860 641 C 490.343 580.904, 493.885 569.876, 483.027 562.646 C 481.668 561.741, 480.318 561.052, 480.027 561.116 C 479.737 561.180, 478.600 561.430, 477.500 561.672 M 635 580.060 C 623.816 585.190, 623.148 591.643, 632.858 600.750 C 635.936 603.638, 639.185 606, 640.078 606 C 646.320 606, 654.865 599.469, 656.970 593.090 C 660.184 583.351, 646.071 574.981, 635 580.060 M 316.500 581.566 C 313.750 582.891, 310.785 583.980, 309.911 583.987 C 307.888 584.004, 306 588.105, 306 592.482 C 306 609.385, 328.469 613.292, 336.585 597.800 C 342.703 586.123, 329.386 575.360, 316.500 581.566 M 591.558 582.906 C 591.186 583.508, 590.009 584, 588.941 584 C 587.873 584, 587 584.351, 587 584.781 C 587 585.210, 585.650 586.071, 584 586.694 C 581.179 587.759, 581.001 588.145, 581.017 593.163 C 581.098 619.066, 596.035 633.889, 609.255 621.188 C 613.916 616.710, 615.258 612.535, 613.612 607.630 C 612.849 605.359, 611.673 601.004, 610.999 597.953 C 609.299 590.263, 605.357 584.712, 600.959 583.815 C 599.056 583.426, 596.315 582.817, 594.867 582.460 C 593.342 582.085, 591.950 582.272, 591.558 582.906 M 710 617.973 C 708.625 618.479, 698.275 620.269, 687 621.950 C 675.725 623.632, 664.475 625.444, 662 625.976 C 641.673 630.349, 608.470 633.679, 577.259 634.473 C 561.371 634.877, 558.339 635.221, 553.759 637.139 C 545.706 640.511, 545.697 640.525, 546.250 648.247 C 546.790 655.792, 547.733 657.324, 554.867 662.245 L 559.234 665.257 569.867 664.535 C 575.715 664.137, 586.575 663.646, 594 663.442 C 601.425 663.239, 611.972 662.632, 617.439 662.094 C 628.797 660.975, 628.639 660.934, 629.462 665.261 C 632.064 678.955, 637.816 690.450, 643.719 693.755 C 649.287 696.872, 664.800 697.946, 670.409 695.603 C 672.518 694.721, 674.813 694, 675.508 694 C 678.590 694, 689.029 685.641, 693.146 679.877 C 695.541 676.524, 699.017 671.730, 700.871 669.224 C 705.448 663.035, 707 658.968, 707 653.163 C 707 647.101, 707.279 647.027, 730.300 647.011 C 751.781 646.996, 755.988 644.520, 755.996 631.885 C 756.004 620.570, 750.607 617.767, 728 617.344 C 719.475 617.184, 711.375 617.467, 710 617.973 M 352 619.034 C 350.075 619.490, 345.125 620.145, 341 620.488 C 315.567 622.609, 298.810 625.119, 296.550 627.147 C 296.028 627.616, 294.051 628, 292.158 628 C 290.265 628, 285.742 628.852, 282.108 629.892 C 278.474 630.933, 269.875 633.231, 263 634.998 C 256.125 636.765, 249.600 638.557, 248.500 638.981 C 240.842 641.929, 241.290 641.394, 241.224 647.663 C 241.063 662.795, 250.106 666.591, 275.899 662.219 C 284.899 660.694, 284.431 660.210, 282.438 668.973 C 279.688 681.062, 281.741 690.541, 289.596 702.038 C 300.073 717.371, 313.965 716.382, 330.225 699.144 C 340.452 688.302, 345.189 677.337, 349.159 655.315 L 350.274 649.130 356.558 648.457 C 360.014 648.087, 363.279 648.055, 363.814 648.385 C 366.875 650.277, 375.749 643.240, 378.447 636.782 C 384.217 622.968, 371.479 614.419, 352 619.034 M 204 651.959 C 197.833 652.615, 191.836 654.839, 190.530 656.952 C 189.718 658.265, 164.839 674.487, 155.750 679.630 C 150.974 682.332, 148.832 688.542, 152 690.500 C 152.550 690.840, 153.019 692.554, 153.043 694.309 C 153.077 696.920, 153.963 698.177, 157.919 701.226 C 166.671 707.971, 174.359 705.846, 197.144 690.384 C 201.348 687.531, 207.929 683.526, 211.768 681.484 C 223.349 675.324, 227.333 671.301, 227.333 665.768 C 227.333 655.503, 218.700 650.393, 204 651.959 M 770.500 667.976 C 759.420 670.825, 757.548 675.367, 762.869 686.500 C 766.538 694.176, 768.361 695.745, 780.500 701.676 C 786 704.364, 796.125 709.460, 803 713.002 C 817.527 720.485, 819.885 720.775, 828.173 716.097 C 832.846 713.461, 833.898 712.356, 834.427 709.536 C 834.777 707.671, 835.482 706, 835.993 705.823 C 837.049 705.456, 835.280 697.233, 833.715 695.230 C 830.834 691.545, 809.514 678.385, 800.875 674.961 C 798.331 673.953, 794.281 672.244, 791.875 671.164 C 782.504 666.957, 777.415 666.198, 770.500 667.976 M 230.410 689.863 C 227.169 690.441, 224.236 692.453, 216.295 699.546 C 208.075 706.888, 191.083 718.806, 186.798 720.234 C 186.145 720.452, 186.037 723.577, 186.495 729.036 L 187.205 737.500 192.347 740.750 C 200.893 746.152, 209.505 745.219, 221.500 737.593 C 230.362 731.958, 236.880 727.347, 240 724.503 C 241.925 722.749, 244.989 720.294, 246.808 719.047 C 267.579 704.818, 256.556 685.202, 230.410 689.863 M 738.159 715.730 C 726.742 717.132, 722.628 731.708, 732.012 737.507 C 732.555 737.843, 733 739.228, 733 740.584 C 733 742.353, 733.776 743.345, 735.748 744.094 C 737.260 744.669, 739.172 745.744, 739.998 746.482 C 750.519 755.891, 780.411 766.825, 783.950 762.560 C 784.607 761.768, 786.125 760.981, 787.323 760.810 C 788.778 760.603, 789.612 759.671, 789.838 758 C 790.023 756.625, 791.110 754.493, 792.251 753.261 C 797.573 747.522, 790.237 739.373, 770.500 729.099 C 763.900 725.663, 757.252 721.667, 755.728 720.218 C 753.293 717.904, 745.311 714.878, 742.500 715.204 C 741.950 715.268, 739.996 715.505, 738.159 715.730 M 267.500 719.391 C 261.500 720.856, 257.241 724.542, 255.889 729.439 C 253.928 736.541, 245.940 752.121, 238.529 763.295 C 232.083 773.016, 231.072 775.112, 231.590 777.698 C 231.969 779.593, 231.598 781.877, 230.597 783.812 C 228.706 787.470, 228.643 788, 230.100 788 C 230.705 788, 233.197 789.968, 235.637 792.374 C 248.409 804.965, 264.510 794.141, 280.434 762.259 C 291.573 739.960, 293.033 735.179, 290.889 728.025 C 288.201 719.054, 280.509 716.214, 267.500 719.391 M 698.295 740.082 C 692.539 742.223, 690.940 751.584, 695.097 758.807 C 696.144 760.626, 697 762.904, 697 763.870 C 697 764.836, 698.392 766.948, 700.094 768.563 C 701.795 770.178, 703.932 772.937, 704.844 774.692 C 705.755 776.448, 709.353 781.803, 712.839 786.591 C 716.326 791.380, 719.640 796.310, 720.203 797.547 C 722.749 803.134, 740.738 801.166, 746.880 794.628 C 749.119 792.244, 747.102 780.839, 743.543 775.757 C 742.694 774.546, 742 772.551, 742 771.325 C 742 769.925, 740.510 767.897, 738 765.880 C 735.800 764.112, 734 762.306, 734 761.867 C 734 761.030, 729.361 753.482, 727.300 750.965 C 721.104 743.398, 718.609 741.143, 715.734 740.511 C 710.748 739.414, 700.751 739.168, 698.295 740.082 M 658.500 749.007 C 645.687 750.947, 642.114 758.951, 645.113 779 C 652.263 826.814, 654.411 830.218, 673.182 823.487 C 678.605 821.542, 681.193 819.073, 681.231 815.808 C 681.246 814.539, 680.899 804.050, 680.460 792.500 C 680.021 780.950, 679.723 768.809, 679.798 765.520 C 679.948 758.907, 678.601 756.762, 670.600 750.871 C 666.482 747.839, 666.346 747.818, 658.500 749.007 M 319.246 762.840 C 312.877 765.426, 311.915 767.489, 310.853 780.824 C 310.191 789.141, 309.072 795.067, 306.962 801.423 C 303.667 811.349, 303.261 815.502, 305.500 816.362 C 306.325 816.678, 307 817.819, 307 818.897 C 307 822.820, 318.854 832.651, 321.703 831.092 C 322.692 830.552, 325.075 829.846, 327 829.523 C 336.634 827.911, 340.973 815.126, 341.334 787.288 C 341.622 765.107, 334.117 756.800, 319.246 762.840 M 573.270 792.703 C 565.618 794.181, 564.750 805.463, 570.593 827.500 C 572.635 835.200, 574.511 843.202, 574.761 845.282 C 575.227 849.151, 579.889 854, 583.144 854 C 583.945 854, 585.075 854.475, 585.655 855.055 C 586.726 856.126, 598.480 854.651, 600.574 853.182 C 607.429 848.373, 605.804 818.725, 597.654 799.893 C 595.013 793.791, 584.178 790.596, 573.270 792.703 M 372.500 811.420 C 369.129 812.928, 368.955 813.179, 362.708 825.564 C 352.957 844.896, 351.462 849.229, 353.464 852.349 C 354.223 853.532, 355.153 856.623, 355.531 859.217 C 356.059 862.844, 356.712 864.081, 358.359 864.571 C 359.536 864.922, 361.625 865.930, 363 866.812 C 368.386 870.266, 384 867.380, 384 862.931 C 384 862.535, 387.420 855.760, 391.600 847.877 C 399.172 833.596, 399.199 833.520, 398.825 826.911 C 398.057 813.310, 385.196 805.742, 372.500 811.420 M 508.021 820.284 C 503.037 822.805, 501.040 828.384, 500.963 840 C 500.924 845.775, 500.517 854.077, 500.059 858.450 C 499.432 864.442, 499.578 867.584, 500.655 871.211 C 501.441 873.857, 501.953 877.674, 501.792 879.695 C 501.511 883.232, 501.645 883.399, 505.422 884.204 C 507.579 884.664, 509.829 885.419, 510.422 885.883 C 511.389 886.639, 516.024 886.606, 524.391 885.784 C 529.205 885.311, 530.690 881.929, 533.079 866 C 538.438 830.277, 534.519 818.973, 516.790 819.015 C 513.330 819.023, 509.385 819.594, 508.021 820.284 M 434.020 841.767 C 429.542 844.034, 427 849.294, 421.982 866.685 C 417.451 882.389, 417.274 884.329, 419.884 889.655 C 420.920 891.770, 422.241 894.695, 422.820 896.156 C 423.527 897.943, 424.897 899.038, 427.004 899.501 C 428.726 899.879, 430.382 900.833, 430.685 901.621 C 432.235 905.662, 448.098 900.756, 449.359 895.845 C 449.832 894.005, 452.236 886.557, 454.701 879.293 C 460.949 860.888, 460.711 847.575, 454.092 845.259 C 453.217 844.953, 451.600 843.927, 450.500 842.981 C 447.420 840.330, 438.201 839.651, 434.020 841.767"/>
    </g>
  </g>
</svg>
