<svg viewBox="0 0 74 74" width="74mm" height="74mm" xmlns="http://www.w3.org/2000/svg">
  <g transform="scale(0.074000)" fill-rule="evenodd">
    <g id="forma" fill="#CB3747">
      <path d="M 130.377 62.984 C 129.209 63.456, 120.359 71.688, 110.710 81.277 C 88.051 103.797, 88.939 101.248, 95.490 124.968 C 97.670 132.862, 97.376 139.129, 94.023 156.277 C 81.342 221.114, 80.141 278.453, 90.040 346.500 C 93.348 369.237, 96.603 395.935, 97.416 407 C 99.548 436.006, 100.122 449.086, 100.445 476 C 101.228 541.333, 118.394 609.142, 144.492 650 C 148.181 655.775, 156.302 670.850, 162.539 683.500 C 188.969 737.105, 242.594 794.381, 291.673 821.424 C 302.830 827.571, 310.779 831.274, 345.500 846.496 C 374.455 859.190, 387.399 862.249, 419.585 864.005 C 438.099 865.014, 447.274 865.834, 469.960 868.505 C 484.585 870.227, 498.665 870.376, 512 868.948 C 517.225 868.389, 530.500 867.526, 541.500 867.030 C 565.264 865.958, 575.529 863.672, 609 851.992 C 620.275 848.058, 635.537 842.830, 642.915 840.374 C 666.254 832.605, 674.843 827.908, 690.662 814.267 C 695.616 809.995, 707.506 799.740, 717.085 791.477 C 726.663 783.215, 741.025 771.010, 749 764.356 C 783.022 735.969, 788.940 726.356, 800.012 681.500 C 802.863 669.950, 808.711 649.661, 813.008 636.414 C 823.777 603.210, 825.674 593.400, 829.016 553.631 C 830.233 539.145, 831.122 533.787, 834.100 523 C 835.239 518.875, 838.125 508.075, 840.512 499 C 842.900 489.925, 846.484 476.650, 848.478 469.500 C 851.654 458.109, 857.038 429.295, 862.960 392 C 864.670 381.227, 866.470 363.924, 869.026 333.683 C 869.622 326.634, 871.231 313.809, 872.601 305.183 C 877.892 271.880, 878.964 245.378, 876.381 211.674 C 874.842 191.577, 874.853 189.790, 876.620 175.024 C 881.527 134.005, 877.172 116.122, 858.656 101.259 C 854.892 98.237, 849.111 93.355, 845.811 90.410 C 832.983 78.964, 825.288 82.530, 812.059 106.049 C 808.517 112.347, 801.699 124.153, 796.908 132.284 C 791.721 141.088, 786.688 151.201, 784.466 157.284 C 778.998 172.256, 773.714 183.135, 759.767 208.134 C 752.904 220.435, 744.943 235.090, 742.077 240.701 C 738.735 247.243, 734.600 253.428, 730.549 257.945 C 722.827 266.557, 721.562 269.134, 719.639 280.169 C 717.902 290.141, 715.539 296.462, 705.499 318 C 701.525 326.525, 696.811 338, 695.023 343.500 C 693.235 349, 688.692 360.040, 684.928 368.033 C 681.164 376.026, 676.451 387.276, 674.456 393.033 C 663.140 425.682, 652.705 436.635, 641.392 427.736 C 634.853 422.593, 626.760 398.245, 617.051 354.500 C 613.145 336.900, 607.282 312.600, 604.023 300.500 C 598.389 279.587, 596.321 270.194, 588.941 232 C 585.256 212.931, 581.666 199.338, 572.037 168 C 568.235 155.625, 563.930 141.477, 562.472 136.560 C 555.976 114.663, 541.709 115.432, 529.949 138.314 C 527.635 142.816, 520.417 156.400, 513.909 168.500 C 507.401 180.600, 498.508 199.050, 494.148 209.500 C 489.787 219.950, 483.318 234.800, 479.771 242.500 C 472.919 257.374, 463.517 280.883, 454.574 305.500 C 439.477 347.058, 435.482 355.665, 429.971 358.515 C 417.561 364.932, 410.031 349.524, 395.998 289 C 393.129 276.625, 389.208 261.325, 387.286 255 C 380.057 231.218, 378.941 227.057, 375.078 209.500 C 370.999 190.958, 369.157 179.080, 366.469 154 C 364.195 132.779, 355.574 95, 350.916 85.845 C 347.204 78.550, 340.124 75.907, 334.380 79.671 C 326.039 85.136, 307.014 119.889, 296.974 148 C 293.536 157.625, 287.810 173.150, 284.250 182.500 C 280.689 191.850, 275.544 206.025, 272.816 214 C 270.088 221.975, 265.126 235.025, 261.789 243 C 258.452 250.975, 254.939 259.772, 253.984 262.548 C 247.679 280.868, 237.708 286.611, 228.639 277.145 C 224.916 273.259, 212.431 245.133, 195.506 202.500 C 178.094 158.642, 178.155 158.842, 177.036 141.500 C 175.694 120.685, 174.132 115.502, 165.214 102.273 C 163.074 99.098, 158.267 90.541, 154.532 83.258 C 144.888 64.452, 138.993 59.504, 130.377 62.984"/>
    </g>
    <g id="detalles" fill="#1A1A1A">
      <path d="M 131.124 51 C 125.191 54.270, 123.420 56.178, 122.619 60.164 C 122.230 62.101, 120.662 63.602, 116.870 65.664 C 109.957 69.424, 108.259 72.056, 106.972 81 C 105.780 89.289, 105.565 89.972, 99.445 105 C 93.740 119.008, 92.402 123.752, 90.983 135 C 90.323 140.225, 88.897 148.325, 87.812 153 C 85.269 163.958, 83.851 171.616, 83.553 176 C 83.113 182.478, 80.916 197.448, 79.443 204 C 74.321 226.788, 76.236 301.860, 83.052 345.500 C 88.734 381.885, 93.016 427.740, 92.996 452 C 92.991 457.775, 93.392 466.300, 93.888 470.944 C 94.575 477.392, 94.461 480.464, 93.405 483.944 C 91.630 489.790, 91.652 492.904, 93.527 501.500 C 94.367 505.350, 95.299 511.626, 95.597 515.447 C 95.896 519.267, 96.499 523.092, 96.939 523.947 C 97.378 524.801, 97.813 528.425, 97.905 532 C 97.998 535.575, 98.732 540.719, 99.537 543.432 C 100.342 546.144, 101 549.654, 101 551.231 C 101 552.809, 101.708 555.469, 102.574 557.143 C 103.439 558.816, 103.938 560.396, 103.681 560.652 C 103.425 560.908, 104.067 563.447, 105.108 566.295 C 106.148 569.142, 107 572.873, 107 574.587 C 107 577.447, 107.971 581.391, 109.933 586.500 C 111.046 589.398, 112.732 594.415, 115.645 603.500 C 117.056 607.900, 119.288 613.586, 120.605 616.135 C 121.922 618.685, 123 621.632, 123 622.685 C 123 623.738, 123.378 625.027, 123.839 625.550 C 124.300 626.072, 125.268 629.068, 125.988 632.206 C 126.868 636.037, 128.235 638.809, 130.149 640.643 C 131.717 642.145, 133 643.823, 133 644.373 C 133 644.922, 133.997 646.432, 135.216 647.730 C 137.844 650.527, 144.120 660.673, 147.136 667 C 148.316 669.475, 149.668 671.650, 150.141 671.833 C 150.613 672.017, 151 672.670, 151 673.285 C 151 673.900, 153.250 679.033, 156 684.691 C 158.750 690.349, 161 695.336, 161 695.772 C 161 696.610, 165.835 705.569, 171.566 715.351 C 174.740 720.768, 181.279 729.136, 191.750 741.179 C 194.088 743.867, 196 746.460, 196 746.940 C 196 750.155, 258.705 809.950, 266.403 814.076 C 268.359 815.124, 271.973 817.520, 274.435 819.399 C 276.897 821.278, 280.583 823.367, 282.625 824.041 C 286.843 825.433, 291.478 828.011, 298 832.592 C 304.646 837.260, 308.505 839, 312.216 839 C 314.226 839, 318.089 840.477, 322.026 842.750 C 325.598 844.813, 329.641 847.014, 331.010 847.643 C 342.023 852.699, 345.298 854.070, 351 856.009 C 354.575 857.225, 359.793 859.514, 362.596 861.096 C 368.735 864.559, 383.553 867.890, 397.701 868.987 C 403.312 869.421, 410.105 870.305, 412.796 870.951 C 416.152 871.756, 419.782 871.845, 424.349 871.233 C 429.089 870.598, 432.808 870.718, 437.254 871.649 C 440.689 872.369, 446.733 872.968, 450.685 872.979 C 454.637 872.991, 459.104 873.469, 460.612 874.042 C 462.120 874.616, 467.324 875.302, 472.178 875.568 C 477.031 875.833, 482.187 876.501, 483.636 877.052 C 486.733 878.229, 497.833 878.079, 498.593 876.849 C 498.882 876.382, 502.129 875.999, 505.809 875.999 C 509.489 875.998, 518.575 875.280, 526 874.403 C 533.730 873.489, 542.324 873.060, 546.107 873.397 C 554.651 874.160, 566.325 872.660, 577 869.427 C 601.165 862.110, 605.863 860.553, 610 858.493 C 612.475 857.261, 616.407 855.966, 618.738 855.616 C 621.069 855.266, 624.724 854.069, 626.860 852.956 C 628.996 851.842, 635.189 849.642, 640.622 848.067 C 650.076 845.326, 663.344 840.433, 673.044 836.113 C 675.542 835, 680.097 831.932, 683.164 829.295 C 686.231 826.658, 692.143 821.642, 696.301 818.150 C 700.459 814.657, 705.172 810.382, 706.775 808.650 C 708.378 806.917, 711.446 804.150, 713.593 802.500 C 715.740 800.850, 719.569 797.587, 722.102 795.250 C 724.635 792.913, 727.134 791, 727.655 791 C 728.177 791, 732.405 787.359, 737.052 782.909 C 741.698 778.458, 747.525 773.436, 750 771.747 C 754.005 769.015, 770.917 754.437, 773.500 751.490 C 774.050 750.863, 775.738 749.544, 777.250 748.560 C 778.763 747.575, 780 746.197, 780 745.498 C 780 744.798, 781.381 743.162, 783.068 741.863 C 784.823 740.511, 787.969 735.864, 790.421 731 C 792.777 726.325, 795.444 721.150, 796.346 719.500 C 797.249 717.850, 797.990 715.698, 797.994 714.718 C 797.997 713.738, 798.705 711.263, 799.566 709.218 C 800.427 707.173, 801.530 703.700, 802.016 701.500 C 802.502 699.300, 803.836 693.900, 804.980 689.500 C 806.124 685.100, 807.902 677.675, 808.931 673 C 809.959 668.325, 811.935 660.731, 813.321 656.124 C 814.707 651.517, 815.725 647.242, 815.584 646.624 C 815.443 646.006, 815.552 645.944, 815.826 646.486 C 816.308 647.440, 819.165 639.912, 823.032 627.500 C 830.181 604.555, 831.304 599.686, 832.483 586.500 C 832.778 583.200, 833.458 577.350, 833.993 573.500 C 834.528 569.650, 835.423 559.525, 835.981 551 C 836.539 542.475, 837.652 533.700, 838.454 531.500 C 839.256 529.300, 839.932 526.706, 839.956 525.736 C 839.980 524.766, 840.412 523.191, 840.915 522.236 C 842.117 519.958, 845.278 508.529, 847.482 498.500 C 849.693 488.435, 850.779 484.412, 852.474 480 C 856.462 469.618, 859.726 454.668, 862.953 432 C 864.010 424.575, 865.818 414.225, 866.970 409 C 868.123 403.775, 869.284 397.475, 869.551 395 C 869.818 392.525, 870.262 389.487, 870.537 388.250 C 871.480 384.017, 874.981 347.509, 874.973 342 C 874.963 335.325, 877.551 314.283, 879.645 304 C 881.169 296.519, 882.122 288.321, 883.889 267.500 C 884.402 261.450, 884.589 247.500, 884.305 236.500 C 883.543 207.082, 883.377 204.573, 882.027 202.051 C 881.051 200.227, 881.053 199.270, 882.033 197.439 C 883.065 195.510, 882.999 194.856, 881.635 193.492 C 880.736 192.593, 879.996 191.327, 879.991 190.679 C 879.854 172.285, 877.473 157.900, 871.518 139.500 C 869.204 132.350, 866.735 122.450, 866.030 117.500 C 864.750 108.509, 862.745 103.155, 858.541 97.500 C 857.315 95.850, 856.128 94.050, 855.905 93.500 C 852.435 84.965, 842.654 74.401, 837.288 73.394 C 833.670 72.715, 822 75.703, 822 77.308 C 822 77.753, 820.677 79.778, 819.060 81.809 C 816.378 85.177, 813.154 90.703, 793.291 125.982 C 789.491 132.732, 785.007 139.183, 782.413 141.633 C 777.881 145.914, 777.182 147.377, 779.101 148.562 C 780.601 149.490, 779.641 153.669, 775.947 162.297 C 772.458 170.443, 761.295 192.907, 759.876 194.636 C 759.364 195.261, 757.092 199.311, 754.829 203.636 C 752.566 207.961, 749.948 212.625, 749.012 214 C 748.076 215.375, 746.003 219.239, 744.405 222.588 C 742.657 226.251, 740.388 229.329, 738.708 230.315 C 736.369 231.689, 735.944 232.566, 736.086 235.728 C 736.436 243.484, 730.679 252.779, 723.541 255.982 C 717.697 258.604, 709.966 265.722, 710.022 268.430 C 710.048 269.716, 713.455 276.808, 715.208 279.226 C 716.510 281.022, 714.477 286.074, 711.459 288.543 C 709.993 289.742, 705.011 301.565, 704.978 303.922 C 704.952 305.795, 702.313 311.250, 697.443 319.500 C 692.663 327.597, 690.825 331.745, 689.911 336.500 C 687.880 347.063, 684.355 356.596, 679.558 364.500 C 674.160 373.393, 672.097 377.907, 669.506 386.500 C 665.451 399.947, 661.963 408.974, 658.881 414 C 655.718 419.157, 650.370 429.662, 649.590 432.250 C 648.487 435.911, 646.316 433.987, 645.076 428.250 C 644.392 425.087, 643.003 420.700, 641.988 418.500 C 640.973 416.300, 639.641 412.579, 639.028 410.231 C 638.415 407.883, 636.952 403.833, 635.779 401.231 C 634.605 398.629, 633.105 394.250, 632.446 391.500 C 631.787 388.750, 630.330 382.675, 629.209 378 C 626.829 368.078, 622.800 350.087, 619.466 334.500 C 616.047 318.511, 610.273 296.552, 608.354 292.235 C 607.440 290.181, 606.778 287.953, 606.883 287.284 C 606.987 286.615, 606.379 283.392, 605.532 280.122 C 603.542 272.445, 599.838 255.223, 599.482 252 C 599.118 248.698, 597.247 238.207, 595.470 229.500 C 592.423 214.571, 590.921 208.176, 588.424 199.500 C 587 194.550, 585.483 189.150, 585.054 187.500 C 584.624 185.850, 581.777 176.625, 578.726 167 C 575.676 157.375, 572.478 147.025, 571.620 144 C 570.762 140.975, 569.146 135.415, 568.030 131.645 C 566.913 127.874, 566 123.749, 566 122.478 C 566 111.181, 556.101 106.033, 545.721 111.932 C 543.950 112.939, 540.455 114.517, 537.954 115.439 C 535.454 116.361, 532.783 118.102, 532.019 119.308 C 530.458 121.769, 517 148.806, 517 149.479 C 517 149.717, 515.647 152.207, 513.992 155.013 C 503.471 172.857, 490.484 198.815, 488.482 206 C 487.462 209.663, 479.523 227.721, 472.874 241.500 C 469.690 248.100, 465.764 257.100, 464.150 261.500 C 462.537 265.900, 459.526 273.550, 457.460 278.500 C 455.394 283.450, 451.587 293.800, 449.001 301.500 C 446.415 309.200, 442.207 320.388, 439.649 326.362 C 437.092 332.336, 434.997 337.961, 434.994 338.862 C 434.990 339.763, 434.409 341.625, 433.702 343 C 432.995 344.375, 431.383 348.425, 430.121 352 C 425.593 364.821, 424.467 366.215, 422.902 360.938 C 422.505 359.597, 420.080 351.300, 417.514 342.500 C 414.948 333.700, 411.702 323.350, 410.300 319.500 C 408.898 315.650, 407.624 310.946, 407.469 309.046 C 407.313 307.147, 406.428 303.097, 405.501 300.046 C 404.574 296.996, 403.379 293.040, 402.845 291.256 C 402.311 289.472, 402.142 287.579, 402.469 287.050 C 402.796 286.521, 402.374 284.438, 401.532 282.422 C 400.689 280.406, 400 277.446, 400 275.846 C 400 274.245, 399.377 271.444, 398.615 269.621 C 397.853 267.797, 396.911 263.987, 396.521 261.154 C 396.131 258.320, 395.446 255.776, 394.999 255.499 C 394.551 255.223, 393.436 252.410, 392.520 249.248 C 391.605 246.087, 390.061 241.250, 389.089 238.500 C 386.646 231.582, 382 212.723, 382 209.723 C 382 208.364, 381.330 205.354, 380.512 203.035 C 378.715 197.942, 374.428 168.364, 373.477 154.500 C 372.786 144.410, 370.741 131.609, 369.086 127 C 368.592 125.625, 366.981 118.425, 365.505 111 C 364.029 103.575, 361.556 94.125, 360.009 90 C 358.462 85.875, 356.684 80.861, 356.057 78.858 C 352.812 68.496, 345.727 62.981, 339.376 65.874 C 338.018 66.493, 335.834 67, 334.523 67 C 332.611 67, 331.324 68.434, 328.011 74.250 C 320.904 86.727, 314.549 96.675, 309.840 102.696 C 307.343 105.888, 304.595 110.075, 303.732 112 C 300.600 118.991, 293.048 139.025, 284.549 162.889 C 279.772 176.303, 275.246 188.228, 274.490 189.389 C 272.775 192.027, 267.011 209.702, 266.968 212.459 C 266.951 213.582, 266.261 215.394, 265.436 216.486 C 264.610 217.578, 263.030 221.403, 261.924 224.986 C 260.818 228.569, 258.173 235.325, 256.047 240 C 249.178 255.105, 248 257.872, 248 258.914 C 248 261.239, 241.558 278.935, 239.922 281.103 C 237.843 283.860, 235.050 282.228, 233.204 277.178 C 227.273 260.961, 224.879 255.088, 220.785 246.715 C 218.153 241.333, 216 236.360, 216 235.665 C 216 234.969, 215.571 233.971, 215.048 233.448 C 214.524 232.924, 212.780 228.896, 211.172 224.498 C 209.565 220.099, 206.346 211.775, 204.019 206 C 201.692 200.225, 198.223 191.450, 196.308 186.500 C 194.394 181.550, 191.546 174.575, 189.979 171 C 185.940 161.785, 180.561 144.509, 177.390 130.570 C 169.537 96.045, 150.513 54.967, 139.800 49.403 C 136.483 47.680, 137.478 47.497, 131.124 51 M 130.241 92.986 C 129.558 94.079, 129 95.852, 129 96.927 C 129 98.002, 128.550 99.160, 128 99.500 C 127.450 99.840, 127 101.498, 127 103.185 C 127 104.872, 125.492 110.133, 123.648 114.876 C 118.566 127.953, 114.752 146.171, 116.503 149.006 C 117.625 150.820, 121.070 150.037, 124.809 147.117 C 126.839 145.532, 132.325 142.776, 137 140.994 C 148.684 136.540, 148.520 136.653, 148.357 133.149 C 148.100 127.656, 134.132 91, 132.296 91 C 131.848 91, 130.923 91.894, 130.241 92.986 M 830.761 119.184 C 829.383 121.558, 827.946 124.502, 827.567 125.727 C 827.189 126.953, 825.332 129.808, 823.440 132.072 C 818.884 137.525, 819.076 139.094, 824.750 142.818 C 827.362 144.533, 832.642 148.225, 836.482 151.023 C 844.087 156.564, 844.958 156.310, 842.716 149.202 C 841.288 144.675, 839.765 138.288, 836.616 123.619 C 834.668 114.546, 833.825 113.908, 830.761 119.184 M 331.466 120.268 C 329.797 122.046, 327.390 126.200, 326.118 129.500 C 324.846 132.800, 323.388 136.400, 322.878 137.500 C 322.367 138.600, 320.456 143.775, 318.629 149 C 310.232 173.022, 303.678 190.918, 301.601 195.500 C 300.354 198.250, 297.856 205.225, 296.050 211 C 292.294 223.011, 284.167 242.901, 277.051 257.500 C 274.370 263, 269.618 274.025, 266.491 282 C 263.364 289.975, 259.225 299.875, 257.293 304 C 249.402 320.852, 248.184 323.686, 247.049 327.845 C 245.341 334.102, 238.257 341, 233.540 341 C 230.432 341, 229.848 341.428, 228.475 344.713 C 225.294 352.328, 220.684 355.022, 209 356.097 C 197.060 357.196, 188.809 358.682, 184.500 360.510 C 166.024 368.349, 152.346 375.996, 130.987 390.430 L 117.773 399.361 118.195 408.189 C 118.790 420.646, 120.838 421.460, 131.709 413.559 C 168.911 386.522, 200.427 373.609, 225.318 375.207 C 250.143 376.800, 247.887 408.863, 223.003 408.120 C 201.365 407.475, 173.682 417.140, 155.226 431.785 C 150.427 435.593, 143.800 440.462, 140.500 442.604 C 137.200 444.747, 133.649 447.268, 132.608 448.207 C 131.567 449.145, 128.737 450.844, 126.317 451.981 C 120.568 454.683, 120.561 454.716, 122.350 470.286 C 123.731 482.315, 123.731 484.171, 122.342 488.908 C 121.173 492.898, 121.044 495.056, 121.810 497.835 C 122.365 499.851, 123.541 504.134, 124.424 507.352 C 125.306 510.571, 126.288 518.671, 126.607 525.352 C 127.074 535.156, 127.815 539.526, 130.448 548 C 132.243 553.775, 134.505 562.775, 135.476 568 C 137.380 578.249, 139.397 584.376, 144.637 595.828 C 146.481 599.858, 148.695 605.708, 149.557 608.828 C 150.418 611.947, 151.498 615.400, 151.956 616.500 C 152.414 617.600, 153.576 620.750, 154.538 623.500 C 156.325 628.605, 162.644 640.106, 166.627 645.500 C 167.845 647.150, 170.651 652.248, 172.863 656.828 C 175.075 661.409, 177.289 665.684, 177.782 666.328 C 178.275 666.973, 181.216 673.248, 184.316 680.274 C 190.370 693.993, 195.218 701.599, 206.447 715 C 210.365 719.675, 215.129 725.525, 217.035 728 C 238.717 756.158, 274.314 787.346, 297.438 798.445 C 302.729 800.984, 309.407 804.557, 312.279 806.384 C 315.150 808.212, 319.300 810.284, 321.500 810.990 C 326.567 812.615, 333.598 816.133, 340.283 820.387 C 345.782 823.886, 348.742 824.969, 358.500 827.050 C 361.800 827.753, 368.256 830.280, 372.846 832.664 C 377.462 835.062, 382.602 837.007, 384.346 837.016 C 386.081 837.024, 390.200 837.683, 393.500 838.480 C 396.800 839.277, 401.833 839.945, 404.685 839.964 C 407.536 839.984, 413.161 840.697, 417.185 841.549 C 423.337 842.852, 425.502 842.900, 430.804 841.855 C 435.752 840.879, 438.607 840.868, 444.073 841.806 C 447.903 842.463, 453.409 843, 456.308 843 C 459.208 843, 464.171 843.675, 467.339 844.500 C 470.506 845.325, 475.071 846, 477.483 846 C 479.896 846, 485.098 846.679, 489.044 847.509 C 494.257 848.606, 497.213 848.752, 499.859 848.045 C 501.862 847.510, 508 846.857, 513.500 846.594 C 519 846.331, 528.563 845.436, 534.752 844.606 C 541.796 843.662, 549.157 843.320, 554.433 843.693 C 563.056 844.301, 572.497 843.099, 579 840.566 C 580.925 839.816, 586.403 837.964, 591.173 836.450 C 595.944 834.936, 601.017 832.612, 602.448 831.286 C 606.998 827.067, 616.173 823.255, 630.753 819.528 C 653.841 813.626, 668.702 804.892, 688.654 785.500 C 710.907 763.871, 721.717 754.174, 731.280 747.262 C 736.901 743.199, 742.850 738.625, 744.500 737.096 C 746.150 735.568, 748.994 733.293, 750.821 732.040 C 762.956 723.719, 771.157 708.819, 774.102 689.744 C 774.717 685.760, 775.827 681.323, 776.567 679.883 C 777.307 678.444, 778.343 674.598, 778.869 671.335 C 779.394 668.073, 780.989 661.838, 782.412 657.479 C 783.835 653.121, 785 648.835, 785 647.954 C 785 647.073, 787.271 639.425, 790.046 630.958 C 800.531 598.971, 803.099 585.204, 805.614 547.500 C 805.944 542.550, 806.559 535.575, 806.981 532 C 807.835 524.763, 807.657 524, 805.115 524 C 804.144 524, 800.142 521.638, 796.223 518.750 C 792.304 515.862, 786.488 511.871, 783.299 509.880 C 764.429 498.101, 755.726 492.932, 749.500 489.807 C 745.650 487.874, 741.150 485.551, 739.500 484.646 C 731.014 479.990, 688.800 460.054, 684.301 458.578 C 673.224 454.945, 668.737 458.651, 659.967 478.670 C 657.618 484.031, 651.326 491, 648.834 491 C 642.956 491, 639.177 487.029, 629.954 471.159 C 626.882 465.872, 618.080 443.237, 614.533 431.500 C 612.538 424.900, 609.608 415.900, 608.022 411.500 C 604.124 400.687, 601.406 391.093, 599.522 381.500 C 598.658 377.100, 596.640 368.100, 595.038 361.500 C 592.415 350.697, 590.893 343.984, 587.894 330 C 586.706 324.460, 582.072 306.574, 578.696 294.500 C 575.718 283.848, 569.685 256.611, 567.953 246 C 564.631 225.643, 558.051 198.861, 552.351 182.500 C 544.203 159.114, 543.856 158.916, 536.521 173.500 C 534.585 177.350, 531.373 183.425, 529.383 187 C 522.986 198.493, 520.264 204.223, 514.658 218 C 505.494 240.518, 504.114 243.734, 501.916 247.692 C 497.524 255.598, 496.062 258.723, 493.115 266.500 C 491.449 270.900, 488.650 278.100, 486.896 282.500 C 480.064 299.638, 478.854 304, 480.933 304 C 481.446 304, 482.131 303.163, 482.455 302.141 C 483.774 297.987, 495.763 293.243, 504 293.615 C 518.024 294.250, 528.494 294.979, 531 295.496 C 532.375 295.780, 538.017 296.411, 543.538 296.898 C 560.270 298.375, 565.500 302.305, 565.500 313.401 C 565.500 326.102, 559.241 329.991, 541.912 328.059 C 536.185 327.420, 528.575 326.670, 525 326.391 C 521.425 326.113, 516.475 325.477, 514 324.980 C 511.525 324.482, 505.450 323.794, 500.500 323.452 C 490.740 322.776, 484 321.406, 484 320.098 C 484 319.644, 482.920 318.193, 481.601 316.873 C 480.281 315.554, 479.008 313.355, 478.773 311.987 C 478.412 309.894, 477.826 310.609, 475.073 316.500 C 473.274 320.350, 470.900 324.479, 469.796 325.676 C 468.693 326.873, 468.046 328.266, 468.359 328.772 C 468.672 329.278, 466.886 335.011, 464.391 341.512 C 461.895 348.012, 460.080 354.197, 460.356 355.255 C 460.948 357.518, 458.292 366.234, 454.644 374 C 452.417 378.742, 446.041 395.352, 439.866 412.500 C 438.876 415.250, 438.051 419.140, 438.033 421.145 C 438.010 423.699, 437.257 425.495, 435.517 427.145 C 434.152 428.440, 433.027 430.037, 433.017 430.693 C 432.988 432.683, 428.762 435, 425.163 435 C 421.717 435, 412 430.418, 412 428.793 C 412 428.304, 411.082 426.013, 409.959 423.702 C 408.836 421.391, 406.988 415.228, 405.852 410.006 C 404.715 404.784, 402.543 397.359, 401.026 393.506 C 399.508 389.653, 397.309 383.125, 396.139 379 C 390.145 357.862, 386.810 346.501, 386.409 345.853 C 386.165 345.457, 385.092 341.166, 384.026 336.317 C 382.960 331.467, 381.584 325.700, 380.967 323.500 C 377.598 311.480, 372.674 289.334, 371.518 281 C 371.175 278.525, 368.947 270.200, 366.567 262.500 C 360.140 241.706, 358.313 235.287, 356.466 227 C 355.547 222.875, 354.401 218.150, 353.920 216.500 C 352.618 212.036, 349.308 193.692, 348.056 184 C 347.452 179.325, 345.820 166.725, 344.429 156 C 341.151 130.718, 337.863 116.938, 335.128 117.018 C 334.782 117.029, 333.134 118.491, 331.466 120.268 M 308 152.878 C 308 153.360, 308.675 154.315, 309.500 155 C 311.326 156.516, 311.438 159.146, 309.750 160.897 C 308.739 161.946, 308.882 162.121, 310.500 161.812 C 313.945 161.153, 312.326 152.088, 308.750 152.015 C 308.337 152.007, 308 152.395, 308 152.878 M 806.071 166.250 C 805.024 168.588, 802.347 174.445, 800.122 179.267 C 797.896 184.089, 796.310 188.589, 796.596 189.267 C 797.164 190.613, 805.094 196.675, 817.317 205.107 C 821.617 208.073, 826.342 211.401, 827.817 212.503 C 834.393 217.413, 845.785 226.172, 848.791 228.629 C 854.056 232.933, 854.346 231.402, 851.964 211.905 C 850.795 202.332, 849.656 193.549, 849.434 192.387 C 849.205 191.187, 845.459 187.536, 840.765 183.938 C 836.219 180.453, 830.250 175.779, 827.500 173.551 C 821.872 168.991, 820.460 168.060, 813.783 164.509 C 807.840 161.348, 808.314 161.241, 806.071 166.250 M 146.500 171.425 C 143.200 172.653, 137.291 175.247, 133.369 177.190 C 129.446 179.134, 124.946 181.036, 123.369 181.418 C 114.234 183.630, 109.037 187.892, 109.015 193.191 C 108.992 198.822, 109.971 198.671, 124.751 190.769 C 141.303 181.920, 148.193 179, 152.523 179 C 157.822 179, 160.247 176.264, 158.506 172.250 C 156.815 168.350, 155.088 168.232, 146.500 171.425 M 316.172 207.255 C 307.603 211.378, 305.972 230.336, 313.571 237.502 C 324.762 248.056, 339.936 232.674, 332.605 218.207 C 327.396 207.929, 322.104 204.402, 316.172 207.255 M 166 208.500 C 164.625 209.286, 162.274 209.945, 160.774 209.965 C 159.275 209.984, 154.178 212.025, 149.446 214.500 C 144.715 216.975, 139.890 219, 138.725 219 C 137.561 219, 135.008 220.050, 133.054 221.333 C 127.327 225.092, 112.856 233.594, 108.250 235.907 C 104.502 237.788, 104 238.442, 104 241.439 C 104 249.282, 105.443 249.584, 115.326 243.804 C 135.355 232.088, 155.156 223.011, 166.132 220.512 C 170.184 219.590, 174.547 218.416, 175.827 217.904 L 178.155 216.972 175.646 213.992 C 174.267 212.352, 172.852 210.108, 172.502 209.005 C 171.759 206.666, 169.514 206.491, 166 208.500 M 781.287 216.250 C 780.760 216.938, 778.663 220.528, 776.627 224.228 L 772.926 230.957 775.093 232.728 C 776.284 233.703, 778.347 235.472, 779.677 236.659 C 781.007 237.846, 784.806 240.546, 788.119 242.659 C 791.432 244.772, 796.473 248.300, 799.321 250.500 C 802.170 252.700, 807.875 256.718, 812 259.428 C 816.125 262.139, 821.592 266.080, 824.148 268.186 C 831.976 274.635, 850.114 285.286, 851.281 284.119 C 852.357 283.043, 854.256 263.224, 853.414 261.861 C 853.028 261.237, 842.585 253.972, 834.207 248.500 C 833.365 247.950, 831.934 246.825, 831.028 246 C 826.040 241.458, 785.620 215, 783.670 215 C 782.886 215, 781.814 215.563, 781.287 216.250 M 181.500 250.025 C 178.200 251.607, 174.430 252.924, 173.121 252.951 C 171.813 252.978, 166.638 254.747, 161.621 256.883 C 156.605 259.018, 150.590 261.082, 148.255 261.470 C 145.921 261.857, 143.749 262.598, 143.429 263.115 C 143.109 263.633, 138.719 266.125, 133.673 268.654 C 110.628 280.201, 105.738 284.758, 106.220 294.232 C 106.612 301.911, 107.966 304.197, 110.726 301.835 C 113.637 299.344, 124.659 293, 126.076 293 C 126.799 293, 128.540 291.933, 129.945 290.629 C 135.296 285.663, 162.048 273.389, 182.500 266.517 C 195.956 261.995, 196.994 260.525, 192.733 252.012 C 189.994 246.541, 189.097 246.382, 181.500 250.025 M 535 251.500 C 533.625 252.286, 531.825 252.953, 531 252.983 C 528.532 253.071, 523 260.532, 523 263.772 C 523 270.903, 537.081 281, 547.026 281 C 559.350 281, 566.217 263.489, 557.364 254.636 C 553.179 250.451, 540.054 248.611, 535 251.500 M 310.100 253.379 C 309.415 254.205, 307.887 255.019, 306.704 255.190 C 304.124 255.562, 300.040 262.303, 300.016 266.230 C 299.967 274.439, 302.723 277.125, 316.256 282.052 C 319.597 283.269, 324.421 286.222, 327.756 289.092 C 334.539 294.930, 336.834 295.705, 342.145 293.952 C 359.669 288.169, 354.940 264.895, 334.202 254.856 C 328.240 251.970, 312.091 250.980, 310.100 253.379 M 758.261 260.750 C 753.851 268.598, 754.309 269.641, 765.500 277.211 C 771 280.932, 777.108 285.715, 779.074 287.841 C 781.039 289.966, 785.651 293.384, 789.321 295.437 C 792.992 297.490, 796.334 299.756, 796.748 300.474 C 799.804 305.772, 838.222 329, 843.929 329 C 845.546 329, 846.624 325.442, 847.307 317.859 L 847.904 311.217 835.702 303.859 C 828.991 299.811, 819.492 293.800, 814.592 290.500 C 793.522 276.308, 790.091 274.117, 782.500 270.009 C 778.100 267.628, 773.375 264.828, 772 263.787 C 762.002 256.215, 760.941 255.980, 758.261 260.750 M 293.030 287.113 C 286.941 289.543, 277 300.703, 277 305.110 C 277 306.712, 274.874 312.013, 270.627 321 C 268.883 324.690, 268.519 327.236, 268.607 335.139 L 268.715 344.778 272.607 349.456 C 275.946 353.470, 276.891 354.055, 279.250 353.568 C 280.762 353.255, 283.282 352.734, 284.848 352.409 C 289.503 351.443, 292.873 347.913, 295.013 341.763 C 296.110 338.607, 298.644 332.532, 300.643 328.263 C 308.963 310.493, 311.077 301.917, 308.981 294.431 C 306.952 287.184, 300.392 284.174, 293.030 287.113 M 189.500 297.172 C 184 299.388, 177.657 301.524, 175.405 301.919 C 171.245 302.647, 167.730 304.325, 149 314.517 C 134.819 322.233, 129.335 325.500, 128 327.025 C 127.725 327.339, 125.925 328.657, 124 329.952 C 111.218 338.556, 109.741 342.115, 113.192 356 C 114.992 363.245, 115.371 363.363, 122.593 358.943 C 126.136 356.774, 129.226 355, 129.458 355 C 130.164 355, 146.177 347.019, 151.194 344.168 C 165.270 336.167, 170.418 333.604, 179.500 330.076 C 193.221 324.747, 200.779 323, 210.112 323 C 215.836 323, 218.207 322.625, 218.577 321.660 C 219.458 319.364, 214.832 308.674, 211.589 305.512 C 209.890 303.856, 207.789 300.475, 206.920 298 C 204.830 292.046, 202.496 291.935, 189.500 297.172 M 737.741 301.370 C 736.224 303.772, 734.131 308.159, 733.091 311.118 C 732.050 314.078, 730.005 319.154, 728.547 322.397 C 725.461 329.260, 725.040 328.602, 736.179 334.318 C 744.519 338.598, 756.804 345.866, 769.500 354.031 C 772.800 356.153, 778.200 359.318, 781.500 361.063 C 784.800 362.809, 788.210 364.859, 789.079 365.618 C 789.947 366.378, 790.993 367, 791.404 367 C 793.022 367, 806.268 375.456, 807.340 377.173 C 807.968 378.178, 809.527 379, 810.806 379 C 813.780 379, 816.999 380.728, 819.173 383.493 C 820.956 385.759, 831.527 391.368, 836.187 392.521 C 839.353 393.304, 839.141 394.107, 841.561 372.108 C 843.446 354.978, 845.290 357.743, 824.951 347.206 C 809.997 339.460, 790.773 328.226, 784.500 323.568 C 782.850 322.343, 776.325 317.793, 770 313.458 C 742.025 294.284, 742.181 294.342, 737.741 301.370 M 318.500 309.041 C 309.330 314.002, 306.002 319.099, 305.994 328.200 C 305.991 331.665, 305.514 336.210, 304.934 338.299 C 302.644 346.545, 308.835 361.195, 314.339 360.552 C 326.130 359.176, 332.208 352.599, 335.053 338.136 C 336.662 329.958, 335.739 311.311, 333.621 309.193 C 331.082 306.653, 323.062 306.573, 318.500 309.041 M 345.229 334.002 C 341.610 336.208, 336 344.306, 336 347.324 C 336 348.387, 337.308 351.561, 338.906 354.378 C 340.504 357.195, 343.044 363.100, 344.551 367.500 C 348.249 378.302, 354.181 387.542, 358.995 389.998 L 362.764 391.920 368.105 387.086 C 375.096 380.759, 375.014 377.512, 367.158 349.319 C 362.458 332.455, 355.611 327.672, 345.229 334.002 M 557.685 346.981 C 545.705 350.731, 542.220 360.820, 549.621 370.320 C 551.748 373.049, 554.792 379.291, 557.108 385.674 C 561.161 396.838, 571.831 414.494, 575.165 415.552 C 578.568 416.633, 582.180 414.645, 586.542 409.289 C 591.875 402.742, 591.828 403.410, 587.650 393.470 C 584.547 386.088, 583.117 381.700, 578.496 365.383 C 574.474 351.180, 566.577 344.197, 557.685 346.981 M 480.742 352.946 C 475.737 355.484, 471.156 359.518, 468.807 363.457 C 468.426 364.095, 466.690 370.136, 464.950 376.881 C 458.997 399.946, 464.019 418.508, 475.176 414.672 C 483.993 411.641, 484.949 410.194, 492.808 388 C 504.010 356.362, 499.551 343.406, 480.742 352.946 M 520.195 356.108 C 507.489 362.470, 505.627 399.740, 517.797 404.093 C 520.491 405.056, 528.845 400.784, 530.911 397.387 C 539.244 383.685, 539.443 359.020, 531.247 355.904 C 526.201 353.985, 524.367 354.019, 520.195 356.108 M 709.132 370.010 C 703.180 382.303, 703.151 382.670, 708.314 380.513 C 716.154 377.238, 726.719 380.749, 752 395.034 C 765.945 402.913, 789 417.950, 789 419.166 C 789 419.625, 789.788 420.013, 790.750 420.028 C 791.712 420.043, 794.268 421.393, 796.428 423.028 C 798.589 424.663, 800.741 426, 801.210 426 C 801.680 426, 805.088 427.959, 808.782 430.354 C 820.047 437.654, 827.480 442, 828.702 442 C 830.369 442, 830.823 440.087, 832.522 425.904 L 833.192 420.308 816.346 411.733 C 807.081 407.017, 797.475 402.010, 795 400.607 C 792.525 399.203, 787.897 396.678, 784.716 394.996 C 779.670 392.327, 768.465 385.832, 764 382.987 C 763.175 382.462, 760.475 380.846, 758 379.396 C 755.525 377.947, 751.586 375.473, 749.247 373.899 C 746.907 372.324, 743.757 370.729, 742.247 370.353 C 740.736 369.978, 735.172 367.495, 729.883 364.837 C 714.564 357.138, 715.475 356.911, 709.132 370.010 M 272.907 378.324 C 261.237 384.477, 260.321 393.774, 270.302 404.750 C 276.809 411.904, 292 402.188, 292 390.872 C 292 377.629, 284.087 372.429, 272.907 378.324 M 312.146 401.085 C 301.353 406.478, 299.022 411.530, 303.856 419.054 C 310.297 429.083, 314.370 430.961, 322.400 427.606 C 333.657 422.903, 335.637 401.938, 325.101 399.011 C 319.836 397.549, 318.933 397.694, 312.146 401.085 M 694.117 405.750 C 692.879 408.913, 690.456 414.544, 688.733 418.264 C 684.978 426.371, 684.626 425.851, 698 431.959 C 715.413 439.911, 765.437 464.795, 770 467.774 C 772.475 469.390, 781.773 475.264, 790.662 480.827 C 799.551 486.389, 808.501 492.079, 810.551 493.470 C 815.621 496.910, 816.636 496.677, 817.401 491.895 C 817.762 489.637, 818.657 486.600, 819.390 485.145 C 823.801 476.387, 821.754 471.538, 811 465.264 C 808.525 463.821, 803.350 460.540, 799.500 457.975 C 795.650 455.410, 790.250 451.903, 787.500 450.182 C 784.750 448.462, 780.053 445.354, 777.063 443.277 C 774.073 441.200, 769.717 438.375, 767.383 437 C 765.049 435.625, 759.845 432.475, 755.820 430 C 751.794 427.525, 748.050 425.323, 747.500 425.107 C 746.950 424.891, 745.306 423.879, 743.846 422.857 C 742.386 421.836, 740.483 421, 739.617 421 C 738.752 421, 731.846 417.905, 724.272 414.122 C 716.697 410.339, 708.326 406.232, 705.669 404.994 C 703.013 403.756, 700.602 402.126, 700.312 401.372 C 699.075 398.146, 696.336 400.081, 694.117 405.750 M 364 427.709 C 350.425 431.705, 344.956 441.592, 350.998 451.213 C 357.995 462.355, 368.969 462.801, 375.973 452.228 C 380.865 444.841, 379.498 430.314, 373.744 428.552 C 371.223 427.779, 365.456 427.281, 364 427.709 M 562.970 435.538 C 555.557 437.820, 548.176 445.688, 549.706 449.678 C 557.169 469.130, 579.594 469.208, 580.787 449.785 C 581.561 437.187, 574.904 431.864, 562.970 435.538 M 459.198 439.130 C 447.256 443.744, 444.022 449.815, 448.944 458.378 C 455.868 470.426, 467.384 471.219, 474.640 460.147 C 478.039 454.960, 476.277 439.762, 472.142 438.608 C 466.857 437.132, 464.078 437.244, 459.198 439.130 M 517 438.647 C 506.509 442.264, 503.690 447.896, 507.993 456.637 C 516.005 472.911, 535.555 468.068, 535.924 449.718 C 536.148 438.573, 529.128 434.466, 517 438.647 M 276.417 439.812 C 268.529 442.416, 260.983 449.266, 261.010 453.797 C 261.028 456.774, 265.413 464.399, 267.787 465.582 C 269.046 466.209, 271.071 467.626, 272.287 468.731 C 273.504 469.836, 276.460 471.036, 278.855 471.399 C 281.250 471.761, 284.468 472.708, 286.005 473.503 C 287.543 474.298, 291.883 475.901, 295.651 477.065 C 299.418 478.230, 304.525 480.010, 307 481.023 C 309.475 482.035, 314.875 484.086, 319 485.580 C 332.169 490.349, 346.458 498.070, 356.325 505.749 C 358.621 507.537, 364.887 511.917, 370.250 515.484 C 375.613 519.050, 379.990 522.313, 379.978 522.734 C 379.965 523.155, 378.625 526.200, 377 529.500 C 375.375 532.800, 374.035 536.317, 374.022 537.316 C 374.010 538.314, 373.549 539.975, 372.997 541.005 C 371.773 543.293, 368.308 566.659, 367.067 581 C 365.133 603.337, 361.376 629.052, 359.498 632.796 C 356.940 637.899, 353 647.751, 353 649.044 C 353 650.900, 347.201 661.048, 344.453 664 C 336.044 673.035, 341.139 689.546, 352 688.455 C 352.825 688.372, 354.969 688.236, 356.765 688.152 C 359.210 688.038, 360.474 687.268, 361.801 685.086 C 364.976 679.866, 399.141 645, 401.082 645 C 402.098 645, 403.350 645.788, 403.864 646.750 C 405.705 650.198, 414.935 678.742, 415.610 683.077 C 417.212 693.351, 427.838 696.545, 436.582 689.380 C 439.343 687.117, 441 684.943, 441 683.583 C 441 682.386, 442.563 678.953, 444.474 675.954 C 446.385 672.954, 447.963 670.050, 447.981 669.500 C 447.998 668.950, 448.642 667.293, 449.412 665.817 C 450.182 664.342, 451.139 661.642, 451.539 659.817 C 452.336 656.181, 456.818 646.231, 457.982 645.511 C 458.750 645.036, 462.539 649.469, 469.932 659.492 C 472.369 662.796, 478.669 670.621, 483.932 676.879 C 493.761 688.568, 500.607 697.082, 505 703.076 C 512.745 713.644, 519.441 714.870, 528.568 707.390 C 535.030 702.096, 535.582 696.894, 530.482 689.378 C 527.348 684.761, 516 662.505, 516 660.977 C 516 660.331, 515.352 658.384, 514.559 656.651 C 513.767 654.918, 511.254 648.550, 508.975 642.500 C 506.695 636.450, 504.209 629.925, 503.449 628 C 502.689 626.075, 499.783 617.975, 496.992 610 C 491.560 594.479, 479.526 561.450, 477.500 556.500 C 468.919 535.538, 468.377 537.200, 485 533.475 C 498.576 530.433, 504.696 528.801, 515.500 525.343 C 529.758 520.779, 533.356 519.934, 542.402 519.023 C 549.452 518.314, 552.209 518.434, 555.649 519.602 C 561.631 521.633, 568.075 519.639, 569.357 515.360 C 569.828 513.787, 570.801 511.150, 571.518 509.500 C 574.479 502.686, 574.305 501.985, 568.119 495.799 L 562.320 490 554.410 490.084 C 550.060 490.131, 544.025 490.549, 541 491.013 C 537.975 491.477, 531.900 492.389, 527.500 493.041 C 523.100 493.692, 515.225 495.478, 510 497.009 C 504.775 498.540, 495.325 501.016, 489 502.510 C 482.675 504.005, 475.250 505.940, 472.500 506.811 C 469.750 507.682, 464.125 508.427, 460 508.467 C 455.875 508.507, 451.600 509.034, 450.500 509.638 C 449.400 510.242, 446.857 511.033, 444.848 511.395 C 438.161 512.601, 434.376 519.889, 437.366 525.800 C 438.118 527.285, 439.046 530.300, 439.430 532.500 C 440.155 536.664, 445.486 552.566, 448.481 559.500 C 449.431 561.700, 451.226 566.425, 452.469 570 C 453.713 573.575, 455.782 579.317, 457.068 582.761 C 459.952 590.482, 458.810 592.887, 453.255 590.790 C 448.838 589.123, 445.192 590.624, 441.906 595.462 C 439.314 599.279, 438.035 604.160, 434.627 623.239 C 433.303 630.652, 430.967 636, 429.054 636 C 427.692 636, 424.405 624.661, 421.516 610 C 419.955 602.078, 419.303 600.428, 416.605 597.575 C 415.447 596.351, 413.717 594.371, 412.760 593.175 C 410.234 590.018, 402.811 590.144, 398.522 593.415 C 392.785 597.791, 391.478 597.332, 391.645 591 C 392.040 575.980, 395.752 552.240, 400.089 537 C 404.649 520.976, 405.091 506.317, 401.237 498.940 C 398.061 492.860, 382.267 481.079, 366.500 473.028 C 362.100 470.782, 356.475 467.769, 354 466.332 C 346.257 461.839, 336.789 457.377, 329 454.551 C 324.875 453.054, 319.475 451.012, 317 450.014 C 300.671 443.425, 280.688 438.402, 276.417 439.812 M 197.277 454.022 C 187.876 458.608, 186.758 460.924, 189.639 469.846 C 190.873 473.665, 192.234 475.583, 195.139 477.596 C 197.263 479.068, 199 480.589, 199 480.977 C 199 481.365, 201.363 482.944, 204.250 484.487 C 210.622 487.892, 230.060 500.830, 239.070 507.664 C 252.785 518.067, 258.009 518.999, 264.889 512.272 C 273.488 503.863, 272.793 493.274, 263.206 486.636 C 260.715 484.911, 252.754 479.156, 245.515 473.847 C 214.644 451.207, 208.348 448.620, 197.277 454.022 M 170.217 498.803 C 168.723 499.617, 165.732 501.169, 163.572 502.252 C 158.709 504.687, 156.077 507.735, 156.033 510.981 C 155.979 515.057, 159.956 523.423, 162.588 524.767 C 163.914 525.445, 166.102 526.562, 167.449 527.250 C 168.795 527.937, 170.091 529.238, 170.327 530.141 C 170.601 531.191, 172.332 532.039, 175.128 532.493 C 177.533 532.884, 182.650 534.041, 186.500 535.066 C 190.350 536.090, 198.675 537.831, 205 538.934 C 211.325 540.037, 219.367 541.461, 222.870 542.098 C 234.007 544.123, 247 534.659, 247 524.524 C 247 513.581, 241.507 510.202, 216 505.458 C 211.325 504.588, 202.515 502.784, 196.423 501.448 C 179.009 497.630, 173.406 497.064, 170.217 498.803 M 684 511.606 C 666.486 513.646, 641.369 519.376, 635.455 522.681 C 624.038 529.062, 622.233 537.647, 630.603 545.750 C 635.950 550.927, 636.946 550.986, 652.706 547.066 C 674.518 541.640, 679.434 540.850, 696.728 539.996 C 706.203 539.528, 714.528 538.804, 715.228 538.386 C 727.734 530.925, 730.568 520.882, 722.625 512.169 C 720.213 509.524, 703.922 509.286, 684 511.606 M 285.250 534.119 C 283.462 534.635, 282 535.464, 282 535.961 C 282 536.458, 280.988 537.173, 279.750 537.549 C 270.541 540.346, 265.744 549.312, 265.188 564.767 C 264.930 571.960, 265.174 576.505, 265.864 577.336 C 266.459 578.053, 267.663 581.757, 268.540 585.569 C 271.182 597.053, 275.243 602.585, 284.562 607.399 L 289.625 610.013 296.562 608.357 C 300.378 607.446, 304.175 605.916, 305 604.958 C 305.825 604, 307.906 602.510, 309.624 601.648 C 312.883 600.011, 321 591.053, 321 589.092 C 321 588.471, 322.350 585.432, 324 582.340 C 328.944 573.076, 326.928 554.049, 320.324 547.648 C 319.105 546.467, 317.071 544.511, 315.804 543.302 C 306.333 534.266, 295.753 531.086, 285.250 534.119 M 562.500 552.882 C 555.264 555.502, 547.732 559.498, 545.989 561.642 C 534.262 576.062, 541.593 598.344, 562.570 612.038 C 571.128 617.624, 579.280 617.730, 590.076 612.394 C 621.983 596.626, 617.855 557.881, 583.891 554.331 C 579.898 553.914, 578 553.278, 578 552.358 C 578 550.355, 568.603 550.673, 562.500 552.882 M 223.500 563.647 C 206.156 570.793, 199.502 573.799, 189.245 579.121 C 172.922 587.590, 169 591.251, 169 598.018 C 169 601.818, 175.336 611, 177.958 611 C 178.531 611, 179 611.414, 179 611.921 C 179 613.161, 184.699 614.400, 188.923 614.078 C 193.860 613.701, 230.249 594.797, 236.785 589.213 C 243.051 583.859, 244.841 580.801, 244.518 576 C 243.965 567.765, 243.139 566.248, 237.736 563.556 C 231.590 560.493, 231.146 560.496, 223.500 563.647 M 652.942 567.930 C 642.918 571.043, 636.429 582.708, 641.470 588.552 C 642.868 590.174, 644.264 592.286, 644.573 593.248 C 644.881 594.209, 646.116 595.183, 647.317 595.412 C 648.517 595.641, 651.975 596.301, 655 596.879 C 658.025 597.456, 666.125 598.419, 673 599.017 C 689.306 600.438, 706.195 602.744, 709.502 604.001 C 713.120 605.376, 724.042 605.194, 726.602 603.715 C 731.454 600.912, 735.278 596.737, 736.214 593.220 C 739.881 579.444, 737.721 576.501, 722.500 574.538 C 719.750 574.183, 716.150 573.518, 714.500 573.061 C 711.612 572.261, 706.725 571.268, 695 569.099 C 687.858 567.778, 656.258 566.900, 652.942 567.930 M 633.675 617.220 C 629.733 618.265, 624.141 624.489, 622.158 630.038 C 620.025 636.009, 633.924 655.216, 651.999 671.276 C 655.575 674.453, 661.526 679.740, 665.225 683.026 C 673.917 690.748, 678.183 690.884, 685.400 683.667 C 694.566 674.501, 693.972 668.969, 682.479 656.448 C 677.605 651.140, 672.473 646.054, 671.074 645.148 C 667.968 643.136, 657.832 632.958, 654.223 628.226 C 649.836 622.474, 646.639 619.382, 643.287 617.649 C 639.728 615.808, 639.108 615.780, 633.675 617.220 M 245.446 624.518 C 237.730 628.446, 236.734 629.680, 228.710 645.256 C 224.562 653.307, 219.749 661.958, 218.013 664.481 C 212.763 672.112, 210.867 677.318, 211.621 682.034 C 212.332 686.475, 216.172 691, 219.231 691 C 220.195 691, 221.545 691.900, 222.232 693 C 225.059 697.527, 241 689.456, 241 683.497 C 241 683.147, 242.389 680.842, 244.086 678.375 C 247.549 673.341, 258.759 651.039, 261.496 643.736 C 267.264 628.350, 258.510 617.868, 245.446 624.518 M 578.685 638.981 C 567.700 642.419, 561.728 654.616, 566.452 663.965 C 567.156 665.359, 568.032 668.300, 568.397 670.500 C 570.203 681.380, 583.011 722.294, 586.827 729.375 C 590.687 736.537, 597.816 738.176, 602.518 732.980 C 603.503 731.891, 604.879 731, 605.573 731 C 614.094 731, 611.934 702.969, 600.922 670.639 C 599.824 667.415, 598.260 661.613, 597.447 657.746 C 594.119 641.928, 588.196 636.003, 578.685 638.981 M 293 645.700 C 280.945 650.061, 278.069 657.004, 283.979 667.480 C 293.236 683.888, 313.161 674.350, 310.472 654.798 C 309.310 646.347, 301.892 642.484, 293 645.700 M 538.810 649.332 C 528.761 655.513, 526.570 659.772, 529.990 666.481 C 535.703 677.685, 544.242 680.390, 551.941 673.434 C 565.630 661.067, 554.110 639.921, 538.810 649.332 M 313.667 704.841 C 297.523 712.568, 305.180 732.074, 326.500 737.535 C 339.195 740.787, 347.134 743.288, 358.771 747.705 C 377.388 754.770, 390.355 749.769, 391.776 734.975 C 392.803 724.291, 391.209 723.033, 366 714.640 C 324.752 700.905, 322.694 700.520, 313.667 704.841 M 464 727.814 C 462.075 727.995, 460.072 728.561, 459.550 729.071 C 459.028 729.582, 457.855 730, 456.944 730 C 453.942 730, 445.849 736.948, 446.492 738.974 C 446.809 739.974, 447.253 742.250, 447.479 744.033 C 447.705 745.816, 448.952 748.451, 450.251 749.887 C 451.551 751.324, 453.878 754.226, 455.423 756.335 C 460.543 763.325, 471.780 765.619, 503 766.047 C 510.975 766.156, 518.850 766.271, 520.500 766.303 C 528.614 766.459, 534.667 757.973, 534.253 747.023 C 533.800 735.036, 528.884 732.955, 499.521 732.322 C 481.598 731.936, 478.028 731.600, 475.021 730.016 C 470.825 727.806, 468.667 727.375, 464 727.814 M 266 731.589 C 256.468 736.969, 254.115 743.346, 258.482 751.964 C 267.772 770.298, 293.207 753.991, 284.370 735.367 C 281.087 728.448, 274.107 727.013, 266 731.589 M 666.037 739.125 C 655.115 742.414, 651.373 748.766, 655.302 757.348 C 664.495 777.428, 686.371 770.244, 683.391 748.125 C 682.224 739.462, 675.865 736.165, 666.037 739.125 M 308 758.121 C 302.104 760.465, 295.209 770.713, 296.383 775.388 C 301.278 794.894, 324 790.476, 324 770.019 C 324 758.947, 317.702 754.263, 308 758.121 M 617.305 761.644 C 606.633 765.425, 604.840 771.765, 611.647 781.649 C 624.132 799.777, 644.074 788.195, 638.094 766.289 C 636.415 760.139, 627.301 758.103, 617.305 761.644 M 568.593 778.525 C 557.496 783.800, 555.542 790.182, 561.940 800.252 C 569.376 811.958, 581.804 811.220, 587.335 798.743 C 593.909 783.914, 582.698 771.820, 568.593 778.525 M 360.264 790.558 C 349.259 797.154, 348.298 806.861, 357.672 816.750 C 360.341 819.565, 371.478 816.252, 374.416 811.769 C 384.070 797.035, 374.182 782.216, 360.264 790.558 M 405.527 790.647 C 400.292 793.553, 394.643 803.107, 395.492 807.617 C 395.687 808.653, 395.881 810.047, 395.923 810.715 C 396.515 820.116, 415.758 821.396, 419.907 812.311 C 422.864 805.836, 422.039 791.996, 418.617 790.683 C 414.505 789.105, 408.335 789.088, 405.527 790.647 M 517.500 791.371 C 506.256 796.660, 503.432 806.880, 510.805 815.603 C 514.196 819.615, 522.801 821.749, 524.500 819 C 524.840 818.450, 525.913 818, 526.885 818 C 531.060 818, 536 809.329, 536 802 C 536 790.169, 528.823 786.045, 517.500 791.371 M 464.636 798.449 C 463.060 799.302, 461.260 800.014, 460.636 800.031 C 455.557 800.172, 452.342 814.771, 456.161 820.346 C 465.436 833.883, 484.142 823.247, 481.385 806.004 C 480.119 798.086, 472.036 794.441, 464.636 798.449"/>
    </g>
  </g>
</svg>
