<svg viewBox="0 0 74 74" width="74mm" height="74mm" xmlns="http://www.w3.org/2000/svg">
  <g transform="scale(0.074000)" fill-rule="evenodd">
    <g id="forma" fill="#CB3747">
      <path d="M 857.278 86.549 C 851.637 89.360, 850.026 91.241, 841.781 104.635 C 836.313 113.517, 834.016 118.800, 832.491 126 C 832.083 127.925, 829.942 133.100, 827.734 137.500 C 825.525 141.900, 822.713 148.451, 821.484 152.058 C 820.255 155.665, 817.207 161.599, 814.710 165.246 C 811.642 169.728, 809.783 173.760, 808.973 177.688 C 806.996 187.275, 805.911 190.113, 800.827 198.988 C 798.153 203.657, 795.089 209.820, 794.017 212.684 C 790.607 221.798, 778.995 244.084, 773.041 252.942 C 769.877 257.649, 765.665 265.015, 763.681 269.312 C 761.250 274.576, 757.996 279.367, 753.703 284.003 C 748.706 289.401, 746.534 292.811, 743.627 299.824 C 739.033 310.909, 726.624 330.047, 717.579 340 C 711.567 346.615, 704 359.166, 704 362.523 C 704 367.604, 684.533 394.635, 671.578 407.541 C 638.973 440.023, 615.892 453.709, 581.500 460.951 C 573.800 462.573, 560.110 465.722, 551.077 467.949 C 520.118 475.583, 520.769 475.516, 478.500 475.354 C 425.929 475.152, 414.946 473.635, 395.500 463.887 C 371.021 451.616, 357.093 442.057, 334.894 422.293 C 329.824 417.779, 319.561 409.915, 312.088 404.818 C 286.063 387.068, 274.382 372.384, 243.119 318.125 C 216.443 271.827, 213.652 266.522, 201.093 238.243 C 170.349 169.015, 147.044 131.874, 131.298 127.010 C 94.341 115.595, 72.696 152.761, 72.483 228 C 72.413 252.890, 72.111 258.775, 70.549 265.658 C 68.703 273.799, 68.704 273.841, 70.980 285.121 C 73.213 296.186, 73.235 296.912, 72.023 319.462 C 69.598 364.590, 70.143 406.433, 73.346 421 C 76.875 437.054, 78.427 445.661, 81.498 466.199 C 82.871 475.383, 84.939 486.858, 86.093 491.699 C 87.863 499.119, 88.098 502.364, 87.597 512.385 C 87.032 523.680, 87.147 524.697, 89.914 532.885 C 91.515 537.623, 93.120 543.525, 93.481 546 C 97.061 570.572, 99.294 577.493, 106.848 587.435 C 110.313 591.995, 114.662 599.437, 117.074 604.935 C 146.971 673.067, 180.440 726.068, 213.227 757.201 C 222.667 766.166, 236.961 779.800, 244.990 787.500 C 299.625 839.892, 312.976 849.422, 358.500 868.516 C 367.300 872.207, 379.450 877.487, 385.500 880.249 C 427.026 899.208, 485.272 921.032, 503.915 924.619 C 514.665 926.687, 554.200 927.572, 571 926.120 C 604.205 923.250, 613.679 920.665, 648.781 904.894 C 662.376 898.785, 680.569 890.864, 689.210 887.291 C 713.220 877.361, 709.587 880.432, 781.878 808.952 C 809.826 781.318, 812.275 777.932, 836.464 733.500 C 841.854 723.600, 849.757 709.200, 854.027 701.500 C 879.224 656.059, 893.509 620.826, 898.922 590.764 C 900.038 584.569, 902.786 573.425, 905.029 566 C 907.271 558.575, 910.016 546.875, 911.127 540 C 912.238 533.125, 914.287 522.381, 915.680 516.125 C 918.870 501.794, 918.943 500.811, 919.964 458 C 920.639 429.715, 921.181 420.825, 922.632 414.256 C 924.405 406.232, 924.403 405.780, 922.549 397.256 C 919.477 383.131, 919.473 379.916, 922.519 370.350 C 925.714 360.317, 925.554 356.535, 921.507 346.439 C 919.045 340.295, 918.633 337.610, 917.912 323 C 917.376 312.131, 916.405 303.771, 915.066 298.504 C 913.949 294.107, 912.558 284.882, 911.976 278.004 C 911.394 271.127, 910.036 261.752, 908.959 257.171 C 907.664 251.664, 907 245.267, 907 238.290 C 907 229.220, 906.586 226.526, 904.051 219.119 C 898.122 201.793, 896.042 184.074, 898.461 171.500 C 900.711 159.804, 900.444 157.028, 896.081 146.741 C 893.926 141.658, 891.424 133.496, 890.521 128.601 C 888.960 120.138, 883.059 102.921, 879.046 95.121 C 876.533 90.236, 872.075 86.169, 867.931 84.980 C 863.249 83.637, 863.067 83.664, 857.278 86.549"/>
    </g>
    <g id="detalles" fill="#1A1A1A">
      <path d="M 843.750 85.516 C 842.237 86.367, 841 87.676, 841 88.425 C 841 89.174, 840.325 90.045, 839.500 90.362 C 835.060 92.065, 840.350 99.976, 844.952 98.515 C 846.230 98.110, 848.036 98.580, 849.751 99.765 C 851.263 100.810, 856.325 103.796, 861 106.401 C 870.499 111.693, 877.575 116.400, 882.117 120.446 C 885.419 123.389, 894.756 126.658, 896.051 125.326 C 899.279 122.003, 898.027 116.516, 892.756 110.887 C 887.429 105.199, 872.778 94.180, 867.425 91.836 C 865.816 91.132, 862.425 89.305, 859.889 87.778 C 854.139 84.313, 847.532 83.387, 843.750 85.516 M 826.500 107.663 C 824.429 108.089, 820 114.739, 820 117.422 C 820 119.268, 824.971 122, 828.328 122 C 829.663 122, 831.315 122.675, 832 123.500 C 832.685 124.325, 833.625 125, 834.089 125 C 834.918 125, 837.881 126.798, 863 142.550 C 869.875 146.861, 881.360 153.382, 888.522 157.043 C 895.683 160.703, 902.478 164.282, 903.621 164.995 C 908.298 167.916, 912.208 164.884, 913.451 157.371 C 914.091 153.505, 913.955 153.171, 911.317 152.123 C 909.768 151.506, 906.700 149.877, 904.500 148.501 C 902.300 147.125, 897.800 144.617, 894.500 142.927 C 891.200 141.238, 887.825 139.285, 887 138.587 C 886.175 137.890, 880.775 134.522, 875 131.103 C 869.225 127.684, 860.450 122.248, 855.500 119.022 C 839.715 108.736, 833.369 106.250, 826.500 107.663 M 108.519 118.250 C 109.271 120.311, 94.650 143.656, 85.379 155.197 C 82.421 158.880, 80 162.172, 80 162.514 C 80 162.855, 77.638 165.817, 74.750 169.097 C 67.403 177.441, 66.371 185, 72.579 185 C 73.820 185, 75.558 185.277, 76.441 185.616 C 80.591 187.208, 105.927 156.697, 117.454 136.225 C 123.401 125.662, 124.065 122.193, 120.872 118.345 C 119.371 116.537, 107.862 116.448, 108.519 118.250 M 140.296 130.505 C 139.114 131.333, 136.018 135.213, 133.416 139.126 C 130.814 143.040, 122.873 153.050, 115.769 161.371 C 108.665 169.692, 99.624 180.290, 95.677 184.922 C 91.729 189.554, 86.904 195.179, 84.953 197.422 C 72.451 211.798, 70.386 219.449, 78.344 221.911 L 83.187 223.409 89.844 216.444 C 99.002 206.861, 104.226 201.042, 106 198.448 C 106.825 197.241, 109.589 193.835, 112.143 190.877 C 114.697 187.920, 119.645 182.125, 123.139 178 C 126.634 173.875, 129.980 170.050, 130.576 169.500 C 138.053 162.596, 153 140.389, 153 136.183 C 153 130.370, 145.362 126.957, 140.296 130.505 M 817.374 134.784 C 810.282 135.859, 807.811 146.977, 814.418 148.084 C 816.573 148.445, 818.873 149.473, 819.529 150.370 C 820.184 151.266, 821.252 152, 821.902 152 C 823.490 152, 835.472 157.642, 840.132 160.583 C 855.767 170.453, 862.460 173.175, 863.290 170 C 863.577 168.900, 864.353 168, 865.013 168 C 865.765 168, 865.944 168.655, 865.494 169.750 C 863.674 174.169, 863.823 174.743, 867.078 175.877 C 868.862 176.499, 871.795 178.131, 873.594 179.504 C 875.394 180.877, 877.152 182, 877.500 182 C 877.848 182, 879.608 183.125, 881.411 184.500 C 886.897 188.684, 890.223 187.950, 893.384 181.858 C 897.103 174.690, 896.329 173.990, 865.203 156.347 C 836.480 140.065, 822.906 133.946, 817.374 134.784 M 799.980 161.510 C 793.732 164.855, 794.795 175.352, 801.408 175.602 C 802.946 175.660, 804.750 176.626, 805.609 177.852 C 806.436 179.033, 808.031 180, 809.152 180 C 810.274 180, 812.386 180.843, 813.846 181.873 C 815.306 182.904, 819.200 185.164, 822.500 186.896 C 825.800 188.629, 830.075 190.970, 832 192.099 C 833.925 193.228, 843.531 198.730, 853.347 204.326 C 863.163 209.922, 873.738 215.980, 876.847 217.789 C 884.900 222.475, 903.694 231.610, 909 233.419 C 913.360 234.905, 913.554 234.884, 915.253 232.726 C 921.154 225.234, 920.627 222.918, 912.039 218.586 C 909.542 217.327, 905.092 215.082, 902.150 213.597 C 899.207 212.113, 894.932 209.704, 892.650 208.245 C 890.367 206.785, 887.150 204.864, 885.500 203.976 C 883.850 203.088, 880.700 201.320, 878.500 200.049 C 876.300 198.777, 870.675 195.585, 866 192.955 C 840.991 178.887, 834.137 174.875, 830.500 172.177 C 819.712 164.175, 804.764 158.951, 799.980 161.510 M 148.571 170.250 C 146.542 172.588, 143.047 176.750, 140.805 179.500 C 138.562 182.250, 129.215 192.375, 120.032 202 C 110.850 211.625, 100.482 222.650, 96.992 226.500 C 93.502 230.350, 86.889 237.354, 82.297 242.065 C 77.705 246.776, 73.199 251.726, 72.284 253.065 C 71.369 254.404, 70.031 255.860, 69.310 256.300 C 68.590 256.740, 68 257.697, 68 258.427 C 68 259.158, 67.341 260.302, 66.536 260.971 C 61.590 265.075, 56.420 276.048, 58.022 279.041 C 59.462 281.732, 67.015 284.441, 68.518 282.805 C 69.178 282.087, 73.263 277.225, 77.594 272 C 81.925 266.775, 85.980 262.050, 86.605 261.500 C 87.229 260.950, 95.306 252.400, 104.553 242.500 C 113.799 232.600, 127.336 218.200, 134.635 210.500 C 149.098 195.240, 158.109 184.398, 160.481 179.400 C 165.845 168.096, 156.603 160.996, 148.571 170.250 M 792.465 195.952 C 784.625 199.130, 786.363 208.603, 795.140 210.531 C 798.332 211.232, 801.415 212.804, 827.500 227.035 C 836.300 231.836, 848.900 238.593, 855.500 242.050 C 862.100 245.507, 870.578 250.060, 874.340 252.168 C 878.101 254.276, 881.434 256, 881.746 256 C 882.810 256, 904.493 268.258, 906.500 269.994 C 911.960 274.716, 918.063 272.933, 919.912 266.077 L 921.146 261.500 916.823 257.726 C 914.445 255.650, 911.487 253.689, 910.250 253.367 C 909.013 253.046, 908 252.434, 908 252.008 C 908 251.582, 907.212 250.983, 906.250 250.677 C 905.288 250.371, 901.125 248.261, 897 245.989 C 890.148 242.215, 883.167 238.461, 863.500 227.973 C 859.650 225.920, 851.550 221.646, 845.500 218.476 C 839.450 215.306, 833.375 211.966, 832 211.054 C 830.625 210.142, 823.875 206.545, 817 203.062 C 810.125 199.579, 804.072 196.340, 803.550 195.865 C 802.367 194.788, 795.198 194.844, 792.465 195.952 M 179.500 206.991 C 177.468 207.815, 165.308 219.996, 156.528 230 C 153.874 233.025, 145.972 241.575, 138.968 249 C 127.332 261.336, 123.160 265.991, 117.497 272.955 C 116.398 274.305, 112.782 278.355, 109.460 281.955 C 106.138 285.555, 101.658 290.750, 99.505 293.500 C 96.135 297.803, 78.526 317.561, 75.446 320.496 C 68.976 326.658, 62.845 339, 66.253 339 C 67.079 339, 68.315 339.675, 69 340.500 C 73.624 346.072, 82.977 338.478, 109 308.025 C 129.882 283.588, 146.269 265.125, 160.058 250.500 C 169.447 240.540, 185.343 222.733, 188.265 218.899 C 193.798 211.641, 187.874 203.593, 179.500 206.991 M 777.060 229.787 C 774.272 232.574, 773.990 233.796, 774.886 239.186 C 774.949 239.563, 777.769 241.279, 781.152 242.998 C 786.508 245.719, 793.561 249.958, 807 258.532 C 808.925 259.760, 813.650 262.470, 817.500 264.554 C 821.350 266.639, 825.625 269.112, 827 270.051 C 835.153 275.617, 873.449 296.981, 899 310.218 C 907.525 314.634, 915.245 318.898, 916.156 319.694 C 918.212 321.490, 924.016 321.039, 925.086 319 C 930.805 308.105, 931.455 308.885, 905.500 295.475 C 897.800 291.497, 885.650 284.968, 878.500 280.967 C 871.350 276.967, 862.125 271.819, 858 269.528 C 846.069 262.902, 819.036 246.693, 809.885 240.679 C 805.273 237.647, 800.150 234.583, 798.500 233.869 C 796.850 233.155, 793.910 231.598, 791.967 230.410 C 785.637 226.538, 780.522 226.324, 777.060 229.787 M 189.236 247.407 C 178.364 255.096, 154.590 278.850, 138.582 298.019 C 134.227 303.233, 130.170 307.950, 129.566 308.500 C 128.963 309.050, 126.937 311.525, 125.064 314 C 123.191 316.475, 119.789 320.352, 117.505 322.616 C 113.091 326.991, 105.978 334.578, 89 353.021 C 83.225 359.294, 75.688 367.303, 72.250 370.818 C 68.813 374.333, 66 377.533, 66 377.930 C 66 378.327, 64.875 379.708, 63.500 381 C 56.146 387.909, 68.381 394.592, 77.023 388.386 C 82.435 384.501, 104.280 361.555, 125.945 337 C 131.041 331.225, 137.750 323.793, 140.855 320.485 C 143.960 317.176, 148.975 311.587, 152 308.065 C 155.025 304.543, 161.550 297.214, 166.500 291.780 C 171.450 286.346, 177.300 279.698, 179.500 277.008 C 181.700 274.317, 183.760 272.090, 184.078 272.058 C 184.395 272.026, 187.770 268.925, 191.578 265.166 C 195.385 261.407, 199.588 257.600, 200.917 256.705 C 203.875 254.713, 204.168 249.948, 201.512 247.013 C 199.030 244.271, 193.415 244.451, 189.236 247.407 M 760.500 253.158 C 754.616 256.680, 754.264 262.873, 759.750 266.345 C 763.706 268.849, 794.615 287.192, 808.980 295.560 C 813.643 298.277, 818.368 301.045, 819.480 301.711 C 820.591 302.377, 822.175 303.236, 823 303.621 C 823.825 304.005, 829.675 307.345, 836 311.043 C 842.325 314.742, 849.075 318.656, 851 319.742 C 882.864 337.724, 925 364.031, 925 365.943 C 925 366.805, 930.319 369, 932.407 369 C 933.853 369, 939 360.462, 939 358.063 C 939 355.970, 933.612 350.882, 928.737 348.370 C 926.956 347.453, 924.912 345.869, 924.193 344.851 C 923.475 343.833, 922.423 343, 921.857 343 C 921.290 343, 918.953 341.729, 916.663 340.176 C 906.844 333.517, 899.112 328.809, 884.500 320.590 C 883.400 319.972, 881.375 318.763, 880 317.904 C 876.244 315.559, 854.901 303.073, 843 296.259 C 816.485 281.077, 792.999 267.303, 787.679 263.816 C 784.478 261.717, 781.495 260, 781.052 260 C 780.608 260, 779.703 259.348, 779.042 258.550 C 775.626 254.434, 764.010 251.056, 760.500 253.158 M 186.468 300.250 C 160.249 326.621, 133.670 354.291, 111.500 378.298 C 107.100 383.062, 95.837 394.731, 86.470 404.230 C 68.092 422.867, 65.039 427.286, 68.809 429.789 C 70.014 430.589, 71 431.864, 71 432.622 C 71 433.595, 72.365 434, 75.640 434 L 80.281 434 98.428 415.750 C 116.797 397.277, 130.659 382.840, 141.393 371 C 150.673 360.764, 179.536 330.643, 202.692 307.028 C 230.479 278.692, 231.774 276.757, 225.777 272.557 C 218.957 267.780, 218.271 268.263, 186.468 300.250 M 738.738 281.925 C 734.792 285.389, 734.703 290.522, 738.555 292.490 C 739.642 293.045, 742.099 294.626, 744.016 296.003 C 745.932 297.379, 748.258 298.954, 749.185 299.503 C 750.112 300.051, 756.187 304.560, 762.685 309.523 C 776.884 320.366, 787.435 327.318, 807.663 339.161 C 809.223 340.075, 814.868 343.450, 820.207 346.661 C 825.546 349.872, 832.971 354.211, 836.707 356.301 C 840.443 358.392, 849.350 363.514, 856.500 367.682 C 863.650 371.851, 873.677 377.654, 878.782 380.577 C 888.251 385.998, 905.148 397.092, 914.817 404.234 C 919.268 407.522, 920.114 408.625, 919.729 410.639 C 919.031 414.291, 925.813 416.675, 929.765 414.166 C 931.731 412.918, 935 405.876, 935 402.888 C 935 399.133, 907.852 377.454, 899.133 374.247 C 898.235 373.916, 897.275 373.388, 897 373.073 C 896.725 372.758, 895.375 371.854, 894 371.064 C 892.625 370.275, 882.950 364.598, 872.500 358.450 C 862.050 352.301, 850.575 345.630, 847 343.625 C 843.425 341.620, 836.573 337.622, 831.773 334.740 C 826.973 331.858, 819.323 327.299, 814.773 324.608 C 795.974 313.492, 773.717 298.065, 763 288.721 C 752.197 279.303, 744.257 277.079, 738.738 281.925 M 727.509 315.250 C 723.011 319.139, 723.253 323.663, 728.188 327.926 C 738.005 336.405, 752.794 347.311, 769.536 358.417 C 779.416 364.971, 790.724 372.509, 794.663 375.167 C 798.603 377.825, 802.092 380, 802.417 380 C 802.741 380, 810.001 384.500, 818.549 390 C 827.097 395.500, 834.295 400, 834.543 400 C 834.792 400, 837.134 401.521, 839.748 403.379 C 842.361 405.238, 848.775 409.138, 854 412.045 C 890.710 432.470, 909.733 445.793, 912.672 453.137 C 916.832 463.534, 930.257 455.539, 927.009 444.599 C 925.215 438.557, 913.302 428.392, 894.305 416.693 C 884.108 410.414, 863.001 398, 862.522 398 C 862.315 398, 858.401 395.685, 853.823 392.856 C 849.246 390.027, 842.800 386.122, 839.500 384.177 C 823.381 374.678, 774.098 342.271, 759.498 331.569 C 749.883 324.522, 743.238 319.388, 739.747 316.309 C 735.268 312.360, 731.254 312.012, 727.509 315.250 M 233.365 318.272 C 231.736 319.497, 227.777 323.425, 224.569 327 C 221.361 330.575, 215.533 336.598, 211.618 340.383 C 207.703 344.169, 192.315 359.244, 177.423 373.883 C 149.360 401.468, 135.355 414.961, 120.934 428.304 C 106.448 441.708, 86.041 462.229, 82.234 467.220 C 80.229 469.849, 78.231 472, 77.795 472 C 77.358 472, 77 472.660, 77 473.466 C 77 474.272, 76.240 476.526, 75.311 478.474 L 73.622 482.015 77.007 485.508 C 82.162 490.826, 83.584 490.289, 93.600 479.250 C 105.190 466.476, 125.192 446.900, 147.362 426.631 C 163.880 411.530, 238.921 335.679, 242.368 330.599 C 248.446 321.643, 241.511 312.148, 233.365 318.272 M 702.894 340.077 C 696.365 342.566, 697.836 355, 704.660 355 C 705.238 355, 712.413 359.764, 720.605 365.587 C 728.797 371.410, 737.975 377.497, 741 379.113 C 744.025 380.729, 747.734 382.827, 749.242 383.776 C 767.929 395.528, 776.400 401.034, 781 404.418 C 786.248 408.279, 796.945 415.630, 805.131 421 C 807.227 422.375, 814.153 427.100, 820.523 431.500 C 826.893 435.900, 834.533 441.075, 837.502 443 C 843.395 446.821, 855.741 455.074, 860.500 458.374 C 862.150 459.518, 868.675 463.882, 875 468.072 C 894.520 481.001, 908 493.190, 908 497.913 C 908 503.131, 920.729 511.179, 924.348 508.249 C 932.107 501.966, 931.947 502.421, 927.962 497.958 C 926.292 496.087, 924.331 493.418, 923.605 492.028 C 915.205 475.933, 912.900 473.847, 876.949 449.800 C 865.152 441.909, 854.150 434.515, 852.500 433.368 C 850.850 432.221, 842.525 426.641, 834 420.968 C 825.475 415.294, 816.362 409.156, 813.750 407.326 C 811.138 405.497, 806.638 402.341, 803.750 400.314 C 792.135 392.159, 771.009 378, 770.456 378 C 770.132 378, 768.392 376.875, 766.589 375.500 C 764.786 374.125, 763.062 373, 762.758 373 C 762.132 373, 752.223 367.039, 741.618 360.283 C 737.703 357.789, 732.250 353.854, 729.500 351.538 C 722.901 345.983, 714.093 340, 712.513 340 C 711.818 340, 709.956 339.794, 708.375 339.542 C 706.794 339.290, 704.328 339.531, 702.894 340.077 M 263.500 356.653 C 261.850 357.519, 258.700 359.905, 256.500 361.956 C 254.300 364.008, 250.025 367.685, 247 370.128 C 243.975 372.571, 240.375 375.544, 239 376.734 C 237.625 377.924, 231.775 382.815, 226 387.603 C 220.225 392.390, 212.347 399.276, 208.494 402.904 C 198.917 411.922, 186.786 422.759, 172.500 435.059 C 165.900 440.741, 160.275 445.650, 160 445.967 C 159.306 446.766, 133.003 469.388, 125.583 475.566 C 122.237 478.352, 114.762 485.102, 108.972 490.566 C 103.182 496.030, 95.455 503.235, 91.801 506.577 C 83.321 514.333, 75.020 524.017, 75.009 526.167 C 75.004 527.083, 74.438 528.039, 73.750 528.291 C 72.165 528.871, 76.106 532.773, 80.837 535.309 C 84.537 537.292, 86.038 536.568, 91.253 530.283 C 93.470 527.612, 125.478 498.066, 136 488.978 C 140.125 485.415, 143.725 482.268, 144 481.985 C 144.275 481.701, 149 477.552, 154.500 472.764 C 160 467.975, 165.536 463.137, 166.803 462.011 C 168.069 460.886, 173.694 455.974, 179.303 451.097 C 184.911 446.219, 190.625 440.991, 192 439.479 C 193.375 437.966, 196.300 435.408, 198.500 433.793 C 200.700 432.178, 204.525 428.953, 207 426.627 C 209.475 424.300, 215.987 418.370, 221.471 413.448 C 226.956 408.527, 232.162 403.825, 233.040 403 C 235.683 400.517, 247.103 390.602, 253.500 385.235 C 277.910 364.757, 278.910 363.491, 275.001 358.002 C 272.531 354.533, 268.454 354.055, 263.500 356.653 M 690.029 382.750 C 686.958 385.563, 686.908 392.803, 689.953 393.818 C 690.535 394.012, 693.776 396.270, 697.156 398.835 C 700.535 401.401, 704.695 404.492, 706.400 405.704 C 708.105 406.917, 709.950 408.284, 710.500 408.742 C 713.064 410.879, 729.366 422.073, 737 426.939 C 741.675 429.919, 748.425 434.244, 752 436.550 C 755.575 438.856, 764.125 444.278, 771 448.599 C 781.804 455.390, 791.444 461.737, 801.812 468.885 C 803.290 469.904, 809.225 473.788, 815 477.515 C 850.876 500.669, 868.532 512.319, 871.650 514.896 C 873.382 516.328, 877.571 519.525, 880.957 522 C 886.582 526.111, 892 531.797, 892 533.589 C 892 535.607, 897.767 541.444, 901.384 543.087 C 905.578 544.992, 917 545.771, 917 544.153 C 917 543.687, 917.900 542.268, 919 541 C 922.370 537.115, 921.565 535.482, 914.636 532.140 C 909.643 529.732, 907.997 528.363, 906.998 525.785 C 904.568 519.517, 891.275 507.950, 872 495.332 C 868.425 492.991, 865.040 490.722, 864.478 490.288 C 862.849 489.032, 850.137 480.747, 842.500 475.963 C 838.650 473.552, 824.250 464.180, 810.500 455.138 C 785.417 438.642, 782.134 436.516, 767.693 427.419 C 739.480 409.645, 722.070 397.613, 712 388.928 C 700.147 378.706, 695.784 377.479, 690.029 382.750 M 293.500 392.009 C 291.300 393.627, 287.925 396.034, 286 397.357 C 284.075 398.681, 281.483 400.604, 280.240 401.632 C 278.997 402.659, 274.325 405.975, 269.859 409 C 254.775 419.217, 179.299 475.904, 173.995 481 C 173.137 481.825, 169.802 484.525, 166.584 487 C 163.366 489.475, 159.286 492.625, 157.516 494 C 155.746 495.375, 148.044 501.243, 140.399 507.041 C 132.755 512.838, 121.550 521.374, 115.500 526.009 C 109.450 530.643, 101.800 536.504, 98.500 539.032 C 84.167 550.014, 80.413 554.794, 82.648 559.220 C 85.630 565.129, 93.514 565.854, 99.282 560.750 C 105.827 554.958, 123.217 541.102, 135 532.290 C 149.391 521.529, 152.272 519.303, 163.848 510.007 C 168.989 505.878, 175.101 501.150, 177.430 499.500 C 179.760 497.850, 184.328 494.363, 187.583 491.751 C 210.023 473.742, 226.283 460.926, 231 457.531 C 234.025 455.353, 238.075 452.327, 240 450.805 C 243.219 448.261, 259.181 435.965, 261.500 434.242 C 262.050 433.834, 266.100 430.829, 270.500 427.565 C 274.900 424.301, 280.075 420.443, 282 418.992 C 283.925 417.540, 289.550 413.310, 294.500 409.592 C 308.788 398.858, 310.450 395.307, 303.114 391.184 C 298.265 388.459, 298.334 388.453, 293.500 392.009 M 674 412.706 C 663.488 416.549, 667.261 424.147, 685.319 435.500 C 687.068 436.600, 690.525 439.004, 693 440.841 C 695.475 442.679, 699.075 445.054, 701 446.120 C 702.925 447.185, 705.699 448.831, 707.165 449.778 C 708.630 450.725, 716.505 455.543, 724.665 460.486 C 732.824 465.428, 739.950 469.849, 740.500 470.311 C 741.577 471.215, 745.475 473.533, 756.500 479.825 C 760.350 482.022, 766.650 485.854, 770.500 488.340 C 774.350 490.826, 780.650 494.858, 784.500 497.300 C 788.350 499.742, 794.875 503.936, 799 506.620 C 803.125 509.304, 806.974 511.725, 807.553 512 C 813.344 514.749, 822.940 521.714, 822.504 522.851 C 822.148 523.778, 822.487 524.027, 823.552 523.618 C 824.524 523.245, 828.389 525.211, 833.656 528.757 C 861.619 547.584, 873.861 557.957, 881.337 569.159 C 889.114 580.813, 894.995 584.122, 901.732 580.639 C 908.232 577.277, 909.136 573.357, 904.201 569.930 C 902.165 568.516, 899.152 565.366, 897.505 562.930 C 885.484 545.150, 872.728 534.595, 828 505.417 C 823.875 502.726, 819.600 500.026, 818.500 499.417 C 813.949 496.897, 809.092 493.912, 790.763 482.372 C 772.549 470.904, 759.378 462.813, 755.056 460.439 C 753.994 459.855, 749.384 457.031, 744.812 454.162 C 740.241 451.293, 730.461 445.374, 723.081 441.008 C 715.700 436.642, 709.400 432.702, 709.081 432.252 C 708.761 431.802, 705.125 429.461, 701 427.049 C 696.875 424.637, 690.416 420.264, 686.648 417.332 C 680.220 412.330, 677.625 411.381, 674 412.706 M 332 422.717 C 329.773 423.547, 310.673 432.626, 301.500 437.215 C 294.055 440.939, 283.736 446.821, 268 456.310 C 264.425 458.466, 260.207 460.966, 258.627 461.865 C 255.222 463.803, 226.206 483.094, 203 498.849 C 193.925 505.010, 186.612 510.489, 186.750 511.025 C 186.887 511.561, 186.134 512, 185.077 512 C 184.019 512, 181.001 513.643, 178.370 515.651 C 174.081 518.925, 164.544 525.087, 150.666 533.552 C 148.008 535.173, 142.608 538.558, 138.666 541.072 C 134.725 543.587, 129.394 546.962, 126.820 548.572 C 110.879 558.545, 105.705 561.945, 99 566.853 C 82.785 578.724, 80.833 581.489, 85.194 586.415 C 89.680 591.482, 99.307 590.150, 104.028 583.810 C 104.318 583.420, 113.768 577.017, 125.028 569.581 C 136.287 562.144, 146.850 555.133, 148.500 553.999 C 150.150 552.865, 160.275 546.105, 171 538.975 C 181.725 531.846, 192.300 524.743, 194.500 523.192 C 196.700 521.641, 202.325 517.741, 207 514.526 C 232.186 497.205, 237.006 493.800, 237.523 492.963 C 237.835 492.458, 243.358 488.598, 249.795 484.384 C 256.233 480.171, 263.975 475.017, 267 472.930 C 275.746 466.898, 303.784 449.987, 307.822 448.309 C 324.950 441.191, 338.077 433.840, 340.678 429.910 L 343.394 425.806 340.947 423.925 C 338.551 422.084, 334.990 421.603, 332 422.717 M 619.666 484.968 C 618.527 487.252, 618.312 490.237, 618.735 497.917 C 619.081 504.194, 618.873 508.937, 618.174 510.699 C 613.649 522.108, 623.283 530.562, 629.453 520.597 C 635.101 511.475, 631.885 481.188, 625.528 483.628 C 624.799 483.907, 623.905 483.656, 623.542 483.068 C 622.430 481.268, 621.215 481.864, 619.666 484.968 M 651.619 486.290 C 650.061 487.848, 649.126 490.285, 648.697 493.907 C 648.351 496.836, 646.814 502.770, 645.283 507.093 L 642.500 514.953 645.137 517.591 C 650.120 522.575, 655.044 519.581, 659.267 509 C 665.874 492.447, 660.731 477.178, 651.619 486.290 M 501.500 491.607 C 497.095 493.967, 496 495.847, 496 501.047 C 496 507.205, 501.583 515.182, 505.229 514.233 C 509.817 513.038, 516.509 508.361, 516.188 506.574 C 516.016 505.620, 516.627 503.692, 517.545 502.290 C 521.169 496.760, 508.110 488.065, 501.500 491.607 M 687.610 494.476 C 686.313 495.875, 684.973 498.764, 684.632 500.897 C 683.877 505.620, 679.925 514.368, 677.210 517.327 C 671.153 523.928, 675.727 532.359, 683.455 528.839 C 689.158 526.240, 698 510.287, 698 502.597 C 698 495.036, 691.673 490.091, 687.610 494.476 M 354.620 494.288 C 352.924 495.528, 351.821 500.734, 350.337 514.500 C 348.932 527.543, 361.956 528.272, 364.096 515.270 C 366.962 497.855, 362.687 488.390, 354.620 494.288 M 465.230 495.599 C 459.347 500.235, 457.963 504.806, 460.189 512.238 C 462.705 520.635, 475.933 517.061, 481.272 506.542 C 482.959 503.220, 481.284 499, 478.278 499 C 477.407 499, 477.011 498.415, 477.326 497.594 C 479.049 493.103, 470.241 491.650, 465.230 495.599 M 422.382 494.982 C 416.511 497.354, 414.709 508.024, 419.507 512.006 C 420.328 512.687, 421.010 513.977, 421.022 514.872 C 421.068 518.208, 424.355 520.750, 429.286 521.264 C 443.546 522.749, 450.790 498.813, 437.221 495.044 C 432.799 493.816, 425.345 493.785, 422.382 494.982 M 313.642 498.250 C 312.795 500.270, 312.605 502.137, 313.140 503.184 C 313.613 504.111, 314 510.246, 314 516.819 C 314 529.878, 315.022 532, 321.310 532 C 329.636 532, 330.162 500.501, 321.907 496.265 C 317.652 494.081, 315.138 494.685, 313.642 498.250 M 582.655 496.829 C 580.397 499.324, 580.572 501.739, 583.446 507.696 C 584.791 510.485, 586.661 515.951, 587.600 519.844 C 589.751 528.754, 592.971 532.356, 597.903 531.369 C 605.339 529.882, 603.449 514.644, 594.311 502.406 C 593.040 500.704, 592 498.780, 592 498.131 C 592 496.951, 588.006 495, 585.590 495 C 584.886 495, 583.565 495.823, 582.655 496.829 M 271.900 503.750 C 270.903 506.359, 273.225 516.672, 277.176 527.178 C 281.030 537.428, 292.972 531.970, 290.173 521.238 C 288.441 514.596, 282.373 502.357, 280.445 501.617 C 276.450 500.084, 272.968 500.953, 271.900 503.750 M 382.250 503.915 C 381.012 504.963, 380 506.519, 380 507.373 C 380 508.227, 379.100 511.209, 378 514 C 374.200 523.641, 375.814 528.899, 382.595 528.968 C 388.151 529.025, 391.882 521.441, 392.279 509.283 L 392.500 502.500 388.500 502.255 C 385.748 502.087, 383.798 502.605, 382.250 503.915 M 550.637 504.506 C 547.359 507.784, 547.769 509.739, 554.670 523.730 C 562.976 540.567, 564.163 541.706, 570.434 538.848 C 576.388 536.135, 573.517 525.766, 563.320 513.158 C 560.944 510.220, 559 507.172, 559 506.384 C 559 505.595, 557.846 504.512, 556.435 503.975 C 553.024 502.678, 552.408 502.735, 550.637 504.506 M 239.839 511.715 C 236.632 515.445, 236.846 517.068, 241.908 527.393 C 247.450 538.695, 250.031 542, 253.316 542 C 256.569 542, 260 539.239, 260 536.621 C 260 531.157, 248.227 511, 245.036 511 C 244.556 511, 243.536 510.759, 242.769 510.465 C 242.002 510.170, 240.683 510.733, 239.839 511.715 M 724.376 514.078 C 722.108 515.116, 719.463 517.211, 718.497 518.733 C 717.531 520.255, 715.722 522.625, 714.476 524 C 706.682 532.602, 714.580 542.520, 723.035 534.749 C 726.623 531.452, 727.281 530.602, 733.502 521.231 C 738.306 513.993, 738.410 514.252, 730 512.502 C 729.175 512.330, 726.644 513.039, 724.376 514.078 M 211.655 526.829 C 209.043 529.715, 209.636 531.649, 215.327 538.803 C 218.257 542.487, 221.451 546.725, 222.424 548.223 C 225.712 553.280, 236.053 552.790, 235.965 547.581 C 235.881 542.689, 223.293 527.453, 218.154 526.026 C 213.429 524.714, 213.587 524.694, 211.655 526.829 M 321.196 535.038 C 295.400 537.745, 253.175 552.903, 230.183 567.711 L 221.320 573.419 220.023 579.262 C 218.747 585.013, 218.769 585.149, 221.363 587.857 C 222.814 589.371, 224 591.301, 224 592.146 C 224 593.077, 225.600 594.163, 228.053 594.898 C 230.282 595.566, 232.355 596.762, 232.660 597.556 C 233.494 599.730, 238.483 599.302, 244.312 596.556 C 251.517 593.162, 271.128 585, 272.078 585 C 272.509 585, 272.610 589.837, 272.303 595.750 C 270.989 621.084, 283.694 638.980, 308.715 647.041 C 310.797 647.712, 312.950 648.593, 313.500 649 C 317.001 651.588, 333.034 651.861, 336.802 649.397 C 351.263 639.938, 355.540 629.513, 355.427 604 C 355.349 586.521, 353.953 579.584, 348.833 571.250 C 346.427 567.334, 346.814 567.251, 356.876 569.540 C 361.886 570.680, 365.187 572.236, 369.573 575.529 C 382.577 585.292, 394.996 577.160, 393.746 559.698 C 393.047 549.928, 386.819 544.333, 368.500 537.019 C 360.877 533.975, 339.753 533.091, 321.196 535.038 M 486 538.218 C 479.282 541.127, 475.579 543.298, 473.993 545.257 L 472.251 547.408 468.757 543.704 C 458.735 533.078, 444.570 542.584, 437.514 564.671 C 430.362 587.062, 422.380 617.220, 420.490 629 C 419.652 634.225, 418.536 640.975, 418.011 644 C 417.486 647.025, 416.839 651.750, 416.574 654.500 C 414.825 672.648, 414.009 682.919, 413.514 693 C 413.204 699.325, 412.735 706.075, 412.472 708 C 410.730 720.753, 411.472 734.747, 414 736.826 C 416.815 739.141, 428.351 745, 430.095 745 C 432.214 745, 441 737.841, 441 736.114 C 441 732.173, 460.863 695, 462.969 695 C 464.369 695, 465.620 697.356, 468.283 705.011 C 469.720 709.142, 473.170 717.146, 475.948 722.797 C 478.727 728.447, 481 733.727, 481 734.530 C 481 736.689, 493.131 748.164, 494.754 747.541 C 495.509 747.251, 497.452 747.700, 499.072 748.537 C 502.305 750.209, 504.191 749.656, 507.416 746.093 C 508.458 744.942, 509.907 744, 510.636 744 C 511.365 744, 512.223 742.763, 512.541 741.250 C 512.860 739.737, 513.465 737.825, 513.887 737 C 514.642 735.521, 513.656 707.987, 512.517 698.750 C 511.753 692.551, 512.622 692.750, 519.089 700.250 C 536.404 720.331, 564.191 744.937, 569.659 745.032 C 570.671 745.049, 572.357 745.712, 573.404 746.504 C 575.207 747.870, 583.494 743.422, 586.125 739.677 C 591.382 732.193, 585.030 712.705, 569.717 689.331 C 566.175 683.924, 561.580 676.125, 559.506 672 C 557.433 667.875, 554.526 662.700, 553.047 660.500 C 551.567 658.300, 548.636 653.125, 546.533 649 C 544.430 644.875, 540.928 638.125, 538.751 634 C 530.955 619.226, 529.043 615.341, 523.985 604 C 521.164 597.675, 518.214 591.790, 517.428 590.921 C 516.643 590.053, 516 588.857, 516 588.264 C 516 587.672, 514.656 584.191, 513.013 580.530 C 508.963 571.503, 503.391 555.283, 502.491 549.902 C 502.086 547.481, 501.430 545.275, 501.032 545 C 500.634 544.725, 499.666 543.150, 498.881 541.500 C 497.828 539.285, 496.763 538.500, 494.816 538.500 C 493.365 538.500, 491.838 538.163, 491.422 537.750 C 490.437 536.772, 489.065 536.891, 486 538.218 M 530.500 542.172 C 521.755 545.613, 519.271 549.300, 522.772 553.644 C 525.469 556.989, 529 557.688, 529 554.876 C 529 552.829, 529.117 552.777, 530.250 554.319 C 532.007 556.711, 543.456 552.878, 546.872 548.754 C 553.049 541.295, 542.998 537.255, 530.500 542.172 M 606.500 541.154 C 599.079 541.918, 590.539 543.808, 577.038 547.673 C 574.033 548.532, 568.858 550.898, 565.538 552.929 C 562.217 554.959, 558.438 557.269, 557.139 558.061 C 552.369 560.969, 549.786 570.344, 552.472 575 C 553.265 576.375, 554.372 578.513, 554.932 579.750 C 555.492 580.987, 556.772 582, 557.775 582 C 558.779 582, 560.126 582.526, 560.768 583.168 C 564.406 586.806, 573.106 587.849, 576.638 585.070 C 582.469 580.483, 601.913 575.179, 600.629 578.525 C 595.918 590.801, 600.584 609.159, 610.663 618.009 C 625.758 631.262, 648.859 642, 662.277 642 C 688.550 642, 706.870 610.054, 692.814 588.750 C 691.816 587.237, 690.087 584.650, 688.970 583 L 686.940 580 689.458 580 C 691.672 580, 699.365 581.887, 716.468 586.624 C 730.571 590.530, 740.625 583.069, 739.846 569.275 C 739.213 558.071, 735.451 555.003, 717 550.639 C 700.529 546.743, 691.116 545.123, 675.239 543.454 C 667.132 542.602, 658.700 541.633, 656.500 541.302 C 650.176 540.348, 615.319 540.245, 606.500 541.154 M 178.750 554.717 C 174.366 559.328, 175.082 573, 179.706 573 C 180.606 573, 182.135 573.717, 183.104 574.594 C 186.675 577.826, 197.447 571.468, 199.533 564.897 C 202.059 556.937, 184.716 548.443, 178.750 554.717 M 414.602 553.138 C 406.893 554.127, 404.863 555.721, 405.255 560.477 C 406.033 569.934, 431.783 566.453, 431.968 556.865 C 432.050 552.618, 427.037 551.542, 414.602 553.138 M 469.256 568.546 C 468.688 569.621, 467.002 574.325, 465.509 579 C 457.798 603.148, 455.203 612.679, 451.540 630.296 C 447.524 649.616, 448.236 651.875, 454.500 639.693 L 459.500 629.971 466.509 626.485 C 474.002 622.759, 478.431 622.075, 479.362 624.500 C 479.678 625.325, 481.025 626, 482.354 626 C 484.644 626, 486.640 628.081, 489.549 633.500 C 490.645 635.541, 494.540 635.860, 496.344 634.056 C 496.860 633.540, 495.048 628.218, 492.012 621.334 C 489.142 614.825, 486.416 608.600, 485.955 607.500 C 485.495 606.400, 483.788 602.350, 482.162 598.500 C 476.991 586.251, 473.287 576.648, 471.766 571.546 C 470.474 567.214, 470.159 566.837, 469.256 568.546 M 145.315 580.013 C 141.072 581.711, 139.922 586.531, 142.518 591.736 C 146.651 600.020, 162.288 594.680, 160.579 585.568 C 159.609 580.397, 151.622 577.490, 145.315 580.013 M 387.949 589.403 C 385.996 590.148, 382.085 591.076, 379.258 591.465 C 374.101 592.174, 371 594.761, 371 598.354 C 371 608.445, 396.016 605.524, 401.605 594.780 C 404.095 589.995, 395.387 586.566, 387.949 589.403 M 780.821 592.324 C 777.190 595.961, 775.543 600.848, 776.788 604.292 C 777.455 606.134, 778 608.306, 778 609.118 C 778 612.760, 785.472 618.090, 791.442 618.706 L 797.183 619.299 801.092 615.023 C 805.236 610.489, 805.715 608.365, 803.825 602.899 C 802.224 598.270, 800.344 597.069, 794.643 597.032 C 790.787 597.007, 789.902 596.697, 790.351 595.529 C 791.720 591.959, 783.834 589.306, 780.821 592.324 M 546.500 594.132 C 537.321 596.270, 535.252 598.318, 536.505 604.023 C 538.078 611.185, 558.667 608.328, 563.280 600.308 C 566.886 594.040, 559.140 591.189, 546.500 594.132 M 571.282 607.398 C 568.963 608.024, 566.510 609.090, 565.832 609.768 C 565.155 610.445, 564.206 611, 563.724 611 C 561.571 611, 551 620.242, 551 622.124 C 551 624.779, 552.580 627.625, 554.455 628.344 C 556.188 629.009, 568.716 624.545, 571.079 622.420 C 571.947 621.639, 573.146 621, 573.742 621 C 575.393 621, 581 612.891, 581 610.503 C 581 606.124, 578.716 605.394, 571.282 607.398 M 202.500 610.907 C 195.358 613.025, 194.467 618.021, 199.899 625.500 C 201.896 628.250, 204.858 632.525, 206.481 635 C 214.662 647.473, 219.531 650.703, 225.901 647.883 C 229.934 646.098, 229.818 644.743, 224.877 635.888 C 222.609 631.825, 219.797 626.742, 218.627 624.594 C 214.449 616.922, 206.103 609.839, 202.500 610.907 M 367.623 613.864 C 362.373 619.665, 369.325 625.564, 383.044 626.946 C 392.947 627.945, 398.337 626.862, 401.533 623.230 C 406.482 617.608, 403.077 615.035, 389.191 613.903 C 383.861 613.468, 377.226 612.841, 374.448 612.509 C 370.224 612.004, 369.105 612.227, 367.623 613.864 M 164.750 625.392 C 160.879 628.330, 162.385 634.172, 170.539 647.852 C 185.266 672.560, 189.796 678, 195.645 678 C 198.087 678, 199.759 677.305, 201.056 675.750 C 204.333 671.823, 204.066 671.017, 195.085 657.705 C 188.025 647.242, 185.368 642.962, 182.313 637.132 C 176.731 626.481, 169.597 621.712, 164.750 625.392 M 574.028 628.787 C 562.945 634.282, 558.508 640.565, 561.697 646.250 C 562.738 648.105, 569.353 646.768, 575.299 643.500 C 578.801 641.575, 582.390 640, 583.276 640 C 587.724 640, 594 633.848, 594 629.488 C 594 625.172, 582.158 624.757, 574.028 628.787 M 712.128 632.742 C 709.308 635.899, 707 638.770, 707 639.120 C 707 639.931, 696.989 647.674, 692.733 650.154 C 684.424 654.995, 680.930 655.726, 676 653.652 C 673.817 652.734, 672.399 654.065, 671.694 657.692 C 671.087 660.812, 671.200 660.931, 676.753 663.009 C 689.951 667.947, 700.636 664.428, 714.286 650.650 C 726.924 637.893, 729.456 629.796, 721.500 627.584 C 717.929 626.590, 717.326 626.922, 712.128 632.742 M 141.194 631.560 C 135.691 633.874, 136.527 639.232, 144.996 655.923 C 156 677.610, 160.639 684.068, 167.152 686.767 C 179.605 691.929, 180.893 687.872, 171.789 672.166 C 164.648 659.847, 159.629 650.728, 154.828 641.353 C 149.867 631.664, 146.573 629.299, 141.194 631.560 M 843.500 632.491 C 842.950 632.675, 841.375 633.093, 840 633.420 C 833.909 634.868, 830.513 641.513, 834.054 645.054 C 836.168 647.168, 846.324 647.903, 847.483 646.027 C 847.814 645.491, 849.641 644.315, 851.542 643.413 C 858.702 640.016, 851.256 629.904, 843.500 632.491 M 389.500 635.156 C 386.750 635.645, 380.900 636.513, 376.500 637.086 C 367.250 638.289, 364 640.459, 364 645.430 C 364 649.563, 367.390 650.938, 376.399 650.460 C 398.479 649.287, 411.928 640.990, 400.522 635.577 C 396.902 633.859, 396.813 633.856, 389.500 635.156 M 247.200 642.200 C 245.586 643.814, 245.742 648.925, 247.500 652 C 248.286 653.375, 248.945 655.411, 248.965 656.525 C 249.086 663.445, 269.454 674.229, 281 673.487 C 283.475 673.328, 286.961 673.153, 288.748 673.099 C 290.969 673.031, 293.115 671.944, 295.537 669.659 L 299.079 666.319 297.129 663.911 C 295.342 661.704, 294.392 661.487, 285.778 661.322 C 272.955 661.076, 267.536 658.633, 257.464 648.560 C 249.454 640.551, 249.081 640.319, 247.200 642.200 M 735.500 656.840 C 733.850 657.848, 730.777 660.778, 728.672 663.350 C 726.566 665.923, 721.166 671.190, 716.672 675.054 C 702.311 687.403, 701.753 688.255, 707.250 689.465 C 716.661 691.537, 719.995 690.823, 725.593 685.533 C 726.194 684.965, 728.669 682.682, 731.093 680.459 C 742.363 670.126, 750.175 659.121, 748.054 656.566 C 746.266 654.411, 739.225 654.565, 735.500 656.840 M 588.619 658.963 C 582.980 662.270, 578 670.140, 578 675.745 C 578 679.315, 587.906 697.306, 593 702.987 C 609.727 721.645, 616.694 728.989, 617.669 728.994 C 618.312 728.997, 620.112 729.630, 621.669 730.400 C 634.878 736.932, 641.205 734.242, 644.502 720.695 L 646.159 713.891 641.934 708.414 C 639.610 705.403, 637.337 702.708, 636.882 702.427 C 636.427 702.146, 635.596 700.247, 635.036 698.208 C 634.477 696.169, 632.544 692.925, 630.741 691 C 625.517 685.422, 621.627 680.047, 616.989 672 C 607.380 655.328, 600.336 652.092, 588.619 658.963 M 796 657.878 C 790.112 659.478, 789.139 669.721, 794.610 672.500 C 797.569 674.002, 806.902 681.006, 810.938 684.753 C 820.171 693.324, 830.373 696.164, 835.354 691.548 C 839.511 687.695, 838.749 686.061, 829.739 679.509 C 825.207 676.214, 819.442 671.614, 816.926 669.287 C 811.688 664.441, 800.985 656.958, 799.500 657.102 C 798.950 657.156, 797.375 657.505, 796 657.878 M 378.693 661.262 C 371.296 665.386, 370.511 666.878, 363.036 691 C 359.712 701.725, 355.905 712.975, 354.577 716 C 351.064 723.996, 348.142 732.146, 347.799 734.902 C 347.296 738.944, 362.418 750.030, 368.372 749.983 C 370.924 749.964, 382.051 740.153, 382.021 737.950 C 382.009 737.097, 382.419 735.972, 382.931 735.450 C 385.534 732.795, 401.716 685.797, 402.687 678.074 C 404.663 662.354, 392.286 653.682, 378.693 661.262 M 639 673 C 635.401 676.599, 636.384 680.372, 642.750 687.389 C 658.473 704.721, 661.518 708.174, 662.282 709.539 C 662.737 710.353, 664.715 711.690, 666.677 712.510 C 670.890 714.270, 671.319 714.325, 670.500 713 C 670.134 712.408, 671.271 712, 673.286 712 C 678.702 712, 681.022 708.791, 678.185 705.226 C 676.993 703.727, 675.178 700.863, 674.154 698.863 C 664.436 679.893, 645.810 666.190, 639 673 M 239.011 677.487 C 238.263 678.389, 238.093 679.669, 238.581 680.737 C 239.024 681.707, 239.411 683.175, 239.443 684 C 239.538 686.503, 270.620 701, 275.891 701 C 278.174 701, 284 696.391, 284 694.585 C 284 692.141, 279.337 689.121, 270.061 685.558 C 264.870 683.564, 260.145 681.548, 259.561 681.078 C 255.866 678.105, 240.697 675.455, 239.011 677.487 M 337 679.709 C 333.678 680.931, 331.873 683.774, 326.066 696.931 C 317.940 715.340, 317.181 719.433, 321.200 723.187 C 326.034 727.702, 330.604 726.414, 332.504 720 C 332.911 718.625, 333.595 717.050, 334.022 716.500 C 334.450 715.950, 336.901 710.550, 339.469 704.500 C 342.038 698.450, 345.008 692.012, 346.069 690.193 C 350.522 682.565, 345.384 676.627, 337 679.709 M 772.789 683.363 C 768.251 686.811, 768.363 692.698, 773.029 696.021 C 775.938 698.092, 790.260 712.186, 801.398 723.939 C 809.747 732.748, 816.461 733.877, 818.359 726.790 C 819.558 722.315, 818.927 720.446, 814.739 716.069 C 812.408 713.632, 809.235 710.032, 807.690 708.069 C 792.687 689.015, 778.536 678.998, 772.789 683.363 M 214.058 686.423 C 210.035 688.652, 195.240 713.294, 192.144 722.923 C 190.904 726.780, 191.970 729, 195.063 729 C 196.064 729, 197.163 729.455, 197.507 730.011 C 199.683 733.532, 224 697.553, 224 690.812 C 224 685.886, 219.008 683.682, 214.058 686.423 M 754.752 706.757 C 748.816 710.438, 749.830 715.190, 758.968 726.500 C 762.078 730.350, 765.270 734.442, 766.061 735.593 C 769.227 740.198, 775.905 747.926, 783.644 755.939 L 791.795 764.378 795.881 763.154 C 804.304 760.630, 803.972 756.362, 794.492 745.278 C 790.363 740.450, 783.317 731.775, 778.835 726 C 763.445 706.171, 760.060 703.466, 754.752 706.757 M 235.368 708.964 C 227.123 712.384, 208.713 750.334, 212.869 755.342 C 216.903 760.202, 226 757.497, 226 751.437 C 226 747.175, 228.262 742.593, 236.813 729.530 C 247.854 712.664, 247.248 704.037, 235.368 708.964 M 718.934 711.719 C 714.398 714.822, 713.643 719.006, 716.878 723.118 C 717.912 724.432, 721.788 731.330, 725.492 738.448 C 729.197 745.565, 733.033 752.539, 734.017 753.944 C 735.001 755.350, 738.790 761, 742.437 766.500 C 752.695 781.970, 774.490 809.569, 776.901 810.142 C 780.177 810.921, 784.113 810.569, 785.074 809.411 C 785.718 808.635, 786.876 808, 787.648 808 C 788.815 808, 788.789 807.537, 787.493 805.250 C 786.637 803.737, 784.915 800.700, 783.668 798.500 C 782.420 796.300, 778.272 790.519, 774.450 785.653 C 758.788 765.716, 750.614 752.900, 737.045 727 C 729.183 711.994, 724.414 707.970, 718.934 711.719 M 297.333 726.806 C 291.327 729.248, 290.685 730.885, 287.491 751.913 C 284.675 770.452, 283.210 778.525, 282.198 781.085 C 281.635 782.506, 280.445 788.581, 279.552 794.585 C 278.659 800.588, 277.240 807.823, 276.398 810.663 C 273.647 819.948, 274.610 823.272, 280.183 823.732 C 284.246 824.068, 285.038 823.814, 286.168 821.810 C 288.229 818.154, 292.101 806.927, 293 802 C 293.451 799.525, 294.736 793.675, 295.855 789 C 298.332 778.650, 299.576 771.988, 300.990 761.500 C 301.584 757.100, 302.507 751.475, 303.043 749 C 304.772 741.015, 305.771 728.579, 304.830 726.750 C 303.734 724.620, 302.691 724.628, 297.333 726.806 M 690.752 728.841 C 686.615 731.338, 686.792 737.910, 691.100 741.742 C 696.038 746.136, 708.448 764.218, 715.917 777.903 C 716.697 779.332, 719.959 784.469, 723.167 789.321 C 726.375 794.172, 729 798.339, 729 798.581 C 729 798.823, 730.462 801.176, 732.250 803.810 C 734.038 806.444, 735.950 809.301, 736.500 810.159 C 744.295 822.320, 746.677 823.823, 753.293 820.750 C 757.473 818.809, 755.982 813.647, 747.552 800.878 C 744.322 795.986, 742.125 792.325, 738.022 784.996 C 736.635 782.519, 734.250 778.860, 732.721 776.864 C 731.193 774.869, 728.563 770.370, 726.876 766.868 C 725.189 763.366, 722.792 759.150, 721.549 757.500 C 720.306 755.850, 718.356 752.669, 717.216 750.431 C 716.076 748.192, 713.649 744.507, 711.822 742.240 C 709.995 739.974, 707.375 736.546, 706 734.623 C 701.341 728.105, 695.586 725.924, 690.752 728.841 M 258 730.264 C 255.361 731.611, 251.888 740.436, 248.661 754 C 247.811 757.575, 246.232 763.768, 245.154 767.762 C 242.859 776.261, 243.202 778.608, 246.841 779.328 C 254.402 780.823, 261.152 767.619, 266.100 741.656 C 268.042 731.464, 264.743 726.825, 258 730.264 M 313.208 734.394 C 310.731 735.601, 308.743 737.334, 308.507 738.493 C 308.282 739.597, 307.374 745.450, 306.489 751.500 C 305.604 757.550, 304.006 767.225, 302.938 773 C 301.869 778.775, 300.565 787.450, 300.039 792.278 C 299.514 797.106, 298.852 801.430, 298.569 801.888 C 298.287 802.345, 297.988 808.888, 297.906 816.428 L 297.757 830.136 301.504 833.568 C 308.397 839.882, 308.670 839.449, 311.072 818.386 C 312.106 809.312, 313.398 800.226, 313.943 798.194 C 314.922 794.539, 315.737 789.630, 320.534 758.500 C 324.503 732.749, 323.481 729.387, 313.208 734.394 M 658.250 733.168 C 654.718 734.954, 655.144 740.698, 659.084 744.417 C 660.780 746.018, 665.223 753.442, 668.957 760.914 C 677.117 777.246, 681.500 785.550, 686.072 793.340 C 687.958 796.552, 690.326 800.602, 691.336 802.340 C 698.059 813.912, 702.608 821.215, 706.074 826 C 708.265 829.025, 710.912 833.104, 711.955 835.065 C 715.652 842.013, 719.549 845.258, 723.230 844.453 C 725.957 843.857, 731 839.976, 731 838.473 C 731 838.086, 724.788 828.341, 713.326 810.746 C 710.906 807.032, 708.061 802.082, 707.003 799.746 C 704.961 795.236, 700.905 787.977, 696.724 781.355 C 695.326 779.140, 690.247 769.717, 685.437 760.414 C 671.222 732.922, 667.036 728.726, 658.250 733.168 M 629.013 744.987 C 626.159 747.841, 626.849 751.925, 630.979 756.629 C 632.620 758.498, 634.700 761.483, 635.602 763.263 C 638.411 768.810, 639.983 770, 644.500 770 C 652.539 770, 653.558 766.625, 648.585 756.472 C 642.280 743.600, 634.793 739.207, 629.013 744.987 M 331.359 747.923 C 327.231 750.440, 327.023 750.868, 326.616 757.684 C 326.425 760.883, 325.514 770.250, 324.592 778.500 C 320.549 814.683, 319.982 821, 320.012 829.500 C 320.035 836.102, 320.542 839.597, 321.913 842.616 C 322.941 844.880, 324.092 848.142, 324.471 849.866 C 325.180 853.095, 325.708 853.433, 328.418 852.393 C 329.542 851.962, 330.006 850.441, 330.020 847.143 C 330.031 844.589, 330.493 839.575, 331.047 836 C 331.601 832.425, 332.256 827.475, 332.504 825 C 332.751 822.525, 333.399 818.025, 333.943 815 C 334.863 809.885, 336.360 798.193, 339.063 775 C 341.347 755.408, 341.347 755.572, 339.168 750.647 C 336.882 745.479, 335.918 745.143, 331.359 747.923 M 606.655 752.829 C 603.272 756.567, 609.609 774.657, 616.296 780.350 C 618.983 782.638, 625.500 782.066, 627.473 779.368 C 630.565 775.140, 620.173 753.698, 614.233 752.048 C 609.192 750.648, 608.571 750.712, 606.655 752.829 M 418.478 755.024 C 416.705 756.984, 416.704 757.393, 418.452 767.774 C 419.445 773.674, 420.464 780.750, 420.716 783.500 C 421.271 789.552, 422.967 791.650, 427.989 792.498 C 432.313 793.229, 436.360 791.380, 435.476 789.078 C 434.926 787.644, 434.578 784.246, 433.473 769.519 C 432.411 755.359, 424.818 748.019, 418.478 755.024 M 530.975 756.059 C 529.490 759.646, 530.810 767.023, 536.078 784.571 C 536.585 786.260, 537 788.573, 537 789.710 C 537 795.434, 546.983 798.603, 552.305 794.568 C 554.038 793.254, 554.028 793.045, 552.055 789.364 C 550.925 787.255, 550.004 784.623, 550.010 783.515 C 550.046 776.288, 546.460 759.227, 544.279 756.250 C 540.797 751.497, 532.912 751.384, 530.975 756.059 M 559.329 753.775 C 557.184 755.140, 556.840 759.515, 558.521 764.060 C 559.425 766.502, 560.422 769.625, 560.736 771 C 561.051 772.375, 561.870 774.400, 562.556 775.500 C 563.242 776.600, 564.125 779.075, 564.517 781 C 565.727 786.933, 572.581 789.619, 576 785.500 C 576.685 784.675, 577.865 784, 578.622 784 C 580.246 784, 580.317 783.566, 579.072 781.236 C 578.562 780.281, 577.652 776.203, 577.050 772.173 C 574.830 757.310, 566.830 749.004, 559.329 753.775 M 396.631 755.634 C 393.856 757.138, 393.784 757.371, 394.401 762.844 C 394.751 765.955, 395.467 773.388, 395.990 779.363 C 397.117 792.214, 397.360 792.605, 404.179 792.546 L 409.453 792.500 409.128 776.582 C 408.771 759.057, 408.152 756.597, 403.713 755.050 C 399.995 753.754, 400.122 753.743, 396.631 755.634 M 376.500 755.719 C 371.994 756.817, 370.849 759.010, 371.419 765.457 C 371.712 768.781, 372.216 775.988, 372.538 781.472 C 373.202 792.768, 373.610 793.589, 379.005 794.501 C 386.102 795.700, 386.322 795.199, 386.110 778.377 C 385.911 762.604, 384.989 757.600, 381.986 755.992 C 380.039 754.950, 379.721 754.935, 376.500 755.719 M 583.827 755.675 C 578.696 757.031, 578.737 760.293, 584.016 770.838 C 586.757 776.314, 589 782.101, 589 783.697 C 589 788.852, 592.875 790.334, 599.927 787.875 C 603.124 786.761, 603.148 786.704, 602.531 781.625 C 600.062 761.298, 594.059 752.968, 583.827 755.675 M 444.120 759.068 C 439.234 762.047, 440.410 769.955, 448.329 787.374 C 449.798 790.605, 451 793.590, 451 794.008 C 451 794.425, 452.012 795.038, 453.250 795.370 C 457.595 796.534, 460.668 795.982, 462.866 793.642 L 465.081 791.284 462.563 783.892 C 455.841 764.161, 454.796 761.343, 453.426 759.250 C 451.595 756.452, 448.510 756.392, 444.120 759.068 M 350 759.272 L 347.500 760.564 347.690 778.532 C 347.794 788.414, 347.907 797.506, 347.940 798.737 C 348.006 801.207, 353.840 804.316, 357.424 803.791 C 361.551 803.186, 363.848 769.205, 360.248 762 C 358.272 758.044, 354.381 757.008, 350 759.272 M 504.210 762.668 C 499.081 767.136, 499.074 765.918, 504.328 781.591 C 509.919 798.267, 510.332 799, 514.134 799 C 516.622 799, 523.008 796.818, 524.929 795.312 C 525.165 795.127, 524.457 793.743, 523.357 792.238 C 521.538 789.749, 515 768.310, 515 764.833 C 515 759.125, 509.536 758.029, 504.210 762.668 M 475 762.067 C 475 762.688, 474.143 762.863, 472.952 762.485 C 466.989 760.592, 466.659 766.632, 472 779.880 C 474.200 785.337, 476 790.247, 476 790.792 C 476 794.022, 487.489 793.714, 492.859 790.341 C 493.057 790.217, 492.334 788.852, 491.252 787.308 C 490.171 785.763, 488.284 781.350, 487.060 777.500 C 483.819 767.311, 482.075 764.090, 478.915 762.456 C 475.554 760.718, 475 760.663, 475 762.067 M 648.539 783.148 C 645.264 785.724, 645.486 787.992, 649.992 797.955 C 651.620 801.555, 654.362 809, 656.086 814.500 C 660.045 827.129, 660.213 827.330, 666.286 826.747 C 674.409 825.966, 674.655 825.188, 671.153 811.381 C 664.329 784.483, 657.570 776.044, 648.539 783.148 M 616.225 790.799 C 610.997 791.595, 610.290 800.825, 615.021 806.525 C 615.674 807.313, 618.611 813.177, 621.547 819.556 C 628.915 835.568, 630.202 836.488, 638.966 832.017 L 642.853 830.034 637.498 817.086 C 627.862 793.783, 624.436 789.550, 616.225 790.799 M 588 798.500 C 587.315 799.325, 586.135 800, 585.378 800 C 583.365 800, 583.637 805.844, 585.844 810.015 C 586.858 811.932, 589.161 818.225, 590.962 824 C 596.135 840.585, 597.066 842, 602.798 842 C 606.816 842, 609.244 841.130, 612.851 838.397 C 613.044 838.251, 612.303 836.414, 611.204 834.316 C 608.962 830.033, 606.685 823.705, 604.973 817 C 601.258 802.455, 592.574 792.989, 588 798.500 M 376.223 802.557 C 373.568 804.416, 372.763 839.792, 375.300 843.124 C 377.053 845.427, 384.040 849, 386.790 849 L 389.110 849 388.805 827.578 C 388.505 806.479, 388.463 806.118, 386.076 803.578 C 383.310 800.637, 379.524 800.244, 376.223 802.557 M 405 802.302 C 402.141 803.757, 402.099 804.592, 403.820 825.500 C 404.984 839.642, 404.582 838, 406.878 838 C 407.910 838, 409.334 838.698, 410.042 839.551 C 410.874 840.554, 412.595 840.995, 414.914 840.801 L 418.500 840.500 418.164 826 C 417.670 804.663, 413.855 797.795, 405 802.302 M 555.133 805.090 C 552.373 807.662, 552.555 812.808, 555.750 822.500 C 556.837 825.800, 558.488 831.591, 559.418 835.368 C 561.960 845.696, 562.997 846.854, 569.469 846.597 C 576.451 846.320, 578.452 844.791, 576.598 841.149 C 575.255 838.513, 572 823.911, 572 820.523 C 572 818.434, 566.248 806.437, 564.620 805.130 C 561.880 802.931, 557.471 802.913, 555.133 805.090 M 435.777 806.711 C 432.716 809.906, 432.246 813.598, 433.830 822 C 434.401 825.025, 435.333 830.935, 435.902 835.134 C 437.499 846.907, 441.857 852.604, 448.670 851.824 C 452.011 851.441, 452.041 850.421, 449.360 828.500 C 446.688 806.660, 442.407 799.791, 435.777 806.711 M 520.340 805.475 C 517.700 807.324, 516.837 812.540, 518.500 816.597 C 519.199 818.300, 520.501 822.907, 521.394 826.833 C 524.680 841.283, 526.465 844.628, 531.575 845.915 C 538.287 847.605, 543.603 845.067, 541.573 841.141 C 540.818 839.681, 538.857 833.043, 537.217 826.391 C 532.307 806.481, 527.467 800.483, 520.340 805.475 M 490.263 806.250 C 487.977 809.161, 488.142 814.236, 490.911 826.207 C 495.623 846.577, 495.836 847.187, 498.014 846.495 C 499.065 846.162, 500.773 846.343, 501.809 846.898 C 505.737 849, 512.758 845.227, 510.086 842.450 C 509.583 841.928, 507.967 834.975, 506.495 827 C 503.868 812.768, 501.624 806.837, 498.398 805.599 C 495.744 804.581, 491.295 804.937, 490.263 806.250 M 463.250 810.648 C 459.430 812.531, 458.960 816.298, 461.509 824.591 C 462.842 828.925, 464.891 840.050, 465.341 845.392 C 465.564 848.046, 469.466 849.940, 476.250 850.688 C 480.652 851.173, 480.636 851.258, 478.964 836.500 C 477.575 824.232, 475.156 816.561, 471.373 812.431 C 467.784 808.513, 467.643 808.482, 463.250 810.648 M 351.794 816.549 C 348.662 818.249, 348.458 819.134, 347.026 837.193 C 346.052 849.471, 346.283 853, 348.059 853 C 348.524 853, 350.358 855.138, 352.136 857.750 C 358.892 867.678, 360.255 866.655, 360.465 851.500 C 360.557 844.900, 361.003 835.619, 361.456 830.875 C 362.444 820.528, 361.875 817.720, 358.477 816.171 C 355.306 814.727, 355.133 814.737, 351.794 816.549 M 675.315 837.007 C 669.625 839.300, 669.853 840.663, 679.105 859.636 C 686.561 874.927, 688.377 876.578, 694.189 873.353 C 695.460 872.648, 697.288 872.055, 698.250 872.035 C 700.752 871.985, 700.507 870.731, 695.683 858.893 C 687.515 838.850, 682.940 833.935, 675.315 837.007 M 652.223 850.557 C 649.620 852.379, 649.359 855.912, 651.360 862.215 C 661.163 893.093, 662.765 896.005, 669.941 895.995 C 672.135 895.992, 674.562 895.129, 676.269 893.745 L 679.038 891.500 675.663 884.500 C 673.807 880.650, 671.272 873.675, 670.030 869 C 665.349 851.372, 659.583 845.401, 652.223 850.557 M 374.196 852.750 C 371.829 854.795, 369 864.073, 369 869.789 C 369 875.241, 371.858 877.139, 378.617 876.177 L 383.500 875.482 384.093 870.491 C 384.419 867.746, 385.033 863.189, 385.457 860.364 C 386.658 852.358, 379.921 847.803, 374.196 852.750 M 402.716 853.761 C 401.055 855.597, 399 868.583, 399 877.249 C 399 882.696, 400.737 884, 407.994 884 C 411.857 884, 411.858 883.999, 412.894 878.750 C 415.876 863.634, 416.123 857.981, 413.935 854.908 C 411.450 851.419, 405.396 850.800, 402.716 853.761 M 626 855.746 C 621.820 857.841, 621.061 861.200, 623.368 867.395 C 624.209 869.653, 625.782 875.100, 626.864 879.500 C 630.251 893.273, 633.052 903.229, 634.080 905.150 C 636.025 908.784, 650.020 906.923, 648.476 903.236 C 648.076 902.281, 646.913 897.450, 645.891 892.500 C 641.257 870.064, 636.072 855, 632.983 855 C 632.532 855, 631.564 854.773, 630.832 854.496 C 630.099 854.219, 627.925 854.781, 626 855.746 M 594.477 858.266 L 591.628 860.717 593.421 871.608 C 598.504 902.495, 602.230 913.461, 607.955 914.377 C 616.214 915.697, 618.324 913.157, 616.162 904.500 C 615.612 902.300, 614.615 897.800, 613.946 894.500 C 613.278 891.200, 612.176 886.700, 611.499 884.500 C 610.822 882.300, 610.196 878.028, 610.107 875.007 C 609.671 860.135, 601.936 851.850, 594.477 858.266 M 428.223 863.750 C 425.081 866.502, 423.847 871.591, 423.268 884.183 L 422.731 895.866 426.115 897.929 C 429.490 899.986, 433.418 900.544, 436.418 899.393 C 437.697 898.902, 438 897.075, 438 889.840 C 438 884.920, 438.719 877.732, 439.599 873.867 C 441.894 863.775, 435.097 857.730, 428.223 863.750 M 534.601 863.301 C 532.464 864.865, 532.454 864.535, 535.529 893.814 C 538.382 920.969, 541.119 925.877, 550.840 921.270 C 554.015 919.765, 554.150 919.484, 553.570 915.593 C 551.704 903.082, 550.152 889.563, 550.514 888.978 C 551.620 887.188, 548.160 867.691, 546.290 865.176 C 543.958 862.040, 537.696 861.036, 534.601 863.301 M 567.904 864.096 C 566.202 865.798, 565.918 866.972, 566.391 870.346 C 566.712 872.631, 567.389 878.325, 567.896 883 C 570.894 910.665, 573.752 921.500, 578.289 922.408 C 586.263 924.003, 590.171 921.729, 588.939 916.211 C 586.535 905.439, 584.993 895.210, 584.442 886.373 C 583.726 874.884, 581.732 866.732, 578.961 863.961 C 576.300 861.300, 570.631 861.369, 567.904 864.096 M 455.065 865.359 C 450.599 866.842, 450.390 867.831, 450.184 888.484 C 450.004 906.395, 450.298 909, 452.496 909 C 453.245 909, 454.567 909.710, 455.435 910.578 C 457.179 912.322, 462.104 911.785, 463.869 909.657 C 465.953 907.147, 465.547 870.262, 463.410 867.900 C 460.465 864.646, 458.769 864.130, 455.065 865.359 M 479.095 866.646 C 476.426 868.516, 476.561 879.936, 479.555 905.500 C 480.328 912.100, 480.969 917.805, 480.980 918.177 C 481.069 921.228, 488.983 921.988, 493.411 919.370 C 495.274 918.269, 494.526 885.574, 492.357 873.281 C 491.154 866.463, 484.272 863.020, 479.095 866.646 M 505.750 866.080 C 503.650 867.303, 503.516 871.856, 505.026 890.696 C 506.841 913.342, 508.660 920.831, 512.762 922.545 C 520.642 925.837, 524.056 922.317, 522.991 912 C 522.172 904.067, 520.190 884.010, 519.366 875.324 C 518.573 866.970, 511.946 862.471, 505.750 866.080"/>
    </g>
  </g>
</svg>
