<svg viewBox="0 0 74 74" width="74mm" height="74mm" xmlns="http://www.w3.org/2000/svg">
  <g transform="scale(0.074000)" fill-rule="evenodd">
    <g id="forma" fill="#CB3747">
      <path d="M 843 116.557 C 824.133 123.905, 823.364 124.612, 821.947 135.898 C 820.159 150.133, 799.633 176.198, 782.481 186.011 C 772.688 191.614, 765.030 200.020, 764.990 205.210 C 764.968 208.163, 759.527 217.885, 754.954 223.145 C 752.254 226.250, 747.389 232.775, 744.143 237.645 C 737.290 247.929, 735.039 250.166, 725.384 256.297 C 717.370 261.385, 714.961 264.290, 711.318 273.255 C 705.428 287.752, 695.985 301.033, 669.550 332 C 646.171 359.388, 633.714 370.949, 617.500 380.310 C 613.100 382.850, 605.602 388.461, 600.838 392.778 C 578.562 412.963, 547.894 419.301, 488.201 416.054 C 468.040 414.957, 462.838 415.013, 444.411 416.525 C 394.881 420.587, 375.742 415.214, 325.303 383.085 C 269.512 347.546, 243.057 324.097, 239.493 307.022 C 236.951 294.847, 234.972 293.010, 220.548 289.437 C 205.993 285.832, 201.385 282.612, 190.891 268.710 C 178.283 252.008, 177.256 245.500, 185.352 233.610 C 191.245 224.956, 188.381 220.558, 175.496 218.472 C 158.756 215.762, 150.596 207.327, 143.898 185.810 C 140.789 175.820, 139.591 173.744, 132.403 165.892 C 126.955 159.940, 124.551 155.114, 120.885 142.775 C 113.388 117.540, 104.827 111.484, 82.190 115.407 C 66.610 118.107, 63.563 120.441, 56.614 135 C 54.120 140.225, 50.262 147.394, 48.040 150.931 C 42.747 159.357, 42.608 164.104, 47.356 174.296 C 54.346 189.303, 55.422 202.344, 51.085 219.500 C 48.297 230.530, 48.606 233.331, 54.124 247.017 C 62.040 266.655, 60.740 277.093, 48.658 290.889 C 37.663 303.445, 38.889 310.217, 52.914 314.382 C 70.126 319.493, 75.142 336.074, 67.128 361.373 C 63.274 373.539, 63.250 376.317, 66.898 388.169 C 72.167 405.285, 71.880 417.695, 65.913 430.849 C 60.735 442.263, 60.846 444.313, 67.345 457.279 C 73.643 469.844, 74.462 474.574, 76.991 513 C 81.202 576.970, 92.815 620.537, 121.776 681.016 C 169.057 779.756, 251.587 845.352, 359 869.566 C 427.442 884.995, 459.628 888.340, 527 887.026 C 596.725 885.665, 622.559 881.905, 686.366 863.832 C 709.331 857.327, 711.989 857.402, 721.661 864.829 C 731.830 872.637, 734.790 871.640, 738.848 859.038 C 743.134 845.732, 743.622 845.321, 782.248 822.415 C 847.830 783.524, 867.612 753.606, 885.011 667 C 886.171 661.225, 888.237 651.325, 889.601 645 C 894.241 623.495, 899.967 585.931, 901.006 570.191 C 902.098 553.662, 904.655 528.075, 907.940 500.829 C 909.022 491.848, 910.188 480.225, 910.530 475 C 911.895 454.148, 913.699 449.226, 923.816 438.746 C 933.326 428.895, 933.580 424.850, 925.437 412.947 C 915.811 398.874, 915.902 399.336, 915.957 365.120 C 916.017 327.298, 913.383 292.072, 909.480 278.500 C 906.114 266.796, 906.472 261.611, 911.322 251.794 C 917.415 239.462, 916.726 235.783, 906.229 224.600 C 896.395 214.123, 889.428 192.762, 887.530 167.268 C 886.588 154.618, 885.317 149.034, 880.200 135.056 C 871.493 111.274, 864.936 108.013, 843 116.557"/>
    </g>
    <g id="detalles" fill="#1A1A1A">
      <path d="M 99.042 112.139 C 85.783 114.337, 41.050 144.102, 35.933 154.131 C 32.089 161.666, 32.156 168.113, 36.123 172.411 C 42.441 179.256, 50 178.240, 62.699 168.839 C 66.440 166.070, 71.582 162.743, 74.127 161.447 C 76.672 160.151, 81.622 156.760, 85.127 153.912 C 90.873 149.242, 107.990 140, 110.892 140 C 113.113 140, 120.839 131.269, 121.200 128.353 C 122.045 121.507, 116.847 113.886, 110.044 111.996 C 106.095 110.899, 106.558 110.893, 99.042 112.139 M 819.500 113.626 C 815.259 114.638, 812.745 116.579, 810.840 120.314 C 806.728 128.374, 808.884 133.463, 816.865 134.535 C 825.093 135.640, 839.032 140.592, 860.112 149.899 C 885.613 161.159, 891.824 161.853, 894.892 153.785 C 897.162 147.813, 887.728 139.106, 872.894 133.482 C 868.827 131.940, 861.672 128.383, 856.994 125.577 C 842.510 116.890, 826.804 111.884, 819.500 113.626 M 818.734 154.033 C 797.911 159.243, 795.760 181.255, 816.262 179.340 C 824.692 178.553, 828.557 179.530, 857 189.643 C 889.096 201.055, 894 200.610, 894 186.288 C 894 177.801, 887.464 173.428, 860.929 164.160 C 854.643 161.965, 845.545 158.757, 840.712 157.033 C 830.891 153.528, 824.332 152.633, 818.734 154.033 M 126.312 161.963 C 123.254 162.691, 89.961 182.048, 77.500 190.343 C 68.742 196.173, 50.878 211.222, 46.805 216.199 C 32.454 233.742, 38.437 247.054, 58.956 243.237 C 68.304 241.498, 68.651 241.303, 77.973 232.586 C 92.255 219.229, 104.810 210.740, 137.388 192.411 C 152.606 183.849, 155.333 173.695, 144.611 165.517 C 142.099 163.601, 129.500 159.925, 129.500 161.108 C 129.500 161.161, 128.066 161.546, 126.312 161.963 M 769.295 184.486 C 757.905 190.281, 753.480 201.480, 760.003 208.003 C 761.748 209.748, 763.253 209.937, 774.227 209.781 C 787.508 209.594, 786.046 209.275, 850 226.316 C 879.370 234.143, 895.872 241.232, 901.122 248.278 C 913.089 264.341, 932.892 250.068, 923.750 231.970 C 920.502 225.539, 914.179 221.366, 896.792 214.176 C 882.085 208.094, 874.379 205.628, 856 201.119 C 840.183 197.239, 805.550 188.036, 797 185.442 C 783.949 181.481, 775.755 181.199, 769.295 184.486 M 180.085 211.132 C 166.635 213.365, 112.441 240.647, 74.500 264.288 C 32.907 290.203, 18.276 310.852, 35.278 319.644 C 45.463 324.911, 54.703 321.441, 71.500 306.042 C 85.960 292.785, 104.679 280.498, 142 259.765 C 162.309 248.482, 167.215 246.156, 182.805 240.421 C 199.565 234.255, 201.133 233.348, 203.444 228.478 C 209.081 216.598, 197.769 208.198, 180.085 211.132 M 746.210 220.477 C 735.920 229.135, 738.617 244.516, 750.779 246.539 C 760.033 248.078, 804.213 260.384, 827.305 267.854 C 837.312 271.092, 851.575 275.646, 859 277.976 C 878.587 284.121, 885.992 287.807, 894.082 295.438 C 907.638 308.227, 919.967 305.280, 920.195 289.197 C 920.400 274.752, 901.980 261.832, 865 250.485 C 854.825 247.363, 838.850 242.423, 829.500 239.506 C 820.150 236.590, 808.225 233.280, 803 232.152 C 797.775 231.024, 785.280 227.378, 775.234 224.050 C 754.789 217.278, 750.621 216.765, 746.210 220.477 M 713 252.752 C 706.193 256.152, 703.058 266.910, 706.827 273.938 C 709.240 278.438, 713.754 280.718, 721.857 281.529 C 730.494 282.394, 752.077 286.497, 763.500 289.445 C 768.450 290.723, 776.621 292.733, 781.658 293.911 C 835.781 306.575, 864.739 319.510, 887.716 341.285 C 897.913 350.949, 900.196 351.891, 906.574 349.070 C 912.188 346.587, 914.507 341.927, 913.665 334.819 C 912.675 326.460, 910.164 323.725, 887.500 306.318 C 866.267 290.010, 825.028 274.505, 769.768 262.053 C 760.270 259.913, 749.800 257.462, 746.500 256.606 C 724.154 250.811, 718.246 250.131, 713 252.752 M 202.309 285.985 C 182.182 291.396, 142.869 306.462, 124.628 315.756 C 99.280 328.672, 61.351 357.564, 55.983 368.047 C 50.070 379.592, 55.133 387.995, 68 387.991 C 78.668 387.987, 80.307 387.058, 99 370.416 C 129.625 343.150, 190.459 313.853, 222.389 310.992 C 243.009 309.145, 249 305.982, 249 296.942 C 249 284.463, 227.095 279.322, 202.309 285.985 M 689.035 302.274 C 681.703 304.867, 678.848 314.717, 682.881 323.500 C 685.572 329.361, 687.741 330.807, 697.929 333.534 C 702.983 334.886, 707.943 336.434, 708.950 336.973 C 709.957 337.512, 719.718 340.408, 730.641 343.408 C 741.563 346.408, 755.675 350.503, 762 352.507 C 768.325 354.511, 778.675 357.676, 785 359.540 C 836.665 374.765, 880.383 399.724, 910.323 431.090 C 921.539 442.841, 923.187 444.200, 926.211 444.200 C 937.138 444.200, 944.084 434.332, 941.104 423.039 C 938.835 414.435, 909.961 387.711, 885.425 371.505 C 864.623 357.765, 824.086 339.697, 793.500 330.533 C 789.100 329.214, 778.975 326.121, 771 323.658 C 763.025 321.195, 748.850 317.088, 739.500 314.533 C 730.150 311.977, 717.325 308.140, 711 306.007 C 696.999 301.285, 693.507 300.692, 689.035 302.274 M 257 344.632 C 246.439 346.692, 222.715 352.556, 216.799 354.568 C 212.823 355.921, 205.754 357.933, 201.090 359.041 C 187.834 362.189, 178.067 366.539, 126.590 392.219 C 76.899 417.009, 65.367 423.624, 58.102 431.505 C 37.309 454.063, 63.962 469.801, 87.684 448.973 C 93.137 444.185, 97.465 441.715, 131.500 423.974 C 149.100 414.800, 167.325 405.135, 172 402.498 C 204.343 384.252, 242.575 371.903, 267.500 371.651 C 286.829 371.456, 292.200 368.767, 292.200 359.283 C 292.200 349.819, 272.481 341.611, 257 344.632 M 668.401 347.897 C 661.907 351.857, 660.707 361.095, 665.578 369.620 C 668.364 374.497, 671.421 376.102, 683.222 378.889 C 688.019 380.022, 696.119 382.567, 701.222 384.545 C 706.325 386.523, 721.300 391.015, 734.500 394.527 C 769.226 403.766, 801.439 415.830, 817.702 425.686 C 820.891 427.619, 827.100 431.246, 831.500 433.747 C 843.543 440.590, 857.778 452.086, 874.903 468.796 C 884.398 478.060, 891.303 484.021, 892.903 484.334 C 901.984 486.114, 912.094 472.833, 909.113 463.040 C 907.965 459.266, 887.332 438.851, 871.479 425.801 C 839.903 399.811, 792.543 378.165, 735.077 363.459 C 727.145 361.429, 715.895 357.960, 710.077 355.750 C 684.269 345.943, 674.594 344.121, 668.401 347.897 M 605.337 377.060 C 599.003 381.117, 596.947 387.315, 599.443 394.827 C 602.648 404.477, 604.309 405.296, 632.118 410.943 C 645.632 413.686, 657.782 416.347, 659.118 416.855 C 660.455 417.363, 668.631 419.639, 677.289 421.913 C 720.118 433.162, 764.149 450.510, 791.275 466.822 C 795.799 469.542, 806.307 475.850, 814.627 480.838 C 837.730 494.692, 867.437 515.090, 877.869 524.262 C 889.079 534.119, 891.774 535.988, 894.790 535.995 C 906.037 536.021, 914.616 517.639, 907.374 509.032 C 900.192 500.497, 844.822 462.995, 819.189 449.303 C 814.410 446.751, 805.142 441.529, 798.592 437.700 C 764.860 417.977, 709.463 398.383, 643.802 382.950 C 636.818 381.308, 627.249 378.848, 622.537 377.483 C 612.196 374.486, 609.460 374.419, 605.337 377.060 M 322.500 384.726 C 308.911 386.660, 284.179 393.095, 256 402.031 C 245.825 405.258, 234.350 408.606, 230.500 409.472 C 190.298 418.512, 133.286 448.894, 80.720 489.289 C 66.971 499.854, 66.515 511.594, 79.658 516.613 C 88.154 519.858, 102.118 515.749, 111.390 507.274 C 122.432 497.183, 140.919 484, 144.029 484 C 146.946 484, 147 484.095, 147.002 489.250 C 147.005 500.137, 153.286 505.676, 162.755 503.143 C 180.142 498.493, 181.650 481.047, 164.960 477.642 C 154.176 475.443, 156.804 472.425, 180.150 460.196 C 214.532 442.188, 281.885 419.236, 324.500 411.006 C 349.930 406.095, 356.895 400.901, 351.005 391.241 C 346.949 384.588, 337.943 382.530, 322.500 384.726 M 599.970 421.250 C 596.288 423.110, 595.182 424.366, 593.590 428.500 C 592.530 431.250, 590.091 437.290, 588.169 441.921 C 582.522 455.526, 582.839 464.314, 589.091 467.547 C 600.745 473.573, 614.349 459.190, 617.910 437.078 C 620.300 422.237, 612.186 415.079, 599.970 421.250 M 472.731 423.997 C 465 430.078, 460.828 445.414, 464.187 455.404 C 469.122 470.080, 490 463.248, 490 446.957 C 490 430.109, 480.693 417.734, 472.731 423.997 M 397.769 425.069 C 388.766 430.316, 388.202 460.356, 396.943 469.097 C 407.027 479.181, 423.829 467.681, 421.519 452.276 C 420.661 446.555, 411.676 428.677, 408.340 426.053 C 405.561 423.867, 400.621 423.407, 397.769 425.069 M 551.760 426.937 C 545.977 430.605, 544.744 432.499, 541.556 442.614 C 536.519 458.598, 537.342 465.574, 544.626 468.617 C 557.556 474.019, 568.776 459.120, 568.965 436.297 C 569.057 425.230, 561.195 420.954, 551.760 426.937 M 353.706 430.016 C 344.369 437.361, 344.543 461.610, 353.967 466.483 C 360.170 469.691, 369.746 466.470, 373.245 460 C 380.936 445.775, 364.920 421.196, 353.706 430.016 M 251.500 447.919 C 244.246 449.693, 241.572 452.712, 240.024 460.873 C 237.602 473.643, 246.595 479.570, 258.044 472.750 C 273.451 463.572, 268.246 443.823, 251.500 447.919 M 295.984 449.863 C 285.007 455.733, 286.594 475, 298.056 475 C 304.158 475, 312.647 468.744, 315.003 462.510 C 318.945 452.081, 306.863 444.046, 295.984 449.863 M 658.500 453.935 C 653.449 455.165, 649.104 457.897, 647.635 460.767 C 638.023 479.550, 660.737 491.990, 673.750 475.070 C 682.719 463.408, 673.286 450.335, 658.500 453.935 M 203.741 459.378 C 196.853 461.930, 194 466.029, 194 473.374 C 194 488.822, 217.329 487.985, 222.007 472.370 C 224.873 462.806, 214.467 455.405, 203.741 459.378 M 706.120 462.153 C 690.282 466.708, 691.997 491.055, 708.151 490.991 C 712.374 490.974, 720.710 485.351, 723.454 480.668 C 730.817 468.104, 721.188 457.819, 706.120 462.153 M 752.328 473.883 C 742.316 478.562, 740.989 493.840, 750.183 498.594 C 759.719 503.526, 774 493.909, 774 482.556 C 774 473.792, 762.430 469.161, 752.328 473.883 M 587 485.118 C 570.284 491.749, 555.597 537.048, 552.994 590 C 550.236 646.128, 548.777 648.002, 530.028 619.500 C 518.954 602.666, 515.423 598.837, 507.262 594.813 C 493.030 587.796, 483.429 595.491, 479.352 617.184 C 475.891 635.601, 473.371 634.439, 462.704 609.500 C 450.494 580.952, 447.262 576.993, 436.185 577.004 C 428.013 577.012, 422.741 584.120, 418.045 601.465 C 412.615 621.520, 408.420 613.502, 395.041 557.500 C 384.225 512.225, 382.665 507.779, 376.010 503.250 C 366.614 496.855, 355.803 506.332, 355.742 521.019 C 355.678 536.223, 383.854 636.817, 393.605 656.202 C 405.379 679.606, 425.791 678.167, 434.050 653.350 C 437.924 641.709, 441.507 640.670, 446.841 649.640 C 469.031 686.959, 477.021 691.504, 491.039 674.784 C 496.555 668.204, 499.660 662.209, 502.322 653 C 505.899 640.624, 508.892 640.937, 519.130 654.758 C 542.778 686.681, 560.583 694.255, 571.193 676.904 C 575.276 670.226, 579.755 639.627, 580.566 612.869 C 582.322 554.955, 588 523.261, 600.013 504.318 C 604.258 497.624, 604.007 494.142, 598.948 489.572 C 595.710 486.646, 590.751 483.698, 589.685 484.063 C 589.583 484.098, 588.375 484.573, 587 485.118 M 799.534 489.468 C 792.305 491.408, 789.994 494.527, 790.022 502.306 C 790.063 513.579, 798.483 518.365, 808.914 513.044 C 826.877 503.880, 819.058 484.228, 799.534 489.468 M 418.525 493.405 C 411.957 500.368, 410.867 512.953, 415.360 529.915 C 420.185 548.128, 425.764 553.756, 436.208 550.944 C 448.085 547.746, 450.577 540.281, 445.133 524.209 C 442.952 517.769, 440.414 509.814, 439.492 506.530 C 434.953 490.360, 426.429 485.024, 418.525 493.405 M 486.907 492.288 C 478.873 496.459, 477.639 500.646, 478.525 520.732 L 479.263 537.463 482.532 540.732 C 488.656 546.856, 499.434 544.528, 504.446 535.997 C 506.927 531.773, 506.957 518.679, 504.512 507.056 C 501.382 492.176, 495.931 487.603, 486.907 492.288 M 534.168 497.690 C 524.052 501.267, 515.980 529.470, 522.867 537.177 C 528.277 543.232, 540.058 540.740, 544.640 532.571 C 549.050 524.709, 553.159 505.183, 551.379 500.545 C 549.743 496.282, 541.851 494.973, 534.168 497.690 M 218 511.020 C 211.125 512.675, 199.650 515.414, 192.500 517.108 C 155.336 525.912, 125.488 553.674, 138.250 567.568 C 145.447 575.403, 154.672 574.263, 166.621 564.064 C 172.945 558.665, 195.376 548, 200.405 548 C 204.116 548, 204.440 549.734, 202.603 559.745 C 200.448 571.486, 200.591 574.451, 203.656 581.500 C 207.696 590.792, 207.440 593.207, 202.250 594.743 C 199.912 595.434, 196.102 596.563, 193.782 597.250 C 188.299 598.875, 185.920 602.613, 187.953 606.411 C 192.051 614.070, 232.624 620.758, 246.746 616.103 C 249.911 615.060, 256.325 613.052, 261 611.640 C 279.095 606.177, 288.641 596.643, 283.443 589.223 C 280.537 585.073, 273.881 586.452, 264.692 593.108 C 253.770 601.020, 244.696 598.506, 252.599 589.758 C 261.556 579.845, 262.271 567.563, 254.569 555.924 C 249.854 548.800, 251.468 547.627, 261.836 550.641 C 268.751 552.651, 289.264 551.949, 293.916 549.543 C 304.942 543.842, 293.939 528.950, 269.500 516.497 C 252.078 507.620, 238.245 506.149, 218 511.020 M 114.942 511.948 C 108.062 514.036, 105 518.215, 105 525.518 C 105 540.667, 125.681 542.339, 133.106 527.790 C 138.516 517.191, 127.971 507.995, 114.942 511.948 M 691 514.893 C 678.628 517.636, 659.979 525.813, 649.174 533.230 C 629.888 546.471, 647.957 563.602, 669 552.027 C 686.361 542.478, 696.241 538.958, 706.353 538.721 C 715.786 538.500, 715.784 540.141, 706.342 547.117 C 693.562 556.558, 691.787 575.693, 702.688 586.511 C 719.637 603.332, 756.956 591.290, 756.956 569 C 756.956 559.994, 753.234 555.236, 739.681 546.915 C 733.519 543.132, 733.584 540.639, 739.855 540.188 C 745.938 539.750, 752.286 541.300, 765.267 546.394 C 782.066 552.986, 789.685 553.195, 792.920 547.150 C 803.045 528.230, 732.108 505.779, 691 514.893 M 841.513 520.454 C 835.646 522.622, 833.018 527.521, 833.006 536.316 C 832.987 549.333, 848.659 552.226, 858.283 540.982 C 868.525 529.017, 856.889 514.774, 841.513 520.454 M 320.967 561.376 C 313.240 566.627, 312.711 572.591, 319.043 583.070 C 328.407 598.569, 332.433 600.022, 339.916 590.605 C 350.083 577.813, 333.782 552.669, 320.967 561.376 M 812.596 581.050 C 808.769 584.410, 806.449 589.930, 807.441 593.316 C 807.792 594.517, 808.484 601.125, 808.978 608 C 810.505 629.254, 813.286 633.202, 822.651 627.413 C 831.946 621.666, 836.687 603.556, 832.867 588.387 C 830.288 578.144, 820.104 574.458, 812.596 581.050 M 861.105 582.212 C 854.952 585.485, 853 589.554, 853 599.103 C 853 603.302, 852.228 610.734, 851.285 615.619 C 847.265 636.436, 850.704 643.794, 861.790 638.092 C 868.993 634.387, 872.610 628.989, 875.937 616.984 C 883.098 591.144, 875.925 574.327, 861.105 582.212 M 119.389 596.905 C 108.857 603.327, 108.448 625.115, 118.668 635.335 C 129.347 646.014, 140.189 636.876, 138.643 618.500 C 137.022 599.224, 129.472 590.756, 119.389 596.905 M 661.564 602.525 C 657.022 607.426, 659.606 614.683, 667.953 620.467 C 695.842 639.795, 773.955 632.996, 786.811 610.122 C 792.009 600.874, 786.174 597.842, 772.003 602.428 C 746.694 610.620, 710.379 611.489, 686 604.486 C 668.009 599.319, 664.776 599.059, 661.564 602.525 M 616.149 605.696 C 608.530 609.451, 605.409 620.092, 606.235 639.500 C 606.830 653.476, 610.265 658.760, 617.066 656.160 C 627.053 652.342, 636.715 618.176, 630.369 609.117 C 627.162 604.538, 621.342 603.138, 616.149 605.696 M 285.500 622.112 C 283.850 622.629, 280.025 622.788, 277 622.465 C 272.459 621.980, 269.582 622.479, 260.500 625.325 C 234.354 633.518, 210.940 635.152, 196 629.826 C 181.398 624.621, 177.812 625.155, 176.387 632.749 C 174.863 640.876, 183.398 647.370, 201.785 652.073 C 218.918 656.455, 245.889 653.029, 263.694 644.210 C 266.887 642.628, 272.117 640.294, 275.316 639.024 C 289.243 633.493, 297.163 625.786, 292.456 622.344 C 290.372 620.820, 289.694 620.798, 285.500 622.112 M 773.500 636.482 C 754.239 647.579, 718.586 648.405, 686 638.508 C 661.573 631.089, 649.162 637.293, 662.250 650.380 C 687.041 675.168, 768.730 673.373, 783.358 647.718 C 790.530 635.140, 785.594 629.514, 773.500 636.482 M 342.389 643.905 C 333.294 649.450, 332.081 656.537, 338.571 666.209 C 341.229 670.171, 345.145 677.483, 347.274 682.456 C 353.169 696.233, 357.644 699.238, 364.738 694.186 C 369.834 690.558, 371.357 685.941, 370.716 676.063 C 369.216 652.943, 354.662 636.421, 342.389 643.905 M 185.277 671.092 C 177.035 673.525, 171.763 683.523, 174.349 691.815 C 180.856 712.686, 184.859 719, 191.583 719 C 202.925 719, 207.397 707.979, 203.507 689.615 C 200.260 674.293, 194.447 668.385, 185.277 671.092 M 834.984 675.852 C 829.004 679.029, 827 683.104, 827 692.083 C 827 696.365, 826.310 703.151, 825.466 707.162 C 821.975 723.759, 828.287 731.975, 839.956 726.023 C 846.843 722.509, 851.773 710.437, 853.599 692.609 C 855.093 678.032, 846.106 669.942, 834.984 675.852 M 752.240 689.061 C 741.855 694.322, 737.372 718.735, 745.503 725.750 C 755.704 734.550, 774.334 713.094, 770.110 697.410 C 767.793 688.803, 759.967 685.146, 752.240 689.061 M 255.009 693.855 C 243.712 699.914, 243.137 706.406, 252.284 724.607 C 261.449 742.844, 266.568 746.457, 275.102 740.713 C 280.343 737.185, 281.290 734.321, 280.084 725.651 C 276.519 700.021, 266.709 687.581, 255.009 693.855 M 659.604 700.038 C 650.584 702.738, 647.772 709.055, 648.797 724.320 C 649.761 738.668, 651.428 742.788, 657.012 744.619 C 668.715 748.456, 679.224 732.237, 676.921 713.895 C 675.456 702.231, 669.147 697.183, 659.604 700.038 M 305.287 726.250 C 298.048 734.151, 297.331 741.959, 303.007 751.069 C 308.137 759.302, 315.102 772.829, 318.436 781.035 C 324.318 795.511, 335.559 799.084, 342.177 788.580 C 347.867 779.548, 330.748 734.471, 318.647 726.625 C 313.481 723.275, 308.150 723.125, 305.287 726.250 M 698.337 750.060 C 692 754.120, 691.759 755.132, 691.475 778.919 C 691.161 805.127, 692.487 809, 701.772 809 C 712.497 809, 717.995 795.666, 717.999 769.651 C 718.001 751.183, 709.620 742.832, 698.337 750.060 M 773.530 764.282 C 768.446 767.161, 765.459 771.632, 764.644 777.584 C 764.288 780.180, 762.647 786.516, 760.998 791.664 C 756.718 805.025, 757.550 810.387, 764.410 813.658 C 771.851 817.207, 780.157 811.530, 786.600 798.495 C 797.672 776.091, 789.669 755.141, 773.530 764.282 M 258.384 772.865 C 249.694 776.913, 245.958 785.370, 248.485 795.270 C 254.045 817.049, 257.095 822, 264.950 822 C 276.617 822, 280.592 812.942, 277.596 793.180 C 274.606 773.458, 269.256 767.800, 258.384 772.865 M 636.619 788.034 C 629.278 790.232, 626.150 796.005, 624.497 810.401 C 620.684 843.614, 645.923 845.526, 652.651 812.534 C 655.291 799.592, 653.093 792.317, 645.500 788.863 C 641.054 786.841, 640.712 786.809, 636.619 788.034 M 724.484 834.253 C 717.712 841.025, 716.462 850.420, 719.494 871.753 C 721.086 882.948, 722.727 887.120, 726.516 889.603 C 731.856 893.101, 740.676 888.088, 743.043 880.209 C 745.160 873.160, 745.519 842.648, 743.546 837.480 C 740.218 828.767, 731.453 827.283, 724.484 834.253 M 811.163 851.791 C 802.861 853.108, 796.821 864.734, 799.030 875.144 C 803.342 895.462, 820.019 892.334, 825.108 870.252 C 827.629 859.312, 820.794 850.263, 811.163 851.791 M 774.328 914.962 C 766.656 918.401, 763.470 931.362, 766.213 947.967 C 769.014 964.926, 783.839 963.497, 788.569 945.813 C 794.566 923.393, 787.871 908.891, 774.328 914.962"/>
    </g>
  </g>
</svg>
