<svg viewBox="0 0 74 74" width="74mm" height="74mm" xmlns="http://www.w3.org/2000/svg">
  <g transform="scale(0.074000)" fill-rule="evenodd">
    <g id="forma" fill="#CB3747">
      <path d="M 862.397 106.490 C 859.214 108.075, 854.810 111.835, 850.263 116.846 C 839.123 129.123, 832.912 130.631, 816.662 125 C 799.594 119.086, 792.514 124.627, 807.717 132 C 825.812 140.775, 828.134 150.888, 816.372 169.690 C 806.896 184.840, 801.693 189.143, 787.682 193.416 C 776.758 196.748, 774.435 199.459, 775.615 207.500 C 777.995 223.710, 775.834 227.008, 759.954 231.403 C 752.123 233.570, 749.642 236.479, 750.344 242.673 C 752.556 262.170, 751.994 264.034, 741.508 271.995 C 730.705 280.197, 726.773 284.858, 723.207 293.691 C 718.923 304.302, 714.377 308.998, 703.592 313.958 C 694.162 318.294, 691.601 320.997, 689.428 328.908 C 684.448 347.037, 678.608 353.584, 649.208 374 C 630.714 386.842, 588.432 409.446, 568.591 417.098 C 526.351 433.387, 457.091 435.240, 411 421.315 C 404.675 419.404, 390.369 415.174, 379.210 411.916 C 347.223 402.576, 341.806 399.735, 332.556 387.445 C 326.013 378.752, 322.762 376.619, 311.954 373.929 C 294.023 369.466, 285.364 361.452, 281.423 345.671 C 279.176 336.675, 275.579 332.773, 267.468 330.537 C 264.186 329.632, 259.475 328.163, 257 327.272 C 248.289 324.135, 233.711 307.626, 225.189 291.247 C 222.060 285.233, 219.451 281.799, 215.336 278.283 C 203.495 268.163, 200.485 265.275, 194.589 258.375 C 191.240 254.456, 186.269 247.488, 183.542 242.890 C 180.109 237.100, 175.479 231.451, 168.484 224.515 C 139.939 196.211, 120.350 158.654, 119.066 129.770 C 118.275 111.982, 116.108 110.076, 96.616 110.024 C 81.519 109.983, 70.068 117.309, 63.028 131.513 C 57.974 141.710, 60.776 165.642, 71.983 208 C 82.365 247.241, 83.159 252.894, 81.897 278.570 C 81.458 287.495, 80.561 285.413, 91.430 300.693 C 97.821 309.680, 98.831 315.461, 96.089 327.369 C 92.651 342.299, 92.779 342.784, 103.021 353.623 C 111.029 362.096, 112.394 365.601, 116.997 389.500 C 118.692 398.300, 122.179 415.850, 124.746 428.500 C 128.964 449.290, 129.396 452.695, 129.240 463.932 C 129.040 478.372, 129.988 481.438, 137.513 490.675 C 143.071 497.498, 144.424 500.069, 150.364 515.096 C 155.146 527.193, 177.240 575.565, 185.491 592 C 201.187 623.267, 232.915 675.128, 246.364 691.500 C 290.941 745.765, 312.833 764.150, 370.046 795.367 C 407.695 815.910, 459.053 833.364, 498.500 839.023 C 506.750 840.207, 520.653 842.480, 529.395 844.075 C 572.034 851.855, 619.735 847.861, 679.374 831.515 C 759.679 809.506, 810.420 745.192, 851.845 612.908 C 865.577 569.057, 882.709 488.691, 884.973 457.500 C 886.323 438.901, 887.276 433.410, 891.031 422.571 C 894.578 412.336, 894.688 409.007, 891.812 399.064 C 888.718 388.369, 888.771 374.045, 891.956 359.702 L 894.354 348.905 892.671 336.702 C 891.579 328.783, 890.990 317.839, 890.994 305.520 C 890.997 295.080, 890.490 279.230, 889.867 270.297 C 889.025 258.233, 889.024 251.003, 889.860 242.192 C 890.763 232.686, 890.706 227.963, 889.575 218.415 C 888.799 211.862, 887.865 192.325, 887.500 175 C 886.220 114.334, 884.992 108.439, 872.917 104.976 C 868.258 103.640, 868.057 103.669, 862.397 106.490"/>
    </g>
    <g id="detalles" fill="#1A1A1A">
      <path d="M 112 100.704 C 109.431 101.639, 104.946 106.273, 101.146 111.918 C 99.141 114.898, 96.401 118.948, 95.059 120.918 C 81.603 140.659, 66.779 190.678, 72.507 197.007 C 73.475 198.077, 74.677 198.700, 75.177 198.390 C 75.678 198.081, 76.751 198.379, 77.563 199.052 C 78.744 200.032, 79.398 199.950, 80.847 198.638 C 81.843 197.737, 83.361 197, 84.222 197 C 85.082 197, 86.042 196.333, 86.355 195.517 C 86.752 194.483, 87.783 194.207, 89.768 194.604 C 93.651 195.380, 94.008 194.795, 100.420 177.130 C 105.250 163.826, 108.665 155.572, 115.784 140 C 117.402 136.460, 119.283 133.642, 126.191 124.408 C 131.470 117.350, 130.969 112.487, 124.114 104.250 C 120.564 99.985, 116.913 98.916, 112 100.704 M 795.675 113.196 C 791.921 113.642, 788.176 114.681, 787.353 115.504 C 786.530 116.327, 785.268 117, 784.547 117 C 779.348 117, 776.470 129.442, 780.340 135.190 L 782.151 137.879 792.380 137.300 C 802.633 136.719, 804.642 137.102, 812.250 141.084 C 813.212 141.588, 815.013 142.520, 816.250 143.155 C 817.487 143.791, 819.175 144.692, 820 145.159 C 824.939 147.950, 837.297 153.438, 842.500 155.151 C 847.252 156.715, 859.180 163.700, 860.258 165.550 C 861.126 167.040, 867.845 169.488, 868.706 168.628 C 869.020 168.313, 870.636 169.199, 872.297 170.597 C 874.317 172.296, 876.042 172.955, 877.507 172.588 C 879.135 172.179, 879.969 172.637, 880.761 174.374 C 881.899 176.872, 888.641 178.759, 890.344 177.056 C 890.835 176.565, 892.758 176.411, 894.618 176.713 C 899.193 177.455, 898.996 175.748, 893.988 171.252 C 891.232 168.778, 890.151 167.098, 890.536 165.887 C 891.491 162.878, 875.220 147.955, 866.500 143.841 C 864.300 142.803, 860.025 140.485, 857 138.690 C 851.211 135.256, 847.231 133.538, 842.867 132.592 C 841.418 132.277, 838.817 130.698, 837.086 129.081 C 833.882 126.087, 825.266 120.406, 816.807 115.709 C 811.436 112.727, 805.531 112.024, 795.675 113.196 M 808.656 171.754 C 803.452 175.593, 801.697 179.329, 802.207 185.479 C 802.625 190.525, 802.530 190.819, 800.774 189.879 C 793.498 185.985, 779.162 185.777, 771.783 189.459 C 770.083 190.306, 767.974 191.012, 767.096 191.026 C 765.172 191.057, 762.343 196.903, 761.415 202.765 C 760.773 206.819, 763.687 211.839, 766.802 212.046 C 767.186 212.072, 771.325 212.230, 776 212.399 C 781.909 212.611, 785.872 213.329, 789 214.754 C 793.218 216.674, 813.190 228.754, 815.594 230.839 C 816.196 231.360, 818.221 232.580, 820.094 233.549 C 821.967 234.517, 824.625 236.080, 826 237.020 C 827.375 237.961, 831.200 240.441, 834.500 242.531 C 837.800 244.622, 842.750 247.757, 845.500 249.498 C 848.250 251.240, 854.852 255.440, 860.171 258.833 C 865.490 262.225, 870.190 265, 870.616 265 C 871.042 265, 872.636 266.194, 874.159 267.652 C 876.153 269.562, 877.288 270.023, 878.214 269.299 C 878.921 268.745, 882.337 268.343, 885.803 268.404 C 894.649 268.560, 899.830 261.878, 895.574 255.802 C 894.708 254.566, 894 252.769, 894 251.809 C 894 250.849, 892.010 248.587, 889.577 246.782 C 885.495 243.753, 883 240.381, 883 237.892 C 883 237.256, 884.683 237.130, 887.509 237.554 C 890.512 238.004, 892.512 237.820, 893.496 237.003 C 894.309 236.328, 895.691 236.051, 896.567 236.387 C 897.883 236.892, 898.044 236.479, 897.500 233.999 C 896.995 231.699, 897.193 231, 898.353 231 C 901.589 231, 901.273 227.038, 897.691 222.703 C 890.375 213.848, 886.266 210, 884.127 210 C 882.162 210, 878.948 207.728, 861.250 193.825 C 858.362 191.557, 856 189.345, 856 188.911 C 856 187.545, 837.574 174.141, 832.783 172.022 C 825.727 168.901, 812.719 168.756, 808.656 171.754 M 133 188.114 C 129.024 189.684, 112 207.658, 112 210.286 C 112 212.395, 93.474 241.391, 87.790 248.178 C 83.071 253.814, 76.594 266.875, 74.986 274 C 74.303 277.025, 73.127 281.197, 72.372 283.271 C 70.992 287.062, 71.747 294.391, 73.671 295.886 C 74.127 296.240, 75.676 297.557, 77.114 298.812 L 79.728 301.093 83.381 298.938 C 86.215 297.265, 87.346 297.042, 88.428 297.940 C 89.383 298.733, 90.026 298.767, 90.470 298.049 C 90.826 297.472, 92.346 297, 93.847 297 C 96.303 297, 97.109 295.961, 101.881 286.640 C 104.799 280.942, 108.269 275.111, 109.593 273.683 C 110.917 272.256, 112 270.767, 112 270.377 C 112 269.986, 115.485 264.454, 119.744 258.083 C 127.050 247.155, 132.261 238.447, 138 227.579 C 139.375 224.976, 143.322 219.307, 146.772 214.984 C 152.839 207.379, 153.021 206.981, 152.365 202.811 C 150.321 189.804, 142.928 184.194, 133 188.114 M 813 195.869 C 813 196.491, 813.421 197, 813.934 197 C 815.014 197, 832.095 208.208, 836.393 211.736 C 837.983 213.042, 841.358 215.215, 843.893 216.566 C 846.427 217.916, 852.100 221.284, 856.500 224.050 L 864.500 229.079 858.098 222.951 C 854.576 219.580, 850.930 216.525, 849.994 216.161 C 849.058 215.798, 846.989 214.499, 845.396 213.275 C 843.803 212.051, 839.575 209.107, 836 206.732 C 832.425 204.357, 827.470 200.960, 824.989 199.183 C 820.296 195.821, 813 193.805, 813 195.869 M 166.207 225.421 C 158.043 231.207, 146.756 243.357, 138.494 255.250 C 132.483 263.905, 130.548 266.554, 127.202 270.708 C 125.523 272.794, 120.299 280.125, 115.594 287 C 107.873 298.282, 103.621 304.697, 91.750 322.978 C 89.687 326.154, 87.703 330.271, 87.340 332.127 C 86.977 333.982, 85.865 337.420, 84.868 339.767 C 81.895 346.769, 84.326 354.254, 89.976 355.495 C 91.651 355.863, 93.715 356.858, 94.563 357.706 C 95.954 359.097, 96.353 359.017, 98.606 356.901 C 100.559 355.066, 101.285 354.843, 101.925 355.879 C 102.564 356.913, 103.219 356.953, 104.884 356.062 C 106.060 355.433, 107.798 355.049, 108.747 355.209 C 109.993 355.419, 111.720 353.227, 114.985 347.285 C 121.129 336.104, 124.819 330.242, 133.100 318.500 C 142.333 305.410, 165.580 270.275, 170.483 262 C 172.602 258.425, 177.468 252.421, 181.298 248.658 L 188.261 241.816 187.725 236.626 C 187.138 230.938, 183.815 224.347, 181.177 223.638 C 176.343 222.338, 169.388 223.166, 166.207 225.421 M 747.500 224.713 C 741.459 225.435, 736 232.250, 736 239.068 C 736 241.781, 736.450 244, 737 244 C 737.550 244, 738 244.563, 738 245.250 C 738 245.971, 743.603 248.313, 751.250 250.787 C 758.538 253.145, 771.025 257.918, 779 261.394 C 792.979 267.487, 793.529 267.640, 794.301 265.631 C 795.249 263.167, 797.031 265.107, 796.349 267.861 C 795.991 269.303, 822.717 284.969, 828.998 287 C 829.849 287.275, 831.659 288.303, 833.022 289.285 C 834.385 290.267, 840.425 293.984, 846.445 297.544 C 852.464 301.104, 858.421 304.987, 859.682 306.171 C 862.954 309.245, 874.837 308.583, 880 305.041 C 881.375 304.097, 883.288 303.041, 884.250 302.694 C 889.052 300.962, 882.835 287.656, 875.048 283 C 872.749 281.625, 866.510 277.618, 861.184 274.095 C 855.858 270.572, 847.225 265.346, 842 262.483 C 836.775 259.619, 830.475 256.160, 828 254.796 C 815.418 247.863, 797.617 238.943, 790.500 236.004 C 786.100 234.187, 781.082 232.093, 779.349 231.350 C 777.616 230.608, 775.926 230, 775.594 230 C 775.262 230, 772.630 228.831, 769.745 227.403 C 764.340 224.727, 755.906 223.707, 747.500 224.713 M 724.204 273.750 C 714.464 282.966, 715.722 295.094, 726.500 295.875 C 732.056 296.278, 742.718 298.571, 750.745 301.090 C 784.267 311.608, 796.364 315.886, 811.780 322.675 C 814.683 323.954, 817.358 325, 817.723 325 C 818.088 325, 821.562 326.517, 825.443 328.371 C 829.325 330.226, 835.995 333.371, 840.267 335.361 C 853.864 341.696, 880 357.285, 880 359.060 C 880 359.459, 883.038 359.679, 886.750 359.548 C 890.462 359.416, 893.995 359.688, 894.599 360.152 C 895.282 360.675, 897.065 359.668, 899.300 357.497 C 901.280 355.574, 903.302 354, 903.792 354 C 905.202 354, 903.532 345.461, 901.522 342.394 C 897.580 336.377, 884.589 326.927, 868.984 318.725 C 864.318 316.273, 856.450 312.134, 851.500 309.527 C 843.171 305.142, 812.100 292, 810.062 292 C 809.569 292, 806.991 291.022, 804.333 289.826 C 801.675 288.630, 797.700 287.104, 795.500 286.435 C 793.300 285.766, 788.949 284.249, 785.832 283.065 C 782.714 281.880, 774.839 279.315, 768.332 277.364 C 738.085 268.294, 730.617 267.683, 724.204 273.750 M 214.442 271.660 C 213.310 271.896, 209.568 274.544, 206.128 277.544 C 202.687 280.545, 199.456 283, 198.947 283 C 196.644 283, 162.609 319.027, 159.725 324.519 C 158.863 326.158, 155.980 329.975, 153.317 333 C 134.070 354.862, 119.056 382.232, 113.211 406.109 C 110.664 416.516, 116.708 424.329, 125.837 422.427 C 127.852 422.007, 129.866 421.749, 130.314 421.853 C 135.833 423.139, 141.642 418.124, 143.647 410.343 C 146.384 399.724, 163.671 371.066, 178.750 352.152 C 181.088 349.219, 183 346.420, 183 345.930 C 183 345.440, 185.767 341.993, 189.148 338.270 C 192.530 334.546, 199.842 325.886, 205.398 319.025 C 210.954 312.163, 218.520 303.372, 222.212 299.488 C 231.557 289.657, 232.699 286.636, 229.662 279.780 C 226.459 272.549, 221.885 270.108, 214.442 271.660 M 690.126 308.272 C 679.171 312.259, 678.007 333.817, 688.739 333.968 C 689.971 333.986, 693.346 334.939, 696.239 336.086 C 724.374 347.244, 737.251 351.921, 740 351.980 C 740.825 351.998, 742.850 352.718, 744.500 353.581 C 746.150 354.444, 748.748 355.310, 750.273 355.505 C 754.585 356.057, 760.034 358.020, 765.500 360.991 C 768.250 362.486, 771.911 363.977, 773.635 364.306 C 775.359 364.635, 778.419 366.023, 780.434 367.391 C 782.449 368.758, 785.764 370.419, 787.799 371.081 C 789.835 371.743, 792.388 372.896, 793.473 373.642 C 794.557 374.389, 796.190 375, 797.100 375 C 798.010 375, 799.305 375.663, 799.978 376.474 C 800.651 377.284, 802.736 378.235, 804.612 378.587 C 806.487 378.939, 808.251 379.597, 808.531 380.051 C 809.224 381.171, 821.668 387, 823.368 387 C 824.117 387, 825.803 387.818, 827.115 388.817 C 830.064 391.063, 838.493 395, 840.354 395 C 841.111 395, 842.910 395.928, 844.351 397.062 C 845.793 398.196, 852.491 402.308, 859.236 406.200 C 865.981 410.093, 874.093 415.240, 877.261 417.639 C 883.384 422.274, 884.584 422.741, 885.253 420.750 C 885.581 419.772, 886.198 419.757, 888.086 420.680 C 892.039 422.612, 901.353 421.129, 902.399 418.401 C 902.695 417.631, 903.626 417, 904.469 417 C 908.609 417, 904.470 405.979, 897.779 399.187 C 894.951 396.317, 884.433 388.864, 878.662 385.642 C 870.199 380.918, 869.477 380.481, 867.500 378.902 C 866.400 378.023, 863.475 376.529, 861 375.582 C 858.525 374.635, 853.800 372.406, 850.500 370.630 C 847.200 368.854, 840.450 365.640, 835.500 363.488 C 830.550 361.336, 824.925 358.627, 823 357.468 C 821.075 356.308, 817.667 354.639, 815.427 353.759 C 813.187 352.879, 805.762 349.441, 798.927 346.121 C 783.689 338.718, 777.428 336.154, 759.500 329.975 C 743.349 324.409, 738.870 322.724, 726.500 317.565 C 721.550 315.500, 715.919 313.158, 713.986 312.360 C 711.004 311.129, 706.116 309.840, 695.500 307.487 C 694.400 307.244, 691.982 307.597, 690.126 308.272 M 265.511 324.020 C 259.177 326.042, 253.695 328.604, 245.500 333.372 C 242.750 334.972, 238.475 337.408, 236 338.784 C 228.007 343.230, 183.185 387.044, 169.331 403.956 C 167.774 405.856, 165.476 408.522, 164.224 409.880 C 162.972 411.238, 160.947 413.655, 159.724 415.251 C 158.501 416.848, 153.433 423.182, 148.462 429.327 C 133.775 447.485, 121.993 465.496, 122.005 469.773 C 122.008 470.723, 121.267 473.572, 120.360 476.104 C 118.174 482.203, 119.099 485.335, 124.171 489.009 C 129.441 492.827, 140.107 493.376, 143.966 490.030 C 145.215 488.946, 147.058 487.799, 148.060 487.481 C 149.062 487.163, 151.558 483.907, 153.606 480.245 C 158.654 471.218, 169.043 456.105, 176.460 447 C 179.820 442.875, 184.698 436.713, 187.300 433.306 C 189.901 429.900, 192.586 426.525, 193.265 425.806 C 193.944 425.087, 196.020 422.699, 197.877 420.499 C 224.623 388.820, 268.044 351.824, 281.268 349.448 C 286.928 348.431, 289.105 345.069, 288.608 338.110 C 288.218 332.641, 286.379 327, 284.986 327 C 284.604 327, 283.078 325.875, 281.595 324.500 C 278.295 321.442, 273.988 321.313, 265.511 324.020 M 673.005 346.995 C 662.268 357.732, 665.576 369.960, 680.282 373.892 C 684.802 375.100, 692.775 377.596, 698 379.439 C 703.225 381.282, 714.250 384.927, 722.500 387.540 C 746.871 395.258, 754.917 398.473, 776.500 409.116 C 796.160 418.811, 795.385 418.368, 818 432.832 C 822.675 435.822, 828.075 439.254, 830 440.459 C 844.673 449.643, 860.316 460.520, 864.500 464.448 C 868.590 468.287, 869.813 468.948, 871.222 468.080 C 872.449 467.323, 873.663 467.345, 875.443 468.156 C 877.350 469.025, 878.292 469.002, 879.427 468.061 C 880.244 467.383, 881.385 467.120, 881.963 467.477 C 882.541 467.834, 884.320 467.196, 885.916 466.060 C 887.512 464.923, 889.534 464.268, 890.409 464.604 C 891.748 465.117, 892 464.318, 892 459.557 C 892 446.452, 882.449 438.008, 833.500 407.839 C 831.850 406.822, 828.298 404.899, 825.607 403.566 C 822.916 402.233, 818.416 399.524, 815.607 397.546 C 806.699 391.273, 802.951 389, 801.515 389 C 800.746 389, 799.881 388.617, 799.592 388.148 C 799.302 387.680, 796.913 386.493, 794.283 385.510 C 791.652 384.527, 784.433 381.307, 778.240 378.353 C 772.047 375.400, 765.297 372.356, 763.240 371.588 C 761.183 370.821, 755.675 368.747, 751 366.980 C 739.488 362.628, 703.454 350.463, 693.138 347.446 C 682.682 344.387, 675.767 344.233, 673.005 346.995 M 307 368.380 C 300.173 370.358, 291.276 374.843, 283.500 380.227 C 260.779 395.958, 260.453 396.232, 248.500 409.510 C 244.100 414.399, 238.700 420.235, 236.500 422.481 C 232.174 426.896, 220.235 440.373, 213 449.010 C 210.525 451.964, 205.907 457.333, 202.737 460.941 C 199.567 464.548, 192.632 472.675, 187.325 479 C 182.017 485.325, 173.057 495.236, 167.413 501.024 C 160.733 507.875, 156.929 512.586, 156.515 514.524 C 156.164 516.161, 155.222 518.996, 154.420 520.823 C 151.182 528.206, 156.748 536, 165.260 536 C 167.647 536, 170.104 536.504, 170.719 537.119 C 172.262 538.662, 181.823 533.119, 186.069 528.222 C 187.843 526.175, 191.816 521.787, 194.898 518.470 C 197.979 515.154, 202.075 510.489, 204 508.103 C 205.925 505.718, 208.693 502.356, 210.150 500.633 C 226.957 480.764, 229.865 477.301, 239.650 465.500 C 242.842 461.650, 248.839 455.119, 252.977 450.986 C 259.727 444.244, 282.748 419.827, 284 418.082 C 284.982 416.714, 300.613 404.337, 306.817 400.016 C 312.901 395.779, 313.478 395.594, 322.482 395.001 C 335.400 394.151, 338.268 391.831, 337.321 383 C 335.972 370.422, 322.451 363.902, 307 368.380 M 615.750 384.572 C 607.143 389.241, 607.247 404.642, 615.914 408.879 C 618.436 410.113, 622.750 412.419, 625.500 414.005 C 633.482 418.609, 650.142 426.653, 654.500 428.009 C 656.700 428.693, 659.175 429.813, 660 430.498 C 662.842 432.857, 665.756 433.932, 673.616 435.522 C 682.628 437.345, 688.996 439.550, 699.642 444.535 C 704.335 446.732, 709.193 448.207, 712.677 448.492 C 715.733 448.743, 718.743 449.351, 719.366 449.844 C 719.990 450.336, 722.075 451.219, 724 451.806 C 735.677 455.364, 755.235 461.254, 759.500 462.496 C 769.837 465.508, 774.751 467.191, 783.500 470.719 C 788.450 472.714, 792.927 474.719, 793.450 475.174 C 793.972 475.628, 795.347 476, 796.505 476 C 800.828 476, 832 493.152, 832 495.530 C 832 496.323, 833.755 498.133, 835.899 499.552 C 839.414 501.878, 839.916 502.757, 840.995 508.475 C 842.265 515.205, 843.084 515.955, 849.191 515.986 C 850.671 515.994, 852.173 516.471, 852.529 517.047 C 852.948 517.725, 854.341 517.406, 856.483 516.142 C 858.990 514.663, 860.077 514.470, 860.973 515.345 C 861.873 516.224, 862.914 515.604, 865.328 512.750 C 867.073 510.687, 869.063 509, 869.750 509 C 871.237 509, 871.394 504.498, 870.049 500.399 C 869.526 498.805, 868.589 495.516, 867.967 493.090 C 865.029 481.628, 839.799 464.230, 809 452.427 C 805.425 451.057, 801.226 449.276, 799.669 448.468 C 798.112 447.661, 796.236 447, 795.501 447 C 794.766 447, 791.990 445.910, 789.332 444.577 C 783.724 441.766, 777.924 439.554, 769.500 437.014 C 766.200 436.019, 762.150 434.676, 760.500 434.029 C 758.850 433.382, 755.700 432.479, 753.500 432.022 C 751.300 431.565, 748.150 430.691, 746.500 430.080 C 744.850 429.469, 731.350 424.952, 716.500 420.043 C 691.559 411.799, 680.673 407.828, 669 402.719 C 666.525 401.635, 662.475 400.142, 660 399.400 C 657.525 398.659, 651 395.763, 645.500 392.965 C 626.863 383.485, 620.871 381.794, 615.750 384.572 M 387.121 432.710 C 381.608 435.426, 380.561 439.357, 381.777 452.776 C 382.778 463.816, 383.860 467, 386.614 467 C 387.367 467, 388.549 467.933, 389.242 469.072 C 389.934 470.212, 391.962 471.764, 393.750 472.521 C 395.538 473.278, 397 474.371, 397 474.949 C 397 477.129, 402.737 475.991, 405.456 473.272 C 408.519 470.208, 408.511 467.661, 405.378 448.500 C 403.107 434.606, 395.909 428.381, 387.121 432.710 M 336.513 433.507 C 331.081 435.442, 330 437.305, 330 444.731 C 330 458.149, 343.182 472.670, 349.869 466.619 C 350.853 465.728, 352.379 465, 353.261 465 C 355.622 465, 356.106 462.242, 354.929 455.500 C 354.354 452.200, 353.624 447.810, 353.309 445.744 C 352.882 442.947, 351.429 440.715, 347.618 436.997 C 341.944 431.464, 342.108 431.515, 336.513 433.507 M 565.329 433.875 C 556.564 436.399, 552.162 460.776, 558.514 471.613 C 559.927 474.026, 561.530 476, 562.074 476 C 564.203 476, 570 473.040, 570 471.952 C 570 471.320, 571.444 469.454, 573.208 467.806 C 575.713 465.466, 576.563 463.681, 577.087 459.655 C 577.457 456.820, 578.085 452.470, 578.483 449.990 C 580.208 439.232, 573.835 431.424, 565.329 433.875 M 648.217 441.561 C 643.481 444.878, 640.134 459.044, 642.847 464.289 C 643.477 465.505, 644.345 468.271, 644.777 470.436 C 645.565 474.382, 646.378 475.143, 654.404 479.444 C 660.361 482.636, 665.058 479.151, 666.975 470.116 C 670.630 452.894, 658.468 434.381, 648.217 441.561 M 493.381 442.162 C 485.806 445.832, 484.837 457.476, 490.297 479.254 C 492.820 489.317, 499.429 496.536, 501.405 491.387 C 501.794 490.373, 502.753 489.964, 503.983 490.285 C 510.486 491.986, 513 457.068, 507.152 446.260 C 504.788 441.891, 498.068 439.891, 493.381 442.162 M 707.731 456.693 C 704.029 457.658, 700.765 467.233, 700.765 477.127 C 700.765 482.937, 705.441 491, 708.811 491 C 709.426 491, 710.411 491.900, 711 493 C 713.962 498.535, 724 491.112, 724 483.387 C 724 481.877, 724.517 479.211, 725.150 477.463 C 726.082 474.884, 725.957 473.022, 724.488 467.595 C 721.794 457.640, 716.733 454.347, 707.731 456.693 M 606.500 469.930 C 600.698 470.916, 591.072 478.249, 590.981 481.753 C 590.954 482.766, 588.567 498.672, 586.065 514.500 C 584.826 522.343, 583.606 537.220, 582.989 552 C 582.427 565.475, 581.734 577.141, 581.448 577.924 C 581.163 578.708, 580.683 595.133, 580.382 614.424 C 580.081 633.716, 579.460 649.889, 579.002 650.365 C 577.972 651.436, 576.312 648.266, 570.633 634.378 C 559.608 607.420, 557.003 604.013, 546.285 602.539 L 541.140 601.832 535.754 606.937 C 530.291 612.114, 529.300 614.312, 527.540 625.150 C 526.792 629.756, 524.494 631.953, 522.555 629.914 C 520.759 628.024, 509.970 599.690, 509.304 595.114 C 508.618 590.399, 502.005 583.876, 497.587 583.555 C 495.889 583.432, 493.293 582.990, 491.818 582.574 C 489.793 582.003, 488.770 582.268, 487.638 583.659 C 486.813 584.671, 484.988 586.908, 483.582 588.629 C 482.176 590.350, 478.984 595.727, 476.488 600.578 C 470.134 612.928, 466.741 616.075, 465.524 610.750 C 459.027 582.326, 457.313 529.456, 462.089 504.808 C 464.975 489.916, 452.164 478.698, 440.922 486.274 C 436.818 489.039, 430.389 497.343, 429.596 500.901 C 429.278 502.331, 428.544 505.750, 427.965 508.500 C 425.418 520.594, 427.290 569.206, 430.969 586.500 C 433.538 598.580, 435.737 610.416, 436.542 616.500 C 436.905 619.250, 438.492 628.025, 440.068 636 C 450.142 686.984, 452.167 691.806, 463.751 692.381 L 469.879 692.686 474.905 687.593 L 479.932 682.500 479.895 675 C 479.858 667.527, 481.644 660.630, 487.984 643.750 C 490.706 636.503, 493.168 636.219, 496.797 642.734 C 497.734 644.416, 500.122 648.202, 502.105 651.146 C 513.225 667.661, 529.693 695.473, 530.514 699.124 C 531.604 703.975, 544.443 712.501, 549.114 711.475 C 556.715 709.806, 560.129 700.257, 556.951 689.554 C 554.858 682.504, 554.822 679, 556.841 679 C 558.094 679, 567.736 691.180, 572.532 698.822 C 602.817 747.073, 629.079 747.242, 620.181 699.129 C 619.608 696.033, 618.631 689.675, 618.009 685 C 617.388 680.325, 616.223 673.042, 615.422 668.815 C 614.621 664.589, 613.756 658.514, 613.499 655.315 C 613.242 652.117, 612.748 647.421, 612.401 644.880 C 611.821 640.640, 613.669 636.508, 614.727 639.681 C 617.757 648.771, 629.031 640.886, 633.575 626.500 C 640.923 603.231, 630.756 583.222, 615.530 590.985 C 610.343 593.629, 610.577 595.037, 611.917 569.283 C 613.650 535.967, 614.905 525.310, 620.629 495.310 C 622.708 484.413, 621.485 478.109, 616.255 472.750 C 614.241 470.688, 612.123 469.056, 611.547 469.125 C 610.971 469.194, 608.700 469.556, 606.500 469.930 M 348.500 505.571 C 340.907 507.422, 318.799 507.578, 295.988 505.941 C 259.827 503.347, 244.084 506.587, 244.015 516.639 C 244.007 517.816, 243.213 519.750, 242.250 520.937 C 240.986 522.497, 240.594 524.432, 240.837 527.906 L 241.174 532.716 247.607 535.358 C 251.145 536.811, 255.756 538, 257.853 538 C 259.951 538, 261.896 538.230, 262.177 538.510 C 262.457 538.791, 269.576 539.219, 277.995 539.461 C 293.907 539.920, 296.527 540.628, 293.780 543.726 C 287.984 550.265, 284.953 559.529, 285.627 568.644 C 286.582 581.539, 288.333 584.471, 308.057 606.208 C 314.126 612.896, 323.109 617.018, 331.521 616.974 C 349.960 616.879, 358.462 578.517, 343.424 563.264 C 340.991 560.796, 339 558.169, 339 557.427 C 339 556.685, 336.975 553.592, 334.500 550.553 C 328.018 542.596, 328.284 542, 338.316 542 C 361.155 542, 374.007 534.531, 373.996 521.264 C 373.987 509.045, 362.712 502.105, 348.500 505.571 M 536.091 509.090 C 528.695 512.047, 525.084 538.846, 531.445 543.568 C 532.236 544.155, 533.407 547.755, 534.047 551.568 C 535.916 562.699, 539.321 566.834, 545.273 565.202 C 556.712 562.065, 558.947 524.476, 548.426 512.185 C 544.638 507.759, 541.431 506.955, 536.091 509.090 M 668.500 509.960 C 649.023 513.036, 637.388 517.417, 633.469 523.148 C 628.791 529.990, 628.304 535.547, 632.073 539.068 C 633.683 540.572, 635 542.297, 635 542.901 C 635 543.506, 636.013 544.003, 637.250 544.006 C 638.487 544.010, 640.789 544.685, 642.364 545.506 C 646.788 547.813, 662.098 546.495, 672.500 542.911 C 677.195 541.294, 695 540.466, 695 541.865 C 695 542.501, 692.257 547.054, 688.903 551.983 C 679.679 565.542, 678.166 581.053, 685.331 588.607 C 687.074 590.445, 689.584 593.111, 690.910 594.531 C 695.966 599.950, 709.539 603.354, 717.081 601.094 C 734.684 595.820, 745.855 561.106, 733.552 549.911 C 725.343 542.441, 732.753 541.960, 748.500 548.942 C 749.600 549.430, 754.325 551.045, 759 552.532 C 763.675 554.018, 768.797 555.899, 770.382 556.711 C 781.420 562.367, 791.481 549.962, 786.065 537.373 C 777.396 517.221, 714.855 502.638, 668.500 509.960 M 814.194 516.750 C 804.662 530.248, 806.391 539.016, 819.576 544.029 C 824.583 545.933, 836.409 535.064, 834.541 530.275 C 834.160 529.299, 833.646 526.700, 833.398 524.500 C 832.384 515.496, 818.917 510.062, 814.194 516.750 M 483.949 523.579 C 476.206 526.798, 474.006 538.202, 479.177 548.323 C 483.263 556.321, 484.557 558.291, 487.170 560.489 C 493.371 565.708, 499 556.573, 499 541.290 C 499 527.247, 492.768 519.913, 483.949 523.579 M 209.500 550.035 C 200.467 552.041, 199.340 553.167, 198.572 560.963 C 198.024 566.530, 198.196 568.650, 199.339 570.395 C 200.150 571.632, 201.374 574.515, 202.058 576.800 C 202.972 579.851, 205.223 582.757, 210.525 587.728 C 221.262 597.797, 223.171 598.928, 225.788 596.767 C 226.633 596.070, 228.211 595.500, 229.297 595.500 C 232.642 595.500, 233.606 592.695, 232.116 587.292 C 231.390 584.656, 230.199 579.731, 229.470 576.347 C 225.633 558.533, 217.786 548.195, 209.500 550.035 M 386.315 560.464 C 377.746 564.191, 379.009 584.505, 388.430 594.495 C 390.188 596.358, 392.132 598.995, 392.752 600.355 C 394.230 603.599, 397.616 604.658, 399.900 602.590 C 400.867 601.716, 402.357 601, 403.212 601 C 405.697 601, 405.970 597.541, 404.486 584.876 C 402.009 563.747, 396.325 556.110, 386.315 560.464 M 264.225 587.709 C 260.433 588.437, 258.495 592.613, 258.542 599.956 C 258.621 612.274, 267.785 625.531, 288.750 643.660 C 293.729 647.966, 293.739 648.026, 290.496 654.419 C 285.232 664.796, 290.724 673.608, 308.840 683.850 C 312.876 686.133, 316.441 688, 316.761 688 C 317.081 688, 320.155 689.125, 323.591 690.500 C 346.648 699.724, 361.755 698.645, 367.409 687.372 C 368.272 685.652, 370.108 683.504, 371.489 682.599 C 373.600 681.216, 374 680.180, 374 676.094 C 374 670.941, 373.010 670.049, 367.250 670.014 C 363.813 669.993, 364.409 666.552, 368.250 664.248 C 371.346 662.390, 373.740 658.813, 375.956 652.732 C 376.510 651.210, 378.103 649.531, 379.494 649.002 C 383.284 647.561, 384.702 643.721, 382.619 640.541 C 380.610 637.475, 382.602 637.728, 359.500 637.603 C 347.547 637.538, 339.202 637.053, 337 636.295 C 335.075 635.632, 331.072 634.364, 328.104 633.477 C 306.988 627.165, 286.848 612.362, 277.987 596.639 C 274.977 591.298, 270.018 586.806, 267.500 587.140 C 266.950 587.213, 265.476 587.469, 264.225 587.709 M 840.070 593.098 C 836.387 594.570, 832.729 600.366, 828.565 611.334 C 827.277 614.725, 825.636 618.932, 824.918 620.683 C 823.804 623.398, 823.848 624.352, 825.219 627.183 C 826.102 629.007, 827.371 632.366, 828.038 634.646 C 831.023 644.847, 842 647.834, 842 638.445 C 842 636.304, 846.706 628.550, 850.085 625.122 C 857.504 617.598, 859.847 600.930, 854.022 597.121 C 852.659 596.229, 850.746 594.712, 849.772 593.750 C 847.839 591.841, 843.882 591.575, 840.070 593.098 M 776.081 607.072 C 774.538 608.762, 772.088 610.787, 770.637 611.572 C 769.187 612.358, 766.763 613.672, 765.250 614.494 C 763.737 615.315, 761.768 615.990, 760.872 615.994 C 759.977 615.997, 758.687 616.672, 758.005 617.493 C 751.904 624.845, 722.344 625.138, 706.577 618.003 C 680.969 606.414, 673.450 605.300, 669.038 612.439 C 664.230 620.218, 669.547 633.643, 678.185 635.541 C 679.891 635.915, 682.910 636.930, 684.893 637.794 C 686.877 638.659, 691.844 640.747, 695.932 642.433 C 703.962 645.747, 705.622 647.555, 701.568 648.572 C 694.161 650.431, 691.407 659.436, 695.576 668.159 C 699.543 676.459, 697.810 675.547, 722 682.066 C 738.519 686.518, 752.990 684.672, 763.144 676.818 C 765.148 675.268, 767.215 674, 767.736 674 C 769.842 674, 773.424 662.763, 774.590 652.500 C 775.845 641.450, 780.014 618.539, 781.960 612.007 C 784.442 603.671, 781.468 601.174, 776.081 607.072 M 241.750 643.751 L 237 645.351 237 651.860 C 237 656.084, 237.653 659.795, 238.861 662.434 C 239.885 664.670, 242.473 670.717, 244.611 675.870 C 248.596 685.472, 260.112 698, 264.953 698 C 265.859 698, 267.117 698.517, 267.749 699.149 C 269.826 701.226, 274.140 697.500, 273.455 694.219 C 272.046 687.471, 270.657 682.906, 269.863 682.415 C 269.388 682.122, 269 680.853, 269 679.595 C 269 674.922, 260.345 653.244, 257.047 649.656 C 255.957 648.470, 254.263 646.507, 253.283 645.293 C 250.867 642.302, 247.420 641.841, 241.750 643.751 M 400.727 646 C 399.329 647.100, 397.723 648, 397.160 648 C 394.271 648, 394.786 658.046, 397.954 663.500 C 398.913 665.150, 400.960 669.544, 402.504 673.263 C 405.520 680.529, 415.573 691.174, 420.613 692.439 C 427.387 694.139, 429.708 687.303, 425.428 678.256 C 424.013 675.266, 422.168 669.147, 421.328 664.660 C 418.531 649.731, 408.051 640.239, 400.727 646 M 728 652.402 C 728 655.625, 737.737 656.972, 743.532 654.551 C 749.494 652.060, 747.694 651, 737.500 651 C 730.017 651, 728 651.298, 728 652.402 M 709 689.721 C 701.749 691.022, 693.727 717.934, 697.441 728.500 C 699.055 733.091, 699.660 733.502, 704.604 733.371 C 710.663 733.210, 715.493 728.400, 721.523 716.519 C 731.002 697.844, 725.797 686.707, 709 689.721 M 491.322 698.858 C 481.860 703.747, 481.450 706.107, 486.493 726.663 C 489.111 737.333, 493.118 742.547, 500.606 745.030 C 506.491 746.981, 513.214 741.373, 509.850 737.319 C 509.193 736.528, 508.515 732.233, 508.343 727.773 C 507.993 718.706, 505.694 708.425, 503.468 705.964 C 502.660 705.072, 502 704.034, 502 703.657 C 502 702.855, 495.736 697.021, 495 697.138 C 494.725 697.181, 493.070 697.955, 491.322 698.858 M 663.500 702.243 C 661.850 702.809, 659.983 703.405, 659.351 703.566 C 658.719 703.728, 657.646 705.579, 656.967 707.680 C 656.288 709.781, 654.272 714.650, 652.489 718.500 C 646 732.503, 646.448 738.946, 654.188 742.981 C 664.751 748.487, 679.590 732.880, 680.183 715.641 L 680.419 708.781 676.248 704.891 C 671.843 700.782, 669.296 700.253, 663.500 702.243 M 393 702.683 C 384.532 704.072, 383.030 705.703, 383.034 713.500 C 383.036 719.622, 384.916 723.690, 390.500 729.660 C 391.600 730.836, 393.625 733.406, 395 735.371 C 396.375 737.337, 397.878 738.957, 398.341 738.972 C 398.804 738.988, 401.022 740.575, 403.271 742.500 C 407.689 746.282, 409.024 746.585, 413.857 744.900 C 417.761 743.539, 418.794 740.194, 416.684 735.742 C 415.839 733.959, 414.175 729.350, 412.988 725.500 C 408.835 712.039, 405.006 705.943, 399.128 703.438 C 397.273 702.647, 395.698 702.061, 395.628 702.136 C 395.558 702.211, 394.375 702.457, 393 702.683 M 775.435 713.710 C 772.796 714.045, 771.994 714.919, 769.658 720.008 C 768.166 723.259, 765.383 727.965, 763.473 730.468 C 761.563 732.970, 760 735.986, 760 737.171 C 760 738.355, 758.881 741.235, 757.512 743.569 C 751.838 753.252, 763.790 761.827, 773.726 755.201 C 789.580 744.630, 798.542 726.855, 791.890 719.174 C 786.357 712.785, 785.348 712.450, 775.435 713.710 M 323.041 729.798 C 316.160 733.184, 317.021 743.733, 324.841 751.864 C 327.679 754.814, 330 757.739, 330.001 758.364 C 330.002 760.510, 338.949 770.957, 340.332 770.426 C 341.073 770.142, 342.257 770.604, 342.962 771.454 C 343.668 772.305, 345.738 773, 347.563 773 C 349.389 773, 351.188 773.495, 351.562 774.101 C 351.964 774.751, 353.504 774.949, 355.322 774.586 C 361.108 773.428, 361.507 769.420, 356.466 763.079 C 354.534 760.648, 352.675 757.554, 352.336 756.204 C 351.998 754.854, 350.321 751.582, 348.610 748.931 C 346.900 746.281, 343.504 740.952, 341.065 737.090 C 335.281 727.932, 330.646 726.056, 323.041 729.798 M 471.502 733.996 C 471.161 734.548, 470.015 735, 468.954 735 C 464.075 735, 462.486 747.855, 466.445 755.301 C 467.790 757.831, 469.209 761.610, 469.598 763.700 C 469.987 765.790, 471.361 769.075, 472.651 771 C 473.940 772.925, 476.106 776.152, 477.463 778.171 C 480.040 782.008, 483.112 783.667, 485.223 782.362 C 485.906 781.940, 487.302 781.533, 488.324 781.458 C 490.939 781.265, 491.852 779.326, 491.309 775.121 C 491.052 773.130, 490.633 766.775, 490.379 761 C 489.728 746.228, 485.391 735.732, 479.430 734.502 C 478.094 734.226, 475.903 733.773, 474.561 733.496 C 473.220 733.219, 471.843 733.444, 471.502 733.996 M 551.500 747.685 C 547.032 750.076, 547.032 750.076, 547.015 769.688 L 547 787.877 549.750 790.813 C 553.324 794.629, 556.228 796.095, 558.020 794.987 C 558.836 794.483, 559.899 794.501, 560.535 795.029 C 564.391 798.230, 568.354 787.881, 569.736 771 C 571.310 751.760, 563.219 741.415, 551.500 747.685 M 406 762.472 C 404.625 763.265, 402.500 764.368, 401.278 764.922 C 397.392 766.684, 397.412 779.215, 401.308 783.923 C 402.026 784.790, 403.190 786.850, 403.895 788.500 C 408.739 799.832, 415.350 804.742, 424.187 803.570 C 433.448 802.341, 433.379 797.174, 423.832 777 C 419.182 767.173, 417.855 765.479, 412.790 762.894 C 408.396 760.651, 409.082 760.694, 406 762.472 M 686.851 763.129 C 685.280 763.704, 683.693 765.402, 682.952 767.300 C 682.265 769.060, 680.448 772.525, 678.914 775 C 675.316 780.805, 670.720 795.120, 672.032 796.432 C 672.565 796.965, 673.003 798.098, 673.006 798.950 C 673.010 799.803, 674.396 801.288, 676.087 802.250 C 687.963 809.009, 706 791.536, 706 773.272 C 706 765.403, 695.632 759.911, 686.851 763.129 M 611.500 766.672 C 608.210 767.566, 607.193 768.900, 606.450 773.294 C 606.062 775.593, 605.123 779.235, 604.363 781.388 C 601.929 788.286, 600.785 806.742, 602.618 809.540 C 603.473 810.844, 603.883 812.381, 603.528 812.954 C 601.681 815.943, 609.733 821.984, 615.576 821.993 C 624.509 822.008, 630.005 805.404, 629.975 778.500 C 629.965 770.015, 620.798 764.146, 611.500 766.672 M 502.500 797.958 C 494.033 800.546, 493.488 801.897, 494.312 818.271 C 495.076 833.481, 498.781 838.018, 509.090 836.370 C 514.539 835.498, 515.987 832.863, 518.678 818.930 C 520.430 809.855, 509.582 795.792, 502.500 797.958"/>
    </g>
  </g>
</svg>
