<svg viewBox="0 0 74 74" width="74mm" height="74mm" xmlns="http://www.w3.org/2000/svg">
  <g transform="scale(0.074000)" fill-rule="evenodd">
    <g id="forma" fill="#CB3747">
      <path d="M 902.500 90.416 C 888.371 94.773, 879.976 104.567, 878 119 C 876.649 128.867, 874.660 133.145, 868.013 140.486 C 860.480 148.804, 859.847 150.566, 859.603 163.878 C 859.354 177.524, 857.517 182.451, 848.976 192.379 C 841.678 200.862, 840.802 203.059, 839.968 214.987 C 839.083 227.651, 836.967 233.741, 828.833 247.033 C 823.586 255.608, 822.746 257.769, 820.560 268.311 C 817.869 281.289, 816.585 285.088, 807.989 305.500 C 804.746 313.200, 799.768 325.800, 796.927 333.500 C 794.085 341.200, 789.628 351.775, 787.022 357 C 784.416 362.225, 781.265 369.650, 780.019 373.500 C 774.196 391.501, 766.653 397.657, 757.416 391.948 C 752.582 388.960, 749.811 382.322, 743.457 358.500 C 740.376 346.950, 734.772 326.700, 731.002 313.500 C 727.233 300.300, 721.884 281.123, 719.115 270.885 C 716.346 260.647, 712.754 248.272, 711.134 243.385 C 709.513 238.498, 707.007 228.762, 705.565 221.748 C 702.927 208.917, 698.784 194.705, 688.001 161.500 C 684.786 151.600, 681.215 140.301, 680.065 136.391 C 674.758 118.337, 658.490 115.144, 649.113 130.317 C 646.293 134.880, 635.580 163.155, 632.683 173.681 C 631.348 178.531, 627.304 190.375, 623.696 200 C 610.874 234.208, 604.433 259.401, 585.474 349.500 C 569.322 426.261, 563.614 438.802, 550.033 427.374 C 545.810 423.821, 526 371.379, 526 363.753 C 526 363.279, 523.243 356.054, 519.874 347.696 C 511.629 327.245, 502.200 297.478, 494.946 269 C 491.654 256.075, 486.298 237.625, 483.044 228 C 479.790 218.375, 475.771 205.325, 474.112 199 C 472.454 192.675, 470.378 185.475, 469.498 183 C 468.619 180.525, 466.773 173.100, 465.397 166.500 C 459.570 138.565, 452.479 116.468, 447.637 111.155 C 433.191 95.304, 415.293 116.358, 407.898 157.900 C 406.762 164.280, 404.776 174.450, 403.484 180.500 C 402.192 186.550, 399.972 199.701, 398.550 209.724 C 397.128 219.748, 395.092 232.195, 394.024 237.384 C 392.956 242.574, 391.389 252.373, 390.542 259.160 C 389.695 265.947, 387.425 279.150, 385.499 288.500 C 381.248 309.128, 371.541 371.927, 370.042 388.500 C 365.561 438.020, 356.627 439.806, 312.500 400.002 C 275.870 366.960, 256.963 346.422, 248.891 330.907 C 244.929 323.292, 242.814 320.944, 231.077 311.131 C 228.203 308.728, 220.635 300.178, 214.259 292.131 C 207.883 284.084, 199.221 273.900, 195.011 269.500 C 190.800 265.100, 182.819 256.325, 177.274 250 C 171.729 243.675, 163.284 234.675, 158.507 230 C 153.730 225.325, 147.655 218.322, 145.007 214.439 C 139.631 206.552, 135.702 202.782, 127.251 197.401 C 124.088 195.387, 115.177 187.523, 107.449 179.926 C 82.102 155.007, 64.932 150.703, 55.310 166.855 C 50.184 175.461, 49.625 180.150, 52.099 193.827 C 53.748 202.949, 54.241 209.984, 54.355 226.014 L 54.500 246.527 60.181 258.014 C 70.655 279.191, 72.855 291.328, 68.606 304.500 C 64.347 317.705, 65.241 321.279, 75.491 332 C 84.026 340.927, 91 363.566, 91 382.344 C 91 394.974, 92.151 398.486, 98.429 405 C 113.557 420.698, 125.292 451.504, 121.614 465.863 C 118.190 479.227, 119.661 483.516, 130.385 491.447 C 142.071 500.090, 148.188 512.314, 149.428 529.504 C 150.523 544.669, 150.272 544.080, 160.141 554.706 C 171.660 567.110, 192.366 601.135, 203.470 625.906 C 226.907 678.189, 259.349 726.573, 294.054 761 C 359.689 826.111, 372.384 837.326, 397.699 852.566 C 451.155 884.747, 507.115 900.567, 571.500 901.701 C 668.439 903.408, 725.531 882.862, 767.830 831.049 C 772.566 825.247, 781.896 813.975, 788.562 806 C 853.998 727.717, 864.607 706.647, 890.976 602.611 C 906.700 540.571, 911.638 512.525, 916.963 455 C 922.883 391.049, 923.448 387.200, 928.562 375.867 C 933.266 365.442, 933.688 361.220, 931.117 350.268 C 927.620 335.376, 928.774 318.431, 934.270 303.958 C 938.469 292.899, 938.521 290.618, 934.894 276.328 C 931.777 264.042, 931.632 262.613, 931.465 242.500 C 930.970 182.746, 927.784 132.473, 922.876 107 C 920.346 93.865, 912.368 87.373, 902.500 90.416"/>
    </g>
    <g id="detalles" fill="#1A1A1A">
      <path d="M 883.395 93.081 C 879.340 94.258, 870.345 103.152, 869.550 106.771 C 867.390 116.609, 878.528 123.411, 892.960 121.068 C 900.277 119.879, 901.271 119.938, 906.923 121.894 C 931.999 130.572, 933.978 104.571, 909.013 94.427 C 902.638 91.837, 889.977 91.172, 883.395 93.081 M 409.805 135.608 C 402.536 140.221, 402.095 141.535, 400.957 162 C 400.452 171.075, 399.747 182.122, 399.390 186.550 C 397.480 210.266, 420.549 217.341, 428.237 195.398 C 431.339 186.546, 432.083 145.285, 429.237 140 C 425.069 132.260, 417.703 130.595, 409.805 135.608 M 872 134.944 C 861.526 136.100, 849.958 143.334, 848.352 149.733 C 845.928 159.390, 856.429 165.537, 872.521 163.881 C 878.777 163.237, 891.459 162.962, 902 163.241 C 912.175 163.511, 921.726 163.455, 923.225 163.116 C 926.008 162.487, 932 154.509, 932 151.432 C 932 148.989, 927.147 140.148, 925.251 139.139 C 919.386 136.017, 886.068 133.391, 872 134.944 M 669.696 149.978 L 665 152.956 665 159.821 C 665 164.139, 665.758 168.879, 667.042 172.593 C 668.165 175.842, 669.943 181.650, 670.992 185.500 C 672.990 192.831, 678.375 209.336, 682.861 221.880 C 685 227.862, 686.012 229.441, 688.203 230.211 C 689.780 230.766, 691.984 233.003, 693.495 235.581 C 696.406 240.549, 696.621 240.653, 699.175 238.341 C 700.680 236.980, 701.464 236.890, 703.551 237.841 C 708.567 240.127, 711 237.377, 711 229.422 C 711 227.619, 711.675 225.468, 712.500 224.643 C 714.604 222.539, 714.696 222.981, 707.559 201.176 C 704.017 190.354, 699.716 176.325, 698.001 170 C 692.264 148.841, 682.443 141.894, 669.696 149.978 M 635.636 154.506 C 634.060 155.328, 632.158 156, 631.409 156 C 628.147 156, 626.986 160.456, 626.430 175.092 C 626.115 183.406, 625.092 193.095, 624.012 198 C 618.239 224.210, 618.273 226.512, 624.482 230.580 C 625.824 231.459, 627.195 233.039, 627.528 234.089 C 628.020 235.640, 629.092 236, 633.210 236 C 647.316 236, 655.597 213.856, 655.274 177 L 655.121 159.500 651.575 156.250 C 647.517 152.530, 640.828 151.798, 635.636 154.506 M 71.500 159.320 C 59.101 163.936, 46.045 170.368, 42.746 173.485 C 38.698 177.311, 39.626 185.944, 44.609 190.813 C 46.474 192.635, 48.005 194.435, 48.011 194.813 C 48.018 195.191, 49.765 196.334, 51.895 197.354 C 56.333 199.479, 56.674 199.410, 69.500 193.755 C 74.450 191.572, 81.875 188.656, 86 187.275 C 98.344 183.140, 101.885 180.069, 103.349 172.222 C 105.880 158.663, 90.260 152.335, 71.500 159.320 M 448 159.329 L 443.500 162.660 443.209 170.293 C 442.681 184.110, 453.676 219.363, 461.084 227.604 C 463.113 229.862, 465.065 232.630, 465.422 233.755 C 466.155 236.065, 469.453 237.217, 472.813 236.339 C 474.206 235.974, 475.761 236.379, 476.888 237.399 C 480.369 240.549, 483.679 236.951, 481.641 232.231 C 480.837 230.367, 481.138 229.465, 483.331 227.176 C 486.892 223.459, 486.792 219.436, 482.874 208.904 C 479.069 198.674, 476.589 190.077, 474.389 179.500 C 469.944 158.123, 459.949 150.483, 448 159.329 M 844.564 189.123 C 837.237 190.841, 830.012 198.324, 830.004 204.203 C 829.992 212.942, 837.174 216.876, 854.175 217.442 C 871.627 218.024, 890.668 223.708, 912.058 234.723 C 924.381 241.069, 937 243.993, 937 240.503 C 937 239.721, 938.163 238.003, 939.584 236.685 C 942.355 234.115, 942.076 230.677, 938.431 222.500 C 937.695 220.850, 936.704 218.171, 936.229 216.546 C 934.908 212.032, 903.546 196.461, 888.312 192.755 C 868.730 187.990, 854.454 186.805, 844.564 189.123 M 114.500 196.456 C 92.028 202.300, 90.163 202.893, 83.170 206.414 C 72.316 211.880, 46.058 231.215, 45.978 233.800 C 45.967 234.185, 45.798 237.875, 45.603 242 C 45.273 249.006, 45.432 249.708, 48.009 252.653 C 49.527 254.387, 50.933 256.187, 51.134 256.653 C 51.335 257.119, 53.010 258.561, 54.856 259.858 L 58.212 262.216 65.653 258.388 C 69.745 256.283, 75.435 252.491, 78.297 249.962 C 83.651 245.231, 93.625 238.091, 100.267 234.234 C 104.765 231.623, 114.525 228.622, 125.500 226.477 C 142.506 223.152, 149.681 217.443, 148.770 207.962 C 147.457 194.289, 136.710 190.680, 114.500 196.456 M 397.500 234.068 C 395.850 235.125, 393.518 235.992, 392.317 235.995 C 390.996 235.998, 389.877 236.811, 389.482 238.057 C 389.123 239.189, 387.806 240.504, 386.555 240.979 C 383.087 242.297, 382.733 246.739, 384.653 264.810 C 386.123 278.652, 386.194 282.134, 385.118 287.810 C 384.420 291.490, 383.470 296.525, 383.005 299 C 382.178 303.407, 384.772 312, 386.929 312 C 387.341 312, 388.177 313.094, 388.787 314.431 C 391.322 319.995, 402.256 319.026, 408.545 312.680 C 416.824 304.324, 420.042 276.804, 415.640 252 C 413.646 240.768, 413.579 240.631, 407.762 236 C 402.092 231.485, 401.659 231.404, 397.500 234.068 M 836.500 241.657 C 823.794 243.172, 812 251.082, 812 258.088 C 812 268.506, 818.358 271.234, 843 271.389 C 865.512 271.532, 880.210 276.043, 905.642 290.616 C 911.770 294.127, 917.079 297, 917.440 297 C 917.801 297, 920.443 298.501, 923.310 300.336 C 929.417 304.242, 939.005 305.904, 941.071 303.415 C 941.723 302.629, 943.436 301.410, 944.878 300.705 C 948.169 299.096, 948.200 290.936, 944.929 287.436 C 942.473 284.807, 942.506 284.220, 945.241 282.006 L 947.482 280.191 943.928 276.846 C 941.973 275.005, 938.602 272.600, 936.437 271.500 C 934.272 270.400, 930.130 268.038, 927.233 266.251 C 896.927 247.560, 863.343 238.457, 836.500 241.657 M 145.095 253.021 C 122.725 258.979, 58.240 301.081, 56.638 310.776 C 55.692 316.493, 55.884 322.661, 57.086 325.203 C 59.087 329.436, 67.159 335.166, 70.250 334.549 C 71.763 334.247, 74.404 333.716, 76.119 333.369 C 77.834 333.022, 82.672 330.082, 86.869 326.836 C 111.966 307.423, 131.101 294.573, 145.905 287.191 L 155.311 282.500 169.423 282.389 C 181.666 282.293, 184.082 281.999, 187.666 280.170 C 199.797 273.982, 198.607 257.471, 185.738 253.423 C 177.283 250.763, 154.423 250.537, 145.095 253.021 M 442.210 254.676 C 436.274 256.775, 434.652 259.729, 433.863 269.870 C 433.098 279.718, 433.400 281, 436.485 281 C 439.150 281, 440.468 282.430, 441.403 286.338 C 441.993 288.802, 442.293 289.002, 443.678 287.852 C 445.039 286.723, 445.493 286.857, 446.759 288.764 C 449.243 292.505, 453.962 291.068, 454.032 286.550 C 454.049 285.423, 454.724 283.626, 455.532 282.559 C 456.339 281.491, 457 278.965, 457 276.945 C 457 274.926, 457.454 270.877, 458.010 267.948 C 460.426 255.206, 454.584 250.298, 442.210 254.676 M 691.257 261.437 C 683.966 265.470, 683.008 271.110, 687.950 280.900 C 691.385 287.706, 704 324.686, 704 327.951 C 704 329.245, 705.499 331.491, 707.593 333.335 C 709.569 335.076, 711.803 337.625, 712.557 339 C 715.512 344.392, 715.520 344.397, 718.845 342.432 C 721.817 340.677, 721.986 340.677, 723.941 342.446 C 726.841 345.071, 728.625 343.158, 729.452 336.540 C 729.823 333.570, 730.729 330.640, 731.465 330.029 C 734.871 327.202, 732.562 314.275, 725.028 294 C 723.291 289.325, 720.922 282.438, 719.764 278.697 C 715.216 264.002, 701.563 255.736, 691.257 261.437 M 617.500 267.852 C 615.300 268.870, 612.319 270.184, 610.875 270.773 C 608.026 271.935, 608.157 271.418, 605.983 290 C 605.371 295.225, 603.937 304.308, 602.795 310.185 C 600.314 322.952, 600.722 327.333, 605.011 334.018 L 608.208 339 614.069 339 C 624.510 339, 628.581 333.832, 631.794 316.500 C 638.412 280.803, 637.625 269.656, 628.302 267.067 C 623.150 265.636, 622.129 265.711, 617.500 267.852 M 483.500 273.936 C 470.305 276.199, 468.441 282.238, 475.916 298.500 C 477.939 302.900, 480.585 309.875, 481.796 314 C 491.764 347.950, 493.965 354.220, 497.205 357.908 C 499.017 359.971, 500.997 362.520, 501.605 363.572 C 502.541 365.195, 502.952 365.285, 504.306 364.161 C 505.629 363.063, 506.528 363.061, 509.543 364.152 C 519.501 367.753, 524.728 349.525, 519.480 329.500 C 510.371 294.744, 503.451 279.311, 495.053 275.027 C 490.892 272.904, 490.006 272.820, 483.500 273.936 M 805.329 303.041 C 796.175 305.856, 791.682 321.311, 798.562 326.320 C 801.885 328.739, 814.559 333, 818.432 333 C 821.672 333, 834.685 336.480, 844 339.837 C 847.025 340.927, 854.675 343.238, 861 344.971 C 881.008 350.456, 894.579 357.095, 915.780 371.772 C 923.243 376.938, 925.338 377.965, 926.482 377.015 C 928.002 375.753, 932 376.516, 932 378.067 C 932 379.811, 934.205 379.009, 936.126 376.567 C 937.179 375.229, 939.043 373.991, 940.270 373.817 C 942.866 373.448, 943.272 365.745, 940.926 361.362 C 939.901 359.447, 939.911 358.535, 940.979 356.539 C 942.692 353.338, 939.465 348.835, 931.797 343.730 C 928.884 341.790, 924.700 338.760, 922.500 336.996 C 914.684 330.730, 895.966 322.282, 879.298 317.499 C 870.609 315.006, 857.875 311.208, 851 309.059 C 832.094 303.150, 813.111 300.649, 805.329 303.041 M 225 311.646 C 219.339 313.079, 216.620 313.813, 199.500 318.527 C 170.599 326.486, 156.964 331.916, 136 343.818 C 110.989 358.018, 97.343 367.581, 89.173 376.633 L 83.242 383.204 82.564 391.872 C 81.741 402.388, 81.980 403.083, 87.848 407.283 C 97.252 414.014, 102.453 412.663, 114.885 400.259 C 135.096 380.093, 178.056 356.363, 207.500 349.100 C 209.700 348.558, 213.075 347.690, 215 347.173 C 216.925 346.655, 223.618 345.055, 229.874 343.618 C 249.474 339.115, 255.762 334.182, 254.603 324.221 C 253.194 312.097, 241.999 307.342, 225 311.646 M 657.999 322.710 C 654.876 325.500, 654.699 326.055, 653.891 335.616 C 653.426 341.110, 651.646 350.982, 649.935 357.553 C 648.224 364.124, 646.579 372.694, 646.279 376.598 L 645.734 383.696 649.367 386.466 C 651.861 388.369, 653 390.033, 653 391.774 C 653 394.215, 653.072 394.245, 654.928 392.565 C 656.870 390.807, 661 391.149, 661 393.067 C 661 394.832, 663.914 393.996, 666.705 391.430 C 668.242 390.017, 670.272 388.154, 671.216 387.292 C 674.723 384.084, 682.742 358.312, 683.908 346.500 C 685.752 327.814, 681.700 320.827, 668.634 320.167 C 661.656 319.815, 661.087 319.951, 657.999 322.710 M 451.771 329.933 C 446.324 332.222, 445.699 334.629, 446.249 351.227 C 446.808 368.140, 448.561 374.625, 452.846 375.636 C 454.306 375.981, 456.400 377.031, 457.500 377.969 C 465.923 385.159, 470 385.006, 470 377.500 C 470 374.938, 470.597 372.750, 471.500 372 C 476.285 368.029, 469.098 340.469, 461.923 335.273 C 460.991 334.599, 459.957 332.965, 459.625 331.643 C 458.842 328.521, 456.396 327.989, 451.771 329.933 M 389.293 338.821 C 386.979 339.761, 384.149 341.536, 383.004 342.765 C 381.859 343.994, 380.095 345, 379.083 345 C 375.256 345, 374.979 346.890, 375.244 371.110 C 375.421 387.297, 375.077 397.118, 374.126 403.001 C 371.521 419.120, 377.437 430.211, 389.389 431.616 L 394.989 432.274 399.360 427.887 C 403.450 423.781, 403.774 423.051, 404.417 416.500 C 404.794 412.650, 405.780 404.775, 406.608 399 C 407.501 392.765, 408.124 380.986, 408.142 370 C 408.168 353.266, 407.910 349.530, 406.328 343.712 C 404.912 338.508, 396.213 336.010, 389.293 338.821 M 785.500 352.711 C 782.694 353.384, 777.291 358.719, 774.318 363.754 L 771.805 368.008 773.653 372.542 C 776.424 379.344, 778.965 380.549, 812.500 390.971 C 835.730 398.191, 872.493 419.491, 890.879 436.384 C 903.040 447.557, 909.833 450.319, 919.464 448.009 C 924.803 446.728, 924.816 446.715, 925.526 442.113 C 927.167 431.474, 926.226 424.736, 922.718 422 C 920.955 420.625, 915.459 415.872, 910.506 411.437 C 888.161 391.431, 849.555 370.180, 819.500 361.342 C 816.750 360.533, 813.600 359.484, 812.500 359.011 C 811.400 358.538, 806.378 356.767, 801.340 355.075 C 792.485 352.103, 789.746 351.694, 785.500 352.711 M 590.080 365.316 C 582.478 369.086, 581.648 371.173, 580.662 389 C 580.075 399.610, 578.964 405.567, 575.115 418.737 C 572.291 428.402, 572.431 430.540, 576.314 437 C 587.749 456.023, 605.787 436.050, 610.925 398.678 C 613.624 379.043, 611.270 369.603, 602.469 364.773 C 596.521 361.510, 597.876 361.450, 590.080 365.316 M 259.877 374.453 C 254.358 375.975, 240.912 380.978, 239.500 382.036 C 238.950 382.447, 230.850 386.730, 221.500 391.551 C 198.904 403.204, 186.612 410.897, 162 428.789 C 159.525 430.588, 153.225 435.050, 148 438.705 C 138.625 445.262, 126.005 455.457, 116.756 463.943 C 109.100 470.969, 107.791 480.116, 113.095 489.515 C 114.798 492.532, 116.775 495, 117.488 495 C 118.202 495, 119.045 495.675, 119.362 496.500 C 121.010 500.795, 134.998 494.009, 146.732 483.222 C 156.886 473.887, 168.260 465.003, 181 456.457 C 186.225 452.951, 192.525 448.655, 195 446.910 C 209.117 436.956, 218.703 431.116, 238.097 420.651 C 264.073 406.635, 268.417 405, 279.689 405 C 292.316 405, 298.612 401.311, 299.689 393.282 C 300.238 389.192, 297.157 380.205, 294.430 377.942 C 289.626 373.955, 269.175 371.890, 259.877 374.453 M 509.333 382.097 C 505.343 383.252, 501.275 388.015, 500.430 392.521 C 499.574 397.082, 502.480 404.268, 514.099 426.323 C 525.218 447.432, 525.931 448.174, 534.284 447.347 C 542.597 446.523, 542.782 446.377, 545.569 438.419 C 548.569 429.850, 548.572 428.912, 545.611 422.596 C 544.297 419.793, 541.979 414.350, 540.459 410.500 C 530.189 384.482, 523.181 378.088, 509.333 382.097 M 754.500 394.834 C 740.146 403.984, 742.331 416.069, 759.634 423.232 C 791.440 436.400, 821.666 452.345, 830.508 460.621 C 835.206 465.019, 849.867 476.915, 854.207 479.852 C 856.796 481.604, 861.296 485.997, 864.207 489.613 C 884.352 514.643, 897.996 522.305, 908.606 514.546 C 914.992 509.877, 912.649 495.587, 903.977 486.316 C 900.654 482.764, 896.764 478.003, 895.333 475.736 C 892.046 470.529, 883.573 462.344, 874.347 455.463 C 870.413 452.529, 863.574 447.062, 859.150 443.314 C 840.144 427.214, 829.032 420.784, 787.500 401.857 C 767.121 392.569, 760.322 391.123, 754.500 394.834 M 700.753 405.957 C 692.294 407.599, 690.597 412.206, 691.323 431.556 C 692.208 455.125, 693.383 463.307, 696.647 468.603 C 698.216 471.149, 700.010 474.117, 700.634 475.200 C 702.814 478.983, 703.827 479.466, 705.814 477.668 C 707.565 476.083, 707.783 476.103, 709.493 477.992 C 711.982 480.743, 714.173 480.500, 716.251 477.244 C 717.214 475.735, 719.171 472.925, 720.600 471 C 723.139 467.579, 723.182 467.262, 722.490 457 C 722.100 451.225, 721.489 439.005, 721.132 429.846 C 720.404 411.164, 720.107 410.374, 712.500 406.881 C 708.245 404.927, 706.692 404.805, 700.753 405.957 M 324.154 414.615 C 314.404 415.995, 303.217 420.732, 282.500 432.255 C 278.100 434.703, 265.950 441.071, 255.500 446.406 C 245.050 451.742, 234.925 457.055, 233 458.212 C 231.075 459.370, 225.450 462.738, 220.500 465.698 C 210.283 471.808, 200.157 478.860, 194.223 484 C 192.001 485.925, 185.331 491.550, 179.402 496.500 C 150.204 520.876, 144.710 526.400, 143.559 532.539 C 143.222 534.332, 142.284 536.349, 141.474 537.022 C 135.725 541.793, 147.210 559.804, 155.110 558.406 C 161.867 557.212, 168.556 553.862, 170.839 550.530 C 172.978 547.408, 184.768 535.720, 190.035 531.500 C 191.407 530.400, 194.836 527.587, 197.654 525.250 C 203.949 520.028, 203.650 520.003, 203.628 525.750 C 203.613 529.690, 204.441 531.864, 208.484 538.500 C 217.793 553.782, 221.495 559.502, 222.303 559.853 C 222.750 560.047, 225.226 561.816, 227.805 563.785 C 234.970 569.254, 239.635 569.010, 242.793 563 C 244.094 560.525, 246.034 557.558, 247.105 556.408 C 249.501 553.833, 249.627 554.164, 239.537 536.517 C 227.719 515.849, 220.343 509.836, 211.864 513.956 C 207.834 515.915, 216.779 508.502, 228 500.585 C 241.417 491.117, 248.894 486.596, 264.721 478.377 C 271.749 474.728, 278.850 470.952, 280.500 469.987 C 282.150 469.022, 286.875 466.448, 291 464.267 C 295.125 462.086, 303.297 457.745, 309.160 454.621 C 320.479 448.590, 330.622 444.675, 338 443.490 C 355.791 440.633, 359.279 423.238, 343.500 416.065 C 337.603 413.384, 334.501 413.152, 324.154 414.615 M 442.219 415.256 C 437.168 416.874, 432.677 422.538, 433.390 426.391 C 433.706 428.101, 434.452 433.775, 435.047 439 C 437.554 461.017, 439.678 469, 443.027 469 C 444.103 469, 445.516 469.854, 446.168 470.898 C 447.143 472.458, 447.702 472.592, 449.308 471.648 C 450.725 470.815, 451.373 470.804, 451.667 471.608 C 453.540 476.728, 459 476.299, 459 471.032 C 459 470.120, 460.350 468.081, 462 466.500 C 465.331 463.309, 465.899 455.197, 464.103 436.453 C 462.421 418.899, 454.573 411.297, 442.219 415.256 M 639.919 421.106 C 633.978 423.288, 633.228 426.838, 632.437 456.552 L 631.717 483.604 635.572 489.552 C 637.692 492.823, 639.593 495.724, 639.795 495.998 C 639.998 496.273, 640.739 495.710, 641.442 494.748 C 643.176 492.377, 644.057 492.539, 646.570 495.691 L 648.716 498.382 654.292 493.108 C 661.884 485.928, 662.763 482.897, 664.118 459.205 C 665.490 435.199, 664.663 429.523, 658.948 423.750 C 654.990 419.752, 646.730 418.604, 639.919 421.106 M 487 437.709 C 480.063 440.260, 478.337 445.681, 481.547 454.836 C 487.989 473.206, 489.174 475.920, 491.009 476.503 C 492.036 476.829, 494.220 478.625, 495.861 480.494 L 498.845 483.893 502.815 481.975 C 512.197 477.443, 510.036 443.690, 500.033 438.517 C 497.178 437.041, 490.024 436.598, 487 437.709 M 759 454.752 C 754.576 456.961, 751.728 462.255, 752.410 467 C 752.686 468.925, 752.512 478.523, 752.024 488.330 L 751.135 506.160 754.568 510.657 C 756.455 513.130, 758 515.746, 758 516.470 C 758 518.802, 760.848 519.074, 761.188 516.773 C 761.599 513.988, 764 513.208, 764 515.860 C 764 521.393, 769.387 521.626, 773 516.248 C 774.375 514.202, 776.140 511.761, 776.922 510.823 C 780.449 506.592, 782.132 497.747, 782.701 480.434 L 783.263 463.369 779.983 459.633 C 774.055 452.882, 766.337 451.086, 759 454.752 M 321 467.306 C 315.189 469.288, 313.227 476.956, 315.963 487 C 317.086 491.125, 319.110 499.297, 320.461 505.161 C 324.549 522.913, 326.840 529.004, 330.127 530.868 C 331.710 531.766, 333.259 533.288, 333.570 534.250 C 333.931 535.368, 335.150 536, 336.945 536 C 338.491 536, 340.277 536.629, 340.914 537.397 C 342.579 539.403, 346.002 538.214, 345.991 535.633 C 345.986 534.449, 347.378 532.352, 349.122 530.919 C 353.601 527.237, 353.973 521.538, 350.602 508.210 C 349.171 502.550, 347.997 496.700, 347.992 495.210 C 347.943 477.714, 333.689 462.979, 321 467.306 M 374.467 469.998 C 366.792 473.797, 366.556 475.157, 370.020 495.652 C 373.706 517.459, 376.085 524, 380.331 524 C 380.933 524, 382.344 525.153, 383.468 526.562 C 389.912 534.644, 402.730 525.688, 401.757 513.785 C 399.293 483.650, 395.327 471.075, 387.680 469.150 C 381.346 467.555, 379.113 467.698, 374.467 469.998 M 587.500 480.051 C 579.955 482.497, 578.999 484.932, 579.006 501.684 C 579.013 519.920, 583.333 533, 589.347 533 C 590.453 533, 592.822 533.529, 594.611 534.176 C 610.230 539.824, 616.879 493.159, 602.021 482.173 C 598.576 479.627, 591.843 478.643, 587.500 480.051 M 260.437 495.250 C 253.984 502.903, 253.868 507.345, 259.841 518 C 261.846 521.575, 264.218 526.374, 265.114 528.664 C 267.319 534.306, 270.789 539, 272.754 539 C 273.643 539, 275.326 539.897, 276.492 540.993 C 280.271 544.543, 287.730 544.841, 289.003 541.493 C 289.582 539.969, 291.169 537.400, 292.528 535.784 C 295.907 531.768, 295.657 528.888, 290.950 517.622 C 282.964 498.509, 277.136 492, 268.011 492 C 263.787 492, 262.832 492.410, 260.437 495.250 M 517.500 495.036 C 509.952 498.875, 506.521 502.586, 506.653 506.767 C 506.760 510.158, 511.631 526.627, 513.968 531.500 C 515.975 535.685, 533.927 603.638, 539.066 626.500 C 543.474 646.109, 543.536 645.580, 536.976 644.106 C 528.836 642.277, 522.577 647.447, 518.658 659.235 C 515.008 670.213, 512 674.721, 512 669.212 C 512 668.229, 510.451 663.697, 508.559 659.141 C 499.775 637.999, 491.353 632.320, 479.430 639.500 C 471.404 644.333, 471.275 644.271, 470.534 635.250 C 469.485 622.474, 466.070 587.070, 465.060 578.500 C 463.620 566.279, 461.998 547.070, 461.050 531 C 459.921 511.886, 457.595 506.157, 450.040 503.894 C 444.983 502.379, 442.365 503.140, 437.081 507.662 L 432.716 511.399 433.371 528.949 C 434.059 547.413, 435.380 561.819, 437.228 571 C 438.406 576.854, 439.278 586.740, 440.889 612.500 C 441.439 621.300, 442.129 629.850, 442.422 631.500 C 442.714 633.150, 443.646 646.496, 444.492 661.158 C 446.920 703.243, 447.582 708.144, 452.469 720.158 C 454.288 724.631, 465.457 726.167, 468.630 722.381 C 472.113 718.224, 476.610 709.135, 477.442 704.567 C 478.420 699.204, 485.082 685, 486.619 685 C 487.343 685, 489.585 690.549, 491.974 698.250 C 498.175 718.245, 499.905 722.542, 504.122 728.430 C 512.900 740.689, 523.184 741.357, 529.020 730.049 C 529.756 728.624, 530.473 722.294, 530.733 714.921 C 531.212 701.404, 532.839 690.870, 534.535 690.315 C 535.105 690.129, 537.315 693.019, 539.448 696.738 C 564.473 740.384, 584.545 755.346, 592.967 736.632 C 595.453 731.107, 595.546 731.813, 589.932 713.500 C 587.740 706.350, 585.536 699.150, 585.035 697.500 C 584.533 695.850, 582.694 688.425, 580.949 681 C 575.652 658.469, 569.905 634.675, 568.992 631.500 C 568.518 629.850, 567.351 624.900, 566.400 620.500 C 564.761 612.920, 562.835 605.440, 559.320 593 C 558.465 589.975, 557.424 585.925, 557.007 584 C 554.170 570.911, 547.266 545.194, 541.847 527.530 C 539.541 520.014, 538.907 516.321, 539.273 512.530 C 540.511 499.677, 528.054 489.668, 517.500 495.036 M 813.966 497.820 C 807.302 500.774, 805.777 504.808, 806.528 517.500 C 806.821 522.450, 807.215 535.950, 807.404 547.500 C 807.646 562.309, 808.144 569.384, 809.094 571.500 C 811.211 576.213, 817 584.393, 817 582.671 C 817 579.811, 819.136 579.757, 822.045 582.543 C 825.373 585.732, 827.419 584.922, 828.502 579.989 C 828.850 578.409, 830.502 575.227, 832.174 572.918 C 837.985 564.897, 840.813 518.729, 836.121 508.500 C 831.853 499.197, 821.798 494.349, 813.966 497.820 M 642.057 500.918 C 637.903 503.129, 637.162 504.798, 637.070 512.139 C 636.979 519.427, 638.686 521.443, 646.644 523.450 C 654.416 525.411, 655.294 525.392, 657.984 523.214 C 668.168 514.968, 653.701 494.717, 642.057 500.918 M 702.500 501.672 C 700.850 502.548, 699.333 503.409, 699.129 503.586 C 697.436 505.057, 696.238 515.560, 697.488 517.977 C 700.340 523.491, 713.950 527.165, 717.988 523.511 C 727.041 515.318, 713.300 495.941, 702.500 501.672 M 481.250 512.122 L 477 514.076 477 520.628 C 477 528.111, 477.928 529.380, 486.411 533.493 C 498.738 539.470, 505.261 526.236, 495.197 515.668 C 493.118 513.485, 486.408 509.570, 485.628 510.084 C 485.558 510.131, 483.587 511.048, 481.250 512.122 M 861.269 547.326 C 856.457 549.074, 855.182 551.668, 851.463 567.274 C 849.599 575.098, 847.200 584.425, 846.132 588 C 840.225 607.782, 839.653 629, 845.026 629 C 845.562 629, 846 630.575, 846 632.500 C 846 636.512, 846.816 636.864, 849.326 633.933 C 851.460 631.440, 853.381 631.848, 853.828 634.889 C 854.539 639.738, 859.279 638.354, 860.353 632.984 C 860.680 631.349, 862.689 628.097, 864.817 625.756 C 869.166 620.971, 870.420 617.630, 875.612 597 C 877.619 589.025, 880.316 578.450, 881.605 573.500 C 887.119 552.332, 878.395 541.104, 861.269 547.326 M 689.500 547.606 C 687.300 547.794, 678.750 548.442, 670.500 549.045 C 662.250 549.648, 653.025 550.739, 650 551.470 C 646.975 552.200, 642.025 553.093, 639 553.455 C 631.913 554.301, 616.781 557.948, 615.550 559.106 C 615.028 559.598, 613.531 560, 612.223 560 C 604.996 560, 584.832 571.938, 589.845 573.249 C 591.580 573.703, 591.763 574.454, 591.406 579.668 L 591.002 585.574 595.183 588.787 C 599.873 592.392, 605.538 593.051, 611.282 590.661 C 613.052 589.924, 619.225 588.317, 625 587.088 C 630.775 585.860, 637.075 584.432, 639 583.916 C 651.082 580.674, 674.954 578.248, 675.076 580.250 C 675.118 580.938, 675.088 584.506, 675.011 588.181 C 674.569 609.143, 680.550 620.432, 696.257 628.287 C 710.634 635.476, 716.440 634.027, 724.749 621.178 C 734.111 606.700, 736.290 596.120, 732.489 583.591 C 730.373 576.615, 730.245 576.762, 737.750 577.546 C 745.101 578.314, 747.780 579.409, 754.989 584.587 C 765.659 592.253, 776.236 585.664, 774.730 572.289 C 772.898 556.029, 731.412 544.015, 689.500 547.606 M 344 555.972 C 297.555 561.701, 257.647 582.283, 257.873 600.391 C 257.886 601.431, 257.044 603.953, 256.002 605.995 C 253.580 610.744, 255.234 614.060, 259.609 613.224 C 262.105 612.747, 262.242 612.900, 261.600 615.456 L 260.912 618.200 266.206 617.509 C 271.271 616.848, 278.696 612.956, 279.654 610.460 C 281.047 606.830, 302.465 595, 307.644 595 C 309.380 595, 309.806 595.922, 311.960 604.344 C 317.402 625.622, 331.500 636.892, 347.628 632.857 C 357.237 630.453, 368.829 609.454, 371.838 589 L 372.500 584.500 386 584.765 L 399.500 585.029 404.500 580.620 C 412.181 573.847, 411.368 562.449, 402.910 558.325 C 397.136 555.510, 359.831 554.020, 344 555.972 M 489.343 557.546 C 486.336 558.864, 482.851 562.767, 481.795 566 C 481.526 566.825, 482.384 571.550, 483.703 576.500 C 485.022 581.450, 487.185 590.609, 488.509 596.854 C 490.607 606.747, 491.437 608.881, 494.953 613.439 C 497.173 616.317, 499.479 620.076, 500.078 621.794 C 501.019 624.493, 501.535 624.843, 503.884 624.373 C 506.104 623.929, 506.817 624.303, 507.779 626.415 C 509.580 630.367, 514 630.063, 514 625.986 C 514 624.329, 514.395 622.191, 514.877 621.236 C 518.791 613.489, 518.660 602.723, 514.417 583.500 C 510.359 565.112, 508.126 560.411, 502.253 557.894 C 497.134 555.700, 493.764 555.609, 489.343 557.546 M 184.559 578.027 C 178.821 581.688, 177.422 593.220, 182.014 599.018 C 183.672 601.111, 185.737 604.551, 186.604 606.662 C 189.292 613.209, 193.985 619.794, 197.400 621.808 C 199.197 622.869, 202.667 626.603, 205.111 630.106 C 211.891 639.826, 221.428 640.474, 222.189 631.267 C 222.458 628.006, 222.802 627.542, 224.750 627.813 C 228.666 628.357, 226.560 619.707, 221.022 612.500 C 220.600 611.950, 217.221 605.875, 213.513 599 C 202.863 579.251, 193.393 572.391, 184.559 578.027 M 790.434 610.877 C 787.021 612.958, 785.350 616.741, 782.028 629.902 C 780.862 634.524, 779.482 639.099, 778.962 640.071 C 774.632 648.161, 774.910 657.401, 779.575 660.457 C 780.909 661.331, 782 662.885, 782 663.910 C 782 665.142, 782.932 665.960, 784.750 666.326 C 786.263 666.630, 788.702 667.177, 790.172 667.541 C 792.453 668.106, 793.077 667.752, 794.438 665.119 C 795.315 663.423, 797.419 661.015, 799.114 659.768 C 806.253 654.513, 815.341 624.107, 812.200 615.984 C 809.945 610.151, 796.715 607.047, 790.434 610.877 M 399.500 622.024 C 392.027 625.803, 391.613 627.149, 393.412 641.788 C 395.141 655.852, 397.108 662.097, 401.541 667.599 C 403.168 669.618, 404.837 671.844, 405.250 672.546 C 405.662 673.247, 408.062 674.820, 410.584 676.041 C 416.183 678.751, 417.524 677.872, 418.882 670.601 C 419.381 667.932, 420.309 665.427, 420.946 665.034 C 422.251 664.227, 421.638 635.705, 420.244 632.386 C 415.635 621.414, 408.126 617.663, 399.500 622.024 M 281.153 632.624 L 277.806 634.085 278.514 641.293 C 279.292 649.212, 280.050 650.652, 284.500 652.670 C 286.150 653.418, 288.264 654.568, 289.197 655.227 C 292.980 657.894, 298.726 653.105, 300.531 645.781 C 301.111 643.430, 300.423 642.247, 295.448 637.031 C 289.211 630.492, 287.351 629.919, 281.153 632.624 M 610.500 635.403 C 602.430 638.965, 601.823 644.938, 606.375 676 C 609.281 695.829, 611.856 705.707, 615.369 710.500 C 616.578 712.150, 618.131 714.793, 618.819 716.373 C 619.995 719.075, 620.178 719.149, 621.890 717.600 C 622.981 716.612, 625.013 716.063, 626.964 716.226 C 629.080 716.404, 630.475 715.975, 630.948 715 C 637.943 700.606, 637.505 702.328, 637.422 689.507 C 637.292 669.288, 633.532 643.673, 630.098 639.609 C 626.056 634.824, 616.470 632.767, 610.500 635.403 M 355.005 651.154 C 346.651 654.462, 334.241 657.983, 330.768 658.032 C 329.521 658.049, 327.626 658.724, 326.559 659.532 C 325.491 660.339, 323.466 661.005, 322.059 661.011 C 320.452 661.017, 318.218 662.341, 316.053 664.568 L 312.607 668.115 314.496 671.623 C 318.393 678.859, 322.124 681.002, 330.785 680.980 C 352.528 680.924, 369.486 674.543, 379.525 662.641 C 384.675 656.535, 385.208 655.493, 384.387 653.141 C 382.399 647.454, 366.985 646.411, 355.005 651.154 M 234.099 652.499 C 226.412 655.960, 225.135 666.108, 231.079 676.500 C 232.023 678.150, 233.119 680.583, 233.514 681.907 C 234.483 685.144, 246.198 703.167, 249.147 705.955 C 252.290 708.927, 262.389 714, 265.161 714 C 267.688 714, 277 704.556, 277 701.994 C 277 701.116, 275.111 697.496, 272.801 693.949 C 270.492 690.402, 265.048 680.525, 260.704 672 C 256.360 663.475, 251.753 655.414, 250.468 654.088 C 247.496 651.021, 239.174 650.213, 234.099 652.499 M 729.500 654.958 C 724 656.466, 716.540 658.892, 712.922 660.350 C 709.041 661.913, 704.408 663, 701.624 663 C 697.169 663, 692.158 666.264, 692.032 669.247 C 691.962 670.886, 699.601 678.266, 703.343 680.175 C 720.447 688.901, 756.074 667.534, 745.927 654.635 C 743.408 651.432, 742.281 651.454, 729.500 654.958 M 829.500 670.386 C 825.393 672.176, 824.520 673.448, 821.966 681.367 C 820.748 685.144, 817.334 693.359, 814.379 699.623 C 801.535 726.852, 798.373 738.472, 802.936 741.668 C 804.598 742.831, 805.005 743.843, 804.548 745.664 C 803.968 747.975, 804.116 748.069, 807.371 747.458 C 810.283 746.912, 810.907 747.132, 811.470 748.907 C 812.550 752.307, 820 749.020, 820 745.143 C 820 744.622, 821.294 743.744, 822.877 743.193 C 825.392 742.316, 831 736.438, 831 734.678 C 831 734.329, 832.614 730.546, 834.586 726.272 C 836.558 721.997, 838.991 716.700, 839.993 714.500 C 840.995 712.300, 844.172 705.550, 847.053 699.500 C 853.753 685.430, 854.172 679.836, 848.932 674.430 C 843.943 669.282, 835.881 667.605, 829.500 670.386 M 741.450 686.935 C 739.772 687.337, 735.722 688.978, 732.450 690.583 C 725.498 693.991, 711.149 694.550, 696.691 691.975 C 686.786 690.211, 685.609 690.827, 685.193 697.990 C 684.551 709.040, 702.480 719.959, 721.496 720.098 C 734.973 720.197, 740.223 718.068, 750.181 708.466 L 757.227 701.671 756.608 697.159 C 755.902 692.003, 753.889 689.312, 749.282 687.362 C 745.768 685.875, 745.858 685.879, 741.450 686.935 M 370.861 700.799 C 356.210 708.149, 344.664 711.447, 335.369 710.938 C 326.113 710.431, 325.842 710.544, 326.190 714.750 C 326.534 718.911, 326.510 718.900, 343.500 722.511 C 360.791 726.186, 377.727 721.578, 390.250 709.792 C 396.499 703.911, 397.418 700.973, 394.240 697.048 C 390.561 692.505, 385.904 693.253, 370.861 700.799 M 411.500 706.070 C 409.529 706.654, 407.716 708.342, 406.215 710.989 L 403.929 715.019 405.965 723.588 C 407.084 728.302, 408 732.899, 408 733.804 C 408 740.916, 417.235 755.002, 424.289 758.649 C 429.326 761.254, 435 757.494, 435 751.550 C 435 750.697, 435.726 750, 436.613 750 C 437.885 750, 438.105 749.312, 437.651 746.750 C 437.334 744.962, 436.611 738.726, 436.045 732.891 C 433.933 711.122, 425.510 701.917, 411.500 706.070 M 279.750 730.231 L 275 733.288 275 740.413 L 275 747.538 280.877 750.769 C 289.699 755.619, 293.867 755.141, 297.043 748.917 C 300.540 742.062, 299.191 738.004, 291.169 731.239 C 285.284 726.277, 285.820 726.325, 279.750 730.231 M 313.604 741.038 C 307.465 742.876, 304.733 746.844, 305.370 753 C 306.224 761.247, 315.455 787.553, 319.719 793.890 C 320.974 795.754, 322 797.618, 322 798.033 C 322 799.495, 325.103 799.953, 326.997 798.770 C 328.598 797.770, 329.306 797.938, 331.272 799.786 C 334.410 802.734, 336.583 802.577, 338.720 799.250 C 339.692 797.737, 341.952 794.968, 343.743 793.097 C 347.279 789.402, 347.617 787.371, 345.593 782 C 339.147 764.897, 332.643 748.099, 331.754 746.260 C 329.496 741.583, 320.466 738.985, 313.604 741.038 M 764.750 743.162 C 763.237 743.715, 761.997 744.467, 761.994 744.833 C 761.991 745.200, 761.550 748.180, 761.013 751.455 C 759.234 762.319, 772.713 771.729, 779.525 764.378 C 787.948 755.290, 776.511 738.867, 764.750 743.162 M 684.743 750.294 C 680.540 752.762, 679.015 756.444, 679.006 764.142 C 679.003 766.695, 678.050 773.445, 676.889 779.142 C 674.299 791.847, 674.301 794.301, 676.906 796.906 C 678.030 798.030, 679.234 800.086, 679.583 801.475 C 680.285 804.270, 681.137 804.532, 684.195 802.896 C 685.939 801.962, 686.589 802.205, 688.388 804.462 L 690.517 807.132 694.850 803.993 C 705.213 796.487, 713.214 768.145, 708.465 755.769 C 705.913 749.120, 692.153 745.944, 684.743 750.294 M 376.500 750.725 C 370.270 753.768, 367.881 759.014, 368.975 767.254 C 369.504 771.239, 370.210 777.099, 370.544 780.276 C 371.034 784.945, 371.625 786.363, 373.623 787.673 C 374.983 788.564, 376.726 790.802, 377.497 792.646 C 378.267 794.491, 379.541 796, 380.327 796 C 381.112 796, 382.315 796.675, 383 797.500 C 384.979 799.884, 387.967 799.263, 391.987 795.631 C 394.038 793.777, 396.343 792.053, 397.108 791.798 C 400.909 790.534, 399.021 763.711, 394.518 755 C 391.769 749.681, 382.931 747.584, 376.500 750.725 M 614.243 752.763 C 611.096 756.373, 608.379 763.185, 609.415 764.863 C 609.693 765.313, 610.383 771.379, 610.949 778.345 C 611.999 791.282, 613.706 797.566, 616.455 798.621 C 617.305 798.947, 618 800.291, 618 801.607 C 618 804.269, 619.078 804.593, 621.958 802.794 C 623.610 801.763, 624.264 801.993, 626.482 804.387 L 629.076 807.185 633.788 802.881 C 636.380 800.513, 638.667 798.109, 638.872 797.538 C 639.076 796.967, 639.923 795.019, 640.755 793.208 C 642.354 789.729, 641.930 774.460, 639.931 763.500 C 637.785 751.737, 621.185 744.799, 614.243 752.763 M 448.355 763.597 C 441.243 767.105, 440.521 768.829, 440.510 782.327 C 440.499 796.324, 446.624 816.162, 451.397 817.586 C 452.554 817.931, 454.230 819.135, 455.122 820.262 C 456.972 822.600, 462.802 822.958, 464.097 820.813 C 466.229 817.283, 469.369 814, 470.613 814 C 472.730 814, 471.602 779.943, 469.138 769.513 C 467.672 763.308, 455.795 759.927, 448.355 763.597 M 508.367 769.918 C 503.731 772.745, 502 775.813, 502 781.202 C 502 785.574, 502.610 789.408, 506.501 809.500 C 508.045 817.476, 511.241 823.762, 516.827 829.813 C 521.354 834.717, 522.825 834.885, 530.485 831.378 L 536.212 828.756 535.729 822.128 C 535.051 812.820, 531.200 785.344, 529.862 780.260 C 527.268 770.407, 516.254 765.108, 508.367 769.918 M 560.388 769.980 C 555.571 771.926, 553.731 775.953, 554.440 783 C 554.800 786.575, 555.458 794.675, 555.904 801 C 557.801 827.942, 567.413 842.281, 577.292 832.904 C 578.506 831.751, 580.460 830.432, 581.634 829.973 C 587.724 827.589, 588.288 790.702, 582.414 778.925 C 578.391 770.860, 568.327 766.773, 560.388 769.980 M 764.988 779.030 C 762.192 780.119, 761.450 781.151, 755.905 791.679 C 751.885 799.313, 747.227 805.674, 735.685 819.293 C 725.723 831.047, 721.863 840.859, 726.500 842.638 C 727.481 843.015, 728 844.573, 728 847.138 C 728 851.499, 729.969 853.101, 732.621 850.900 C 734.186 849.601, 737 851.716, 737 854.191 C 737 855.617, 741.042 855.054, 741.620 853.548 C 741.926 852.750, 743.825 851.562, 745.838 850.908 C 753.208 848.515, 775.537 821.625, 784.974 803.779 C 793.475 787.703, 781.334 772.668, 764.988 779.030 M 386.500 808.733 C 375.508 811.485, 373.494 822.263, 381.898 833.366 C 384.541 836.857, 388.322 842.153, 390.302 845.136 C 395.659 853.206, 398.370 855.394, 403.291 855.614 C 405.606 855.718, 408.927 856.118, 410.672 856.503 C 413.516 857.132, 414.009 856.884, 415.447 854.102 C 416.330 852.396, 417.602 850.989, 418.276 850.975 C 418.949 850.962, 420.310 849.325, 421.300 847.338 C 423.382 843.158, 421.762 838.889, 413.963 828 C 411.797 824.975, 409.162 820.925, 408.109 819 C 403.553 810.671, 394.996 806.605, 386.500 808.733 M 460.221 829.114 C 451.599 830.709, 446.043 838.307, 448.719 844.840 C 453.607 856.772, 462.205 875.213, 464.362 878.391 C 465.813 880.530, 467 882.865, 467 883.581 C 467 885.712, 469.030 886.322, 471.581 884.957 C 473.730 883.806, 474.230 883.956, 476.526 886.434 C 478.862 888.954, 479.270 889.069, 481.290 887.773 C 485.189 885.273, 492.148 873.834, 491.494 871 C 490.871 868.299, 484.379 852.040, 480.228 842.783 C 475.682 832.647, 468.318 827.616, 460.221 829.114 M 676.096 834.265 C 671.859 836.442, 669.898 840.261, 668.904 848.271 C 668.386 852.443, 667.295 857.746, 666.481 860.054 C 664.834 864.723, 664.543 869.599, 665.863 870.415 C 666.337 870.709, 667.308 873.027, 668.019 875.568 C 669.234 879.907, 669.485 880.153, 672.150 879.620 C 674.418 879.166, 675.314 879.550, 676.609 881.526 C 682.584 890.644, 700 865.178, 700 847.325 C 700 837.353, 685.501 829.432, 676.096 834.265 M 620.500 846.686 C 615.463 847.729, 611.715 852.403, 611.758 857.590 C 611.826 865.737, 614.378 879.446, 616.395 882.502 C 617.438 884.082, 618.393 886.302, 618.518 887.437 C 618.898 890.893, 618.954 891, 620.393 891 C 621.159 891, 622.045 890.325, 622.362 889.500 C 623.247 887.192, 625.944 887.721, 626.963 890.403 C 628.454 894.324, 629.769 894.323, 634.560 890.397 C 653.294 875.046, 642.694 842.094, 620.500 846.686 M 521 853.179 C 513.534 857.030, 513.979 867.977, 522.517 890.500 C 525.970 899.609, 526.480 900.194, 529.685 898.734 C 531.943 897.705, 532.433 897.874, 534.193 900.290 C 537.005 904.150, 539.078 903.695, 545.524 897.804 C 553.459 890.552, 553.433 890.832, 547.764 873.877 C 540.358 851.728, 533.738 846.608, 521 853.179 M 571.591 857.481 C 566.465 859.307, 564.050 861.844, 562.999 866.506 C 561.772 871.943, 563.421 890.467, 565.399 893.487 C 566.280 894.830, 567 897.044, 567 898.406 C 567 901.305, 568.698 902.702, 570.287 901.113 C 572.202 899.198, 575.003 899.878, 576 902.500 C 577.616 906.751, 579.658 905.750, 589.648 895.809 C 593.575 891.901, 594.188 888.263, 592.986 876 C 591.883 864.753, 592.617 867.054, 588.750 862.727 C 583.374 856.711, 578.195 855.127, 571.591 857.481"/>
    </g>
  </g>
</svg>
