<svg viewBox="0 0 74 74" width="74mm" height="74mm" xmlns="http://www.w3.org/2000/svg">
  <g transform="scale(0.074000)" fill-rule="evenodd">
    <g id="forma" fill="#CB3747">
      <path d="M 87.161 84.635 C 80.869 87.840, 70.240 102.398, 66.087 113.497 C 61.251 126.422, 60.626 182.356, 64.864 223 C 65.982 233.725, 67.391 251.500, 67.995 262.500 C 72.136 337.956, 72.861 345.286, 79.518 379 C 81.962 391.375, 85.324 410.275, 86.989 421 C 92.577 456.993, 95.878 471.143, 115.028 541.195 C 135.781 617.112, 143.881 638.336, 172.772 692.500 C 192.170 728.869, 207.174 753.395, 219.878 769.500 C 306.078 878.783, 409.732 930.542, 586.500 952.570 C 749.116 972.835, 846.709 880.950, 883.966 672.500 C 886.227 659.850, 890.956 634.875, 894.474 617 C 906.311 556.856, 909.534 527.787, 914.484 436.500 C 915.186 423.548, 916.701 399.730, 921.448 327 C 929.898 197.546, 930.186 185.344, 925.886 139.500 C 923.188 110.738, 921.120 104.183, 913.619 100.623 C 898.097 93.258, 885.168 108.775, 861.881 162.715 C 857.495 172.874, 848.126 193.407, 841.061 208.343 C 797.848 299.698, 800.413 293.537, 760.628 401.500 C 706.788 547.606, 685.518 583.454, 646.300 594.192 C 638.883 596.223, 636.609 596.316, 600 596.097 C 572.771 595.934, 554.328 596.346, 537 597.502 C 488.657 600.727, 451.769 595.892, 426 582.951 C 402.090 570.943, 384.189 552.446, 352.982 507.500 C 344.581 495.400, 330.192 475.375, 321.006 463 C 275.418 401.582, 251.694 362.005, 229.109 309.692 C 217.688 283.236, 208.408 265.214, 186.635 227.202 C 176.018 208.666, 162.472 184.500, 156.532 173.500 C 143.416 149.208, 118.529 106.089, 112.098 96.514 C 104.298 84.902, 95.171 80.554, 87.161 84.635"/>
    </g>
    <g id="detalles" fill="#1A1A1A">
      <path d="M 328 686.365 C 318.199 689.221, 314.613 692.292, 310.321 701.503 C 302.206 718.917, 309.859 740.062, 327.266 748.322 C 352.543 760.317, 380.703 702.631, 356.495 688.444 C 350.859 685.141, 335.936 684.052, 328 686.365 M 727.372 688.838 C 717.049 692.405, 713.969 696.434, 711.435 709.675 C 706.680 734.526, 713.307 746.761, 735.206 753.565 C 752.369 758.897, 770.432 742.568, 768.658 723.325 C 767.799 713.996, 765.297 709.571, 751.941 693.756 C 746.623 687.459, 736.958 685.525, 727.372 688.838"/>
    </g>
  </g>
</svg>
