<svg viewBox="0 0 74 74" width="74mm" height="74mm" xmlns="http://www.w3.org/2000/svg">
  <g transform="scale(0.074000)" fill-rule="evenodd">
    <g id="forma" fill="#CB3747">
      <path d="M 536.404 62.573 C 527.170 67.129, 508.554 101.971, 490.061 149.309 C 487.871 154.914, 478.906 177.725, 470.140 200 C 455.707 236.669, 447.862 259.158, 437.622 293.212 C 435.685 299.653, 432.065 315.178, 429.578 327.712 C 427.090 340.245, 423.063 356.873, 420.628 364.663 C 418.193 372.453, 415.227 384.378, 414.037 391.163 C 406.017 436.888, 396.141 452.517, 379.626 445.617 C 367.693 440.631, 329.034 397.218, 286.021 340.500 C 267.711 316.355, 245.036 288.143, 224.536 264 C 214.028 251.625, 198.050 232.725, 189.029 222 C 166.326 195.010, 146.761 173.871, 123.402 151.093 C 86.857 115.455, 81.188 111.826, 70.302 117.096 C 60.775 121.708, 58.785 130.936, 60.940 160.500 C 61.581 169.300, 62.513 186.794, 63.010 199.376 C 64.306 232.167, 68.752 265.998, 74.986 290.500 C 77.644 300.950, 81.462 316.925, 83.469 326 C 85.477 335.075, 90.018 352.538, 93.561 364.807 C 97.104 377.076, 100.927 391.926, 102.058 397.807 C 103.188 403.688, 104.795 412.100, 105.629 416.500 C 107.676 427.303, 118.398 459.420, 125.494 476 C 134.134 496.189, 135.832 501.114, 139.010 515.208 C 141.440 525.988, 142.888 529.922, 147.874 539.296 C 151.152 545.458, 155.491 554.550, 157.517 559.500 C 164.873 577.471, 167.453 582.869, 178.792 604 C 208.925 660.155, 232.027 694.855, 269.333 740 C 279.753 752.609, 324.070 797.020, 335 805.806 C 340.225 810.006, 349 817.218, 354.500 821.833 C 380.297 843.477, 428.441 870.577, 454.156 877.929 C 460.395 879.713, 472.700 883.409, 481.500 886.143 C 492.333 889.509, 501.860 891.723, 511 893 C 525.094 894.969, 559.218 901.712, 581.500 906.931 C 610.195 913.652, 627.987 913.254, 655 905.284 L 667.500 901.596 690 901.539 C 710.709 901.486, 712.898 901.310, 717.500 899.337 C 746.818 886.765, 754.572 883.276, 764.979 877.970 C 793.217 863.573, 807.600 847.327, 822.551 812.943 C 826.722 803.349, 834.556 786.275, 839.960 775 C 850.589 752.822, 851.808 749.582, 860.839 719.500 C 870.658 686.792, 877.724 660.549, 881.503 642.762 C 883.458 633.556, 887.278 618.196, 889.992 608.628 C 892.705 599.061, 897.415 581.393, 900.458 569.366 C 903.501 557.340, 908.240 539.400, 910.989 529.500 C 917.892 504.640, 920.680 490.346, 922.496 470.500 C 923.352 461.150, 924.930 446.975, 926.002 439 C 928.846 417.853, 929.998 404.001, 929.999 390.964 C 930 384.619, 930.876 369.994, 931.947 358.464 C 933.018 346.934, 934.372 329.175, 934.956 319 C 935.540 308.825, 936.451 297.800, 936.980 294.500 C 938.734 283.568, 940.919 262.714, 941.957 247 C 942.520 238.475, 943.874 220.925, 944.966 208 C 946.057 195.075, 947.409 176.850, 947.969 167.500 C 948.529 158.150, 949.728 146.450, 950.633 141.500 C 957.398 104.512, 943.252 88.778, 920.982 108.521 C 916.317 112.657, 907.775 119.261, 902 123.197 C 896.225 127.132, 887 133.806, 881.500 138.026 C 876 142.246, 864.569 150.285, 856.098 155.890 C 830.545 172.798, 822.430 180.338, 800.818 207.256 C 794.087 215.640, 785.317 226.433, 781.329 231.240 C 777.342 236.047, 765.967 251.370, 756.052 265.291 C 746.137 279.211, 731.187 299.128, 722.831 309.550 C 714.475 319.973, 703.816 333.450, 699.144 339.500 C 694.473 345.550, 685.606 356.642, 679.441 364.148 C 673.275 371.654, 662.942 384.929, 656.478 393.648 C 637.194 419.660, 632.097 423.405, 623.290 418.035 C 616.448 413.863, 615.988 411.871, 611.992 369 C 610.325 351.125, 608.531 332.900, 608.004 328.500 C 607.477 324.100, 606.341 310.825, 605.480 299 C 603.363 269.920, 601.834 259.859, 589.911 196.500 C 585.670 173.961, 568.084 105.914, 560.914 84.299 C 554.085 63.711, 546.938 57.376, 536.404 62.573"/>
    </g>
    <g id="detalles" fill="#1A1A1A">
      <path d="M 539.500 52.522 C 536.750 53.875, 533.825 54.988, 533 54.995 C 530.190 55.019, 525.046 58.936, 523.271 62.405 C 522.297 64.307, 519.350 69.794, 516.722 74.597 C 514.095 79.400, 509.441 88.993, 506.382 95.915 C 503.322 102.837, 498.187 114.125, 494.970 121 C 487.904 136.100, 485.752 141.285, 478.069 161.710 C 474.802 170.395, 468.472 186.500, 464.001 197.500 C 453.048 224.450, 446.160 243.247, 440 263 C 437.169 272.075, 433.123 284.900, 431.008 291.500 C 428.893 298.100, 426.870 305.300, 426.513 307.500 C 426.156 309.700, 425.185 314.650, 424.356 318.500 C 423.527 322.350, 421.970 330.871, 420.895 337.436 C 419.821 344.001, 417.341 353.901, 415.386 359.436 C 409.571 375.892, 407.961 382.019, 406.956 391.500 C 405.610 404.196, 398.195 431.082, 393.717 439.500 C 393.131 440.600, 392.393 442.760, 392.076 444.300 C 391.250 448.315, 391.094 448.258, 380.421 440 C 368.350 430.661, 352.069 414.359, 346.062 405.597 C 344.838 403.811, 341.294 399.608, 331.702 388.569 C 328.919 385.365, 321.753 375.986, 318.278 371 C 316.554 368.525, 312.748 363.966, 309.822 360.869 C 306.895 357.771, 302.025 351.569, 299 347.085 C 295.975 342.601, 291.010 335.896, 287.968 332.185 C 284.925 328.474, 281.100 323.657, 279.468 321.481 C 265.267 302.552, 241.540 273.725, 207.965 234.608 C 202.721 228.499, 197.717 222.470, 196.843 221.210 C 195.970 219.951, 193.286 216.798, 190.878 214.204 C 188.470 211.611, 184.302 206.566, 181.616 202.994 C 178.929 199.422, 173.979 193.772, 170.616 190.438 C 167.252 187.103, 156.625 175.959, 147 165.673 C 137.375 155.387, 127.700 145.515, 125.500 143.735 C 123.300 141.956, 119.475 138.428, 117 135.895 C 90.457 108.736, 82.246 103.838, 69.479 107.549 C 53.922 112.072, 51.321 120.724, 54.008 159 C 54.491 165.875, 55.365 183.200, 55.951 197.500 C 56.536 211.800, 57.893 229.800, 58.965 237.500 C 60.037 245.200, 61.200 254.200, 61.549 257.500 C 62.699 268.377, 64.813 280.428, 66.373 285 C 67.217 287.475, 68.583 292.200, 69.409 295.500 C 72.377 307.365, 75.960 322.604, 77.050 328 C 79.506 340.152, 81.378 347.340, 86.947 366 C 94.448 391.133, 95.733 396.488, 97.022 408 C 98.638 422.436, 108.944 454.760, 119.979 480 C 131.317 505.936, 132.498 509.523, 132.512 518.059 C 132.526 526.887, 134.394 531.913, 140.484 539.508 C 142.876 542.491, 146.070 548.558, 148.381 554.508 C 155.978 574.067, 160.449 583.751, 170.770 603 C 184.479 628.566, 205.592 665.336, 211.803 674.462 C 218.091 683.700, 231.161 701.594, 240 713.065 C 245.225 719.846, 252.069 728.743, 255.208 732.835 C 258.347 736.928, 261.947 741.455, 263.208 742.896 C 264.469 744.337, 266.784 747.087, 268.354 749.008 C 273.086 754.799, 326.218 808.047, 328.438 809.223 C 331.793 811, 349 825.088, 349 826.058 C 349 826.548, 350.297 827.619, 351.882 828.439 C 353.468 829.259, 356.473 831.732, 358.561 833.935 C 360.648 836.139, 363.960 838.702, 365.921 839.633 C 369.687 841.420, 377.943 846.787, 389.453 854.929 C 393.276 857.634, 398.451 860.738, 400.953 861.825 C 403.454 862.913, 408.356 865.017, 411.847 866.501 C 415.337 867.985, 421.762 871.367, 426.124 874.016 C 434.494 879.100, 452.468 885.614, 460.500 886.475 C 462.808 886.722, 477.273 891.410, 487.500 895.226 C 497.514 898.962, 499.486 899.359, 509.500 899.648 C 517.688 899.885, 522.545 900.599, 528.500 902.440 C 532.900 903.801, 539.875 905.325, 544 905.827 C 548.125 906.329, 553.975 907.417, 557 908.245 C 560.025 909.073, 564.750 910.037, 567.500 910.388 C 570.250 910.740, 576.550 912.329, 581.500 913.919 C 592.656 917.505, 621.329 919.914, 631.500 918.120 C 642.408 916.196, 650.394 914.175, 659 911.162 C 672.075 906.584, 687.513 905.290, 693.790 908.245 C 702.748 912.463, 708.204 911.601, 725.315 903.262 C 733.464 899.291, 742.014 895.556, 744.315 894.962 C 757.487 891.564, 784.972 875.778, 794.743 866 C 815.237 845.491, 818.482 840.716, 827.879 817.249 C 830.137 811.611, 832.420 806.211, 832.953 805.249 C 833.486 804.287, 835.102 800.800, 836.543 797.500 C 837.985 794.200, 842.793 784.075, 847.229 775 C 851.665 765.925, 855.916 757.150, 856.675 755.500 C 858.219 752.148, 864.596 731.221, 866.427 723.500 C 867.079 720.750, 868.326 716.925, 869.198 715 C 871.541 709.830, 875.029 697.872, 875.031 695 C 875.032 693.625, 877.304 685.525, 880.079 677 C 882.855 668.475, 885.512 658.125, 885.984 654 C 886.891 646.073, 894.287 616.560, 900.371 596.588 C 902.367 590.037, 904 583.377, 904 581.789 C 904 580.200, 904.724 577.502, 905.608 575.792 C 906.492 574.081, 907.587 570.391, 908.040 567.591 C 909.322 559.677, 911.765 549.634, 913.444 545.373 C 914.283 543.243, 916.073 537.225, 917.420 532 C 918.768 526.775, 920.985 518.214, 922.348 512.976 C 926.378 497.486, 927.802 489.306, 929.046 474.500 C 929.693 466.800, 930.335 459.375, 930.473 458 C 930.611 456.625, 931.050 451.900, 931.448 447.500 C 931.847 443.100, 932.590 437.857, 933.099 435.848 C 934.989 428.391, 936.047 415.932, 936.526 395.500 C 936.796 383.950, 937.454 370.450, 937.987 365.500 C 940.345 343.615, 940.988 335.520, 941.562 320.500 C 941.898 311.700, 942.802 300.900, 943.571 296.500 C 945.368 286.218, 948.681 252.973, 949.451 237.500 C 949.779 230.900, 950.902 217.175, 951.947 207 C 952.991 196.825, 954.127 180.211, 954.472 170.079 C 954.817 159.947, 955.525 149.822, 956.045 147.579 C 961.947 122.126, 961.873 114.168, 955.647 104.787 C 953.641 101.765, 952 98.803, 952 98.204 C 952 95.412, 947.653 90.147, 943.979 88.491 C 937.434 85.539, 933.420 87.387, 922.034 98.594 C 909.727 110.708, 901.393 117.273, 892.875 121.563 C 889.106 123.461, 884.419 126.571, 882.459 128.474 C 872.856 137.800, 867.605 141.632, 852.111 150.621 C 831.103 162.809, 813.086 180.064, 791.260 208.898 C 785.152 216.967, 781.948 220.888, 778.157 224.933 C 772.552 230.915, 759.781 248.246, 745.244 269.597 C 741.463 275.151, 736.946 281.451, 735.206 283.597 C 733.466 285.744, 727.278 293.575, 721.455 301 C 715.632 308.425, 707.741 318.177, 703.919 322.671 C 700.098 327.165, 695.382 333.240, 693.441 336.171 C 689.159 342.633, 686.398 346.088, 678.225 355.209 C 674.774 359.060, 670.538 364.301, 668.811 366.856 C 667.084 369.410, 663.317 374.216, 660.439 377.536 C 655.291 383.474, 646 396.417, 646 397.649 C 646 397.995, 643.627 401.028, 640.727 404.389 C 637.827 407.750, 634.194 412.201, 632.654 414.279 C 628.914 419.327, 625.760 422.180, 624.944 421.256 C 623.952 420.132, 622.004 406.985, 620.979 394.500 C 620.482 388.450, 619.836 382.150, 619.543 380.500 C 619.093 377.969, 617.685 360.280, 616.558 343 C 616.396 340.525, 615.555 333.100, 614.689 326.500 C 613.822 319.900, 612.850 309.550, 612.528 303.500 C 611.697 287.865, 610.053 269.268, 609.038 264 C 608.561 261.525, 607.631 256.125, 606.972 252 C 606.313 247.875, 605.181 241.800, 604.457 238.500 C 603.732 235.200, 602.639 229.575, 602.028 226 C 597.656 200.425, 594.741 184.999, 592.487 175.500 C 591.051 169.450, 588.988 160.717, 587.901 156.094 C 586.814 151.471, 585.727 147.367, 585.484 146.974 C 585.241 146.581, 584.328 143.613, 583.455 140.380 C 578.465 121.891, 576.493 114.345, 573.948 104 C 562.891 59.061, 553.806 45.485, 539.500 52.522 M 534.183 99.750 C 533.695 100.713, 531.150 106.450, 528.528 112.500 C 525.905 118.550, 521.731 128, 519.252 133.500 C 516.773 139, 513.878 145.975, 512.819 149 C 511.761 152.025, 510.243 155.918, 509.447 157.651 C 508.651 159.384, 508 161.285, 508 161.874 C 508 162.464, 507.144 164.871, 506.099 167.223 C 501.470 177.634, 496.899 189.108, 494.434 196.500 C 492.967 200.900, 489.544 209.641, 486.826 215.923 C 484.108 222.206, 481.258 229.631, 480.493 232.423 C 479.727 235.216, 477.526 242, 475.601 247.500 C 473.675 253, 469.595 266.050, 466.534 276.500 C 463.472 286.950, 459.350 300.900, 457.374 307.500 C 453.438 320.640, 450.136 335.649, 450.053 340.768 C 449.986 344.932, 447.164 355.292, 441.990 370.376 C 437.582 383.227, 433.871 397.403, 432.012 408.500 C 430.370 418.302, 426.268 432.210, 422.574 440.500 C 421.276 443.413, 418.879 451.189, 415.484 463.500 C 410.351 482.111, 405.306 486.735, 393.264 483.864 C 377.276 480.053, 374.716 478.901, 367 472.052 C 356.800 462.997, 344.350 453, 343.275 453 C 342.789 453, 340.900 454.540, 339.076 456.422 C 336.512 459.067, 334.145 460.239, 328.652 461.585 C 324.743 462.543, 319.060 464.332, 316.022 465.561 C 305.482 469.826, 298.484 472.843, 295.500 474.411 C 293.850 475.278, 291.647 475.990, 290.606 475.994 C 289.564 475.997, 284.293 478.025, 278.894 480.500 C 273.495 482.975, 268.806 485, 268.474 485 C 268.143 485, 265.538 486.060, 262.686 487.355 C 259.834 488.651, 255.700 490.283, 253.500 490.982 C 248.315 492.629, 243.510 494.847, 214 509.216 C 200.525 515.777, 185.992 522.760, 181.704 524.733 C 175.625 527.530, 174.057 528.670, 174.583 529.910 C 174.954 530.785, 175.462 532.625, 175.713 534 C 176.121 536.234, 178.506 542.729, 182.692 553 C 184.949 558.539, 193.558 574.997, 209.658 604.554 C 234.617 650.376, 263.745 691.641, 297.445 728.923 C 311.284 744.232, 341.616 774.864, 347.324 779.295 C 350.721 781.932, 355.750 785.813, 358.500 787.921 C 361.250 790.028, 366.947 795.117, 371.160 799.229 C 375.913 803.867, 382.381 808.790, 388.200 812.196 C 393.359 815.217, 401.758 820.860, 406.865 824.737 C 413.381 829.685, 418.438 832.616, 423.825 834.568 C 430.686 837.054, 433.491 838.439, 440.500 842.805 C 446.703 846.669, 455 849.670, 473.165 854.618 C 484.321 857.658, 496.610 861.506, 500.474 863.171 C 506.172 865.626, 509.686 866.368, 519.061 867.092 C 525.420 867.583, 534.154 868.889, 538.471 869.993 C 542.788 871.097, 547.935 872.006, 549.910 872.013 C 551.884 872.020, 556.246 872.887, 559.602 873.939 C 562.958 874.991, 569.111 876.326, 573.275 876.905 C 577.439 877.485, 585.493 879.503, 591.173 881.392 C 610.370 887.774, 624.908 888.230, 641.092 882.960 C 657.934 877.476, 666.136 876.113, 683.724 875.877 C 693.837 875.741, 694.285 875.828, 696.641 878.368 C 697.983 879.816, 699.442 881, 699.884 881 C 701.937 881, 712.349 876.820, 720.500 872.723 C 725.450 870.235, 731.386 867.694, 733.692 867.077 C 758.304 860.486, 786.885 836.609, 797.225 814 C 799.363 809.325, 801.792 804.020, 802.622 802.211 C 803.452 800.402, 804.765 796.802, 805.540 794.211 C 806.314 791.620, 812.112 779.062, 818.424 766.303 C 828.835 745.261, 832.414 736.534, 837.414 720 C 838.328 716.975, 840.874 708.892, 843.071 702.037 C 847.778 687.351, 859.550 641.036, 863.934 619.954 C 866.036 609.846, 867.150 605.538, 871.811 589.500 C 874.880 578.943, 877.645 568.197, 879.035 561.435 C 879.495 559.199, 881.308 553.349, 883.064 548.435 C 884.821 543.521, 887.993 532.975, 890.113 525 C 892.234 517.025, 895.103 506.450, 896.489 501.500 C 898.168 495.505, 899.514 486.656, 900.521 475 C 902.032 457.509, 902.563 453.393, 905.489 436.500 C 907.749 423.450, 910.259 368, 908.590 368 C 908.364 368, 905.327 369.350, 901.840 370.999 C 894.885 374.289, 882.953 375.120, 874.500 372.903 C 872.300 372.326, 867.554 371.295, 863.953 370.611 C 860.352 369.928, 856.923 369.070, 856.332 368.705 C 849.762 364.645, 813.322 358.687, 809.048 360.975 C 805.818 362.703, 806.902 363.515, 824.500 372.563 C 832.750 376.804, 840.175 380.830, 841 381.510 C 841.825 382.189, 844.300 383.565, 846.500 384.568 C 878.292 399.060, 901.612 425.358, 894.589 438.800 C 892.398 442.995, 888.028 446.645, 881.775 449.505 L 876.051 452.123 863.275 449.001 C 831.126 441.143, 815.400 436.638, 795 429.443 C 779.286 423.900, 767.376 420.635, 763.500 420.808 C 757.509 421.074, 750 422.208, 750.003 422.847 C 750.010 423.993, 800.156 451.651, 824.673 464.031 C 834.118 468.800, 844.132 474.344, 846.925 476.351 C 849.719 478.358, 852.317 480, 852.699 480 C 859.919 480, 878.986 503.090, 879.006 511.859 C 879.010 513.312, 879.625 515.675, 880.374 517.110 C 881.929 520.090, 881.088 522.347, 877.313 525.323 C 876.041 526.325, 875 527.718, 875 528.418 C 875 531.855, 865.461 535.649, 859.296 534.663 C 850.124 533.197, 832.514 527.292, 819.898 521.453 C 788.885 507.099, 769.942 500.325, 725 487.515 C 708.551 482.826, 695.816 478.959, 693.500 477.949 C 692.400 477.469, 686.100 475.300, 679.500 473.127 C 672.900 470.955, 665.413 468.275, 662.863 467.173 C 657.539 464.871, 645.368 461.426, 639.500 460.561 C 635.596 459.985, 635.298 460.162, 627.080 467.985 C 617.511 477.095, 614.867 477.853, 606.630 473.851 C 600.311 470.781, 592.841 457.766, 596.575 456.333 C 598.283 455.677, 598.323 456.472, 595.487 434.500 C 592.021 407.639, 590.932 397.845, 588.543 372 C 587.145 356.875, 585.092 335.275, 583.982 324 C 582.871 312.725, 581.520 296.075, 580.980 287 C 580.027 271.013, 577.693 255.423, 572.524 230.500 C 571.155 223.900, 568.914 211.975, 567.544 204 C 565.031 189.377, 560.412 171.074, 555.050 154.500 C 550.966 141.878, 545.680 124.271, 542.439 112.500 C 538.716 98.979, 536.393 95.392, 534.183 99.750 M 918.042 142.532 C 914.490 145.012, 910.665 147.883, 909.542 148.911 C 908.419 149.938, 905.025 152.007, 902 153.507 C 898.975 155.007, 893.575 159.003, 890 162.387 C 886.425 165.770, 881.025 170.156, 878 172.133 C 864.597 180.893, 860.758 183.200, 855.231 185.813 C 851.282 187.681, 847.584 190.554, 843.988 194.548 C 841.041 197.822, 833.803 205.675, 827.903 212 C 817.843 222.785, 809.650 232.824, 805.854 239.016 C 804.948 240.493, 803.148 242.795, 801.854 244.131 C 795.159 251.042, 789 258.226, 789 259.125 C 789 260.087, 785.807 264.870, 779.807 272.897 C 778.325 274.879, 773.193 282.350, 768.401 289.500 C 763.609 296.650, 756.946 305.784, 753.594 309.798 C 740.089 325.972, 737.902 328.680, 734.859 333 C 732.049 336.989, 720.550 350.691, 718.913 352 C 718.569 352.275, 715.663 356.325, 712.454 361 C 709.245 365.675, 703.557 372.875, 699.814 377 C 696.070 381.125, 693.005 384.972, 693.003 385.550 C 693 386.538, 724.814 388.407, 762.500 389.632 C 775.689 390.060, 776.339 389.994, 773.714 388.493 C 769.278 385.954, 754.983 376.096, 749.233 371.610 C 743.455 367.101, 736.266 354.403, 735.265 346.936 C 734.218 339.132, 747.594 329.060, 759.134 328.963 C 761.535 328.943, 766.620 328.323, 770.433 327.586 C 774.934 326.715, 778.440 326.553, 780.427 327.122 C 782.110 327.605, 787.090 328.006, 791.493 328.014 C 801.841 328.032, 837.025 330.650, 843.499 331.883 C 846.249 332.406, 848.605 332.728, 848.735 332.598 C 848.952 332.382, 846.440 328.918, 835.675 314.591 C 827.331 303.485, 821.287 285.804, 823.810 279.878 C 825.425 276.083, 833.510 268, 835.691 268 C 847.101 268, 877.952 245.253, 884.166 232.258 C 886.278 227.841, 888.974 224.143, 891.949 221.584 L 896.500 217.667 896.816 220.334 C 897.220 223.735, 897.437 223.702, 902.598 219.474 C 907.406 215.534, 909 216.365, 909 222.812 C 909 224.431, 909.675 226.315, 910.500 227 C 911.526 227.851, 912 230.126, 912 234.198 C 912 246.228, 896.723 265.852, 874.250 282.688 C 868.063 287.323, 863.002 291.652, 863.004 292.308 C 863.018 296.948, 874.545 308.640, 891.500 321.212 C 902.690 329.510, 906.790 332.833, 908.890 335.306 C 912.462 339.513, 912.984 337.919, 913.929 319.916 C 914.403 310.887, 915.730 298.429, 916.878 292.230 C 918.026 286.032, 919.417 274.557, 919.971 266.730 C 920.524 258.904, 921.630 244.400, 922.429 234.500 C 925.949 190.865, 928.434 145.250, 927.517 141.077 C 926.630 137.039, 925.704 137.181, 918.042 142.532 M 85.338 153.562 C 84.537 155.650, 87.718 221.327, 89.016 229.500 C 89.540 232.800, 90.666 242.025, 91.518 250 C 92.369 257.975, 93.723 266.750, 94.526 269.500 C 96.860 277.494, 106.456 315.396, 109.464 328.500 C 110.979 335.100, 113.095 342.750, 114.168 345.500 C 115.240 348.250, 117.203 353.883, 118.529 358.018 C 121.779 368.149, 123.922 371.096, 123.972 365.500 C 124.027 359.201, 131.853 341, 134.505 341 C 137.383 341, 144.990 321.187, 145.012 313.636 C 145.018 311.361, 145.693 307.025, 146.510 304 C 150.638 288.731, 150.396 282.035, 145.715 281.968 C 143.006 281.929, 140.881 280.305, 139.216 277 C 138.524 275.625, 136.842 272.971, 135.479 271.102 C 132.847 267.494, 132.234 262.300, 134.042 258.921 C 134.704 257.684, 134.744 256.365, 134.151 255.306 C 132.341 252.071, 150.132 243, 158.286 243 C 171.376 243, 183.535 269.679, 180.162 291 C 179.597 294.575, 178.654 300.771, 178.067 304.768 C 177.034 311.807, 171.341 331.230, 168.429 337.651 C 164.674 345.931, 166.819 346.494, 179.496 340.559 C 183.348 338.755, 188.075 336.691, 190 335.972 C 191.925 335.253, 193.950 334.332, 194.500 333.924 C 195.050 333.517, 198.200 332.202, 201.500 331.001 C 225.638 322.219, 233.455 322.353, 240.561 331.669 L 243.246 335.189 241.510 341.844 C 240.555 345.505, 238.250 350.856, 236.387 353.735 C 234.524 356.614, 233 359.314, 232.999 359.735 C 232.998 360.408, 228.875 366.444, 218.500 380.964 C 216.850 383.273, 212.688 388.706, 209.250 393.037 C 205.813 397.368, 203 401.155, 203 401.453 C 203 401.751, 201.386 404.242, 199.413 406.988 C 197.441 409.734, 195.978 412.416, 196.163 412.950 C 196.885 415.027, 235.518 393.871, 246.158 385.573 C 247.620 384.433, 252.345 381.047, 256.658 378.048 C 275.118 365.215, 276.072 363.813, 270.681 357.430 C 268.856 355.268, 265.978 351.475, 264.285 349 C 262.593 346.525, 258.562 341.350, 255.328 337.500 C 252.095 333.650, 248.188 328.335, 246.646 325.689 C 245.105 323.042, 243.213 320.635, 242.442 320.339 C 241.671 320.044, 240.106 318.289, 238.963 316.441 C 237.821 314.592, 229.433 304.850, 220.323 294.790 C 199.294 271.568, 184.069 252.902, 180.452 245.908 C 179.631 244.319, 177.896 242.323, 176.597 241.472 C 175.298 240.621, 172.070 237.129, 169.423 233.712 C 166.776 230.295, 155.741 218.500, 144.901 207.500 C 134.062 196.500, 123.968 186.019, 122.472 184.208 C 119.002 180.009, 90.734 154.624, 87.380 152.695 C 86.463 152.167, 85.758 152.466, 85.338 153.562 M 522.313 195.074 C 506.713 202.796, 512.289 216.233, 532.128 218.730 C 538.559 219.540, 540.590 213.716, 537.502 203.319 C 534.487 193.165, 530.520 191.012, 522.313 195.074 M 499 248.636 C 487.305 252.363, 484 255.907, 484 264.721 C 484 271.709, 490.385 282, 494.721 282 C 496.047 282, 498.032 282.482, 499.133 283.071 C 501.414 284.292, 504.120 282.903, 508.511 278.259 C 519.549 266.583, 512.414 244.361, 499 248.636 M 542 256.935 C 530.909 260.321, 527.254 265.627, 529.123 275.630 C 530.282 281.832, 534.494 288, 537.571 288 C 538.835 288, 541.072 288.457, 542.541 289.016 C 552.467 292.790, 560.590 273.585, 554.233 261.373 C 551.435 255.997, 548.527 254.942, 542 256.935 M 481.139 310.147 C 467.814 313.982, 462.943 326.317, 470.350 337.471 C 480.056 352.090, 499 344.181, 499 325.510 C 499 312.785, 492.225 306.958, 481.139 310.147 M 547.256 323.030 C 537.936 327.687, 535.553 335.697, 540.522 345.669 C 549.162 363.006, 569.224 355.350, 567.787 335.264 C 566.730 320.494, 560.163 316.580, 547.256 323.030 M 467.500 368.222 C 456.317 372.186, 452.909 382.219, 458.793 393.853 C 461.902 400.002, 469.241 404.047, 473.696 402.068 C 484.896 397.092, 490.225 383.249, 484.885 373.005 C 481.742 366.974, 475.704 365.313, 467.500 368.222 M 550.194 371.203 C 540.395 374.487, 537.104 384.498, 542.458 394.737 C 550.688 410.477, 569 403.764, 569 385.008 C 569 371.135, 563.168 366.854, 550.194 371.203 M 186.466 372.496 C 184.798 373.229, 180.788 375.039, 177.555 376.518 C 170.887 379.568, 140.642 390, 138.468 390 C 137.683 390, 134.669 388.202, 131.770 386.004 C 126.873 382.291, 124.262 380.971, 125.334 382.750 C 125.583 383.163, 126.307 388.450, 126.944 394.500 C 128.031 404.832, 137.014 436, 138.905 436 C 139.239 436, 140.121 434.625, 140.865 432.944 C 141.609 431.263, 143.924 428.810, 146.011 427.493 C 148.097 426.176, 151.182 423.389, 152.866 421.299 C 162.099 409.842, 168.330 402.160, 175.547 393.338 C 193.962 370.825, 195.066 368.717, 186.466 372.496 M 514.711 379.495 C 502.008 382.720, 500.622 389.184, 510.861 397.457 C 520.718 405.421, 527.031 403.352, 526.978 392.173 C 526.929 381.667, 522.832 377.433, 514.711 379.495 M 290.050 403.750 C 286.087 408.563, 280.517 415.353, 277.672 418.841 C 265.244 434.077, 259.381 440.943, 253.203 447.500 C 236.986 464.709, 236.991 464.491, 253 457.502 C 257.675 455.461, 263.623 452.946, 266.217 451.912 C 268.811 450.879, 275.673 447.776, 281.465 445.017 C 287.257 442.257, 292.453 440, 293.012 440 C 293.570 440, 294.809 439.570, 295.764 439.044 C 297.993 437.817, 311.015 432, 311.532 432 C 313.564 432, 323 427.569, 323 426.615 C 323 425.933, 321.591 424.052, 319.870 422.437 C 316.250 419.040, 306.505 406.507, 303.325 401.158 C 298.552 393.129, 298.844 393.072, 290.050 403.750 M 457.488 421.019 C 457.142 421.579, 454.672 423.146, 451.999 424.501 C 435.848 432.685, 440.985 458.256, 458.435 456.537 C 479.128 454.497, 481.488 420, 460.934 420 C 459.385 420, 457.835 420.459, 457.488 421.019 M 664 422.616 C 664 423.108, 662.200 425.422, 660 427.757 C 655.423 432.617, 655.081 434.190, 658.250 435.817 C 660.969 437.213, 685.699 445.415, 692 447.010 C 694.475 447.637, 700.775 449.633, 706 451.446 C 711.225 453.259, 721.125 456.336, 728 458.285 C 734.875 460.233, 741.400 462.157, 742.500 462.561 C 745.312 463.592, 743.393 461.709, 739 459.126 C 730.973 454.406, 716.899 446.681, 708.245 442.245 C 703.155 439.635, 698.759 436.783, 698.477 435.906 C 696.989 431.283, 664 418.566, 664 422.616 M 554.176 426.150 C 544.987 429.680, 542.726 436.938, 547.408 447.875 C 548.733 450.969, 550.044 454.223, 550.322 455.107 C 550.618 456.048, 552.415 456.967, 554.664 457.327 C 556.774 457.664, 559.208 458.066, 560.073 458.220 C 565.077 459.111, 572.893 447.431, 572.934 439 C 572.996 426.214, 566.174 421.540, 554.176 426.150 M 511.017 431.655 C 504.782 434.413, 501.999 436.936, 502.014 439.818 C 502.040 444.923, 503.214 446.845, 509.095 451.412 C 521.980 461.419, 530.208 453.795, 524.651 437 C 522.219 429.650, 518.683 428.264, 511.017 431.655 M 213 441.689 C 185.506 455.937, 153.167 464.624, 149.829 458.659 C 147.370 454.264, 146.278 457.203, 148.590 461.995 C 149.916 464.742, 151 467.494, 151 468.109 C 151 468.724, 151.862 470.864, 152.916 472.864 C 155.728 478.199, 161 491.613, 161 493.430 C 161 496.552, 164.328 494.859, 172.833 487.410 C 205.137 459.119, 221.154 444.437, 227.010 437.750 C 232.363 431.638, 232.432 431.619, 213 441.689 M 282.759 493.399 C 269.035 498.384, 268.716 506.918, 281.736 520.790 C 289.217 528.760, 289.747 528.984, 293.497 525.750 C 297.903 521.948, 299.629 506.717, 296.754 497 C 295.229 491.848, 290.431 490.613, 282.759 493.399 M 611.500 492.984 C 601.724 495.522, 600.622 497.263, 599.465 512 C 598.130 529.021, 598.434 532.800, 601.388 535.883 C 602.790 537.346, 604.306 540.333, 604.757 542.521 C 606.352 550.245, 612.870 547.267, 616.842 537 C 624.086 518.277, 625.589 506.873, 621.937 498.353 C 619.127 491.797, 618.102 491.269, 611.500 492.984 M 650.218 494.176 C 644.798 496.804, 644.056 498.264, 643.016 508.349 C 642.549 512.873, 641.168 519.258, 639.947 522.538 C 636.300 532.336, 636.352 535.130, 640.226 537.514 C 642.365 538.829, 643.607 540.451, 643.809 542.190 C 644.562 548.673, 649.366 547.455, 656.817 538.894 C 661.320 533.719, 666.126 519.457, 666.722 509.500 C 667.676 493.580, 662.108 488.411, 650.218 494.176 M 552.449 496.035 C 544.970 499.482, 544.476 500.640, 545.887 511.426 C 546.873 518.960, 546.863 522.042, 545.837 527.012 L 544.557 533.206 548.029 536.456 C 549.938 538.244, 552.190 541.007, 553.034 542.596 C 561.124 557.831, 575.238 517.334, 568.030 499.573 L 565.768 494 561.134 494.084 C 558.585 494.131, 554.677 495.008, 552.449 496.035 M 701.500 494.935 C 692.853 497.040, 690.131 501.666, 687.043 519.500 C 686.471 522.800, 685.731 526.706, 685.399 528.179 C 684.845 530.632, 685.077 530.885, 688.146 531.179 C 690.869 531.440, 691.810 532.167, 693.167 535.060 C 695.872 540.828, 697.383 541.575, 701.054 538.962 C 708.645 533.557, 713.981 522.807, 714.686 511.500 C 715.573 497.261, 711.738 492.443, 701.500 494.935 M 242.299 512.994 C 232.291 517.110, 226.071 531.380, 232.461 535.566 C 233.815 536.453, 235.175 537.926, 235.483 538.839 C 237.057 543.497, 249.749 555, 253.314 555 C 258.093 555, 260 552.846, 260 547.447 C 260 528.571, 250.306 509.702, 242.299 512.994 M 507.500 514 C 505.850 514.420, 502.144 514.817, 499.264 514.882 C 493.665 515.008, 471.655 518.039, 458.500 520.496 C 433.883 525.092, 407.518 525.654, 387.500 522.008 C 361.324 517.240, 334 516.704, 334 520.959 C 334 522.619, 337.432 527.577, 341.161 531.304 C 342.075 532.218, 342.607 533.787, 342.344 534.792 C 342.016 536.047, 342.669 536.984, 344.433 537.788 C 345.976 538.490, 347 539.776, 347 541.010 C 347 543.552, 347.073 543.577, 360.456 545.513 C 366.482 546.384, 371.982 547.570, 372.679 548.148 C 375.065 550.129, 392.923 552.875, 406.712 553.382 C 414.295 553.661, 422.543 554.187, 425.040 554.551 C 431.011 555.423, 451.386 553.521, 464.252 550.890 C 479.318 547.810, 487.260 546.860, 488.403 548.003 C 489.038 548.638, 488.964 552.563, 488.189 559.240 C 486.061 577.592, 485.098 608.261, 484.461 678 C 483.748 756.004, 483.237 750.923, 492.303 755.938 L 496.936 758.500 502.679 755.500 C 508.177 752.628, 514.831 744.374, 514.961 740.266 C 515.028 738.148, 534.109 700, 535.102 700 C 535.619 700, 536.439 701.013, 536.923 702.250 C 538.808 707.071, 547.416 737.918, 549.480 747.248 C 557.626 784.072, 579.898 786.604, 591.270 752 C 598.916 728.737, 600.185 714.844, 600.683 649 C 600.992 608.253, 601.399 594.233, 602.298 593.441 C 606.704 589.561, 619.657 587.520, 649.500 586.003 C 673.613 584.778, 687.955 583.332, 694 581.517 C 696.475 580.774, 702.100 579.415, 706.500 578.498 C 710.900 577.580, 717.425 576.156, 721 575.334 C 761.173 566.095, 772.153 565.607, 780.780 572.676 C 788.286 578.827, 795.485 573.380, 790.978 564.959 C 790.062 563.248, 790.175 562.464, 791.558 560.936 C 793.356 558.949, 785.804 548, 782.634 548 C 781.968 548, 779.640 547.045, 777.461 545.878 C 770.453 542.123, 759.789 542.244, 735.500 546.355 C 695.955 553.048, 691.492 553.779, 686.241 554.425 C 677.390 555.513, 651.826 557.025, 624.500 558.075 C 584.274 559.621, 579.223 560.571, 575.139 567.356 C 573.380 570.279, 573.204 573.798, 572.632 617.500 C 571.844 677.610, 569.379 705.844, 566.498 687.745 C 566.127 685.410, 565.212 681.250, 564.465 678.500 C 563.719 675.750, 562.380 668.775, 561.490 663 C 558.841 645.811, 556.579 642.225, 547.813 641.320 C 540.554 640.571, 529.404 645.832, 526.836 651.218 C 525.936 653.105, 523.467 657.257, 521.350 660.444 C 519.232 663.631, 516.768 667.340, 515.874 668.686 L 514.247 671.132 513.558 667.456 C 511.877 658.497, 514.377 593.056, 517.071 575.500 C 519.927 556.885, 522.194 544.132, 523.291 540.500 C 526.460 530.014, 523.083 516.270, 516.800 514.080 C 513.374 512.886, 511.928 512.873, 507.500 514 M 219 555.567 C 217.075 556.842, 214.335 557.911, 212.911 557.942 C 210.012 558.007, 208.405 560.615, 207.402 566.885 C 206.205 574.374, 221.559 587.639, 228.410 585.034 C 232.073 583.641, 235.415 576.134, 234.596 571.138 C 234.268 569.137, 233.725 565.475, 233.388 563 C 232.816 558.795, 232.439 558.328, 227.638 555.875 L 222.500 553.250 219 555.567 M 459.236 557.122 C 449.784 559.850, 442.753 586.606, 448.757 597 C 449.869 598.925, 451.059 602.109, 451.402 604.075 C 451.754 606.094, 453.264 608.837, 454.873 610.378 L 457.720 613.106 460.782 610.530 C 462.969 608.689, 464.154 606.509, 464.928 602.900 C 465.524 600.120, 466.492 596.949, 467.079 595.852 C 470.668 589.146, 472.751 573.450, 471.058 565.874 C 468.790 555.729, 467.464 554.748, 459.236 557.122 M 821.123 558.750 C 817.544 562.364, 808 578.266, 808 580.614 C 808 581.624, 806.907 585.387, 805.571 588.975 C 798.899 606.899, 798.791 608.500, 804.249 608.500 C 808.443 608.500, 808.507 608.553, 809 612.422 C 809.637 617.417, 811.157 617.891, 814.136 614.022 C 815.436 612.334, 818.188 608.911, 820.250 606.415 C 822.313 603.920, 824.002 601.568, 824.005 601.189 C 824.007 600.810, 825.265 599.150, 826.801 597.500 C 828.336 595.850, 830.982 592.475, 832.680 590 C 834.378 587.525, 836.766 584.601, 837.986 583.502 C 844.680 577.476, 845.519 563.446, 839.497 558.250 C 835.376 554.696, 824.854 554.982, 821.123 558.750 M 300 561.964 C 270.677 562.497, 270.480 562.515, 267.250 564.938 C 265.462 566.279, 264 567.911, 264 568.566 C 264 569.220, 263.325 570.315, 262.500 571 C 259.869 573.184, 260.623 580.839, 263.998 586.213 C 269.245 594.568, 268.794 594.458, 299.203 594.810 C 313.941 594.980, 325.994 595.430, 325.987 595.810 C 325.980 596.189, 324.676 599.060, 323.089 602.189 C 315.193 617.757, 317.479 635.162, 328.527 643.588 C 332.762 646.818, 345.331 648.675, 348 646.465 C 348.825 645.782, 350.878 644.930, 352.563 644.573 C 356.398 643.760, 368.931 631.244, 371.928 625.235 C 373.429 622.227, 374.239 618.177, 374.679 611.485 C 375.136 604.516, 375.658 602, 376.646 602 C 379.355 602, 397.298 609.958, 403.312 613.826 C 418.908 623.858, 432.968 616.693, 432.994 598.700 C 433.009 588.509, 420.405 579.302, 395.135 571.044 C 380.037 566.110, 344.118 560.485, 332.500 561.235 C 330.850 561.341, 316.225 561.669, 300 561.964 M 734.500 592.945 C 729.264 595.088, 728.858 596.635, 728.673 615.140 L 728.500 632.452 733.209 634.697 C 735.989 636.022, 738.523 638.111, 739.393 639.794 C 743.214 647.182, 747.167 645.503, 748.850 635.776 C 755.107 599.610, 750.659 586.332, 734.500 592.945 M 679.500 593.929 C 671.227 595.925, 670 598.038, 670 610.285 C 670 621.727, 670.985 624.813, 675.593 627.806 C 677.546 629.074, 679.608 631.446, 680.177 633.077 C 684.395 645.179, 693.123 633.184, 694.667 613.162 C 695.891 597.284, 691.048 591.142, 679.500 593.929 M 626.404 600.559 C 617.649 603.776, 616.073 610.456, 620.035 627.545 C 620.540 629.720, 620.963 633.644, 620.976 636.265 C 620.998 640.544, 621.327 641.228, 624.209 642.981 C 625.974 644.054, 628.111 646.369, 628.959 648.125 C 632.564 655.594, 638.456 654.578, 641.346 645.987 C 645.124 634.757, 644.200 603.096, 640.019 600.512 C 637.821 599.153, 630.157 599.179, 626.404 600.559 M 268.032 622.662 C 253.731 628.043, 251.317 634.210, 260.030 643.106 C 272.982 656.330, 286 651.761, 286 633.992 C 286 620.313, 281.617 617.550, 268.032 622.662 M 816.122 635.374 C 806.698 638.784, 804.197 657.716, 812.921 659.607 C 814.340 659.914, 816.805 660.578, 818.399 661.083 C 826.967 663.794, 833.181 662.123, 834.974 656.625 C 839.542 642.617, 828.988 630.720, 816.122 635.374 M 452.500 638.707 C 447.082 639.995, 440.794 648.227, 441.583 653 C 441.992 655.475, 442.456 662, 442.613 667.500 C 443.011 681.417, 443.968 687.588, 446.078 689.853 C 447.073 690.922, 448.535 693.305, 449.326 695.148 C 451.033 699.126, 454.538 703, 456.428 703 C 463.316 703, 470.381 665.847, 466.549 649.779 C 463.783 638.181, 461.682 636.525, 452.500 638.707 M 751.500 653.676 C 749.300 653.884, 744.486 654.717, 740.803 655.527 C 737.119 656.337, 729.428 657, 723.712 657 C 712.409 657, 708.347 657.932, 697.552 663.002 C 690.767 666.188, 690.405 666.246, 682.052 665.452 C 657.851 663.153, 650.869 666.909, 652.385 681.410 C 653.597 693.005, 659.017 697.664, 674.587 700.495 C 686.267 702.619, 689.372 703.648, 691.629 706.144 C 692.658 707.282, 695.208 709.084, 697.295 710.150 C 699.382 711.215, 702.757 713.559, 704.795 715.358 C 725.589 733.718, 736.673 729.054, 746.046 698 C 750.103 684.561, 756.513 683.202, 767.500 693.454 C 780.042 705.156, 795.500 698.004, 795.500 680.500 C 795.500 672.163, 794.691 670.850, 784.823 663.193 C 775.258 655.771, 763.840 652.510, 751.500 653.676 M 386.284 663.540 C 381.215 664.834, 376.117 666.402, 374.955 667.024 C 369.037 670.191, 352.596 673.677, 337.211 675.025 C 330.237 675.637, 324.677 676.637, 323.325 677.522 C 322.085 678.335, 319.592 679.007, 317.785 679.015 C 309.665 679.053, 311.525 683.356, 322.804 690.626 C 333.032 697.218, 362.823 698.182, 384 692.606 C 389.775 691.085, 396.200 689.406, 398.277 688.875 C 406.592 686.747, 410.292 676.413, 405.854 667.714 C 402.002 660.163, 400.640 659.873, 386.284 663.540 M 386.500 696.539 C 377.067 697.778, 364.838 701.180, 357 704.744 C 354.401 705.926, 350.734 706.293, 342.756 706.170 L 332.013 706.004 327.256 709.634 C 324.640 711.631, 322.545 713.655, 322.600 714.132 C 322.867 716.445, 323.139 716.803, 325.005 717.291 C 326.362 717.646, 326.927 718.526, 326.755 720.016 C 326.615 721.227, 327.175 722.548, 328 722.951 C 337.213 727.462, 339.919 728.506, 344.350 729.258 C 354.596 730.996, 358.741 731.148, 364.568 729.999 C 379.677 727.021, 385.941 725.861, 391.500 725.011 C 398.395 723.958, 402.086 720.784, 404.053 714.216 C 406.182 707.111, 402.094 694.722, 397.750 695.112 C 397.063 695.174, 392 695.816, 386.500 696.539 M 625 717.787 L 619.500 720.557 619.576 726.028 C 619.662 732.167, 621.600 752.634, 622.604 758 C 623.346 761.966, 634.122 772.906, 637.346 772.966 C 640.293 773.020, 645.030 769.729, 645.669 767.183 C 646.577 763.564, 645.283 730.129, 644.010 724.349 C 641.987 715.157, 635.007 712.747, 625 717.787 M 423.446 737.136 C 420.726 738.860, 415.200 743.352, 411.168 747.118 C 407.135 750.884, 402.037 754.975, 399.839 756.211 C 396.922 757.850, 395.168 759.883, 393.345 763.737 L 390.847 769.016 392.891 772.324 C 399.939 783.728, 413.482 781.021, 432.881 764.330 C 440.154 758.072, 444.489 740.918, 440.128 735.656 C 437.681 732.704, 429.258 733.451, 423.446 737.136 M 745.500 740.563 C 725.708 744.219, 706.604 744.953, 695.241 742.494 C 687.803 740.884, 686.808 740.859, 685.241 742.242 C 684.283 743.087, 682.043 744.087, 680.261 744.466 C 675.792 745.415, 675.317 746.756, 678.352 749.852 C 679.780 751.308, 682.216 753.850, 683.765 755.500 C 692.028 764.300, 693.124 764.820, 707.828 766.914 C 731.368 770.268, 756.349 770.486, 770.659 767.464 C 775.002 766.546, 778.825 754.777, 776.992 747.969 C 774.538 738.855, 765.830 736.808, 745.500 740.563 M 460.386 773.906 C 449.975 780.671, 440.164 804.840, 445.334 810.985 C 446.800 812.728, 448 814.497, 448 814.916 C 448 816.119, 452.606 817.904, 454.649 817.493 C 455.667 817.288, 457.704 816.868, 459.175 816.560 C 463.121 815.733, 469.545 808.465, 473.370 800.500 C 484.944 776.392, 478.109 762.390, 460.386 773.906 M 521 778.473 C 519.625 779.266, 516.587 780.924, 514.250 782.157 L 510 784.399 509.956 792.449 C 509.932 796.877, 509.516 802.525, 509.031 805 C 507.384 813.405, 508.835 821.863, 512.224 823.616 C 513.833 824.448, 515.609 826.449, 516.172 828.064 C 517.313 831.335, 520.907 831.974, 526.738 829.941 C 532.202 828.037, 535.439 815.831, 535.476 797 C 535.506 781.631, 534.490 778.509, 529.178 777.630 C 524.150 776.799, 523.845 776.830, 521 778.473 M 738.500 780.016 C 718.612 783.153, 694.264 784.528, 683.648 783.115 C 674.916 781.952, 674.520 781.985, 673.015 783.980 C 672.156 785.120, 670.219 786.382, 668.712 786.785 L 665.971 787.518 668.236 791.975 C 670.420 796.275, 679.171 802.855, 682.846 802.961 C 683.586 802.982, 685.386 803.813, 686.846 804.806 C 689.575 806.663, 697.145 808.447, 707.242 809.611 C 717.252 810.766, 761.176 808.041, 763.352 806.131 C 769.874 800.406, 769.760 782.687, 763.185 780.155 C 758.051 778.178, 750.429 778.135, 738.500 780.016 M 567.824 793.027 C 560.718 796.695, 560.404 797.766, 563.076 809.195 C 568.764 833.526, 570.502 838.208, 575.623 843.008 C 578.067 845.299, 580.779 848.259, 581.649 849.587 C 583.905 853.030, 588.146 852.803, 591.287 849.071 C 596.852 842.457, 595.782 829.352, 586.941 795.844 C 585.237 789.386, 577.176 788.199, 567.824 793.027 M 619 807.594 C 610.308 811.440, 610.520 811.223, 610.205 816.564 C 609.875 822.166, 609.260 821.124, 624.052 840.003 C 628.755 846.005, 634.830 852.578, 637.552 854.609 C 640.273 856.640, 643.850 859.524, 645.500 861.017 C 653.524 868.278, 662.467 865.581, 663.200 855.678 C 663.730 848.537, 662.592 845.432, 656.902 838.490 C 654.201 835.196, 649.274 829.125, 645.953 825 C 642.632 820.875, 639.365 816.825, 638.693 816 C 638.021 815.175, 636.446 813.053, 635.193 811.285 C 631.714 806.378, 625.137 804.879, 619 807.594"/>
    </g>
  </g>
</svg>
