<svg viewBox="0 0 74 74" width="74mm" height="74mm" xmlns="http://www.w3.org/2000/svg">
  <g transform="scale(0.074000)">
    <g id="forma" fill="#CB3747">
      <path d="M 287.450 85.988 C 281.337 89.906, 279.263 96.173, 276.523 119 C 273.163 147.002, 271.943 212.934, 273.979 256.500 C 275.826 296.009, 277.267 407.719, 275.998 413.008 C 271.340 432.424, 258.455 426.392, 245.893 398.914 C 243.023 392.636, 237.063 380.975, 232.648 373 C 228.234 365.025, 221.799 352.471, 218.349 345.101 C 214.899 337.732, 209.860 327.832, 207.151 323.101 C 200.230 311.018, 198.648 307.627, 195.558 298.255 C 194.020 293.592, 190.642 286.644, 187.780 282.260 C 181.590 272.778, 178.128 265.992, 174.055 255.357 C 172.340 250.878, 167.893 242.328, 164.172 236.357 C 160.452 230.385, 153.878 219.558, 149.565 212.296 C 139.667 195.631, 128.898 181.267, 116.095 167.651 C 110.582 161.787, 103.550 153.581, 100.470 149.416 C 92.389 138.489, 85.820 136.403, 79.679 142.813 C 72.038 150.789, 70.634 164.793, 70.537 234 C 70.475 278.297, 70.154 292.035, 69.050 297.607 C 67.552 305.167, 67.567 305.275, 72.515 323 C 73.360 326.025, 74.931 339.750, 76.007 353.500 C 79.229 394.696, 79.845 400.214, 81.977 407 C 83.101 410.575, 84.494 417.775, 85.073 423 C 85.652 428.225, 87.659 439.025, 89.532 447 C 94.661 468.836, 103.957 527.152, 104.915 543.500 C 105.673 556.456, 105.999 558.096, 109.281 565.500 C 111.232 569.900, 115.337 581.600, 118.403 591.500 C 121.470 601.400, 126.404 616.025, 129.369 624 C 171.070 736.172, 176.240 746.222, 210.583 781.868 C 258.661 831.770, 298.191 853.079, 382.224 874.394 C 415.723 882.892, 423.852 884.024, 465.500 885.994 C 478.700 886.618, 498.030 888, 508.457 889.065 C 555.777 893.896, 614.536 890.455, 636.087 881.591 C 641.814 879.235, 653.908 874.281, 662.962 870.582 C 713.947 849.753, 737.824 831.470, 779.513 781.340 C 835.834 713.616, 866.985 643.908, 884.502 546.403 C 893.370 497.038, 897.972 475.105, 901.263 466.517 L 904.336 458.500 904.460 433 C 904.575 409.307, 904.751 406.933, 906.950 399.500 C 909.154 392.050, 909.301 390.046, 909.089 370.367 C 908.896 352.470, 909.196 347.274, 911.051 336.432 C 913.006 325.001, 913.120 322.575, 912.120 313.779 C 911.455 307.933, 911 285.585, 911 258.808 C 911 226.429, 910.548 208.028, 909.398 193.641 C 907.898 174.873, 907.906 172.909, 909.526 162.837 C 911.546 150.285, 911.199 148.087, 904.970 133.932 C 895.048 111.386, 883.471 108.400, 872.278 125.500 C 869.758 129.350, 865.580 135.200, 862.992 138.500 C 856.978 146.172, 856.571 146.986, 852.081 160.340 C 850.017 166.478, 845.817 176.900, 842.747 183.500 C 839.677 190.100, 833.709 203.825, 829.484 214 C 825.260 224.175, 815.807 246.675, 808.479 264 C 801.150 281.325, 791.254 304.950, 786.488 316.500 C 781.722 328.050, 776.228 341.100, 774.278 345.500 C 769.011 357.387, 751.933 398.610, 742.476 422.263 C 730.843 451.360, 727.668 455.986, 719.327 455.996 C 710.517 456.007, 708.531 451.796, 693.970 402.222 C 672.341 328.590, 636.551 218.461, 624.101 187.229 C 620.871 179.128, 615.878 166.200, 613.004 158.500 C 594.133 107.927, 572.596 82.758, 558.661 94.993 C 551.629 101.167, 549.233 110.390, 537.999 174.500 C 533.566 199.800, 528.400 228.825, 526.518 239 C 524.636 249.175, 521.927 264.250, 520.499 272.500 C 518.073 286.512, 509.833 328.825, 494.501 406 C 490.950 423.875, 486.902 444.907, 485.506 452.738 C 481.852 473.236, 478.591 479, 470.649 479 C 461.445 479, 459.982 475.890, 440.966 415.893 C 426.862 371.394, 414.240 334.458, 400.089 296.277 C 394.540 281.305, 390 268.798, 390 268.486 C 390 267.575, 371.515 219.329, 362.950 197.885 C 328.868 112.551, 303.853 75.476, 287.450 85.988"/>
    </g>
    <g id="detalles" fill="#1A1A1A">
      <path d="M 286.945 80.470 C 281.980 83.170, 280.629 87.545, 281.254 98.896 C 281.905 110.694, 283.371 114, 287.955 114 C 293.603 114, 295 110.192, 295 94.796 C 295 78.687, 293.881 76.697, 286.945 80.470 M 309.106 91.901 C 305.288 95.468, 305.268 94.690, 309.503 107.174 C 314.576 122.128, 317.741 125.366, 323.558 121.554 C 326.196 119.826, 326.653 116.851, 325.092 111.571 C 321.533 99.531, 320.291 96.441, 317.606 92.947 C 313.980 88.230, 313.146 88.127, 309.106 91.901 M 578.359 95.550 C 575.346 98.563, 575.499 99.637, 580.643 111.625 C 585.158 122.145, 589.039 126.180, 592.036 123.467 C 594.352 121.372, 594.207 118.513, 591.231 107.529 C 587.651 94.321, 583.475 90.434, 578.359 95.550 M 870.762 105.073 C 865.742 107.998, 866.711 113.791, 872.733 116.864 C 877.450 119.270, 888.324 129.228, 906.186 147.500 C 918.030 159.615, 920.117 161.352, 921.686 160.399 C 925.903 157.839, 923.510 148.657, 917.022 142.500 C 915.283 140.850, 912.907 137.925, 911.743 136 C 908.118 130.009, 884.987 107.156, 881.849 106.467 C 880.295 106.125, 878.766 105.431, 878.452 104.923 C 877.699 103.704, 872.954 103.796, 870.762 105.073 M 558.206 112.024 C 553.485 113.967, 548.174 135.325, 551.499 138.999 C 555.953 143.920, 562.549 136.620, 565.456 123.552 C 568.059 111.853, 566.118 108.767, 558.206 112.024 M 81.168 139.467 C 73.962 145.977, 68.825 153.492, 69.182 157.003 C 69.587 161.002, 73.475 163.599, 77.533 162.581 C 81.216 161.657, 94.664 148.188, 95.590 144.495 C 97.650 136.291, 88.294 133.029, 81.168 139.467 M 284.493 139.832 C 277.255 150.769, 277.156 175, 284.349 175 C 290.529 175, 292.985 168.064, 292.704 151.402 C 292.435 135.465, 289.821 131.781, 284.493 139.832 M 846.831 140.860 C 842.407 144.813, 843.559 150.307, 848.921 150.824 C 852.553 151.174, 854.787 152.514, 866.103 161.134 C 885.968 176.264, 901.349 190.585, 903.818 196.250 C 908.404 206.768, 916.284 197.059, 912.404 185.672 C 910.794 180.949, 894.356 164, 891.385 164 C 890.715 164, 889.342 162.916, 888.333 161.591 C 887.325 160.265, 883.350 156.803, 879.500 153.897 C 875.650 150.991, 869.352 146.225, 865.505 143.306 C 856.894 136.774, 852.106 136.147, 846.831 140.860 M 309.223 148.557 C 303.269 152.727, 311.650 174, 319.246 174 C 325.463 174, 326.343 168.723, 321.918 157.981 C 317.608 147.518, 314.257 145.030, 309.223 148.557 M 335.077 149.589 C 331.190 152.860, 331.110 152.210, 336.880 164.286 C 342.891 176.869, 346 183.788, 346 184.585 C 346 189.616, 353.339 192.397, 356.826 188.686 C 360.363 184.920, 359.137 180.009, 349.484 159.261 C 343.386 146.154, 341.035 144.576, 335.077 149.589 M 607.500 153.719 C 601.008 155.301, 600.944 156.923, 606.886 169.312 C 614.317 184.807, 616 188.801, 616 190.932 C 616 193.417, 619.532 195.935, 622.083 195.268 C 631.592 192.781, 628.899 174.898, 616.433 157.750 C 613.082 153.140, 611.959 152.633, 607.500 153.719 M 578.095 155.872 C 573.184 157.247, 573.170 159.062, 577.961 173.092 C 582.773 187.184, 583.842 188.527, 588.636 186.511 C 595.030 183.822, 595.620 178.058, 590.579 167.500 C 589.792 165.850, 588.602 163.020, 587.936 161.210 C 586.741 157.966, 583.531 154.905, 581.527 155.100 C 580.962 155.155, 579.418 155.502, 578.095 155.872 M 96.500 163.619 C 81.223 175.207, 64.189 193.639, 63.475 199.353 C 62.417 207.826, 62.945 209.447, 66.888 209.824 C 72.585 210.368, 74.378 209.322, 79.343 202.559 C 81.974 198.977, 87.997 192.548, 92.729 188.273 C 112.116 170.758, 114.301 168.350, 113.577 165.297 C 111.790 157.755, 105.097 157.097, 96.500 163.619 M 554.388 159.688 C 550.081 160.535, 547.401 165.023, 545.544 174.500 C 544.574 179.450, 543.143 186.087, 542.364 189.248 C 539.252 201.867, 548.189 206.233, 553.758 194.814 C 555.739 190.753, 558.281 178.867, 559.661 167.214 C 560.231 162.403, 559.074 158.714, 557.128 159.136 C 556.782 159.211, 555.549 159.459, 554.388 159.688 M 834.824 182.022 C 832.959 183.887, 832.032 185.640, 832.401 186.604 C 832.731 187.462, 833 188.568, 833 189.061 C 833 189.555, 834.897 190.927, 837.215 192.110 C 841.610 194.352, 848.136 199.768, 863.427 213.864 C 881.004 230.069, 886.774 235.952, 890.311 241.282 C 897.877 252.679, 902.798 255.731, 905.181 250.502 C 906.390 247.849, 904.970 238.816, 902.635 234.308 C 900.990 231.131, 882.025 210.154, 878.581 207.702 C 876.974 206.557, 870.898 201.371, 865.079 196.178 C 846.065 179.206, 840.326 176.521, 834.824 182.022 M 127.939 181.347 C 115.101 184.860, 91.553 205.668, 74.500 228.567 C 71.750 232.260, 68.239 236.766, 66.698 238.582 C 64.218 241.503, 63.931 242.549, 64.198 247.691 L 64.500 253.500 69.345 254.435 C 75.329 255.591, 76.322 255.018, 80.937 247.753 C 93.762 227.563, 112.379 208.267, 131.385 195.464 C 139.587 189.939, 140.750 187.972, 138.302 183.769 C 136.120 180.022, 134.318 179.601, 127.939 181.347 M 304.185 182.492 C 301.330 186.121, 300.718 189.875, 301.875 196.662 C 302.423 199.873, 303.173 205.875, 303.542 210 C 304.495 220.640, 307.600 223.462, 313.365 218.927 C 316.885 216.158, 316.708 195.997, 313.050 183 C 312.005 179.290, 306.932 178.999, 304.185 182.492 M 572.728 196.718 C 568.810 197.310, 567.465 200.026, 565.088 212.145 C 561.358 231.161, 562.653 235.258, 571.042 230.978 C 580.137 226.339, 584.854 194.107, 576.139 196.150 C 575.788 196.232, 574.253 196.488, 572.728 196.718 M 280.388 208.426 C 277.206 210.678, 275.666 215.347, 276.321 220.762 C 278.640 239.927, 279.618 243, 283.399 243 C 288.507 243, 293.002 234.841, 291.404 228.472 C 291.038 227.016, 290.234 221.702, 289.617 216.662 L 288.495 207.500 285.497 207.216 C 283.849 207.059, 281.550 207.604, 280.388 208.426 M 334.061 208.939 C 330.198 212.802, 335.430 234.073, 340.739 236.091 C 347.298 238.585, 350.186 232.155, 347.447 221.157 C 344.325 208.617, 339.127 203.873, 334.061 208.939 M 633 211.897 C 627.552 213.945, 627.356 215.757, 631.422 226.500 C 632.879 230.350, 635.182 236.650, 636.539 240.500 C 640.647 252.159, 647.010 254.155, 650.294 244.816 C 651.308 241.933, 640.210 209.851, 638.286 210.103 C 637.853 210.159, 635.475 210.967, 633 211.897 M 141 215.703 C 124.633 225.780, 104.308 244.256, 84.980 266.631 C 69.781 284.225, 66 288.789, 66 289.542 C 66 289.910, 64.720 291.852, 63.156 293.856 C 55.750 303.345, 56.776 316, 64.950 316 C 68.267 316, 68.597 315.641, 75.108 304.921 C 86.908 285.492, 122.143 248.425, 143.537 232.934 C 151.659 227.053, 160.005 219.523, 159.996 218.084 C 159.994 217.763, 159.101 216.037, 158.011 214.250 C 155.060 209.410, 150.603 209.791, 141 215.703 M 821.852 215.715 C 816.615 221.856, 817.164 226.094, 823.561 228.924 C 832.714 232.973, 886.490 287.629, 893.985 300.500 C 895.266 302.700, 897.544 305.850, 899.046 307.500 C 900.549 309.150, 903.430 313.925, 905.449 318.112 C 911.915 331.521, 917.664 334.889, 921.979 327.794 L 923.820 324.767 919.385 315.633 C 908.651 293.530, 897.063 277.386, 883.398 265.501 C 879.604 262.201, 867.312 250.389, 856.082 239.251 C 844.852 228.113, 835.119 219, 834.454 219 C 833.789 219, 832.726 218.375, 832.092 217.611 C 831.458 216.847, 829.940 216.005, 828.719 215.739 C 827.499 215.474, 825.797 214.958, 824.937 214.593 C 824.006 214.198, 822.758 214.652, 821.852 215.715 M 366.285 221.484 C 361.744 223.447, 361.325 226.428, 364.359 235.177 C 365.756 239.205, 367.390 244.414, 367.989 246.753 C 369.545 252.827, 372.894 254.898, 377.562 252.672 C 381.666 250.715, 381.731 250.005, 378.951 237.624 C 377.825 232.606, 376.719 227.600, 376.495 226.500 C 375.450 221.378, 371.275 219.327, 366.285 221.484 M 604.185 223.684 C 599.953 225.377, 603.853 242.861, 612.115 259.228 C 615.107 265.155, 615.198 265.230, 618.698 264.662 C 626.955 263.322, 627.251 261.335, 621.556 245.500 C 613.458 222.986, 611.639 220.702, 604.185 223.684 M 536.243 233.119 C 534.452 234.266, 532.782 236.171, 532.533 237.352 C 525.855 268.936, 527.174 277.332, 537.270 267.526 C 540.935 263.967, 541.852 261.220, 544.113 247.036 C 544.598 243.991, 545.280 239.817, 545.628 237.760 C 546.746 231.149, 542.555 229.077, 536.243 233.119 M 162 245.698 C 127.544 271.707, 73 331.863, 73 343.856 C 73 349.203, 82.023 353.099, 86.023 349.480 C 87.110 348.495, 88 347.292, 88 346.805 C 88 345.800, 101.997 327.859, 115.544 311.500 C 125.162 299.886, 149.111 276.549, 164.943 263.364 C 181.965 249.187, 183.131 247.488, 179.443 242.223 C 176.474 237.983, 170.695 239.135, 162 245.698 M 327.456 251.284 C 322.146 255.851, 323.678 270.953, 329.537 271.792 C 335.571 272.655, 338.447 261.895, 334.407 253.572 C 332.023 248.662, 330.925 248.301, 327.456 251.284 M 305.923 253.923 C 302.528 257.319, 302.345 259.800, 304.056 279.306 C 305.413 294.775, 306.048 296.440, 310.268 295.596 C 317.621 294.126, 318.360 290.611, 316.158 267.613 C 314.478 250.071, 312.466 247.380, 305.923 253.923 M 555.040 260.452 C 553.455 262.362, 546 288.608, 546 292.278 C 546 298.535, 549.238 300.480, 554.835 297.585 C 560.047 294.890, 568.858 264.710, 565.512 261.014 C 563.336 258.609, 556.858 258.261, 555.040 260.452 M 585.144 265.054 C 582.351 266.756, 581.873 267.553, 582.295 269.800 C 582.574 271.285, 583.325 275.425, 583.963 279 C 587.358 298.031, 587.144 297.567, 592.042 296.491 C 598.176 295.143, 599.945 283.710, 595.867 271.754 C 592.578 262.109, 591.292 261.305, 585.144 265.054 M 805.025 265.695 C 801.406 270.297, 802.588 272.899, 810.311 277.328 C 817.588 281.501, 828.137 291.387, 844.640 309.500 C 860.922 327.370, 862.652 329.378, 864.024 331.995 C 864.744 333.367, 868.070 338.036, 871.416 342.370 C 874.762 346.705, 880.939 355.032, 885.141 360.876 C 898.861 379.951, 902.415 384.419, 908.500 390.239 C 915.082 396.535, 915.907 396.865, 918.345 394.171 C 922.281 389.823, 919.275 381.761, 909.391 370.151 C 907.682 368.143, 902.758 361.325, 898.450 355 C 894.142 348.675, 887.216 339.116, 883.059 333.758 C 878.901 328.400, 873.715 321.650, 871.533 318.758 C 864.581 309.542, 858.856 303.256, 844 288.523 C 819.681 264.407, 810.341 258.937, 805.025 265.695 M 653.854 269.706 C 647.565 270.672, 647.194 272.897, 651.249 285.305 C 653.261 291.462, 655.302 297.850, 655.784 299.500 C 658.277 308.033, 668.878 304.450, 667.615 295.500 C 666.265 285.924, 659.503 268.711, 657.265 269.150 C 656.844 269.232, 655.309 269.483, 653.854 269.706 M 355.344 274.996 C 352.720 276.055, 351.539 280.658, 352.944 284.354 C 353.509 285.840, 354.909 290.755, 356.055 295.278 C 358.682 305.643, 360.154 308, 364 308 C 370.237 308, 371.666 298.965, 367.557 285.500 C 364.404 275.166, 361.378 272.563, 355.344 274.996 M 282.431 280.502 C 279.760 284.003, 279.760 284.006, 280.445 296.752 C 281.425 314.970, 284.085 319.348, 290.964 314.062 L 293.428 312.169 293.127 295.834 C 292.955 286.513, 292.382 278.963, 291.791 278.250 C 289.704 275.732, 285.252 276.803, 282.431 280.502 M 381.994 280.864 L 378.563 283.728 380.713 291.114 C 381.895 295.176, 383.646 301.334, 384.604 304.798 C 385.562 308.262, 386.718 311.326, 387.173 311.607 C 387.628 311.888, 388 312.913, 388 313.885 C 388 314.856, 389.042 316.630, 390.314 317.826 C 395.408 322.610, 403.278 317.976, 400.561 311.792 C 399.766 309.981, 397.518 302.465, 395.566 295.088 C 390.857 277.292, 388.824 275.162, 381.994 280.864 M 194 281.876 C 191.397 282.543, 181.761 287.573, 171.561 293.589 C 152.554 304.801, 73 379.294, 73 385.880 C 73 386.540, 72.100 388.844, 71 391 C 68.269 396.354, 68.478 398.383, 72.077 401.411 C 77.041 405.588, 79.371 404.912, 84.252 397.883 C 93.523 384.531, 143.035 333.903, 156.500 324.006 C 159.800 321.581, 165.765 317.009, 169.756 313.846 C 173.746 310.683, 181.782 305.261, 187.612 301.797 C 199.160 294.936, 205.357 289.180, 204.325 286.272 C 202.632 281.503, 199.939 280.356, 194 281.876 M 332.123 297.570 C 327.471 303.485, 330.879 332.591, 336.285 333.118 C 344.380 333.908, 346.207 323.965, 341.108 306.865 C 340.064 303.364, 338.929 299.262, 338.586 297.750 C 337.782 294.207, 334.833 294.125, 332.123 297.570 M 521.500 297.827 C 517.046 300.572, 516.273 301.882, 514.596 309.527 C 509.846 331.181, 510.806 340.589, 517.500 337.986 C 522.822 335.915, 525.044 331.752, 526.058 321.945 C 526.590 316.802, 527.789 310.173, 528.722 307.214 C 531.441 298.586, 527.849 293.916, 521.500 297.827 M 624.633 298.853 C 622.830 300.845, 622.713 299.870, 627.306 320.994 C 629.352 330.407, 639.059 331.789, 639.809 322.774 C 641.218 305.821, 631.784 290.951, 624.633 298.853 M 793.694 314.026 C 787.864 318.612, 789.416 322.640, 799.225 328.377 C 806.545 332.658, 824.921 348.577, 830.660 355.609 C 832.772 358.197, 837.200 363.442, 840.500 367.265 C 843.800 371.087, 848.753 377.204, 851.506 380.857 C 854.259 384.511, 859.921 391.775, 864.089 397 C 868.257 402.225, 874.437 411.450, 877.822 417.500 C 881.207 423.550, 885.539 430.750, 887.449 433.500 C 889.359 436.250, 893.377 442.100, 896.378 446.500 C 902.723 455.802, 911.143 465, 913.313 465 C 914.892 465, 920 459.556, 920 457.874 C 920 456.034, 917.072 451.242, 915.604 450.678 C 914.796 450.368, 912.465 447.501, 910.424 444.307 C 908.383 441.113, 905.273 436.700, 903.512 434.500 C 900.361 430.562, 888 410.604, 888 409.454 C 888 408.367, 872.189 385.563, 867.818 380.345 C 865.443 377.510, 861.250 372.391, 858.500 368.969 C 834.634 339.272, 817.210 322.197, 803.528 315.099 C 796.448 311.426, 796.933 311.479, 793.694 314.026 M 572.105 319.061 L 569.710 320.043 570.416 339.271 C 571.211 360.948, 571.841 362.853, 577.779 361.548 C 583.851 360.215, 584.251 358.872, 584.115 340.290 C 583.960 319.222, 581.654 315.147, 572.105 319.061 M 597.869 319.486 C 593.941 321.656, 593.688 323.639, 596.346 331.423 C 597.676 335.316, 599.308 341.769, 599.975 345.765 C 601.300 353.708, 602.922 355.560, 607.537 354.401 C 615.062 352.513, 614.350 335.510, 606.097 320 C 605.014 317.965, 601.069 317.719, 597.869 319.486 M 202.500 327.524 C 175.064 343.791, 159.428 354.952, 140.964 371.448 C 138.470 373.677, 129.470 381.430, 120.964 388.679 C 81.909 421.961, 68.765 440.214, 81.543 443.422 C 86.736 444.725, 90.286 442.427, 98.322 432.559 C 102.530 427.393, 109.449 420.091, 113.698 416.333 C 117.947 412.575, 124.884 406.350, 129.113 402.500 C 148.412 384.930, 169.493 367.742, 185 356.933 C 198.646 347.421, 216.153 336, 217.087 336 C 218.133 336, 221 330.649, 221 328.696 C 221 326.344, 216.254 321.994, 213.798 322.094 C 212.534 322.146, 207.450 324.590, 202.500 327.524 M 540.763 327.565 C 539.212 328.407, 537.764 330.232, 537.423 331.775 C 536.790 334.635, 533.895 345.026, 531.370 353.500 C 527.731 365.715, 529.667 372.255, 536.276 370.074 C 542.343 368.072, 542.705 367.230, 550.070 338 C 552.678 327.651, 548.741 323.237, 540.763 327.565 M 314.220 331.012 C 310.107 333.514, 309.711 335.287, 309.628 351.587 C 309.546 367.568, 310.640 371.020, 315.773 370.978 C 320.739 370.937, 323.300 367.970, 322.734 362.910 C 322.462 360.485, 321.647 352.101, 320.921 344.281 C 319.493 328.884, 319.077 328.059, 314.220 331.012 M 665.969 332.824 L 663.716 334.649 666.573 350.040 C 670.078 368.915, 673.115 372.776, 680.045 367.165 C 682.310 365.330, 682.311 365.327, 680.694 357.915 C 679.804 353.837, 678.875 346.771, 678.630 342.213 C 678.385 337.656, 677.638 333.268, 676.970 332.463 C 675.262 330.405, 668.689 330.621, 665.969 332.824 M 371.991 342.661 C 367.335 346.579, 369.773 361.669, 377.175 374.749 C 383.329 385.623, 394.244 380.108, 388.511 369.021 C 387.692 367.437, 385.951 361.947, 384.643 356.821 C 380.618 341.055, 377.735 337.828, 371.991 342.661 M 764.754 350.750 C 759.886 355.859, 760.511 360.778, 766.311 363.005 C 776.650 366.976, 817.067 402.640, 830.586 419.722 C 838.221 429.368, 855.736 456.291, 862.970 469.500 C 869.598 481.603, 878.193 495.086, 880.504 497.003 C 881.399 497.746, 882.789 499.625, 883.592 501.177 C 886.545 506.888, 895 503.879, 895 497.117 C 895 495.737, 892.470 491.167, 889.172 486.590 C 880.224 474.168, 868 454.330, 868 452.230 C 868 451.724, 867.100 450.495, 866 449.500 C 864.900 448.505, 864 447.152, 864 446.495 C 864 445.838, 862.650 443.436, 861 441.159 C 859.350 438.881, 858 436.659, 858 436.222 C 858 435.353, 845.974 417.774, 839.371 408.992 C 835.228 403.481, 808.719 377.598, 801.811 372.319 C 799.782 370.769, 793.420 365.568, 787.673 360.763 C 779.509 353.936, 770.175 348, 767.604 348 C 767.478 348, 766.195 349.238, 764.754 350.750 M 283.437 352.063 L 280.500 355.126 280.183 370.322 C 279.795 388.957, 280.418 391.252, 285.748 390.810 C 292.159 390.280, 293.167 386.816, 292.385 368 C 291.573 348.486, 289.835 345.391, 283.437 352.063 M 400.137 352.553 L 398.129 355.105 400.700 361.803 C 402.113 365.486, 404.092 371.071, 405.096 374.213 C 409.120 386.806, 412.928 391.614, 417.997 390.501 C 422.785 389.449, 423.835 386.111, 421.225 380.239 C 420.066 377.632, 418.131 372.125, 416.925 368 C 412.083 351.441, 405.660 345.532, 400.137 352.553 M 226.500 360.734 C 225.400 361.010, 222.250 362.650, 219.500 364.380 C 213.100 368.404, 211.848 369.151, 204 373.623 C 200.425 375.660, 196.375 378.168, 195 379.197 C 193.625 380.225, 188.900 383.713, 184.500 386.947 C 161.527 403.831, 136.200 425.944, 107.353 454.299 C 87.283 474.028, 85.700 476.652, 89.472 483.947 C 93.020 490.807, 96.177 489.216, 112.090 472.552 C 144.010 439.127, 182.414 406.171, 214.591 384.594 C 235.296 370.710, 237.347 368.254, 232.927 362.635 C 230.849 359.992, 230.209 359.803, 226.500 360.734 M 639.001 365.999 C 638.216 367.466, 638.179 369.062, 638.878 371.299 C 639.429 373.060, 640.183 378.550, 640.555 383.500 C 641.328 393.814, 642.579 396, 647.706 396 C 653.826 396, 656.490 377.083, 651.764 367.183 C 649.995 363.476, 640.807 362.624, 639.001 365.999 M 342.861 373.918 C 339.180 376.909, 339.301 401.563, 343.016 405.517 C 344.869 407.489, 346.047 407.954, 347.968 407.472 C 353.803 406.007, 353.999 404.623, 350.906 386.661 C 348.302 371.532, 347.453 370.187, 342.861 373.918 M 498.100 373.306 C 494.166 374.687, 492.042 379.940, 492.015 388.349 C 492.007 391.016, 491.275 394.726, 490.388 396.595 C 487.813 402.022, 491.410 413.039, 495.735 412.973 C 502.535 412.869, 507 401.558, 507 384.435 C 507 373.115, 505.169 370.825, 498.100 373.306 M 749.985 387.767 C 746.895 394.752, 746.912 394.778, 759.103 402 C 768.400 407.508, 813.100 454.109, 822.486 468.079 C 830.148 479.483, 845.018 497.727, 852.987 505.500 C 857.213 509.623, 861.960 515.591, 864.536 520.019 C 872.418 533.572, 881.515 539.576, 886.545 534.545 C 890.251 530.840, 889.630 528.490, 883.145 521.663 C 879.924 518.274, 875.589 512.800, 873.510 509.500 C 871.432 506.200, 865.678 499.450, 860.723 494.500 C 850.015 483.804, 841.445 473.811, 838 468.007 C 836.625 465.691, 833.348 461.029, 830.717 457.648 C 828.086 454.266, 824.336 449.101, 822.384 446.169 C 813.568 432.928, 766.547 389.156, 756.776 385.096 L 752.038 383.126 749.985 387.767 M 568.500 385.563 C 563.896 387.943, 563.363 388.888, 561.622 397.770 C 558.824 412.039, 559.271 416.668, 563.622 418.487 C 571.229 421.665, 574.444 419.516, 574.119 411.474 C 573.995 408.419, 574.675 402.159, 575.630 397.564 C 578.077 385.792, 575.723 381.829, 568.500 385.563 M 612.186 386.824 L 609.873 388.604 611.932 401.052 C 613.065 407.899, 613.994 415.312, 613.996 417.527 C 614.004 425.656, 620.464 429.001, 625.046 423.250 C 628.738 418.615, 626.298 390.407, 621.889 386.750 C 619.196 384.517, 615.145 384.548, 612.186 386.824 M 681.379 390.351 L 678.646 392.701 680.336 400.601 C 681.265 404.945, 682.434 411.817, 682.934 415.872 C 684.004 424.550, 684.568 425.293, 690.168 425.411 C 696.043 425.534, 696.781 423.243, 695.216 409.730 C 692.916 389.878, 688.735 384.023, 681.379 390.351 M 587.989 398.250 C 584.876 403.357, 585.695 425.825, 589.127 429.471 C 590.845 431.295, 596.701 430.988, 598.520 428.978 C 600.819 426.437, 599.377 399.460, 596.770 396.250 C 594.721 393.726, 590.106 394.777, 587.989 398.250 M 245.500 397.680 C 241.687 398.533, 220.461 409.495, 212.500 414.723 C 198.337 424.023, 196.794 425.197, 174.010 444 C 167.679 449.225, 160.024 455.298, 156.999 457.495 C 128.049 478.525, 96 509.194, 96 515.868 C 96 522.768, 107.014 524.464, 112.335 518.383 C 122.405 506.876, 150.795 480.809, 159 475.537 C 163.053 472.934, 187.324 453.609, 194.104 447.588 C 209.994 433.478, 217.768 427.807, 230.500 421.044 C 252.980 409.101, 256.365 406.085, 253.658 400.409 C 252.022 396.979, 250.664 396.524, 245.500 397.680 M 365.568 403.125 C 361.995 405.936, 362.478 416.609, 366.780 429.907 C 370.986 442.906, 375.768 446.724, 381.357 441.545 L 384.006 439.090 381.891 433.795 C 378.417 425.099, 377.696 422.972, 374.504 412.009 C 371.161 400.527, 370.149 399.521, 365.568 403.125 M 313.229 403.658 C 307.952 405.829, 306.722 426.324, 311.493 432.580 C 314.369 436.350, 318.662 437.195, 321.340 434.518 C 322.896 432.961, 322.785 431.819, 320.268 423.500 C 319.436 420.750, 318.473 415.130, 318.128 411.010 C 317.496 403.477, 316.673 402.241, 313.229 403.658 M 392.635 406.073 C 389.253 408.733, 389.299 409.559, 393.573 422.817 C 399.320 440.643, 404.915 445.977, 411.035 439.463 L 413.418 436.926 411.215 432.713 C 410.004 430.396, 408.099 424.680, 406.981 420.011 C 403.535 405.611, 398.920 401.128, 392.635 406.073 M 523.338 409.999 C 520.725 411.052, 520.604 411.425, 518.038 426.380 C 514.895 444.698, 515.580 447.052, 523.613 445.545 C 528.551 444.618, 529.656 442.094, 531.925 426.557 C 534.427 409.425, 532.755 406.201, 523.338 409.999 M 424.138 415.537 C 420.506 418.594, 420.255 420.613, 422.920 425.358 C 423.976 427.238, 426.062 432.848, 427.556 437.825 C 431.875 452.216, 437.726 457.281, 444.085 452.132 L 446.392 450.264 443.787 444.382 C 442.354 441.147, 440.448 435.581, 439.551 432.014 C 435.714 416.753, 429.979 410.622, 424.138 415.537 M 281.619 428.191 C 279.914 430.809, 280.070 441.597, 281.880 446.250 C 284.061 451.854, 293.044 449.387, 292.933 443.215 C 292.694 430.006, 286.122 421.279, 281.619 428.191 M 257.702 430.112 C 249.889 432.291, 246.657 433.844, 231.500 442.699 C 217.594 450.822, 211.762 454.497, 204.938 459.435 C 201.947 461.599, 194.550 466.744, 188.500 470.868 C 182.450 474.993, 175.025 480.309, 172 482.682 C 168.975 485.056, 161.550 490.846, 155.500 495.549 C 128.789 516.312, 123.127 521.021, 114.671 529.500 C 93.668 550.562, 90.554 555.644, 95.573 560.664 C 99.362 564.453, 104.258 563.433, 109.399 557.784 C 119.664 546.503, 137.162 529.204, 143 524.565 C 146.575 521.724, 155.350 514.950, 162.500 509.513 C 169.650 504.075, 177.975 497.522, 181 494.950 C 185.526 491.103, 202.988 478.315, 212.338 472 C 213.559 471.175, 218.488 467.688, 223.291 464.250 C 228.093 460.813, 232.220 458, 232.461 458 C 232.702 458, 234.835 456.706, 237.200 455.125 C 243.369 451, 265.136 439, 266.448 439 C 271.802 439, 273.738 431.950, 269.050 429.526 C 265.600 427.742, 266.338 427.703, 257.702 430.112 M 743.557 430.223 C 741.073 433.768, 741.571 437.694, 744.750 439.623 C 765.956 452.494, 795.199 481.631, 819.902 514.500 C 822.795 518.350, 830.702 527.350, 837.474 534.500 C 850.023 547.752, 859.015 558.647, 871.500 575.732 C 880.490 588.034, 881.289 588.523, 885.077 584.038 C 886.684 582.134, 888 579.978, 888 579.248 C 888 573.564, 871.007 551.369, 849.934 529.525 C 836.551 515.654, 830.917 509.093, 824.500 499.902 C 813.931 484.766, 779.493 448.361, 766.500 438.590 C 752.352 427.949, 746.615 425.857, 743.557 430.223 M 653.354 431.692 C 648.974 432.549, 647.604 435.394, 649.006 440.719 C 649.698 443.348, 650.603 449.662, 651.016 454.748 C 651.925 465.934, 653.516 469, 658.412 469 C 664.016 469, 666.634 466.097, 665.285 461.381 C 664.674 459.246, 664.409 456.053, 664.696 454.286 C 665.929 446.675, 660.057 430.492, 656.295 431.136 C 655.858 431.211, 654.534 431.461, 653.354 431.692 M 484.500 442.038 C 481.630 443.897, 481.498 444.296, 481.450 451.240 C 481.422 455.233, 481.035 463.275, 480.590 469.110 C 479.577 482.389, 480.287 484.246, 486.214 483.804 C 493.776 483.241, 494.500 481.088, 494.500 459.178 L 494.500 440.500 491 440.297 C 488.928 440.177, 486.276 440.887, 484.500 442.038 M 558.500 441.386 C 553.566 443.536, 552.977 444.988, 552.730 455.619 L 552.500 465.485 556.227 466.413 C 562.675 468.019, 564.554 466.381, 565.490 458.341 C 567.386 442.057, 565.798 438.205, 558.500 441.386 M 350.291 442.700 C 340.574 451.216, 349.388 489.218, 359.537 482.567 C 363.167 480.189, 363.491 476.942, 360.915 468.770 C 359.491 464.254, 358.410 457.711, 358.062 451.500 C 357.445 440.514, 355.412 438.212, 350.291 442.700 M 620.277 453.973 C 615.849 456.672, 615.269 459.935, 617.801 467.904 C 618.954 471.532, 620.214 477.425, 620.601 481 C 622.224 495.970, 626.385 501.921, 632.881 498.562 C 636.462 496.710, 636.861 495.659, 635.934 490.514 C 635.537 488.306, 634.669 482.900, 634.005 478.500 C 633.341 474.100, 631.719 467.835, 630.399 464.578 C 629.080 461.320, 628 457.624, 628 456.363 C 628 455.102, 627.130 453.605, 626.066 453.035 C 623.633 451.733, 624.065 451.663, 620.277 453.973 M 694.572 453.322 C 692.743 454.661, 692.705 455.285, 693.824 465.616 C 694.472 471.602, 695.002 478.537, 695.001 481.027 C 694.999 489.024, 700.971 493.005, 705.485 488.016 C 707.740 485.525, 707.279 460.450, 704.886 455.435 C 703.260 452.027, 697.855 450.919, 694.572 453.322 M 588.660 456.993 C 583.685 461.361, 582.679 465.203, 583.531 476.569 C 584.318 487.065, 584.952 488, 591.279 488 C 597.463 488, 598.429 485.712, 597.068 474.291 C 596.426 468.906, 596.036 462.250, 596.200 459.500 C 596.583 453.111, 594.044 452.267, 588.660 456.993 M 724.034 462.459 C 722.299 464.549, 723.669 469.553, 726.480 471.395 C 727.774 472.243, 731.908 475.697, 735.667 479.070 C 739.425 482.444, 746.123 487.565, 750.552 490.452 C 759.725 496.430, 803.790 538.953, 812.395 550.131 C 815.203 553.777, 820.895 560.752, 825.044 565.631 C 835.307 577.697, 842.624 587.372, 846.071 593.434 C 856.142 611.147, 868.302 617.035, 865.249 602.720 C 864.298 598.261, 863.485 597.043, 844.410 571.500 C 818.562 536.888, 775.139 492.912, 753.681 479.617 C 749.381 476.952, 742.265 471.674, 737.868 467.886 C 729.757 460.900, 726.416 459.589, 724.034 462.459 M 319.213 466.273 C 313.166 472.710, 319.446 489, 327.974 489 C 335.285 489, 335.686 485.226, 329.677 473 C 325.051 463.586, 322.985 462.258, 319.213 466.273 M 414.359 467.923 C 412.632 468.976, 410.930 470.305, 410.577 470.876 C 409.728 472.250, 415.826 489.743, 418.376 493.250 C 422.103 498.375, 431.102 495.621, 429.696 489.785 C 426.557 476.745, 425.463 473.559, 422.925 470.055 C 419.594 465.457, 418.748 465.246, 414.359 467.923 M 448.230 468.551 C 444.068 471.466, 443.858 473.262, 447.114 478.074 C 448.761 480.508, 452.078 486.662, 454.485 491.749 C 459.204 501.720, 461.548 503.697, 467.182 502.460 C 471.302 501.555, 472.303 499.008, 469.945 495.431 C 468.883 493.819, 468.010 491.891, 468.007 491.147 C 468.003 490.403, 466.177 485.904, 463.948 481.148 C 457.811 468.052, 453.675 464.738, 448.230 468.551 M 240.250 470.031 C 235.160 472.077, 238.832 483.145, 245.054 484.512 C 253.236 486.309, 255.338 479.410, 248.522 473.127 C 243.714 468.695, 243.641 468.668, 240.250 470.031 M 385.736 472.692 C 381.106 473.900, 380.105 480.312, 383.101 489.584 C 386.112 498.906, 391.212 501.270, 395.963 495.545 C 399.105 491.758, 392.212 471.282, 388.076 472.116 C 387.759 472.180, 386.706 472.439, 385.736 472.692 M 514.262 475.529 C 512.952 476.447, 511.857 478.545, 511.521 480.779 C 511.214 482.825, 510.213 488.637, 509.296 493.694 C 507.228 505.092, 508.056 508, 513.368 508 C 520.152 508, 524 499.221, 524 483.744 C 524 474.153, 520.474 471.178, 514.262 475.529 M 283.982 485.750 C 281.758 488.577, 281.759 488.552, 283.839 498.645 C 285.682 507.590, 291.275 512.507, 295.560 508.950 C 297.158 507.624, 297.631 496.508, 296.129 495.580 C 295.650 495.284, 294.979 493.644, 294.637 491.937 C 293.044 483.968, 287.785 480.915, 283.982 485.750 M 556 485.293 C 552.857 486.943, 552.566 495.758, 555.546 499.051 C 560.080 504.061, 568.330 500.035, 567.323 493.304 C 566.049 484.788, 562.178 482.049, 556 485.293 M 201 498 C 196.313 502.687, 206.346 528, 212.890 528 C 218.691 528, 219.239 522.808, 214.846 509.500 C 210.789 497.214, 205.871 493.129, 201 498 M 242.128 501.345 C 234.955 509.988, 253.873 534.428, 261.345 526.171 C 263.603 523.676, 263.422 520.689, 260.875 518.405 C 259.706 517.357, 256.551 513.251, 253.864 509.280 C 247.908 500.476, 244.668 498.286, 242.128 501.345 M 727.250 506.989 C 725.462 508.079, 724.012 509.765, 724.027 510.735 C 724.041 511.706, 723.047 518.713, 721.817 526.306 C 719.342 541.582, 719.653 543.500, 724.607 543.500 C 728.204 543.500, 730.078 539.987, 732.608 528.500 C 737.309 507.163, 735.945 501.688, 727.250 506.989 M 678.170 510.113 C 675.097 511.231, 669.316 512.217, 664.516 512.440 C 659.937 512.653, 655.135 513.429, 653.845 514.164 C 652.016 515.206, 644.022 515.502, 617.500 515.507 C 593.661 515.512, 582.305 515.878, 579.500 516.732 C 577.300 517.402, 571.225 518.222, 566 518.554 C 556.936 519.131, 546.583 521.353, 544.550 523.157 C 544.027 523.621, 541.549 524, 539.042 524 C 530.953 524, 511.189 532.009, 508.805 536.253 C 507.129 539.236, 507.099 561.104, 508.756 571 C 515.471 611.081, 514.214 668, 506.615 668 C 505.527 668, 502 661.105, 502 658.980 C 502 658.426, 501.589 657.191, 501.086 656.236 C 500.583 655.281, 499.284 651.800, 498.198 648.500 C 492.476 631.108, 490.518 628.963, 480.190 628.772 C 471.724 628.615, 470 629.770, 465.162 638.848 C 458.790 650.802, 454.075 651.758, 453.916 641.128 C 453.869 638.032, 453.430 632.800, 452.939 629.500 C 449.692 607.665, 448.549 585.529, 448.852 550.378 L 449.087 523.257 446.539 520.229 C 444.011 517.225, 443.891 517.196, 431.246 516.580 C 424.236 516.238, 416.240 515.302, 413.479 514.500 C 405.764 512.260, 389.550 511.375, 367 511.964 C 354.899 512.281, 341.788 512.039, 335 511.374 C 321.819 510.084, 318.354 511.047, 313.558 517.335 C 303.059 531.101, 326.157 541.633, 357.970 537.586 C 379.763 534.814, 386.576 535.267, 401.783 540.500 C 408.975 542.975, 415.962 545, 417.308 545 C 421.458 545, 421.729 546.516, 422.312 573 C 422.621 587.025, 423.554 603.450, 424.384 609.500 C 425.215 615.550, 426.814 629.950, 427.938 641.500 C 431.175 674.775, 432.052 682.331, 432.987 685 C 433.469 686.375, 434.161 690.602, 434.526 694.392 C 435.160 700.977, 435.410 701.505, 440.123 706.218 L 445.056 711.151 449.344 709.076 C 451.702 707.934, 454.134 707, 454.749 707 C 457.205 707, 466.251 693.893, 471.140 683.250 C 474.961 674.932, 476.889 674.104, 479.293 679.750 C 485.902 695.270, 488.200 700.198, 491.143 705.153 C 507.775 733.159, 509.300 734.205, 521.858 726.211 C 530.226 720.884, 532.591 714.542, 536.480 687 C 542.656 643.255, 543.908 605.187, 540.107 576.712 C 538.948 568.028, 538 560.034, 538 558.947 C 538 555.875, 543.377 553.292, 555.475 550.550 C 574.915 546.143, 580.943 545.654, 618 545.474 C 655.074 545.295, 653.558 545.421, 683.500 540.002 C 700.332 536.956, 703.958 533.360, 703.989 519.684 C 704.014 508.869, 692.906 504.751, 678.170 510.113 M 484.414 517.491 C 482.439 520.505, 482.924 536.998, 485.062 539.575 C 486.538 541.353, 493.384 541.447, 494.826 539.710 C 496.599 537.573, 497.332 520.921, 495.781 518 C 493.760 514.194, 486.779 513.882, 484.414 517.491 M 756 526.791 L 752.500 528.511 751.698 538.006 C 750.314 554.381, 751.018 556.965, 756.488 555.592 C 761.647 554.297, 765.737 538.314, 763.292 529.002 C 762.214 524.893, 760.759 524.452, 756 526.791 M 464 527.752 C 459.597 529.951, 458.353 535.371, 459.635 546.761 L 460.500 554.445 464.812 555.294 C 471.615 556.633, 472 555.863, 472 540.913 C 472 529.239, 471.824 527.976, 470.066 527.035 C 467.652 525.743, 468.134 525.686, 464 527.752 M 177.150 544.604 C 174.165 546.699, 174.597 549.210, 179.883 560.491 C 184.226 569.759, 186.787 572.070, 191.828 571.275 C 199.355 570.088, 197.761 562.639, 187.169 549.500 C 181.783 542.818, 180.552 542.216, 177.150 544.604 M 225.174 545.314 C 218.737 552.166, 232.240 573.618, 239.088 567.420 C 241.364 565.361, 241.463 563.096, 239.553 556.804 C 235.793 544.414, 230.211 539.953, 225.174 545.314 M 145.635 550.073 C 142.396 552.620, 142.390 553.211, 145.501 563.409 C 149.452 576.365, 155.587 583.248, 161.260 581.091 C 165.242 579.577, 165.769 575.874, 162.594 571.712 C 161.167 569.842, 160 567.544, 160 566.606 C 160 565.668, 159.364 563.670, 158.586 562.166 C 157.808 560.662, 156.846 557.697, 156.449 555.578 C 155.118 548.484, 150.587 546.177, 145.635 550.073 M 281 551.637 C 267.661 554.193, 255.045 563.491, 251.045 573.715 C 244.662 590.026, 244.628 590.170, 244.601 601.050 C 244.571 613.143, 245.895 616.396, 254.780 626.059 C 261.392 633.249, 266.549 633.872, 277.222 628.769 C 301.424 617.195, 312.075 599.994, 313.677 569.895 L 314.134 561.291 310.817 558.487 C 303.918 552.656, 291.078 549.706, 281 551.637 M 365.389 552.980 C 356.796 556.452, 367.239 563.788, 381.292 564.151 C 389.835 564.372, 391 563.881, 391 560.063 C 391 556.115, 389.474 555.215, 379.903 553.523 C 370.412 551.844, 368.386 551.769, 365.389 552.980 M 653.007 557.569 C 643.164 561.905, 642.197 569.005, 651.450 568.996 C 656.250 568.992, 660.936 566.386, 662.954 562.598 C 665.829 557.202, 660.247 554.379, 653.007 557.569 M 789.372 558.452 C 787.197 559.976, 786.037 565.248, 783.985 582.953 C 782.864 592.623, 783.358 593.760, 788.090 592.403 C 791.689 591.371, 794.357 584.806, 797.518 569.208 C 799.793 557.980, 796.415 553.519, 789.372 558.452 M 570.450 560.326 C 568.772 560.972, 566.002 562.513, 564.295 563.750 C 562.588 564.987, 560.689 566, 560.074 566 C 557.655 566, 556.424 571.106, 558.481 572.610 C 564.515 577.022, 581 570.738, 581 564.026 C 581 559.146, 577.084 557.773, 570.450 560.326 M 492.352 568.993 C 488.925 570.376, 488.527 571.912, 488.855 582.500 C 489.182 593.040, 489.713 594.335, 494.129 595.365 C 499.921 596.715, 502 593.184, 502 582 C 502 569.840, 499.294 566.192, 492.352 568.993 M 596 572.122 C 592.425 573.811, 586.740 576.488, 583.367 578.070 C 576.729 581.185, 575.817 582.302, 577.099 585.750 C 579.618 592.525, 607.088 583.379, 608.611 575.259 C 609.881 568.493, 605.819 567.483, 596 572.122 M 705.846 570.502 C 701.239 573.039, 695.332 586.332, 697.406 589.496 C 699.774 593.111, 702.397 592.592, 706.231 587.750 C 715.495 576.051, 715.255 565.320, 705.846 570.502 M 334 572.326 C 331.410 573.670, 330.937 577.335, 333.077 579.479 C 334.632 581.036, 352.746 581.456, 354.530 579.975 C 361.558 574.143, 343.481 567.408, 334 572.326 M 123.526 580.950 C 118.617 590.443, 132.189 613.411, 138.800 606.800 C 140.748 604.852, 140.207 601.569, 136.577 593.298 C 134.694 589.009, 132.842 584.251, 132.462 582.724 C 131.159 577.494, 125.857 576.442, 123.526 580.950 M 462.733 581.250 C 460.427 582.998, 459.060 602.001, 461.123 603.634 C 464.203 606.072, 467.794 606.081, 470.611 603.658 C 473.754 600.955, 475.414 586.510, 473.082 582.154 C 471.752 579.669, 465.535 579.126, 462.733 581.250 M 380.750 588.113 C 372.704 592.650, 388.318 600.529, 401.452 598.559 C 408.366 597.523, 410.539 591.903, 405 589.380 C 401.609 587.836, 382.968 586.862, 380.750 588.113 M 648 590.971 C 637.028 594.480, 630.458 599.781, 629.411 605.968 C 629.082 607.911, 627.914 612.256, 626.814 615.623 L 624.816 621.747 627.309 628.660 C 634.680 649.094, 639.547 654.093, 651 652.996 C 671.810 651.001, 692.910 631.913, 692.205 615.720 C 691.524 600.062, 665.366 585.418, 648 590.971 M 743.177 596.477 C 739.925 598.270, 728.799 621.339, 729.202 625.455 C 730.074 634.365, 738.365 628.231, 745.978 613.043 C 754.124 596.794, 753.142 590.984, 743.177 596.477 M 164.520 603.979 C 161.312 607.328, 161.670 610.456, 166.338 619.851 C 170.178 627.578, 173.443 629.244, 177.652 625.623 C 180.409 623.252, 180.411 623.238, 178.764 619.373 C 177.857 617.243, 176.424 612.992, 175.580 609.926 C 173.079 600.836, 169.418 598.867, 164.520 603.979 M 333.750 602.080 C 330.477 603.986, 331.727 606.648, 337.250 609.535 C 340.137 611.045, 343.863 613.320, 345.528 614.590 C 354.845 621.695, 368 623.176, 368 617.120 C 368 614.419, 365.913 612.914, 348.220 602.863 C 344.639 600.829, 336.641 600.396, 333.750 602.080 M 812.400 606.409 C 809.138 607.849, 808 609.669, 808 613.447 C 808 614.703, 807.196 616.803, 806.213 618.115 C 799.292 627.354, 795.677 638.221, 798.943 639.969 C 804.078 642.718, 813.160 632.346, 817.431 618.857 C 821.454 606.151, 820.171 602.977, 812.400 606.409 M 583.774 609.559 C 583.467 609.867, 579.759 610.961, 575.535 611.991 C 558.247 616.208, 557.997 623.903, 575.186 622.725 C 587.703 621.867, 595.929 615.894, 591.434 610.927 C 589.813 609.136, 585.049 608.284, 583.774 609.559 M 218.655 621.829 C 216.081 624.673, 217.300 630.166, 223.584 644.044 C 225.463 648.194, 227 652.291, 227 653.148 C 227 657.945, 235.486 662.357, 239.931 659.870 C 243.974 657.609, 243.519 655.186, 236.753 642.952 C 224.286 620.410, 222.172 617.942, 218.655 621.829 M 389 624.882 C 381.591 626.191, 384.587 631.662, 394 634.011 C 407.801 637.455, 414.118 637.342, 414.831 633.639 C 415.389 630.740, 413.128 629.127, 404.831 626.507 C 396.749 623.953, 395.171 623.791, 389 624.882 M 770.500 624.724 C 767.329 625.503, 766.298 626.774, 765.663 630.691 C 765.336 632.703, 762.516 639.521, 759.395 645.842 C 753.352 658.083, 753.181 660.195, 758.189 660.801 C 765.284 661.659, 780.660 631.115, 775.975 625.470 C 774.727 623.966, 773.992 623.865, 770.500 624.724 M 320.652 627.087 C 316.583 632.896, 327.483 645.153, 335.323 643.585 C 343.338 641.982, 343.956 637.230, 336.750 632.607 C 333.863 630.755, 330.643 628.286, 329.595 627.120 C 327.120 624.366, 322.569 624.349, 320.652 627.087 M 838.245 629.250 C 837.695 629.938, 836.932 631.625, 836.549 633 C 835.180 637.923, 830.555 648.563, 828.298 651.982 C 822.382 660.945, 828.994 668.500, 836.099 660.894 C 837.694 659.186, 839.003 657.274, 839.006 656.644 C 839.010 656.015, 839.733 654.150, 840.613 652.500 C 841.494 650.850, 843.042 647.250, 844.053 644.500 C 849.142 630.656, 849.099 630.825, 847.910 629.392 C 846.473 627.661, 839.597 627.560, 838.245 629.250 M 142.409 633.498 C 140.720 636.076, 141.424 643.781, 144.169 652.767 C 145.146 655.966, 149.160 659, 152.415 659 C 154.682 659, 156.288 655.406, 155.052 653.097 C 154.492 652.051, 153.623 647.526, 153.122 643.042 C 151.847 631.644, 146.655 627.019, 142.409 633.498 M 572.250 640.027 C 555.761 647.771, 565.411 655.335, 582.922 648.392 C 590.731 645.295, 593 643.492, 593 640.380 C 593 634.723, 583.875 634.567, 572.250 640.027 M 292.707 651.016 C 289.052 653.891, 289.247 655.064, 294.668 662.821 C 302.426 673.921, 305.799 677, 310.203 677 C 317.183 677, 319.523 672.169, 314.544 668.037 C 313.684 667.322, 310.989 663.744, 308.556 660.084 C 301.401 649.322, 297.615 647.156, 292.707 651.016 M 187.561 653.348 C 185.286 655.623, 185.257 655.861, 186.607 661.066 C 187.373 664.019, 188 667.845, 188 669.568 C 188 676.563, 195.759 683.183, 201.431 681.026 C 204.383 679.904, 204.508 679.041, 202.540 673.393 C 201.752 671.134, 200.588 666.299, 199.952 662.648 C 198.065 651.811, 192.943 647.966, 187.561 653.348 M 386.950 657.050 L 384.899 659.101 387.115 662.800 C 390.634 668.677, 392.002 669.899, 398.584 673.040 C 408.875 677.952, 416 676.462, 416 669.400 C 416 666.572, 414.682 665.640, 407.575 663.446 C 404.317 662.440, 399.700 660.128, 397.317 658.308 C 392.306 654.483, 389.818 654.182, 386.950 657.050 M 603.557 663.480 C 599.739 665.416, 595.862 667, 594.942 667 C 591.806 667, 587.864 671.011, 588.195 673.866 C 588.488 676.397, 588.735 676.496, 594.500 676.406 C 604.897 676.242, 616.489 669.139, 615.825 663.338 C 615.353 659.219, 611.881 659.259, 603.557 663.480 M 712.447 662.240 C 711.317 662.933, 708.617 665.203, 706.447 667.284 C 704.276 669.366, 699.666 673.617, 696.203 676.732 C 691.167 681.260, 689.965 682.906, 690.203 684.947 C 690.920 691.104, 702.549 686.245, 716.030 674.158 C 723.807 667.185, 720.783 657.125, 712.447 662.240 M 561 681.910 C 555.094 682.753, 554 683.546, 554 686.986 C 554 695.919, 570.223 695.686, 573.422 686.708 C 575.257 681.556, 572.078 680.328, 561 681.910 M 261.950 689.632 C 260.537 693.349, 261.497 695.447, 266.304 699.147 C 268.612 700.923, 273.475 704.766, 277.111 707.688 C 284.878 713.928, 292.961 714.690, 294.722 709.348 C 295.529 706.898, 284.409 697.059, 275.143 692.024 C 264.517 686.251, 263.318 686.033, 261.950 689.632 M 724.650 691.336 C 716.975 699.465, 707.333 714.112, 708.458 715.933 C 712.252 722.071, 734 702.331, 734 692.750 C 734 687.227, 729.213 686.503, 724.650 691.336 M 774.419 688.684 C 773.274 688.910, 768.887 692.866, 764.669 697.474 C 756.827 706.042, 755.383 709.413, 758.459 711.966 C 764.075 716.626, 782.499 696.954, 779.598 689.395 C 779.064 688.004, 778.354 687.906, 774.419 688.684 M 351.223 694.557 C 345.414 698.625, 349.539 702.784, 363.642 707.078 C 365.370 707.604, 367.337 708.702, 368.014 709.517 C 371.393 713.588, 381 710.170, 381 704.896 C 381 698.337, 357.483 690.172, 351.223 694.557 M 172.455 699.455 C 169.553 702.356, 169.512 702.928, 171.616 711.169 C 175.033 724.553, 181.636 732.208, 187.772 729.902 C 191.370 728.550, 191.475 726.324, 188.254 719.690 C 186.601 716.286, 184.912 711.925, 184.502 710 C 183.043 703.154, 178.791 697, 175.520 697 C 175.184 697, 173.805 698.105, 172.455 699.455 M 799.395 698.430 C 796.239 699.804, 795.039 702.217, 795.014 707.239 C 795.004 709.112, 793.418 711.725, 790 715.500 C 784.402 721.681, 784.397 721.694, 786.557 724.777 C 791.954 732.484, 805.023 719.595, 806.259 705.346 C 806.978 697.057, 805.642 695.711, 799.395 698.430 M 645.970 704.019 C 636.053 710.923, 631.278 713.771, 626.764 715.474 C 616.626 719.299, 617.053 724.514, 627.500 724.472 C 635.844 724.438, 642.770 720.658, 651.798 711.213 C 660.397 702.216, 656.129 696.946, 645.970 704.019 M 216.635 705.073 C 213.446 707.581, 213.327 709.085, 216.119 711.595 C 217.284 712.643, 220.292 716.425, 222.804 720 C 230.002 730.245, 233.398 732.463, 238.066 729.965 C 240.949 728.422, 240.453 725.587, 235.750 716.755 C 228.933 703.951, 222.814 700.212, 216.635 705.073 M 420.691 722.536 C 412.388 727.235, 422.376 734.357, 439.178 735.718 C 446.542 736.314, 451.469 733.276, 450.794 728.556 C 450.133 723.933, 426.555 719.217, 420.691 722.536 M 327 731.980 C 323.331 734.821, 324.859 736.452, 338.371 744.122 C 352.455 752.116, 361.512 754.132, 366.777 750.443 C 372.330 746.554, 368.937 742.734, 357.418 739.906 C 354.713 739.242, 348.110 736.742, 342.744 734.350 C 331.750 729.448, 330.511 729.262, 327 731.980 M 554.172 737.510 C 542.772 739.318, 539.063 743.033, 544.106 747.595 C 550.861 753.705, 579.147 745.002, 576.693 737.568 C 576.178 736.011, 563.834 735.979, 554.172 737.510 M 660.305 744.266 C 659.098 744.951, 656.544 747.340, 654.631 749.576 C 652.718 751.811, 648.420 755.096, 645.081 756.876 C 636.690 761.348, 635.474 764.108, 640.684 766.850 C 648.510 770.969, 669.691 755.718, 668.802 746.604 C 668.457 743.062, 664.397 741.945, 660.305 744.266 M 729.580 747.045 C 727.973 747.525, 724.823 749.673, 722.580 751.817 C 720.336 753.962, 716.393 757.131, 713.817 758.861 C 702.197 766.660, 710.171 771.757, 723.161 764.833 C 730.453 760.947, 733.511 757.457, 734.379 752.032 C 735.345 745.991, 734.844 745.471, 729.580 747.045 M 270.223 752.557 C 265.542 755.835, 267.649 759.470, 279 767.703 C 289.144 775.060, 296.611 777.362, 300.805 774.424 C 304.440 771.878, 303.437 769.609, 296.250 764.115 C 292.538 761.278, 287.324 757.166, 284.664 754.978 C 279.297 750.564, 274.271 749.721, 270.223 752.557 M 751.703 765.750 C 747.025 771.112, 742.028 776.591, 740.598 777.924 C 735.985 782.228, 737.963 787, 744.359 787 C 749.618 787, 768.347 761.952, 766.563 757.304 C 765.005 753.243, 760.262 755.939, 751.703 765.750 M 214.655 758.829 C 211.929 761.841, 212.710 764.436, 218.817 772.663 C 229.610 787.205, 239.923 792.346, 244.447 785.440 C 246.895 781.705, 246.366 780.526, 240.499 776.631 C 237.072 774.355, 232.946 770.204, 229.555 765.618 C 226.561 761.569, 223.374 757.974, 222.474 757.628 C 219.500 756.487, 216.334 756.973, 214.655 758.829 M 408.250 762.008 C 406.758 762.623, 406 763.784, 406 765.454 C 406 775.158, 435.940 776.809, 440.254 767.342 C 442.214 763.041, 439.316 761.815, 428 762.160 C 422.775 762.319, 416.700 762.141, 414.500 761.765 C 412.300 761.389, 409.488 761.498, 408.250 762.008 M 589.413 772.934 C 586.615 773.942, 581.953 775.094, 579.054 775.493 C 570.463 776.674, 567.749 780.657, 573.250 784.011 C 580.043 788.153, 592.796 785.597, 598.366 778.977 C 604.027 772.249, 599.601 769.261, 589.413 772.934 M 480.995 777.803 C 473.474 783.894, 504.433 792.596, 513 786.799 C 517.022 784.078, 517.879 781.090, 515.294 778.801 C 512.130 775.999, 484.226 775.187, 480.995 777.803 M 663.359 790.961 C 659.964 792.629, 654.234 794.400, 650.541 794.923 C 642.858 796.011, 640.777 797.323, 641.199 800.816 C 642.306 809.975, 659.036 808.067, 670.864 797.432 C 680.163 789.072, 675.460 785.017, 663.359 790.961 M 338.684 793.034 C 328.474 801.065, 354.697 810.190, 368.552 803.427 C 375.826 799.877, 374.283 796.800, 364.500 795.345 C 360.100 794.690, 354.475 793.637, 352 793.005 C 343.051 790.719, 341.623 790.722, 338.684 793.034 M 266.413 805.321 C 262.611 808.591, 263.803 811.134, 273.208 819.821 C 282.226 828.150, 285.023 829.267, 288.555 825.948 C 292.130 822.589, 291.733 821.544, 283.750 813.297 C 273.482 802.691, 270.869 801.488, 266.413 805.321 M 704.916 810.339 C 701.844 813.235, 695.662 817.514, 691.177 819.847 C 681.551 824.855, 680.163 826.666, 683.095 830.393 C 686.348 834.529, 689.476 833.813, 701 826.296 C 710.039 820.400, 713.376 817.171, 715.459 812.304 C 719.317 803.292, 713.532 802.214, 704.916 810.339 M 414.223 810.557 C 403.789 817.864, 428.188 827.072, 439.304 820.022 C 446.226 815.633, 445.762 813.390, 437.750 812.510 C 434.313 812.133, 429.572 811.188, 427.215 810.412 C 421.626 808.570, 416.985 808.622, 414.223 810.557 M 593.500 813.497 C 592.303 814.329, 586.813 815.245, 579.832 815.776 C 564.233 816.962, 559.785 819.785, 565.117 825.117 C 568.791 828.791, 589.863 827.566, 596.034 823.321 C 603.807 817.973, 605.275 811.949, 598.781 812.052 C 596.977 812.081, 594.600 812.731, 593.500 813.497 M 507.500 815.083 C 505.300 815.546, 499.233 816.280, 494.018 816.713 C 479.076 817.953, 478.155 826.106, 492.785 827.635 C 506.278 829.046, 524.160 819.367, 516.066 815.035 C 513.904 813.878, 513.199 813.882, 507.500 815.083 M 326.691 836.603 C 318.908 840.822, 330.363 850.924, 344.781 852.555 C 350.856 853.242, 357 850.166, 357 846.437 C 357 844.931, 352.063 842, 349.528 842 C 348.664 842, 343.926 840.425, 339 838.500 C 334.074 836.575, 329.921 835.018, 329.772 835.040 C 329.622 835.062, 328.236 835.765, 326.691 836.603 M 632.441 846.402 C 620.943 849.386, 605.255 856.173, 604.339 858.558 C 602.157 864.244, 608.942 866.575, 617 862.908 C 619.475 861.782, 625.950 859.780, 631.388 858.460 C 641.921 855.903, 643.675 854.876, 646.513 849.606 C 650.376 842.432, 648.971 842.112, 632.441 846.402 M 399.588 854.902 C 393.320 861.829, 405.054 867.132, 420.959 864.559 C 431.702 862.822, 431.656 862.845, 432.524 858.890 C 433.591 854.034, 432.394 853.633, 416.094 853.379 C 402.957 853.175, 400.987 853.357, 399.588 854.902 M 537.960 859.831 C 530.232 866.089, 547.027 874.054, 565.210 872.753 C 580.888 871.631, 580.413 861, 564.685 861 C 561.283 861, 555.349 860.333, 551.500 859.517 C 542.398 857.589, 540.679 857.629, 537.960 859.831 M 482.449 860.916 C 471.702 861.620, 468 863.432, 468 867.988 C 468 872.344, 470.289 873, 485.480 873 C 498.598 873, 499.180 872.911, 501.545 870.545 C 504.201 867.890, 504.749 864.598, 502.750 863.317 C 500.654 861.974, 494.591 860.021, 493 860.177 C 492.175 860.258, 487.427 860.590, 482.449 860.916"/>
    </g>
  </g>
</svg>
