<svg viewBox="0 0 74 74" width="74mm" height="74mm" xmlns="http://www.w3.org/2000/svg">
  <g transform="scale(0.074000)">
    <g id="forma" fill="#CB3747">
      <path d="M 477.001 91.123 C 470.414 93.750, 467.110 99.488, 464.115 113.500 C 458.964 137.603, 455.931 172.266, 453.965 229.500 C 452.188 281.266, 450.489 308.454, 445.468 365.500 C 443.580 386.950, 441.349 415.750, 440.510 429.500 C 439.672 443.250, 438.521 458.100, 437.953 462.500 C 437.385 466.900, 436.531 476.927, 436.054 484.782 C 434.809 505.313, 433.085 507.174, 421.631 500.345 C 413.785 495.667, 411.558 493.629, 408.392 488.226 C 404.694 481.915, 386.364 456.283, 381.894 451.171 C 379.812 448.789, 377.379 444.645, 376.487 441.962 C 375.241 438.209, 373.471 435.873, 368.823 431.847 C 365.499 428.967, 361.629 424.786, 360.223 422.556 C 358.817 420.325, 352.649 412.200, 346.516 404.500 C 332.602 387.031, 333.635 388.914, 332.942 379.754 C 332.232 370.371, 330.611 368.220, 321.833 365.019 C 316.851 363.203, 315.386 362.108, 313.328 358.662 C 299.459 335.444, 285.132 312.687, 282.158 309.152 C 280.146 306.761, 277.427 303.161, 276.116 301.152 C 274.804 299.143, 271.166 294.800, 268.030 291.500 C 264.894 288.200, 261.732 284.375, 261.002 283 C 260.273 281.625, 256.327 276.071, 252.232 270.658 C 248.138 265.245, 242.527 257.145, 239.763 252.658 C 236.999 248.171, 232.396 241.575, 229.534 238 C 226.672 234.425, 219.901 225.200, 214.488 217.500 C 209.074 209.800, 201.230 199, 197.055 193.500 C 192.880 188, 185.197 176.783, 179.982 168.574 C 166.667 147.615, 161.510 142.322, 148.188 135.943 C 133.244 128.788, 128.252 128.552, 120.996 134.657 C 113.208 141.210, 106.454 167.904, 105.349 196.500 C 105.072 203.650, 104.206 211.493, 103.423 213.928 C 101.425 220.144, 101.634 223.603, 104.500 231.807 C 106.563 237.712, 107.003 240.845, 107.015 249.731 C 107.023 255.885, 107.689 263.285, 108.568 267 C 109.414 270.575, 110.542 276.952, 111.074 281.171 C 111.607 285.390, 112.972 290.942, 114.107 293.510 C 116.503 298.926, 116.182 301.066, 111.983 307.688 C 107.879 314.160, 108.060 318.255, 112.920 328.908 L 116.840 337.500 117.508 357 C 117.875 367.725, 118.794 379.264, 119.549 382.643 C 121.320 390.568, 120.413 393.673, 114.294 400.638 C 102.776 413.745, 101.845 416.829, 106.427 426.670 C 109.122 432.458, 110.904 433.751, 117.423 434.645 C 125.034 435.688, 126.783 441.944, 132.552 488.771 C 140.677 554.715, 145.193 569.340, 182.648 651 C 203.268 695.957, 210.452 706.067, 251.643 748.095 C 282.448 779.525, 282.388 779.176, 261.037 803.403 C 253.191 812.305, 251.616 820.155, 256.282 827.102 C 262.047 835.685, 271.271 830.912, 285.121 812.181 C 296.851 796.318, 297.405 796.148, 308.155 805.130 C 316.859 812.402, 324.638 817.777, 331.500 821.263 C 337.496 824.308, 340.379 827.300, 341.846 832 C 343.468 837.200, 349.548 870.356, 352.006 887.408 C 357.375 924.658, 359.297 930, 367.326 930 C 375.637 930, 382.564 918.070, 395.385 881.675 C 403.428 858.843, 402.178 859.369, 426.645 868.540 C 436.418 872.204, 448.034 876.103, 452.457 877.206 C 463.490 879.956, 463.970 880.546, 478.581 909.355 C 496.881 945.439, 500.908 951.007, 508.700 950.996 C 517.763 950.984, 522.543 942.924, 530.936 913.500 C 535.557 897.302, 537.647 894.378, 543.931 895.320 C 545.894 895.614, 553.575 896.822, 561 898.003 C 568.425 899.184, 582.017 900.464, 591.204 900.846 C 612.882 901.747, 611.742 900.692, 644.475 950.185 C 655.695 967.150, 658.453 969.675, 664.664 968.667 C 679.267 966.297, 682.838 948.123, 676.348 909.201 C 673.057 889.458, 673.044 889.495, 685.398 883.327 C 690.404 880.827, 697.034 877.256, 700.131 875.391 C 709.275 869.884, 712.615 870.819, 721.952 881.500 C 728.791 889.324, 731.570 894.963, 734.147 906.252 C 737.141 919.367, 738.861 922.259, 746.785 927.498 C 750.478 929.940, 755.002 933.165, 756.838 934.664 C 769.588 945.083, 782.198 926.890, 776.636 906.100 C 763.908 858.527, 772.321 827.652, 801.792 813.782 C 819.718 805.345, 824.865 799.617, 825.760 787.110 C 826.783 772.814, 819.522 768.815, 799.411 772.598 C 791.337 774.118, 791.331 769.413, 799.384 752.169 C 806.265 737.437, 817.810 708.823, 820.367 700.167 C 821.233 697.234, 823.744 689.917, 825.946 683.907 C 828.149 677.897, 830.669 670.171, 831.546 666.740 C 838.089 641.150, 840.532 636.718, 848.690 635.636 C 860.508 634.068, 864.852 624.750, 859.605 612.220 C 851.308 592.407, 849.875 585.432, 852.548 577.876 C 854.708 571.770, 855.598 567.489, 858.035 551.473 C 860.872 532.831, 862.021 531.522, 870.346 537.441 C 881.682 545.500, 889.329 541.712, 889.406 528 C 889.448 520.434, 889.381 520.289, 876.510 500 C 866.143 483.658, 865.551 482.097, 867.598 476.500 C 868.403 474.300, 869.974 465.300, 871.089 456.500 C 873.755 435.463, 875.139 433.480, 884 438 C 889.071 440.587, 893.052 440.534, 896.486 437.832 C 907.095 429.487, 901.843 408.632, 884.083 388.573 C 876.935 380.500, 876.260 378.650, 878.549 373.392 C 879.602 370.971, 880.496 365.271, 880.912 358.310 C 881.804 343.388, 882.212 342.921, 894.076 343.254 C 915.471 343.854, 917.353 323.949, 897.087 311.405 C 892.559 308.603, 887.706 305.160, 886.301 303.755 C 883.452 300.907, 883.475 301.115, 883.789 280.865 L 884 267.230 888.590 261.655 C 895.909 252.764, 895.740 246.424, 887.907 235.999 L 883.828 230.571 884.169 210.535 C 884.533 189.150, 884.581 188.924, 890.243 181.857 C 897.221 173.149, 895.856 163.493, 886.365 154.409 C 879.567 147.903, 879.095 146.650, 881.614 141.779 C 886.331 132.658, 881.394 114.786, 873.184 111.261 C 859.455 105.366, 848.266 111.050, 839.377 128.433 C 833.971 139.006, 832.276 141.077, 825.422 145.487 C 818.938 149.660, 817.171 153.451, 818.826 159.641 C 820.465 165.768, 820.271 168.809, 817.907 174 C 812.511 185.852, 806.266 204.033, 805.713 209.500 C 805.074 215.833, 804.585 216.503, 797.092 221.312 C 791.661 224.798, 789.480 228.429, 789.891 233.299 C 790.647 242.263, 790.269 248.680, 788.731 253 C 787.850 255.475, 786.855 259.183, 786.521 261.239 C 786.145 263.554, 784.406 266.720, 781.957 269.550 C 778.265 273.815, 778 274.537, 778.003 280.311 C 778.005 285.795, 777.385 287.753, 772.560 297.500 C 769.566 303.550, 765.473 313, 763.466 318.500 C 759.284 329.961, 757.249 332.619, 751.565 334.037 C 737.593 337.524, 734.239 345.220, 741.863 356.300 C 748.906 366.538, 743.035 379.066, 730.500 380.548 C 710.995 382.853, 708.108 391.216, 721.626 406.253 C 726.085 411.213, 725.935 412.715, 719.645 426.103 C 716.699 432.371, 713.515 439.857, 712.569 442.737 C 710.512 448.997, 707.121 452, 702.109 452 C 688.175 452, 683.483 459.658, 690.394 471.119 C 694.620 478.128, 695.315 480.291, 694.512 483.943 C 693.040 490.648, 685.465 494.385, 681.728 490.250 C 678.103 486.239, 641.570 406.928, 625.186 367.500 C 618.558 351.550, 611.039 334, 608.476 328.500 C 605.913 323, 599.762 309.275, 594.808 298 C 589.853 286.725, 584.612 274.810, 583.161 271.522 C 581.710 268.235, 578.092 262.160, 575.122 258.022 C 569.492 250.182, 567.497 246.216, 564.545 237 C 561.468 227.392, 543.766 188.007, 537.578 177 C 536.187 174.525, 533.501 168.450, 531.610 163.500 C 519.285 131.235, 516.665 125.286, 512.244 119.529 C 509.722 116.245, 506.603 110.825, 505.312 107.486 C 499.940 93.586, 488.054 86.716, 477.001 91.123"/>
    </g>
    <g id="detalles" fill="#1A1A1A">
      <path d="M 501.121 117.710 C 493.182 121.621, 492.450 127.397, 497.407 147.016 C 504.752 176.082, 509.400 182.321, 523.812 182.452 C 535.968 182.562, 537.852 174.350, 530.154 154.804 C 527.489 148.037, 523.834 138.675, 522.031 134 C 515.485 117.025, 510.460 113.110, 501.121 117.710 M 824.274 144.093 C 803.792 154.232, 823.433 174.744, 857.602 178.898 C 862.575 179.503, 869.866 181.123, 873.804 182.499 C 888.408 187.601, 895.978 183.660, 895.993 170.946 C 896.012 155.403, 884.688 147.120, 860.520 145.002 C 854.419 144.467, 847.020 143.573, 844.077 143.015 C 835.587 141.405, 828.979 141.764, 824.274 144.093 M 153.921 160.316 C 147.812 162.587, 149.165 161.258, 114.224 199.309 C 98.843 216.060, 97.241 221.261, 103.746 233.334 C 107.093 239.545, 110.253 241.550, 115.224 240.618 C 120.330 239.660, 169.923 190.689, 173.131 183.437 C 179.349 169.380, 167.595 155.233, 153.921 160.316 M 467.299 166.898 C 460.877 171.550, 460 175.043, 460 195.955 C 460 218.943, 461.342 222.342, 472.500 227.617 C 486.757 234.357, 491.377 226.691, 488.542 201 C 484.643 165.669, 479.778 157.859, 467.299 166.898 M 536.307 216.079 C 529.343 220.540, 529.663 223.573, 539.944 250.500 C 549.907 276.591, 552.019 279.267, 563.750 280.657 C 580.102 282.594, 578.777 263.366, 560.292 230.500 C 550.858 213.728, 545.246 210.353, 536.307 216.079 M 801.500 217.976 C 787.256 221.638, 783.134 233.049, 792.766 242.155 C 800.388 249.362, 802.005 250.011, 817.253 251.983 C 825.089 252.996, 835.325 254.743, 840 255.865 C 882.040 265.953, 882.970 266.101, 887.971 263.515 C 896.711 258.995, 898.330 244.484, 890.921 237.075 C 881.795 227.949, 816.748 214.056, 801.500 217.976 M 193.500 224.403 C 175.959 233.319, 119.146 290.603, 109.117 309.485 C 102.950 321.095, 114.370 340.141, 124.316 334.835 C 128.814 332.434, 140.417 321.205, 147.050 312.831 C 161.348 294.781, 182.231 274.666, 201.906 259.990 C 215.141 250.118, 217.460 246.906, 217.483 238.425 C 217.519 225.146, 205.668 218.218, 193.500 224.403 M 787.994 264.934 C 777.570 268.105, 773.439 275.146, 777.450 282.904 C 779.769 287.388, 789.542 295.668, 794.733 297.546 C 819.082 306.357, 857.669 324.712, 879.290 337.769 C 899.838 350.178, 912 347.192, 912 329.738 C 912 317.312, 907.673 313.850, 866.198 293.099 C 820.395 270.182, 797.659 261.994, 787.994 264.934 M 464.500 266.871 C 456.523 271.825, 454.975 276.820, 455.044 297.386 C 455.105 315.740, 456.631 319.433, 466.500 325.107 C 480.984 333.434, 487.345 321.986, 484.063 293.500 C 481.156 268.270, 475.231 260.206, 464.500 266.871 M 246.819 291.384 C 232.880 297.117, 194.265 321.726, 177.129 335.796 C 157.694 351.754, 110.869 399.748, 103.627 411.134 C 99.737 417.250, 104.189 431.636, 111.142 435.419 L 114.669 437.339 119.585 434.967 C 125.063 432.325, 131.566 426.010, 153.284 402.246 C 186.605 365.785, 227.868 335.328, 258.056 324.912 C 272.186 320.036, 278.648 311.596, 276.601 300.689 C 274.629 290.172, 260.498 285.758, 246.819 291.384 M 520.990 297.250 C 513.627 302.261, 513.500 302.753, 513.501 326.328 C 513.501 350.813, 513.996 353.066, 520.657 358.930 C 536.768 373.110, 542.683 369.185, 541.524 345.082 C 539.605 305.152, 532.770 289.232, 520.990 297.250 M 583.500 314.536 C 575.611 318.543, 575.247 323.234, 581.408 341.460 C 583.833 348.632, 587.249 358.988, 589 364.474 C 593.603 378.898, 597.370 382.916, 607.861 384.594 C 621.732 386.812, 623.285 379.268, 614.174 353.928 C 600.542 316.009, 594.890 308.751, 583.500 314.536 M 746.534 333.420 C 732.288 337.381, 732.432 353.879, 746.782 361.817 C 749.086 363.091, 763.642 368.166, 779.129 373.094 C 794.616 378.022, 810.260 383.355, 813.894 384.946 C 817.527 386.536, 824.004 389.226, 828.288 390.923 C 851.489 400.117, 865.274 410.954, 871.001 424.500 C 877.118 438.969, 890.917 446.017, 898.426 438.507 C 915.339 421.594, 890.380 381.730, 851.884 364.170 C 839.505 358.524, 827.016 354.100, 792.159 343.013 C 758.183 332.207, 754.033 331.334, 746.534 333.420 M 300 365.391 C 263.875 378.445, 200.332 415.601, 169 441.991 C 163.775 446.392, 156.800 452.126, 153.500 454.734 C 135.445 468.998, 133.780 472.238, 139.069 482.822 C 146.784 498.261, 151.476 497.277, 178.456 474.557 C 211.025 447.130, 257.151 418.347, 291 404.328 C 331.498 387.554, 336.536 384.001, 334.584 373.595 C 332.757 363.860, 315.540 359.775, 300 365.391 M 462.743 368.529 C 457.022 372.416, 455.999 375.405, 454.764 391.829 C 453.387 410.133, 453.873 412.880, 459.558 418.958 C 476.311 436.869, 486.306 423.735, 481.595 390 C 478.341 366.703, 473.516 361.208, 462.743 368.529 M 722.037 380.111 C 702.512 386.070, 711.104 409.092, 733.732 411.447 C 741.616 412.267, 749.563 414.991, 756.820 419.360 C 759.944 421.241, 765.865 424.461, 769.977 426.517 C 798.932 440.989, 825.239 467.857, 847.799 506 C 868.448 540.912, 874.316 546.820, 884.232 542.677 C 890.707 539.971, 893.830 526.291, 889.757 518.473 C 887.601 514.336, 872.684 490.869, 867.526 483.500 C 865.216 480.200, 861.647 474.447, 859.595 470.716 C 842.559 439.740, 787.509 395.343, 749.500 381.927 C 742.558 379.476, 727.399 378.474, 722.037 380.111 M 534.556 410.267 C 527.469 414.281, 526.547 417.130, 526.166 436.207 C 525.666 461.272, 528.405 467.642, 541.344 471.503 C 554.811 475.521, 558.403 466.186, 553.450 440.041 C 552.665 435.893, 551.354 428.041, 550.537 422.592 C 548.366 408.109, 544.131 404.843, 534.556 410.267 M 619.090 417.873 C 611.111 420.105, 611.372 422.603, 622.411 449.683 C 626.040 458.584, 630.841 472.534, 633.081 480.683 C 638.725 501.216, 642.712 506.178, 653.749 506.408 C 665.516 506.653, 667.017 495.692, 658.257 473.500 C 655.434 466.350, 651.492 455.715, 649.495 449.866 C 645.178 437.220, 635.369 419.945, 631.505 418.184 C 628.723 416.917, 623.021 416.774, 619.090 417.873 M 355.500 428.684 C 320.716 432.773, 283.779 447.154, 240 473.651 C 230.925 479.144, 220.575 485.255, 217 487.232 C 213.425 489.209, 203.300 496.026, 194.500 502.383 C 162.425 525.550, 160.198 529.216, 168.151 545.777 C 172.821 555.504, 176.827 555.043, 192.647 542.963 C 214.233 526.480, 223.283 520.341, 246 506.770 C 295.281 477.328, 318.618 467.951, 354.956 462.986 C 385.440 458.821, 385.975 425.102, 355.500 428.684 M 579.500 443.155 C 573.934 446.199, 573.761 449.975, 578.405 467.010 C 580.277 473.879, 583.240 485.450, 584.989 492.722 C 588.592 507.709, 590.071 510.193, 597.421 513.616 C 616.357 522.433, 619.183 508.176, 605.770 471.500 C 596.298 445.600, 589.143 437.880, 579.500 443.155 M 688.997 453.750 C 680.150 461.767, 687.776 477.715, 703.255 483.569 C 714.069 487.658, 725.812 493.228, 732 497.203 C 735.025 499.146, 742 502.996, 747.500 505.757 C 784.605 524.389, 805.981 551.484, 826.188 605.500 C 832.509 622.395, 837.449 631.002, 842.977 634.750 C 849.544 639.202, 858.099 636.646, 861.960 629.079 C 865.500 622.139, 865.744 623.155, 852.222 588.500 C 831.320 534.933, 803.722 500.924, 761.879 477.169 C 718.953 452.799, 697.613 445.942, 688.997 453.750 M 464.292 457.664 C 456.499 462.717, 455.485 465.964, 455.601 485.500 C 455.722 505.963, 456.515 509.376, 462.408 514.808 C 472.324 523.949, 481.713 522.317, 485.054 510.873 C 486.378 506.335, 483.236 469.895, 480.862 462.266 C 478.618 455.056, 471.404 453.052, 464.292 457.664 M 383 494.695 C 367.314 497.346, 327.376 511.448, 286 528.945 C 279.675 531.619, 269.775 535.614, 264 537.821 C 227.096 551.927, 183.704 578.117, 176.296 590.758 C 170.210 601.143, 176.228 617, 186.254 617 C 191.054 617, 192.509 616.244, 202.500 608.560 C 229.671 587.662, 247.676 579.170, 325 550.785 C 381.511 530.041, 388.521 528.379, 403.863 532.088 C 422.461 536.584, 434.676 527.078, 431.571 510.526 C 429.232 498.059, 406.647 490.698, 383 494.695 M 538.096 506.265 C 533.611 508.570, 531.976 512.073, 530.968 521.541 C 530.443 526.468, 529.336 532.709, 528.507 535.409 C 527.473 538.778, 526.995 544.738, 526.983 554.409 C 526.973 562.421, 526.375 571.304, 525.598 575 C 524.763 578.966, 523.967 592.220, 523.556 609 C 523.185 624.125, 522.428 637.679, 521.873 639.120 C 519.780 644.560, 511.053 644.918, 506.274 639.761 C 502.623 635.821, 501.519 628.924, 494.038 563.318 C 491.875 544.348, 490.545 541.600, 483.534 541.600 C 474.634 541.600, 471.357 548.394, 473.598 562.196 C 474.429 567.313, 475.521 580.950, 476.025 592.500 C 476.529 604.050, 477.378 617.325, 477.910 622 C 478.443 626.675, 479.177 634.550, 479.542 639.500 C 479.907 644.450, 480.844 651.875, 481.625 656 C 482.406 660.125, 483.927 669.434, 485.005 676.686 C 489.063 703.987, 498.547 711.034, 508.175 693.902 C 513.987 683.561, 520.771 689.800, 527.923 712.066 C 536.227 737.918, 550.182 745.123, 555.745 726.431 C 557.058 722.021, 555.890 693.933, 553.877 681.500 C 553.141 676.952, 552.526 645.921, 552.122 592.902 C 551.446 504.268, 551.825 509.512, 545.872 506.434 C 542.504 504.692, 541.211 504.664, 538.096 506.265 M 642.883 539.002 C 636.073 546.161, 635.610 552.313, 641.264 560.517 C 650.982 574.620, 667.889 569.400, 667.978 552.270 C 668.055 537.472, 652.275 529.129, 642.883 539.002 M 696.415 537.421 C 687.161 541.450, 684.804 551.832, 691.013 561.206 C 700.546 575.598, 717.009 569.565, 716.996 551.685 C 716.988 540.421, 706.392 533.077, 696.415 537.421 M 430.299 538.960 C 421.715 544.193, 418.103 566.202, 424.460 574.537 C 434.317 587.460, 452.857 582.337, 452.978 566.657 C 453.145 544.990, 442.243 531.676, 430.299 538.960 M 597.415 544.363 C 586.748 549.210, 585.622 562.464, 595.047 572.243 C 605.404 582.988, 619 575.744, 619 559.482 C 619 547.344, 607.926 539.587, 597.415 544.363 M 363.790 546.896 C 357.152 552.827, 358.920 570.081, 366.905 577.295 C 377.723 587.069, 390 585, 390 573.403 C 390 552.822, 374.595 537.242, 363.790 546.896 M 747.415 560.421 C 738.333 564.376, 736.049 574.727, 742.251 583.826 C 748.202 592.555, 756.112 594.474, 762.614 588.766 C 776.873 576.247, 764.417 553.019, 747.415 560.421 M 311.021 566.069 C 302.144 569.778, 303.210 577.265, 313.208 581.442 C 319.257 583.970, 325 580.345, 325 574 C 325 567.625, 317.492 563.366, 311.021 566.069 M 394 591.979 C 389.325 592.418, 374.700 593.723, 361.500 594.879 C 318.682 598.628, 314.937 599.006, 310.335 600.037 C 294.317 603.627, 286.239 620.750, 296.687 628.968 C 300.741 632.157, 302.815 632.315, 318.714 630.647 C 357.004 626.629, 359.988 627.182, 358.496 638.031 C 357.360 646.292, 360.442 661.886, 364.297 667.376 C 370.983 676.900, 380.425 675.323, 400.682 661.297 C 412.624 653.029, 418 644.996, 418 635.421 C 418 624.973, 423.176 623.168, 435.811 629.209 C 447.768 634.925, 459 626.547, 459 611.913 C 459 596.753, 431.842 588.424, 394 591.979 M 642 596.060 C 603.461 598.843, 573.926 614.427, 573.603 632.149 C 573.396 643.528, 579.250 645.529, 594.976 639.456 C 612.428 632.716, 635.962 627.894, 641.370 629.951 C 645.202 631.407, 645.173 633.571, 641.221 641.139 C 632.907 657.061, 638.431 679.355, 651.566 682.885 C 659.406 684.992, 672.333 684.576, 676.362 682.085 C 689.371 674.045, 698.867 652.389, 693.500 643 C 688.544 634.330, 693.182 631.164, 703.185 636.389 C 713.005 641.519, 718.649 640.474, 722.264 632.856 C 734.747 606.550, 702.358 591.702, 642 596.060 M 239.285 607.421 C 233.406 610.078, 233.833 615.518, 240.954 628.674 C 251.572 648.291, 272.719 647.171, 269.028 627.188 C 266.170 611.721, 251.437 601.930, 239.285 607.421 M 767.500 622.356 C 749.028 630.795, 762.860 655.657, 787.074 657.540 L 795.648 658.207 798.324 655.027 C 804.024 648.253, 801.388 640.058, 790.668 631.231 C 778.668 621.349, 773.792 619.482, 767.500 622.356 M 289.325 656.405 C 279.903 660.664, 279.193 675.428, 287.987 684.222 C 296.948 693.184, 310.429 684.929, 310.429 670.481 C 310.429 659.643, 299.011 652.027, 289.325 656.405 M 227.500 656.686 C 203.253 662.190, 198.269 668.829, 209.894 680.134 C 224.682 694.514, 247.884 688.645, 247.976 670.500 C 248.030 659.918, 239.277 654.013, 227.500 656.686 M 435.379 670.437 C 426.663 674.230, 423.376 686.148, 428.939 693.783 C 436.794 704.562, 447.675 704.501, 452.929 693.647 C 459.620 679.826, 448.276 664.823, 435.379 670.437 M 744.334 672.064 C 734.151 677.104, 735.202 688.383, 747.061 701.326 C 757.208 712.399, 769.903 717.010, 776.328 711.957 C 782.382 707.194, 780.407 699.105, 769.804 685.243 C 757.697 669.416, 753.779 667.388, 744.334 672.064 M 390.304 693.956 C 380.962 699.652, 380.170 710.434, 388.484 718.747 C 395.429 725.692, 404.458 723.882, 408.929 714.647 C 415.545 700.980, 402.519 686.508, 390.304 693.956 M 323.379 702.389 C 319.184 704.279, 315.376 709.497, 312.950 716.681 C 311.070 722.250, 290.446 759.902, 282.649 772 C 278.774 778.013, 269.909 789.853, 261.726 799.944 C 250.171 814.192, 248.623 824.066, 256.801 831.350 C 266.072 839.607, 280.241 825.672, 306.469 782.500 C 324.761 752.390, 322.987 750.647, 335.983 811.500 C 342.957 844.157, 345.585 857.592, 348.013 873 C 357.588 933.776, 358.941 937.080, 371.711 930.898 C 380.904 926.448, 387.424 911.624, 410.482 842.748 C 424.110 802.040, 425.098 801.340, 435.525 825 C 443.049 842.073, 485.701 927.713, 491.660 937.712 C 500.810 953.068, 506.260 955.968, 515.638 950.472 C 524.303 945.394, 531.388 924.260, 543.957 866 C 557.795 801.861, 555.501 802.717, 581.494 852 C 594.086 875.873, 600.530 887.456, 604.129 892.687 C 605.799 895.115, 608.691 899.799, 610.554 903.096 C 612.418 906.393, 618.343 915.233, 623.721 922.741 C 629.100 930.249, 638 943.166, 643.500 951.446 C 654.439 967.914, 658.236 971.524, 663.699 970.653 C 681.148 967.869, 685.030 951.153, 678.019 909 C 666.398 839.134, 669.694 823.524, 690.881 848.099 C 694.391 852.169, 702.941 861.952, 709.881 869.839 C 727.640 890.017, 729.323 892.745, 732.535 906.558 C 735.592 919.705, 737.627 923.278, 744.534 927.626 C 747.265 929.345, 751.300 932.319, 753.500 934.235 C 758.981 939.007, 761.718 940.284, 764.843 939.524 C 777.126 936.538, 783.052 922.531, 778.556 907.115 C 768.247 871.774, 772.337 837.255, 788.481 823.343 C 790.670 821.456, 797.645 817.428, 803.981 814.390 C 821.516 805.984, 826.915 799.640, 827.778 786.432 C 828.558 774.487, 824.336 770.186, 810.884 769.224 C 796.615 768.203, 768.328 788.845, 753.292 811.253 C 744.680 824.086, 739.908 829.382, 734.673 831.916 C 725.499 836.357, 723.386 835.007, 706.647 814.005 C 695.630 800.183, 691.556 795.925, 681.500 787.721 C 663.305 772.876, 662.726 772.537, 655.599 772.517 C 641.160 772.477, 635.721 784.964, 639.271 810 C 640.941 821.776, 640.743 870.915, 639.008 875.480 C 637.674 878.989, 634.615 878.673, 631.595 874.714 C 627.456 869.287, 602.599 825.105, 592.165 804.629 C 568.618 758.420, 550.650 744.170, 537.565 761.326 C 534.502 765.342, 534.035 767.282, 524.994 813.500 C 511.788 881.011, 507.336 893.687, 499.776 885.297 C 498.049 883.380, 481.222 849.870, 479.039 844 C 477.295 839.310, 462.897 808.744, 451.954 786.500 C 438.843 759.848, 432.372 752.906, 420.375 752.623 C 410.394 752.387, 405.619 761.299, 397.461 795.395 C 391.337 820.985, 378.816 852.169, 374.412 852.798 C 370.978 853.289, 370.141 851.127, 365.528 829.865 C 358.525 797.592, 356.022 786.368, 352.846 773 C 346.087 744.558, 343.786 731.606, 343.586 720.871 C 343.361 708.798, 342.361 706.348, 336.524 703.578 C 331.412 701.153, 327.008 700.754, 323.379 702.389 M 621.748 708.069 C 609.912 714.317, 605.955 736.265, 615.155 744.633 C 625.399 753.951, 632.446 751.807, 639.131 737.337 C 649.061 715.844, 639.026 698.948, 621.748 708.069 M 714.415 707.421 C 706.495 710.870, 705.607 715.969, 708.959 738.753 C 711.835 758.304, 714.963 763.645, 724.590 765.451 C 733.403 767.104, 737 761.097, 737 744.727 C 737 716.059, 728.150 701.441, 714.415 707.421 M 484 724.752 C 472.257 730.618, 476.473 754.002, 490.926 763.168 C 502.039 770.216, 508.163 762.567, 506.717 743.446 C 505.446 726.634, 495.921 718.796, 484 724.752"/>
    </g>
  </g>
</svg>
